<svg width="257" height="30" viewBox="0 0 257 30" fill="none" xmlns="http://www.w3.org/2000/svg">
<path d="M123.738 23.0496H96.3633V29.2586H123.738V23.0496Z" fill="white"/>
<path d="M6.00682 29.2586H24.4981V23.0496H0.722153L6.00682 29.2586Z" fill="white"/>
<path d="M121.804 11.5248H96.3633V17.7338H121.804V11.5248Z" fill="white"/>
<path d="M26.0587 0V29.2586H32.8962L37.8138 24.1631V0H26.0587Z" fill="white"/>
<path d="M220.271 5.13784V24.1486L225.122 29.1719L225.203 29.2586H237.857V23.0496H230.285L227.647 20.3133V8.95534L230.091 6.21012H237.857V0H224.842L220.271 5.13784Z" fill="white"/>
<path d="M175.357 5.13784V24.1486L180.206 29.1719L180.287 29.2586H192.941V23.0496H185.37L182.731 20.3133V8.95534L185.175 6.21012H192.941V0H179.927L175.357 5.13784Z" fill="white"/>
<path d="M207.525 0H194.501V6.21012H202.266L204.681 8.92754V20.3166L202.046 23.0496H194.501V29.2586H207.167L211.995 24.2532L212.084 24.1631V5.1167L207.61 0.0945478L207.525 0Z" fill="white"/>
<path d="M252.441 0H239.414V6.21012H247.18L249.594 8.92754V20.3166L246.961 23.0496H239.414V29.2586H252.082L256.91 24.2532L257 24.1631V5.1167L252.526 0.0945478L252.441 0Z" fill="white"/>
<path d="M131.617 5.04774L131.538 5.13784V24.1486L136.469 29.2586H138.905V0H136.109L131.617 5.04774Z" fill="white"/>
<path d="M167.843 0H140.466V6.21012H167.843V0Z" fill="white"/>
<path d="M123.738 0H96.3633V6.21012H123.738V0Z" fill="white"/>
<path d="M167.843 23.0496H140.466V29.2586H167.843V23.0496Z" fill="white"/>
<path d="M93.558 0H92.0064H87.4358V5.13784V8.14557V21.1131V24.1486V29.2586H92.3656H93.558H94.8027V0H93.558Z" fill="white"/>
<path d="M56.7567 0H49.3775L43.4822 29.2586H51.2618L55.9069 6.21012H66.1192L64.8667 0H56.7567ZM74.3103 0H66.5419L67.7932 6.21012H67.7999L72.445 29.2586H80.2079L74.3103 0Z" fill="white"/>
</svg>