<svg width="133" height="25" viewBox="0 0 133 25" fill="none" xmlns="http://www.w3.org/2000/svg">
<g clip-path="url(#clip0_1777_2571)">
<path d="M36.1802 24.4602H41.115V9.38398H47.82L48.6783 5.59863H36.1802V24.4602Z" fill="#0039A9"/>
<path d="M93.083 14.4442C93.8005 14.1677 94.4228 13.6757 94.871 13.0306C95.4418 12.2669 95.7362 11.3187 95.7025 10.352C95.7115 9.7577 95.6045 9.16771 95.3878 8.61775C95.1711 8.0678 94.8493 7.56932 94.4419 7.15259C93.2273 6.05667 91.6484 5.49915 90.0435 5.5994H81.1035V24.461H89.4892C91.0821 24.5408 92.6702 24.2219 94.1201 23.5309C94.8641 23.1073 95.4768 22.4722 95.8868 21.6998C96.2968 20.9274 96.4871 20.0497 96.4355 19.169C96.4602 18.5131 96.3483 17.8593 96.1076 17.2526C95.8669 16.6458 95.503 16.1003 95.0409 15.6533C94.4708 15.1207 93.8055 14.7099 93.083 14.4442ZM85.9311 9.28243H88.7829C89.4136 9.23766 90.0411 9.40739 90.5709 9.76605C90.8969 10.1052 91.088 10.5596 91.1063 11.0388C91.1245 11.518 90.9685 11.9868 90.6693 12.3516C90.0481 12.7563 89.3158 12.9361 88.5863 12.8632H85.9043L85.9311 9.28243ZM90.8928 20.0246C90.6168 20.2966 90.2882 20.5045 89.9291 20.6343C89.57 20.7642 89.1885 20.8132 88.8098 20.778H85.9311V16.4811H88.8098C89.4271 16.4351 90.0449 16.5637 90.5978 16.8531C90.8697 17.0269 91.0887 17.2773 91.2295 17.5752C91.3703 17.8731 91.4271 18.2064 91.3934 18.5365C91.4093 19.0848 91.2202 19.6182 90.866 20.0246H90.8928Z" fill="#0039A9"/>
<path d="M98.5095 9.31887H102.774V24.4602H107.736V9.31887H112.036L113.126 5.59863H98.5095V9.31887Z" fill="#0039A9"/>
<path d="M63.76 0.464844L55.0256 24.5069H60.926L62.714 18.415H70.4113L72.1993 24.5069H78.0729L69.3385 0.464844H63.76ZM63.9298 14.4157L66.6118 5.53368L69.2938 14.4157H63.9298Z" fill="#0039A9"/>
<path d="M32.3626 12.4628C32.3626 4.27827 28.1788 0 19.9897 0C12.6947 0 8.61809 3.41333 7.79561 9.95165H5.02419V0.558041H0.0178223V24.4606H5.04208V14.016H7.72408C8.23365 21.2333 12.3639 25 20.0344 25C28.2235 25 32.3716 20.7217 32.4073 12.5465V12.4628H32.3626ZM19.9897 20.5264C14.9834 20.5264 13.1685 17.0201 13.1596 12.5C13.1507 7.97991 14.9476 4.47358 19.9897 4.47358C25.0319 4.47358 26.8377 7.99851 26.8377 12.5C26.8377 17.0015 25.0498 20.5264 19.9897 20.5264Z" fill="#0039A9"/>
<path d="M130.479 7.55193C128.619 6.05642 126.335 5.24512 123.984 5.24512C121.633 5.24512 119.349 6.05642 117.489 7.55193C115.344 9.68177 114.977 12.6115 114.977 14.9924C114.977 17.4013 115.344 20.3216 117.489 22.4329C119.349 23.9284 121.633 24.7397 123.984 24.7397C126.335 24.7397 128.619 23.9284 130.479 22.4329C132.633 20.303 133 17.3827 133 14.9924C133 12.6487 132.633 9.68177 130.479 7.55193ZM127.046 19.5311C126.666 19.9864 126.196 20.3515 125.669 20.6017C125.141 20.852 124.568 20.9814 123.989 20.9814C123.409 20.9814 122.836 20.852 122.308 20.6017C121.781 20.3515 121.311 19.9864 120.931 19.5311C120.502 18.8801 120.037 18.0058 120.037 15.0203C120.037 12.0348 120.475 11.1513 120.931 10.5002C121.313 10.0476 121.783 9.68498 122.31 9.43654C122.838 9.18811 123.41 9.05959 123.989 9.05959C124.567 9.05959 125.14 9.18811 125.667 9.43654C126.194 9.68498 126.664 10.0476 127.046 10.5002C127.475 11.1513 127.94 12.0255 127.94 15.0203C127.94 18.0151 127.475 18.8801 127.046 19.5311Z" fill="#0039A9"/>
<path d="M54.1853 14.3135H49.1431L48.0256 17.4199H53.0678L54.1853 14.3135Z" fill="#F9BC43"/>
</g>
<defs>
<clipPath id="clip0_1777_2571">
<rect width="133" height="25" fill="white"/>
</clipPath>
</defs>
</svg>