<?xml version="1.0" encoding="utf-8"?>
<!-- Generator: Adobe Illustrator 26.0.2, SVG Export Plug-In . SVG Version: 6.00 Build 0)  -->
<svg version="1.1" id="Слой_1" xmlns="http://www.w3.org/2000/svg" xmlns:xlink="http://www.w3.org/1999/xlink" x="0px" y="0px"
	 viewBox="0 0 256 256" style="enable-background:new 0 0 256 256;" xml:space="preserve">
<style type="text/css">
	.st0{fill:#003A8C;}
	.st1{fill:#F7BE34;}
</style>
<path class="st0" d="M128,23.89c-57.9,0-104.83,46.94-104.83,104.83c0,57.9,46.94,104.83,104.83,104.83s104.83-46.94,104.83-104.83
	C232.83,70.82,185.9,23.89,128,23.89z M127.98,219.04c-50.28,0-91.04-40.76-91.04-91.04c0-50.28,40.76-91.04,91.04-91.04
	c50.28,0,91.04,40.76,91.04,91.04C219.02,178.28,178.26,219.04,127.98,219.04z"/>
<path class="st1" d="M127.98,36.96c-50.28,0-91.04,40.76-91.04,91.04c0,50.28,40.76,91.04,91.04,91.04
	c50.28,0,91.04-40.76,91.04-91.04C219.02,77.72,178.26,36.96,127.98,36.96z M128.95,212.74c-46.69,0-84.55-37.85-84.55-84.55
	c0-46.69,37.85-84.55,84.55-84.55c46.69,0,84.54,37.85,84.54,84.55C213.49,174.89,175.64,212.74,128.95,212.74z"/>
<path class="st0" d="M135.08,100.68c1.17,0.3,2.33,0.63,3.44,1.07c0.61,0.24,1.2,0.52,1.79,0.8c1,0.48,1.98,1,2.91,1.58
	c0.56,0.35,1.11,0.7,1.65,1.09c0.92,0.66,1.78,1.4,2.62,2.16c0.44,0.4,0.9,0.78,1.32,1.21c0.99,1.03,1.9,2.14,2.73,3.31
	c0.17,0.24,0.38,0.45,0.54,0.69c0.96,1.43,1.78,2.96,2.48,4.56c0.21,0.47,0.34,0.98,0.52,1.46c0.46,1.22,0.87,2.46,1.16,3.75
	c0.08,0.38,0.16,0.76,0.23,1.14c0.31,1.7,0.53,3.44,0.53,5.23c0,1.78-0.22,3.52-0.53,5.21c-0.07,0.39-0.14,0.78-0.23,1.16
	c-0.37,1.66-0.85,3.28-1.5,4.82c-0.07,0.16-0.16,0.3-0.23,0.46c-0.61,1.38-1.34,2.69-2.15,3.95c-0.24,0.38-0.49,0.75-0.75,1.11
	c-0.93,1.31-1.93,2.57-3.06,3.71c-0.05,0.05-0.11,0.11-0.16,0.16c-1.14,1.13-2.39,2.12-3.7,3.05c-0.37,0.26-0.75,0.51-1.14,0.76
	c-1.24,0.79-2.53,1.51-3.89,2.11c-0.18,0.08-0.34,0.18-0.52,0.26c-1.53,0.64-3.14,1.12-4.79,1.49c-0.4,0.09-0.8,0.16-1.2,0.24
	c-1.69,0.31-3.41,0.52-5.19,0.52c0,0,0,0,0,0c0.01,0,0.01,0,0.02,0c16.01,0,29.02-13.01,29.02-29.02
	c0-16.02-13.01-29.03-29.02-29.03c-0.01,0-0.01,0-0.02,0c1.86,0,3.67,0.21,5.43,0.55C133.98,100.35,134.52,100.53,135.08,100.68z"/>
<path class="st0" d="M128.95,53.17c-39.94,0-72.5,31.23-74.81,70.6l35.87-1.53c0.2-1.14,0.38-2.29,0.67-3.39
	c0.15-0.55,0.31-1.1,0.48-1.65l-25.54-14.44c0.67-1.58,1.38-3.15,2.19-4.68c0.81-1.53,1.7-3,2.61-4.44l26.12,12.75
	c1.82-2.56,3.94-4.88,6.31-6.92L88.67,74.28c1.39-1,2.81-1.98,4.3-2.87c1.48-0.89,3-1.7,4.53-2.45l15.61,24.17
	c2.71-1.14,5.57-1.98,8.54-2.47l0.87-28.83c1.7-0.14,3.42-0.24,5.15-0.24c1.73,0,3.45,0.1,5.16,0.24l0.86,28.73
	c3.2,0.47,6.27,1.34,9.16,2.55l15.6-24.15c1.53,0.76,3.05,1.56,4.53,2.45c1.48,0.9,2.9,1.87,4.3,2.87l-14.17,25.15
	c2.38,2.04,4.51,4.37,6.33,6.93l26.08-12.74c0.92,1.44,1.81,2.91,2.61,4.44c0.81,1.53,1.52,3.1,2.19,4.68l-25.5,14.42
	c0.17,0.55,0.33,1.1,0.48,1.65c0.29,1.1,0.47,2.25,0.67,3.39l37.78,1.61C201.48,84.43,168.91,53.17,128.95,53.17z"/>
<path class="st0" d="M102.6,114.69c0.32-0.58,0.67-1.15,1.03-1.71C103.26,113.54,102.92,114.11,102.6,114.69z"/>
<path class="st0" d="M107.14,108.59c0.41-0.43,0.87-0.8,1.31-1.2c0.84-0.77,1.71-1.51,2.64-2.18c0.53-0.38,1.08-0.73,1.63-1.07
	c0.94-0.59,1.92-1.12,2.94-1.59c0.58-0.28,1.17-0.55,1.77-0.79c1.12-0.44,2.28-0.78,3.47-1.08c0.55-0.14,1.08-0.32,1.64-0.43
	c1.71-0.33,3.46-0.53,5.27-0.54c-9.91,0.07-18.65,5.11-23.84,12.76c0.15-0.2,0.32-0.38,0.46-0.58
	C105.25,110.72,106.15,109.61,107.14,108.59z"/>
<path class="st0" d="M112.37,153.12c-0.38-0.24-0.75-0.49-1.12-0.75c-1.23-0.87-2.4-1.81-3.48-2.86c2.59,2.52,5.64,4.56,9.02,5.98
	c-0.17-0.07-0.32-0.17-0.49-0.24C114.93,154.65,113.62,153.93,112.37,153.12z"/>
<path class="st0" d="M99.47,133.91c-0.15-0.84-0.28-1.69-0.37-2.55c0.22,2.39,0.72,4.69,1.48,6.88c-0.34-1.02-0.63-2.05-0.87-3.11
	C99.62,134.73,99.55,134.32,99.47,133.91z"/>
<path class="st0" d="M103.57,144.33c-0.8-1.24-1.52-2.54-2.12-3.9c-0.05-0.11-0.1-0.21-0.16-0.32c1.41,3.3,3.42,6.28,5.88,8.82
	c-1.04-1.08-1.98-2.25-2.85-3.47C104.07,145.09,103.82,144.71,103.57,144.33z"/>
<path class="st0" d="M122.79,157.23c-0.4-0.07-0.81-0.15-1.2-0.24c-1.61-0.36-3.19-0.83-4.69-1.45c3.37,1.4,7.07,2.18,10.94,2.21
	C126.11,157.74,124.43,157.53,122.79,157.23z"/>
<path class="st0" d="M165.98,135.23c-0.19,1.13-0.37,2.28-0.67,3.38c-0.11,0.4-0.24,0.8-0.36,1.19l24.64,16.12
	c-0.77,1.53-1.58,3.05-2.49,4.53c-0.9,1.48-1.89,2.89-2.89,4.27l-24.52-14c-1.81,2.61-3.93,4.99-6.32,7.08l12.24,24.49
	c-1.44,0.93-2.91,1.84-4.43,2.66c-1.52,0.82-3.08,1.54-4.65,2.23l-13.28-23c-1.73,0.75-3.53,1.39-5.38,1.88
	c-1.41,0.37-2.86,0.64-4.32,0.85l-1.54,36.18c38.19-1.54,68.98-31.57,71.7-69.45L165.98,135.23z"/>
<path class="st0" d="M118.14,166.04c-1.87-0.49-3.68-1.14-5.43-1.9l-13.3,23.01c-1.56-0.68-3.12-1.41-4.65-2.23
	c-1.53-0.82-2.99-1.72-4.43-2.66l12.26-24.52c-2.38-2.08-4.49-4.46-6.3-7.07l-24.56,14.02c-1.01-1.38-1.99-2.79-2.89-4.27
	c-0.91-1.48-1.72-3-2.49-4.53l24.68-16.15c-0.12-0.39-0.25-0.78-0.35-1.18c-0.29-1.1-0.47-2.24-0.67-3.38l-35.82-1.53
	c2.66,36.71,31.67,66.06,68.24,69.21l-1.55-36.31C119.97,166.41,119.04,166.28,118.14,166.04z"/>
<path class="st0" d="M99.71,122.32c0.28-1.25,0.69-2.45,1.13-3.64c0.19-0.51,0.33-1.05,0.55-1.55c0.34-0.78,0.71-1.55,1.12-2.29
	c-1.86,3.39-3.05,7.2-3.41,11.24c0.09-0.86,0.22-1.7,0.37-2.54C99.55,123.13,99.62,122.72,99.71,122.32z"/>
<path class="st0" d="M133.98,238.99h-11.96c-0.58,0-0.96,0.6-0.71,1.12l5.98,12.57c0.28,0.6,1.13,0.6,1.42,0l5.98-12.57
	C134.94,239.59,134.56,238.99,133.98,238.99z"/>
<path class="st0" d="M122.02,17.01h11.96c0.58,0,0.96-0.6,0.71-1.12l-5.98-12.57c-0.28-0.6-1.13-0.6-1.42,0l-5.98,12.57
	C121.06,16.41,121.44,17.01,122.02,17.01z"/>
<path class="st0" d="M15.89,121.31l-12.57,5.98c-0.6,0.28-0.6,1.13,0,1.42l12.57,5.98c0.52,0.25,1.12-0.13,1.12-0.71v-11.96
	C17.01,121.44,16.41,121.06,15.89,121.31z"/>
<path class="st0" d="M252.67,127.29l-12.57-5.98c-0.52-0.25-1.12,0.13-1.12,0.71v11.96c0,0.58,0.6,0.96,1.12,0.71l12.57-5.98
	C253.27,128.42,253.27,127.58,252.67,127.29z"/>
<path class="st1" d="M122.79,157.23c1.64,0.3,3.32,0.51,5.05,0.52c0.05,0,0.1,0,0.15,0c0,0,0,0,0,0c1.78,0,3.5-0.22,5.19-0.52
	c0.4-0.07,0.81-0.15,1.2-0.24c1.65-0.37,3.26-0.85,4.79-1.49c0.18-0.08,0.35-0.18,0.52-0.26c1.36-0.6,2.65-1.32,3.89-2.11
	c0.38-0.25,0.76-0.5,1.14-0.76c1.31-0.93,2.56-1.93,3.7-3.05c0.05-0.05,0.11-0.11,0.16-0.16c1.13-1.14,2.13-2.4,3.06-3.71
	c0.26-0.36,0.5-0.74,0.75-1.11c0.81-1.26,1.54-2.57,2.15-3.95c0.07-0.16,0.16-0.3,0.23-0.46c0.64-1.54,1.12-3.16,1.5-4.82
	c0.09-0.38,0.16-0.77,0.23-1.16c0.31-1.7,0.53-3.43,0.53-5.21c0-1.79-0.22-3.53-0.53-5.23c-0.07-0.38-0.14-0.77-0.23-1.14
	c-0.29-1.29-0.71-2.53-1.16-3.75c-0.18-0.48-0.31-0.99-0.52-1.46c-0.7-1.6-1.52-3.13-2.48-4.56c-0.16-0.24-0.37-0.45-0.54-0.69
	c-0.84-1.17-1.74-2.28-2.73-3.31c-0.42-0.43-0.88-0.81-1.32-1.21c-0.84-0.77-1.7-1.5-2.62-2.16c-0.53-0.38-1.09-0.74-1.65-1.09
	c-0.94-0.58-1.91-1.11-2.91-1.58c-0.59-0.28-1.18-0.56-1.79-0.8c-1.11-0.44-2.27-0.77-3.44-1.07c-0.56-0.14-1.1-0.32-1.67-0.43
	c-1.76-0.34-3.57-0.55-5.43-0.55c-0.06,0-0.12,0-0.18,0c-1.8,0.01-3.56,0.22-5.27,0.54c-0.56,0.11-1.09,0.29-1.64,0.43
	c-1.18,0.3-2.35,0.64-3.47,1.08c-0.6,0.24-1.19,0.51-1.77,0.79c-1.01,0.48-1.99,1.01-2.94,1.59c-0.55,0.34-1.1,0.69-1.63,1.07
	c-0.93,0.67-1.8,1.41-2.64,2.18c-0.44,0.4-0.9,0.78-1.31,1.2c-0.99,1.02-1.89,2.13-2.72,3.29c-0.14,0.2-0.31,0.38-0.46,0.58
	c-0.12,0.17-0.22,0.35-0.34,0.52c-0.36,0.56-0.71,1.12-1.03,1.71c-0.03,0.05-0.06,0.1-0.08,0.15c-0.4,0.75-0.78,1.51-1.12,2.29
	c-0.22,0.5-0.36,1.04-0.55,1.55c-0.44,1.19-0.85,2.39-1.13,3.64c-0.09,0.4-0.17,0.81-0.24,1.21c-0.15,0.84-0.28,1.68-0.37,2.54
	c-0.08,0.87-0.13,1.76-0.13,2.65c0,0.89,0.05,1.77,0.12,2.64c0.09,0.86,0.22,1.71,0.37,2.55c0.07,0.41,0.15,0.82,0.24,1.22
	c0.24,1.06,0.53,2.1,0.87,3.11c0.22,0.63,0.45,1.25,0.72,1.86c0.05,0.11,0.11,0.21,0.16,0.32c0.6,1.36,1.32,2.66,2.12,3.9
	c0.25,0.38,0.5,0.76,0.76,1.13c0.87,1.22,1.81,2.39,2.85,3.47c0.19,0.2,0.39,0.4,0.59,0.59c1.08,1.04,2.26,1.99,3.48,2.86
	c0.37,0.26,0.74,0.51,1.12,0.75c1.25,0.8,2.56,1.53,3.93,2.13c0.17,0.07,0.32,0.17,0.49,0.24c0.04,0.02,0.07,0.03,0.11,0.04
	c1.5,0.62,3.08,1.08,4.69,1.45C121.98,157.08,122.38,157.15,122.79,157.23z M108.54,128.73c0-10.74,8.72-19.46,19.46-19.46
	c10.74,0,19.46,8.73,19.46,19.46c0,10.73-8.72,19.46-19.46,19.46C117.27,148.18,108.54,139.46,108.54,128.73z"/>
<path class="st0" d="M147.46,128.73c0-10.74-8.72-19.46-19.46-19.46c-10.74,0-19.46,8.73-19.46,19.46
	c0,10.73,8.73,19.46,19.46,19.46C138.74,148.18,147.46,139.46,147.46,128.73z M117.71,128.72c0-5.68,4.61-10.3,10.29-10.3
	c5.68,0,10.29,4.62,10.29,10.3c0,5.68-4.61,10.29-10.29,10.29C122.32,139.02,117.71,134.4,117.71,128.72z"/>
<path class="st1" d="M127.67,61.58c-1.73,0-3.45,0.1-5.15,0.24l-0.87,28.83c2.07-0.34,4.19-0.53,6.35-0.53
	c1.94,0,3.84,0.15,5.7,0.43l-0.86-28.73C131.12,61.68,129.41,61.58,127.67,61.58z"/>
<path class="st1" d="M162.99,71.41c-1.48-0.89-3-1.7-4.53-2.45l-15.6,24.15c3.76,1.57,7.21,3.72,10.26,6.33l14.17-25.15
	C165.89,73.28,164.47,72.3,162.99,71.41z"/>
<path class="st1" d="M188.14,98.07c-0.81-1.53-1.7-3-2.61-4.44l-26.08,12.74c2.33,3.26,4.16,6.9,5.38,10.81l25.5-14.42
	C189.66,101.18,188.95,99.61,188.14,98.07z"/>
<path class="st1" d="M161.19,184.93c1.53-0.82,2.99-1.72,4.43-2.66l-12.24-24.49c-3,2.62-6.42,4.78-10.13,6.38l13.28,23
	C158.1,186.48,159.66,185.75,161.19,184.93z"/>
<path class="st1" d="M187.11,160.44c0.91-1.48,1.72-3,2.49-4.53l-24.64-16.12c-1.18,3.94-2.97,7.61-5.26,10.91l24.52,14
	C185.23,163.33,186.21,161.92,187.11,160.44z"/>
<path class="st1" d="M92.97,71.41c-1.48,0.9-2.9,1.87-4.3,2.87l14.18,25.18c3.04-2.62,6.5-4.77,10.25-6.34L97.5,68.95
	C95.97,69.71,94.45,70.51,92.97,71.41z"/>
<path class="st1" d="M67.81,98.07c-0.81,1.53-1.52,3.1-2.19,4.68l25.54,14.44c1.22-3.91,3.06-7.55,5.38-10.81L70.43,93.63
	C69.51,95.07,68.62,96.54,67.81,98.07z"/>
<path class="st1" d="M94.77,184.93c1.52,0.82,3.08,1.54,4.65,2.23l13.3-23.01c-3.71-1.61-7.12-3.76-10.12-6.39l-12.26,24.52
	C91.77,183.21,93.24,184.11,94.77,184.93z"/>
<path class="st1" d="M68.84,160.44c0.9,1.48,1.89,2.89,2.89,4.27l24.56-14.02c-2.29-3.3-4.08-6.98-5.26-10.92l-24.68,16.15
	C67.13,157.45,67.94,158.96,68.84,160.44z"/>
</svg>
