<svg width="557" height="100" viewBox="0 0 557 100" fill="none" xmlns="http://www.w3.org/2000/svg">
<g clip-path="url(#clip0_1_320)">
<path d="M226.6 57.1611L205.537 57.1611L200.806 69.5937L221.919 69.5937L226.6 57.1611Z" fill="#3D3736"/>
<path d="M151.305 97.6417L171.96 97.6417L171.96 37.4496L199.992 37.4496L203.553 22.3384L151.305 22.3384L151.305 97.6417Z" fill="#3D3736"/>
<path d="M389.24 57.6644C392.139 56.5525 394.632 54.7837 396.718 52.0546C398.804 49.4265 400.178 45.9899 400.178 41.3403C400.178 36.6907 398.499 31.9905 394.938 28.5539C391.631 25.3699 385.78 22.3881 376.521 22.3881L339.077 22.3881L339.077 97.6914L374.13 97.6914C380.794 97.6914 388.375 96.7311 393.513 93.8504C398.499 91.1213 403.179 85.8652 403.179 76.4144C403.179 71.0573 401.551 66.2561 397.38 62.4151C395.192 60.343 391.987 58.7257 389.24 57.7149L389.24 57.6644ZM359.173 37.0444L371.077 37.0444C373.418 37.0444 376.47 37.3477 378.556 38.9649C380.489 40.6327 380.794 42.6543 380.794 44.3221C380.794 45.9899 380.489 47.7587 378.963 49.2749C376.877 51.0438 373.265 51.347 370.263 51.347L359.173 51.347L359.173 37.0444ZM379.93 79.9016C377.437 82.7824 373.265 82.934 371.23 82.934L359.173 82.934L359.173 65.7507L371.23 65.7507C374.282 65.7507 376.775 66.155 378.556 67.2668C381.049 68.783 381.863 70.9562 381.863 73.9885C381.863 75.808 381.557 78.0822 379.93 79.9016Z" fill="#3D3736"/>
<path d="M411.936 37.1969L429.793 37.1969L429.793 97.6417L450.499 97.6417L450.499 37.1969L468.509 37.1969L473.037 22.3384L411.936 22.3384L411.936 37.1969Z" fill="#3D3736"/>
<path d="M266.641 1.87043L230.113 97.8443L254.737 97.8443L262.317 73.5349L294.521 73.5349L302.152 97.8443L326.724 97.8443L290.196 1.87043L266.641 1.87043ZM267.354 57.6151L278.444 22.1366L289.586 57.6151L267.354 57.6151Z" fill="#3D3736"/>
<path d="M135.327 49.7305C135.174 17.0822 117.826 2.69345e-08 83.638 1.91193e-08C53.1132 1.21414e-08 36.0193 13.6456 32.6107 39.7238L21.0112 39.7238L21.0112 2.17318L2.23206e-08 2.17318L4.85383e-10 97.6922L21.0112 97.6922L21.0112 55.9974L32.1528 55.9974C34.2895 84.8047 51.5361 99.8653 83.638 99.8653C117.877 99.8653 135.225 82.7831 135.327 50.1348C135.327 50.1348 135.327 50.0338 135.327 49.9832C135.327 49.9327 135.327 49.8821 135.327 49.8316L135.327 49.7305ZM83.638 81.924C62.6776 81.924 55.0973 67.9246 55.0464 49.8821C55.0973 31.8397 62.6776 17.8403 83.638 17.8403C104.598 17.8403 112.179 31.8397 112.23 49.8821C112.179 67.9246 104.598 81.924 83.638 81.924Z" fill="#3D3736"/>
<path d="M545.634 30.1719C539.681 24.6631 529.659 20.9738 518.467 20.9738C507.274 20.9738 497.252 24.6631 491.3 30.1719C482.346 38.6625 480.769 50.337 480.769 59.99C480.769 69.643 482.295 81.267 491.3 89.8081C497.252 95.3169 507.274 99.0062 518.467 99.0062C529.659 99.0062 539.681 95.3169 545.634 89.8081C554.639 81.3175 556.165 69.643 556.165 60.0406C556.165 50.3876 554.639 38.7636 545.634 30.2224L545.634 30.1719ZM531.236 78.0325C527.777 83.238 521.621 83.7939 518.467 83.7939C515.312 83.7939 509.157 83.238 505.697 78.0325C503.917 75.4044 502.085 71.9678 502.085 59.99C502.085 48.0122 503.866 44.5756 505.697 41.9475C509.157 36.742 515.312 36.1861 518.467 36.1861C521.621 36.1861 527.777 36.742 531.236 41.9475C533.017 44.525 534.848 48.0122 534.848 59.99C534.848 71.9172 533.017 75.4044 531.236 78.0325Z" fill="#3D3736"/>
</g>
<defs>
<clipPath id="clip0_1_320">
<rect width="556.111" height="99.8148" fill="white"/>
</clipPath>
</defs>
</svg>
