<svg width="200" height="26" viewBox="0 0 200 26" fill="none" xmlns="http://www.w3.org/2000/svg">
<g clip-path="url(#clip0_118_201)">
<path d="M179.766 15.9931V0H168.582V26H200.001V15.9931H179.766Z" fill="white"/>
<path d="M24.1942 7.681H11.1835V0H0V26H11.1835V17.6879H24.1942V26H35.3608V0H24.1942V7.681Z" fill="white"/>
<path d="M69.8611 0H69.2012H56.2582L62.7382 11.9362L70.3517 26H83.9377H83.9546L69.8611 0Z" fill="white"/>
<path d="M42.0791 26H55.1068L62.0605 13.1984L55.5297 1.15399L42.0791 26Z" fill="white"/>
<path d="M147.771 0H147.128H134.185L140.648 11.9362L148.279 26H161.865H161.882L147.788 0H147.771Z" fill="white"/>
<path d="M119.99 26H133.034L139.971 13.1984L133.457 1.15399L119.99 26Z" fill="white"/>
<path d="M122.916 0H109.313L101.7 14.0638L95.2367 26H108.163H108.823H108.84L122.916 0Z" fill="white"/>
<path d="M94.0688 0H81.0411L94.4918 24.846L101.023 12.8197L94.0688 0Z" fill="white"/>
</g>
<defs>
<clipPath id="clip0_118_201">
<rect width="200" height="26" fill="white"/>
</clipPath>
</defs>
</svg>