<svg width="249" height="30" viewBox="0 0 249 30" fill="none" xmlns="http://www.w3.org/2000/svg">
<path d="M35.7391 0.0823364H5.03773L0 5.12006V11.7151L6.46151 18.1777V8.23569L9.98536 4.74299H30.7447L40.7757 14.7728V5.12006L35.7391 0.0823364ZM5.03773 29.2086H35.7391L40.7768 24.1709V17.5759L34.3142 11.1133V21.0553L30.7903 24.548H10.031L0 14.5181V24.1709L5.03773 29.2086Z" fill="white"/>
<path d="M140.591 0.0823364H109.89L104.852 5.12006V11.7151L111.315 18.1777V8.23569L114.839 4.74299H135.598L145.629 14.7728V5.12006L140.591 0.0823364ZM109.89 29.2086H140.591L145.629 24.1709V17.5759L139.167 11.1133V21.0553L135.643 24.548H114.883L104.852 14.517V24.1698L109.89 29.2075V29.2086Z" fill="white"/>
<path d="M192.988 0.0823364H185.516L191.11 5.91538V21.0942L187.517 24.548H163.785V4.74299H187.072L182.604 0.0823364H157.28V29.2086H192.583V29.193L192.599 29.2086L197.648 24.3533V4.93653L192.988 0.0823364Z" fill="white"/>
<path d="M248.036 29.2086H241.531L231.714 0.0823364H238.219L248.036 29.2086Z" fill="white"/>
<path d="M228.801 0.0823364H219.114L209.298 29.2086H215.803L222.936 8.04326H231.484L228.801 0.0823364Z" fill="white"/>
<path d="M73.6716 29.2086L68.5761 0.0823364H57.1024L52.4262 4.95766V29.2086H58.9311V8.04326H63.535L67.1668 29.2086H73.6716Z" fill="white"/>
<path d="M88.5279 0.0823364H76.9563L74.2222 15.7083L76.5837 29.2086H78.3657L82.0675 8.04326H86.6981V29.2086H93.203V4.95766L88.5279 0.0823364Z" fill="white"/>
</svg>