<?xml version="1.0" standalone="no"?>
<!DOCTYPE svg PUBLIC "-//W3C//DTD SVG 1.1//EN" "http://www.w3.org/Graphics/SVG/1.1/DTD/svg11.dtd" >
<svg xmlns="http://www.w3.org/2000/svg" xmlns:xlink="http://www.w3.org/1999/xlink" version="1.1">
<metadata>
Created by FontForge 20170731 at Tue Nov  3 12:33:44 2009
 By Aleksey,,,
Copyright (c) 2009 by Peugeot. All rights reserved.
</metadata>
<defs>
<font id="Peugeot-Bold" horiz-adv-x="578" >
  <font-face 
    font-family="Peugeot"
    font-weight="700"
    font-stretch="normal"
    units-per-em="1000"
    panose-1="2 0 5 3 4 0 0 2 0 3"
    ascent="800"
    descent="-200"
    x-height="475"
    cap-height="676"
    bbox="-77 -260 1248 1023"
    underline-thickness="60"
    underline-position="-202"
    unicode-range="U+0020-FB02"
  />
<missing-glyph horiz-adv-x="566" 
d="M470 0h-374v676h374v-676zM283 391l94 196h-187zM190 89h187l-94 195zM382 183v310l-73 -155zM184 493v-310l74 155z" />
    <glyph glyph-name="fi" unicode="fi" horiz-adv-x="622" 
d="M535 552q-19 10 -42 18t-47.5 14t-49.5 9.5t-47 3.5q-59 0 -89.5 -18.5t-30.5 -58.5v-45h320v-475h-145v352h-175v-352h-145v352h-64v123h64v44q0 60 22.5 100t59 64t83.5 34t97 10q52 0 102 -10t87 -25v-140z" />
    <glyph glyph-name="fl" unicode="fl" horiz-adv-x="649" 
d="M542 160q0 -25 8.5 -34.5t26.5 -9.5q15 0 27 3.5t24 9.5v-130q-22 -9 -45 -12.5t-43 -3.5q-40 0 -67 12t-43.5 34t-24 53.5t-7.5 69.5v439q-11 2 -25.5 4t-31.5 2q-21 0 -41 -3.5t-36 -12.5t-25.5 -24t-9.5 -39v-43h89v-123h-89v-352h-145v352h-64v123h64v42
q0 60 22 100.5t58 64.5t81.5 34.5t93.5 10.5q59 0 112 -11t91 -28v-528z" />
    <glyph glyph-name=".notdef" horiz-adv-x="566" 
d="M470 0h-374v676h374v-676zM283 391l94 196h-187zM190 89h187l-94 195zM382 183v310l-73 -155zM184 493v-310l74 155z" />
    <glyph glyph-name=".null" horiz-adv-x="0" 
 />
    <glyph glyph-name="nonmarkingreturn" horiz-adv-x="268" 
 />
    <glyph glyph-name="space" unicode=" " horiz-adv-x="268" 
 />
    <glyph glyph-name="exclam" unicode="!" horiz-adv-x="338" 
d="M235 213h-131l-19 463h168zM94 150h150v-150h-150v150z" />
    <glyph glyph-name="quotedbl" unicode="&#x22;" horiz-adv-x="491" 
d="M408 399h-108l-19 277h144zM193 399h-109l-18 277h144z" />
    <glyph glyph-name="numbersign" unicode="#" horiz-adv-x="670" 
d="M639 418h-110l-28 -150h111l-20 -113h-111l-28 -155h-117l28 155h-126l-28 -155h-117l28 155h-111l21 113h110l27 150h-110l20 113h111l25 145h117l-25 -145h126l25 145h118l-26 -145h111zM286 418l-28 -150h126l27 150h-125z" />
    <glyph glyph-name="dollar" unicode="$" 
d="M247 0q-51 2 -98.5 13.5t-82.5 28.5v129q37 -17 87.5 -30.5t99.5 -13.5q44 0 73 15t29 55q0 24 -22 40t-55 30t-71.5 28.5t-71.5 37t-55 56.5t-22 85q0 81 50.5 130.5t138.5 64.5v109h96v-102q48 -2 87 -9.5t71 -19.5v-134q-39 20 -80.5 28t-89.5 8q-21 0 -40.5 -3
t-34 -10.5t-23.5 -20t-9 -31.5q0 -21 22 -34.5t55 -26t71.5 -26.5t71.5 -36.5t55 -57.5t22 -88q0 -49 -14 -85t-38 -61.5t-56.5 -40.5t-69.5 -22v-116h-96v110z" />
    <glyph glyph-name="percent" unicode="%" horiz-adv-x="911" 
d="M325 0h-108l370 676h107zM378 477q0 -47 -11.5 -86.5t-33.5 -68t-54 -45t-72 -16.5q-41 0 -72.5 16.5t-53 45t-33 68t-11.5 86.5q0 46 11.5 86t33 68.5t53 45t72.5 16.5q40 0 72 -16.5t54 -45t33.5 -68.5t11.5 -86zM271 477q0 48 -15 80t-49 32t-48.5 -32t-14.5 -80
t14.5 -80t48.5 -32t49 32t15 80zM875 199q0 -47 -11.5 -86.5t-33.5 -68t-54 -45t-72 -16.5q-41 0 -72.5 16.5t-53.5 45t-33.5 68t-11.5 86.5q0 46 11.5 86t33.5 68.5t53.5 45t72.5 16.5q40 0 72 -16.5t54 -45t33.5 -68.5t11.5 -86zM767 199q0 48 -14.5 80t-48.5 32t-49 -32
t-15 -80t15 -80t49 -32t48.5 32t14.5 80z" />
    <glyph glyph-name="ampersand" unicode="&#x26;" horiz-adv-x="716" 
d="M700 398v-130h-65q0 -60 -18.5 -112t-56 -90.5t-94 -60.5t-132.5 -22q-65 0 -118 13.5t-91 41t-58.5 68t-20.5 94.5q0 66 32.5 109.5t78.5 59.5q-43 20 -64.5 54t-21.5 87q0 86 72 134.5t202 48.5q20 0 43 -2t45 -6t42.5 -9.5t35.5 -12.5v-138q-36 18 -80.5 26t-86.5 8
q-49 0 -79.5 -14t-30.5 -49q0 -33 24 -50t67 -17h47v-132h-51q-21 0 -41 -4t-36 -13.5t-26 -25.5t-10 -41q0 -52 38 -74.5t95 -22.5q31 0 59 7.5t49 25t33.5 46.5t12.5 73h-70v130h275z" />
    <glyph glyph-name="quotesingle" unicode="'" horiz-adv-x="276" 
d="M193 399h-109l-18 277h144z" />
    <glyph glyph-name="parenleft" unicode="(" horiz-adv-x="318" 
d="M49 260q0 71 11.5 134.5t30.5 119t43 104.5t50 92h127q-22 -42 -45.5 -86.5t-43 -98t-32 -118.5t-12.5 -147q0 -83 12.5 -147.5t32 -118t43 -98t45.5 -86.5h-127q-26 43 -50 92t-43 104.5t-30.5 119t-11.5 134.5z" />
    <glyph glyph-name="parenright" unicode=")" horiz-adv-x="318" 
d="M269.003 260q0 71 -11.499 134.5q-11.5 63.5 -30.498 119q-18.999 55.5 -42.998 104.5q-23.998 49 -49.9961 92h-126.993q21.999 -42 45.498 -86.5q23.498 -44.5 42.9971 -98t31.998 -118.5t12.499 -147q0 -83 -12.499 -147.5t-31.998 -118t-42.9971 -98
q-23.499 -44.5 -45.498 -86.5h126.993q25.998 43 49.9961 92q23.999 49 42.998 104.5q18.998 55.5 30.498 119q11.499 63.5 11.499 134.5z" />
    <glyph glyph-name="asterisk" unicode="*" horiz-adv-x="411" 
d="M267 676l-18 -109l110 55l29 -109l-109 -24l76 -84l-90 -73l-59 112l-60 -112l-90 73l77 84l-109 24l29 109l109 -55l-18 109h123z" />
    <glyph glyph-name="plus" unicode="+" 
d="M522 252h-174v-174h-118v174h-174v118h174v174h118v-174h174v-118z" />
    <glyph glyph-name="comma" unicode="," horiz-adv-x="290" 
d="M207 150q7 -23 9.5 -46t2.5 -45q0 -91 -48.5 -157t-139.5 -99l-48 99q49 28 74 65.5t25 88.5q0 21 -3.5 44.5t-11.5 49.5h140z" />
    <glyph glyph-name="hyphen" unicode="-" horiz-adv-x="406" 
d="M342 213h-277v128h277v-128z" />
    <glyph glyph-name="period" unicode="." horiz-adv-x="290" 
d="M70 150h149v-150h-149v150z" />
    <glyph glyph-name="slash" unicode="/" horiz-adv-x="399" 
d="M119 0h-119l280 676h119z" />
    <glyph glyph-name="zero" unicode="0" 
d="M290 693q72 0 126 -28.5t90.5 -77t54.5 -113t18 -136.5t-18 -136.5t-54.5 -113t-90.5 -77t-126 -28.5t-126 28.5t-90.5 77t-54.5 113t-18 136.5t18 136.5t54.5 113t90.5 77t126 28.5zM290 559q-34 0 -58.5 -16t-40.5 -45t-23.5 -69.5t-7.5 -90.5t7.5 -91t23.5 -70
t40.5 -45t58.5 -16t58.5 16t40.5 45t23.5 70t7.5 91t-7.5 90.5t-23.5 69.5t-40.5 45t-58.5 16z" />
    <glyph glyph-name="one" unicode="1" 
d="M397 0h-156v545h-126v131h282v-676z" />
    <glyph glyph-name="two" unicode="2" 
d="M516 0h-460v125l214 201q40 38 58 71t18 72q0 26 -9 43.5t-24 28t-34.5 15t-41.5 4.5q-21 0 -43.5 -3.5t-43.5 -9.5t-39 -13.5t-30 -14.5v138q37 17 83 26.5t93 9.5q48 0 93 -11.5t80.5 -37t57 -66.5t21.5 -100q0 -41 -8 -73t-23 -59.5t-37 -51.5t-50 -47l-139 -116h264
v-131z" />
    <glyph glyph-name="three" unicode="3" 
d="M66 676h442v-117l-180 -165q33 -3 66 -14.5t59.5 -34t42.5 -56.5t16 -81q0 -57 -20 -99.5t-55.5 -70t-84 -41.5t-105.5 -14q-53 0 -102.5 11t-88.5 32v138q34 -18 82 -33t96 -15q51 0 83 21t32 69q0 46 -33 65.5t-93 19.5q-16 0 -37.5 -1.5t-35.5 -3.5v107l172 152h-256
v131z" />
    <glyph glyph-name="four" unicode="4" 
d="M304 676h190v-383h64v-128h-64v-165h-152v165h-329v132zM342 293v234l-176 -234h176z" />
    <glyph glyph-name="five" unicode="5" 
d="M260 -17q-122 0 -202 43v138q17 -9 38.5 -17.5t45.5 -15.5t49.5 -11t49.5 -4q52 0 86.5 21t34.5 68q0 27 -10.5 45t-28.5 29t-41.5 15.5t-49.5 4.5q-48 0 -81 -6.5t-56 -14.5l-30 29l48 369h394v-131h-265l-16 -123q11 1 21.5 1.5t23.5 0.5q44 0 89.5 -9.5t82 -33.5
t59.5 -63.5t23 -99.5q0 -62 -21 -106.5t-57.5 -73t-84.5 -42t-102 -13.5z" />
    <glyph glyph-name="six" unicode="6" 
d="M515 519q-23 14 -67.5 27t-96.5 13q-35 0 -65.5 -8.5t-53 -28t-35.5 -51.5t-13 -80q23 18 59.5 30.5t81.5 12.5q42 0 82.5 -11.5t72 -36t51 -64t19.5 -95.5q0 -54 -17 -98.5t-49.5 -77t-80.5 -50.5t-109 -18q-57 0 -106 19.5t-85 61t-56.5 105.5t-20.5 154
q0 102 26 172.5t69 114.5t99.5 63.5t117.5 19.5q48 0 93.5 -8.5t83.5 -27.5v-138zM189 259q0 -42 9.5 -70t24.5 -44t34 -22.5t38 -6.5t37 5.5t31.5 17.5t21.5 30t8 42q0 49 -28.5 70t-70.5 21q-29 0 -58.5 -11.5t-46.5 -31.5z" />
    <glyph glyph-name="seven" unicode="7" 
d="M532 554q-49 -56 -87.5 -113.5t-67 -123.5t-48 -144t-30.5 -173h-170q8 75 29.5 152t53 149t69.5 134.5t79 109.5h-300v131h472v-122z" />
    <glyph glyph-name="eight" unicode="8" 
d="M290 287q-45 0 -75.5 -21t-30.5 -66t30.5 -67.5t75.5 -22.5t75.5 22.5t30.5 67.5t-30.5 66t-75.5 21zM290 -17q-65 0 -114.5 15t-84 42t-52 64t-17.5 81q0 36 9 63.5t24 47.5t35 33.5t42 22.5q-18 9 -35.5 21t-31 29.5t-21.5 42t-8 58.5q0 45 18.5 80t51.5 60t80 38
t104 13t104 -13t80 -38t51.5 -60t18.5 -80q0 -34 -8.5 -58.5t-22 -42t-30.5 -29.5t-35 -21q22 -9 42 -22.5t35 -33.5t24 -47.5t9 -63.5q0 -44 -17.5 -81t-52 -64t-84.5 -42t-114 -15zM290 566q-38 0 -65 -18t-27 -62t27 -61t65 -17t65 17t27 61t-27 62t-65 18z" />
    <glyph glyph-name="nine" unicode="9" 
d="M64.0322 156.031q22.999 -13.999 67.4961 -26.998t96.4941 -12.999q34.998 0 65.4961 8.49902q30.498 8.5 52.9971 27.999q22.498 19.498 35.4971 51.4961q13 31.998 13 79.9951q-22.999 -17.998 -59.4971 -30.498q-36.4971 -12.499 -81.4951 -12.499
q-41.9971 0 -82.4941 11.499q-40.498 11.5 -71.9961 35.998q-31.498 24.499 -50.9971 63.9961q-19.498 39.498 -19.498 95.4941q0 53.9971 16.998 98.4941q16.999 44.4971 49.4971 76.9951t80.4951 50.4971t108.994 17.999q56.9961 0 105.993 -19.499t84.9951 -60.9961
q35.9971 -41.4971 56.4961 -105.493t20.499 -153.991q0 -101.993 -25.999 -172.489q-25.998 -70.4961 -68.9951 -114.493q-42.998 -43.9971 -99.4941 -63.4961q-56.4971 -19.499 -117.493 -19.499q-47.9971 0 -93.4941 8.5q-45.4971 8.49902 -83.4951 27.498v137.991z
M390.013 416.016q0 41.998 -9.49902 69.9961q-9.5 27.998 -24.499 43.9971t-33.998 22.499q-18.999 6.49902 -37.9971 6.49902q-18.999 0 -36.998 -5.49902q-17.999 -5.5 -31.498 -17.499q-13.499 -12 -21.499 -29.998q-7.99902 -17.999 -7.99902 -41.998
q0 -48.9971 28.498 -69.9951q28.498 -20.999 70.4961 -20.999q28.998 0 58.4961 11.499t46.4971 31.498z" />
    <glyph glyph-name="colon" unicode=":" horiz-adv-x="290" 
d="M70 475h149v-150h-149v150zM70 150h149v-150h-149v150z" />
    <glyph glyph-name="semicolon" unicode=";" horiz-adv-x="290" 
d="M207 150q7 -23 9.5 -46t2.5 -45q0 -91 -48.5 -157t-139.5 -99l-48 99q49 28 74 65.5t25 88.5q0 21 -3.5 44.5t-11.5 49.5h140zM70 475h149v-150h-149v150z" />
    <glyph glyph-name="less" unicode="&#x3c;" 
d="M522 441l-332 -130l332 -130v-123l-466 195v116l466 194v-122z" />
    <glyph glyph-name="equal" unicode="=" 
d="M522 370h-466v118h466v-118zM522 134h-466v118h466v-118z" />
    <glyph glyph-name="greater" unicode="&#x3e;" 
d="M56.0322 441l331.979 -130l-331.979 -130v-123l465.972 195v116l-465.972 194v-122z" />
    <glyph glyph-name="question" unicode="?" horiz-adv-x="439" 
d="M130 284q0 33 5.5 56t14.5 40.5t22 31.5t28 28q17 15 29.5 30.5t12.5 35.5q0 16 -6.5 26.5t-18 16.5t-26 8t-30.5 2q-31 0 -62 -8t-51 -18v136q23 10 57.5 17t79.5 7q41 0 79.5 -10t68.5 -31t48 -54.5t18 -81.5q0 -29 -6.5 -53t-17 -43t-23.5 -34.5t-26 -27.5
q-22 -21 -39 -42t-17 -50v-53h-140v71zM126 150h149v-150h-149v150z" />
    <glyph glyph-name="at" unicode="@" horiz-adv-x="777" 
d="M537 230q0 -26 12 -42t40 -16q13 0 24 5.5t19 18.5t12.5 35t4.5 56q0 49 -16.5 90.5t-49.5 71.5t-82 47t-113 17q-57 0 -105 -16.5t-82.5 -49t-54 -79t-19.5 -106.5q0 -77 21.5 -130t58.5 -86t86 -48t105 -15q52 0 106 9t102 29v-94q-47 -20 -104 -28.5t-108 -8.5
q-73 0 -137.5 22t-113 67.5t-76.5 116t-28 166.5q0 77 26.5 139.5t73.5 107t111 69t138 24.5q84 0 149 -24t110 -66t68 -99t23 -123q0 -103 -42 -157t-126 -54q-33 0 -60.5 13t-36.5 31q-21 -23 -46 -33t-56 -10q-32 0 -59.5 10.5t-48 31.5t-32 52t-11.5 72q0 46 14.5 78
t38.5 52t55.5 29.5t65.5 9.5q38 0 75.5 -10.5t67.5 -29.5v-145zM439 310q-20 11 -47 11q-28 0 -47.5 -17t-19.5 -55q0 -40 17.5 -58.5t43.5 -18.5q21 0 34.5 14t18.5 30v94z" />
    <glyph glyph-name="A" unicode="A" horiz-adv-x="666" 
d="M674 0h-171l-44 116h-273l-44 -116h-150l273 676h139zM234 242h177l-88 234z" />
    <glyph glyph-name="B" unicode="B" horiz-adv-x="669" 
d="M328 676q130 0 204.5 -44t74.5 -141q0 -31 -9 -54.5t-23 -41t-32 -29.5t-36 -19q21 -5 41.5 -16t37.5 -30t27.5 -45.5t10.5 -60.5q0 -53 -22 -90.5t-61.5 -60.5t-94 -33.5t-118.5 -10.5h-232v676h232zM252 406h76q53 0 85 13.5t32 56.5t-32 56t-85 13h-76v-139zM252 131
h81q27 0 50.5 3.5t41 12.5t27.5 23.5t10 35.5t-10 35.5t-27.5 23t-41 12t-50.5 3.5h-81v-149z" />
    <glyph glyph-name="C" unicode="C" horiz-adv-x="633" 
d="M45 338q0 76 23 141t68 112.5t110 74.5t149 27q29 0 57 -3t52.5 -8t44.5 -11.5t33 -14.5v-135q-28 17 -76 27.5t-101 10.5q-91 0 -144.5 -56.5t-53.5 -164.5t53.5 -165t144.5 -57q45 0 93.5 11.5t87.5 34.5v-135q-35 -20 -80.5 -32t-110.5 -12q-84 0 -149 27t-110 74.5
t-68 112.5t-23 141z" />
    <glyph glyph-name="D" unicode="D" horiz-adv-x="739" 
d="M252 131h87q44 0 79.5 11.5t61 36t39 64t13.5 96.5q0 56 -13.5 95t-39 64t-61 36t-79.5 11h-87v-414zM339 676q81 0 146.5 -21t112 -63t71.5 -105.5t25 -148.5q0 -86 -25 -149.5t-71.5 -105.5t-112 -62.5t-146.5 -20.5h-243v676h243z" />
    <glyph glyph-name="E" unicode="E" horiz-adv-x="612" 
d="M543 545h-299v-138h265v-131h-265v-93q0 -26 9.5 -39t36.5 -13h264v-131h-292q-92 0 -133 46t-41 137v493h455v-131z" />
    <glyph glyph-name="F" unicode="F" horiz-adv-x="609" 
d="M552 545h-300v-160h266v-131h-266v-254h-156v676h456v-131z" />
    <glyph glyph-name="G" unicode="G" horiz-adv-x="785" 
d="M704 63q-45 -32 -120.5 -56t-171.5 -24q-72 0 -138.5 20t-117 63t-81 110.5t-30.5 161.5q0 99 33 166.5t88 109.5t125.5 60.5t145.5 18.5q73 0 135 -12.5t113 -35.5v-140q-42 20 -106 37t-139 17q-45 0 -87 -10t-74.5 -35.5t-52 -68t-19.5 -107.5q0 -62 18.5 -104.5
t48.5 -68.5t68.5 -37.5t79.5 -11.5q44 0 75 6.5t55 17.5v126h-153v136h305v-339z" />
    <glyph glyph-name="H" unicode="H" horiz-adv-x="793" 
d="M697 0h-156v277h-289v-277h-156v676h156v-263h289v263h156v-676z" />
    <glyph glyph-name="I" unicode="I" horiz-adv-x="348" 
d="M252 0h-156v676h156v-676z" />
    <glyph glyph-name="J" unicode="J" horiz-adv-x="433" 
d="M345 200q0 -112 -50.5 -164.5t-144.5 -52.5q-31 0 -61 6t-56 18v135q21 -11 46.5 -18.5t47.5 -7.5q35 0 48.5 18t13.5 60v482h156v-476z" />
    <glyph glyph-name="K" unicode="K" horiz-adv-x="693" 
d="M394 353l299 -353h-200l-241 287v-287h-156v676h156v-279l252 279h182z" />
    <glyph glyph-name="L" unicode="L" horiz-adv-x="552" 
d="M244 676v-493q0 -26 9.5 -39t36.5 -13h247v-131h-275q-92 0 -133 46t-41 137v493h156z" />
    <glyph glyph-name="M" unicode="M" horiz-adv-x="943" 
d="M406 131l-156 279v-410h-154v676h152l224 -384l223 384h152v-676h-153v410l-157 -279h-131z" />
    <glyph glyph-name="N" unicode="N" horiz-adv-x="783" 
d="M687 0h-133l-306 418v-418h-152v676h133l306 -418v418h152v-676z" />
    <glyph glyph-name="O" unicode="O" horiz-adv-x="807" 
d="M404 693q80 0 146 -24.5t113 -70t73 -111.5t26 -149t-26 -149t-73 -112t-113 -70t-146 -24t-146.5 24t-113.5 70t-73 112t-26 149t26 149t73 111.5t113.5 70t146.5 24.5zM404 559q-97 0 -147 -60.5t-50 -160.5q0 -50 12.5 -91t37.5 -70t62 -45t85 -16t84.5 16t61.5 45
t37.5 70t12.5 91t-12.5 90.5t-37.5 69.5t-61.5 45t-84.5 16z" />
    <glyph glyph-name="P" unicode="P" horiz-adv-x="675" 
d="M252 0h-156v676h248q65 0 118 -14t90.5 -42.5t58 -71.5t20.5 -100t-20.5 -100t-58 -71.5t-90.5 -42.5t-118 -14h-92v-220zM252 351h92q24 0 46.5 4.5t40 15.5t27.5 29.5t10 47.5t-10 47.5t-27.5 29.5t-40 15.5t-46.5 4.5h-92v-194z" />
    <glyph glyph-name="Q" unicode="Q" horiz-adv-x="807" 
d="M762 339q0 -130 -60.5 -216t-164.5 -120l155 -172h-189l-107 152q-78 1 -143 26t-111 70.5t-71.5 111t-25.5 148.5t26 149t73 111.5t113.5 69.5t146.5 24t146 -24t113 -69.5t73 -111.5t26 -149zM600 339q0 100 -50 160t-146 60q-97 0 -147 -60t-50 -160q0 -50 12.5 -91
t37.5 -70.5t62 -45.5t85 -16t84.5 16t61.5 45.5t37.5 70.5t12.5 91z" />
    <glyph glyph-name="R" unicode="R" horiz-adv-x="678" 
d="M252 0h-156v676h258q62 0 113 -14.5t87.5 -43t56.5 -70.5t20 -96q0 -76 -39 -124.5t-109 -68.5l159 -259h-176l-132 226h-82v-226zM252 357h92q24 0 46.5 4t40 14.5t27.5 28.5t10 47t-10 47t-27.5 28.5t-40 14.5t-46.5 4h-92v-188z" />
    <glyph glyph-name="S" unicode="S" horiz-adv-x="565" 
d="M492 522q-38 20 -78.5 28.5t-87.5 8.5q-20 0 -39 -3t-33.5 -10.5t-23.5 -21t-9 -33.5q0 -25 21.5 -39.5t54 -27t70.5 -25.5t70.5 -36.5t54 -60t21.5 -94.5q0 -61 -21 -104t-56 -70t-80 -39.5t-92 -12.5q-56 0 -107.5 12.5t-89.5 31.5v136q36 -19 85.5 -32.5t97.5 -13.5
q43 0 71.5 15.5t28.5 57.5q0 28 -21.5 44.5t-54 29.5t-70 26.5t-70 36.5t-54 59.5t-21.5 95.5q0 51 19 90.5t53.5 66.5t83 41t107.5 14q51 0 94.5 -8t75.5 -22v-141v0z" />
    <glyph glyph-name="T" unicode="T" horiz-adv-x="605" 
d="M590 545h-209v-545h-157v545h-209v131h575v-131z" />
    <glyph glyph-name="U" unicode="U" horiz-adv-x="720" 
d="M641 249q0 -65 -20.5 -114.5t-57.5 -83.5t-89 -51t-114 -17t-113.5 17t-89 51t-58 83.5t-20.5 114.5v427h156v-428q0 -69 35.5 -100.5t89.5 -31.5q27 0 50 7.5t40 24t27 41t10 59.5v428h154v-427z" />
    <glyph glyph-name="V" unicode="V" horiz-adv-x="681" 
d="M531 676h150l-277 -676h-134l-270 676h171l180 -474z" />
    <glyph glyph-name="W" unicode="W" horiz-adv-x="993" 
d="M567 676l144 -477l118 477h164l-183 -676h-167l-147 475l-146 -475h-167l-183 676h164l118 -477l144 477h141z" />
    <glyph glyph-name="X" unicode="X" horiz-adv-x="653" 
d="M414 355l239 -355h-180l-150 227l-154 -227h-169l240 346l-221 330h178l134 -200l136 200h169z" />
    <glyph glyph-name="Y" unicode="Y" horiz-adv-x="620" 
d="M388 267v-267h-157v267l-239 409h175l156 -270l151 270h153z" />
    <glyph glyph-name="Z" unicode="Z" horiz-adv-x="626" 
d="M575 558l-335 -427h346v-131h-545v108l345 437h-338v131h527v-118z" />
    <glyph glyph-name="bracketleft" unicode="[" horiz-adv-x="355" 
d="M331 580h-110v-638h110v-132h-235v900h235v-130z" />
    <glyph glyph-name="backslash" unicode="\" horiz-adv-x="399" 
d="M280.007 0h118.993l-279.982 676h-118.993z" />
    <glyph glyph-name="bracketright" unicode="]" horiz-adv-x="355" 
d="M24.0205 580h109.993v-638h-109.993v-132h234.985v900h-234.985v-130z" />
    <glyph glyph-name="asciicircum" unicode="^" 
d="M334 676l211 -443h-120l-136 288l-136 -288h-120l211 443h90z" />
    <glyph glyph-name="underscore" unicode="_" horiz-adv-x="598" 
d="M582 -122h-567v105h567v-105z" />
    <glyph glyph-name="grave" unicode="`" horiz-adv-x="510" 
d="M337 559h-107l-124 151h158z" />
    <glyph glyph-name="a" unicode="a" horiz-adv-x="569" 
d="M495 0h-114l-11 42q-23 -28 -54.5 -43.5t-73.5 -15.5q-38 0 -74.5 14t-65.5 44t-47 76.5t-18 110.5q0 63 18.5 112t52.5 83t82.5 51.5t107.5 17.5t104 -9t93 -25v-458zM350 362q-23 6 -47 6q-23 0 -44.5 -7t-38 -22.5t-26.5 -41t-10 -62.5q0 -64 26.5 -91.5t67.5 -27.5
q19 0 38 5.5t34 19.5v221z" />
    <glyph glyph-name="b" unicode="b" horiz-adv-x="566" 
d="M216 469q46 23 102 23q39 0 77 -13t68 -42.5t48 -76t18 -112.5q0 -63 -18 -112t-52 -83t-81.5 -52t-106.5 -18q-78 0 -128 15.5t-72 27.5v684h145v-241zM216 115q13 -5 25.5 -6.5t24.5 -1.5q24 0 45 7t37 23t25 41t9 61q0 65 -27 94t-67 29q-42 0 -72 -24v-223z" />
    <glyph glyph-name="c" unicode="c" horiz-adv-x="481" 
d="M419 338q-30 17 -56 23.5t-60 6.5q-60 0 -89 -36.5t-29 -94.5t29 -94t89 -36q32 0 61.5 8t59.5 25v-129q-26 -13 -61 -20.5t-77 -7.5q-61 0 -107.5 20t-78 54.5t-47.5 81t-16 99.5q0 57 17.5 104t50 80.5t79.5 51.5t106 18q42 0 72.5 -6t56.5 -19v-129z" />
    <glyph glyph-name="d" unicode="d" horiz-adv-x="568" 
d="M495 0h-114l-11 42q-23 -28 -54.5 -43.5t-73.5 -15.5q-38 0 -74.5 14t-65.5 44t-47 76.5t-18 110.5q0 63 18.5 112t52.5 83t82.5 51.5t107.5 17.5q28 0 52 -3v221h145v-710zM350 362q-23 6 -47 6q-23 0 -44.5 -7t-38 -22.5t-26.5 -41t-10 -62.5q0 -64 26.5 -91.5
t67.5 -27.5q19 0 38 5.5t34 19.5v221z" />
    <glyph glyph-name="e" unicode="e" horiz-adv-x="545" 
d="M191 188q4 -24 16.5 -39.5t30.5 -24.5t41 -13t47 -4q23 0 47 3t46 7.5t40.5 10.5t32.5 12v-123q-14 -8 -36 -14t-47.5 -10.5t-51.5 -7t-49 -2.5q-54 0 -103.5 13.5t-86.5 43.5t-59 79.5t-22 121.5q0 61 18.5 108t51.5 78.5t77 48t95 16.5q59 0 102 -18.5t71 -48.5
t41.5 -69t13.5 -81v-87h-316zM360 289q-2 52 -27 70.5t-58 18.5q-34 0 -57 -20.5t-28 -68.5h170z" />
    <glyph glyph-name="f" unicode="f" horiz-adv-x="347" 
d="M84 0v352h-64v123h64v52q0 55 15.5 93t42 62t62 34.5t74.5 10.5q40 0 69 -9v-128q-21 7 -47 7q-32 0 -51.5 -16t-19.5 -56v-50h114v-123h-114v-352h-145z" />
    <glyph glyph-name="g" unicode="g" horiz-adv-x="568" 
d="M495 17q0 -58 -17.5 -100t-50 -69.5t-77.5 -41t-100 -13.5q-62 0 -108.5 11t-78.5 27v136q33 -20 78 -35t94 -15q25 0 46 4.5t36 16t23.5 30t8.5 46.5v21q-17 -16 -45 -25.5t-62 -9.5q-38 0 -74.5 12.5t-65.5 40.5t-47 73t-18 109q0 59 18.5 106.5t52.5 81t82.5 51.5
t107.5 18t104 -9t93 -25v-441zM350 362q-24 6 -48 6q-23 0 -44.5 -6.5t-38 -21t-26 -38t-9.5 -58.5q0 -61 25.5 -89t69.5 -28q18 0 37.5 6t33.5 19v210z" />
    <glyph glyph-name="h" unicode="h" horiz-adv-x="593" 
d="M73 710h145v-264q26 22 63 34t73 12t67 -11t54 -35t36.5 -61.5t13.5 -89.5v-295h-144v284q0 41 -22.5 57.5t-52.5 16.5q-29 0 -50.5 -9t-37.5 -19v-330h-145v710z" />
    <glyph glyph-name="i" unicode="i" horiz-adv-x="291" 
d="M218 0h-145v475h145v-475zM218 562h-145v131h145v-131z" />
    <glyph glyph-name="j" unicode="j" horiz-adv-x="291" 
d="M218 475v-505q0 -38 -8.5 -70.5t-26 -56t-44.5 -37t-63 -13.5q-21 0 -44 4t-45 13v129q12 -6 24.5 -9.5t26.5 -3.5q18 0 26.5 9.5t8.5 34.5v505h145zM218 562h-145v131h145v-131z" />
    <glyph glyph-name="k" unicode="k" horiz-adv-x="547" 
d="M350 269l199 -269h-177l-154 213v-213h-145v710h145v-407l159 172h170z" />
    <glyph glyph-name="l" unicode="l" horiz-adv-x="316" 
d="M210 160q0 -25 8.5 -34.5t26.5 -9.5q14 0 26.5 3.5t24.5 9.5v-130q-22 -9 -45 -12.5t-44 -3.5q-39 0 -66.5 12t-44 34t-24 53.5t-7.5 69.5v558h145v-550z" />
    <glyph glyph-name="m" unicode="m" horiz-adv-x="869" 
d="M73 475h129l9 -36q25 22 57 37.5t80 15.5q87 0 131 -65q32 29 72 47t91 18q73 0 116 -44.5t43 -136.5v-311h-145v295q0 35 -19.5 49t-45.5 14q-29 0 -49 -10t-34 -18q1 -5 1 -9.5v-9.5v-311h-144v295q0 35 -19.5 49t-45.5 14q-24 0 -44.5 -8.5t-37.5 -19.5v-330h-145v475
z" />
    <glyph glyph-name="n" unicode="n" horiz-adv-x="593" 
d="M211 439q26 26 65.5 39.5t77.5 13.5q36 0 67 -11t54 -35t36.5 -61.5t13.5 -89.5v-295h-144v284q0 41 -22.5 57.5t-52.5 16.5q-29 0 -50.5 -9t-37.5 -19v-330h-145v475h129z" />
    <glyph glyph-name="o" unicode="o" 
d="M289 492q56 0 102.5 -17t79.5 -49.5t51.5 -79.5t18.5 -108t-18.5 -108.5t-51.5 -80t-79.5 -49.5t-102.5 -17t-102.5 17t-79.5 49.5t-51.5 80t-18.5 108.5t18.5 108t51.5 79.5t79.5 49.5t102.5 17zM289 368q-47 0 -75.5 -34.5t-28.5 -95.5t28.5 -96t75.5 -35t75.5 35
t28.5 96t-28.5 95.5t-75.5 34.5z" />
    <glyph glyph-name="p" unicode="p" horiz-adv-x="568" 
d="M211 439q18 19 49.5 36t72.5 17q34 0 69 -13t63.5 -42t46.5 -76.5t18 -117.5q0 -63 -19 -111.5t-52.5 -81.5t-79 -50t-98.5 -17q-32 0 -63 6v-179h-145v665h129zM218 115q13 -5 25.5 -6.5t24.5 -1.5q24 0 44.5 7t36.5 23t25 41t9 61q0 66 -26.5 94.5t-66.5 28.5
q-43 0 -72 -24v-223z" />
    <glyph glyph-name="q" unicode="q" horiz-adv-x="568" 
d="M350 21q-21 -17 -47.5 -27.5t-61.5 -10.5q-38 0 -74.5 14t-65.5 44t-46.5 76.5t-17.5 110.5q0 63 18.5 112t52.5 83t82 51.5t107 17.5t104.5 -9t93.5 -25v-648h-145v211zM350 362q-23 6 -47 6q-23 0 -44.5 -7t-38 -22.5t-26.5 -41t-10 -62.5q0 -64 26.5 -91.5t67.5 -27.5
q19 0 38 5.5t34 19.5v221z" />
    <glyph glyph-name="r" unicode="r" horiz-adv-x="391" 
d="M367 339q-36 0 -76.5 -8t-72.5 -31v-300h-145v475h129l9 -60q14 13 30 26.5t35 24.5t41.5 18.5t49.5 7.5v-153z" />
    <glyph glyph-name="s" unicode="s" horiz-adv-x="486" 
d="M422 346q-32 16 -75.5 24t-81.5 8q-33 0 -56.5 -8.5t-23.5 -29.5q0 -17 19 -24t47.5 -11.5t62 -10t62 -20.5t47.5 -43t19 -77q0 -45 -17 -77.5t-46.5 -53t-69 -30.5t-84.5 -10q-55 0 -97 9.5t-78 26.5v127q45 -23 87.5 -33t86.5 -10q38 0 55.5 9.5t17.5 30.5
q0 17 -19 24.5t-47.5 12.5t-61.5 11t-61.5 20.5t-47.5 41t-19 72.5q0 45 17.5 76.5t47.5 52t70.5 29.5t86.5 9q45 0 86.5 -6t72.5 -17v-123z" />
    <glyph glyph-name="t" unicode="t" horiz-adv-x="392" 
d="M348 352h-122v-180q0 -32 14.5 -44t35.5 -12q20 0 41 7t38 17v-129q-20 -12 -50.5 -20t-67.5 -8q-43 0 -72.5 12.5t-48 36t-26.5 56t-8 73.5v191h-65v123h66l19 151h124v-151h122v-123z" />
    <glyph glyph-name="u" unicode="u" horiz-adv-x="569" 
d="M381 0l-11 42q-25 -25 -58 -42t-81 -17q-80 0 -123.5 49t-43.5 141v302h144v-292q0 -34 17.5 -50.5t46.5 -16.5q23 0 43.5 10t35.5 24v325h145v-475h-115z" />
    <glyph glyph-name="v" unicode="v" horiz-adv-x="513" 
d="M324 0h-141l-176 475h152l101 -302l101 302h146z" />
    <glyph glyph-name="w" unicode="w" horiz-adv-x="813" 
d="M483 475l93 -295l81 295h149l-152 -475h-139l-109 318l-109 -318h-139l-151 475h149l80 -295l94 295h153z" />
    <glyph glyph-name="x" unicode="x" horiz-adv-x="515" 
d="M343 238l164 -238h-172l-85 134l-82 -134h-161l162 240l-161 235h174l79 -133l77 133h163z" />
    <glyph glyph-name="y" unicode="y" horiz-adv-x="569" 
d="M208 475v-275q0 -34 17.5 -50.5t46.5 -16.5q23 0 43.5 10t35.5 24v308h145v-458q0 -60 -19 -102.5t-52 -69.5t-76 -39.5t-91 -12.5q-56 0 -96.5 9.5t-79.5 27.5v136q13 -9 31.5 -18t40 -16t44.5 -11.5t46 -4.5q22 0 41.5 4.5t33.5 15.5t22 30t8 48v26q-23 -18 -51.5 -29
t-66.5 -11q-80 0 -123.5 49t-43.5 141v285h144z" />
    <glyph glyph-name="z" unicode="z" horiz-adv-x="495" 
d="M439 376l-198 -256h203v-120h-397v96l200 259h-200v120h392v-99z" />
    <glyph glyph-name="braceleft" unicode="{" horiz-adv-x="347" 
d="M127 262q21 -6 41 -16.5t35 -27.5t24.5 -42t9.5 -61v-112q0 -34 9.5 -47.5t45.5 -13.5h39v-132h-54q-48 0 -80 13.5t-51.5 38t-28 59t-8.5 77.5v116q0 22 -8 36t-21 23t-30 15t-35 11v126q18 5 35 11t30 15t21 23t8 36v112q0 43 8.5 77.5t28 59t51.5 38t80 13.5h54v-132
h-39q-36 0 -45.5 -13.5t-9.5 -47.5v-108q0 -36 -9.5 -61t-24.5 -42t-35 -27.5t-41 -16.5z" />
    <glyph glyph-name="bar" unicode="|" horiz-adv-x="285" 
d="M195 -190h-106v990h106v-990z" />
    <glyph glyph-name="braceright" unicode="}" horiz-adv-x="347" 
d="M220.008 262q-20.999 -6 -40.998 -16.5q-19.998 -10.5 -34.9971 -27.5t-24.499 -42q-9.49902 -25 -9.49902 -61v-112q0 -34 -9.5 -47.5q-9.49902 -13.5 -45.4971 -13.5h-38.9971v-132h53.9961q47.9971 0 79.9951 13.5t51.4971 38t27.998 59q8.5 34.5 8.5 77.5v116
q0 22 7.99902 36q8 14 20.999 23t29.998 15t34.998 11v126q-17.999 5 -34.998 11t-29.998 15t-20.999 23q-7.99902 14 -7.99902 36v112q0 43 -8.5 77.5q-8.49902 34.5 -27.998 59t-51.4971 38t-79.9951 13.5h-53.9961v-132h38.9971q35.998 0 45.4971 -13.5
q9.5 -13.5 9.5 -47.5v-108q0 -36 9.49902 -61q9.5 -25 24.499 -42t34.9971 -27.5q19.999 -10.5 40.998 -16.5z" />
    <glyph glyph-name="asciitilde" unicode="~" 
d="M41 224q0 37 8 69.5t25 57t43.5 38.5t63.5 14q24 0 54 -10t59.5 -22t56 -22t44.5 -10q23 0 29.5 17t6.5 42h105q0 -37 -8 -69.5t-25 -57t-43.5 -38.5t-63.5 -14q-24 0 -54 10t-59.5 22t-56 22t-44.5 10q-23 0 -29.5 -17t-6.5 -42h-105v0z" />
    <glyph glyph-name="uni00A0" unicode="&#xa0;" horiz-adv-x="134" 
 />
    <glyph glyph-name="exclamdown" unicode="&#xa1;" horiz-adv-x="338" 
d="M253 -190h-168l19 452h131zM94 475h150v-150h-150v150z" />
    <glyph glyph-name="cent" unicode="&#xa2;" 
d="M282 37h7q-54 12 -95 40t-68.5 67.5t-41 89t-13.5 103.5q0 53 13 101.5t39.5 88t66 67.5t92.5 40v144h97v-135q34 -2 70.5 -8.5t65.5 -21.5v-131q-32 12 -66 20t-68 8q-32 0 -61 -8.5t-51 -28.5t-35 -53.5t-13 -82.5q0 -46 11.5 -79t32.5 -54.5t49.5 -32t63.5 -10.5
q64 0 141 34v-129q-26 -16 -62 -25t-78 -11v-140h-97v147z" />
    <glyph glyph-name="sterling" unicode="&#xa3;" 
d="M54 396h71q-5 20 -7 38t-2 36q0 61 20 103.5t54 69t77.5 38.5t90.5 12q41 0 82 -8.5t73 -23.5v-134q-22 11 -60.5 21.5t-80.5 10.5q-21 0 -40 -4.5t-33 -14.5t-22 -26.5t-8 -40.5q0 -22 3 -39t10 -38h191v-102h-161l4 -28t2 -27q0 -32 -15 -58.5t-48 -49.5h269v-131h-447
v107q47 20 66.5 52t19.5 72q0 30 -9 63h-100v102z" />
    <glyph glyph-name="currency" unicode="&#xa4;" 
d="M354 339q0 35 -15.5 61t-49.5 26t-49.5 -26t-15.5 -61t15.5 -61t49.5 -26t49.5 26t15.5 61zM104 339q0 28 5 54t16 49l-86 99l87 90l81 -96q37 23 82 23t82 -23l81 96l87 -90l-86 -99q11 -23 16 -49t5 -54t-5 -54t-16 -49l86 -99l-87 -90l-81 96q-37 -23 -82 -23t-82 23
l-81 -96l-87 90l86 99q-11 23 -16 49t-5 54z" />
    <glyph glyph-name="yen" unicode="&#xa5;" 
d="M406 348h111v-68h-136v-97h136v-68h-136v-115h-157v115h-136v68h136v97h-136v68h111l-170 328h161l123 -262l116 262h144z" />
    <glyph glyph-name="brokenbar" unicode="&#xa6;" horiz-adv-x="285" 
d="M195 390h-106v410h106v-410zM195 -190h-106v410h106v-410z" />
    <glyph glyph-name="section" unicode="&#xa7;" horiz-adv-x="574" 
d="M487 525q-36 18 -81.5 26.5t-86.5 8.5q-46 0 -76 -12.5t-30 -42.5q0 -27 23 -40.5t58 -23t75.5 -19.5t75.5 -30t58 -54.5t23 -92.5q0 -79 -43 -131q17 -19 26.5 -45.5t9.5 -62.5q0 -48 -17.5 -87t-50.5 -67t-81 -43.5t-110 -15.5q-51 0 -100.5 10t-91.5 30v146
q36 -23 87 -38t103 -15q45 0 75 12.5t30 47.5q0 31 -23 47.5t-58 27t-75.5 20.5t-75.5 29t-58 52.5t-23 91.5q0 42 12 73t34 55q-18 20 -28.5 47t-10.5 64q0 50 18 87.5t51.5 62.5t81.5 37.5t107 12.5q21 0 44.5 -2t46.5 -6t44.5 -9.5t36.5 -12.5v-138zM388 225
q0 25 -17.5 40t-44.5 25t-61 17t-67 17q-18 -23 -18 -58q0 -22 18.5 -35t47.5 -22t64 -16t69 -18q4 10 6.5 22t2.5 28z" />
    <glyph glyph-name="dieresis" unicode="&#xa8;" horiz-adv-x="510" 
d="M224 568h-126v125h126v-125zM411 568h-126v125h126v-125z" />
    <glyph glyph-name="copyright" unicode="&#xa9;" horiz-adv-x="819" 
d="M550 412q-19 12 -44.5 19.5t-57.5 7.5q-54 0 -79.5 -28t-25.5 -73q0 -43 26 -70t80 -27q31 0 56.5 8.5t51.5 25.5v-111q-25 -14 -52 -21.5t-62 -7.5q-56 0 -97.5 15.5t-69 42.5t-41.5 64t-14 81q0 54 18 92.5t47.5 63t67.5 36.5t79 12q32 0 63 -6t54 -17v-107zM761 336
q0 -75 -26.5 -139.5t-73.5 -112t-111.5 -74.5t-140.5 -27t-140.5 27t-111 74.5t-73 112t-26.5 139.5t26.5 140t73 113t111 76t140.5 28t140.5 -28t111.5 -76t73.5 -113t26.5 -140zM702 336q0 61 -22.5 115t-61.5 94t-92.5 63t-116.5 23t-116.5 -23t-93 -63t-61.5 -94
t-22 -115q0 -62 22 -115t61.5 -92t93 -61.5t116.5 -22.5t116.5 22.5t92.5 61.5t61.5 92t22.5 115z" />
    <glyph glyph-name="ordfeminine" unicode="&#xaa;" horiz-adv-x="429" 
d="M248 601q-14 3 -27 3q-30 0 -47.5 -17t-17.5 -55q0 -35 14 -49.5t37 -14.5q21 0 41 14v119zM359 382h-90l-5 22q-16 -13 -35.5 -21t-49.5 -8q-26 0 -51 9.5t-44 28t-30.5 47.5t-11.5 68q0 81 50.5 123t131.5 42q40 0 70.5 -5.5t64.5 -16.5v-289z" />
    <glyph glyph-name="guillemotleft" unicode="&#xab;" horiz-adv-x="571" 
d="M21 248l157 199h124l-138 -199l138 -199h-124zM269 248l157 199h124l-138 -199l138 -199h-124z" />
    <glyph glyph-name="logicalnot" unicode="&#xac;" 
d="M522 134h-118v236h-348v118h466v-354z" />
    <glyph glyph-name="uni00AD" unicode="&#xad;" horiz-adv-x="406" 
d="M342 213h-277v128h277v-128z" />
    <glyph glyph-name="registered" unicode="&#xae;" horiz-adv-x="544" 
d="M276 586q50 0 79.5 -15t29.5 -52q0 -23 -12.5 -38.5t-35.5 -21.5l57 -88h-88l-41 73h-12v-73h-79v215h102zM483 475q0 -47 -15.5 -86t-43.5 -68t-67 -45t-86 -16t-85.5 16t-66 45t-43 68t-15.5 86q0 46 15.5 86t43 69.5t66 46t85.5 16.5t86 -16.5t67 -46t43.5 -69.5
t15.5 -86zM439 475q0 38 -12 69.5t-34.5 54.5t-53.5 36t-68 13t-67.5 -13t-52.5 -36t-34 -54.5t-12 -69.5t12 -69t34 -53.5t52.5 -35t67.5 -12.5t68 12.5t53.5 35t34.5 53.5t12 69zM253 494h21q28 0 28 23t-28 23h-21v-46z" />
    <glyph glyph-name="macron" unicode="&#xaf;" horiz-adv-x="510" 
d="M397 584h-284v101h284v-101z" />
    <glyph glyph-name="degree" unicode="&#xb0;" horiz-adv-x="329" 
d="M42 556q0 30 9.5 55t26 43t39 28.5t47.5 10.5t47.5 -10.5t39 -28.5t26 -43t9.5 -55t-9.5 -55t-26 -43t-39 -28t-47.5 -10t-47.5 10t-39 28t-26 43t-9.5 55zM105 556q0 -29 17 -49t42 -20q26 0 43 20t17 49q0 30 -17 50t-43 20q-25 0 -42 -20t-17 -50z" />
    <glyph glyph-name="plusminus" unicode="&#xb1;" 
d="M522 0h-466v118h466v-118zM522 317h-174v-158h-118v158h-174v118h174v158h118v-158h174v-118z" />
    <glyph glyph-name="twosuperior" unicode="&#xb2;" horiz-adv-x="411" 
d="M347 264h-293v84l119 118q23 22 37 39.5t14 40.5t-16 33.5t-44 10.5q-23 0 -51.5 -8t-47.5 -20v100q21 11 55 18.5t68 7.5q31 0 59 -7.5t49 -23.5t33.5 -40.5t12.5 -57.5q0 -50 -20 -82t-51 -58l-65 -54h141v-101z" />
    <glyph glyph-name="threesuperior" unicode="&#xb3;" horiz-adv-x="403" 
d="M68 676h280v-85l-96 -87q44 -5 72 -33t28 -84q0 -36 -13 -63t-35.5 -45t-53 -27t-64.5 -9q-33 0 -64 6t-58 22v100q26 -14 51.5 -22.5t54.5 -8.5t47 11t18 35t-16.5 34.5t-46.5 10.5q-11 0 -24 -0.5t-24 -2.5v71l97 84h-153v93z" />
    <glyph glyph-name="acute" unicode="&#xb4;" horiz-adv-x="510" 
d="M246 710h158l-124 -151h-107z" />
    <glyph glyph-name="mu" unicode="&#xb5;" horiz-adv-x="542" 
d="M390 0l-11 42q-15 -28 -42.5 -43.5t-58.5 -15.5q-16 0 -31.5 4t-28.5 14v-191h-145v665h145v-294q0 -32 17 -48.5t46 -16.5q23 0 43 9.5t36 24.5v325h145v-475h-115z" />
    <glyph glyph-name="paragraph" unicode="&#xb6;" horiz-adv-x="724" 
d="M447 -190h-102v428h-62q-55 0 -99 15.5t-75 44t-48 69.5t-17 91q0 49 17 89.5t48 69t75 44t99 15.5h164v-866zM628 -190h-102v866h102v-866z" />
    <glyph glyph-name="periodcentered" unicode="&#xb7;" horiz-adv-x="303" 
d="M77 353h149v-150h-149v150z" />
    <glyph glyph-name="cedilla" unicode="&#xb8;" horiz-adv-x="510" 
d="M160 -143q10 -5 26.5 -9.5t30.5 -4.5q17 0 28.5 5t11.5 22t-12.5 22t-29.5 5h-27l33 103h77l-14 -56q16 -3 30 -8.5t25 -16t17.5 -26t6.5 -37.5q0 -41 -33.5 -66t-99.5 -25q-15 0 -35.5 3t-34.5 11v78z" />
    <glyph glyph-name="onesuperior" unicode="&#xb9;" horiz-adv-x="337" 
d="M250 264h-110v319h-96v93h206v-412z" />
    <glyph glyph-name="ordmasculine" unicode="&#xba;" horiz-adv-x="416" 
d="M374 534q0 -78 -45.5 -119t-120.5 -41t-120.5 41t-45.5 119t45.5 118.5t120.5 40.5t120.5 -40.5t45.5 -118.5zM261 534q0 68 -53 68q-52 0 -52 -68q0 -69 52 -69q53 0 53 69z" />
    <glyph glyph-name="guillemotright" unicode="&#xbb;" horiz-adv-x="571" 
d="M302.001 248l-156.99 199h-123.992l137.991 -199l-137.991 -199h123.992zM550.001 248l-156.99 199h-123.992l137.991 -199l-137.991 -199h123.992z" />
    <glyph glyph-name="onequarter" unicode="&#xbc;" horiz-adv-x="880" 
d="M650 420h125v-234h45v-92h-45v-94h-104v94h-192v89zM671 186v124l-89 -124h89zM250 264h-110v319h-96v93h206v-412zM272 0h-108l371 676h107z" />
    <glyph glyph-name="onehalf" unicode="&#xbd;" horiz-adv-x="884" 
d="M250 264h-110v319h-96v93h206v-412zM820 1h-293v84l119 118q23 22 37 39.5t14 40.5t-16 33.5t-44 10.5q-23 0 -51.5 -8t-47.5 -20v100q21 11 55 18.5t68 7.5q31 0 59 -7.5t49 -23.5t33.5 -40.5t12.5 -57.5q0 -50 -20 -82t-51 -58l-65 -54h141v-101zM272 0h-108l371 676
h107z" />
    <glyph glyph-name="threequarters" unicode="&#xbe;" horiz-adv-x="947" 
d="M717 420h125v-234h45v-92h-45v-94h-103v94h-192v89zM739 186v124l-90 -124h90zM68 676h280v-85l-96 -87q44 -5 72 -33t28 -84q0 -36 -13 -63t-35.5 -45t-53 -27t-64.5 -9q-33 0 -64 6t-58 22v100q26 -14 51.5 -22.5t54.5 -8.5t47 11t18 35t-16.5 34.5t-46.5 10.5
q-11 0 -24 -0.5t-24 -2.5v71l97 84h-153v93zM351 0h-108l371 676h107z" />
    <glyph glyph-name="questiondown" unicode="&#xbf;" horiz-adv-x="371" 
d="M273 325h-150v150h150v-150zM269 202q0 -33 -5.5 -56t-14.5 -40.5t-22 -31.5t-28 -28q-17 -15 -30 -30.5t-13 -35.5q0 -17 7 -27t18 -16t26 -8t31 -2q31 0 62 8t50 18v-136q-23 -10 -57.5 -17t-79.5 -7q-41 0 -79 10t-68 32t-48 55t-18 80q0 29 6.5 53t16.5 43t23 34.5
t26 27.5q23 21 39.5 42t16.5 50v42h141v-60z" />
    <glyph glyph-name="Agrave" unicode="&#xc0;" horiz-adv-x="666" 
d="M674 0h-171l-44 116h-273l-44 -116h-150l273 676h139zM234 242h177l-88 234zM386 744h-107l-124 151h158z" />
    <glyph glyph-name="Aacute" unicode="&#xc1;" horiz-adv-x="666" 
d="M674 0h-171l-44 116h-273l-44 -116h-150l273 676h139zM234 242h177l-88 234zM359 895h158l-124 -151h-107z" />
    <glyph glyph-name="Acircumflex" unicode="&#xc2;" horiz-adv-x="666" 
d="M674 0h-171l-44 116h-273l-44 -116h-150l273 676h139zM234 242h177l-88 234zM410 895l96 -151h-115l-58 73l-58 -73h-115l96 151h154z" />
    <glyph glyph-name="Atilde" unicode="&#xc3;" horiz-adv-x="666" 
d="M674 0h-171l-44 116h-273l-44 -116h-150l273 676h139zM234 242h177l-88 234zM404 742q-24 0 -43 7.5t-35 17t-30.5 17t-27.5 7.5q-14 0 -19 -12t-5 -35h-92q0 30 5.5 57.5t18 49t33.5 34t53 12.5q24 0 43 -7.5t35 -17t30 -17t28 -7.5t19 12t5 35h92q0 -30 -5.5 -57.5
t-18 -49t-34 -34t-52.5 -12.5z" />
    <glyph glyph-name="Adieresis" unicode="&#xc4;" horiz-adv-x="666" 
d="M674 0h-171l-44 116h-273l-44 -116h-150l273 676h139zM234 242h177l-88 234zM303 754h-126v125h126v-125zM490 754h-126v125h126v-125z" />
    <glyph glyph-name="Aring" unicode="&#xc5;" horiz-adv-x="666" 
d="M674 0h-171l-44 116h-273l-44 -116h-150l273 676h139zM234 242h177l-88 234zM448 821q0 -47 -32 -69.5t-83 -22.5t-83 22.5t-32 69.5q0 45 32 67.5t83 22.5t83 -22.5t32 -67.5zM373 820q0 17 -10.5 27.5t-29.5 10.5t-29.5 -10.5t-10.5 -27.5t10.5 -27.5t29.5 -10.5
t29.5 10.5t10.5 27.5z" />
    <glyph glyph-name="AE" unicode="&#xc6;" horiz-adv-x="964" 
d="M895 545h-299v-138h265v-131h-265v-93q0 -26 9.5 -39t36.5 -13h264v-131h-292q-73 0 -113.5 29t-54.5 87h-248l-66 -116h-168l393 676h538v-131zM269 242h170v303z" />
    <glyph glyph-name="Ccedilla" unicode="&#xc7;" horiz-adv-x="633" 
d="M235 -143q11 -5 27 -9.5t30 -4.5q17 0 28.5 5t11.5 22t-12 22t-29 5h-28l32 98q-61 14 -107.5 45.5t-78 76t-48 101t-16.5 120.5q0 76 23 141t68 112.5t110 74.5t149 27q29 0 57 -3t52.5 -8t44.5 -11.5t33 -14.5v-135q-28 17 -76 27.5t-101 10.5q-91 0 -144.5 -56.5
t-53.5 -164.5t53.5 -165t144.5 -57q45 0 93.5 11.5t87.5 34.5v-135q-35 -20 -80.5 -32t-110.5 -12q-6 0 -12.5 0.5t-12.5 0.5l-10 -40q31 -5 55 -25t24 -63q0 -41 -33.5 -66t-99.5 -25q-15 0 -36 3t-35 11v78z" />
    <glyph glyph-name="Egrave" unicode="&#xc8;" horiz-adv-x="612" 
d="M543 545h-299v-138h265v-131h-265v-93q0 -26 9.5 -39t36.5 -13h264v-131h-292q-92 0 -133 46t-41 137v493h455v-131zM391 744h-107l-124 151h158z" />
    <glyph glyph-name="Eacute" unicode="&#xc9;" horiz-adv-x="612" 
d="M543 545h-299v-138h265v-131h-265v-93q0 -26 9.5 -39t36.5 -13h264v-131h-292q-92 0 -133 46t-41 137v493h455v-131zM331 895h158l-124 -151h-107z" />
    <glyph glyph-name="Ecircumflex" unicode="&#xca;" horiz-adv-x="612" 
d="M543 545h-299v-138h265v-131h-265v-93q0 -26 9.5 -39t36.5 -13h264v-131h-292q-92 0 -133 46t-41 137v493h455v-131zM392 895l96 -151h-115l-58 73l-58 -73h-115l96 151h154z" />
    <glyph glyph-name="Edieresis" unicode="&#xcb;" horiz-adv-x="612" 
d="M543 545h-299v-138h265v-131h-265v-93q0 -26 9.5 -39t36.5 -13h264v-131h-292q-92 0 -133 46t-41 137v493h455v-131zM285 753h-126v125h126v-125zM472 753h-126v125h126v-125z" />
    <glyph glyph-name="Igrave" unicode="&#xcc;" horiz-adv-x="348" 
d="M252 0h-156v676h156v-676zM233 744h-107l-124 151h158z" />
    <glyph glyph-name="Iacute" unicode="&#xcd;" horiz-adv-x="348" 
d="M252 0h-156v676h156v-676zM195 895h158l-124 -151h-107z" />
    <glyph glyph-name="Icircumflex" unicode="&#xce;" horiz-adv-x="348" 
d="M252 0h-156v676h156v-676zM252 895l96 -151h-115l-58 73l-58 -73h-115l96 151h154z" />
    <glyph glyph-name="Idieresis" unicode="&#xcf;" horiz-adv-x="348" 
d="M252 0h-156v676h156v-676zM145 754h-126v125h126v-125zM332 754h-126v125h126v-125z" />
    <glyph glyph-name="Eth" unicode="&#xd0;" horiz-adv-x="739" 
d="M96 287h-78v121h78v268h243q81 0 146.5 -21t112 -63t71.5 -105.5t25 -148.5q0 -86 -25 -149.5t-71.5 -105.5t-112 -62.5t-146.5 -20.5h-243v287zM532 339q0 56 -13.5 95t-39 64t-61 36t-79.5 11h-87v-137h143v-121h-143v-156h87q44 0 79.5 11.5t61 36t39 64t13.5 96.5z
" />
    <glyph glyph-name="Ntilde" unicode="&#xd1;" horiz-adv-x="781" 
d="M687 0h-133l-306 418v-418h-152v676h133l306 -418v418h152v-676zM462 742q-24 0 -43 7.5t-35 17t-30.5 17t-27.5 7.5q-14 0 -19 -12t-5 -35h-92q0 30 5.5 57.5t18 49t33.5 34t53 12.5q24 0 43 -7.5t35 -17t30 -17t28 -7.5t19 12t5 35h92q0 -30 -5.5 -57.5t-18 -49
t-34 -34t-52.5 -12.5z" />
    <glyph glyph-name="Ograve" unicode="&#xd2;" horiz-adv-x="807" 
d="M404 693q80 0 146 -24.5t113 -70t73 -111.5t26 -149t-26 -149t-73 -112t-113 -70t-146 -24t-146.5 24t-113.5 70t-73 112t-26 149t26 149t73 111.5t113.5 70t146.5 24.5zM404 559q-97 0 -147 -60.5t-50 -160.5q0 -50 12.5 -91t37.5 -70t62 -45t85 -16t84.5 16t61.5 45
t37.5 70t12.5 91t-12.5 90.5t-37.5 69.5t-61.5 45t-84.5 16zM465 744h-107l-124 151h158z" />
    <glyph glyph-name="Oacute" unicode="&#xd3;" horiz-adv-x="807" 
d="M404 693q80 0 146 -24.5t113 -70t73 -111.5t26 -149t-26 -149t-73 -112t-113 -70t-146 -24t-146.5 24t-113.5 70t-73 112t-26 149t26 149t73 111.5t113.5 70t146.5 24.5zM404 559q-97 0 -147 -60.5t-50 -160.5q0 -50 12.5 -91t37.5 -70t62 -45t85 -16t84.5 16t61.5 45
t37.5 70t12.5 91t-12.5 90.5t-37.5 69.5t-61.5 45t-84.5 16zM424 895h158l-124 -151h-107z" />
    <glyph glyph-name="Ocircumflex" unicode="&#xd4;" horiz-adv-x="807" 
d="M404 693q80 0 146 -24.5t113 -70t73 -111.5t26 -149t-26 -149t-73 -112t-113 -70t-146 -24t-146.5 24t-113.5 70t-73 112t-26 149t26 149t73 111.5t113.5 70t146.5 24.5zM404 559q-97 0 -147 -60.5t-50 -160.5q0 -50 12.5 -91t37.5 -70t62 -45t85 -16t84.5 16t61.5 45
t37.5 70t12.5 91t-12.5 90.5t-37.5 69.5t-61.5 45t-84.5 16zM482 895l96 -151h-115l-58 73l-58 -73h-115l96 151h154z" />
    <glyph glyph-name="Otilde" unicode="&#xd5;" horiz-adv-x="807" 
d="M404 693q80 0 146 -24.5t113 -70t73 -111.5t26 -149t-26 -149t-73 -112t-113 -70t-146 -24t-146.5 24t-113.5 70t-73 112t-26 149t26 149t73 111.5t113.5 70t146.5 24.5zM404 559q-97 0 -147 -60.5t-50 -160.5q0 -50 12.5 -91t37.5 -70t62 -45t85 -16t84.5 16t61.5 45
t37.5 70t12.5 91t-12.5 90.5t-37.5 69.5t-61.5 45t-84.5 16zM476 742q-24 0 -43 7.5t-35 17t-30.5 17t-27.5 7.5q-14 0 -19 -12t-5 -35h-92q0 30 5.5 57.5t18 49t33.5 34t53 12.5q24 0 43 -7.5t35 -17t30 -17t28 -7.5t19 12t5 35h92q0 -30 -5.5 -57.5t-18 -49t-34 -34
t-52.5 -12.5z" />
    <glyph glyph-name="Odieresis" unicode="&#xd6;" horiz-adv-x="807" 
d="M404 693q80 0 146 -24.5t113 -70t73 -111.5t26 -149t-26 -149t-73 -112t-113 -70t-146 -24t-146.5 24t-113.5 70t-73 112t-26 149t26 149t73 111.5t113.5 70t146.5 24.5zM404 559q-97 0 -147 -60.5t-50 -160.5q0 -50 12.5 -91t37.5 -70t62 -45t85 -16t84.5 16t61.5 45
t37.5 70t12.5 91t-12.5 90.5t-37.5 69.5t-61.5 45t-84.5 16zM375 753h-126v125h126v-125zM562 753h-126v125h126v-125z" />
    <glyph glyph-name="multiply" unicode="&#xd7;" 
d="M360 314l151 -178l-79 -73l-143 168l-143 -168l-79 73l151 178l-151 178l79 73l143 -168l143 168l79 -73z" />
    <glyph glyph-name="Oslash" unicode="&#xd8;" horiz-adv-x="807" 
d="M762 338q0 -83 -26 -149t-73 -112t-113 -70t-146 -24q-56 0 -104.5 11.5t-89.5 33.5l-64 -83l-58 49l61 79q-50 46 -77 112.5t-27 152.5q0 83 26 149t73 111.5t113.5 70t146.5 24.5q107 0 188 -43l70 91l59 -48l-67 -87q51 -46 79.5 -113t28.5 -155zM600 338
q0 88 -39 147l-263 -342q22 -13 48 -20t58 -7q48 0 84.5 16t61.5 45t37.5 70t12.5 91zM207 338q0 -85 37 -142l261 340q-43 23 -101 23q-97 0 -147 -60.5t-50 -160.5z" />
    <glyph glyph-name="Ugrave" unicode="&#xd9;" horiz-adv-x="720" 
d="M641 249q0 -65 -20.5 -114.5t-57.5 -83.5t-89 -51t-114 -17t-113.5 17t-89 51t-58 83.5t-20.5 114.5v427h156v-428q0 -69 35.5 -100.5t89.5 -31.5q27 0 50 7.5t40 24t27 41t10 59.5v428h154v-427zM419 744h-107l-124 151h158z" />
    <glyph glyph-name="Uacute" unicode="&#xda;" horiz-adv-x="720" 
d="M641 249q0 -65 -20.5 -114.5t-57.5 -83.5t-89 -51t-114 -17t-113.5 17t-89 51t-58 83.5t-20.5 114.5v427h156v-428q0 -69 35.5 -100.5t89.5 -31.5q27 0 50 7.5t40 24t27 41t10 59.5v428h154v-427zM386 895h158l-124 -151h-107z" />
    <glyph glyph-name="Ucircumflex" unicode="&#xdb;" horiz-adv-x="720" 
d="M641 249q0 -65 -20.5 -114.5t-57.5 -83.5t-89 -51t-114 -17t-113.5 17t-89 51t-58 83.5t-20.5 114.5v427h156v-428q0 -69 35.5 -100.5t89.5 -31.5q27 0 50 7.5t40 24t27 41t10 59.5v428h154v-427zM437 895l96 -151h-115l-58 73l-58 -73h-115l96 151h154z" />
    <glyph glyph-name="Udieresis" unicode="&#xdc;" horiz-adv-x="720" 
d="M641 249q0 -65 -20.5 -114.5t-57.5 -83.5t-89 -51t-114 -17t-113.5 17t-89 51t-58 83.5t-20.5 114.5v427h156v-428q0 -69 35.5 -100.5t89.5 -31.5q27 0 50 7.5t40 24t27 41t10 59.5v428h154v-427zM324 753h-126v125h126v-125zM511 753h-126v125h126v-125z" />
    <glyph glyph-name="Yacute" unicode="&#xdd;" horiz-adv-x="620" 
d="M388 267v-267h-157v267l-239 409h175l156 -270l151 270h153zM357 895h158l-124 -151h-107z" />
    <glyph glyph-name="Thorn" unicode="&#xde;" horiz-adv-x="675" 
d="M252 0h-156v676h156v-111h92q65 0 118 -14t90.5 -42.5t58 -71.5t20.5 -100t-20.5 -100t-58 -71.5t-90.5 -42.5t-118 -14h-92v-109zM252 240h92q24 0 46.5 4.5t40 15.5t27.5 29.5t10 47.5t-10 47.5t-27.5 29.5t-40 15.5t-46.5 4.5h-92v-194z" />
    <glyph glyph-name="germandbls" unicode="&#xdf;" horiz-adv-x="588" 
d="M73 514q0 58 20 98.5t52 66t72.5 37t81.5 11.5q45 0 83 -12t65.5 -35t43.5 -58t16 -80q0 -38 -10.5 -62.5t-23.5 -42t-23.5 -31.5t-10.5 -31q0 -19 21 -37t46 -42t46 -58t21 -84q0 -47 -14.5 -79.5t-39.5 -52.5t-57 -29.5t-68 -9.5q-30 0 -55 3.5t-52 13.5v127
q23 -13 44.5 -18t42.5 -5q26 0 41 10.5t15 31.5q0 27 -19.5 46.5t-43.5 41.5t-43.5 50t-19.5 70q0 29 10.5 50t22.5 39.5t22.5 38t10.5 45.5q0 38 -20 57.5t-53 19.5q-32 0 -55.5 -21.5t-23.5 -64.5v-518h-145v514z" />
    <glyph glyph-name="agrave" unicode="&#xe0;" horiz-adv-x="569" 
d="M495 0h-114l-11 42q-23 -28 -54.5 -43.5t-73.5 -15.5q-38 0 -74.5 14t-65.5 44t-47 76.5t-18 110.5q0 63 18.5 112t52.5 83t82.5 51.5t107.5 17.5t104 -9t93 -25v-458zM350 362q-23 6 -47 6q-23 0 -44.5 -7t-38 -22.5t-26.5 -41t-10 -62.5q0 -64 26.5 -91.5t67.5 -27.5
q19 0 38 5.5t34 19.5v221zM349 559h-107l-124 151h158z" />
    <glyph glyph-name="aacute" unicode="&#xe1;" horiz-adv-x="569" 
d="M495 0h-114l-11 42q-23 -28 -54.5 -43.5t-73.5 -15.5q-38 0 -74.5 14t-65.5 44t-47 76.5t-18 110.5q0 63 18.5 112t52.5 83t82.5 51.5t107.5 17.5t104 -9t93 -25v-458zM350 362q-23 6 -47 6q-23 0 -44.5 -7t-38 -22.5t-26.5 -41t-10 -62.5q0 -64 26.5 -91.5t67.5 -27.5
q19 0 38 5.5t34 19.5v221zM299 710h158l-124 -151h-107z" />
    <glyph glyph-name="acircumflex" unicode="&#xe2;" horiz-adv-x="569" 
d="M495 0h-114l-11 42q-23 -28 -54.5 -43.5t-73.5 -15.5q-38 0 -74.5 14t-65.5 44t-47 76.5t-18 110.5q0 63 18.5 112t52.5 83t82.5 51.5t107.5 17.5t104 -9t93 -25v-458zM350 362q-23 6 -47 6q-23 0 -44.5 -7t-38 -22.5t-26.5 -41t-10 -62.5q0 -64 26.5 -91.5t67.5 -27.5
q19 0 38 5.5t34 19.5v221zM353 710l96 -151h-115l-58 73l-58 -73h-115l96 151h154z" />
    <glyph glyph-name="atilde" unicode="&#xe3;" horiz-adv-x="569" 
d="M495 0h-114l-11 42q-23 -28 -54.5 -43.5t-73.5 -15.5q-38 0 -74.5 14t-65.5 44t-47 76.5t-18 110.5q0 63 18.5 112t52.5 83t82.5 51.5t107.5 17.5t104 -9t93 -25v-458zM350 362q-23 6 -47 6q-23 0 -44.5 -7t-38 -22.5t-26.5 -41t-10 -62.5q0 -64 26.5 -91.5t67.5 -27.5
q19 0 38 5.5t34 19.5v221zM346 557q-24 0 -43 7.5t-35 17t-30.5 17t-27.5 7.5q-14 0 -19 -12t-5 -35h-92q0 30 5.5 57.5t18 49t33.5 34t53 12.5q24 0 43 -7.5t35 -17t30 -17t28 -7.5t19 12t5 35h92q0 -30 -5.5 -57.5t-18 -49t-34 -34t-52.5 -12.5z" />
    <glyph glyph-name="adieresis" unicode="&#xe4;" horiz-adv-x="569" 
d="M495 0h-114l-11 42q-23 -28 -54.5 -43.5t-73.5 -15.5q-38 0 -74.5 14t-65.5 44t-47 76.5t-18 110.5q0 63 18.5 112t52.5 83t82.5 51.5t107.5 17.5t104 -9t93 -25v-458zM350 362q-23 6 -47 6q-23 0 -44.5 -7t-38 -22.5t-26.5 -41t-10 -62.5q0 -64 26.5 -91.5t67.5 -27.5
q19 0 38 5.5t34 19.5v221zM245 568h-126v125h126v-125zM432 568h-126v125h126v-125z" />
    <glyph glyph-name="aring" unicode="&#xe5;" horiz-adv-x="569" 
d="M495 0h-114l-11 42q-23 -28 -54.5 -43.5t-73.5 -15.5q-38 0 -74.5 14t-65.5 44t-47 76.5t-18 110.5q0 63 18.5 112t52.5 83t82.5 51.5t107.5 17.5t104 -9t93 -25v-458zM350 362q-23 6 -47 6q-23 0 -44.5 -7t-38 -22.5t-26.5 -41t-10 -62.5q0 -64 26.5 -91.5t67.5 -27.5
q19 0 38 5.5t34 19.5v221zM391 637q0 -47 -32 -69.5t-83 -22.5t-83 22.5t-32 69.5q0 45 32 67.5t83 22.5t83 -22.5t32 -67.5zM316 636q0 17 -10.5 27.5t-29.5 10.5t-29.5 -10.5t-10.5 -27.5t10.5 -27.5t29.5 -10.5t29.5 10.5t10.5 27.5z" />
    <glyph glyph-name="ae" unicode="&#xe6;" horiz-adv-x="841" 
d="M489 188q4 -24 16 -39.5t30.5 -24.5t41 -13t47.5 -4q23 0 47 3t46 7.5t40.5 10.5t32.5 12v-123q-15 -8 -37 -14t-47.5 -10.5t-51.5 -7t-49 -2.5q-60 0 -110.5 15.5t-86.5 53.5q-30 -35 -73.5 -52t-88.5 -17q-39 0 -76.5 13.5t-67 43t-47.5 76t-18 112.5q0 63 18.5 112
t52.5 83t82.5 51.5t107.5 17.5q47 0 83.5 -9.5t65.5 -24.5q56 34 129 34q59 0 102.5 -18.5t71.5 -48.5t41.5 -69t13.5 -81v-87h-316zM365 357q-16 5 -30 8t-31 3q-24 0 -45.5 -7t-38 -22t-26.5 -40t-10 -61q0 -66 25.5 -94t69.5 -28q20 0 41.5 7.5t35.5 25.5q-10 39 -10 92
q0 64 19 116zM657 289q-2 52 -27 70.5t-58 18.5t-56.5 -20.5t-28.5 -68.5h170z" />
    <glyph glyph-name="ccedilla" unicode="&#xe7;" horiz-adv-x="481" 
d="M150 -143q10 -5 26.5 -9.5t30.5 -4.5q17 0 28 5t11 22t-12 22t-29 5h-27l30 96q-84 23 -127.5 89.5t-43.5 155.5q0 57 17.5 104t50 80.5t79.5 51.5t106 18q42 0 72.5 -6t56.5 -19v-129q-30 17 -56 23.5t-60 6.5q-60 0 -89 -36.5t-29 -94.5t29 -94t89 -36q32 0 61.5 8
t59.5 25v-129q-26 -13 -61.5 -20.5t-78.5 -7.5l-10 -39q31 -5 55 -25t24 -63q0 -41 -33.5 -66t-99.5 -25q-15 0 -36 3t-34 11v78z" />
    <glyph glyph-name="egrave" unicode="&#xe8;" horiz-adv-x="545" 
d="M191 188q4 -24 16.5 -39.5t30.5 -24.5t41 -13t47 -4q23 0 47 3t46 7.5t40.5 10.5t32.5 12v-123q-14 -8 -36 -14t-47.5 -10.5t-51.5 -7t-49 -2.5q-54 0 -103.5 13.5t-86.5 43.5t-59 79.5t-22 121.5q0 61 18.5 108t51.5 78.5t77 48t95 16.5q59 0 102 -18.5t71 -48.5
t41.5 -69t13.5 -81v-87h-316zM360 289q-2 52 -27 70.5t-58 18.5q-34 0 -57 -20.5t-28 -68.5h170zM340 559h-107l-124 151h158z" />
    <glyph glyph-name="eacute" unicode="&#xe9;" horiz-adv-x="545" 
d="M191 188q4 -24 16.5 -39.5t30.5 -24.5t41 -13t47 -4q23 0 47 3t46 7.5t40.5 10.5t32.5 12v-123q-14 -8 -36 -14t-47.5 -10.5t-51.5 -7t-49 -2.5q-54 0 -103.5 13.5t-86.5 43.5t-59 79.5t-22 121.5q0 61 18.5 108t51.5 78.5t77 48t95 16.5q59 0 102 -18.5t71 -48.5
t41.5 -69t13.5 -81v-87h-316zM360 289q-2 52 -27 70.5t-58 18.5q-34 0 -57 -20.5t-28 -68.5h170zM300 710h158l-124 -151h-107z" />
    <glyph glyph-name="ecircumflex" unicode="&#xea;" horiz-adv-x="545" 
d="M191 188q4 -24 16.5 -39.5t30.5 -24.5t41 -13t47 -4q23 0 47 3t46 7.5t40.5 10.5t32.5 12v-123q-14 -8 -36 -14t-47.5 -10.5t-51.5 -7t-49 -2.5q-54 0 -103.5 13.5t-86.5 43.5t-59 79.5t-22 121.5q0 61 18.5 108t51.5 78.5t77 48t95 16.5q59 0 102 -18.5t71 -48.5
t41.5 -69t13.5 -81v-87h-316zM360 289q-2 52 -27 70.5t-58 18.5q-34 0 -57 -20.5t-28 -68.5h170zM357 710l96 -151h-115l-58 73l-58 -73h-115l96 151h154z" />
    <glyph glyph-name="edieresis" unicode="&#xeb;" horiz-adv-x="545" 
d="M191 188q4 -24 16.5 -39.5t30.5 -24.5t41 -13t47 -4q23 0 47 3t46 7.5t40.5 10.5t32.5 12v-123q-14 -8 -36 -14t-47.5 -10.5t-51.5 -7t-49 -2.5q-54 0 -103.5 13.5t-86.5 43.5t-59 79.5t-22 121.5q0 61 18.5 108t51.5 78.5t77 48t95 16.5q59 0 102 -18.5t71 -48.5
t41.5 -69t13.5 -81v-87h-316zM360 289q-2 52 -27 70.5t-58 18.5q-34 0 -57 -20.5t-28 -68.5h170zM249 568h-126v125h126v-125zM436 568h-126v125h126v-125z" />
    <glyph glyph-name="igrave" unicode="&#xec;" horiz-adv-x="291" 
d="M218 0h-145v475h145v-475zM205 559h-107l-124 151h158z" />
    <glyph glyph-name="iacute" unicode="&#xed;" horiz-adv-x="291" 
d="M218 0h-145v475h145v-475zM165 710h158l-124 -151h-107z" />
    <glyph glyph-name="icircumflex" unicode="&#xee;" horiz-adv-x="291" 
d="M218 0h-145v475h145v-475zM223 710l96 -151h-115l-58 73l-58 -73h-115l96 151h154z" />
    <glyph glyph-name="idieresis" unicode="&#xef;" horiz-adv-x="291" 
d="M218 0h-145v475h145v-475zM116 568h-126v125h126v-125zM303 568h-126v125h126v-125z" />
    <glyph glyph-name="eth" unicode="&#xf0;" 
d="M476 602q28 -66 47.5 -145t19.5 -164q0 -64 -12.5 -120.5t-42 -98.5t-78.5 -66.5t-121 -24.5q-56 0 -102.5 17t-79.5 49.5t-51.5 80t-18.5 108.5q0 58 17.5 105t48.5 80t74.5 51t96.5 18q44 0 77 -14t47 -28q-6 36 -18 68.5t-26 62.5l-200 -34v64l177 30q-10 22 -18.5 37
t-19.5 32h130q8 -13 13.5 -23t13.5 -26l104 19v-62zM393 238q0 61 -28.5 95.5t-75.5 34.5t-75.5 -34.5t-28.5 -95.5t28.5 -96t75.5 -35t75.5 35t28.5 96z" />
    <glyph glyph-name="ntilde" unicode="&#xf1;" horiz-adv-x="593" 
d="M211 439q26 26 65.5 39.5t77.5 13.5q36 0 67 -11t54 -35t36.5 -61.5t13.5 -89.5v-295h-144v284q0 41 -22.5 57.5t-52.5 16.5q-29 0 -50.5 -9t-37.5 -19v-330h-145v475h129zM378 557q-24 0 -43 7.5t-35 17t-30.5 17t-27.5 7.5q-14 0 -19 -12t-5 -35h-92q0 30 5.5 57.5
t18 49t33.5 34t53 12.5q24 0 43 -7.5t35 -17t30 -17t28 -7.5t19 12t5 35h92q0 -30 -5.5 -57.5t-18 -49t-34 -34t-52.5 -12.5z" />
    <glyph glyph-name="ograve" unicode="&#xf2;" 
d="M289 492q56 0 102.5 -17t79.5 -49.5t51.5 -79.5t18.5 -108t-18.5 -108.5t-51.5 -80t-79.5 -49.5t-102.5 -17t-102.5 17t-79.5 49.5t-51.5 80t-18.5 108.5t18.5 108t51.5 79.5t79.5 49.5t102.5 17zM289 368q-47 0 -75.5 -34.5t-28.5 -95.5t28.5 -96t75.5 -35t75.5 35
t28.5 96t-28.5 95.5t-75.5 34.5zM348 559h-107l-124 151h158z" />
    <glyph glyph-name="oacute" unicode="&#xf3;" 
d="M289 492q56 0 102.5 -17t79.5 -49.5t51.5 -79.5t18.5 -108t-18.5 -108.5t-51.5 -80t-79.5 -49.5t-102.5 -17t-102.5 17t-79.5 49.5t-51.5 80t-18.5 108.5t18.5 108t51.5 79.5t79.5 49.5t102.5 17zM289 368q-47 0 -75.5 -34.5t-28.5 -95.5t28.5 -96t75.5 -35t75.5 35
t28.5 96t-28.5 95.5t-75.5 34.5zM303 710h158l-124 -151h-107z" />
    <glyph glyph-name="ocircumflex" unicode="&#xf4;" 
d="M289 492q56 0 102.5 -17t79.5 -49.5t51.5 -79.5t18.5 -108t-18.5 -108.5t-51.5 -80t-79.5 -49.5t-102.5 -17t-102.5 17t-79.5 49.5t-51.5 80t-18.5 108.5t18.5 108t51.5 79.5t79.5 49.5t102.5 17zM289 368q-47 0 -75.5 -34.5t-28.5 -95.5t28.5 -96t75.5 -35t75.5 35
t28.5 96t-28.5 95.5t-75.5 34.5zM366 710l96 -151h-115l-58 73l-58 -73h-115l96 151h154z" />
    <glyph glyph-name="otilde" unicode="&#xf5;" 
d="M289 492q56 0 102.5 -17t79.5 -49.5t51.5 -79.5t18.5 -108t-18.5 -108.5t-51.5 -80t-79.5 -49.5t-102.5 -17t-102.5 17t-79.5 49.5t-51.5 80t-18.5 108.5t18.5 108t51.5 79.5t79.5 49.5t102.5 17zM289 368q-47 0 -75.5 -34.5t-28.5 -95.5t28.5 -96t75.5 -35t75.5 35
t28.5 96t-28.5 95.5t-75.5 34.5zM360 557q-24 0 -43 7.5t-35 17t-30.5 17t-27.5 7.5q-14 0 -19 -12t-5 -35h-92q0 30 5.5 57.5t18 49t33.5 34t53 12.5q24 0 43 -7.5t35 -17t30 -17t28 -7.5t19 12t5 35h92q0 -30 -5.5 -57.5t-18 -49t-34 -34t-52.5 -12.5z" />
    <glyph glyph-name="odieresis" unicode="&#xf6;" 
d="M289 492q56 0 102.5 -17t79.5 -49.5t51.5 -79.5t18.5 -108t-18.5 -108.5t-51.5 -80t-79.5 -49.5t-102.5 -17t-102.5 17t-79.5 49.5t-51.5 80t-18.5 108.5t18.5 108t51.5 79.5t79.5 49.5t102.5 17zM289 368q-47 0 -75.5 -34.5t-28.5 -95.5t28.5 -96t75.5 -35t75.5 35
t28.5 96t-28.5 95.5t-75.5 34.5zM259 568h-126v125h126v-125zM446 568h-126v125h126v-125z" />
    <glyph glyph-name="divide" unicode="&#xf7;" 
d="M522 252h-466v118h466v-118zM216 182h137v-130h-137v130zM216 569h137v-130h-137v130z" />
    <glyph glyph-name="oslash" unicode="&#xf8;" 
d="M289 492q71 0 127 -28l55 74l53 -36l-56 -74q35 -33 54 -80.5t19 -109.5q0 -61 -18.5 -108.5t-51.5 -80t-79.5 -49.5t-102.5 -17q-72 0 -128 28l-55 -74l-51 38l54 73q-35 32 -53.5 79.5t-18.5 110.5q0 61 18.5 108t51.5 79.5t79.5 49.5t102.5 17zM393 238q0 38 -13 69
l-139 -188q21 -12 48 -12q47 0 75.5 35t28.5 96zM289 368q-47 0 -75.5 -34.5t-28.5 -95.5q0 -38 13 -70l139 188q-11 5 -22.5 8.5t-25.5 3.5z" />
    <glyph glyph-name="ugrave" unicode="&#xf9;" horiz-adv-x="569" 
d="M381 0l-11 42q-25 -25 -58 -42t-81 -17q-80 0 -123.5 49t-43.5 141v302h144v-292q0 -34 17.5 -50.5t46.5 -16.5q23 0 43.5 10t35.5 24v325h145v-475h-115zM338 559h-107l-124 151h158z" />
    <glyph glyph-name="uacute" unicode="&#xfa;" horiz-adv-x="569" 
d="M381 0l-11 42q-25 -25 -58 -42t-81 -17q-80 0 -123.5 49t-43.5 141v302h144v-292q0 -34 17.5 -50.5t46.5 -16.5q23 0 43.5 10t35.5 24v325h145v-475h-115zM298 710h158l-124 -151h-107z" />
    <glyph glyph-name="ucircumflex" unicode="&#xfb;" horiz-adv-x="569" 
d="M381 0l-11 42q-25 -25 -58 -42t-81 -17q-80 0 -123.5 49t-43.5 141v302h144v-292q0 -34 17.5 -50.5t46.5 -16.5q23 0 43.5 10t35.5 24v325h145v-475h-115zM357 710l96 -151h-115l-58 73l-58 -73h-115l96 151h154z" />
    <glyph glyph-name="udieresis" unicode="&#xfc;" horiz-adv-x="569" 
d="M381 0l-11 42q-25 -25 -58 -42t-81 -17q-80 0 -123.5 49t-43.5 141v302h144v-292q0 -34 17.5 -50.5t46.5 -16.5q23 0 43.5 10t35.5 24v325h145v-475h-115zM249 568h-126v125h126v-125zM436 568h-126v125h126v-125z" />
    <glyph glyph-name="yacute" unicode="&#xfd;" horiz-adv-x="569" 
d="M208 475v-275q0 -34 17.5 -50.5t46.5 -16.5q23 0 43.5 10t35.5 24v308h145v-458q0 -60 -19 -102.5t-52 -69.5t-76 -39.5t-91 -12.5q-56 0 -96.5 9.5t-79.5 27.5v136q13 -9 31.5 -18t40 -16t44.5 -11.5t46 -4.5q22 0 41.5 4.5t33.5 15.5t22 30t8 48v26q-23 -18 -51.5 -29
t-66.5 -11q-80 0 -123.5 49t-43.5 141v285h144zM298 710h158l-124 -151h-107z" />
    <glyph glyph-name="thorn" unicode="&#xfe;" horiz-adv-x="564" 
d="M73 710h141v-241q46 23 102 23q40 0 78 -13t67.5 -42.5t47.5 -76t18 -112.5q0 -58 -18 -106.5t-51.5 -84t-81.5 -55t-107 -19.5q-32 0 -55 4v-177h-141v900zM214 115q13 -5 25.5 -6.5t24.5 -1.5q24 0 45 7t37 23t25 41t9 61q0 65 -27 94t-67 29q-42 0 -72 -24v-223z" />
    <glyph glyph-name="ydieresis" unicode="&#xff;" horiz-adv-x="569" 
d="M208 475v-275q0 -34 17.5 -50.5t46.5 -16.5q23 0 43.5 10t35.5 24v308h145v-458q0 -60 -19 -102.5t-52 -69.5t-76 -39.5t-91 -12.5q-56 0 -96.5 9.5t-79.5 27.5v136q13 -9 31.5 -18t40 -16t44.5 -11.5t46 -4.5q22 0 41.5 4.5t33.5 15.5t22 30t8 48v26q-23 -18 -51.5 -29
t-66.5 -11q-80 0 -123.5 49t-43.5 141v285h144zM249 568h-126v125h126v-125zM436 568h-126v125h126v-125z" />
    <glyph glyph-name="Amacron" unicode="&#x100;" horiz-adv-x="666" 
d="M674 0h-171l-44 116h-273l-44 -116h-150l273 676h139zM234 242h177l-88 234zM475 770h-284v101h284v-101z" />
    <glyph glyph-name="amacron" unicode="&#x101;" horiz-adv-x="569" 
d="M495 0h-114l-11 42q-23 -28 -54.5 -43.5t-73.5 -15.5q-38 0 -74.5 14t-65.5 44t-47 76.5t-18 110.5q0 63 18.5 112t52.5 83t82.5 51.5t107.5 17.5t104 -9t93 -25v-458zM350 362q-23 6 -47 6q-23 0 -44.5 -7t-38 -22.5t-26.5 -41t-10 -62.5q0 -64 26.5 -91.5t67.5 -27.5
q19 0 38 5.5t34 19.5v221zM417 584h-284v101h284v-101z" />
    <glyph glyph-name="Abreve" unicode="&#x102;" horiz-adv-x="666" 
d="M674 0h-171l-44 116h-273l-44 -116h-150l273 676h139zM234 242h177l-88 234zM257 895q5 -34 25.5 -48t50.5 -14t50.5 14t25.5 48h84q-3 -76 -46.5 -116.5t-113.5 -40.5q-71 0 -114 40.5t-46 116.5h84z" />
    <glyph glyph-name="abreve" unicode="&#x103;" horiz-adv-x="569" 
d="M495 0h-114l-11 42q-23 -28 -54.5 -43.5t-73.5 -15.5q-38 0 -74.5 14t-65.5 44t-47 76.5t-18 110.5q0 63 18.5 112t52.5 83t82.5 51.5t107.5 17.5t104 -9t93 -25v-458zM350 362q-23 6 -47 6q-23 0 -44.5 -7t-38 -22.5t-26.5 -41t-10 -62.5q0 -64 26.5 -91.5t67.5 -27.5
q19 0 38 5.5t34 19.5v221zM199 710q5 -34 25.5 -48t50.5 -14t50.5 14t25.5 48h84q-3 -76 -46.5 -116.5t-113.5 -40.5q-71 0 -114 40.5t-46 116.5h84z" />
    <glyph glyph-name="Aogonek" unicode="&#x104;" horiz-adv-x="666" 
d="M503 0l-44 116h-273l-44 -116h-150l273 676h139l270 -676q-30 -23 -48 -45t-18 -54q0 -18 10 -27t27 -9q14 0 25 3.5t23 9.5v-91q-17 -8 -35 -11.5t-40 -3.5q-52 0 -83 27t-31 78q0 41 18 72.5t50 50.5h-69zM234 242h177l-88 234z" />
    <glyph glyph-name="aogonek" unicode="&#x105;" horiz-adv-x="569" 
d="M495 0q-30 -23 -48.5 -45t-18.5 -54q0 -18 10.5 -27t27.5 -9q14 0 25 3.5t22 9.5v-91q-17 -8 -35 -11.5t-39 -3.5q-52 0 -83 27t-31 78q0 41 18 72.5t50 50.5h-12l-11 42q-23 -28 -54.5 -43.5t-73.5 -15.5q-38 0 -74.5 14t-65.5 44t-47 76.5t-18 110.5q0 63 18.5 112
t52.5 83t82.5 51.5t107.5 17.5t104 -9t93 -25v-458zM350 362q-23 6 -47 6q-23 0 -44.5 -7t-38 -22.5t-26.5 -41t-10 -62.5q0 -64 26.5 -91.5t67.5 -27.5q19 0 38 5.5t34 19.5v221z" />
    <glyph glyph-name="Cacute" unicode="&#x106;" horiz-adv-x="633" 
d="M45 338q0 76 23 141t68 112.5t110 74.5t149 27q29 0 57 -3t52.5 -8t44.5 -11.5t33 -14.5v-135q-28 17 -76 27.5t-101 10.5q-91 0 -144.5 -56.5t-53.5 -164.5t53.5 -165t144.5 -57q45 0 93.5 11.5t87.5 34.5v-135q-35 -20 -80.5 -32t-110.5 -12q-84 0 -149 27t-110 74.5
t-68 112.5t-23 141zM412 895h158l-124 -151h-107z" />
    <glyph glyph-name="cacute" unicode="&#x107;" horiz-adv-x="481" 
d="M419 338q-30 17 -56 23.5t-60 6.5q-60 0 -89 -36.5t-29 -94.5t29 -94t89 -36q32 0 61.5 8t59.5 25v-129q-26 -13 -61 -20.5t-77 -7.5q-61 0 -107.5 20t-78 54.5t-47.5 81t-16 99.5q0 57 17.5 104t50 80.5t79.5 51.5t106 18q42 0 72.5 -6t56.5 -19v-129zM261 710h158
l-124 -151h-107z" />
    <glyph glyph-name="Ccircumflex" unicode="&#x108;" horiz-adv-x="633" 
d="M45 338q0 76 23 141t68 112.5t110 74.5t149 27q29 0 57 -3t52.5 -8t44.5 -11.5t33 -14.5v-135q-28 17 -76 27.5t-101 10.5q-91 0 -144.5 -56.5t-53.5 -164.5t53.5 -165t144.5 -57q45 0 93.5 11.5t87.5 34.5v-135q-35 -20 -80.5 -32t-110.5 -12q-84 0 -149 27t-110 74.5
t-68 112.5t-23 141zM424 895l96 -151h-115l-58 73l-58 -73h-115l96 151h154z" />
    <glyph glyph-name="ccircumflex" unicode="&#x109;" horiz-adv-x="481" 
d="M419 338q-30 17 -56 23.5t-60 6.5q-60 0 -89 -36.5t-29 -94.5t29 -94t89 -36q32 0 61.5 8t59.5 25v-129q-26 -13 -61 -20.5t-77 -7.5q-61 0 -107.5 20t-78 54.5t-47.5 81t-16 99.5q0 57 17.5 104t50 80.5t79.5 51.5t106 18q42 0 72.5 -6t56.5 -19v-129zM324 710l96 -151
h-115l-58 73l-58 -73h-115l96 151h154z" />
    <glyph glyph-name="Cdotaccent" unicode="&#x10a;" horiz-adv-x="633" 
d="M45 338q0 76 23 141t68 112.5t110 74.5t149 27q29 0 57 -3t52.5 -8t44.5 -11.5t33 -14.5v-135q-28 17 -76 27.5t-101 10.5q-91 0 -144.5 -56.5t-53.5 -164.5t53.5 -165t144.5 -57q45 0 93.5 11.5t87.5 34.5v-135q-35 -20 -80.5 -32t-110.5 -12q-84 0 -149 27t-110 74.5
t-68 112.5t-23 141zM415 753h-138v125h138v-125z" />
    <glyph glyph-name="cdotaccent" unicode="&#x10b;" horiz-adv-x="481" 
d="M419 338q-30 17 -56 23.5t-60 6.5q-60 0 -89 -36.5t-29 -94.5t29 -94t89 -36q32 0 61.5 8t59.5 25v-129q-26 -13 -61 -20.5t-77 -7.5q-61 0 -107.5 20t-78 54.5t-47.5 81t-16 99.5q0 57 17.5 104t50 80.5t79.5 51.5t106 18q42 0 72.5 -6t56.5 -19v-129zM316 568h-138v125
h138v-125z" />
    <glyph glyph-name="Ccaron" unicode="&#x10c;" horiz-adv-x="633" 
d="M45 338q0 76 23 141t68 112.5t110 74.5t149 27q29 0 57 -3t52.5 -8t44.5 -11.5t33 -14.5v-135q-28 17 -76 27.5t-101 10.5q-91 0 -144.5 -56.5t-53.5 -164.5t53.5 -165t144.5 -57q45 0 93.5 11.5t87.5 34.5v-135q-35 -20 -80.5 -32t-110.5 -12q-84 0 -149 27t-110 74.5
t-68 112.5t-23 141zM270 744l-96 151h115l58 -73l58 73h115l-96 -151h-154z" />
    <glyph glyph-name="ccaron" unicode="&#x10d;" horiz-adv-x="481" 
d="M419 338q-30 17 -56 23.5t-60 6.5q-60 0 -89 -36.5t-29 -94.5t29 -94t89 -36q32 0 61.5 8t59.5 25v-129q-26 -13 -61 -20.5t-77 -7.5q-61 0 -107.5 20t-78 54.5t-47.5 81t-16 99.5q0 57 17.5 104t50 80.5t79.5 51.5t106 18q42 0 72.5 -6t56.5 -19v-129zM170 559l-96 151
h115l58 -73l58 73h115l-96 -151h-154z" />
    <glyph glyph-name="Dcaron" unicode="&#x10e;" horiz-adv-x="739" 
d="M252 131h87q44 0 79.5 11.5t61 36t39 64t13.5 96.5q0 56 -13.5 95t-39 64t-61 36t-79.5 11h-87v-414zM339 676q81 0 146.5 -21t112 -63t71.5 -105.5t25 -148.5q0 -86 -25 -149.5t-71.5 -105.5t-112 -62.5t-146.5 -20.5h-243v676h243zM294 744l-96 151h115l58 -73l58 73
h115l-96 -151h-154z" />
    <glyph glyph-name="dcaron" unicode="&#x10f;" horiz-adv-x="664" 
d="M654 710q6 -19 8 -35.5t2 -33.5q0 -54 -26.5 -93t-73.5 -61l-40 64q23 16 34 39t11 49q0 17 -4 34.5t-11 36.5h100zM495 0h-114l-11 42q-23 -28 -54.5 -43.5t-73.5 -15.5q-38 0 -74.5 14t-65.5 44t-47 76.5t-18 110.5q0 63 18.5 112t52.5 83t82.5 51.5t107.5 17.5
q28 0 52 -3v221h145v-710zM350 362q-23 6 -47 6q-23 0 -44.5 -7t-38 -22.5t-26.5 -41t-10 -62.5q0 -64 26.5 -91.5t67.5 -27.5q19 0 38 5.5t34 19.5v221z" />
    <glyph glyph-name="Dcroat" unicode="&#x110;" horiz-adv-x="739" 
d="M96 287h-78v121h78v268h243q81 0 146.5 -21t112 -63t71.5 -105.5t25 -148.5q0 -86 -25 -149.5t-71.5 -105.5t-112 -62.5t-146.5 -20.5h-243v287zM532 339q0 56 -13.5 95t-39 64t-61 36t-79.5 11h-87v-137h143v-121h-143v-156h87q44 0 79.5 11.5t61 36t39 64t13.5 96.5z
" />
    <glyph glyph-name="dcroat" unicode="&#x111;" horiz-adv-x="568" 
d="M495 639h74v-79h-74v-560h-114l-11 42q-24 -29 -55 -44t-73 -15q-38 0 -74.5 14t-65.5 44t-47 76.5t-18 110.5q0 63 18.5 112t52.5 83t82.5 51.5t107.5 17.5q28 0 52 -3v71h-166v79h166v71h145v-71zM350 362q-23 6 -47 6q-23 0 -44.5 -7t-38 -22.5t-26.5 -41t-10 -62.5
q0 -64 26.5 -91.5t67.5 -27.5q19 0 38 5.5t34 19.5v221z" />
    <glyph glyph-name="Emacron" unicode="&#x112;" horiz-adv-x="612" 
d="M543 545h-299v-138h265v-131h-265v-93q0 -26 9.5 -39t36.5 -13h264v-131h-292q-92 0 -133 46t-41 137v493h455v-131zM457 770h-284v101h284v-101z" />
    <glyph glyph-name="emacron" unicode="&#x113;" horiz-adv-x="545" 
d="M191 188q4 -24 16.5 -39.5t30.5 -24.5t41 -13t47 -4q23 0 47 3t46 7.5t40.5 10.5t32.5 12v-123q-14 -8 -36 -14t-47.5 -10.5t-51.5 -7t-49 -2.5q-54 0 -103.5 13.5t-86.5 43.5t-59 79.5t-22 121.5q0 61 18.5 108t51.5 78.5t77 48t95 16.5q59 0 102 -18.5t71 -48.5
t41.5 -69t13.5 -81v-87h-316zM360 289q-2 52 -27 70.5t-58 18.5q-34 0 -57 -20.5t-28 -68.5h170zM422 584h-284v101h284v-101z" />
    <glyph glyph-name="Ebreve" unicode="&#x114;" horiz-adv-x="612" 
d="M543 545h-299v-138h265v-131h-265v-93q0 -26 9.5 -39t36.5 -13h264v-131h-292q-92 0 -133 46t-41 137v493h455v-131zM239 895q5 -34 25.5 -48t50.5 -14t50.5 14t25.5 48h84q-3 -76 -46.5 -116.5t-113.5 -40.5q-71 0 -114 40.5t-46 116.5h84z" />
    <glyph glyph-name="ebreve" unicode="&#x115;" horiz-adv-x="545" 
d="M191 188q4 -24 16.5 -39.5t30.5 -24.5t41 -13t47 -4q23 0 47 3t46 7.5t40.5 10.5t32.5 12v-123q-14 -8 -36 -14t-47.5 -10.5t-51.5 -7t-49 -2.5q-54 0 -103.5 13.5t-86.5 43.5t-59 79.5t-22 121.5q0 61 18.5 108t51.5 78.5t77 48t95 16.5q59 0 102 -18.5t71 -48.5
t41.5 -69t13.5 -81v-87h-316zM360 289q-2 52 -27 70.5t-58 18.5q-34 0 -57 -20.5t-28 -68.5h170zM204 710q5 -34 25.5 -48t50.5 -14t50.5 14t25.5 48h84q-3 -76 -46.5 -116.5t-113.5 -40.5q-71 0 -114 40.5t-46 116.5h84z" />
    <glyph glyph-name="Edotaccent" unicode="&#x116;" horiz-adv-x="612" 
d="M543 545h-299v-138h265v-131h-265v-93q0 -26 9.5 -39t36.5 -13h264v-131h-292q-92 0 -133 46t-41 137v493h455v-131zM384 754h-138v125h138v-125z" />
    <glyph glyph-name="edotaccent" unicode="&#x117;" horiz-adv-x="545" 
d="M191 188q4 -24 16.5 -39.5t30.5 -24.5t41 -13t47 -4q23 0 47 3t46 7.5t40.5 10.5t32.5 12v-123q-14 -8 -36 -14t-47.5 -10.5t-51.5 -7t-49 -2.5q-54 0 -103.5 13.5t-86.5 43.5t-59 79.5t-22 121.5q0 61 18.5 108t51.5 78.5t77 48t95 16.5q59 0 102 -18.5t71 -48.5
t41.5 -69t13.5 -81v-87h-316zM360 289q-2 52 -27 70.5t-58 18.5q-34 0 -57 -20.5t-28 -68.5h170zM349 568h-138v125h138v-125z" />
    <glyph glyph-name="Eogonek" unicode="&#x118;" horiz-adv-x="612" 
d="M262 0q-92 0 -133 46t-41 137v493h455v-131h-299v-138h265v-131h-265v-93q0 -26 9.5 -39t36.5 -13h264v-131h-19q-29 -23 -47.5 -45t-18.5 -54q0 -18 10.5 -27t27.5 -9q23 0 47 13v-91q-17 -8 -35 -11.5t-40 -3.5q-51 0 -82.5 27t-31.5 78q0 41 18 72.5t50 50.5h-171z
" />
    <glyph glyph-name="eogonek" unicode="&#x119;" horiz-adv-x="545" 
d="M191 188q4 -24 16.5 -39.5t30.5 -24.5t41 -13t47 -4q23 0 47 3t46 7.5t40.5 10.5t32.5 12v-123q-18 -11 -47 -17q-30 -23 -48 -45t-18 -54q0 -18 10 -27t27 -9q14 0 25.5 3.5t22.5 9.5v-91q-17 -8 -35 -11.5t-40 -3.5q-52 0 -83 27t-31 78q0 32 12 59t33 47h-12
q-54 0 -103.5 13.5t-86.5 43.5t-59 79.5t-22 121.5q0 61 18.5 108t51.5 78.5t77 48t95 16.5q59 0 102 -18.5t71 -48.5t41.5 -69t13.5 -81v-87h-316zM360 289q-2 52 -27 70.5t-58 18.5q-34 0 -57 -20.5t-28 -68.5h170z" />
    <glyph glyph-name="Ecaron" unicode="&#x11a;" horiz-adv-x="612" 
d="M543 545h-299v-138h265v-131h-265v-93q0 -26 9.5 -39t36.5 -13h264v-131h-292q-92 0 -133 46t-41 137v493h455v-131zM238 744l-96 151h115l58 -73l58 73h115l-96 -151h-154z" />
    <glyph glyph-name="ecaron" unicode="&#x11b;" horiz-adv-x="545" 
d="M191 188q4 -24 16.5 -39.5t30.5 -24.5t41 -13t47 -4q23 0 47 3t46 7.5t40.5 10.5t32.5 12v-123q-14 -8 -36 -14t-47.5 -10.5t-51.5 -7t-49 -2.5q-54 0 -103.5 13.5t-86.5 43.5t-59 79.5t-22 121.5q0 61 18.5 108t51.5 78.5t77 48t95 16.5q59 0 102 -18.5t71 -48.5
t41.5 -69t13.5 -81v-87h-316zM360 289q-2 52 -27 70.5t-58 18.5q-34 0 -57 -20.5t-28 -68.5h170zM203 559l-96 151h115l58 -73l58 73h115l-96 -151h-154z" />
    <glyph glyph-name="Gcircumflex" unicode="&#x11c;" horiz-adv-x="785" 
d="M704 63q-45 -32 -120.5 -56t-171.5 -24q-72 0 -138.5 20t-117 63t-81 110.5t-30.5 161.5q0 99 33 166.5t88 109.5t125.5 60.5t145.5 18.5q73 0 135 -12.5t113 -35.5v-140q-42 20 -106 37t-139 17q-45 0 -87 -10t-74.5 -35.5t-52 -68t-19.5 -107.5q0 -62 18.5 -104.5
t48.5 -68.5t68.5 -37.5t79.5 -11.5q44 0 75 6.5t55 17.5v126h-153v136h305v-339zM470 895l96 -151h-115l-58 73l-58 -73h-115l96 151h154z" />
    <glyph glyph-name="gcircumflex" unicode="&#x11d;" horiz-adv-x="568" 
d="M495 17q0 -58 -17.5 -100t-50 -69.5t-77.5 -41t-100 -13.5q-62 0 -108.5 11t-78.5 27v136q33 -20 78 -35t94 -15q25 0 46 4.5t36 16t23.5 30t8.5 46.5v21q-17 -16 -45 -25.5t-62 -9.5q-38 0 -74.5 12.5t-65.5 40.5t-47 73t-18 109q0 59 18.5 106.5t52.5 81t82.5 51.5
t107.5 18t104 -9t93 -25v-441zM350 362q-24 6 -48 6q-23 0 -44.5 -6.5t-38 -21t-26 -38t-9.5 -58.5q0 -61 25.5 -89t69.5 -28q18 0 37.5 6t33.5 19v210zM361 710l96 -151h-115l-58 73l-58 -73h-115l96 151h154z" />
    <glyph glyph-name="Gbreve" unicode="&#x11e;" horiz-adv-x="785" 
d="M704 63q-45 -32 -120.5 -56t-171.5 -24q-72 0 -138.5 20t-117 63t-81 110.5t-30.5 161.5q0 99 33 166.5t88 109.5t125.5 60.5t145.5 18.5q73 0 135 -12.5t113 -35.5v-140q-42 20 -106 37t-139 17q-45 0 -87 -10t-74.5 -35.5t-52 -68t-19.5 -107.5q0 -62 18.5 -104.5
t48.5 -68.5t68.5 -37.5t79.5 -11.5q44 0 75 6.5t55 17.5v126h-153v136h305v-339zM317 895q5 -34 25.5 -48t50.5 -14t50.5 14t25.5 48h84q-3 -76 -46.5 -116.5t-113.5 -40.5q-71 0 -114 40.5t-46 116.5h84z" />
    <glyph glyph-name="gbreve" unicode="&#x11f;" horiz-adv-x="568" 
d="M495 17q0 -58 -17.5 -100t-50 -69.5t-77.5 -41t-100 -13.5q-62 0 -108.5 11t-78.5 27v136q33 -20 78 -35t94 -15q25 0 46 4.5t36 16t23.5 30t8.5 46.5v21q-17 -16 -45 -25.5t-62 -9.5q-38 0 -74.5 12.5t-65.5 40.5t-47 73t-18 109q0 59 18.5 106.5t52.5 81t82.5 51.5
t107.5 18t104 -9t93 -25v-441zM350 362q-24 6 -48 6q-23 0 -44.5 -6.5t-38 -21t-26 -38t-9.5 -58.5q0 -61 25.5 -89t69.5 -28q18 0 37.5 6t33.5 19v210zM208 710q5 -34 25.5 -48t50.5 -14t50.5 14t25.5 48h84q-3 -76 -46.5 -116.5t-113.5 -40.5q-71 0 -114 40.5t-46 116.5
h84z" />
    <glyph glyph-name="Gdotaccent" unicode="&#x120;" horiz-adv-x="785" 
d="M704 63q-45 -32 -120.5 -56t-171.5 -24q-72 0 -138.5 20t-117 63t-81 110.5t-30.5 161.5q0 99 33 166.5t88 109.5t125.5 60.5t145.5 18.5q73 0 135 -12.5t113 -35.5v-140q-42 20 -106 37t-139 17q-45 0 -87 -10t-74.5 -35.5t-52 -68t-19.5 -107.5q0 -62 18.5 -104.5
t48.5 -68.5t68.5 -37.5t79.5 -11.5q44 0 75 6.5t55 17.5v126h-153v136h305v-339zM462 754h-138v125h138v-125z" />
    <glyph glyph-name="gdotaccent" unicode="&#x121;" horiz-adv-x="568" 
d="M495 17q0 -58 -17.5 -100t-50 -69.5t-77.5 -41t-100 -13.5q-62 0 -108.5 11t-78.5 27v136q33 -20 78 -35t94 -15q25 0 46 4.5t36 16t23.5 30t8.5 46.5v21q-17 -16 -45 -25.5t-62 -9.5q-38 0 -74.5 12.5t-65.5 40.5t-47 73t-18 109q0 59 18.5 106.5t52.5 81t82.5 51.5
t107.5 18t104 -9t93 -25v-441zM350 362q-24 6 -48 6q-23 0 -44.5 -6.5t-38 -21t-26 -38t-9.5 -58.5q0 -61 25.5 -89t69.5 -28q18 0 37.5 6t33.5 19v210zM353 568h-138v125h138v-125z" />
    <glyph glyph-name="Gcommaaccent" unicode="&#x122;" horiz-adv-x="785" 
d="M704 63q-45 -32 -120.5 -56t-171.5 -24q-72 0 -138.5 20t-117 63t-81 110.5t-30.5 161.5q0 99 33 166.5t88 109.5t125.5 60.5t145.5 18.5q73 0 135 -12.5t113 -35.5v-140q-42 20 -106 37t-139 17q-45 0 -87 -10t-74.5 -35.5t-52 -68t-19.5 -107.5q0 -62 18.5 -104.5
t48.5 -68.5t68.5 -37.5t79.5 -11.5q44 0 75 6.5t55 17.5v126h-153v136h305v-339zM454 -61q10 -29 10 -56q0 -57 -37 -94.5t-97 -48.5l-32 80q24 11 39.5 26.5t15.5 41.5t-11 51h112z" />
    <glyph glyph-name="gcommaaccent" unicode="&#x123;" horiz-adv-x="568" 
d="M495 17q0 -58 -17.5 -100t-50 -69.5t-77.5 -41t-100 -13.5q-62 0 -108.5 11t-78.5 27v136q33 -20 78 -35t94 -15q25 0 46 4.5t36 16t23.5 30t8.5 46.5v21q-17 -16 -45 -25.5t-62 -9.5q-38 0 -74.5 12.5t-65.5 40.5t-47 73t-18 109q0 59 18.5 106.5t52.5 81t82.5 51.5
t107.5 18t104 -9t93 -25v-441zM350 362q-24 6 -48 6q-23 0 -44.5 -6.5t-38 -21t-26 -38t-9.5 -58.5q0 -61 25.5 -89t69.5 -28q18 0 37.5 6t33.5 19v210zM232.02 545.996q-9.99902 28.998 -9.99902 55.9971q0 56.9961 36.9971 94.4941q36.998 37.4971 96.9941 48.4971
l31.998 -79.9951q-23.998 -11 -39.4971 -26.499t-15.499 -41.4971t10.999 -50.9971h-111.993z" />
    <glyph glyph-name="Hcircumflex" unicode="&#x124;" horiz-adv-x="793" 
d="M697 0h-156v277h-289v-277h-156v676h156v-263h289v263h156v-676zM473 895l96 -151h-115l-58 73l-58 -73h-115l96 151h154z" />
    <glyph glyph-name="hcircumflex" unicode="&#x125;" horiz-adv-x="594" 
d="M74 710h145v-264q26 22 63 34t73 12t67 -11t54 -35t36.5 -61.5t13.5 -89.5v-295h-144v284q0 41 -22.5 57.5t-52.5 16.5q-29 0 -50.5 -9t-37.5 -19v-330h-145v710zM225 895l96 -151h-115l-58 73l-58 -73h-115l96 151h154z" />
    <glyph glyph-name="Hbar" unicode="&#x126;" horiz-adv-x="793" 
d="M697 592h78v-85h-78v-507h-156v277h-289v-277h-156v507h-78v85h78v84h156v-84h289v84h156v-84zM541 413v94h-289v-94h289z" />
    <glyph glyph-name="hbar" unicode="&#x127;" horiz-adv-x="594" 
d="M0 639h74v71h144v-71h166v-80h-166v-114q27 22 64 34.5t72 12.5q36 0 67.5 -11t54.5 -35t36.5 -61.5t13.5 -89.5v-295h-144v284q0 41 -22.5 57.5t-52.5 16.5q-29 0 -50 -9t-38 -19v-330h-145v559h-74v80z" />
    <glyph glyph-name="Itilde" unicode="&#x128;" horiz-adv-x="348" 
d="M252 0h-156v676h156v-676zM246 742q-24 0 -43 7.5t-35 17t-30.5 17t-27.5 7.5q-14 0 -19 -12t-5 -35h-92q0 30 5.5 57.5t18 49t33.5 34t53 12.5q24 0 43 -7.5t35 -17t30 -17t28 -7.5t19 12t5 35h92q0 -30 -5.5 -57.5t-18 -49t-34 -34t-52.5 -12.5z" />
    <glyph glyph-name="itilde" unicode="&#x129;" horiz-adv-x="291" 
d="M218 0h-145v475h145v-475zM217 557q-24 0 -43 7.5t-35 17t-30.5 17t-27.5 7.5q-14 0 -19 -12t-5 -35h-92q0 30 5.5 57.5t18 49t33.5 34t53 12.5q24 0 43 -7.5t35 -17t30 -17t28 -7.5t19 12t5 35h92q0 -30 -5.5 -57.5t-18 -49t-34 -34t-52.5 -12.5z" />
    <glyph glyph-name="Imacron" unicode="&#x12a;" horiz-adv-x="348" 
d="M252 0h-156v676h156v-676zM317 768h-284v101h284v-101z" />
    <glyph glyph-name="imacron" unicode="&#x12b;" horiz-adv-x="291" 
d="M218 0h-145v475h145v-475zM288 584h-284v101h284v-101z" />
    <glyph glyph-name="Ibreve" unicode="&#x12c;" horiz-adv-x="348" 
d="M252 0h-156v676h156v-676zM99 895q5 -34 25.5 -48t50.5 -14t50.5 14t25.5 48h84q-3 -76 -46.5 -116.5t-113.5 -40.5q-71 0 -114 40.5t-46 116.5h84z" />
    <glyph glyph-name="ibreve" unicode="&#x12d;" horiz-adv-x="291" 
d="M218 0h-145v475h145v-475zM70 710q5 -34 25.5 -48t50.5 -14t50.5 14t25.5 48h84q-3 -76 -46.5 -116.5t-113.5 -40.5q-71 0 -114 40.5t-46 116.5h84z" />
    <glyph glyph-name="Iogonek" unicode="&#x12e;" horiz-adv-x="348" 
d="M96 0v676h156v-676q-30 -23 -48 -45t-18 -54q0 -18 10.5 -27t27.5 -9q23 0 47 13v-91q-17 -8 -35 -11.5t-40 -3.5q-52 0 -83 27t-31 78q0 41 18 72.5t50 50.5h-54z" />
    <glyph glyph-name="iogonek" unicode="&#x12f;" horiz-adv-x="291" 
d="M73 0v475h145v-475q-30 -23 -48.5 -45t-18.5 -54q0 -18 10.5 -27t27.5 -9q14 0 25 3.5t22 9.5v-91q-17 -8 -35 -11.5t-40 -3.5q-51 0 -82 27t-31 78q0 41 18 72.5t50 50.5h-43zM218 564h-145v131h145v-131z" />
    <glyph glyph-name="Idotaccent" unicode="&#x130;" horiz-adv-x="348" 
d="M252 0h-156v676h156v-676zM244 754h-138v125h138v-125z" />
    <glyph glyph-name="dotlessi" unicode="&#x131;" horiz-adv-x="291" 
d="M218 0h-145v475h145v-475z" />
    <glyph glyph-name="Jcircumflex" unicode="&#x134;" horiz-adv-x="433" 
d="M345 200q0 -112 -50.5 -164.5t-144.5 -52.5q-31 0 -61 6t-56 18v135q21 -11 46.5 -18.5t47.5 -7.5q35 0 48.5 18t13.5 60v482h156v-476zM345 895l96 -151h-115l-58 73l-58 -73h-115l96 151h154z" />
    <glyph glyph-name="jcircumflex" unicode="&#x135;" horiz-adv-x="291" 
d="M218 475v-505q0 -38 -8.5 -70.5t-26 -56t-44.5 -37t-63 -13.5q-21 0 -44 4t-45 13v129q12 -6 24.5 -9.5t26.5 -3.5q18 0 26.5 9.5t8.5 34.5v505h145zM222 710l96 -151h-115l-58 73l-58 -73h-115l96 151h154z" />
    <glyph glyph-name="Kcommaaccent" unicode="&#x136;" horiz-adv-x="693" 
d="M394 353l299 -353h-200l-241 287v-287h-156v676h156v-279l252 279h182zM429 -61q10 -29 10 -56q0 -57 -37 -94.5t-97 -48.5l-32 80q24 11 39.5 26.5t15.5 41.5t-11 51h112z" />
    <glyph glyph-name="kcommaaccent" unicode="&#x137;" horiz-adv-x="547" 
d="M350 269l199 -269h-177l-154 213v-213h-145v710h145v-407l159 172h170zM363 -61q10 -29 10 -56q0 -57 -37 -94.5t-97 -48.5l-32 80q24 11 39.5 26.5t15.5 41.5t-11 51h112z" />
    <glyph glyph-name="Lacute" unicode="&#x139;" horiz-adv-x="552" 
d="M244 676v-493q0 -26 9.5 -39t36.5 -13h247v-131h-275q-92 0 -133 46t-41 137v493h156zM187 895h158l-124 -151h-107z" />
    <glyph glyph-name="lacute" unicode="&#x13a;" horiz-adv-x="316" 
d="M210 160q0 -25 8.5 -34.5t26.5 -9.5q14 0 26.5 3.5t24.5 9.5v-130q-22 -9 -45 -12.5t-44 -3.5q-39 0 -66.5 12t-44 34t-24 53.5t-7.5 69.5v558h145v-550zM157 896h158l-124 -151h-107z" />
    <glyph glyph-name="Lcommaaccent" unicode="&#x13b;" horiz-adv-x="552" 
d="M244 676v-493q0 -26 9.5 -39t36.5 -13h247v-131h-275q-92 0 -133 46t-41 137v493h156zM395 -61q10 -29 10 -56q0 -57 -37 -94.5t-97 -48.5l-32 80q24 11 39.5 26.5t15.5 41.5t-11 51h112z" />
    <glyph glyph-name="lcommaaccent" unicode="&#x13c;" horiz-adv-x="316" 
d="M210 160q0 -25 8.5 -34.5t26.5 -9.5q14 0 26.5 3.5t24.5 9.5v-130q-22 -9 -45 -12.5t-44 -3.5q-39 0 -66.5 12t-44 34t-24 53.5t-7.5 69.5v558h145v-550zM246 -61q10 -29 10 -56q0 -57 -37 -94.5t-97 -48.5l-32 80q24 11 39.5 26.5t15.5 41.5t-11 51h112z" />
    <glyph glyph-name="Lcaron" unicode="&#x13d;" horiz-adv-x="552" 
d="M457 676q8 -21 9.5 -40t1.5 -37q0 -61 -29 -104t-81 -68l-46 71q26 18 38 43.5t12 55.5q0 18 -4 38t-12 41h111zM244 676v-493q0 -26 9.5 -39t36.5 -13h247v-131h-275q-92 0 -133 46t-41 137v493h156z" />
    <glyph glyph-name="lcaron" unicode="&#x13e;" horiz-adv-x="380" 
d="M370 710q6 -19 8 -35.5t2 -33.5q0 -54 -26.5 -93t-73.5 -61l-40 64q23 16 34 39t11 49q0 17 -4 34.5t-11 36.5h100zM210 160q0 -25 8.5 -34.5t26.5 -9.5q14 0 26.5 3.5t24.5 9.5v-130q-22 -9 -45 -12.5t-44 -3.5q-39 0 -66.5 12t-44 34t-24 53.5t-7.5 69.5v558h145v-550z
" />
    <glyph glyph-name="Lslash" unicode="&#x141;" horiz-adv-x="558" 
d="M250 676v-222l147 62v-114l-147 -62v-157q0 -26 9.5 -39t36.5 -13h247v-131h-275q-92 0 -133.5 46t-41.5 137v92l-78 -32v114l78 32v287h157z" />
    <glyph glyph-name="lslash" unicode="&#x142;" horiz-adv-x="316" 
d="M210 486l66 32v-120l-66 -32v-206q0 -25 8.5 -34.5t26.5 -9.5q14 0 26.5 3.5t24.5 9.5v-130q-22 -9 -45 -12.5t-44 -3.5q-39 0 -66.5 12t-44 34t-24 53.5t-7.5 69.5v143l-58 -28v120l58 28v295h145v-224z" />
    <glyph glyph-name="Nacute" unicode="&#x143;" horiz-adv-x="783" 
d="M687 0h-133l-306 418v-418h-152v676h133l306 -418v418h152v-676zM422 895h158l-124 -151h-107z" />
    <glyph glyph-name="nacute" unicode="&#x144;" horiz-adv-x="593" 
d="M211 439q26 26 65.5 39.5t77.5 13.5q36 0 67 -11t54 -35t36.5 -61.5t13.5 -89.5v-295h-144v284q0 41 -22.5 57.5t-52.5 16.5q-29 0 -50.5 -9t-37.5 -19v-330h-145v475h129zM309 710h158l-124 -151h-107z" />
    <glyph glyph-name="Ncommaaccent" unicode="&#x145;" horiz-adv-x="783" 
d="M687 0h-133l-306 418v-418h-152v676h133l306 -418v418h152v-676zM464 -61q10 -29 10 -56q0 -57 -37 -94.5t-97 -48.5l-32 80q24 11 39.5 26.5t15.5 41.5t-11 51h112z" />
    <glyph glyph-name="ncommaaccent" unicode="&#x146;" horiz-adv-x="593" 
d="M211 439q26 26 65.5 39.5t77.5 13.5q36 0 67 -11t54 -35t36.5 -61.5t13.5 -89.5v-295h-144v284q0 41 -22.5 57.5t-52.5 16.5q-29 0 -50.5 -9t-37.5 -19v-330h-145v475h129zM346 -61q10 -29 10 -56q0 -57 -37 -94.5t-97 -48.5l-32 80q24 11 39.5 26.5t15.5 41.5t-11 51
h112z" />
    <glyph glyph-name="Ncaron" unicode="&#x147;" horiz-adv-x="783" 
d="M687 0h-133l-306 418v-418h-152v676h133l306 -418v418h152v-676zM314 744l-96 151h115l58 -73l58 73h115l-96 -151h-154z" />
    <glyph glyph-name="ncaron" unicode="&#x148;" horiz-adv-x="593" 
d="M211 439q26 26 65.5 39.5t77.5 13.5q36 0 67 -11t54 -35t36.5 -61.5t13.5 -89.5v-295h-144v284q0 41 -22.5 57.5t-52.5 16.5q-29 0 -50.5 -9t-37.5 -19v-330h-145v475h129zM217 559l-96 151h115l58 -73l58 73h115l-96 -151h-154z" />
    <glyph glyph-name="Eng" unicode="&#x14a;" horiz-adv-x="783" 
d="M687 26q0 -112 -48 -164t-142 -52q-31 0 -61 6t-56 18v135q21 -11 46.5 -18.5t46.5 -7.5q35 0 48.5 17.5t13.5 54.5v10l-287 393v-418h-152v676h133l306 -418v418h152v-650z" />
    <glyph glyph-name="eng" unicode="&#x14b;" horiz-adv-x="593" 
d="M202 475l9 -36q26 26 65.5 39.5t77.5 13.5q36 0 67 -11t54 -35t36.5 -61.5t13.5 -89.5v-325q0 -38 -7.5 -70.5t-24 -56t-43.5 -37t-67 -13.5q-20 0 -43 4t-45 13v129q12 -6 24 -9.5t27 -3.5q18 0 26.5 9.5t8.5 34.5v311q0 41 -22.5 57.5t-52.5 16.5q-29 0 -50.5 -7.5
t-37.5 -17.5v-330h-145v475h129z" />
    <glyph glyph-name="Omacron" unicode="&#x14c;" horiz-adv-x="807" 
d="M404 693q80 0 146 -24.5t113 -70t73 -111.5t26 -149t-26 -149t-73 -112t-113 -70t-146 -24t-146.5 24t-113.5 70t-73 112t-26 149t26 149t73 111.5t113.5 70t146.5 24.5zM404 559q-97 0 -147 -60.5t-50 -160.5q0 -50 12.5 -91t37.5 -70t62 -45t85 -16t84.5 16t61.5 45
t37.5 70t12.5 91t-12.5 90.5t-37.5 69.5t-61.5 45t-84.5 16zM546 770h-284v101h284v-101z" />
    <glyph glyph-name="omacron" unicode="&#x14d;" 
d="M289 492q56 0 102.5 -17t79.5 -49.5t51.5 -79.5t18.5 -108t-18.5 -108.5t-51.5 -80t-79.5 -49.5t-102.5 -17t-102.5 17t-79.5 49.5t-51.5 80t-18.5 108.5t18.5 108t51.5 79.5t79.5 49.5t102.5 17zM289 368q-47 0 -75.5 -34.5t-28.5 -95.5t28.5 -96t75.5 -35t75.5 35
t28.5 96t-28.5 95.5t-75.5 34.5zM431 584h-284v101h284v-101z" />
    <glyph glyph-name="Obreve" unicode="&#x14e;" horiz-adv-x="807" 
d="M404 693q80 0 146 -24.5t113 -70t73 -111.5t26 -149t-26 -149t-73 -112t-113 -70t-146 -24t-146.5 24t-113.5 70t-73 112t-26 149t26 149t73 111.5t113.5 70t146.5 24.5zM404 559q-97 0 -147 -60.5t-50 -160.5q0 -50 12.5 -91t37.5 -70t62 -45t85 -16t84.5 16t61.5 45
t37.5 70t12.5 91t-12.5 90.5t-37.5 69.5t-61.5 45t-84.5 16zM328 895q5 -34 25.5 -48t50.5 -14t50.5 14t25.5 48h84q-3 -76 -46.5 -116.5t-113.5 -40.5q-71 0 -114 40.5t-46 116.5h84z" />
    <glyph glyph-name="obreve" unicode="&#x14f;" 
d="M289 492q56 0 102.5 -17t79.5 -49.5t51.5 -79.5t18.5 -108t-18.5 -108.5t-51.5 -80t-79.5 -49.5t-102.5 -17t-102.5 17t-79.5 49.5t-51.5 80t-18.5 108.5t18.5 108t51.5 79.5t79.5 49.5t102.5 17zM289 368q-47 0 -75.5 -34.5t-28.5 -95.5t28.5 -96t75.5 -35t75.5 35
t28.5 96t-28.5 95.5t-75.5 34.5zM213 710q5 -34 25.5 -48t50.5 -14t50.5 14t25.5 48h84q-3 -76 -46.5 -116.5t-113.5 -40.5q-71 0 -114 40.5t-46 116.5h84z" />
    <glyph glyph-name="Ohungarumlaut" unicode="&#x150;" horiz-adv-x="807" 
d="M404 693q80 0 146 -24.5t113 -70t73 -111.5t26 -149t-26 -149t-73 -112t-113 -70t-146 -24t-146.5 24t-113.5 70t-73 112t-26 149t26 149t73 111.5t113.5 70t146.5 24.5zM404 559q-97 0 -147 -60.5t-50 -160.5q0 -50 12.5 -91t37.5 -70t62 -45t85 -16t84.5 16t61.5 45
t37.5 70t12.5 91t-12.5 90.5t-37.5 69.5t-61.5 45t-84.5 16zM331 895h125l-80 -151h-94zM506 895h132l-114 -151h-99z" />
    <glyph glyph-name="ohungarumlaut" unicode="&#x151;" 
d="M289 492q56 0 102.5 -17t79.5 -49.5t51.5 -79.5t18.5 -108t-18.5 -108.5t-51.5 -80t-79.5 -49.5t-102.5 -17t-102.5 17t-79.5 49.5t-51.5 80t-18.5 108.5t18.5 108t51.5 79.5t79.5 49.5t102.5 17zM289 368q-47 0 -75.5 -34.5t-28.5 -95.5t28.5 -96t75.5 -35t75.5 35
t28.5 96t-28.5 95.5t-75.5 34.5zM220 710h125l-80 -151h-94zM395 710h132l-114 -151h-99z" />
    <glyph glyph-name="OE" unicode="&#x152;" horiz-adv-x="1140" 
d="M1071 545h-299v-138h265v-131h-265v-93q0 -26 9.5 -39t36.5 -13h264v-131h-292q-60 0 -97 20t-55 60q-35 -45 -96.5 -71t-137.5 -26q-80 0 -146.5 24.5t-113.5 70.5t-73 112t-26 149t26 149t73 111.5t113.5 69.5t146.5 24q66 0 123.5 -20.5t92.5 -55.5v59h451v-131z
M600 339q0 100 -50 160t-146 60q-97 0 -147 -60t-50 -160q0 -50 12.5 -91t37.5 -70.5t62 -45.5t85 -16t84.5 16t61.5 45.5t37.5 70.5t12.5 91z" />
    <glyph glyph-name="oe" unicode="&#x153;" horiz-adv-x="898" 
d="M543 188q4 -24 16.5 -39.5t30.5 -24.5t41 -13t47 -4q23 0 47 3t46 7.5t40.5 10.5t32.5 12v-123q-14 -8 -36 -14t-47.5 -10.5t-51.5 -7t-49 -2.5q-60 0 -111.5 15.5t-88.5 52.5q-32 -33 -73 -50.5t-98 -17.5q-56 0 -102.5 17t-79.5 49.5t-51.5 80t-18.5 108.5t18.5 108
t51.5 79.5t79.5 49.5t102.5 17q57 0 97 -18t72 -50q32 34 76 51t97 17q59 0 102 -18.5t71 -48.5t41.5 -69t13.5 -81v-87h-316zM393 238q0 61 -28.5 95.5t-75.5 34.5t-75.5 -34.5t-28.5 -95.5t28.5 -96t75.5 -35t75.5 35t28.5 96zM711 289q-1 52 -26 70.5t-59 18.5
q-33 0 -56.5 -20.5t-28.5 -68.5h170z" />
    <glyph glyph-name="Racute" unicode="&#x154;" horiz-adv-x="678" 
d="M252 0h-156v676h258q62 0 113 -14.5t87.5 -43t56.5 -70.5t20 -96q0 -76 -39 -124.5t-109 -68.5l159 -259h-176l-132 226h-82v-226zM252 357h92q24 0 46.5 4t40 14.5t27.5 28.5t10 47t-10 47t-27.5 28.5t-40 14.5t-46.5 4h-92v-188zM365 895h158l-124 -151h-107z" />
    <glyph glyph-name="racute" unicode="&#x155;" horiz-adv-x="388" 
d="M367 339q-36 0 -76.5 -8t-72.5 -31v-300h-145v475h129l9 -60q14 13 30 26.5t35 24.5t41.5 18.5t49.5 7.5v-153zM210 710h158l-124 -151h-107z" />
    <glyph glyph-name="Rcommaaccent" unicode="&#x156;" horiz-adv-x="678" 
d="M252 0h-156v676h258q62 0 113 -14.5t87.5 -43t56.5 -70.5t20 -96q0 -76 -39 -124.5t-109 -68.5l159 -259h-176l-132 226h-82v-226zM252 357h92q24 0 46.5 4t40 14.5t27.5 28.5t10 47t-10 47t-27.5 28.5t-40 14.5t-46.5 4h-92v-188zM406 -61q10 -29 10 -56
q0 -57 -37 -94.5t-97 -48.5l-32 80q24 11 39.5 26.5t15.5 41.5t-11 51h112z" />
    <glyph glyph-name="rcommaaccent" unicode="&#x157;" horiz-adv-x="388" 
d="M367 339q-36 0 -76.5 -8t-72.5 -31v-300h-145v475h129l9 -60q14 13 30 26.5t35 24.5t41.5 18.5t49.5 7.5v-153zM194 -61q10 -29 10 -56q0 -57 -37 -94.5t-97 -48.5l-32 80q24 11 39.5 26.5t15.5 41.5t-11 51h112z" />
    <glyph glyph-name="Rcaron" unicode="&#x158;" horiz-adv-x="678" 
d="M252 0h-156v676h258q62 0 113 -14.5t87.5 -43t56.5 -70.5t20 -96q0 -76 -39 -124.5t-109 -68.5l159 -259h-176l-132 226h-82v-226zM252 357h92q24 0 46.5 4t40 14.5t27.5 28.5t10 47t-10 47t-27.5 28.5t-40 14.5t-46.5 4h-92v-188zM280 744l-96 151h115l58 -73l58 73h115
l-96 -151h-154z" />
    <glyph glyph-name="rcaron" unicode="&#x159;" horiz-adv-x="388" 
d="M367 339q-36 0 -76.5 -8t-72.5 -31v-300h-145v475h129l9 -60q14 13 30 26.5t35 24.5t41.5 18.5t49.5 7.5v-153zM147 559l-96 151h115l58 -73l58 73h115l-96 -151h-154z" />
    <glyph glyph-name="Sacute" unicode="&#x15a;" horiz-adv-x="565" 
d="M492 522q-38 20 -78.5 28.5t-87.5 8.5q-20 0 -39 -3t-33.5 -10.5t-23.5 -21t-9 -33.5q0 -25 21.5 -39.5t54 -27t70.5 -25.5t70.5 -36.5t54 -60t21.5 -94.5q0 -61 -21 -104t-56 -70t-80 -39.5t-92 -12.5q-56 0 -107.5 12.5t-89.5 31.5v136q36 -19 85.5 -32.5t97.5 -13.5
q43 0 71.5 15.5t28.5 57.5q0 28 -21.5 44.5t-54 29.5t-70 26.5t-70 36.5t-54 59.5t-21.5 95.5q0 51 19 90.5t53.5 66.5t83 41t107.5 14q51 0 94.5 -8t75.5 -22v-141v0zM298 895h158l-124 -151h-107z" />
    <glyph glyph-name="sacute" unicode="&#x15b;" horiz-adv-x="486" 
d="M422 346q-32 16 -75.5 24t-81.5 8q-33 0 -56.5 -8.5t-23.5 -29.5q0 -17 19 -24t47.5 -11.5t62 -10t62 -20.5t47.5 -43t19 -77q0 -45 -17 -77.5t-46.5 -53t-69 -30.5t-84.5 -10q-55 0 -97 9.5t-78 26.5v127q45 -23 87.5 -33t86.5 -10q38 0 55.5 9.5t17.5 30.5
q0 17 -19 24.5t-47.5 12.5t-61.5 11t-61.5 20.5t-47.5 41t-19 72.5q0 45 17.5 76.5t47.5 52t70.5 29.5t86.5 9q45 0 86.5 -6t72.5 -17v-123zM245 710h158l-124 -151h-107z" />
    <glyph glyph-name="Scircumflex" unicode="&#x15c;" horiz-adv-x="565" 
d="M492 522q-38 20 -78.5 28.5t-87.5 8.5q-20 0 -39 -3t-33.5 -10.5t-23.5 -21t-9 -33.5q0 -25 21.5 -39.5t54 -27t70.5 -25.5t70.5 -36.5t54 -60t21.5 -94.5q0 -61 -21 -104t-56 -70t-80 -39.5t-92 -12.5q-56 0 -107.5 12.5t-89.5 31.5v136q36 -19 85.5 -32.5t97.5 -13.5
q43 0 71.5 15.5t28.5 57.5q0 28 -21.5 44.5t-54 29.5t-70 26.5t-70 36.5t-54 59.5t-21.5 95.5q0 51 19 90.5t53.5 66.5t83 41t107.5 14q51 0 94.5 -8t75.5 -22v-141v0zM362 895l96 -151h-115l-58 73l-58 -73h-115l96 151h154z" />
    <glyph glyph-name="scircumflex" unicode="&#x15d;" horiz-adv-x="486" 
d="M422 346q-32 16 -75.5 24t-81.5 8q-33 0 -56.5 -8.5t-23.5 -29.5q0 -17 19 -24t47.5 -11.5t62 -10t62 -20.5t47.5 -43t19 -77q0 -45 -17 -77.5t-46.5 -53t-69 -30.5t-84.5 -10q-55 0 -97 9.5t-78 26.5v127q45 -23 87.5 -33t86.5 -10q38 0 55.5 9.5t17.5 30.5
q0 17 -19 24.5t-47.5 12.5t-61.5 11t-61.5 20.5t-47.5 41t-19 72.5q0 45 17.5 76.5t47.5 52t70.5 29.5t86.5 9q45 0 86.5 -6t72.5 -17v-123zM318 710l96 -151h-115l-58 73l-58 -73h-115l96 151h154z" />
    <glyph glyph-name="Scedilla" unicode="&#x15e;" horiz-adv-x="565" 
d="M212 -143q11 -5 27 -9.5t30 -4.5q17 0 28.5 5t11.5 22t-12 22t-29 5h-27l27 85q-59 0 -111 12.5t-90 31.5v136q36 -19 85.5 -32.5t97.5 -13.5q43 0 71.5 15.5t28.5 57.5q0 28 -21.5 44.5t-54 29.5t-70 26.5t-70 36.5t-54 59.5t-21.5 95.5q0 51 19 90.5t53.5 66.5t83 41
t107.5 14q51 0 94.5 -8t75.5 -22v-141q-38 20 -78.5 28.5t-87.5 8.5q-20 0 -39 -3t-33.5 -10.5t-23.5 -21t-9 -33.5q0 -25 21.5 -39.5t54 -27t70.5 -25.5t70.5 -36.5t54 -60t21.5 -94.5q0 -47 -13 -83t-35.5 -62.5t-52.5 -43.5t-64 -26l-11 -49q31 -5 55 -25t24 -63
q0 -41 -33.5 -66t-99.5 -25q-15 0 -36 3t-35 11v78z" />
    <glyph glyph-name="scedilla" unicode="&#x15f;" horiz-adv-x="486" 
d="M422 346q-32 16 -75.5 24t-81.5 8q-33 0 -56.5 -8.5t-23.5 -29.5q0 -17 19 -24t47.5 -11.5t62 -10t62 -20.5t47.5 -43t19 -77q0 -36 -11 -63.5t-30.5 -48t-47 -34t-59.5 -19.5l-12 -45q16 -3 30 -8.5t25 -16t17.5 -26t6.5 -37.5q0 -41 -33.5 -66t-98.5 -25q-16 0 -36.5 3
t-34.5 11v78q11 -5 27 -9.5t30 -4.5q17 0 28.5 5t11.5 22t-12.5 22t-29.5 5h-27l27 86q-51 2 -90 11t-73 25v127q45 -23 87.5 -33t86.5 -10q32 0 52.5 8t20.5 32q0 17 -19 24.5t-47.5 12.5t-61.5 10.5t-61.5 20t-47.5 41.5t-19 73q0 45 17.5 76.5t47.5 52t70.5 29.5t86.5 9
q45 0 86.5 -6t72.5 -17v-123z" />
    <glyph glyph-name="Scaron" unicode="&#x160;" horiz-adv-x="565" 
d="M492 522q-38 20 -78.5 28.5t-87.5 8.5q-20 0 -39 -3t-33.5 -10.5t-23.5 -21t-9 -33.5q0 -25 21.5 -39.5t54 -27t70.5 -25.5t70.5 -36.5t54 -60t21.5 -94.5q0 -61 -21 -104t-56 -70t-80 -39.5t-92 -12.5q-56 0 -107.5 12.5t-89.5 31.5v136q36 -19 85.5 -32.5t97.5 -13.5
q43 0 71.5 15.5t28.5 57.5q0 28 -21.5 44.5t-54 29.5t-70 26.5t-70 36.5t-54 59.5t-21.5 95.5q0 51 19 90.5t53.5 66.5t83 41t107.5 14q51 0 94.5 -8t75.5 -22v-141v0zM208 744l-96 151h115l58 -73l58 73h115l-96 -151h-154z" />
    <glyph glyph-name="scaron" unicode="&#x161;" horiz-adv-x="486" 
d="M422 346q-32 16 -75.5 24t-81.5 8q-33 0 -56.5 -8.5t-23.5 -29.5q0 -17 19 -24t47.5 -11.5t62 -10t62 -20.5t47.5 -43t19 -77q0 -45 -17 -77.5t-46.5 -53t-69 -30.5t-84.5 -10q-55 0 -97 9.5t-78 26.5v127q45 -23 87.5 -33t86.5 -10q38 0 55.5 9.5t17.5 30.5
q0 17 -19 24.5t-47.5 12.5t-61.5 11t-61.5 20.5t-47.5 41t-19 72.5q0 45 17.5 76.5t47.5 52t70.5 29.5t86.5 9q45 0 86.5 -6t72.5 -17v-123zM166 559l-96 151h115l58 -73l58 73h115l-96 -151h-154z" />
    <glyph glyph-name="Tcommaaccent" unicode="&#x162;" horiz-adv-x="605" 
d="M590 545h-209v-545h-157v545h-209v131h575v-131zM348 -61q10 -29 10 -56q0 -57 -37 -94.5t-97 -48.5l-32 80q24 11 39.5 26.5t15.5 41.5t-11 51h112z" />
    <glyph glyph-name="tcommaaccent" unicode="&#x163;" horiz-adv-x="392" 
d="M348 352h-122v-180q0 -32 14.5 -44t35.5 -12q20 0 41 7t38 17v-129q-20 -12 -50.5 -20t-67.5 -8q-43 0 -72.5 12.5t-48 36t-26.5 56t-8 73.5v191h-65v123h66l19 151h124v-151h122v-123zM277 -61q10 -29 10 -56q0 -57 -37 -94.5t-97 -48.5l-32 80q24 11 39.5 26.5
t15.5 41.5t-11 51h112z" />
    <glyph glyph-name="Tcaron" unicode="&#x164;" horiz-adv-x="605" 
d="M590 545h-209v-545h-157v545h-209v131h575v-131zM226 744l-96 151h115l58 -73l58 73h115l-96 -151h-154z" />
    <glyph glyph-name="tcaron" unicode="&#x165;" horiz-adv-x="392" 
d="M388 727q7 -19 9 -35.5t2 -33.5q0 -54 -27 -93t-73 -61l-41 64q24 16 34.5 39t10.5 49q0 17 -4 34.5t-10 36.5h99zM348 352h-122v-180q0 -32 14.5 -44t35.5 -12q20 0 41 7t38 17v-129q-20 -12 -50.5 -20t-67.5 -8q-43 0 -72.5 12.5t-48 36t-26.5 56t-8 73.5v191h-65v123
h66l19 151h124v-151h122v-123z" />
    <glyph glyph-name="Tbar" unicode="&#x166;" horiz-adv-x="605" 
d="M590 545h-209v-167h142v-101h-142v-277h-157v277h-142v101h142v167h-209v131h575v-131z" />
    <glyph glyph-name="tbar" unicode="&#x167;" horiz-adv-x="428" 
d="M372 352h-122v-57h99v-101h-99v-22q0 -32 14.5 -44t35.5 -12q20 0 41 7t38 17v-129q-20 -12 -51 -20t-67 -8q-43 0 -72.5 12.5t-48 36t-27 56t-8.5 73.5v33h-64v101h64v57h-64v123h66l19 151h124v-151h122v-123z" />
    <glyph glyph-name="Utilde" unicode="&#x168;" horiz-adv-x="720" 
d="M641 249q0 -65 -20.5 -114.5t-57.5 -83.5t-89 -51t-114 -17t-113.5 17t-89 51t-58 83.5t-20.5 114.5v427h156v-428q0 -69 35.5 -100.5t89.5 -31.5q27 0 50 7.5t40 24t27 41t10 59.5v428h154v-427zM431 742q-24 0 -43 7.5t-35 17t-30.5 17t-27.5 7.5q-14 0 -19 -12t-5 -35
h-92q0 30 5.5 57.5t18 49t33.5 34t53 12.5q24 0 43 -7.5t35 -17t30 -17t28 -7.5t19 12t5 35h92q0 -30 -5.5 -57.5t-18 -49t-34 -34t-52.5 -12.5z" />
    <glyph glyph-name="utilde" unicode="&#x169;" horiz-adv-x="569" 
d="M381 0l-11 42q-25 -25 -58 -42t-81 -17q-80 0 -123.5 49t-43.5 141v302h144v-292q0 -34 17.5 -50.5t46.5 -16.5q23 0 43.5 10t35.5 24v325h145v-475h-115zM358 557q-24 0 -43 7.5t-35 17t-30.5 17t-27.5 7.5q-14 0 -19 -12t-5 -35h-92q0 30 5.5 57.5t18 49t33.5 34
t53 12.5q24 0 43 -7.5t35 -17t30 -17t28 -7.5t19 12t5 35h92q0 -30 -5.5 -57.5t-18 -49t-34 -34t-52.5 -12.5z" />
    <glyph glyph-name="Umacron" unicode="&#x16a;" horiz-adv-x="720" 
d="M641 249q0 -65 -20.5 -114.5t-57.5 -83.5t-89 -51t-114 -17t-113.5 17t-89 51t-58 83.5t-20.5 114.5v427h156v-428q0 -69 35.5 -100.5t89.5 -31.5q27 0 50 7.5t40 24t27 41t10 59.5v428h154v-427zM502 769h-284v101h284v-101z" />
    <glyph glyph-name="umacron" unicode="&#x16b;" horiz-adv-x="569" 
d="M381 0l-11 42q-25 -25 -58 -42t-81 -17q-80 0 -123.5 49t-43.5 141v302h144v-292q0 -34 17.5 -50.5t46.5 -16.5q23 0 43.5 10t35.5 24v325h145v-475h-115zM422 584h-284v101h284v-101z" />
    <glyph glyph-name="Ubreve" unicode="&#x16c;" horiz-adv-x="720" 
d="M641 249q0 -65 -20.5 -114.5t-57.5 -83.5t-89 -51t-114 -17t-113.5 17t-89 51t-58 83.5t-20.5 114.5v427h156v-428q0 -69 35.5 -100.5t89.5 -31.5q27 0 50 7.5t40 24t27 41t10 59.5v428h154v-427zM284 894q5 -34 25.5 -48t50.5 -14t50.5 14t25.5 48h84
q-3 -76 -46.5 -116.5t-113.5 -40.5q-71 0 -114 40.5t-46 116.5h84z" />
    <glyph glyph-name="ubreve" unicode="&#x16d;" horiz-adv-x="569" 
d="M381 0l-11 42q-25 -25 -58 -42t-81 -17q-80 0 -123.5 49t-43.5 141v302h144v-292q0 -34 17.5 -50.5t46.5 -16.5q23 0 43.5 10t35.5 24v325h145v-475h-115zM204 710q5 -34 25.5 -48t50.5 -14t50.5 14t25.5 48h84q-3 -76 -46.5 -116.5t-113.5 -40.5q-71 0 -114 40.5
t-46 116.5h84z" />
    <glyph glyph-name="Uring" unicode="&#x16e;" horiz-adv-x="720" 
d="M641 249q0 -65 -20.5 -114.5t-57.5 -83.5t-89 -51t-114 -17t-113.5 17t-89 51t-58 83.5t-20.5 114.5v427h156v-428q0 -69 35.5 -100.5t89.5 -31.5q27 0 50 7.5t40 24t27 41t10 59.5v428h154v-427zM475 821q0 -47 -32 -69.5t-83 -22.5t-83 22.5t-32 69.5q0 45 32 67.5
t83 22.5t83 -22.5t32 -67.5zM400 820q0 17 -10.5 27.5t-29.5 10.5t-29.5 -10.5t-10.5 -27.5t10.5 -27.5t29.5 -10.5t29.5 10.5t10.5 27.5z" />
    <glyph glyph-name="uring" unicode="&#x16f;" horiz-adv-x="569" 
d="M381 0l-11 42q-25 -25 -58 -42t-81 -17q-80 0 -123.5 49t-43.5 141v302h144v-292q0 -34 17.5 -50.5t46.5 -16.5q23 0 43.5 10t35.5 24v325h145v-475h-115zM395 637q0 -47 -32 -69.5t-83 -22.5t-83 22.5t-32 69.5q0 45 32 67.5t83 22.5t83 -22.5t32 -67.5zM320 636
q0 17 -10.5 27.5t-29.5 10.5t-29.5 -10.5t-10.5 -27.5t10.5 -27.5t29.5 -10.5t29.5 10.5t10.5 27.5z" />
    <glyph glyph-name="Uhungarumlaut" unicode="&#x170;" horiz-adv-x="720" 
d="M641 249q0 -65 -20.5 -114.5t-57.5 -83.5t-89 -51t-114 -17t-113.5 17t-89 51t-58 83.5t-20.5 114.5v427h156v-428q0 -69 35.5 -100.5t89.5 -31.5q27 0 50 7.5t40 24t27 41t10 59.5v428h154v-427zM285 895h125l-80 -151h-94zM460 895h132l-114 -151h-99z" />
    <glyph glyph-name="uhungarumlaut" unicode="&#x171;" horiz-adv-x="569" 
d="M381 0l-11 42q-25 -25 -58 -42t-81 -17q-80 0 -123.5 49t-43.5 141v302h144v-292q0 -34 17.5 -50.5t46.5 -16.5q23 0 43.5 10t35.5 24v325h145v-475h-115zM203 710h125l-80 -151h-94zM378 710h132l-114 -151h-99z" />
    <glyph glyph-name="Uogonek" unicode="&#x172;" horiz-adv-x="720" 
d="M641 249q0 -56 -15.5 -100.5t-43.5 -77.5t-68 -53.5t-88 -28.5q-24 -20 -37.5 -39.5t-13.5 -48.5q0 -18 10 -27t27 -9q14 0 25.5 3.5t22.5 9.5v-91q-17 -8 -35 -11.5t-40 -3.5q-52 0 -83 27t-31 78q0 34 12 61t35 47q-54 6 -98 25.5t-75.5 53t-48.5 80t-17 105.5v427h156
v-428q0 -69 35.5 -100.5t89.5 -31.5q27 0 50 7.5t40 24t27 41t10 59.5v428h154v-427z" />
    <glyph glyph-name="uogonek" unicode="&#x173;" horiz-adv-x="569" 
d="M381 0l-11 42q-25 -25 -58 -42t-81 -17q-80 0 -123.5 49t-43.5 141v302h144v-292q0 -34 17.5 -50.5t46.5 -16.5q23 0 43.5 10t35.5 24v325h145v-475q-30 -23 -48.5 -45t-18.5 -54q0 -18 10.5 -27t27.5 -9q23 0 47 13v-91q-17 -8 -35 -11.5t-40 -3.5q-51 0 -82 27t-31 78
q0 41 18 72.5t50 50.5h-13z" />
    <glyph glyph-name="Wcircumflex" unicode="&#x174;" horiz-adv-x="993" 
d="M567 676l144 -477l118 477h164l-183 -676h-167l-147 475l-146 -475h-167l-183 676h164l118 -477l144 477h141zM573 895l96 -151h-115l-58 73l-58 -73h-115l96 151h154z" />
    <glyph glyph-name="wcircumflex" unicode="&#x175;" horiz-adv-x="813" 
d="M483 475l93 -295l81 295h149l-152 -475h-139l-109 318l-109 -318h-139l-151 475h149l80 -295l94 295h153zM483 710l96 -151h-115l-58 73l-58 -73h-115l96 151h154z" />
    <glyph glyph-name="Ycircumflex" unicode="&#x176;" horiz-adv-x="620" 
d="M388 267v-267h-157v267l-239 409h175l156 -270l151 270h153zM394 895l96 -151h-115l-58 73l-58 -73h-115l96 151h154z" />
    <glyph glyph-name="ycircumflex" unicode="&#x177;" horiz-adv-x="569" 
d="M208 475v-275q0 -34 17.5 -50.5t46.5 -16.5q23 0 43.5 10t35.5 24v308h145v-458q0 -60 -19 -102.5t-52 -69.5t-76 -39.5t-91 -12.5q-56 0 -96.5 9.5t-79.5 27.5v136q13 -9 31.5 -18t40 -16t44.5 -11.5t46 -4.5q22 0 41.5 4.5t33.5 15.5t22 30t8 48v26q-23 -18 -51.5 -29
t-66.5 -11q-80 0 -123.5 49t-43.5 141v285h144zM357 710l96 -151h-115l-58 73l-58 -73h-115l96 151h154z" />
    <glyph glyph-name="Ydieresis" unicode="&#x178;" horiz-adv-x="620" 
d="M388 267v-267h-157v267l-239 409h175l156 -270l151 270h153zM287 753h-126v125h126v-125zM474 753h-126v125h126v-125z" />
    <glyph glyph-name="Zacute" unicode="&#x179;" horiz-adv-x="626" 
d="M575 558l-335 -427h346v-131h-545v108l345 437h-338v131h527v-118zM345 895h158l-124 -151h-107z" />
    <glyph glyph-name="zacute" unicode="&#x17a;" horiz-adv-x="495" 
d="M439 376l-198 -256h203v-120h-397v96l200 259h-200v120h392v-99zM252 710h158l-124 -151h-107z" />
    <glyph glyph-name="Zdotaccent" unicode="&#x17b;" horiz-adv-x="626" 
d="M575 558l-335 -427h346v-131h-545v108l345 437h-338v131h527v-118zM382 753h-138v125h138v-125z" />
    <glyph glyph-name="zdotaccent" unicode="&#x17c;" horiz-adv-x="495" 
d="M439 376l-198 -256h203v-120h-397v96l200 259h-200v120h392v-99zM317 568h-138v125h138v-125z" />
    <glyph glyph-name="Zcaron" unicode="&#x17d;" horiz-adv-x="626" 
d="M575 558l-335 -427h346v-131h-545v108l345 437h-338v131h527v-118zM236 744l-96 151h115l58 -73l58 73h115l-96 -151h-154z" />
    <glyph glyph-name="zcaron" unicode="&#x17e;" horiz-adv-x="495" 
d="M439 376l-198 -256h203v-120h-397v96l200 259h-200v120h392v-99zM171 559l-96 151h115l58 -73l58 73h115l-96 -151h-154z" />
    <glyph glyph-name="longs" unicode="&#x17f;" horiz-adv-x="347" 
d="M84 0v352h-64v123h64v52q0 55 15.5 93t42 62t62 34.5t74.5 10.5t69 -9v-128q-12 5 -23 6t-24 1q-32 0 -51.5 -16t-19.5 -56v-525h-145z" />
    <glyph glyph-name="florin" unicode="&#x192;" 
d="M475 294h-191v-294h-156v294h-73v102h73v73q0 61 20.5 104t54 69.5t77 38.5t88.5 12q48 0 86 -9t70 -23v-134q-23 11 -61.5 21.5t-80.5 10.5q-41 0 -69.5 -21t-28.5 -76v-66h191v-102z" />
    <glyph glyph-name="Aringacute" unicode="&#x1fa;" horiz-adv-x="666" 
d="M448 820q0 -48 -32 -70.5t-83 -22.5t-83 22.5t-32 70.5q0 33 17.5 54t46.5 30l51 119h158l-105 -120q29 -9 45.5 -30t16.5 -53zM373 819q0 17 -11 27.5t-29 10.5q-19 0 -29.5 -10.5t-10.5 -27.5t10.5 -27.5t29.5 -10.5q18 0 29 10.5t11 27.5zM674 0h-171l-44 116h-273
l-44 -116h-150l273 676h139zM234 242h177l-88 234z" />
    <glyph glyph-name="aringacute" unicode="&#x1fb;" horiz-adv-x="569" 
d="M391 636q0 -48 -32 -70.5t-83 -22.5t-83 22.5t-32 70.5q0 33 17.5 54t46.5 30l51 119h158l-105 -120q29 -9 45.5 -30t16.5 -53zM316 635q0 17 -10.5 27.5t-29.5 10.5q-18 0 -29 -10.5t-11 -27.5t11 -27.5t29 -10.5q19 0 29.5 10.5t10.5 27.5zM495 0h-114l-11 42
q-23 -28 -54.5 -43.5t-73.5 -15.5q-38 0 -74.5 14t-65.5 44t-47 76.5t-18 110.5q0 63 18.5 112t52.5 83t82.5 51.5t107.5 17.5t104 -9t93 -25v-458zM350 362q-23 6 -47 6q-23 0 -44.5 -7t-38 -22.5t-26.5 -41t-10 -62.5q0 -64 26.5 -91.5t67.5 -27.5q19 0 38 5.5t34 19.5
v221z" />
    <glyph glyph-name="AEacute" unicode="&#x1fc;" horiz-adv-x="964" 
d="M895 545h-299v-138h265v-131h-265v-93q0 -26 9.5 -39t36.5 -13h264v-131h-292q-73 0 -113.5 29t-54.5 87h-248l-66 -116h-168l393 676h538v-131zM269 242h170v303zM577 895h158l-124 -151h-107z" />
    <glyph glyph-name="aeacute" unicode="&#x1fd;" horiz-adv-x="841" 
d="M489 188q4 -24 16 -39.5t30.5 -24.5t41 -13t47.5 -4q23 0 47 3t46 7.5t40.5 10.5t32.5 12v-123q-15 -8 -37 -14t-47.5 -10.5t-51.5 -7t-49 -2.5q-60 0 -110.5 15.5t-86.5 53.5q-30 -35 -73.5 -52t-88.5 -17q-39 0 -76.5 13.5t-67 43t-47.5 76t-18 112.5q0 63 18.5 112
t52.5 83t82.5 51.5t107.5 17.5q47 0 83.5 -9.5t65.5 -24.5q56 34 129 34q59 0 102.5 -18.5t71.5 -48.5t41.5 -69t13.5 -81v-87h-316zM365 357q-16 5 -30 8t-31 3q-24 0 -45.5 -7t-38 -22t-26.5 -40t-10 -61q0 -66 25.5 -94t69.5 -28q20 0 41.5 7.5t35.5 25.5q-10 39 -10 92
q0 64 19 116zM657 289q-2 52 -27 70.5t-58 18.5t-56.5 -20.5t-28.5 -68.5h170zM470 710h158l-124 -151h-107z" />
    <glyph glyph-name="Oslashacute" unicode="&#x1fe;" horiz-adv-x="807" 
d="M762 338q0 -83 -26 -149t-73 -112t-113 -70t-146 -24q-56 0 -104.5 11.5t-89.5 33.5l-64 -83l-58 49l61 79q-50 46 -77 112.5t-27 152.5q0 83 26 149t73 111.5t113.5 70t146.5 24.5q107 0 188 -43l70 91l59 -48l-67 -87q51 -46 79.5 -113t28.5 -155zM600 338
q0 88 -39 147l-263 -342q22 -13 48 -20t58 -7q48 0 84.5 16t61.5 45t37.5 70t12.5 91zM207 338q0 -85 37 -142l261 340q-43 23 -101 23q-97 0 -147 -60.5t-50 -160.5zM436 895h158l-124 -151h-107z" />
    <glyph glyph-name="oslashacute" unicode="&#x1ff;" 
d="M289 492q71 0 127 -28l55 74l53 -36l-56 -74q35 -33 54 -80.5t19 -109.5q0 -61 -18.5 -108.5t-51.5 -80t-79.5 -49.5t-102.5 -17q-72 0 -128 28l-55 -74l-51 38l54 73q-35 32 -53.5 79.5t-18.5 110.5q0 61 18.5 108t51.5 79.5t79.5 49.5t102.5 17zM393 238q0 38 -13 69
l-139 -188q21 -12 48 -12q47 0 75.5 35t28.5 96zM289 368q-47 0 -75.5 -34.5t-28.5 -95.5q0 -38 13 -70l139 188q-11 5 -22.5 8.5t-25.5 3.5zM320 710h158l-124 -151h-107z" />
    <glyph glyph-name="Scommaaccent" unicode="&#x218;" horiz-adv-x="565" 
d="M492 522q-38 20 -78.5 28.5t-87.5 8.5q-20 0 -39 -3t-33.5 -10.5t-23.5 -21t-9 -33.5q0 -25 21.5 -39.5t54 -27t70.5 -25.5t70.5 -36.5t54 -60t21.5 -94.5q0 -61 -21 -104t-56 -70t-80 -39.5t-92 -12.5q-56 0 -107.5 12.5t-89.5 31.5v136q36 -19 85.5 -32.5t97.5 -13.5
q43 0 71.5 15.5t28.5 57.5q0 28 -21.5 44.5t-54 29.5t-70 26.5t-70 36.5t-54 59.5t-21.5 95.5q0 51 19 90.5t53.5 66.5t83 41t107.5 14q51 0 94.5 -8t75.5 -22v-141v0zM351 -61q10 -29 10 -56q0 -57 -37 -94.5t-97 -48.5l-32 80q24 11 39.5 26.5t15.5 41.5t-11 51h112z" />
    <glyph glyph-name="scommaaccent" unicode="&#x219;" horiz-adv-x="486" 
d="M422 346q-32 16 -75.5 24t-81.5 8q-33 0 -56.5 -8.5t-23.5 -29.5q0 -17 19 -24t47.5 -11.5t62 -10t62 -20.5t47.5 -43t19 -77q0 -45 -17 -77.5t-46.5 -53t-69 -30.5t-84.5 -10q-55 0 -97 9.5t-78 26.5v127q45 -23 87.5 -33t86.5 -10q38 0 55.5 9.5t17.5 30.5
q0 17 -19 24.5t-47.5 12.5t-61.5 11t-61.5 20.5t-47.5 41t-19 72.5q0 45 17.5 76.5t47.5 52t70.5 29.5t86.5 9q45 0 86.5 -6t72.5 -17v-123zM316 -61q10 -29 10 -56q0 -57 -37 -94.5t-97 -48.5l-32 80q24 11 39.5 26.5t15.5 41.5t-11 51h112z" />
    <glyph glyph-name="circumflex" unicode="&#x2c6;" horiz-adv-x="510" 
d="M332 710l96 -151h-115l-58 73l-58 -73h-115l96 151h154z" />
    <glyph glyph-name="caron" unicode="&#x2c7;" horiz-adv-x="510" 
d="M178 559l-96 151h115l58 -73l58 73h115l-96 -151h-154z" />
    <glyph glyph-name="breve" unicode="&#x2d8;" horiz-adv-x="510" 
d="M179 710q5 -34 25.5 -48t50.5 -14t50.5 14t25.5 48h84q-3 -76 -46.5 -116.5t-113.5 -40.5q-71 0 -114 40.5t-46 116.5h84z" />
    <glyph glyph-name="dotaccent" unicode="&#x2d9;" horiz-adv-x="510" 
d="M324 568h-138v125h138v-125z" />
    <glyph glyph-name="ring" unicode="&#x2da;" horiz-adv-x="510" 
d="M370 637q0 -47 -32 -69.5t-83 -22.5t-83 22.5t-32 69.5q0 45 32 67.5t83 22.5t83 -22.5t32 -67.5zM295 636q0 17 -10.5 27.5t-29.5 10.5t-29.5 -10.5t-10.5 -27.5t10.5 -27.5t29.5 -10.5t29.5 10.5t10.5 27.5z" />
    <glyph glyph-name="ogonek" unicode="&#x2db;" horiz-adv-x="510" 
d="M311 0q-30 -23 -48 -45t-18 -54q0 -18 10 -27t27 -9q14 0 25 3.5t23 9.5v-91q-17 -8 -35 -11.5t-40 -3.5q-52 0 -83 27t-31 78q0 41 18 72.5t50 50.5h102z" />
    <glyph glyph-name="tilde" unicode="&#x2dc;" horiz-adv-x="510" 
d="M326 557q-24 0 -43 7.5t-35 17t-30.5 17t-27.5 7.5q-14 0 -19 -12t-5 -35h-92q0 30 5.5 57.5t18 49t33.5 34t53 12.5q24 0 43 -7.5t35 -17t30 -17t28 -7.5t19 12t5 35h92q0 -30 -5.5 -57.5t-18 -49t-34 -34t-52.5 -12.5z" />
    <glyph glyph-name="hungarumlaut" unicode="&#x2dd;" horiz-adv-x="510" 
d="M196 710h125l-80 -151h-94zM371 710h132l-114 -151h-99z" />
    <glyph glyph-name="tonos" unicode="&#x384;" horiz-adv-x="510" 
d="M246 710h158l-124 -151h-107z" />
    <glyph glyph-name="dieresistonos" unicode="&#x385;" horiz-adv-x="510" 
d="M165 568h-127v125h127v-125zM471 568h-127v125h127v-125zM220 710h124l-90 -151h-73z" />
    <glyph glyph-name="Alphatonos" unicode="&#x386;" horiz-adv-x="666" 
d="M92 676h141l-99 -151h-90zM674 0h-171l-44 116h-273l-44 -116h-150l273 676h139zM234 242h177l-88 234z" />
    <glyph glyph-name="Epsilontonos" unicode="&#x388;" horiz-adv-x="723" 
d="M48 676h141l-99 -151h-90zM654 545h-299v-138h265v-131h-265v-93q0 -26 9.5 -39t36.5 -13h264v-131h-292q-92 0 -133 46t-41 137v493h455v-131z" />
    <glyph glyph-name="Etatonos" unicode="&#x389;" horiz-adv-x="896" 
d="M48 676h141l-99 -151h-90zM800 0h-156v277h-289v-277h-156v676h156v-263h289v263h156v-676z" />
    <glyph glyph-name="Iotatonos" unicode="&#x38a;" horiz-adv-x="451" 
d="M48 676h141l-99 -151h-90zM355 0h-156v676h156v-676z" />
    <glyph glyph-name="Omicrontonos" unicode="&#x38c;" horiz-adv-x="859" 
d="M48 676h141l-99 -151h-90zM456 693q80 0 146 -24.5t113 -70t73 -111.5t26 -149t-26 -149t-73 -112t-113 -70t-146 -24t-146.5 24t-113.5 70t-73 112t-26 149t26 149t73 111.5t113.5 70t146.5 24.5zM456 559q-97 0 -147 -60.5t-50 -160.5q0 -50 12.5 -91t37.5 -70t62 -45
t85 -16t84.5 16t61.5 45t37.5 70t12.5 91t-12.5 90.5t-37.5 69.5t-61.5 45t-84.5 16z" />
    <glyph glyph-name="Upsilontonos" unicode="&#x38e;" horiz-adv-x="829" 
d="M48 676h141l-99 -151h-90zM597 267v-267h-157v267l-239 409h175l156 -270l151 270h153z" />
    <glyph glyph-name="Omegatonos" unicode="&#x38f;" horiz-adv-x="874" 
d="M48 676h141l-99 -151h-90zM470 693q77 0 142.5 -21t113.5 -61t75 -98.5t27 -134.5q0 -49 -12 -88t-32 -69.5t-45 -52.5t-50 -37h141v-131h-298v131q20 15 43.5 35t43.5 47.5t33.5 63t13.5 81.5q0 100 -50.5 150.5t-145.5 50.5t-146 -50.5t-51 -150.5q0 -46 13.5 -81.5
t33.5 -63t44 -47.5t44 -35v-131h-299v131h141q-26 15 -50.5 37t-44.5 52.5t-32 69.5t-12 88q0 76 27.5 134.5t75.5 98.5t113.5 61t142.5 21z" />
    <glyph glyph-name="iotadieresistonos" unicode="&#x390;" horiz-adv-x="316" 
d="M49 568h-126v125h126v-125zM355 568h-126v125h126v-125zM105 710h124l-90 -151h-74zM210 160q0 -25 8.5 -34.5t26.5 -9.5q14 0 26.5 3.5t24.5 9.5v-130q-22 -9 -45 -12.5t-44 -3.5q-39 0 -66.5 12t-44 34t-24 53.5t-7.5 69.5v323h145v-315z" />
    <glyph glyph-name="Alpha" unicode="&#x391;" horiz-adv-x="666" 
d="M674 0h-171l-44 116h-273l-44 -116h-150l273 676h139zM234 242h177l-88 234z" />
    <glyph glyph-name="Beta" unicode="&#x392;" horiz-adv-x="669" 
d="M328 676q130 0 204.5 -44t74.5 -141q0 -31 -9 -54.5t-23 -41t-32 -29.5t-36 -19q21 -5 41.5 -16t37.5 -30t27.5 -45.5t10.5 -60.5q0 -53 -22 -90.5t-61.5 -60.5t-94 -33.5t-118.5 -10.5h-232v676h232zM252 406h76q53 0 85 13.5t32 56.5t-32 56t-85 13h-76v-139zM252 131
h81q27 0 50.5 3.5t41 12.5t27.5 23.5t10 35.5t-10 35.5t-27.5 23t-41 12t-50.5 3.5h-81v-149z" />
    <glyph glyph-name="Gamma" unicode="&#x393;" horiz-adv-x="609" 
d="M552 545h-300v-545h-156v676h456v-131z" />
    <glyph glyph-name="Delta" unicode="&#x394;" horiz-adv-x="635" 
d="M611 117v-117h-587v116l225 560h139zM181 131h256l-130 345z" />
    <glyph glyph-name="Delta" unicode="&#x2206;" horiz-adv-x="635" 
d="M611 117v-117h-587v116l225 560h139zM181 131h256l-130 345z" />
    <glyph glyph-name="Epsilon" unicode="&#x395;" horiz-adv-x="612" 
d="M543 545h-299v-138h265v-131h-265v-93q0 -26 9.5 -39t36.5 -13h264v-131h-292q-92 0 -133 46t-41 137v493h455v-131z" />
    <glyph glyph-name="Zeta" unicode="&#x396;" horiz-adv-x="626" 
d="M575 558l-335 -427h346v-131h-545v108l345 437h-338v131h527v-118z" />
    <glyph glyph-name="Eta" unicode="&#x397;" horiz-adv-x="793" 
d="M697 0h-156v277h-289v-277h-156v676h156v-263h289v263h156v-676z" />
    <glyph glyph-name="Theta" unicode="&#x398;" horiz-adv-x="807" 
d="M542 278h-277v128h277v-128zM404 693q80 0 146 -24.5t113 -70t73 -111.5t26 -149t-26 -149t-73 -112t-113 -70t-146 -24t-146.5 24t-113.5 70t-73 112t-26 149t26 149t73 111.5t113.5 70t146.5 24.5zM404 559q-97 0 -147 -60.5t-50 -160.5q0 -50 12.5 -91t37.5 -70
t62 -45t85 -16t84.5 16t61.5 45t37.5 70t12.5 91t-12.5 90.5t-37.5 69.5t-61.5 45t-84.5 16z" />
    <glyph glyph-name="Iota" unicode="&#x399;" horiz-adv-x="348" 
d="M252 0h-156v676h156v-676z" />
    <glyph glyph-name="Kappa" unicode="&#x39a;" horiz-adv-x="693" 
d="M394 353l299 -353h-200l-241 287v-287h-156v676h156v-279l252 279h182z" />
    <glyph glyph-name="Lambda" unicode="&#x39b;" horiz-adv-x="682" 
d="M331 476l-181 -476h-150l273 676h138l271 -676h-171z" />
    <glyph glyph-name="Mu" unicode="&#x39c;" horiz-adv-x="943" 
d="M406 131l-156 279v-410h-154v676h152l224 -384l223 384h152v-676h-153v410l-157 -279h-131z" />
    <glyph glyph-name="Nu" unicode="&#x39d;" horiz-adv-x="783" 
d="M687 0h-133l-306 418v-418h-152v676h133l306 -418v418h152v-676z" />
    <glyph glyph-name="Xi" unicode="&#x39e;" horiz-adv-x="621" 
d="M537 269h-454v131h454v-131zM583 131v-131h-545v131h545zM47 545v131h528v-131h-528z" />
    <glyph glyph-name="Omicron" unicode="&#x39f;" horiz-adv-x="807" 
d="M404 693q80 0 146 -24.5t113 -70t73 -111.5t26 -149t-26 -149t-73 -112t-113 -70t-146 -24t-146.5 24t-113.5 70t-73 112t-26 149t26 149t73 111.5t113.5 70t146.5 24.5zM404 559q-97 0 -147 -60.5t-50 -160.5q0 -50 12.5 -91t37.5 -70t62 -45t85 -16t84.5 16t61.5 45
t37.5 70t12.5 91t-12.5 90.5t-37.5 69.5t-61.5 45t-84.5 16z" />
    <glyph glyph-name="Pi" unicode="&#x3a0;" horiz-adv-x="771" 
d="M675 0h-157v545h-266v-545h-156v676h579v-676z" />
    <glyph glyph-name="Rho" unicode="&#x3a1;" horiz-adv-x="675" 
d="M252 0h-156v676h248q65 0 118 -14t90.5 -42.5t58 -71.5t20.5 -100t-20.5 -100t-58 -71.5t-90.5 -42.5t-118 -14h-92v-220zM252 351h92q24 0 46.5 4.5t40 15.5t27.5 29.5t10 47.5t-10 47.5t-27.5 29.5t-40 15.5t-46.5 4.5h-92v-194z" />
    <glyph glyph-name="Sigma" unicode="&#x3a3;" 
d="M524 545h-278l189 -212l-189 -202h278v-131h-470v117l206 206l-206 236v117h470v-131z" />
    <glyph glyph-name="Tau" unicode="&#x3a4;" horiz-adv-x="605" 
d="M590 545h-209v-545h-157v545h-209v131h575v-131z" />
    <glyph glyph-name="Upsilon" unicode="&#x3a5;" horiz-adv-x="620" 
d="M388 267v-267h-157v267l-239 409h175l156 -270l151 270h153z" />
    <glyph glyph-name="Phi" unicode="&#x3a6;" horiz-adv-x="807" 
d="M482 -34h-156v76q-62 7 -113.5 29t-89 59.5t-58 89.5t-20.5 118t20.5 118t58 89.5t89 59.5t113.5 29v76h156v-76q61 -7 112.5 -29t89 -59.5t58 -89.5t20.5 -118t-20.5 -118t-58 -89.5t-89 -59.5t-112.5 -29v-76zM600 338q0 60 -30 105.5t-88 58.5v-330q58 13 88 59
t30 107zM207 338q0 -61 29.5 -107t89.5 -59v330q-60 -13 -89.5 -58.5t-29.5 -105.5z" />
    <glyph glyph-name="Chi" unicode="&#x3a7;" horiz-adv-x="653" 
d="M414 355l239 -355h-180l-150 227l-154 -227h-169l240 346l-221 330h178l134 -200l136 200h169z" />
    <glyph glyph-name="Psi" unicode="&#x3a8;" horiz-adv-x="826" 
d="M491 0h-156v161q-66 11 -117.5 35.5t-86.5 65.5t-53.5 99.5t-18.5 138.5v176h146v-186q0 -45 8.5 -77t25 -53.5t41 -34t55.5 -19.5v370h156v-370q31 7 55.5 19.5t41 34t25 53.5t8.5 77v186h146v-176q0 -80 -18.5 -138.5t-53.5 -100t-86.5 -66t-117.5 -34.5v-161z" />
    <glyph glyph-name="Omega" unicode="&#x3a9;" horiz-adv-x="807" 
d="M404 693q77 0 142.5 -21t113.5 -61t75 -98.5t27 -134.5q0 -49 -12 -88t-32 -69.5t-45 -52.5t-50 -37h141v-131h-298v131q20 15 43.5 35t43.5 47.5t33.5 63t13.5 81.5q0 100 -50.5 150.5t-145.5 50.5t-146 -50.5t-51 -150.5q0 -46 13.5 -81.5t33.5 -63t44 -47.5t44 -35
v-131h-299v131h141q-26 15 -50.5 37t-44.5 52.5t-32 69.5t-12 88q0 76 27.5 134.5t75.5 98.5t113.5 61t142.5 21z" />
    <glyph glyph-name="Omega" unicode="&#x2126;" horiz-adv-x="807" 
d="M404 693q77 0 142.5 -21t113.5 -61t75 -98.5t27 -134.5q0 -49 -12 -88t-32 -69.5t-45 -52.5t-50 -37h141v-131h-298v131q20 15 43.5 35t43.5 47.5t33.5 63t13.5 81.5q0 100 -50.5 150.5t-145.5 50.5t-146 -50.5t-51 -150.5q0 -46 13.5 -81.5t33.5 -63t44 -47.5t44 -35
v-131h-299v131h141q-26 15 -50.5 37t-44.5 52.5t-32 69.5t-12 88q0 76 27.5 134.5t75.5 98.5t113.5 61t142.5 21z" />
    <glyph glyph-name="Iotadieresis" unicode="&#x3aa;" horiz-adv-x="348" 
d="M252 0h-156v676h156v-676zM145 769h-126v125h126v-125zM332 769h-126v125h126v-125z" />
    <glyph glyph-name="Upsilondieresis" unicode="&#x3ab;" horiz-adv-x="620" 
d="M388 267v-267h-157v267l-239 409h175l156 -270l151 270h153zM287 769h-126v125h126v-125zM474 769h-126v125h126v-125z" />
    <glyph glyph-name="alphatonos" unicode="&#x3ac;" horiz-adv-x="595" 
d="M519 475l-17 -272q-1 -9 -1 -17v-15q0 -35 7 -45t22 -10h12q4 0 6 1v-129q-14 -2 -29 -3.5t-26 -1.5q-58 0 -84.5 23.5t-35.5 61.5q-17 -38 -52 -61.5t-89 -23.5q-35 0 -70 14t-63 44t-45 76.5t-17 110.5q0 54 14.5 102t42 84t66.5 57t88 21q27 0 48 -7.5t37 -18.5
t27 -24t17 -25l4 58h138zM350 258q0 28 -7 49t-18 34.5t-25 20t-29 6.5q-38 0 -62.5 -32t-24.5 -101q0 -56 22.5 -87.5t63.5 -31.5q13 0 27 6.5t26 20.5t19.5 34.5t7.5 49.5v31zM295 710h158l-124 -151h-107z" />
    <glyph glyph-name="epsilontonos" unicode="&#x3ad;" horiz-adv-x="514" 
d="M456 341q-15 7 -35.5 13t-42 9.5t-43 5.5t-38.5 2q-40 0 -67.5 -8.5t-27.5 -33.5q0 -20 21 -27.5t57 -7.5h85v-112h-76q-51 0 -75 -8t-24 -29q0 -23 26 -30.5t72 -7.5q22 0 47 2.5t48.5 6.5t44 9.5t33.5 11.5v-126q-13 -6 -35 -11t-47.5 -8.5t-51.5 -6t-47 -2.5
q-124 0 -182 34.5t-58 101.5q0 30 10.5 51t27 35t36.5 22t39 11q-18 4 -35.5 12t-32 21.5t-23 33t-8.5 48.5q0 63 57.5 101t172.5 38q21 0 45.5 -2t48.5 -5t44.5 -7.5t33.5 -10.5v-126zM264 710h158l-124 -151h-107z" />
    <glyph glyph-name="etatonos" unicode="&#x3ae;" horiz-adv-x="593" 
d="M211 439q26 26 65.5 39.5t77.5 13.5q36 0 67 -11t54 -35t36.5 -61.5t13.5 -89.5v-485h-144v474q0 41 -22.5 57.5t-52.5 16.5q-29 0 -50.5 -9t-37.5 -19v-330h-145v475h129zM309 710h158l-124 -151h-107z" />
    <glyph glyph-name="iotatonos" unicode="&#x3af;" horiz-adv-x="316" 
d="M158 710h158l-124 -151h-107zM210 160q0 -25 8.5 -34.5t26.5 -9.5q14 0 26.5 3.5t24.5 9.5v-130q-22 -9 -45 -12.5t-44 -3.5q-39 0 -66.5 12t-44 34t-24 53.5t-7.5 69.5v323h145v-315z" />
    <glyph glyph-name="upsilondieresistonos" unicode="&#x3b0;" horiz-adv-x="571" 
d="M202 568h-126v125h126v-125zM508 568h-126v125h126v-125zM258 710h124l-90 -151h-74zM456 475q25 -32 46 -92t21 -140q0 -57 -15 -104.5t-44 -82t-72 -54t-100 -19.5q-120 0 -179 66.5t-59 188.5v237h147v-237q0 -61 22 -96t69 -35q45 0 66 36t21 97q0 69 -23.5 130
t-58.5 105h159z" />
    <glyph glyph-name="alpha" unicode="&#x3b1;" horiz-adv-x="595" 
d="M519 475l-17 -272q-1 -9 -1 -17v-15q0 -35 7 -45t22 -10h12q4 0 6 1v-129q-14 -2 -29 -3.5t-26 -1.5q-58 0 -84.5 23.5t-35.5 61.5q-17 -38 -52 -61.5t-89 -23.5q-35 0 -70 14t-63 44t-45 76.5t-17 110.5q0 54 14.5 102t42 84t66.5 57t88 21q27 0 48 -7.5t37 -18.5
t27 -24t17 -25l4 58h138zM350 258q0 28 -7 49t-18 34.5t-25 20t-29 6.5q-38 0 -62.5 -32t-24.5 -101q0 -56 22.5 -87.5t63.5 -31.5q13 0 27 6.5t26 20.5t19.5 34.5t7.5 49.5v31z" />
    <glyph glyph-name="beta" unicode="&#x3b2;" horiz-adv-x="587" 
d="M218 -190h-145v659q0 70 19.5 119t52 80t74 45t85.5 14t85 -11.5t73 -36t51 -63.5t19 -93q0 -42 -11.5 -71.5t-29 -49t-38 -30t-37.5 -14.5q25 -5 49 -17t43 -32t30.5 -49t11.5 -67q0 -55 -17.5 -95t-46.5 -65.5t-66 -37.5t-76 -12q-38 0 -72.5 10t-53.5 27v-210z
M277 423h25q40 0 61.5 24.5t21.5 68.5q0 38 -20.5 63t-57.5 25q-40 0 -64.5 -30.5t-24.5 -95.5v-322q14 -14 38 -27t58 -13q42 0 63 23t21 64q0 45 -26 68t-71 23h-24v129z" />
    <glyph glyph-name="gamma" unicode="&#x3b3;" horiz-adv-x="513" 
d="M171 -190v199l-174 466h153l107 -316q39 81 60 164t26 152h145q-6 -54 -21 -113t-38 -119.5t-52 -120.5t-62 -115v-197h-144z" />
    <glyph glyph-name="delta" unicode="&#x3b4;" 
d="M456 576q-29 14 -58 21t-58 7q-14 0 -27 -2t-23.5 -7t-17 -13.5t-6.5 -22.5q0 -13 8 -23.5t22.5 -20.5t33 -19.5t39.5 -19.5q37 -18 68.5 -39t54.5 -49t36 -65t13 -87q0 -61 -18.5 -108t-51.5 -79.5t-79.5 -49t-102.5 -16.5t-102.5 16.5t-79.5 49t-51.5 79.5t-18.5 108
q0 41 11.5 74.5t30.5 60t44.5 46.5t52.5 35q-9 9 -18.5 20.5t-18 26.5t-13.5 34t-5 44q0 42 18 70.5t47 46.5t65 25.5t71 7.5q48 0 78.5 -6.5t55.5 -18.5v-126zM289 374q-20 -5 -38.5 -16t-33.5 -29t-24 -43.5t-9 -61.5q0 -55 30 -86t75 -31t75 31t30 86q0 36 -9 60.5
t-24 41.5t-34 28t-38 20z" />
    <glyph glyph-name="epsilon" unicode="&#x3b5;" horiz-adv-x="514" 
d="M456 341q-15 7 -35.5 13t-42 9.5t-43 5.5t-38.5 2q-40 0 -67.5 -8.5t-27.5 -33.5q0 -20 21 -27.5t57 -7.5h85v-112h-76q-51 0 -75 -8t-24 -29q0 -23 26 -30.5t72 -7.5q22 0 47 2.5t48.5 6.5t44 9.5t33.5 11.5v-126q-13 -6 -35 -11t-47.5 -8.5t-51.5 -6t-47 -2.5
q-124 0 -182 34.5t-58 101.5q0 30 10.5 51t27 35t36.5 22t39 11q-18 4 -35.5 12t-32 21.5t-23 33t-8.5 48.5q0 63 57.5 101t172.5 38q21 0 45.5 -2t48.5 -5t44.5 -7.5t33.5 -10.5v-126z" />
    <glyph glyph-name="zeta" unicode="&#x3b6;" horiz-adv-x="435" 
d="M76 710h350v-121q-46 -33 -89 -70.5t-76 -80.5t-53 -93t-20 -108q0 -29 7.5 -49.5t20.5 -34.5t31.5 -23.5t41.5 -16.5q35 -11 62.5 -21.5t46 -25.5t28.5 -37t10 -54q0 -28 -7.5 -53.5t-20 -48t-28 -42.5t-31.5 -38l-79 64q17 23 28.5 44.5t11.5 41.5q0 22 -13 29t-36 12
q-49 12 -90 30.5t-71 48t-46.5 72.5t-16.5 103q0 57 16 108t43.5 95t65.5 80t83 65h-169v124z" />
    <glyph glyph-name="eta" unicode="&#x3b7;" horiz-adv-x="593" 
d="M211 439q26 26 65.5 39.5t77.5 13.5q36 0 67 -11t54 -35t36.5 -61.5t13.5 -89.5v-485h-144v474q0 41 -22.5 57.5t-52.5 16.5q-29 0 -50.5 -9t-37.5 -19v-330h-145v475h129z" />
    <glyph glyph-name="theta" unicode="&#x3b8;" horiz-adv-x="609" 
d="M562 355q0 -77 -14 -145t-44.5 -118.5t-80 -79.5t-119.5 -29q-71 0 -119.5 29t-79.5 79.5t-44.5 118.5t-13.5 145t13.5 145t44.5 118.5t79.5 79.5t119.5 29q70 0 119.5 -29t80 -79.5t44.5 -118.5t14 -145zM407 420q0 81 -26 127.5t-77 46.5t-77 -46.5t-26 -127.5h206z
M201 290q0 -81 26 -127.5t77 -46.5t77 46.5t26 127.5h-206z" />
    <glyph glyph-name="iota" unicode="&#x3b9;" horiz-adv-x="316" 
d="M210 160q0 -25 8.5 -34.5t26.5 -9.5q14 0 26.5 3.5t24.5 9.5v-130q-22 -9 -45 -12.5t-44 -3.5q-39 0 -66.5 12t-44 34t-24 53.5t-7.5 69.5v323h145v-315z" />
    <glyph glyph-name="kappa" unicode="&#x3ba;" horiz-adv-x="547" 
d="M354 249l195 -249h-177l-154 193v-193h-145v475h145v-190l159 190h170z" />
    <glyph glyph-name="lambda" unicode="&#x3bb;" horiz-adv-x="491" 
d="M179 495l-10 26q-17 45 -46.5 60.5t-77.5 16.5l18 129q54 0 93.5 -13.5t69 -40t50.5 -64.5t38 -87l182 -522h-146l-96 322l-106 -322h-152z" />
    <glyph glyph-name="uni03BC" unicode="&#x3bc;" 
d="M390 0l-11 42q-15 -28 -42.5 -43.5t-58.5 -15.5q-16 0 -31.5 4t-28.5 14v-191h-145v665h145v-294q0 -32 17 -48.5t46 -16.5q23 0 43 9.5t36 24.5v325h145v-475h-115z" />
    <glyph glyph-name="nu" unicode="&#x3bd;" horiz-adv-x="513" 
d="M150 475l107 -319q19 40 34.5 82t26 83t17 80t8.5 74h145q-6 -54 -21.5 -114.5t-39 -122t-53 -122.5t-62.5 -116h-139l-176 475h153z" />
    <glyph glyph-name="xi" unicode="&#x3be;" horiz-adv-x="466" 
d="M420 574q-30 16 -57 22.5t-61 6.5q-19 0 -36 -4t-30.5 -13.5t-21.5 -25.5t-8 -39q0 -26 10.5 -42t27.5 -25t37 -12t40 -3h61v-130h-75q-24 0 -46.5 -4.5t-39 -15t-26.5 -29t-10 -46.5q0 -41 25.5 -62.5t72.5 -33.5q35 -9 62.5 -20t46 -27t28.5 -38.5t10 -54.5
q0 -28 -7.5 -53.5t-20 -49t-28 -44t-31.5 -38.5l-79 64q17 23 28.5 46t11.5 43t-15 27.5t-37 12.5q-42 10 -81 24.5t-69 38t-48 58.5t-18 87q0 41 12.5 72t32 53t44.5 35.5t50 18.5q-21 6 -42 18.5t-37.5 32t-27 47.5t-10.5 66q0 48 18 84t49 59.5t72.5 35t88.5 11.5
q84 0 134 -25v-128v0z" />
    <glyph glyph-name="omicron" unicode="&#x3bf;" 
d="M289 492q56 0 102.5 -17t79.5 -49.5t51.5 -79.5t18.5 -108t-18.5 -108.5t-51.5 -80t-79.5 -49.5t-102.5 -17t-102.5 17t-79.5 49.5t-51.5 80t-18.5 108.5t18.5 108t51.5 79.5t79.5 49.5t102.5 17zM289 368q-47 0 -75.5 -34.5t-28.5 -95.5t28.5 -96t75.5 -35t75.5 35
t28.5 96t-28.5 95.5t-75.5 34.5z" />
    <glyph glyph-name="pi" unicode="&#x3c0;" horiz-adv-x="643" 
d="M593 340h-81v-180q0 -25 8.5 -34.5t26.5 -9.5q14 0 26 3.5t25 9.5v-130q-22 -9 -45.5 -12.5t-43.5 -3.5q-39 0 -66.5 12t-44 34t-24 53.5t-7.5 69.5v188h-120v-340h-144v340h-82v135h572v-135z" />
    <glyph glyph-name="rho" unicode="&#x3c1;" horiz-adv-x="546" 
d="M51 237q0 70 18.5 118.5t49.5 79t71.5 44t84.5 13.5q46 0 88 -13t74.5 -42t51.5 -76.5t19 -117.5q0 -63 -19 -111.5t-53 -81.5t-79.5 -50t-97.5 -17q-31 0 -64 6v-179h-144v427zM195 116q13 -5 28.5 -7t28.5 -2q48 0 78.5 32t30.5 104q0 66 -22 95.5t-62 29.5
q-82 0 -82 -130v-122z" />
    <glyph glyph-name="uni03C2" unicode="&#x3c2;" horiz-adv-x="473" 
d="M419 338q-30 17 -56 23.5t-60 6.5q-60 0 -89 -36.5t-29 -94.5q0 -29 7 -49.5t19.5 -35t29.5 -23t36 -14.5q35 -10 63.5 -20.5t49 -26t32 -38t11.5 -55.5q0 -28 -7.5 -53.5t-20 -48t-28 -42.5t-31.5 -38l-79 64q17 23 28.5 44.5t11.5 41.5q0 22 -17 29.5t-39 12.5
q-49 11 -88.5 29.5t-67.5 48t-43 72.5t-15 103q0 57 17 104t49.5 80.5t79.5 51.5t107 18q42 0 72.5 -6t56.5 -19v-129z" />
    <glyph glyph-name="sigma" unicode="&#x3c3;" horiz-adv-x="604" 
d="M585 339l-87 4q21 -23 32 -60t11 -71q0 -55 -19 -97.5t-53 -72t-80 -44.5t-100 -15q-56 0 -102.5 15.5t-79.5 46.5t-51.5 77t-18.5 107t18.5 107t51.5 77t79.5 46.5t102.5 15.5h296v-136zM289 350q-47 0 -75.5 -30t-28.5 -91t28.5 -91.5t75.5 -30.5t75.5 30.5t28.5 91.5
t-28.5 91t-75.5 30z" />
    <glyph glyph-name="tau" unicode="&#x3c4;" horiz-adv-x="472" 
d="M455 340h-146v-180q0 -25 8.5 -34.5t25.5 -9.5q15 0 27 3.5t24 9.5v-130q-22 -9 -45 -12.5t-43 -3.5q-39 0 -66.5 12t-44 34t-24 53.5t-7.5 69.5v188h-147v135h438v-135z" />
    <glyph glyph-name="upsilon" unicode="&#x3c5;" horiz-adv-x="571" 
d="M456 475q25 -32 46 -92t21 -140q0 -57 -15 -104.5t-44 -82t-72 -54t-100 -19.5q-120 0 -179 66.5t-59 188.5v237h147v-237q0 -61 22 -96t69 -35q45 0 66 36t21 97q0 69 -23.5 130t-58.5 105h159z" />
    <glyph glyph-name="phi" unicode="&#x3c6;" horiz-adv-x="759" 
d="M300 -14q-58 6 -106 24t-83 51.5t-54.5 84t-19.5 122.5q0 40 6 72t16 57.5t21.5 44.5t23.5 33h158q-31 -34 -54.5 -82t-23.5 -116q0 -63 27.5 -106t88.5 -53v125q0 75 17.5 123.5t47 76.5t67 38.5t78.5 10.5q40 0 78 -12.5t68 -40.5t48 -72.5t18 -108.5q0 -68 -21 -117
t-57.5 -82t-87.5 -50.5t-111 -23.5v-175h-145v176zM445 115q68 5 99 45.5t31 106.5q0 45 -17 73t-49 28q-36 0 -50 -30.5t-14 -90.5v-132z" />
    <glyph glyph-name="chi" unicode="&#x3c7;" horiz-adv-x="507" 
d="M175 152l-185 323h165l98 -200l99 200h155l-181 -314l202 -351h-165l-115 228l-114 -228h-155z" />
    <glyph glyph-name="psi" unicode="&#x3c8;" horiz-adv-x="793" 
d="M467 -190h-141v175q-57 2 -108.5 20.5t-90.5 55t-62 90.5t-23 127q0 70 14 115t33 82h157q-24 -39 -38.5 -89.5t-14.5 -108.5q0 -71 34 -113.5t99 -47.5v510h141v-510q65 5 99 47.5t34 113.5q0 58 -14.5 108.5t-38.5 89.5h157q19 -37 33 -82t14 -115q0 -73 -23 -127
t-62 -90.5t-90.5 -55t-108.5 -20.5v-175z" />
    <glyph glyph-name="omega" unicode="&#x3c9;" horiz-adv-x="833" 
d="M416 86q-26 -47 -67 -75t-98 -28q-55 0 -95 19t-66.5 53t-39.5 80.5t-13 102.5q0 43 8 80t20 67t27 52.5t30 37.5h164q-18 -17 -35.5 -43t-31 -57t-21.5 -65t-8 -68q0 -54 18 -87.5t55 -33.5q46 0 63 38t17 99v110h147v-110q0 -30 4 -55.5t13 -43.5t24.5 -28t38.5 -10
q37 0 55 33.5t18 87.5q0 34 -8.5 68t-22 65t-30.5 57t-35 43h164q15 -15 30 -37.5t27 -52.5t20 -67t8 -80q0 -56 -13 -102.5t-39.5 -80.5t-66.5 -53t-95 -19q-57 0 -98.5 28t-67.5 75z" />
    <glyph glyph-name="iotadieresis" unicode="&#x3ca;" horiz-adv-x="316" 
d="M115 568h-126v125h126v-125zM302 568h-126v125h126v-125zM210 160q0 -25 8.5 -34.5t26.5 -9.5q14 0 26.5 3.5t24.5 9.5v-130q-22 -9 -45 -12.5t-44 -3.5q-39 0 -66.5 12t-44 34t-24 53.5t-7.5 69.5v323h145v-315z" />
    <glyph glyph-name="upsilondieresis" unicode="&#x3cb;" horiz-adv-x="571" 
d="M456 475q25 -32 46 -92t21 -140q0 -57 -15 -104.5t-44 -82t-72 -54t-100 -19.5q-120 0 -179 66.5t-59 188.5v237h147v-237q0 -61 22 -96t69 -35q45 0 66 36t21 97q0 69 -23.5 130t-58.5 105h159zM238 568h-126v125h126v-125zM425 568h-126v125h126v-125z" />
    <glyph glyph-name="omicrontonos" unicode="&#x3cc;" 
d="M289 492q56 0 102.5 -17t79.5 -49.5t51.5 -79.5t18.5 -108t-18.5 -108.5t-51.5 -80t-79.5 -49.5t-102.5 -17t-102.5 17t-79.5 49.5t-51.5 80t-18.5 108.5t18.5 108t51.5 79.5t79.5 49.5t102.5 17zM289 368q-47 0 -75.5 -34.5t-28.5 -95.5t28.5 -96t75.5 -35t75.5 35
t28.5 96t-28.5 95.5t-75.5 34.5zM297 710h158l-124 -151h-107z" />
    <glyph glyph-name="upsilontonos" unicode="&#x3cd;" horiz-adv-x="571" 
d="M456 475q25 -32 46 -92t21 -140q0 -57 -15 -104.5t-44 -82t-72 -54t-100 -19.5q-120 0 -179 66.5t-59 188.5v237h147v-237q0 -61 22 -96t69 -35q45 0 66 36t21 97q0 69 -23.5 130t-58.5 105h159zM274 710h158l-124 -151h-107z" />
    <glyph glyph-name="omegatonos" unicode="&#x3ce;" horiz-adv-x="833" 
d="M416 86q-26 -47 -67 -75t-98 -28q-55 0 -95 19t-66.5 53t-39.5 80.5t-13 102.5q0 43 8 80t20 67t27 52.5t30 37.5h164q-18 -17 -35.5 -43t-31 -57t-21.5 -65t-8 -68q0 -54 18 -87.5t55 -33.5q46 0 63 38t17 99v110h147v-110q0 -30 4 -55.5t13 -43.5t24.5 -28t38.5 -10
q37 0 55 33.5t18 87.5q0 34 -8.5 68t-22 65t-30.5 57t-35 43h164q15 -15 30 -37.5t27 -52.5t20 -67t8 -80q0 -56 -13 -102.5t-39.5 -80.5t-66.5 -53t-95 -19q-57 0 -98.5 28t-67.5 75zM436 710h158l-124 -151h-107z" />
    <glyph glyph-name="uni03D0" unicode="&#x3d0;" horiz-adv-x="586" 
d="M47 352q0 184 73 279.5t200 95.5q43 0 82.5 -13t68.5 -38t46.5 -62.5t17.5 -86.5q0 -35 -9 -62t-23 -47t-32.5 -33.5t-37.5 -20.5q22 -7 42.5 -19.5t36.5 -32.5t25.5 -48.5t9.5 -67.5q0 -52 -17.5 -91.5t-48 -66.5t-72 -41t-90.5 -14q-71 0 -122.5 26.5t-84.5 75
t-49 116.5t-16 151zM200 406q35 1 68.5 5t59.5 15.5t42 32.5t16 56q0 33 -18.5 57.5t-60.5 24.5q-47 0 -76.5 -47t-30.5 -144zM312 107q43 0 64 25.5t21 67.5q0 32 -19.5 60.5t-60.5 33.5q-12 -3 -30 -6q-15 -2 -36.5 -4t-49.5 -2q4 -85 32.5 -130t78.5 -45z" />
    <glyph glyph-name="uni03D1" unicode="&#x3d1;" horiz-adv-x="586" 
d="M201 248q-3 -15 -3 -31q0 -22 4 -42t14 -35t25.5 -24t39.5 -9q49 0 74.5 47t25.5 138q-21 -6 -45.5 -9.5t-50.5 -3.5q-43 0 -85.5 10t-76 34.5t-54.5 66t-21 104.5q0 52 17.5 95t49 74t74.5 47.5t94 16.5q46 0 91 -14.5t80.5 -54t57.5 -110.5t22 -183q0 -80 -14 -149.5
t-45 -121t-79.5 -81.5t-118.5 -30q-49 0 -89.5 14t-70 41.5t-45.5 70t-16 99.5q0 11 0.5 20t2.5 20h142zM382 418q0 57 -8.5 91.5t-22.5 54t-32 26t-36 6.5q-36 0 -61 -25.5t-25 -69.5q0 -27 9 -45t23.5 -29.5t33.5 -16t39 -4.5q21 0 42 3.5t38 8.5z" />
    <glyph glyph-name="uni0400" unicode="&#x400;" horiz-adv-x="612" 
d="M543 545h-299v-138h265v-131h-265v-93q0 -26 9.5 -39t36.5 -13h264v-131h-292q-92 0 -133 46t-41 137v493h455v-131zM391 744h-107l-124 151h158z" />
    <glyph glyph-name="afii10023" unicode="&#x401;" horiz-adv-x="612" 
d="M543 545h-299v-138h265v-131h-265v-93q0 -26 9.5 -39t36.5 -13h264v-131h-292q-92 0 -133 46t-41 137v493h455v-131zM285 753h-126v125h126v-125zM472 753h-126v125h126v-125z" />
    <glyph glyph-name="afii10051" unicode="&#x402;" horiz-adv-x="772" 
d="M448 -17q60 13 88.5 58.5t28.5 123.5q0 66 -20.5 106.5t-67.5 40.5q-15 0 -29 -4.5t-27 -10.5t-23 -13.5t-17 -13.5v-270h-157v545h-209v131h575v-131h-209v-136q7 5 20.5 13t32.5 15.5t41.5 12.5t48.5 5q45 0 81 -20t62 -56t40 -87.5t14 -114.5q0 -84 -23.5 -145.5
t-61.5 -102t-87 -60t-101 -19.5v133z" />
    <glyph glyph-name="afii10052" unicode="&#x403;" horiz-adv-x="567" 
d="M552 545h-300v-545h-156v676h456v-131zM332 895h158l-124 -151h-107z" />
    <glyph glyph-name="afii10053" unicode="&#x404;" horiz-adv-x="642" 
d="M45 338q0 76 23 141t68 112.5t110 74.5t149 27q29 0 57 -3t52.5 -8t44.5 -11.5t33 -14.5v-135q-28 17 -76 27.5t-101 10.5q-75 0 -125 -39t-66 -114h295v-130h-297q15 -78 65.5 -119t127.5 -41q45 0 93.5 11.5t87.5 34.5v-135q-35 -20 -80.5 -32t-110.5 -12
q-84 0 -149 27t-110 74.5t-68 112.5t-23 141z" />
    <glyph glyph-name="afii10054" unicode="&#x405;" horiz-adv-x="565" 
d="M492 522q-38 20 -78.5 28.5t-87.5 8.5q-20 0 -39 -3t-33.5 -10.5t-23.5 -21t-9 -33.5q0 -25 21.5 -39.5t54 -27t70.5 -25.5t70.5 -36.5t54 -60t21.5 -94.5q0 -61 -21 -104t-56 -70t-80 -39.5t-92 -12.5q-56 0 -107.5 12.5t-89.5 31.5v136q36 -19 85.5 -32.5t97.5 -13.5
q43 0 71.5 15.5t28.5 57.5q0 28 -21.5 44.5t-54 29.5t-70 26.5t-70 36.5t-54 59.5t-21.5 95.5q0 51 19 90.5t53.5 66.5t83 41t107.5 14q51 0 94.5 -8t75.5 -22v-141v0z" />
    <glyph glyph-name="afii10055" unicode="&#x406;" horiz-adv-x="348" 
d="M252 0h-156v676h156v-676z" />
    <glyph glyph-name="afii10056" unicode="&#x407;" horiz-adv-x="348" 
d="M252 0h-156v676h156v-676zM145 769h-126v125h126v-125zM332 769h-126v125h126v-125z" />
    <glyph glyph-name="afii10057" unicode="&#x408;" horiz-adv-x="433" 
d="M345 200q0 -112 -50.5 -164.5t-144.5 -52.5q-31 0 -61 6t-56 18v135q21 -11 46.5 -18.5t47.5 -7.5q35 0 48.5 18t13.5 60v482h156v-476z" />
    <glyph glyph-name="afii10058" unicode="&#x409;" horiz-adv-x="1024" 
d="M616 676v-220h92q65 0 118 -14t90.5 -42.5t57.5 -71.5t20 -100t-20 -100t-57.5 -71.5t-90.5 -42.5t-118 -14h-248v540h-192v-204q0 -80 -11 -145.5t-38.5 -112t-74.5 -71.5t-120 -25v134q26 3 42.5 17t26.5 41t13.5 67t3.5 95v340h506zM616 131h92q24 0 46.5 4.5t40 15.5
t27.5 29.5t10 47.5t-10 47.5t-27.5 29.5t-40 15.5t-46.5 4.5h-92v-194z" />
    <glyph glyph-name="afii10059" unicode="&#x40a;" horiz-adv-x="1039" 
d="M631 456h91q66 0 119 -14t90.5 -42.5t57.5 -71.5t20 -100t-20 -100t-57.5 -71.5t-90.5 -42.5t-119 -14h-248v325h-222v-325h-156v676h156v-220h222v220h157v-220zM631 131h91q24 0 47 4.5t40 15.5t27.5 29.5t10.5 47.5t-10.5 47.5t-27.5 29.5t-40 15.5t-47 4.5h-91v-194z
" />
    <glyph glyph-name="afii10060" unicode="&#x40b;" horiz-adv-x="790" 
d="M590 545h-209v-136q20 15 58.5 30.5t92.5 15.5q46 0 79.5 -12.5t56 -40.5t33.5 -73t11 -110v-219h-156v218q0 48 -19.5 70.5t-59.5 22.5q-15 0 -29 -4t-27 -10.5t-23 -13.5t-17 -13v-270h-157v545h-209v131h575v-131z" />
    <glyph glyph-name="afii10061" unicode="&#x40c;" horiz-adv-x="693" 
d="M394 353l299 -353h-200l-241 287v-287h-156v676h156v-279l252 279h182zM366 895h158l-124 -151h-107z" />
    <glyph glyph-name="uni040D" unicode="&#x40d;" horiz-adv-x="783" 
d="M687 0h-152v418l-306 -418h-133v676h152v-418l306 418h133v-676zM471 744h-107l-124 151h158z" />
    <glyph glyph-name="afii10062" unicode="&#x40e;" horiz-adv-x="614" 
d="M489 676h149l-260 -539q-16 -32 -35 -60t-44.5 -49t-58 -33t-74.5 -12q-24 0 -50.5 4t-57.5 13v133q47 -17 87 -17q30 0 49 12t35 43l16 32l-237 473h171l150 -314zM247 895q5 -34 25.5 -48t50.5 -14t50.5 14t25.5 48h84q-3 -76 -46.5 -116.5t-113.5 -40.5
q-71 0 -114 40.5t-46 116.5h84z" />
    <glyph glyph-name="afii10145" unicode="&#x40f;" horiz-adv-x="744" 
d="M648 0h-201l-9 -140h-134l-9 140h-199v676h157v-545h238v545h157v-676z" />
    <glyph glyph-name="afii10017" unicode="&#x410;" horiz-adv-x="666" 
d="M674 0h-171l-44 116h-273l-44 -116h-150l273 676h139zM234 242h177l-88 234z" />
    <glyph glyph-name="afii10018" unicode="&#x411;" horiz-adv-x="667" 
d="M552 545h-300v-89h92q65 0 118 -14t90.5 -42.5t58 -71.5t20.5 -100t-20.5 -100t-58 -71.5t-90.5 -42.5t-118 -14h-248v676h456v-131zM252 131h92q24 0 46.5 4.5t40 15.5t27.5 29.5t10 47.5t-10 47.5t-27.5 29.5t-40 15.5t-46.5 4.5h-92v-194z" />
    <glyph glyph-name="afii10019" unicode="&#x412;" horiz-adv-x="669" 
d="M328 676q130 0 204.5 -44t74.5 -141q0 -31 -9 -54.5t-23 -41t-32 -29.5t-36 -19q21 -5 41.5 -16t37.5 -30t27.5 -45.5t10.5 -60.5q0 -53 -22 -90.5t-61.5 -60.5t-94 -33.5t-118.5 -10.5h-232v676h232zM252 406h76q53 0 85 13.5t32 56.5t-32 56t-85 13h-76v-139zM252 131
h81q27 0 50.5 3.5t41 12.5t27.5 23.5t10 35.5t-10 35.5t-27.5 23t-41 12t-50.5 3.5h-81v-149z" />
    <glyph glyph-name="afii10020" unicode="&#x413;" horiz-adv-x="567" 
d="M552 545h-300v-545h-156v676h456v-131z" />
    <glyph glyph-name="afii10021" unicode="&#x414;" horiz-adv-x="695" 
d="M599 676v-545h54v-271h-130l-5 140h-374l-5 -140h-130v271h38q22 31 35 64.5t20 72.5t9 85.5t2 104.5v218h486zM258 458q0 -53 -1 -97.5t-6 -83.5t-15.5 -75t-29.5 -71h237v409h-185v-82z" />
    <glyph glyph-name="afii10022" unicode="&#x415;" horiz-adv-x="612" 
d="M543 545h-299v-138h265v-131h-265v-93q0 -26 9.5 -39t36.5 -13h264v-131h-292q-92 0 -133 46t-41 137v493h455v-131z" />
    <glyph glyph-name="afii10024" unicode="&#x416;" horiz-adv-x="1037" 
d="M7 676h182l251 -289v289h157v-289l251 289h182l-251 -283l258 -393h-194l-179 276l-67 -68v-208h-157v208l-67 68l-179 -276h-194l258 393z" />
    <glyph glyph-name="afii10025" unicode="&#x417;" horiz-adv-x="543" 
d="M139 407h78q51 0 82.5 20t31.5 58q0 40 -29.5 57t-77.5 17q-54 0 -94.5 -13.5t-74.5 -33.5v138q39 21 84 32t98 11q57 0 104 -11.5t81 -36t53 -62t19 -88.5q0 -54 -30.5 -93.5t-84.5 -56.5q54 -15 88 -54t34 -104q0 -51 -20 -89.5t-55.5 -64t-84 -38t-105.5 -12.5
q-53 0 -102.5 11t-88.5 32v138q35 -18 82.5 -33t95.5 -15q24 0 44.5 4t36.5 13t25 24.5t9 39.5q0 43 -32 58.5t-80 15.5h-87v136z" />
    <glyph glyph-name="afii10026" unicode="&#x418;" horiz-adv-x="783" 
d="M687 0h-152v418l-306 -418h-133v676h152v-418l306 418h133v-676z" />
    <glyph glyph-name="afii10027" unicode="&#x419;" horiz-adv-x="783" 
d="M687 0h-152v418l-306 -418h-133v676h152v-418l306 418h133v-676zM315 895q5 -34 25.5 -48t50.5 -14t50.5 14t25.5 48h84q-3 -76 -46.5 -116.5t-113.5 -40.5q-71 0 -114 40.5t-46 116.5h84z" />
    <glyph glyph-name="afii10028" unicode="&#x41a;" horiz-adv-x="693" 
d="M435 393l258 -393h-194l-179 276l-68 -68v-208h-156v676h156v-289l252 289h182z" />
    <glyph glyph-name="afii10029" unicode="&#x41b;" horiz-adv-x="731" 
d="M635 676v-676h-156v540h-211v-204q0 -80 -11 -145.5t-38.5 -111.5t-74.5 -71t-120 -25v133q26 3 42.5 17t26.5 41t13.5 67t3.5 95v340h525z" />
    <glyph glyph-name="afii10030" unicode="&#x41c;" horiz-adv-x="943" 
d="M406 131l-156 279v-410h-154v676h152l224 -384l223 384h152v-676h-153v410l-157 -279h-131z" />
    <glyph glyph-name="afii10031" unicode="&#x41d;" horiz-adv-x="793" 
d="M697 0h-156v277h-289v-277h-156v676h156v-263h289v263h156v-676z" />
    <glyph glyph-name="afii10032" unicode="&#x41e;" horiz-adv-x="807" 
d="M404 693q80 0 146 -24.5t113 -70t73 -111.5t26 -149t-26 -149t-73 -112t-113 -70t-146 -24t-146.5 24t-113.5 70t-73 112t-26 149t26 149t73 111.5t113.5 70t146.5 24.5zM404 559q-97 0 -147 -60.5t-50 -160.5q0 -50 12.5 -91t37.5 -70t62 -45t85 -16t84.5 16t61.5 45
t37.5 70t12.5 91t-12.5 90.5t-37.5 69.5t-61.5 45t-84.5 16z" />
    <glyph glyph-name="afii10033" unicode="&#x41f;" horiz-adv-x="771" 
d="M675 0h-157v545h-266v-545h-156v676h579v-676z" />
    <glyph glyph-name="afii10034" unicode="&#x420;" horiz-adv-x="675" 
d="M252 0h-156v676h248q65 0 118 -14t90.5 -42.5t58 -71.5t20.5 -100t-20.5 -100t-58 -71.5t-90.5 -42.5t-118 -14h-92v-220zM252 351h92q24 0 46.5 4.5t40 15.5t27.5 29.5t10 47.5t-10 47.5t-27.5 29.5t-40 15.5t-46.5 4.5h-92v-194z" />
    <glyph glyph-name="afii10035" unicode="&#x421;" horiz-adv-x="633" 
d="M45 338q0 76 23 141t68 112.5t110 74.5t149 27q29 0 57 -3t52.5 -8t44.5 -11.5t33 -14.5v-135q-28 17 -76 27.5t-101 10.5q-91 0 -144.5 -56.5t-53.5 -164.5t53.5 -165t144.5 -57q45 0 93.5 11.5t87.5 34.5v-135q-35 -20 -80.5 -32t-110.5 -12q-84 0 -149 27t-110 74.5
t-68 112.5t-23 141z" />
    <glyph glyph-name="afii10036" unicode="&#x422;" horiz-adv-x="605" 
d="M590 545h-209v-545h-157v545h-209v131h575v-131z" />
    <glyph glyph-name="afii10037" unicode="&#x423;" horiz-adv-x="614" 
d="M489 676h149l-260 -539q-16 -32 -35 -60t-44.5 -49t-58 -33t-74.5 -12q-24 0 -50.5 4t-57.5 13v133q47 -17 87 -17q30 0 49 12t35 43l16 32l-237 473h171l150 -314z" />
    <glyph glyph-name="afii10038" unicode="&#x424;" horiz-adv-x="807" 
d="M482 -34h-156v76q-62 7 -113.5 29t-89 59.5t-58 89.5t-20.5 118t20.5 118t58 89.5t89 59.5t113.5 29v76h156v-76q61 -7 112.5 -29t89 -59.5t58 -89.5t20.5 -118t-20.5 -118t-58 -89.5t-89 -59.5t-112.5 -29v-76zM600 338q0 60 -30 105.5t-88 58.5v-330q58 13 88 59
t30 107zM207 338q0 -61 29.5 -107t89.5 -59v330q-60 -13 -89.5 -58.5t-29.5 -105.5z" />
    <glyph glyph-name="afii10039" unicode="&#x425;" horiz-adv-x="653" 
d="M414 355l239 -355h-180l-150 227l-154 -227h-169l240 346l-221 330h178l134 -200l136 200h169z" />
    <glyph glyph-name="afii10040" unicode="&#x426;" horiz-adv-x="744" 
d="M567 0h-471v676h157v-545h238v545h157v-545h53v-271h-130z" />
    <glyph glyph-name="afii10041" unicode="&#x427;" horiz-adv-x="717" 
d="M467 248q-25 -18 -67.5 -35t-95.5 -17q-56 0 -101 17t-77 51t-49.5 83.5t-17.5 114.5v214h157v-213q0 -69 29 -96t83 -27q24 0 45 5.5t39 13.5t32 17t23 16v284h154v-676h-154v248z" />
    <glyph glyph-name="afii10042" unicode="&#x428;" horiz-adv-x="1053" 
d="M957 0h-861v676h156v-545h196v545h157v-545h196v545h156v-676z" />
    <glyph glyph-name="afii10043" unicode="&#x429;" horiz-adv-x="1053" 
d="M876 0h-780v676h156v-545h196v545h157v-545h196v545h156v-544h54v-272h-130z" />
    <glyph glyph-name="afii10044" unicode="&#x42a;" horiz-adv-x="728" 
d="M15 676h305v-220h91q66 0 119 -14t90.5 -42.5t57.5 -71.5t20 -100t-20 -100t-57.5 -71.5t-90.5 -42.5t-119 -14h-248v545h-148v131zM320 131h91q24 0 46.5 4.5t40 15.5t27.5 29.5t10 47.5t-10 47.5t-27.5 29.5t-40 15.5t-46.5 4.5h-91v-194z" />
    <glyph glyph-name="afii10045" unicode="&#x42b;" horiz-adv-x="1011" 
d="M252 676h-156v-675.959h248q65 0 118 13.999t90.5 42.498q37.5 28.498 58 71.4951q20.5 42.998 20.5 99.9941t-20.5 99.9941q-20.5 42.9971 -58 71.4951q-37.5 28.499 -90.5 42.498t-118 13.999h-92v219.986zM252 325.021h92q24 0 46.5 -4.5t40 -15.499t27.5 -29.498
t10 -47.4971t-10 -47.4971t-27.5 -29.498t-40 -15.499t-46.5 -4.5h-92v193.988zM914 0h-156v676h156v-676z" />
    <glyph glyph-name="afii10046" unicode="&#x42c;" horiz-adv-x="661" 
d="M252 676h-156v-675.959h248q65 0 118 13.999t90.5 42.498q37.5 28.498 58 71.4951q20.5 42.998 20.5 99.9941t-20.5 99.9941q-20.5 42.9971 -58 71.4951q-37.5 28.499 -90.5 42.498t-118 13.999h-92v219.986zM252 325.021h92q24 0 46.5 -4.5t40 -15.499t27.5 -29.498
t10 -47.4971t-10 -47.4971t-27.5 -29.498t-40 -15.499t-46.5 -4.5h-92v193.988z" />
    <glyph glyph-name="afii10047" unicode="&#x42d;" horiz-adv-x="642" 
d="M597.003 338q0 76 -22.999 141q-22.998 65 -67.9961 112.5q-44.9971 47.5 -109.993 74.5t-148.99 27q-28.999 0 -56.9971 -3t-52.4961 -8q-24.499 -5 -44.498 -11.5q-19.998 -6.5 -32.998 -14.5v-135q27.999 17 75.9961 27.5t100.993 10.5q74.9961 0 124.993 -39
q49.9961 -39 65.9951 -114h-294.981v-130h296.981q-14.999 -78 -65.4961 -119t-127.492 -41q-44.9971 0 -93.4941 11.5t-87.4941 34.5v-135q34.9971 -20 80.4951 -32q45.4971 -12 110.493 -12q83.9941 0 148.99 27t109.993 74.5q44.998 47.5 67.9961 112.5
q22.999 65 22.999 141z" />
    <glyph glyph-name="afii10048" unicode="&#x42e;" horiz-adv-x="1113" 
d="M710 693q80 0 146 -24.5t113 -70t73 -111.5t26 -149t-26 -149t-73 -112t-113 -70t-146 -24q-72 0 -133.5 20t-107.5 57.5t-76 92.5t-39 124h-102v-277h-156v676h156v-263h105q11 66 41 118t75.5 88t105.5 55t131 19zM710 559q-97 0 -147 -60.5t-50 -160.5q0 -50 12.5 -91
t37.5 -70t62 -45t85 -16t84.5 16t61.5 45t37.5 70t12.5 91t-12.5 90.5t-37.5 69.5t-61.5 45t-84.5 16z" />
    <glyph glyph-name="afii10049" unicode="&#x42f;" horiz-adv-x="678" 
d="M426.016 0h155.99v676h-257.984q-61.9961 0 -112.993 -14.5t-87.4941 -43q-36.498 -28.5 -56.4971 -70.5t-19.999 -96q0 -76 38.998 -124.5t108.993 -68.5l-158.99 -259h175.989l131.992 226h81.9951v-226zM426.016 357h-91.9941q-23.999 0 -46.498 4
q-22.498 4 -39.9971 14.5t-27.498 28.5q-10 18 -10 47t10 47q9.99902 18 27.498 28.5t39.9971 14.5q22.499 4 46.498 4h91.9941v-188z" />
    <glyph glyph-name="afii10065" unicode="&#x430;" horiz-adv-x="560" 
d="M495 0h-114l-11 42q-23 -28 -54.5 -43.5t-73.5 -15.5q-38 0 -74.5 14t-65.5 44t-47 76.5t-18 110.5q0 63 18.5 112t52.5 83t82.5 51.5t107.5 17.5t104 -9t93 -25v-458zM350 362q-23 6 -47 6q-23 0 -44.5 -7t-38 -22.5t-26.5 -41t-10 -62.5q0 -64 26.5 -91.5t67.5 -27.5
q19 0 38 5.5t34 19.5v221z" />
    <glyph glyph-name="afii10066" unicode="&#x431;" 
d="M318 492q107 0 165 -66t58 -188q0 -61 -18.5 -108.5t-51.5 -80t-79.5 -49.5t-102.5 -17q-66 0 -113.5 23.5t-78 67t-45.5 105.5t-15 139q0 85 16.5 149.5t45.5 110t70 73.5t90 40q63 15 119.5 21.5t116.5 15.5v-139q-34 -4 -66.5 -6t-62.5 -5.5t-57 -8.5t-49 -15
q-39 -17 -65 -48.5t-34 -88.5q23 36 63 55.5t94 19.5zM289 368q-47 0 -75.5 -34.5t-28.5 -95.5t28.5 -96t75.5 -35t75.5 35t28.5 96t-28.5 95.5t-75.5 34.5z" />
    <glyph glyph-name="afii10067" unicode="&#x432;" horiz-adv-x="571" 
d="M284 475q56 0 99.5 -6t73.5 -21t45.5 -40t15.5 -63q0 -44 -26 -69t-60 -32q18 -2 36 -10t33 -21.5t24 -32.5t9 -43q0 -41 -18.5 -67.5t-51.5 -42t-79 -21.5t-101 -6h-211v475h211zM217 288h62q46 0 68.5 8t22.5 38q0 31 -22.5 38.5t-68.5 7.5h-62v-92zM217 95h77
q47 0 69 10t22 40t-22 39.5t-69 9.5h-77v-99z" />
    <glyph glyph-name="afii10068" unicode="&#x433;" horiz-adv-x="419" 
d="M73 0v475h327v-135h-182v-340h-145z" />
    <glyph glyph-name="afii10069" unicode="&#x434;" horiz-adv-x="564" 
d="M127 0l-9 -140h-111v272h37q23 28 32 70.5t9 106.5v166h400v-343h45v-272h-112l-8 140h-283zM341 340h-123v-31q0 -36 -2.5 -63t-7 -47.5t-12 -36.5t-16.5 -30h161v208z" />
    <glyph glyph-name="afii10070" unicode="&#x435;" horiz-adv-x="545" 
d="M191 188q4 -24 16.5 -39.5t30.5 -24.5t41 -13t47 -4q23 0 47 3t46 7.5t40.5 10.5t32.5 12v-123q-14 -8 -36 -14t-47.5 -10.5t-51.5 -7t-49 -2.5q-54 0 -103.5 13.5t-86.5 43.5t-59 79.5t-22 121.5q0 61 18.5 108t51.5 78.5t77 48t95 16.5q59 0 102 -18.5t71 -48.5
t41.5 -69t13.5 -81v-87h-316zM360 289q-2 52 -27 70.5t-58 18.5q-34 0 -57 -20.5t-28 -68.5h170z" />
    <glyph glyph-name="afii10072" unicode="&#x436;" horiz-adv-x="802" 
d="M-1 475h170l160 -199v199h144v-199l160 199h170l-179 -203l181 -272h-168l-113 170l-51 -57v-113h-144v113l-51 57l-112 -170h-169l181 272z" />
    <glyph glyph-name="afii10073" unicode="&#x437;" horiz-adv-x="510" 
d="M57.0273 341q15 7 35.498 13q20.499 6 41.998 9.5q21.498 3.5 42.9971 5.5t38.498 2q39.9971 0 67.4951 -8.5q27.499 -8.5 27.499 -33.5q0 -20 -20.999 -27.5t-56.9961 -7.5h-84.9951v-112h75.9951q50.9971 0 74.9951 -8q23.999 -8 23.999 -29q0 -23 -25.998 -30.5
q-25.999 -7.5 -71.9961 -7.5q-21.999 0 -46.9971 2.5q-24.999 2.5 -48.4971 6.5q-23.499 4 -43.9971 9.5q-20.499 5.5 -33.498 11.5v-126q12.999 -6 34.998 -11q21.998 -5 47.4971 -8.5q25.498 -3.5 51.4961 -6q25.999 -2.5 46.998 -2.5q123.992 0 181.988 34.5
t57.9961 101.5q0 30 -10.499 51t-26.998 35t-36.498 22t-38.9971 11q17.998 4 35.4971 12t31.998 21.5t22.999 33q8.49902 19.5 8.49902 48.5q0 63 -57.4961 101t-172.489 38q-20.999 0 -45.4971 -2q-24.499 -2 -48.4971 -5q-23.999 -3 -44.498 -7.5
q-20.498 -4.5 -33.498 -10.5v-126z" />
    <glyph glyph-name="afii10074" unicode="&#x438;" horiz-adv-x="613" 
d="M218 204l177 271h145v-475h-145v270l-177 -270h-145v475h145v-271z" />
    <glyph glyph-name="afii10075" unicode="&#x439;" horiz-adv-x="613" 
d="M218 204l177 271h145v-475h-145v270l-177 -270h-145v475h145v-271zM230 710q5 -34 25.5 -48t50.5 -14t50.5 14t25.5 48h84q-3 -76 -46.5 -116.5t-113.5 -40.5q-71 0 -114 40.5t-46 116.5h84z" />
    <glyph glyph-name="afii10076" unicode="&#x43a;" horiz-adv-x="547" 
d="M368 272l181 -272h-168l-112 170l-51 -57v-113h-145v475h145v-199l159 199h170z" />
    <glyph glyph-name="afii10077" unicode="&#x43b;" horiz-adv-x="580" 
d="M362 0v340h-137v-47q0 -71 -11 -128t-37 -97.5t-69.5 -62.5t-107.5 -22v128q27 4 44 14.5t27 31.5t14 54.5t4 82.5v181h418v-475h-145z" />
    <glyph glyph-name="afii10078" unicode="&#x43c;" horiz-adv-x="786" 
d="M217 0h-144v475h160l160 -281l160 281h160v-475h-144v263l-107 -189h-137l-108 189v-263z" />
    <glyph glyph-name="afii10079" unicode="&#x43d;" horiz-adv-x="604" 
d="M387 0v186h-169v-186h-145v475h145v-156h169v156h144v-475h-144z" />
    <glyph glyph-name="afii10080" unicode="&#x43e;" 
d="M289 492q56 0 102.5 -17t79.5 -49.5t51.5 -79.5t18.5 -108t-18.5 -108.5t-51.5 -80t-79.5 -49.5t-102.5 -17t-102.5 17t-79.5 49.5t-51.5 80t-18.5 108.5t18.5 108t51.5 79.5t79.5 49.5t102.5 17zM289 368q-47 0 -75.5 -34.5t-28.5 -95.5t28.5 -96t75.5 -35t75.5 35
t28.5 96t-28.5 95.5t-75.5 34.5z" />
    <glyph glyph-name="afii10081" unicode="&#x43f;" horiz-adv-x="597" 
d="M379 0v340h-161v-340h-145v475h451v-475h-145z" />
    <glyph glyph-name="afii10082" unicode="&#x440;" horiz-adv-x="568" 
d="M211 439q18 19 49.5 36t72.5 17q34 0 69 -13t63.5 -42t46.5 -76.5t18 -117.5q0 -63 -19 -111.5t-52.5 -81.5t-79 -50t-98.5 -17q-32 0 -63 6v-179h-145v665h129zM218 115q13 -5 25.5 -6.5t24.5 -1.5q24 0 44.5 7t36.5 23t25 41t9 61q0 66 -26.5 94.5t-66.5 28.5
q-43 0 -72 -24v-223z" />
    <glyph glyph-name="afii10083" unicode="&#x441;" horiz-adv-x="484" 
d="M419 338q-30 17 -56 23.5t-60 6.5q-60 0 -89 -36.5t-29 -94.5t29 -94t89 -36q32 0 61.5 8t59.5 25v-129q-26 -13 -61 -20.5t-77 -7.5q-61 0 -107.5 20t-78 54.5t-47.5 81t-16 99.5q0 57 17.5 104t50 80.5t79.5 51.5t106 18q42 0 72.5 -6t56.5 -19v-129z" />
    <glyph glyph-name="afii10084" unicode="&#x442;" horiz-adv-x="472" 
d="M164 0v340h-147v135h438v-135h-146v-340h-145z" />
    <glyph glyph-name="afii10085" unicode="&#x443;" horiz-adv-x="500" 
d="M316 -17q-38 -101 -101.5 -146t-162.5 -45v124q15 1 33 5.5t35.5 15t33 28.5t26.5 45l-180 465h152l99 -313l103 313h146z" />
    <glyph glyph-name="afii10086" unicode="&#x444;" horiz-adv-x="711" 
d="M426 -190h-141v177q-57 6 -103 23.5t-78 48.5t-49.5 75t-17.5 104q0 59 17.5 103t49.5 74.5t78 48.5t103 24v188h141v-188q56 -6 101.5 -24t78 -48.5t50 -74.5t17.5 -103q0 -60 -17.5 -104t-50 -75t-78 -48.5t-101.5 -23.5v-177zM527 238q0 51 -26.5 82t-74.5 43v-251
q48 12 74.5 43t26.5 83zM184 238q0 -52 26.5 -83t74.5 -43v251q-48 -12 -74.5 -43t-26.5 -82z" />
    <glyph glyph-name="afii10087" unicode="&#x445;" horiz-adv-x="515" 
d="M343 238l164 -238h-172l-85 134l-82 -134h-161l162 240l-161 235h174l79 -133l77 133h163z" />
    <glyph glyph-name="afii10088" unicode="&#x446;" horiz-adv-x="591" 
d="M436 0h-363v475h145v-344h149v344h145v-344h44v-271h-111z" />
    <glyph glyph-name="afii10089" unicode="&#x447;" horiz-adv-x="547" 
d="M330 156q-23 -19 -52 -30.5t-68 -11.5q-80 0 -124 49t-44 141v171h145v-161q0 -34 17.5 -50.5t46.5 -16.5q23 0 43.5 10t35.5 24v194h144v-475h-144v156z" />
    <glyph glyph-name="afii10090" unicode="&#x448;" horiz-adv-x="845" 
d="M772 475v-475h-699v475h145v-344h132v344h145v-344h132v344h145z" />
    <glyph glyph-name="afii10091" unicode="&#x449;" horiz-adv-x="851" 
d="M696 0h-623v475h145v-344h132v344h145v-344h132v344h145v-344h44v-271h-111z" />
    <glyph glyph-name="afii10092" unicode="&#x44a;" horiz-adv-x="569" 
d="M8 475h244v-134h57q55 0 100 -7.5t76.5 -26.5t49 -51.5t17.5 -82.5q0 -55 -17.5 -89t-49 -52.5t-76.5 -25t-100 -6.5h-201v340h-100v135zM252 116h61q47 0 68.5 12.5t21.5 44.5q0 30 -21.5 42t-68.5 12h-61v-111z" />
    <glyph glyph-name="afii10093" unicode="&#x44b;" horiz-adv-x="800" 
d="M217 475v-134h57q55 0 100 -7.5t77 -26.5t49 -51.5t17 -82.5q0 -55 -17 -89t-49 -52.5t-77 -25t-100 -6.5h-201v475h144zM217 116h61q47 0 68.5 12.5t21.5 44.5q0 30 -21.5 42t-68.5 12h-61v-111zM727 0h-145v475h145v-475z" />
    <glyph glyph-name="afii10094" unicode="&#x44c;" horiz-adv-x="535" 
d="M217 475v-134h57q55 0 100 -7.5t77 -26.5t49 -51.5t17 -82.5q0 -55 -17 -89t-49 -52.5t-77 -25t-100 -6.5h-201v475h144zM217 116h61q47 0 68.5 12.5t21.5 44.5q0 30 -21.5 42t-68.5 12h-61v-111z" />
    <glyph glyph-name="afii10095" unicode="&#x44d;" horiz-adv-x="481" 
d="M63.0254 338q29.998 17 55.9971 23.5q25.998 6.5 59.9961 6.5q42.9971 0 69.9961 -19q26.998 -19 37.9971 -52h-175.989v-113h178.989q-10.999 -36 -38.498 -56.5q-27.498 -20.5 -72.4951 -20.5q-31.998 0 -61.4961 8t-59.4971 25v-129q25.999 -13 60.9971 -20.5
q34.9971 -7.5 76.9951 -7.5q60.9961 0 107.493 20t77.9951 54.5t47.4971 81t15.999 99.5q0 57 -17.499 104t-49.9961 80.5q-32.498 33.5 -79.4951 51.5q-46.998 18 -105.994 18q-41.9971 0 -72.4951 -6t-56.4971 -19v-129z" />
    <glyph glyph-name="afii10096" unicode="&#x44e;" horiz-adv-x="841" 
d="M552 492q56 0 102.5 -17t79.5 -49.5t51 -79.5t18 -108t-18 -108.5t-51 -80t-79.5 -49.5t-102.5 -17q-101 0 -167.5 52.5t-81.5 150.5h-85v-186h-145v475h145v-146h95q23 79 85.5 121t153.5 42zM552 368q-47 0 -75.5 -34.5t-28.5 -95.5t28.5 -96t75.5 -35t75 35t28 96
t-28 95.5t-75 34.5z" />
    <glyph glyph-name="afii10097" unicode="&#x44f;" horiz-adv-x="581" 
d="M151 167q-44 16 -74 49t-30 95q0 43 17 74.5t49 51t76.5 29t100.5 9.5h217v-475h-143v135h-76l-93 -135h-163zM364 360h-78q-47 0 -69 -12.5t-22 -44.5q0 -30 22 -42t69 -12h78v111z" />
    <glyph glyph-name="uni0450" unicode="&#x450;" horiz-adv-x="545" 
d="M191 188q4 -24 16.5 -39.5t30.5 -24.5t41 -13t47 -4q23 0 47 3t46 7.5t40.5 10.5t32.5 12v-123q-14 -8 -36 -14t-47.5 -10.5t-51.5 -7t-49 -2.5q-54 0 -103.5 13.5t-86.5 43.5t-59 79.5t-22 121.5q0 61 18.5 108t51.5 78.5t77 48t95 16.5q59 0 102 -18.5t71 -48.5
t41.5 -69t13.5 -81v-87h-316zM360 289q-2 52 -27 70.5t-58 18.5q-34 0 -57 -20.5t-28 -68.5h170zM340 559h-107l-124 151h158z" />
    <glyph glyph-name="afii10071" unicode="&#x451;" horiz-adv-x="545" 
d="M191 188q4 -24 16.5 -39.5t30.5 -24.5t41 -13t47 -4q23 0 47 3t46 7.5t40.5 10.5t32.5 12v-123q-14 -8 -36 -14t-47.5 -10.5t-51.5 -7t-49 -2.5q-54 0 -103.5 13.5t-86.5 43.5t-59 79.5t-22 121.5q0 61 18.5 108t51.5 78.5t77 48t95 16.5q59 0 102 -18.5t71 -48.5
t41.5 -69t13.5 -81v-87h-316zM360 289q-2 52 -27 70.5t-58 18.5q-34 0 -57 -20.5t-28 -68.5h170zM249 568h-126v125h126v-125zM436 568h-126v125h126v-125z" />
    <glyph glyph-name="afii10099" unicode="&#x452;" horiz-adv-x="575" 
d="M-1 639h74v71h145v-71h165v-80h-165v-113q23 20 55.5 33t67.5 13q51 0 86.5 -21.5t57.5 -58.5t32 -87.5t10 -108.5q0 -95 -19.5 -162.5t-54 -110.5t-82 -63t-102.5 -20v124q26 3 47 17t36 40t23 65.5t8 95.5q0 74 -18 114t-70 40q-23 0 -43 -9t-34 -17v-330h-145v559h-74
v80z" />
    <glyph glyph-name="afii10100" unicode="&#x453;" horiz-adv-x="421" 
d="M245 710h158l-124 -151h-107zM73 0v475h327v-135h-182v-340h-145z" />
    <glyph glyph-name="afii10101" unicode="&#x454;" horiz-adv-x="481" 
d="M419 338q-30 17 -56 23.5t-60 6.5q-43 0 -70 -19t-38 -52h176v-113h-179q11 -36 38.5 -56.5t72.5 -20.5q32 0 61.5 8t59.5 25v-129q-26 -13 -61 -20.5t-77 -7.5q-61 0 -107.5 20t-78 54.5t-47.5 81t-16 99.5q0 57 17.5 104t50 80.5t79.5 51.5t106 18q42 0 72.5 -6
t56.5 -19v-129z" />
    <glyph glyph-name="afii10102" unicode="&#x455;" horiz-adv-x="457" 
d="M422 346q-32 16 -75.5 24t-81.5 8q-33 0 -56.5 -8.5t-23.5 -29.5q0 -17 19 -24t47.5 -11.5t62 -10t62 -20.5t47.5 -43t19 -77q0 -45 -17 -77.5t-46.5 -53t-69 -30.5t-84.5 -10q-55 0 -97 9.5t-78 26.5v127q45 -23 87.5 -33t86.5 -10q38 0 55.5 9.5t17.5 30.5
q0 17 -19 24.5t-47.5 12.5t-61.5 11t-61.5 20.5t-47.5 41t-19 72.5q0 45 17.5 76.5t47.5 52t70.5 29.5t86.5 9q45 0 86.5 -6t72.5 -17v-123z" />
    <glyph glyph-name="afii10103" unicode="&#x456;" horiz-adv-x="291" 
d="M218 0h-145v475h145v-475zM218 562h-145v131h145v-131z" />
    <glyph glyph-name="afii10104" unicode="&#x457;" horiz-adv-x="291" 
d="M218 0h-145v475h145v-475zM116 568h-126v125h126v-125zM303 568h-126v125h126v-125z" />
    <glyph glyph-name="afii10105" unicode="&#x458;" horiz-adv-x="291" 
d="M218 475v-505q0 -38 -8.5 -70.5t-26 -56t-44.5 -37t-63 -13.5q-21 0 -44 4t-45 13v129q12 -6 24.5 -9.5t26.5 -3.5q18 0 26.5 9.5t8.5 34.5v505h145zM218 562h-145v131h145v-131z" />
    <glyph glyph-name="afii10106" unicode="&#x459;" horiz-adv-x="798" 
d="M480 116h61q47 0 69 12.5t22 44.5q0 30 -22 42t-69 12h-61v-111zM480 475v-134h57q55 0 100 -7.5t77 -26.5t49 -51.5t17 -82.5q0 -55 -17 -89t-49 -52.5t-77 -25t-100 -6.5h-201v340h-111v-47q0 -71 -11 -128t-37 -97.5t-69.5 -62.5t-107.5 -22v128q27 4 44 14.5t27 31.5
t14 54.5t4 82.5v181h391z" />
    <glyph glyph-name="afii10107" unicode="&#x45a;" horiz-adv-x="830" 
d="M512 475v-134h57q55 0 100 -7.5t77 -26.5t49 -51.5t17 -82.5q0 -55 -17 -89t-49 -52.5t-77 -25t-100 -6.5h-201v225h-150v-225h-145v475h145v-133h150v133h144zM512 116h61q47 0 68.5 12.5t21.5 44.5q0 30 -21.5 42t-68.5 12h-61v-111z" />
    <glyph glyph-name="afii10108" unicode="&#x45b;" horiz-adv-x="594" 
d="M0 639h74v71h144v-71h166v-80h-166v-114q27 22 64 34.5t72 12.5q36 0 67.5 -11t54.5 -35t36.5 -61.5t13.5 -89.5v-295h-144v284q0 41 -22.5 57.5t-52.5 16.5q-29 0 -50 -9t-38 -19v-330h-145v559h-74v80z" />
    <glyph glyph-name="afii10109" unicode="&#x45c;" horiz-adv-x="547" 
d="M368 272l181 -272h-168l-112 170l-51 -57v-113h-145v475h145v-199l159 199h170zM293 710h158l-124 -151h-107z" />
    <glyph glyph-name="uni045D" unicode="&#x45d;" horiz-adv-x="613" 
d="M218 204l177 271h145v-475h-145v270l-177 -270h-145v475h145v-271zM369 559h-107l-124 151h158z" />
    <glyph glyph-name="afii10110" unicode="&#x45e;" horiz-adv-x="500" 
d="M316 -17q-38 -101 -101.5 -146t-162.5 -45v124q15 1 33 5.5t35.5 15t33 28.5t26.5 45l-180 465h152l99 -313l103 313h146zM175 710q5 -34 25.5 -48t50.5 -14t50.5 14t25.5 48h84q-3 -76 -46.5 -116.5t-113.5 -40.5q-71 0 -114 40.5t-46 116.5h84z" />
    <glyph glyph-name="afii10193" unicode="&#x45f;" horiz-adv-x="584" 
d="M511 475v-475h-155l-4 -140h-120l-4 140h-155v475h144v-344h149v344h145z" />
    <glyph glyph-name="afii10146" unicode="&#x462;" horiz-adv-x="671" 
d="M263 456h91q66 0 119 -14t90.5 -42.5t57.5 -71.5t20 -100t-20 -100t-57.5 -71.5t-90.5 -42.5t-119 -14h-248v551h-81v111h81v48h157v-48h164v-111h-164v-95zM263 131h91q24 0 47 4.5t40 15.5t27.5 29.5t10.5 47.5t-10.5 47.5t-27.5 29.5t-40 15.5t-47 4.5h-91v-194z" />
    <glyph glyph-name="afii10194" unicode="&#x463;" horiz-adv-x="572" 
d="M0 475h110v151h144v-151h155v-80h-155v-54h57q55 0 100 -7.5t77 -26.5t49 -51.5t17 -82.5q0 -55 -17 -89t-49 -52.5t-77 -25t-100 -6.5h-201v395h-110v80zM254 116h61q47 0 68.5 12.5t21.5 44.5q0 30 -21.5 42t-68.5 12h-61v-111z" />
    <glyph glyph-name="afii10147" unicode="&#x472;" horiz-adv-x="807" 
d="M404 693q80 0 146 -24.5t113 -70t73 -111.5t26 -149t-26 -149t-73 -112t-113 -70t-146 -24t-146.5 24t-113.5 70t-73 112t-26 149t26 149t73 111.5t113.5 70t146.5 24.5zM404 116q81 0 128.5 43.5t61.5 118.5h-382q14 -75 62.5 -118.5t129.5 -43.5zM404 559
q-80 0 -127.5 -41t-62.5 -112h379q-15 71 -63 112t-126 41z" />
    <glyph glyph-name="afii10195" unicode="&#x473;" 
d="M289 492q56 0 102.5 -17t79.5 -49.5t51.5 -79.5t18.5 -108t-18.5 -108.5t-51.5 -80t-79.5 -49.5t-102.5 -17t-102.5 17t-79.5 49.5t-51.5 80t-18.5 108.5t18.5 108t51.5 79.5t79.5 49.5t102.5 17zM289 368q-36 0 -61.5 -21t-36.5 -59h196q-11 38 -36.5 59t-61.5 21z
M289 107q35 0 60 20t36 57h-193q11 -37 36.5 -57t60.5 -20z" />
    <glyph glyph-name="afii10148" unicode="&#x474;" horiz-adv-x="671" 
d="M171 676l180 -474l138 368q14 37 28.5 60.5t32 37.5t37.5 20t46 6q8 0 16 -0.5t17 -1.5v-129h-8q-27 0 -44 -45l-210 -518h-134l-270 676h171z" />
    <glyph glyph-name="afii10196" unicode="&#x475;" horiz-adv-x="510" 
d="M326 368q12 37 26.5 61t32 38t38.5 19.5t47 5.5q8 0 16 -0.5t17 -1.5v-129h-8q-19 0 -30 -11.5t-19 -33.5l-122 -316h-141l-176 475h152l101 -302z" />
    <glyph glyph-name="afii10050" unicode="&#x490;" horiz-adv-x="561" 
d="M252 545v-545h-156v676h315l5 140h130v-271h-294z" />
    <glyph glyph-name="afii10098" unicode="&#x491;" horiz-adv-x="419" 
d="M218 340v-340h-145v475h208l9 142h110v-277h-182z" />
    <glyph glyph-name="Wgrave" unicode="&#x1e80;" horiz-adv-x="993" 
d="M567 676l144 -477l118 477h164l-183 -676h-167l-147 475l-146 -475h-167l-183 676h164l118 -477l144 477h141zM550 744h-107l-124 151h158z" />
    <glyph glyph-name="wgrave" unicode="&#x1e81;" horiz-adv-x="813" 
d="M483 475l93 -295l81 295h149l-152 -475h-139l-109 318l-109 -318h-139l-151 475h149l80 -295l94 295h153zM460 559h-107l-124 151h158z" />
    <glyph glyph-name="Wacute" unicode="&#x1e82;" horiz-adv-x="993" 
d="M567 676l144 -477l118 477h164l-183 -676h-167l-147 475l-146 -475h-167l-183 676h164l118 -477l144 477h141zM519 895h158l-124 -151h-107z" />
    <glyph glyph-name="wacute" unicode="&#x1e83;" horiz-adv-x="813" 
d="M483 475l93 -295l81 295h149l-152 -475h-139l-109 318l-109 -318h-139l-151 475h149l80 -295l94 295h153zM443 710h158l-124 -151h-107z" />
    <glyph glyph-name="Wdieresis" unicode="&#x1e84;" horiz-adv-x="993" 
d="M567 676l144 -477l118 477h164l-183 -676h-167l-147 475l-146 -475h-167l-183 676h164l118 -477l144 477h141zM465 754h-126v125h126v-125zM652 754h-126v125h126v-125z" />
    <glyph glyph-name="wdieresis" unicode="&#x1e85;" horiz-adv-x="813" 
d="M483 475l93 -295l81 295h149l-152 -475h-139l-109 318l-109 -318h-139l-151 475h149l80 -295l94 295h153zM375 568h-126v125h126v-125zM562 568h-126v125h126v-125z" />
    <glyph glyph-name="Ygrave" unicode="&#x1ef2;" horiz-adv-x="620" 
d="M388 267v-267h-157v267l-239 409h175l156 -270l151 270h153zM380 744h-107l-124 151h158z" />
    <glyph glyph-name="ygrave" unicode="&#x1ef3;" horiz-adv-x="569" 
d="M208 475v-275q0 -34 17.5 -50.5t46.5 -16.5q23 0 43.5 10t35.5 24v308h145v-458q0 -60 -19 -102.5t-52 -69.5t-76 -39.5t-91 -12.5q-56 0 -96.5 9.5t-79.5 27.5v136q13 -9 31.5 -18t40 -16t44.5 -11.5t46 -4.5q22 0 41.5 4.5t33.5 15.5t22 30t8 48v26q-23 -18 -51.5 -29
t-66.5 -11q-80 0 -123.5 49t-43.5 141v285h144zM338 559h-107l-124 151h158z" />
    <glyph glyph-name="endash" unicode="&#x2013;" horiz-adv-x="602" 
d="M537 214h-472v127h472v-127z" />
    <glyph glyph-name="emdash" unicode="&#x2014;" horiz-adv-x="1045" 
d="M981 215h-916v126h916v-126z" />
    <glyph glyph-name="afii00208" unicode="&#x2015;" horiz-adv-x="602" 
d="M537 214h-472v127h472v-127z" />
    <glyph glyph-name="quoteleft" unicode="&#x2018;" horiz-adv-x="276" 
d="M58 399q-10 23 -13.5 43.5t-3.5 43.5q0 76 37 126t98 81l59 -75q-34 -29 -51 -58t-17 -71q0 -27 6 -47t17 -43h-132v0z" />
    <glyph glyph-name="quoteright" unicode="&#x2019;" horiz-adv-x="276" 
d="M217 676q18 -45 18 -91q0 -33 -9 -64t-26.5 -57.5t-42.5 -48t-57 -34.5l-59 75q68 53 68 130q0 41 -22 90h130v0z" />
    <glyph glyph-name="quotesinglbase" unicode="&#x201a;" horiz-adv-x="276" 
d="M217 112q18 -45 18 -91q0 -33 -9 -64t-26.5 -57.5t-42.5 -48t-57 -34.5l-59 75q68 53 68 130q0 41 -22 90h130v0z" />
    <glyph glyph-name="quotedblleft" unicode="&#x201c;" horiz-adv-x="492" 
d="M59.0137 398.041q-17.999 44.9971 -17.999 90.9951q0 32.9971 8.99902 63.9961q9 30.998 26.498 57.4961q17.499 26.498 42.498 47.9971q24.998 21.499 56.9961 34.498l58.9971 -74.9961q-67.9961 -52.9961 -67.9961 -129.991q0 -40.998 21.998 -89.9951h-129.991v0z
M275.014 398.041q-17.999 44.9971 -17.999 90.9951q0 32.9971 8.99902 63.9961q9 30.998 26.498 57.4961q17.499 26.498 42.498 47.9971q24.998 21.499 56.9961 34.498l58.9971 -74.9961q-67.9961 -52.9961 -67.9961 -129.991q0 -40.998 21.998 -89.9951h-129.991v0z" />
    <glyph glyph-name="quotedblright" unicode="&#x201d;" horiz-adv-x="492" 
d="M217 676q18 -45 18 -91q0 -33 -9 -64t-26.5 -57.5t-42.5 -48t-57 -34.5l-59 75q68 53 68 130q0 41 -22 90h130v0zM433 676q18 -45 18 -91q0 -33 -9 -64t-26.5 -57.5t-42.5 -48t-57 -34.5l-59 75q68 53 68 130q0 41 -22 90h130v0z" />
    <glyph glyph-name="quotedblbase" unicode="&#x201e;" horiz-adv-x="492" 
d="M217 112q18 -45 18 -91q0 -33 -9 -64t-26.5 -57.5t-42.5 -48t-57 -34.5l-59 75q68 53 68 130q0 41 -22 90h130v0zM433 112q18 -45 18 -91q0 -33 -9 -64t-26.5 -57.5t-42.5 -48t-57 -34.5l-59 75q68 53 68 130q0 41 -22 90h130v0z" />
    <glyph glyph-name="dagger" unicode="&#x2020;" horiz-adv-x="437" 
d="M279 309h-121v183h-109v92h111v92h117v-92h111v-92h-109v-183z" />
    <glyph glyph-name="daggerdbl" unicode="&#x2021;" horiz-adv-x="437" 
d="M49 369v87h109v65h-109v87h111v68h117v-68h111v-87h-109v-65h109v-87h-109v-60h-121v60h-109z" />
    <glyph glyph-name="bullet" unicode="&#x2022;" horiz-adv-x="410" 
d="M367 317q0 -72 -44 -115t-118 -43t-118.5 43t-44.5 115t44.5 115t118.5 43t118 -43t44 -115z" />
    <glyph glyph-name="ellipsis" unicode="&#x2026;" horiz-adv-x="869" 
d="M70 150h149v-150h-149v150zM360 150h149v-150h-149v150zM649 150h150v-150h-150v150z" />
    <glyph glyph-name="perthousand" unicode="&#x2030;" horiz-adv-x="1284" 
d="M1248 199q0 -47 -11.5 -86.5t-33.5 -68t-54 -45t-72 -16.5q-41 0 -72.5 16.5t-53.5 45t-33.5 68t-11.5 86.5q0 46 11.5 86t33.5 68.5t53.5 45t72.5 16.5q40 0 72 -16.5t54 -45t33.5 -68.5t11.5 -86zM1140 199q0 48 -14.5 80t-48.5 32t-49 -32t-15 -80t15 -80t49 -32
t48.5 32t14.5 80zM325 0h-108l370 676h107zM378 477q0 -47 -11.5 -86.5t-33.5 -68t-54 -45t-72 -16.5q-41 0 -72.5 16.5t-53 45t-33 68t-11.5 86.5q0 46 11.5 86t33 68.5t53 45t72.5 16.5q40 0 72 -16.5t54 -45t33.5 -68.5t11.5 -86zM271 477q0 48 -15 80t-49 32t-48.5 -32
t-14.5 -80t14.5 -80t48.5 -32t49 32t15 80zM875 199q0 -47 -11.5 -86.5t-33.5 -68t-54 -45t-72 -16.5q-41 0 -72.5 16.5t-53.5 45t-33.5 68t-11.5 86.5q0 46 11.5 86t33.5 68.5t53.5 45t72.5 16.5q40 0 72 -16.5t54 -45t33.5 -68.5t11.5 -86zM767 199q0 48 -14.5 80
t-48.5 32t-49 -32t-15 -80t15 -80t49 -32t48.5 32t14.5 80z" />
    <glyph glyph-name="guilsinglleft" unicode="&#x2039;" horiz-adv-x="323" 
d="M21 248l157 199h124l-138 -199l138 -199h-124z" />
    <glyph glyph-name="guilsinglright" unicode="&#x203a;" horiz-adv-x="323" 
d="M302.001 248l-156.99 199h-123.992l137.991 -199l-137.991 -199h123.992z" />
    <glyph glyph-name="fraction" unicode="&#x2044;" horiz-adv-x="478" 
d="M99 0h-108l371 676h107z" />
    <glyph glyph-name="Euro" unicode="&#x20ac;" 
d="M8 225l21 72h58q-1 6 -1.5 19t-0.5 30q0 11 0.5 22t1.5 22h-79l21 69h66q12 66 42 111t71 72.5t89 39t95 11.5q36 0 69.5 -6t61.5 -16v-135q-22 9 -53.5 16t-65.5 7q-25 0 -49.5 -4.5t-45.5 -15.5t-35.5 -30.5t-20.5 -49.5h242l-21 -69h-230q-2 -11 -2 -22v-21
q0 -17 0.5 -30.5t1.5 -19.5h204l-21 -72h-172q5 -28 17 -48.5t29.5 -34t38.5 -20t43 -6.5q45 0 79.5 8.5t64.5 28.5v-137q-27 -17 -62 -25t-96 -8q-45 0 -89.5 14t-82 43t-64.5 75t-37 110h-88z" />
    <glyph glyph-name="afii61352" unicode="&#x2116;" horiz-adv-x="1195" 
d="M1144 511q0 -91 -45.5 -137.5t-120.5 -46.5t-120 46.5t-45 137.5q0 90 45 136.5t120 46.5t120.5 -46.5t45.5 -136.5zM1031 511q0 78 -53 78q-52 0 -52 -78q0 -79 52 -79q53 0 53 79zM820 260h319v-106h-319v106zM687 0h-133l-306 418v-418h-152v676h133l306 -418v418h152
v-676z" />
    <glyph glyph-name="trademark" unicode="&#x2122;" horiz-adv-x="859" 
d="M324 593h-97v-194h-110v194h-97v83h304v-83zM634 452h-93l-44 92v-145h-103v277h128l65 -134l66 134h127v-277h-103v146z" />
    <glyph glyph-name="partialdiff" unicode="&#x2202;" horiz-adv-x="574" 
d="M71 639q30 23 78.5 38.5t108.5 15.5t108.5 -17t83.5 -57t54 -105.5t19 -161.5q0 -86 -19.5 -154t-54 -116t-81.5 -73.5t-102 -25.5q-57 0 -98.5 17t-67.5 46t-38.5 67t-12.5 80q0 54 15.5 97t44 73t68 46t86.5 16q39 0 69 -9t53 -23q1 7 1 12.5v11.5q0 78 -37 114t-99 36
q-38 0 -73.5 -10t-67.5 -32zM377 269q-35 32 -92 32q-42 0 -68.5 -26t-26.5 -82q0 -42 21 -64t52 -22q48 0 78 43.5t36 118.5z" />
    <glyph glyph-name="product" unicode="&#x220f;" horiz-adv-x="728" 
d="M632 0h-156v545h-224v-545h-156v676h536v-676z" />
    <glyph glyph-name="summation" unicode="&#x2211;" 
d="M524 545h-278l189 -212l-189 -202h278v-131h-470v117l206 206l-206 236v117h470v-131z" />
    <glyph glyph-name="minus" unicode="&#x2212;" 
d="M522 252h-466v118h466v-118z" />
    <glyph glyph-name="radical" unicode="&#x221a;" horiz-adv-x="541" 
d="M35 475h157l97 -324l136 525h116l-184 -676h-131l-116 359h-75v116z" />
    <glyph glyph-name="infinity" unicode="&#x221e;" horiz-adv-x="656" 
d="M628 302q0 -82 -41 -131t-112 -49q-27 0 -48 7t-39 18t-32.5 24.5t-27.5 25.5q-13 -12 -27.5 -25.5t-32.5 -24.5t-39 -18t-48 -7q-70 0 -111.5 49t-41.5 131t41.5 131t111.5 49q27 0 48 -7t39 -18t32.5 -24.5t27.5 -25.5q13 12 27.5 25.5t32.5 24.5t39 18t48 7
q71 0 112 -49t41 -131zM377 302q27 -31 48.5 -47.5t43.5 -16.5q20 0 37.5 15t17.5 49t-17.5 49t-37.5 15q-22 0 -43.5 -16.5t-48.5 -47.5zM132 302q0 -34 17.5 -49t37.5 -15q22 0 43.5 16.5t49.5 47.5q-28 31 -49.5 47.5t-43.5 16.5q-20 0 -37.5 -15t-17.5 -49z" />
    <glyph glyph-name="integral" unicode="&#x222b;" horiz-adv-x="289" 
d="M275 599q-32 0 -51.5 -17t-19.5 -57v-522q0 -110 -45 -160t-145 -50v128q32 0 51.5 17t19.5 57v522q0 110 45 160t145 50v-128z" />
    <glyph glyph-name="approxequal" unicode="&#x2248;" 
d="M394 346q-23 0 -52.5 6t-59 13.5t-56 14t-42.5 6.5q-26 0 -43.5 -9.5t-31.5 -35.5l-67 77q7 12 17.5 26.5t27 27t40 21t56.5 8.5q23 0 52.5 -6.5t59 -14t56 -13.5t43.5 -6q25 0 42.5 9.5t31.5 35.5l67 -77q-7 -12 -17.5 -26.5t-27 -27t-40 -21t-56.5 -8.5zM394 121
q-23 0 -52.5 6t-59 13.5t-56 14t-42.5 6.5q-26 0 -43.5 -9.5t-31.5 -35.5l-67 77q7 12 17.5 26.5t27 27t40 21t56.5 8.5q23 0 52.5 -6.5t59 -14t56 -13.5t43.5 -6q25 0 42.5 9.5t31.5 35.5l67 -77q-7 -12 -17.5 -26.5t-27 -27t-40 -21t-56.5 -8.5z" />
    <glyph glyph-name="notequal" unicode="&#x2260;" 
d="M522 134h-285l-67 -122h-88l67 122h-93v118h158l66 118h-224v118h289l63 112h88l-63 -112h89v-118h-154l-65 -118h219v-118z" />
    <glyph glyph-name="lessequal" unicode="&#x2264;" 
d="M522 464l-332 -100l332 -100v-122l-466 160v124l466 160v-122zM522 0h-466v118h466v-118z" />
    <glyph glyph-name="greaterequal" unicode="&#x2265;" 
d="M56.0322 464l331.979 -100l-331.979 -100v-122l465.972 160v124l-465.972 160v-122zM56.0322 0h465.972v118h-465.972v-118z" />
    <glyph glyph-name="lozenge" unicode="&#x25ca;" horiz-adv-x="542" 
d="M329 0h-116l-198 338l198 338h116l198 -338zM271 126l127 212l-127 212l-127 -212z" />
    <glyph glyph-name="commaaccent" horiz-adv-x="510" 
d="M319 -61q10 -29 10 -56q0 -57 -37 -94.5t-97 -48.5l-32 80q24 11 39.5 26.5t15.5 41.5t-11 51h112z" />
    <glyph glyph-name="zero.onum" horiz-adv-x="546" 
d="M273 492q52 0 95.5 -17t75 -49.5t48.5 -79.5t17 -108t-17 -108.5t-48.5 -80t-75 -49.5t-95.5 -17q-53 0 -96.5 17t-74.5 49.5t-48 80t-17 108.5t17 108t48 79.5t74.5 49.5t96.5 17zM273 368q-40 0 -64.5 -34.5t-24.5 -95.5t24.5 -96t64.5 -35t64.5 35t24.5 96t-24.5 95.5
t-64.5 34.5z" />
    <glyph glyph-name="one.onum" horiz-adv-x="360" 
d="M174 475h113v-475h-154v338l-106 -40v124z" />
    <glyph glyph-name="two.onum" horiz-adv-x="509" 
d="M69 461q35 14 78 22.5t85 8.5t81 -9t68.5 -28.5t47.5 -50.5t18 -74q0 -39 -20 -71t-49 -57.5t-60.5 -45.5t-55.5 -35h193v-121h-402v112q44 32 86 59t74.5 51.5t52.5 46.5t20 44q0 32 -25.5 44.5t-60.5 12.5t-72 -9.5t-59 -22.5v123v0z" />
    <glyph glyph-name="three.onum" horiz-adv-x="474" 
d="M174 237q48 0 79 15t31 55q0 35 -29.5 49.5t-71.5 14.5t-81 -9t-65 -24v123q30 13 73.5 22t92.5 9q47 0 89.5 -10t74.5 -30.5t51 -51.5t19 -73q0 -32 -10.5 -55t-27 -40t-37 -28.5t-40.5 -18.5q24 -6 46.5 -17.5t40 -29.5t27.5 -42.5t10 -55.5q0 -51 -21 -87.5t-56.5 -60
t-81.5 -34.5t-97 -11q-42 0 -85 6.5t-80 23.5v122q38 -16 75 -21.5t70 -5.5q50 0 83.5 16t33.5 56q0 41 -32 56.5t-82 15.5h-65v121h66z" />
    <glyph glyph-name="four.onum" horiz-adv-x="529" 
d="M452 482v-351h64v-116h-64v-154h-140v154h-296v116l234 351h202zM312 131v226l-148 -226h148z" />
    <glyph glyph-name="five.onum" horiz-adv-x="492" 
d="M233 355l-13 -104q54 0 99.5 -11.5t78.5 -35t52 -60t19 -87.5q0 -54 -22.5 -93.5t-60 -65.5t-87 -38.5t-102.5 -12.5q-72 0 -143 23v122q34 -11 70 -15.5t65 -4.5q57 0 91 20t34 64q0 25 -13.5 40.5t-35 23.5t-49 11t-55.5 3q-24 0 -45.5 -2t-36.5 -4l-14 14l35 333h355
v-120h-222z" />
    <glyph glyph-name="six.onum" horiz-adv-x="571" 
d="M501 481q-31 11 -67 15.5t-68 4.5q-34 0 -63 -9t-50.5 -27t-34.5 -45t-14 -63q17 14 48 28.5t78 14.5q43 0 79.5 -12.5t63 -37.5t41.5 -63.5t15 -89.5q0 -45 -17.5 -84.5t-48 -68t-73 -45t-93.5 -16.5q-113 0 -177 73.5t-64 232.5q0 88 23.5 151.5t64.5 104t96 59.5
t118 19q34 0 71.5 -4t71.5 -16v-122zM380 195q0 43 -23.5 62t-56.5 19t-58 -14t-38 -33q2 -66 28.5 -94t63.5 -28q36 0 60 23.5t24 64.5z" />
    <glyph glyph-name="seven.onum" horiz-adv-x="474" 
d="M71 -139q6 90 27 165t50.5 135.5t64 107.5t69.5 82h-262v124h431v-109q-46 -50 -83.5 -101.5t-66 -111.5t-49.5 -131t-34 -161h-147z" />
    <glyph glyph-name="eight.onum" horiz-adv-x="540" 
d="M270 623q48 0 89 -12t71.5 -34t47.5 -54.5t17 -72.5q0 -30 -7.5 -53t-20 -39t-29.5 -26.5t-35 -16.5q19 -7 38 -19t34 -30t24 -43t9 -58q0 -39 -16.5 -72.5t-47.5 -57.5t-75 -38t-99 -14t-99 14t-75 38t-47.5 57.5t-16.5 72.5q0 33 9 58t24 43t34 30t38 19
q-18 6 -35 16.5t-29.5 26.5t-20 39t-7.5 53q0 40 17 72.5t47.5 54.5t71.5 34t89 12zM270 507q-34 0 -58 -18t-24 -51q0 -35 24 -52.5t58 -17.5t58 17.5t24 52.5q0 33 -24 51t-58 18zM270 253q-38 0 -64.5 -20t-26.5 -57t26.5 -57t64.5 -20t64.5 20t26.5 57t-26.5 57
t-64.5 20z" />
    <glyph glyph-name="nine.onum" horiz-adv-x="550" 
d="M49.0303 -5.9707q30.998 -10.999 66.9961 -15.499t67.9961 -4.5q33.998 0 62.9961 9q28.998 8.99902 50.4971 26.998q21.498 17.999 34.498 44.9971q12.999 26.999 13.999 62.9961q-16.999 -13.999 -47.9971 -28.498t-77.9951 -14.499q-42.998 0 -79.4951 12.499
q-36.498 12.499 -62.9961 37.498q-26.499 24.998 -41.498 63.4961t-14.999 89.4941q0 44.998 17.499 84.4951q17.499 39.498 47.9971 67.9961t72.9951 44.9971q42.498 16.499 93.4951 16.499q112.993 0 176.989 -73.4951q63.9961 -73.4961 63.9961 -232.486
q0 -87.9941 -23.499 -151.49t-64.4961 -103.994q-40.9971 -40.4971 -95.9941 -59.4961t-117.993 -18.999q-33.998 0 -71.4951 4q-37.498 3.99902 -71.4961 15.999v121.992zM170.023 280.012q0 -42.9971 23.498 -61.9961q23.499 -18.999 56.4971 -18.999t57.9961 13.999
q24.999 14 37.998 32.998q-2 65.9961 -28.498 93.9941q-26.499 27.999 -63.4971 27.999q-35.9971 0 -59.9961 -23.499q-23.998 -23.498 -23.998 -64.4961z" />
    <glyph glyph-name="Euro.onum" horiz-adv-x="511" 
d="M81 238v14t1 14h-71l12 46h66q12 46 36.5 79.5t59 56t76.5 33.5t88 11q28 0 56.5 -4t57.5 -12v-119q-24 7 -49 11t-49 4q-38 0 -70.5 -13.5t-49.5 -46.5h201l-13 -46h-202q-1 -7 -1.5 -14t-0.5 -15v-18t2 -16h185l-13 -46h-155q18 -30 49.5 -42t68.5 -12q24 0 49.5 4
t49.5 11v-119q-57 -16 -116 -16q-45 0 -86.5 10.5t-75.5 32t-59 54t-37 77.5h-80l12 46h60q-1 8 -1.5 17t-0.5 18z" />
    <glyph glyph-name="sterling.onum" horiz-adv-x="534" 
d="M447 346q-23 14 -56 21.5t-70 7.5q-34 0 -60.5 -13t-26.5 -44q0 -14 1.5 -23t3.5 -17h173v-82h-151q1 -6 1.5 -12t0.5 -12q0 -21 -11.5 -37t-29.5 -26h229v-109h-413v91q77 29 77 77q0 14 -3 28h-74v82h51q-3 18 -3 40q0 83 58 128.5t163 45.5q45 0 78.5 -6t61.5 -17
v-123z" />
    <glyph glyph-name="florin.onum" horiz-adv-x="512" 
d="M86 179h-68v80h68v41q0 91 56.5 141.5t156.5 50.5q91 0 148 -23v-123q-22 12 -56.5 20.5t-69.5 8.5q-87 0 -87 -72v-44h178v-80h-179v-179h-147v179z" />
    <glyph glyph-name="yen.onum" horiz-adv-x="544" 
d="M367 256h108v-46h-132v-67h132v-46h-132v-97h-153v97h-133v46h133v67h-133v46h109l-166 219h157l120 -165l113 165h140z" />
    <glyph glyph-name="dollar.onum" horiz-adv-x="486" 
d="M200 -16q-46 2 -82 11.5t-68 23.5v127q45 -23 87.5 -33t86.5 -10q38 0 55.5 9.5t17.5 30.5q0 17 -19 24.5t-47.5 12.5t-61.5 11t-61.5 20.5t-47.5 41t-19 72.5q0 73 45 112t114 50v98h92v-94q37 -2 70.5 -8t59.5 -14v-123q-32 16 -75.5 24t-81.5 8q-33 0 -56.5 -8.5
t-23.5 -29.5q0 -17 19 -24t47.5 -11.5t62 -10t62 -20.5t47.5 -43t19 -77q0 -36 -11 -64.5t-31 -48.5t-47.5 -33t-60.5 -19v-111h-92v106z" />
    <glyph glyph-name="cent.onum" horiz-adv-x="471" 
d="M210 -7q-42 11 -74.5 34t-54.5 55t-33 72t-11 84q0 94 45 158.5t128 85.5v103h92v-93q37 -1 65 -7.5t52 -17.5v-129q-30 17 -56.5 24t-60.5 7q-60 0 -88.5 -37t-28.5 -95t29 -94t88 -36q32 0 62 8t60 25v-129q-23 -11 -54 -18.5t-68 -9.5v-105h-92v115z" />
    <glyph glyph-name="zero.tabonum" horiz-adv-x="525" 
d="M263 492q52 0 95.5 -17t75 -49.5t48.5 -79.5t17 -108t-17 -108.5t-48.5 -80t-75 -49.5t-95.5 -17q-53 0 -96.5 17t-74.5 49.5t-48 80t-17 108.5t17 108t48 79.5t74.5 49.5t96.5 17zM263 368q-40 0 -64.5 -34.5t-24.5 -95.5t24.5 -96t64.5 -35t64.5 35t24.5 96t-24.5 95.5
t-64.5 34.5z" />
    <glyph glyph-name="one.tabonum" horiz-adv-x="525" 
d="M279 475h113v-475h-154v332l-163 -61v130z" />
    <glyph glyph-name="two.tabonum" horiz-adv-x="525" 
d="M86 461q35 14 78 22.5t85 8.5t81 -9t68.5 -28.5t47.5 -50.5t18 -74q0 -39 -20 -71t-49 -57.5t-60.5 -45.5t-55.5 -35h193v-121h-402v112q44 32 86 59t74.5 51.5t52.5 46.5t20 44q0 32 -25.5 44.5t-60.5 12.5t-72 -9.5t-59 -22.5v123v0z" />
    <glyph glyph-name="three.tabonum" horiz-adv-x="525" 
d="M194 237q48 0 79 15t31 55q0 35 -29.5 49.5t-71.5 14.5t-81 -9t-65 -24v123q30 13 73.5 22t92.5 9q47 0 89.5 -10t74.5 -30.5t51 -51.5t19 -73q0 -32 -10.5 -55t-27 -40t-37 -28.5t-40.5 -18.5q24 -6 46.5 -17.5t40 -29.5t27.5 -42.5t10 -55.5q0 -51 -21 -87.5t-56.5 -60
t-81.5 -34.5t-97 -11q-42 0 -85 6.5t-80 23.5v122q38 -16 75 -21.5t70 -5.5q50 0 83.5 16t33.5 56q0 41 -32 56.5t-82 15.5h-65v121h66z" />
    <glyph glyph-name="four.tabonum" horiz-adv-x="525" 
d="M452 482v-351h64v-116h-64v-154h-140v154h-296v116l234 351h202zM312 131v226l-148 -226h148z" />
    <glyph glyph-name="five.tabonum" horiz-adv-x="525" 
d="M236 355l-13 -104q54 0 99.5 -11.5t78.5 -35t52 -60t19 -87.5q0 -54 -22.5 -93.5t-60 -65.5t-87 -38.5t-102.5 -12.5q-72 0 -143 23v122q34 -11 70 -15.5t65 -4.5q57 0 91 20t34 64q0 25 -13.5 40.5t-35 23.5t-49 11t-55.5 3q-24 0 -45.5 -2t-36.5 -4l-14 14l35 333h355
v-120h-222z" />
    <glyph glyph-name="six.tabonumonum" horiz-adv-x="525" 
d="M460 481q-31 11 -67 15.5t-68 4.5q-34 0 -63 -9t-50.5 -27t-34.5 -45t-14 -63q17 14 48 28.5t78 14.5q43 0 79.5 -12.5t63 -37.5t41.5 -63.5t15 -89.5q0 -45 -17.5 -84.5t-48 -68t-73 -45t-93.5 -16.5q-113 0 -177 73.5t-64 232.5q0 88 23.5 151.5t64.5 104t96 59.5
t118 19q34 0 71.5 -4t71.5 -16v-122zM339 195q0 43 -23.5 62t-56.5 19t-58 -14t-38 -33q2 -66 28.5 -94t63.5 -28q36 0 60 23.5t24 64.5z" />
    <glyph glyph-name="seven.tabonum" horiz-adv-x="525" 
d="M91 -139q6 90 27 165t50.5 135.5t64 107.5t69.5 82h-262v124h431v-109q-46 -50 -83.5 -101.5t-66 -111.5t-49.5 -131t-34 -161h-147z" />
    <glyph glyph-name="eight.tabonum" horiz-adv-x="525" 
d="M263 623q48 0 89 -12t71.5 -34t47.5 -54.5t17 -72.5q0 -30 -7.5 -53t-20 -39t-29.5 -26.5t-35 -16.5q19 -7 38 -19t34 -30t24 -43t9 -58q0 -39 -16.5 -72.5t-47.5 -57.5t-75 -38t-99 -14t-99 14t-75 38t-47.5 57.5t-16.5 72.5q0 33 9 58t24 43t34 30t38 19
q-18 6 -35 16.5t-29.5 26.5t-20 39t-7.5 53q0 40 17 72.5t47.5 54.5t71.5 34t89 12zM263 507q-34 0 -58 -18t-24 -51q0 -35 24 -52.5t58 -17.5t58 17.5t24 52.5q0 33 -24 51t-58 18zM263 253q-38 0 -64.5 -20t-26.5 -57t26.5 -57t64.5 -20t64.5 20t26.5 57t-26.5 57
t-64.5 20z" />
    <glyph glyph-name="nine.tabonum" horiz-adv-x="525" 
d="M66.0303 -5.9707q30.998 -10.999 66.9961 -15.499t67.9961 -4.5q33.998 0 62.9961 9q28.998 8.99902 50.4971 26.998q21.498 17.999 34.498 44.9971q12.999 26.999 13.999 62.9961q-16.999 -13.999 -47.9971 -28.498t-77.9951 -14.499q-42.998 0 -79.4951 12.499
q-36.498 12.499 -62.9961 37.498q-26.499 24.998 -41.498 63.4961t-14.999 89.4941q0 44.998 17.499 84.4951q17.499 39.498 47.9971 67.9961t72.9951 44.9971q42.498 16.499 93.4951 16.499q112.993 0 176.989 -73.4951q63.9961 -73.4961 63.9961 -232.486
q0 -87.9941 -23.499 -151.49t-64.4961 -103.994q-40.9971 -40.4971 -95.9941 -59.4961t-117.993 -18.999q-33.998 0 -71.4951 4q-37.498 3.99902 -71.4961 15.999v121.992zM187.023 280.012q0 -42.9971 23.498 -61.9961q23.499 -18.999 56.4971 -18.999t57.9961 13.999
q24.999 14 37.998 32.998q-2 65.9961 -28.498 93.9941q-26.499 27.999 -63.4971 27.999q-35.9971 0 -59.9961 -23.499q-23.998 -23.498 -23.998 -64.4961z" />
    <glyph glyph-name="Euro.tabonum" horiz-adv-x="525" 
d="M92 238v14t1 14h-71l12 46h66q12 46 36.5 79.5t59 56t76.5 33.5t88 11q28 0 56.5 -4t57.5 -12v-119q-24 7 -49 11t-49 4q-38 0 -70.5 -13.5t-49.5 -46.5h201l-13 -46h-202q-1 -7 -1.5 -14t-0.5 -15v-18t2 -16h185l-13 -46h-155q18 -30 49.5 -42t68.5 -12q24 0 49.5 4
t49.5 11v-119q-57 -16 -116 -16q-45 0 -86.5 10.5t-75.5 32t-59 54t-37 77.5h-80l12 46h60q-1 8 -1.5 17t-0.5 18z" />
    <glyph glyph-name="sterling.tabonum" horiz-adv-x="525" 
d="M468 346q-23 14 -56 21.5t-70 7.5q-34 0 -60.5 -13t-26.5 -44q0 -14 1.5 -23t3.5 -17h173v-82h-151q1 -6 1.5 -12t0.5 -12q0 -21 -11.5 -37t-29.5 -26h229v-109h-413v91q77 29 77 77q0 14 -3 28h-74v82h51q-3 18 -3 40q0 83 58 128.5t163 45.5q45 0 78.5 -6t61.5 -17
v-123z" />
    <glyph glyph-name="florin.tabonum" horiz-adv-x="525" 
d="M115 179h-68v80h68v41q0 91 56.5 141.5t156.5 50.5q91 0 148 -23v-123q-22 12 -56.5 20.5t-69.5 8.5q-87 0 -87 -72v-44h178v-80h-179v-179h-147v179z" />
    <glyph glyph-name="yen.tabonum" horiz-adv-x="525" 
d="M366 256h108v-46h-132v-67h132v-46h-132v-97h-153v97h-133v46h133v67h-133v46h109l-166 219h157l120 -165l113 165h140z" />
    <glyph glyph-name="dollar.tabonum" horiz-adv-x="525" 
d="M221 -16q-46 2 -82 11.5t-68 23.5v127q45 -23 87.5 -33t86.5 -10q38 0 55.5 9.5t17.5 30.5q0 17 -19 24.5t-47.5 12.5t-61.5 11t-61.5 20.5t-47.5 41t-19 72.5q0 73 45 112t114 50v98h92v-94q37 -2 70.5 -8t59.5 -14v-123q-32 16 -75.5 24t-81.5 8q-33 0 -56.5 -8.5
t-23.5 -29.5q0 -17 19 -24t47.5 -11.5t62 -10t62 -20.5t47.5 -43t19 -77q0 -36 -11 -64.5t-31 -48.5t-47.5 -33t-60.5 -19v-111h-92v106z" />
    <glyph glyph-name="cent.tabonum" horiz-adv-x="525" 
d="M238 -7q-42 11 -74.5 34t-54.5 55t-33 72t-11 84q0 94 45 158.5t128 85.5v103h92v-93q37 -1 65 -7.5t52 -17.5v-129q-30 17 -56.5 24t-60.5 7q-60 0 -88.5 -37t-28.5 -95t29 -94t88 -36q32 0 62 8t60 25v-129q-23 -11 -54 -18.5t-68 -9.5v-105h-92v115z" />
    <glyph glyph-name="zero.pnum" horiz-adv-x="670" 
d="M335 693q72 0 126 -28.5t90.5 -77t54.5 -113t18 -136.5t-18 -136.5t-54.5 -113t-90.5 -77t-126 -28.5t-126 28.5t-90.5 77t-54.5 113t-18 136.5t18 136.5t54.5 113t90.5 77t126 28.5zM335 559q-34 0 -58.5 -16t-40.5 -45t-23.5 -69.5t-7.5 -90.5t7.5 -91t23.5 -70
t40.5 -45t58.5 -16t58.5 16t40.5 45t23.5 70t7.5 91t-7.5 90.5t-23.5 69.5t-40.5 45t-58.5 16z" />
    <glyph glyph-name="one.pnum" horiz-adv-x="394" 
d="M297 0h-156v545h-126v131h282v-676z" />
    <glyph glyph-name="two.pnum" horiz-adv-x="551" 
d="M505 0h-460v125l214 201q40 38 58 71t18 72q0 26 -9 43.5t-24 28t-34.5 15t-41.5 4.5q-21 0 -43.5 -3.5t-43.5 -9.5t-39 -13.5t-30 -14.5v138q37 17 83 26.5t93 9.5q48 0 93 -11.5t80.5 -37t57 -66.5t21.5 -100q0 -41 -8 -73t-23 -59.5t-37 -51.5t-50 -47l-139 -116h264
v-131z" />
    <glyph glyph-name="three.pnum" horiz-adv-x="558" 
d="M63 676h442v-117l-180 -165q33 -3 66 -14.5t59.5 -34t42.5 -56.5t16 -81q0 -57 -20 -99.5t-55.5 -70t-84 -41.5t-105.5 -14q-53 0 -102.5 11t-88.5 32v138q34 -18 82 -33t96 -15q51 0 83 21t32 69q0 46 -33 65.5t-93 19.5q-16 0 -37.5 -1.5t-35.5 -3.5v107l172 152h-256
v131z" />
    <glyph glyph-name="four.pnum" horiz-adv-x="580" 
d="M304 676h190v-383h64v-128h-64v-165h-152v165h-329v132zM342 293v234l-176 -234h176z" />
    <glyph glyph-name="five.pnum" horiz-adv-x="581" 
d="M254 -17q-122 0 -202 43v138q17 -9 38.5 -17.5t45.5 -15.5t49.5 -11t49.5 -4q52 0 86.5 21t34.5 68q0 27 -10.5 45t-28.5 29t-41.5 15.5t-49.5 4.5q-48 0 -81 -6.5t-56 -14.5l-30 29l48 369h394v-131h-265l-16 -123q11 1 21.5 1.5t23.5 0.5q44 0 89.5 -9.5t82 -33.5
t59.5 -63.5t23 -99.5q0 -62 -21 -106.5t-57.5 -73t-84.5 -42t-102 -13.5z" />
    <glyph glyph-name="six.pnum" horiz-adv-x="610" 
d="M533 519q-23 14 -67.5 27t-96.5 13q-35 0 -65.5 -8.5t-53 -28t-35.5 -51.5t-13 -80q23 18 59.5 30.5t81.5 12.5q42 0 82.5 -11.5t72 -36t51 -64t19.5 -95.5q0 -54 -17 -98.5t-49.5 -77t-80.5 -50.5t-109 -18q-57 0 -106 19.5t-85 61t-56.5 105.5t-20.5 154
q0 102 26 172.5t69 114.5t99.5 63.5t117.5 19.5q48 0 93.5 -8.5t83.5 -27.5v-138zM207 259q0 -42 9.5 -70t24.5 -44t34 -22.5t38 -6.5t37 5.5t31.5 17.5t21.5 30t8 42q0 49 -28.5 70t-70.5 21q-29 0 -58.5 -11.5t-46.5 -31.5z" />
    <glyph glyph-name="seven.pnum" horiz-adv-x="513" 
d="M492 554q-49 -56 -87.5 -113.5t-67 -123.5t-48 -144t-30.5 -173h-170q8 75 29.5 152t53 149t69.5 134.5t79 109.5h-300v131h472v-122z" />
    <glyph glyph-name="eight.pnum" horiz-adv-x="624" 
d="M312 287q-45 0 -75.5 -21t-30.5 -66t30.5 -67.5t75.5 -22.5t75.5 22.5t30.5 67.5t-30.5 66t-75.5 21zM312 -17q-65 0 -114.5 15t-84 42t-52 64t-17.5 81q0 36 9 63.5t24 47.5t35 33.5t42 22.5q-18 9 -35.5 21t-31 29.5t-21.5 42t-8 58.5q0 45 18.5 80t51.5 60t80 38
t104 13t104 -13t80 -38t51.5 -60t18.5 -80q0 -34 -8.5 -58.5t-22 -42t-30.5 -29.5t-35 -21q22 -9 42 -22.5t35 -33.5t24 -47.5t9 -63.5q0 -44 -17.5 -81t-52 -64t-84.5 -42t-114 -15zM312 566q-38 0 -65 -18t-27 -62t27 -61t65 -17t65 17t27 61t-27 62t-65 18z" />
    <glyph glyph-name="nine.pnum" horiz-adv-x="610" 
d="M74 157q23 -13 67 -27t97 -14q35 0 65.5 8.5t53 28t35.5 52t13 80.5q-23 -18 -59.5 -30.5t-81.5 -12.5q-42 0 -82.5 11.5t-72 36t-51 64t-19.5 95.5q0 54 18.5 98.5t52 77t81 50.5t104.5 18q60 0 109.5 -19.5t85 -61t54.5 -105.5t19 -154q0 -102 -26 -172.5t-69 -114.5
t-99.5 -63.5t-117.5 -19.5q-48 0 -93.5 8.5t-83.5 27.5v138zM400 417q0 42 -9.5 70t-24.5 44t-34 22.5t-38 6.5t-37 -6t-31.5 -18t-21.5 -29.5t-8 -41.5q0 -49 28.5 -70t70.5 -21q29 0 58.5 11.5t46.5 31.5z" />
    <glyph glyph-name="Euro.pnum" horiz-adv-x="563" 
d="M0 225l21 72h58q-1 6 -1.5 19t-0.5 30q0 11 0.5 22t1.5 22h-79l21 69h66q12 66 42 111t71 72.5t89 39t95 11.5q36 0 69.5 -6t61.5 -16v-135q-22 9 -53.5 16t-65.5 7q-25 0 -49.5 -4.5t-45.5 -15.5t-35.5 -30.5t-20.5 -49.5h242l-21 -69h-230q-2 -11 -2 -22v-21
q0 -17 0.5 -30.5t1.5 -19.5h204l-21 -72h-172q5 -28 17 -48.5t29.5 -34t38.5 -20t43 -6.5q45 0 79.5 8.5t64.5 28.5v-137q-27 -17 -62 -25t-96 -8q-45 0 -89.5 14t-82 43t-64.5 75t-37 110h-88z" />
    <glyph glyph-name="sterling.pnum" horiz-adv-x="535" 
d="M29 396h71q-5 20 -7 38t-2 36q0 61 20 103.5t54 69t77.5 38.5t90.5 12q41 0 82 -8.5t73 -23.5v-134q-22 11 -60.5 21.5t-80.5 10.5q-21 0 -40 -4.5t-33 -14.5t-22 -26.5t-8 -40.5q0 -22 3 -39t10 -38h191v-102h-161l4 -28t2 -27q0 -32 -15 -58.5t-48 -49.5h269v-131h-447
v107q47 20 66.5 52t19.5 72q0 30 -9 63h-100v102z" />
    <glyph glyph-name="florin.pnum" horiz-adv-x="513" 
d="M435 294h-191v-294h-156v294h-73v102h73v73q0 61 20.5 104t54 69.5t77 38.5t88.5 12q48 0 86 -9t70 -23v-134q-23 11 -61.5 21.5t-80.5 10.5q-41 0 -69.5 -21t-28.5 -76v-66h191v-102z" />
    <glyph glyph-name="yen.pnum" horiz-adv-x="544" 
d="M377 348h111v-68h-136v-97h136v-68h-136v-115h-157v115h-136v68h136v97h-136v68h111l-170 328h161l123 -262l116 262h144z" />
    <glyph glyph-name="dollar.pnum" horiz-adv-x="560" 
d="M237 0q-51 2 -98.5 13.5t-82.5 28.5v129q37 -17 87.5 -30.5t99.5 -13.5q44 0 73 15t29 55q0 24 -22 40t-55 30t-71.5 28.5t-71.5 37t-55 56.5t-22 85q0 81 50.5 130.5t138.5 64.5v109h96v-102q48 -2 87 -9.5t71 -19.5v-134q-39 20 -80.5 28t-89.5 8q-21 0 -40.5 -3
t-34 -10.5t-23.5 -20t-9 -31.5q0 -21 22 -34.5t55 -26t71.5 -26.5t71.5 -36.5t55 -57.5t22 -88q0 -49 -14 -85t-38 -61.5t-56.5 -40.5t-69.5 -22v-116h-96v110z" />
    <glyph glyph-name="cent.pnum" horiz-adv-x="537" 
d="M247 37h7q-54 12 -95 40t-68.5 67.5t-41 89t-13.5 103.5q0 53 13 101.5t39.5 88t66 67.5t92.5 40v144h97v-135q34 -2 70.5 -8.5t65.5 -21.5v-131q-32 12 -66 20t-68 8q-32 0 -61 -8.5t-51 -28.5t-35 -53.5t-13 -82.5q0 -46 11.5 -79t32.5 -54.5t49.5 -32t63.5 -10.5
q64 0 141 34v-129q-26 -16 -62 -25t-78 -11v-140h-97v147z" />
    </font>
</defs>
</svg>
