<?xml version="1.0" standalone="no"?>
<!DOCTYPE svg PUBLIC "-//W3C//DTD SVG 1.1//EN" "http://www.w3.org/Graphics/SVG/1.1/DTD/svg11.dtd" >
<svg xmlns="http://www.w3.org/2000/svg" xmlns:xlink="http://www.w3.org/1999/xlink" version="1.1">
<metadata>
Created by FontForge 20170731 at Tue Nov  3 12:35:17 2009
 By Aleksey,,,
Copyright (c) 2009 by Peugeot. All rights reserved.
</metadata>
<defs>
<font id="Peugeot-Italic" horiz-adv-x="578" >
  <font-face 
    font-family="Peugeot"
    font-weight="400"
    font-style="italic"
    font-stretch="normal"
    units-per-em="1000"
    panose-1="2 0 5 3 4 0 0 2 0 3"
    ascent="800"
    descent="-200"
    x-height="475"
    cap-height="676"
    bbox="-159 -244 1204 1034"
    underline-thickness="60"
    underline-position="-202"
    unicode-range="U+0020-FB02"
  />
<missing-glyph horiz-adv-x="556" 
d="M376 0h-340l143 676h340zM289 391l143 223h-192zM123 62h192l-49 222zM345 133l87 410l-131 -205zM211 543l-87 -410l131 205z" />
    <glyph glyph-name="fi" unicode="fi" horiz-adv-x="552" 
d="M91 -76q-13 -62 -42 -95t-87 -33q-19 0 -39 4t-35 11l16 72q10 -5 24 -8t31 -3q21 0 33.5 11.5t18.5 40.5l103 484h-68l14 67h68l12 55q22 103 83 148.5t160 45.5q48 0 88 -9.5t66 -23.5l-16 -75q-26 15 -62.5 26.5t-83.5 11.5q-128 0 -155 -124l-11 -55h287l-101 -475
h-81l87 408h-207z" />
    <glyph glyph-name="fl" unicode="fl" horiz-adv-x="573" 
d="M139 530q22 103 83 148.5t160 45.5q48 0 89.5 -10t70.5 -24l-123 -584q-1 -5 -1.5 -8.5t-0.5 -7.5q0 -19 10.5 -25t24.5 -6q23 0 48 10l-1 -70q-30 -13 -68 -13q-44 0 -70 23t-26 70q0 19 4 35l111 528q-15 5 -33.5 8.5t-42.5 3.5q-128 0 -155 -124l-11 -55h124l-14 -67
h-124l-103 -484q-13 -62 -42 -95t-87 -33q-19 0 -39 4t-35 11l16 72q10 -5 24 -8t31 -3q21 0 33.5 11.5t18.5 40.5l102 484h-68l14 67h68z" />
    <glyph glyph-name=".notdef" horiz-adv-x="556" 
d="M376 0h-340l143 676h340zM289 391l143 223h-192zM123 62h192l-49 222zM345 133l87 410l-131 -205zM211 543l-87 -410l131 205z" />
    <glyph glyph-name=".null" horiz-adv-x="0" 
 />
    <glyph glyph-name="nonmarkingreturn" horiz-adv-x="247" 
 />
    <glyph glyph-name="space" unicode=" " horiz-adv-x="247" 
 />
    <glyph glyph-name="exclam" unicode="!" horiz-adv-x="293" 
d="M47 93h94l-19 -93h-95zM266 676l-114 -485h-75l93 485h96z" />
    <glyph glyph-name="quotedbl" unicode="&#x22;" horiz-adv-x="426" 
d="M173 424h-65l44 252h82zM343 424h-65l45 252h81z" />
    <glyph glyph-name="numbersign" unicode="#" horiz-adv-x="606" 
d="M489 501h102l-14 -66h-102l-39 -186h101l-13 -65h-102l-39 -184h-74l39 184h-159l-39 -184h-75l39 184h-100l14 65h100l40 187h-101l14 65h101l37 175h75l-38 -175h159l38 175h74zM242 436l-39 -187h158l40 187h-159z" />
    <glyph glyph-name="dollar" unicode="$" 
d="M388 666q42 -2 80 -11.5t62 -22.5l-17 -74q-25 12 -63.5 23t-89.5 11q-77 0 -122 -24.5t-45 -80.5q0 -32 20.5 -52.5t51.5 -37.5t66.5 -32.5t66.5 -37t51.5 -52.5t20.5 -77q0 -47 -17 -81.5t-45.5 -57.5t-66 -36t-79.5 -16l-24 -117h-67l25 117q-90 6 -167 43l17 74
q32 -17 80.5 -30.5t105.5 -13.5q34 0 62 6t48 19t31.5 34t11.5 51q0 32 -20.5 53t-51 38t-66.5 32.5t-66.5 37.5t-51 54t-20.5 80q0 44 18 76.5t48 54t68 33t78 14.5l23 114h68z" />
    <glyph glyph-name="percent" unicode="%" horiz-adv-x="887" 
d="M266 626q-26 0 -49.5 -15.5t-41.5 -43t-29.5 -66.5t-11.5 -86q0 -41 16 -64t51 -23q25 0 49 15.5t42 43t29.5 66.5t11.5 86q0 41 -16 64t-51 23zM190 264q-54 0 -87.5 38t-33.5 112q0 57 15.5 107t43 87.5t65.5 59.5t83 22q54 0 88 -37t34 -112q0 -55 -15 -105t-42 -88.5
t-65.5 -61t-85.5 -22.5zM686 348q-26 0 -49.5 -15.5t-41.5 -43t-29 -66.5t-11 -86q0 -41 15.5 -64t50.5 -23q26 0 49.5 15.5t42 43t29.5 66.5t11 86q0 41 -16 64t-51 23zM610 -14q-54 1 -87 38t-33 112q0 56 15 106.5t42.5 88t65.5 59.5t83 22q54 0 88 -37t34 -112
q0 -55 -15 -105t-42 -88.5t-65.5 -61t-85.5 -22.5zM220 0h-67l513 676h68z" />
    <glyph glyph-name="ampersand" unicode="&#x26;" horiz-adv-x="674" 
d="M545 575q-30 16 -71.5 27t-94.5 11q-33 0 -63.5 -6.5t-53.5 -20t-37 -35t-14 -51.5q0 -24 10.5 -41t27.5 -27.5t40 -15.5t47 -5h38l-17 -78h-37q-40 0 -76.5 -8.5t-64 -26.5t-44 -46.5t-16.5 -67.5q0 -57 39.5 -89t111.5 -32q41 0 78.5 11t67.5 36t50.5 65t26.5 97h-94
l16 74h263l-16 -74h-83q-17 -137 -99.5 -211.5t-224.5 -74.5q-50 0 -92 14t-72 39.5t-46.5 60.5t-16.5 77q0 46 15 80.5t40.5 58.5t57.5 39t67 24q-33 13 -60 41.5t-27 77.5q0 47 21 83t57.5 60t85.5 36.5t106 12.5q51 0 97.5 -11t74.5 -26z" />
    <glyph glyph-name="quotesingle" unicode="'" horiz-adv-x="256" 
d="M234 676l-61 -252h-65l45 252h81z" />
    <glyph glyph-name="parenleft" unicode="(" horiz-adv-x="281" 
d="M39 160q0 100 20.5 179t55 144t79 119.5t92.5 107.5h80q-49 -59 -94.5 -114t-81 -119t-56.5 -141t-21 -179q0 -91 18.5 -180t46.5 -167h-71q-29 76 -48.5 168t-19.5 182z" />
    <glyph glyph-name="parenright" unicode=")" horiz-adv-x="284" 
d="M212.002 360.01q0 -99.9941 -20.498 -178.989q-20.499 -78.9951 -54.9971 -143.991t-78.9951 -119.492q-44.4971 -54.4971 -92.4941 -107.494h-79.9951q48.9971 58.9971 94.4941 113.993q45.4971 54.9971 80.9951 118.993t56.4961 140.991q20.999 76.9951 20.999 178.989
q0 90.9941 -18.499 179.989q-18.499 88.9941 -46.4971 166.989h70.9961q28.998 -75.9951 48.4971 -167.989q19.498 -91.9951 19.498 -181.989z" />
    <glyph glyph-name="asterisk" unicode="*" horiz-adv-x="374" 
d="M257 383l-41 107l-83 -106l-48 43l97 95l-107 21l29 64l101 -43l11 112h73l-36 -113l119 44l3 -65l-119 -20l59 -98l-58 -41v0z" />
    <glyph glyph-name="plus" unicode="+" 
d="M522 278h-199v-195h-69v195h-198v66h198v195h69v-195h199v-66z" />
    <glyph glyph-name="comma" unicode="," horiz-adv-x="260" 
d="M127 93q1 -9 1 -17.5v-16.5q-3 -86 -53 -151t-135 -103l-34 56q139 66 139 215q0 4 -0.5 8t-0.5 9h83z" />
    <glyph glyph-name="hyphen" unicode="-" horiz-adv-x="395" 
d="M307 251h-244l16 75h244z" />
    <glyph glyph-name="period" unicode="." horiz-adv-x="260" 
d="M36 94h94l-20 -94h-95z" />
    <glyph glyph-name="slash" unicode="/" horiz-adv-x="350" 
d="M1 0h-74l422 676h74z" />
    <glyph glyph-name="zero" unicode="0" 
d="M346 613q-40 0 -72 -19t-57 -50t-43 -71.5t-29.5 -83.5t-17 -85t-5.5 -76q0 -78 27.5 -121.5t85.5 -43.5q40 0 72 19t56.5 50.5t42.5 71.5t29.5 82.5t17 84.5t5.5 77q0 78 -27.5 121.5t-84.5 43.5zM359 690q47 0 82 -17.5t58.5 -49t35 -75.5t11.5 -98q0 -48 -8 -101.5
t-25 -105t-43.5 -98t-62.5 -82t-82 -56.5t-103 -21q-47 0 -82 17.5t-58.5 49t-35.5 75.5t-12 98q0 48 8 101.5t25 105t43.5 98t62.5 82t82.5 56.5t103.5 21z" />
    <glyph glyph-name="one" unicode="1" 
d="M293 0h-88l126 593l-157 -43l-1 77l181 49h82z" />
    <glyph glyph-name="two" unicode="2" 
d="M131 649q36 19 81 30t96 11q42 0 81 -10t69 -32t48 -56t18 -83q0 -63 -25.5 -117.5t-73 -105.5t-116 -102.5t-154.5 -108.5h312l-17 -75h-433l15 69q97 72 172 129t126 107t77 96.5t26 98.5q0 59 -37.5 86t-97.5 27q-43 0 -82 -11t-68 -26z" />
    <glyph glyph-name="three" unicode="3" 
d="M129 648q35 19 82.5 30.5t102.5 11.5q42 0 79.5 -9.5t66 -30t45 -52t16.5 -76.5q0 -36 -13.5 -64t-34.5 -48t-47 -33t-52 -19q21 -6 40.5 -17.5t34.5 -29t24 -41t9 -54.5q0 -57 -24 -100.5t-64.5 -72t-93 -43t-110.5 -14.5q-48 0 -94 11.5t-77 31.5l18 76
q28 -17 68 -29.5t89 -12.5q38 0 73 8.5t61.5 26.5t42.5 47.5t16 71.5q0 28 -11.5 48t-31 33t-47 18.5t-58.5 5.5h-63l16 74h57q33 0 66 7t58.5 21t41.5 35.5t16 50.5q0 55 -36.5 79t-95.5 24q-44 0 -84 -11.5t-69 -26.5z" />
    <glyph glyph-name="four" unicode="4" 
d="M413 676h104l-90 -426h83l-15 -71h-83l-38 -179h-83l39 179h-340l13 68zM344 250l71 329l-313 -329h242z" />
    <glyph glyph-name="five" unicode="5" 
d="M532 600h-274l-47 -175q6 1 12 1h12q45 0 87.5 -10t76.5 -32.5t54.5 -59.5t20.5 -90q0 -54 -19 -99.5t-56 -78.5t-90 -51.5t-120 -18.5q-48 0 -94 11.5t-78 31.5l18 76q29 -17 70.5 -29.5t86.5 -12.5q42 0 77.5 10t61 30t40 50.5t14.5 71.5t-15.5 66.5t-41.5 40t-59 19.5
t-68 5q-19 0 -36.5 -1.5t-33.5 -3.5l-19 23l82 302h354z" />
    <glyph glyph-name="six" unicode="6" 
d="M301 366q-33 0 -63 -10.5t-52.5 -31t-36 -51.5t-13.5 -73q0 -26 7 -51t21.5 -44t38 -30.5t56.5 -11.5q30 0 58.5 12t50.5 34t35.5 54t13.5 73q0 62 -29.5 96t-86.5 34zM537 588q-28 12 -62 18.5t-68 6.5q-97 0 -162 -60t-92 -176q9 10 24.5 21t36.5 21t47 16.5t56 6.5
q39 0 73 -13t59.5 -37t40.5 -59.5t15 -80.5q0 -61 -19.5 -110t-54 -83.5t-81.5 -53.5t-102 -19q-54 0 -92 20.5t-61.5 54.5t-34 77.5t-10.5 89.5q0 88 22 171t66.5 147.5t112.5 104t160 39.5q39 0 77.5 -7t65.5 -20z" />
    <glyph glyph-name="seven" unicode="7" 
d="M587 676l-14 -70q-66 -59 -125.5 -123.5t-111.5 -138.5t-95.5 -159t-75.5 -185h-95q31 96 74.5 182t95 161.5t109 140t117.5 116.5h-336l15 76h442z" />
    <glyph glyph-name="eight" unicode="8" 
d="M275 312q-32 -6 -61.5 -16.5t-53 -27t-37.5 -40.5t-14 -58q0 -29 11.5 -49t31 -33t45.5 -19t54 -6q22 0 49 6t49.5 19.5t38 35.5t15.5 54q0 25 -10 44.5t-27.5 35t-40.5 28.5t-50 26zM247 -14q-41 0 -81.5 10t-72 31.5t-51 54.5t-19.5 78q0 46 15.5 79t41 56t58 37
t66.5 22q-21 15 -39.5 30t-32 32.5t-21.5 39t-8 48.5q0 40 16.5 74t47.5 59t75 39t100 14q42 0 78 -11.5t63 -32.5t42 -51t15 -68q0 -74 -46 -118.5t-119 -63.5q26 -15 48 -31t38 -35t25 -42.5t9 -53.5q0 -44 -19 -80t-52.5 -62t-79 -40.5t-97.5 -14.5zM452 517q0 50 -35 73
t-88 23q-28 0 -53 -7t-43.5 -19.5t-29.5 -31t-11 -42.5q0 -26 10 -44.5t26 -33t36.5 -26t40.5 -23.5q70 17 108.5 48.5t38.5 82.5z" />
    <glyph glyph-name="nine" unicode="9" 
d="M275.019 310.022q32.998 0 62.9961 10.499q29.998 10.5 52.4961 30.998q22.499 20.499 35.998 51.4971t13.499 72.9951q0 25.999 -6.99902 50.9971q-7 24.999 -21.499 43.998q-14.499 18.998 -37.9971 30.498q-23.499 11.499 -56.4971 11.499q-29.998 0 -58.4961 -11.999
q-28.498 -12 -50.4971 -33.998q-21.999 -21.999 -35.498 -53.9971t-13.499 -72.9951q0 -61.9961 29.498 -95.9941t86.4951 -33.998zM39.0322 88.0361q27.999 -11.999 61.9971 -18.499q33.9971 -6.5 67.9951 -6.5q96.9941 0 161.99 59.9971q64.9961 59.9961 91.9941 175.989
q-8.99902 -10 -24.498 -20.999t-36.498 -20.999q-20.998 -9.99902 -46.9971 -16.499q-25.998 -6.49902 -55.9961 -6.49902q-38.998 0 -72.9961 12.999t-59.4961 36.9971q-25.498 23.999 -40.498 59.4971q-14.999 35.498 -14.999 80.4951q0 60.9961 19.499 109.993
t53.9971 83.4951t81.4951 53.4961q46.9971 18.999 101.993 18.999q53.9971 0 91.9951 -20.499q37.9971 -20.498 61.4961 -54.4961q23.498 -33.998 33.998 -77.4951q10.499 -43.498 10.499 -89.4951q0 -87.9941 -21.999 -170.989q-21.998 -82.9951 -66.4951 -147.491
q-44.498 -64.4961 -112.493 -103.993q-67.9961 -39.498 -159.99 -39.498q-38.998 0 -77.4961 7q-38.4971 6.99902 -65.4961 19.998z" />
    <glyph glyph-name="colon" unicode=":" horiz-adv-x="260" 
d="M116 475h94l-20 -94h-95zM36 94h94l-20 -94h-95z" />
    <glyph glyph-name="semicolon" unicode=";" horiz-adv-x="260" 
d="M127 93q1 -9 1 -17.5v-16.5q-3 -86 -53 -151t-135 -103l-34 56q139 66 139 215q0 4 -0.5 8t-0.5 9h83zM116 475h94l-20 -94h-95z" />
    <glyph glyph-name="less" unicode="&#x3c;" 
d="M56 347l466 208v-76l-377 -166l377 -166v-76l-466 208v68z" />
    <glyph glyph-name="equal" unicode="=" 
d="M522 384h-466v66h466v-66zM522 171h-466v66h466v-66z" />
    <glyph glyph-name="greater" unicode="&#x3e;" 
d="M522 279l-466 -208v76l377 166l-377 166v76l466 -208v-68z" />
    <glyph glyph-name="question" unicode="?" horiz-adv-x="416" 
d="M91 651q27 17 62 28t88 11q37 0 68.5 -9.5t54 -27.5t35.5 -45t13 -62q0 -38 -13.5 -66t-34 -50.5t-45 -41t-47 -38t-40.5 -42.5t-24 -54l-13 -63h-81l15 69q9 40 26.5 69.5t39.5 52.5t44.5 41t41.5 35.5t31 36t12 42.5q0 41 -25.5 59.5t-68.5 18.5q-39 0 -71 -9.5
t-57 -25.5zM87 93h94l-20 -93h-94z" />
    <glyph glyph-name="at" unicode="@" horiz-adv-x="778" 
d="M461 347q-8 3 -17.5 4t-18.5 1q-29 0 -53.5 -10.5t-43 -29.5t-29 -45.5t-10.5 -58.5q0 -29 11.5 -48t36.5 -19q18 0 35 9t30.5 23t22.5 32t13 36zM503 227q-5 -20 -5 -35q0 -20 8.5 -35.5t33.5 -15.5q19 0 39.5 12t37.5 36.5t28 61t11 84.5q0 50 -16.5 87t-45.5 61
t-69.5 36t-89.5 12q-64 0 -124 -21.5t-106.5 -64.5t-74.5 -109t-28 -154q0 -61 19.5 -102.5t51.5 -67.5t73.5 -37.5t86.5 -11.5q48 0 95 9.5t89 27.5l7 -56q-85 -37 -197 -37q-53 0 -105 14.5t-93 47t-66.5 84.5t-25.5 128q0 100 33.5 175.5t89.5 126.5t129 77t152 26
q59 0 109.5 -16.5t88 -48.5t59 -79t21.5 -107q0 -57 -14.5 -103t-40 -78.5t-60 -49.5t-73.5 -17q-36 0 -58.5 17t-29.5 44q-21 -27 -52.5 -44t-67.5 -17q-45 0 -73 31t-28 84q0 46 16.5 83.5t44.5 64t66 40.5t80 14q26 0 55 -6t52 -17z" />
    <glyph glyph-name="A" unicode="A" horiz-adv-x="626" 
d="M425 676l126 -676h-90l-31 167h-313l-99 -167h-93l412 676h88zM163 242h254l-58 325z" />
    <glyph glyph-name="B" unicode="B" horiz-adv-x="621" 
d="M367 676q104 0 162 -42t58 -118q0 -41 -15.5 -71.5t-39.5 -51.5t-52.5 -33.5t-54.5 -18.5q19 -5 39 -14.5t36 -26t26.5 -39.5t10.5 -54q0 -51 -22.5 -90t-63 -65t-97.5 -39t-127 -13h-191l143 676h188zM204 380h100q39 0 73.5 8t60 23.5t40.5 39.5t15 57q0 50 -35.5 71
t-106.5 21h-100zM139 75h103q42 0 78.5 7.5t63.5 22.5t43 39t16 57q0 51 -37 78.5t-114 27.5h-104z" />
    <glyph glyph-name="C" unicode="C" horiz-adv-x="643" 
d="M52 275q0 93 30.5 169.5t85 131t130 84.5t165.5 30q56 0 101 -9t75 -25l-17 -78q-30 15 -70 25t-89 10q-68 0 -126 -22t-100.5 -65t-66.5 -105.5t-24 -143.5q0 -50 15.5 -89.5t44 -67t68 -42t88.5 -14.5q48 0 88 9t80 27l5 -77q-40 -19 -88 -28t-100 -9q-63 0 -117 20.5
t-93.5 58t-62 91t-22.5 119.5z" />
    <glyph glyph-name="D" unicode="D" horiz-adv-x="749" 
d="M142 75h117q73 0 136 20.5t109 61t72.5 100t26.5 137.5q0 98 -58 152t-175 54h-117zM384 676q63 0 119 -17.5t99 -52.5t68 -87t25 -121q0 -96 -33 -170t-92.5 -124.5t-143 -77t-183.5 -26.5h-205l143 676h203z" />
    <glyph glyph-name="E" unicode="E" horiz-adv-x="581" 
d="M574 676l-16 -76h-315l-45 -214h287l-16 -75h-288l-30 -148q-2 -8 -3 -16t-1 -15q0 -29 17 -43t55 -14h243l-16 -75h-256q-69 0 -101 33t-32 86q0 14 4.5 37.5t9.5 46.5l99 473h404z" />
    <glyph glyph-name="F" unicode="F" horiz-adv-x="566" 
d="M577 676l-16 -76h-309l-48 -226h281l-15 -76h-282l-63 -298h-89l143 676h398z" />
    <glyph glyph-name="G" unicode="G" horiz-adv-x="793" 
d="M705 366l-68 -324q-47 -23 -111 -39.5t-142 -16.5q-71 0 -131.5 19.5t-105 57t-70 93t-25.5 127.5q0 109 38.5 186t100.5 126t140 72t156 23q72 0 138 -16.5t119 -45.5l-17 -78q-45 28 -107 45.5t-129 17.5q-64 0 -126 -16.5t-111 -54.5t-79 -101t-30 -156
q0 -55 18 -96.5t50.5 -69.5t78.5 -42t102 -14q47 0 91.5 9t76.5 24l42 196h-210l15 74h296z" />
    <glyph glyph-name="H" unicode="H" horiz-adv-x="785" 
d="M267 676l-61 -288h392l60 288h88l-143 -676h-88l66 311h-392l-66 -311h-88l144 676h88z" />
    <glyph glyph-name="I" unicode="I" horiz-adv-x="306" 
d="M267 676l-143 -676h-88l143 676h88z" />
    <glyph glyph-name="J" unicode="J" horiz-adv-x="379" 
d="M354 676l-107 -503q-21 -97 -69 -142t-132 -45q-31 0 -57.5 7t-43.5 15l17 75q15 -8 37.5 -14t49.5 -6q48 0 73.5 28t36.5 80l107 505h88z" />
    <glyph glyph-name="K" unicode="K" horiz-adv-x="618" 
d="M267 676l-63 -299l369 299h113l-408 -332l268 -344h-107l-249 315l-67 -315h-87l143 676h88z" />
    <glyph glyph-name="L" unicode="L" horiz-adv-x="516" 
d="M259 676l-108 -512q-4 -16 -4 -32q0 -29 17 -43t55 -14h222l-16 -75h-234q-69 0 -101 33.5t-32 85.5q0 20 5 45l108 512h88z" />
    <glyph glyph-name="M" unicode="M" horiz-adv-x="940" 
d="M269 676l170 -455l366 455h96l-143 -676h-88l114 531l-318 -399h-82l-148 399l-113 -531h-87l143 676h90z" />
    <glyph glyph-name="N" unicode="N" horiz-adv-x="779" 
d="M258 676l282 -546l116 546h84l-143 -676h-78l-283 546l-115 -546h-85l143 676h79z" />
    <glyph glyph-name="O" unicode="O" horiz-adv-x="815" 
d="M52 277q0 87 29 162t83 131t131 88t172 32q67 0 121.5 -20.5t93 -58.5t59.5 -91.5t21 -119.5q0 -90 -30 -166t-84.5 -131t-131 -86t-169.5 -31q-67 0 -121.5 20.5t-93 58.5t-59.5 92t-21 120zM455 613q-71 0 -128 -25.5t-98 -70t-63 -105.5t-22 -132q0 -49 14 -89
t41.5 -68.5t67.5 -44t92 -15.5q70 0 127.5 25t98.5 70t63 106t22 133q0 49 -14 88.5t-41.5 68t-67.5 44t-92 15.5z" />
    <glyph glyph-name="P" unicode="P" horiz-adv-x="627" 
d="M391 676q101 0 156 -51t55 -134q0 -60 -23 -104.5t-63.5 -74.5t-95.5 -45t-119 -15h-124l-53 -252h-89l144 676h212zM193 327h121q40 0 76 9t63 28.5t43 49.5t16 72q0 58 -36 86t-104 28h-121z" />
    <glyph glyph-name="Q" unicode="Q" horiz-adv-x="815" 
d="M52 277q0 87 29 162t83 131t131 88t172 32q67 0 121.5 -20.5t93 -58.5t59.5 -91.5t21 -119.5q0 -75 -21 -140.5t-60 -117.5t-94 -88.5t-123 -53.5l129 -157h-110l-103 145q-8 -1 -16.5 -1.5t-16.5 -0.5q-67 0 -121.5 20.5t-93 58.5t-59.5 92t-21 120zM455 613
q-71 0 -128 -25.5t-98 -70t-63 -105.5t-22 -132q0 -49 14 -89t41.5 -68.5t67.5 -44t92 -15.5q70 0 127.5 25t98.5 70t63 106t22 133q0 49 -14 88.5t-41.5 68t-67.5 44t-92 15.5z" />
    <glyph glyph-name="R" unicode="R" horiz-adv-x="635" 
d="M385 676q105 0 161.5 -48.5t56.5 -134.5q0 -49 -16.5 -88t-46 -67.5t-69 -46.5t-84.5 -26l154 -265h-99l-146 254h-117l-55 -254h-88l143 676h206zM194 329h120q41 0 77 9t63 28.5t42.5 49t15.5 71.5q0 57 -35.5 85t-104.5 28h-120z" />
    <glyph glyph-name="S" unicode="S" horiz-adv-x="557" 
d="M506 579q-29 15 -68.5 24.5t-85.5 9.5q-30 0 -59.5 -6t-53.5 -20t-38.5 -36.5t-14.5 -55.5q0 -32 20.5 -54t51 -39.5t66.5 -35t66.5 -41t51 -55.5t20.5 -80q0 -54 -21.5 -93t-57 -63.5t-81 -36t-94.5 -11.5q-60 0 -113 13.5t-89 33.5l17 79q35 -20 84 -34.5t104 -14.5
q30 0 58.5 6t50.5 20.5t35.5 37.5t13.5 56t-20.5 55.5t-51 40.5t-66 35t-66 40t-51 56t-20.5 82t21 86.5t57 62t83 37t98 12.5q54 0 98 -9t73 -24l-18 -78v0z" />
    <glyph glyph-name="T" unicode="T" horiz-adv-x="584" 
d="M635 676l-15 -76h-229l-127 -600h-88l127 600h-229l16 76h545z" />
    <glyph glyph-name="U" unicode="U" horiz-adv-x="697" 
d="M252 676l-93 -437q-6 -29 -6 -54q0 -63 37.5 -92.5t100.5 -29.5q75 0 131.5 42t76.5 134l93 437h87l-94 -438q-27 -126 -107 -188.5t-202 -62.5q-47 0 -86 13t-67 37.5t-43 60t-15 81.5q0 11 1 24.5t4 28.5l94 444h88z" />
    <glyph glyph-name="V" unicode="V" horiz-adv-x="624" 
d="M158 676l102 -567l341 567h91l-415 -676h-84l-125 676h90z" />
    <glyph glyph-name="W" unicode="W" horiz-adv-x="989" 
d="M608 676l67 -563l281 563h92l-337 -676h-105l-67 563l-304 -563h-106l-53 676h89l44 -563l302 563h97z" />
    <glyph glyph-name="X" unicode="X" horiz-adv-x="614" 
d="M185 676l133 -261l242 261h109l-315 -335l177 -341h-99l-140 274l-249 -274h-110l322 348l-168 328h98z" />
    <glyph glyph-name="Y" unicode="Y" horiz-adv-x="585" 
d="M159 676l129 -324l265 324h96l-335 -405l-57 -271h-88l57 271l-162 405h95z" />
    <glyph glyph-name="Z" unicode="Z" horiz-adv-x="607" 
d="M611 676l-15 -70l-490 -531h401l-16 -75h-515l14 69l494 531h-392l16 76h503z" />
    <glyph glyph-name="bracketleft" unicode="[" horiz-adv-x="312" 
d="M353 644h-106l-163 -768h106l-14 -66h-181l191 900h181z" />
    <glyph glyph-name="backslash" unicode="\" horiz-adv-x="436" 
d="M45 676h67l279 -676h-67z" />
    <glyph glyph-name="bracketright" unicode="]" horiz-adv-x="312" 
d="M-77.9785 -123.961h105.993l162.99 767.953h-105.993l13.999 65.9961h180.989l-190.988 -899.945h-180.989z" />
    <glyph glyph-name="asciicircum" unicode="^" 
d="M388 676l114 -430h-69l-89 339l-235 -339h-78l298 430h59z" />
    <glyph glyph-name="underscore" unicode="_" horiz-adv-x="580" 
d="M481 -73h-541l13 59h542z" />
    <glyph glyph-name="grave" unicode="`" horiz-adv-x="510" 
d="M314 559h-63l-99 151h81z" />
    <glyph glyph-name="a" unicode="a" horiz-adv-x="565" 
d="M414 112q-3 -12 -3 -21q0 -13 7 -21.5t24 -8.5q23 0 44 9l-1 -71q-11 -5 -30 -9t-38 -4q-39 0 -61 21t-22 58q0 5 0.5 11t1.5 12q-12 -20 -30.5 -38.5t-41.5 -32.5t-49.5 -22.5t-54.5 -8.5q-68 0 -102 43t-34 117q0 76 24.5 139t67 108.5t101 70.5t127.5 25q35 0 74 -7.5
t71 -21.5zM396 407q-31 10 -68 10q-47 0 -87 -19.5t-70 -54.5t-47 -82.5t-17 -104.5q0 -95 78 -95q33 0 62 15.5t52 41t39 59t24 70.5z" />
    <glyph glyph-name="b" unicode="b" horiz-adv-x="541" 
d="M164 710h81l-69 -312q12 17 29.5 33.5t38.5 29t45.5 20.5t51.5 8q69 0 104 -44.5t35 -116.5q0 -76 -24 -139t-67 -108t-101 -70t-127 -25q-35 0 -74 7.5t-71 22.5zM108 69q17 -6 32.5 -8t31.5 -2q48 0 89 21t71.5 56t47.5 82t17 100q0 95 -78 95q-34 0 -63 -15.5
t-52 -41.5t-39 -59.5t-23 -69.5z" />
    <glyph glyph-name="c" unicode="c" horiz-adv-x="464" 
d="M413 394q-15 9 -38 16t-52 7q-47 0 -87 -20t-69 -54t-45.5 -80t-16.5 -98q0 -58 27.5 -82t70.5 -24q38 0 74 12t67 30l12 -68q-32 -20 -73.5 -33.5t-94.5 -13.5q-34 0 -64 9.5t-52.5 30t-35.5 53t-13 78.5q0 73 25 134t67 105t97 68.5t116 24.5q38 0 61 -6.5t40 -14.5z
" />
    <glyph glyph-name="d" unicode="d" horiz-adv-x="565" 
d="M415 112q-3 -12 -3 -21q0 -13 7 -21.5t24 -8.5q23 0 44 9l-1 -71q-11 -5 -30 -9t-38 -4q-39 0 -61 21t-22 58q0 5 0.5 11t1.5 12q-12 -20 -30.5 -38.5t-41.5 -32.5t-49.5 -22.5t-54.5 -8.5q-68 0 -102 43t-34 117q0 76 24.5 139t67 108.5t101 70.5t127.5 25q16 0 33 -2
t35 -5l48 228h82zM397 407q-31 10 -68 10q-47 0 -87 -19.5t-70 -54.5t-47 -82.5t-17 -104.5q0 -95 78 -95q33 0 62 15.5t52 41t39 59t24 70.5z" />
    <glyph glyph-name="e" unicode="e" horiz-adv-x="499" 
d="M118 260q10 -1 21 -1.5t24 -0.5q33 0 70.5 4.5t69.5 16t53.5 31.5t21.5 51q0 26 -19 41t-57 15q-62 0 -113 -40.5t-71 -116.5zM378 34q-33 -20 -76.5 -34t-100.5 -14q-86 0 -131 48t-45 129q0 72 23 132t62 103t90 67t107 24q76 0 113 -33.5t37 -85.5t-26.5 -86t-68 -54
t-92.5 -28t-100 -8q-34 0 -62 3q-1 -7 -1 -13v-11q0 -62 30 -88t80 -26q80 0 148 43z" />
    <glyph glyph-name="f" unicode="f" horiz-adv-x="312" 
d="M90 -76q-14 -62 -42.5 -95t-86.5 -33q-19 0 -39 4t-35 11l16 72q10 -5 24 -8t31 -3q21 0 33.5 11.5t18.5 40.5l103 484h-68l14 67h68l21 95q35 154 189 154q20 0 35.5 -2.5t27.5 -7.5l-16 -75q-21 11 -53 11q-38 0 -67 -23t-40 -74l-16 -78h131l-14 -67h-131z" />
    <glyph glyph-name="g" unicode="g" horiz-adv-x="545" 
d="M393 13q-23 -107 -93 -162t-170 -55q-51 0 -87.5 12.5t-59.5 26.5l17 73q23 -14 60.5 -26.5t80.5 -12.5q66 0 110 33.5t60 107.5l14 64q-27 -35 -70.5 -61.5t-94.5 -26.5q-68 0 -102 43t-34 117q0 76 24.5 139t67 108.5t101 70.5t127.5 25q35 0 74 -7.5t71 -21.5z
M396 407q-31 10 -68 10q-47 0 -87 -19.5t-70 -54.5t-47 -82.5t-17 -104.5q0 -95 78 -95q33 0 62 15.5t52 41t39 59t24 70.5z" />
    <glyph glyph-name="h" unicode="h" horiz-adv-x="565" 
d="M174 388q13 19 32 37.5t42.5 32.5t51 22.5t58.5 8.5q60 0 93 -36t33 -99q0 -25 -6 -55l-64 -299h-81l63 299q2 12 3.5 22.5t1.5 20.5q0 35 -17 54t-55 19q-35 0 -65.5 -15.5t-55 -41.5t-41.5 -59t-24 -67l-49 -232h-81l150 710h81z" />
    <glyph glyph-name="i" unicode="i" horiz-adv-x="251" 
d="M194 475l-101 -475h-81l101 475h81zM238 682l-21 -99h-81l21 99h81z" />
    <glyph glyph-name="j" unicode="j" horiz-adv-x="251" 
d="M76 -76q-14 -62 -42.5 -95t-86.5 -33q-19 0 -39 4t-35 11l16 72q10 -5 24 -8t31 -3q21 0 33.5 11.5t18.5 40.5l117 551h81zM238 682l-21 -99h-81l21 99h81z" />
    <glyph glyph-name="k" unicode="k" horiz-adv-x="481" 
d="M221 254l195 -254h-96l-179 228l-48 -228h-81l151 710h81l-91 -428l224 193h109z" />
    <glyph glyph-name="l" unicode="l" horiz-adv-x="269" 
d="M242 710l-127 -604q-1 -5 -1.5 -8.5t-0.5 -7.5q0 -19 10.5 -25t24.5 -6q23 0 48 10l-1 -70q-30 -13 -68 -13q-44 0 -70 23t-26 70q0 8 1 17t3 18l126 596h81z" />
    <glyph glyph-name="m" unicode="m" horiz-adv-x="861" 
d="M190 475l-17 -88q13 20 30.5 38.5t40 32.5t49 22.5t56.5 8.5q53 0 83 -28t36 -79q13 19 32.5 38.5t43.5 34.5t52.5 24.5t59.5 9.5q59 0 91.5 -35t32.5 -98q0 -14 -2 -28t-5 -30l-64 -298h-81l63 298q5 25 5 42q0 33 -15.5 53.5t-50.5 20.5t-64.5 -15.5t-53.5 -42
t-40.5 -60t-23.5 -69.5l-47 -227h-81l64 298q2 11 3 21.5t1 19.5q0 34 -15 54.5t-50 20.5t-65 -16.5t-53.5 -42.5t-40 -60t-23.5 -68l-48 -227h-81l101 475h77z" />
    <glyph glyph-name="n" unicode="n" horiz-adv-x="564" 
d="M173 388q13 19 32 37.5t42.5 32.5t51 22.5t58.5 8.5q60 0 93 -36t33 -99q0 -25 -6 -55l-64 -299h-81l63 299q2 12 3.5 22.5t1.5 20.5q0 35 -17 54t-55 19q-35 0 -65.5 -15.5t-55 -41.5t-41.5 -59t-24 -67l-49 -232h-81l101 475h77l-17 -87v0z" />
    <glyph glyph-name="o" unicode="o" horiz-adv-x="534" 
d="M306 489q42 0 72.5 -13.5t51 -38t30.5 -58t10 -73.5q0 -71 -23 -130t-62 -101t-89.5 -65.5t-104.5 -23.5q-41 0 -72 13.5t-51 37.5t-30 57.5t-10 73.5q0 72 23 131t61.5 101t89 65.5t104.5 23.5zM294 417q-34 0 -67 -16.5t-59 -48t-42 -76.5t-16 -101q0 -58 25 -87
t70 -29q33 0 65.5 16.5t58.5 47.5t42 76t16 101q0 58 -25 87.5t-68 29.5z" />
    <glyph glyph-name="p" unicode="p" horiz-adv-x="541" 
d="M113 475h77l-15 -80q27 37 70.5 65.5t95.5 28.5q66 0 102 -43t36 -118q0 -76 -24 -139t-66.5 -108t-100 -70t-124.5 -25q-17 0 -35.5 2.5t-36.5 7.5l-40 -186h-79zM107 69q31 -10 64 -10q48 0 89 21t71.5 56t47.5 82t17 100q0 97 -78 97q-34 0 -63 -16t-52 -42t-39 -59.5
t-23 -69.5z" />
    <glyph glyph-name="q" unicode="q" horiz-adv-x="545" 
d="M351 -190h-82l59 270q-13 -18 -30.5 -35t-39 -30t-46.5 -21t-52 -8q-67 0 -101.5 43t-34.5 117q0 76 24 139t67 108.5t101 70.5t127 25q35 0 74.5 -7.5t71.5 -21.5zM396 407q-31 10 -66 10q-47 0 -88 -19t-71 -53.5t-47 -82.5t-17 -106q0 -95 78 -95q34 0 63 15.5
t51.5 41t38.5 59t24 70.5z" />
    <glyph glyph-name="r" unicode="r" horiz-adv-x="379" 
d="M352 401q-36 0 -70 -12.5t-63 -37.5t-51 -62t-32 -86l-43 -203h-81l101 475h78l-22 -107q12 22 32.5 43.5t46.5 38.5t57.5 28t65.5 11z" />
    <glyph glyph-name="s" unicode="s" horiz-adv-x="428" 
d="M363 391q-23 12 -54.5 19t-66.5 7q-21 0 -39.5 -3.5t-33 -11.5t-23 -21t-8.5 -32q0 -20 14.5 -33t36 -24.5t47 -23t47 -28.5t36 -41t14.5 -60q0 -41 -16 -69.5t-42.5 -47.5t-60.5 -27.5t-70 -8.5q-43 0 -84 11.5t-69 31.5l14 70q28 -20 68 -31t77 -11q41 0 70 15.5
t29 53.5q0 25 -14.5 41t-36 29t-46.5 24.5t-46.5 27t-36 37t-14.5 54.5q0 38 16 66.5t43 47t62 27.5t74 9q36 0 69.5 -7t58.5 -19z" />
    <glyph glyph-name="t" unicode="t" horiz-adv-x="351" 
d="M326 408h-141l-57 -268q-3 -14 -3 -26q0 -23 13 -38.5t46 -15.5q18 0 41 6t37 14v-73q-44 -21 -93 -21q-25 0 -48 6.5t-40 21t-27.5 36t-10.5 51.5q0 20 4 40l56 267h-68l14 67h69l42 151h71l-32 -151h141z" />
    <glyph glyph-name="u" unicode="u" horiz-adv-x="575" 
d="M345 88q-13 -20 -31 -38.5t-41 -32.5t-50.5 -22.5t-57.5 -8.5q-58 0 -93.5 35t-35.5 100q0 13 2 27t5 29l63 298h81l-64 -301q-5 -25 -5 -42q0 -33 14.5 -53t51.5 -20q34 0 64.5 16t55 41.5t42 58.5t24.5 68l49 232h80l-76 -363q-3 -12 -3 -21q0 -13 7 -21.5t24 -8.5
q23 0 44 9l-1 -71q-11 -5 -30 -9t-38 -4q-39 0 -61 21t-22 58q0 5 0.5 11t1.5 12z" />
    <glyph glyph-name="v" unicode="v" horiz-adv-x="476" 
d="M199 0h-80l-88 475h82l68 -380l231 380h85z" />
    <glyph glyph-name="w" unicode="w" horiz-adv-x="779" 
d="M119 475l39 -377l213 377h81l56 -377l201 377h85l-258 -475h-83l-57 381l-219 -381h-84l-56 475h82z" />
    <glyph glyph-name="x" unicode="x" horiz-adv-x="452" 
d="M252 242l127 -242h-89l-94 182l-162 -182h-97l224 241l-120 234h88l89 -175l161 175h97z" />
    <glyph glyph-name="y" unicode="y" horiz-adv-x="556" 
d="M499 475l-97 -462q-23 -107 -93 -162t-170 -55q-51 0 -87.5 12.5t-59.5 26.5l17 73q23 -14 60 -26.5t81 -12.5q66 0 109.5 34t60.5 107l15 65q-27 -36 -70.5 -62.5t-99.5 -26.5q-58 0 -93.5 35t-35.5 100q0 13 2 27t5 29l63 298h81l-64 -301q-5 -25 -5 -42
q0 -33 14.5 -53t51.5 -20q34 0 64.5 16t55 41.5t42 58.5t24.5 68l49 232h80z" />
    <glyph glyph-name="z" unicode="z" horiz-adv-x="467" 
d="M421 417l-323 -347h269l-15 -70h-375l12 57l323 348h-260l15 70h366z" />
    <glyph glyph-name="braceleft" unicode="{" horiz-adv-x="326" 
d="M24 305q32 6 54.5 15.5t38 25.5t25.5 41t19 63l21 95q9 39 22 69.5t35 51.5t55 32.5t81 11.5h23l-14 -66h-26q-48 0 -70.5 -28t-33.5 -80l-20 -99q-16 -77 -50 -116.5t-99 -55.5q42 -14 62 -40t20 -80q0 -11 -1 -22t-4 -24l-27 -121q-2 -11 -3.5 -21t-1.5 -20
q0 -28 14.5 -44.5t49.5 -16.5h26l-13 -66h-26q-63 0 -94.5 33.5t-31.5 87.5q0 11 1.5 22t3.5 23l26 122q4 17 5 30t1 25q0 38 -21 55.5t-62 23.5z" />
    <glyph glyph-name="bar" unicode="|" horiz-adv-x="278" 
d="M171 -190h-65v990h65v-990z" />
    <glyph glyph-name="braceright" unicode="}" horiz-adv-x="327" 
d="M299.002 215.019q-31.998 -6 -54.4971 -15.499t-37.998 -25.498t-25.498 -40.998q-9.99902 -24.998 -18.999 -62.9961l-20.999 -94.9941q-8.99902 -38.998 -21.998 -69.4961t-34.998 -51.4961q-21.999 -20.999 -54.9971 -32.498q-32.998 -11.5 -80.9951 -11.5h-22.998
l13.999 65.9961h25.998q47.9971 0 70.4961 27.998q22.499 27.999 33.498 79.9961l19.999 98.9932q15.999 76.9951 49.9971 116.493q33.9971 39.498 98.9932 55.4971q-41.9971 13.999 -61.9961 39.9971t-19.999 79.9951q0 10.999 1 21.999q1 10.999 4 23.998l26.998 120.993
q2 10.999 3.5 20.998q1.5 10 1.5 19.999q0 27.998 -14.499 44.4971t-49.4971 16.499h-25.998l12.999 65.9961h25.998q62.9961 0 94.4941 -33.498t31.498 -87.4941q0 -11 -1.49902 -21.999q-1.5 -10.999 -3.5 -22.999l-25.999 -121.992q-3.99902 -16.999 -4.99902 -29.998
t-1 -24.998q0 -37.998 20.998 -55.4971q20.999 -17.499 61.9971 -23.499z" />
    <glyph glyph-name="asciitilde" unicode="~" 
d="M416 240q-27 0 -61.5 10.5t-69.5 23.5t-67.5 23.5t-55.5 10.5q-47 0 -47 -67h-64q0 61 29 100t82 39q28 0 62.5 -10.5t69.5 -23.5t67 -23.5t55 -10.5q24 0 35.5 17t11.5 49h64q0 -60 -29 -99t-82 -39z" />
    <glyph glyph-name="uni00A0" unicode="&#xa0;" horiz-adv-x="123" 
 />
    <glyph glyph-name="exclamdown" unicode="&#xa1;" horiz-adv-x="293" 
d="M138 475h94l-19 -94h-95zM183 291l-91 -481h-95l112 481h74z" />
    <glyph glyph-name="cent" unicode="&#xa2;" 
d="M442 777l-33 -150q42 -1 79.5 -10t58.5 -23l-21 -74q-22 14 -56 22t-76 8q-59 0 -103 -23t-73.5 -60.5t-44 -86t-14.5 -100.5q0 -42 13 -71t34.5 -47.5t50 -26.5t59.5 -8q34 0 67.5 8t64.5 22l7 -71q-67 -35 -166 -35l-33 -161h-67l36 171q-69 20 -109.5 75t-40.5 142
q0 66 18.5 123.5t53 102.5t84 75.5t111.5 41.5l33 156h67z" />
    <glyph glyph-name="sterling" unicode="&#xa3;" 
d="M454 313h-192q1 -5 1 -9.5v-9.5q0 -43 -8 -76t-23 -59t-36.5 -46t-49.5 -38h315l-16 -75h-427l14 66q36 22 63 42t46 43.5t28.5 54.5t9.5 76q0 7 -1 16t-2 15h-107l13 61h88q-1 16 -2.5 30t-1.5 29q0 57 17.5 104.5t51 81t82 52.5t110.5 19q36 0 71.5 -7.5t63.5 -21.5
l-22 -75q-23 11 -53 19t-68 8q-77 0 -122 -43t-45 -138q0 -14 1.5 -27.5t3.5 -30.5h210z" />
    <glyph glyph-name="currency" unicode="&#xa4;" 
d="M385 339q0 26 -6.5 49.5t-19 41t-30.5 27.5t-40 10q-23 0 -40.5 -10t-30 -27.5t-19 -41t-6.5 -49.5t6.5 -49.5t19 -41t30 -27.5t40.5 -10q22 0 40 10t30.5 27.5t19 41t6.5 49.5zM115 339q0 32 6.5 61.5t23.5 54.5l-83 97l50 51l80 -95q20 20 44.5 28.5t52.5 8.5
t52.5 -8.5t44.5 -28.5l80 95l50 -51l-83 -97q17 -25 23.5 -54.5t6.5 -61.5t-6.5 -61.5t-23.5 -54.5l83 -97l-50 -51l-80 95q-20 -20 -44.5 -28.5t-52.5 -8.5t-52.5 8.5t-44.5 28.5l-80 -95l-50 51l83 97q-17 25 -23.5 54.5t-6.5 61.5z" />
    <glyph glyph-name="yen" unicode="&#xa5;" 
d="M353 341h147l-12 -53h-162l-22 -107h161l-11 -53h-162l-27 -128h-88l27 128h-162l11 53h162l23 107h-162l12 53h145l-127 335h89l109 -290l235 290h88z" />
    <glyph glyph-name="brokenbar" unicode="&#xa6;" horiz-adv-x="278" 
d="M171 390h-65v410h65v-410zM171 -190h-65v410h65v-410z" />
    <glyph glyph-name="section" unicode="&#xa7;" horiz-adv-x="557" 
d="M484 204q0 -52 -24 -88t-63 -59q13 -29 13 -62q0 -53 -21.5 -91.5t-56.5 -63t-81.5 -36t-95.5 -11.5q-61 0 -111 12.5t-93 34.5l18 78q34 -20 82 -34.5t110 -14.5q30 0 58 6t49.5 19.5t34.5 36.5t13 56q0 36 -20.5 58t-51.5 39t-67 32t-67 36.5t-51.5 53t-20.5 81.5
t24.5 84t64.5 55q-15 30 -15 71q0 51 23 88t60.5 60t85 34t96.5 11q25 0 50 -2.5t48 -7.5t43 -11.5t35 -15.5l-17 -76q-30 17 -71.5 26.5t-92.5 9.5q-31 0 -61 -5.5t-54 -18.5t-38.5 -35t-14.5 -55q0 -34 20.5 -55.5t52 -38t67.5 -32t67.5 -37t52 -53t20.5 -79.5zM401 191
q0 25 -12 43.5t-32 33.5t-45.5 27t-51.5 24.5t-51.5 26.5t-44.5 32q-20 -14 -32 -34t-12 -49q0 -38 27 -61.5t65 -42.5t79.5 -38.5t70.5 -47.5q18 14 28.5 34.5t10.5 51.5z" />
    <glyph glyph-name="dieresis" unicode="&#xa8;" horiz-adv-x="510" 
d="M194 588h-75l21 96h75zM369 588h-75l20 96h75z" />
    <glyph glyph-name="copyright" unicode="&#xa9;" horiz-adv-x="817" 
d="M353 -14q-69 0 -124 22.5t-94 63t-60 95.5t-21 120q0 95 32.5 170t89 126.5t131.5 79t159 27.5q68 0 123 -22.5t94 -63t60 -95.5t21 -120q0 -95 -33 -170t-89 -126.5t-130.5 -79t-158.5 -27.5zM361 33q72 0 136 24t112 70t76.5 112.5t28.5 150.5q0 56 -18 102.5t-51.5 80
t-81.5 52t-107 18.5q-72 0 -136 -24t-112 -70t-76.5 -112.5t-28.5 -150.5q0 -56 18 -102.5t51.5 -80t81.5 -52t107 -18.5zM560 446q-15 10 -38.5 17.5t-55.5 7.5q-31 0 -60 -9.5t-52 -29.5t-37 -51.5t-14 -76.5q0 -51 29 -74t74 -23q27 0 55.5 8t51.5 23l12 -62
q-27 -17 -61 -25.5t-66 -8.5q-33 0 -63 9.5t-53 29t-37 49.5t-14 71q0 58 20.5 102t54 73t76.5 44t88 15q33 0 60.5 -7t44.5 -18z" />
    <glyph glyph-name="ordfeminine" unicode="&#xaa;" horiz-adv-x="411" 
d="M341 463q-2 -8 -2 -11q0 -10 6.5 -14t14.5 -4q7 0 13.5 2.5t11.5 4.5l-2 -53q-8 -4 -18.5 -6.5t-21.5 -2.5q-24 0 -41.5 12.5t-17.5 42.5q0 7 1 10q-19 -27 -44.5 -46t-59.5 -19q-43 0 -66.5 28.5t-23.5 73.5q0 51 17 90t46.5 65.5t68 40t81.5 13.5q39 0 82 -17zM317 634
q-15 3 -32 3q-31 0 -55.5 -12.5t-41.5 -33.5t-26 -48t-9 -57q0 -26 11.5 -38.5t31.5 -12.5q37 0 63 29.5t36 71.5z" />
    <glyph glyph-name="guillemotleft" unicode="&#xab;" horiz-adv-x="513" 
d="M243 248l179 199h83l-172 -202l94 -196h-71zM23 248l179 199h83l-172 -202l94 -196h-71z" />
    <glyph glyph-name="logicalnot" unicode="&#xac;" 
d="M522 172h-69v212h-397v66h466v-278z" />
    <glyph glyph-name="uni00AD" unicode="&#xad;" horiz-adv-x="395" 
d="M307 251h-244l16 75h244z" />
    <glyph glyph-name="registered" unicode="&#xae;" horiz-adv-x="544" 
d="M338 690q39 0 70.5 -13t54 -35.5t34.5 -53.5t12 -68q0 -57 -21 -104t-56.5 -81t-82 -52.5t-97.5 -18.5q-39 0 -70.5 13t-54 35.5t-35 53.5t-12.5 68q0 57 21.5 104t57 81t82 52.5t97.5 18.5zM329 651q-40 0 -77.5 -16t-67 -44.5t-47 -68t-17.5 -86.5q0 -63 38 -98.5
t103 -35.5q40 0 78 16t67.5 44.5t47 68t17.5 87.5q0 62 -39 97.5t-103 35.5zM323 586q38 0 58 -16t20 -45q0 -28 -18.5 -44.5t-48.5 -21.5l40 -89h-55l-34 82h-24l-18 -82h-51l46 216h85zM269 491h35q20 0 32 7.5t12 24.5q0 25 -32 25h-35z" />
    <glyph glyph-name="macron" unicode="&#xaf;" horiz-adv-x="510" 
d="M380 606h-264l13 58h264z" />
    <glyph glyph-name="degree" unicode="&#xb0;" horiz-adv-x="325" 
d="M222 690q45 0 71 -29.5t26 -77.5q0 -35 -12.5 -63.5t-32 -48.5t-44.5 -31t-50 -11q-45 0 -71 29.5t-26 77.5q0 35 12 63.5t32 48.5t44.5 31t50.5 11zM218 642q-18 0 -34 -8t-28 -21.5t-19 -33t-7 -41.5q0 -28 14 -44.5t40 -16.5q17 0 33 7.5t28 21.5t19.5 33t7.5 42
q0 27 -14.5 44t-39.5 17z" />
    <glyph glyph-name="plusminus" unicode="&#xb1;" 
d="M522 0h-466v66h466v-66zM522 299h-199v-188h-69v188h-198v66h198v188h69v-188h199v-66z" />
    <glyph glyph-name="twosuperior" unicode="&#xb2;" horiz-adv-x="387" 
d="M104 662q23 13 53.5 20.5t62.5 7.5q26 0 51 -6.5t44.5 -20t31.5 -35t12 -51.5q0 -63 -51.5 -125t-156.5 -131h173l-13 -57h-268l9 47q62 47 107 83t73.5 66t42 56t13.5 54q0 33 -23 46.5t-52 13.5q-26 0 -51 -6.5t-44 -17.5z" />
    <glyph glyph-name="threesuperior" unicode="&#xb3;" horiz-adv-x="387" 
d="M113 664q49 26 116 26q26 0 50.5 -6t43 -19t30 -33t11.5 -48q0 -43 -26.5 -68.5t-62.5 -33.5q29 -9 48.5 -31t19.5 -59q0 -34 -14.5 -60t-38.5 -43t-55 -26t-65 -9q-32 0 -63 8t-55 22l17 55q19 -11 47 -19.5t56 -8.5q22 0 41 4.5t33 14.5t22.5 25.5t8.5 37.5
q0 34 -25.5 48.5t-73.5 14.5h-30l11 55h36q20 0 39 3.5t33.5 11.5t23 20.5t8.5 29.5q0 32 -24 44t-53 12q-28 0 -53.5 -7.5t-43.5 -16.5l-12 56v0z" />
    <glyph glyph-name="acute" unicode="&#xb4;" horiz-adv-x="510" 
d="M274 710h90l-137 -151h-66z" />
    <glyph glyph-name="mu" unicode="&#xb5;" horiz-adv-x="572" 
d="M352 88q-25 -42 -68 -72t-101 -30q-34 0 -53.5 13t-29.5 28l-47 -217h-80l140 665h81l-63 -299q-5 -25 -5 -42q0 -34 18 -52.5t53 -18.5q34 0 64 15t53 40.5t39.5 57.5t23.5 67l49 232h80l-76 -363q-3 -12 -3 -21q0 -13 7 -21.5t24 -8.5q23 0 44 9l-1 -71q-11 -5 -30 -9
t-38 -4q-39 0 -61 21t-22 58q0 5 0.5 11t1.5 12z" />
    <glyph glyph-name="paragraph" unicode="&#xb6;" horiz-adv-x="712" 
d="M488 -190h-65l185 866h65zM341 240h-58q-42 0 -79.5 12t-65.5 35.5t-44.5 58t-16.5 80.5q0 65 23 112t63 78t94.5 45.5t118.5 14.5h125l-185 -866h-66z" />
    <glyph glyph-name="periodcentered" unicode="&#xb7;" horiz-adv-x="264" 
d="M94 334h94l-20 -94h-95z" />
    <glyph glyph-name="cedilla" unicode="&#xb8;" horiz-adv-x="510" 
d="M272 -55q27 -5 47.5 -22.5t20.5 -49.5q0 -44 -32 -65.5t-74 -21.5q-18 0 -36.5 3.5t-32.5 10.5l16 51q11 -5 24.5 -8t24.5 -3q19 0 30.5 7.5t11.5 22.5q0 21 -20.5 29.5t-49.5 10.5l35 93h55z" />
    <glyph glyph-name="onesuperior" unicode="&#xb9;" horiz-adv-x="322" 
d="M198 264h-67l74 346l-110 -26v61l130 31h60z" />
    <glyph glyph-name="ordmasculine" unicode="&#xba;" horiz-adv-x="408" 
d="M270 690q53 0 81.5 -33t28.5 -84q0 -43 -14 -79t-37.5 -61.5t-54.5 -39.5t-65 -14q-54 0 -83 32.5t-29 83.5q0 43 14 79t38 62t55 40t66 14zM214 432q19 0 38 9t34 26t24 42t9 58q0 35 -14.5 52t-40.5 17q-20 0 -39 -9t-34 -26t-24 -42t-9 -58q0 -36 14.5 -52.5
t41.5 -16.5z" />
    <glyph glyph-name="guillemotright" unicode="&#xbb;" horiz-adv-x="513" 
d="M480.001 248.016l-178.988 -198.988h-82.9951l171.989 201.987l-93.9941 195.988h70.9951zM260.001 248.016l-178.988 -198.988h-82.9951l171.989 201.987l-93.9941 195.988h70.9951z" />
    <glyph glyph-name="onequarter" unicode="&#xbc;" horiz-adv-x="818" 
d="M667 420h76l-56 -267h56l-11 -56h-57l-21 -97h-61l20 97h-202l10 49zM625 153l40 185l-167 -185h127zM208 264h-67l74 346l-110 -26v61l130 31h60zM162 0h-67l513 676h68z" />
    <glyph glyph-name="onehalf" unicode="&#xbd;" horiz-adv-x="885" 
d="M162 0h-67l513 676h68zM208 264h-67l74 346l-110 -26v61l130 31h60zM542 399q23 13 53.5 20.5t62.5 7.5q26 0 51 -6.5t44.5 -20t31.5 -35t12 -51.5q0 -63 -51.5 -125t-156.5 -131h173l-13 -57h-268l9 47q62 47 107 83t73.5 66t42 56t13.5 54q0 33 -23 46.5t-52 13.5
q-26 0 -51 -6.5t-44 -17.5z" />
    <glyph glyph-name="threequarters" unicode="&#xbe;" horiz-adv-x="861" 
d="M711 420h76l-56 -267h56l-11 -56h-57l-21 -97h-61l20 97h-202l10 49zM669 153l40 185l-167 -185h127zM231 0h-67l513 676h68zM113 664q49 26 116 26q26 0 50.5 -6t43 -19t30 -33t11.5 -48q0 -43 -26.5 -68.5t-62.5 -33.5q29 -9 48.5 -31t19.5 -59q0 -34 -14.5 -60
t-38.5 -43t-55 -26t-65 -9q-32 0 -63 8t-55 22l17 55q19 -11 47 -19.5t56 -8.5q22 0 41 4.5t33 14.5t22.5 25.5t8.5 37.5q0 34 -25.5 48.5t-73.5 14.5h-30l11 55h36q20 0 39 3.5t33.5 11.5t23 20.5t8.5 29.5q0 32 -24 44t-53 12q-28 0 -53.5 -7.5t-43.5 -16.5z" />
    <glyph glyph-name="questiondown" unicode="&#xbf;" horiz-adv-x="370" 
d="M269 -165q-27 -17 -62 -28t-88 -11q-36 0 -67 9.5t-54 27.5t-36.5 45t-13.5 62q0 38 13.5 66t34 50.5t45 41t47 38t40 42.5t24.5 54l12 59h81l-14 -65q-9 -40 -26.5 -69.5t-39.5 -52.5t-44.5 -41t-41.5 -35.5t-31 -36.5t-12 -42q0 -41 28 -59.5t66 -18.5q39 0 71 9.5
t57 25.5zM270 382h-94l20 93h94z" />
    <glyph glyph-name="Agrave" unicode="&#xc0;" horiz-adv-x="626" 
d="M425 676l126 -676h-90l-31 167h-313l-99 -167h-93l412 676h88zM163 242h254l-58 325zM422 744h-63l-99 151h81z" />
    <glyph glyph-name="Aacute" unicode="&#xc1;" horiz-adv-x="626" 
d="M425 676l126 -676h-90l-31 167h-313l-99 -167h-93l412 676h88zM163 242h254l-58 325zM482 895h90l-137 -151h-66z" />
    <glyph glyph-name="Acircumflex" unicode="&#xc2;" horiz-adv-x="626" 
d="M425 676l126 -676h-90l-31 167h-313l-99 -167h-93l412 676h88zM163 242h254l-58 325zM461 895l72 -151h-62l-51 96l-89 -96h-72l134 151h68z" />
    <glyph glyph-name="Atilde" unicode="&#xc3;" horiz-adv-x="626" 
d="M425 676l126 -676h-90l-31 167h-313l-99 -167h-93l412 676h88zM163 242h254l-58 325zM570 878q-5 -55 -30.5 -89t-76.5 -34q-20 0 -35.5 10t-29 22.5t-26 22.5t-25.5 10q-15 0 -25.5 -15t-12.5 -48h-58q5 54 30 88.5t73 34.5q22 0 37.5 -9.5t28.5 -21.5t25 -21.5t27 -9.5
q16 0 27 13.5t13 46.5h58z" />
    <glyph glyph-name="Adieresis" unicode="&#xc4;" horiz-adv-x="626" 
d="M425 676l126 -676h-90l-31 167h-313l-99 -167h-93l412 676h88zM163 242h254l-58 325zM353 769h-75l21 96h75zM528 769h-75l20 96h75z" />
    <glyph glyph-name="Aring" unicode="&#xc5;" horiz-adv-x="626" 
d="M425 676l126 -676h-90l-31 167h-313l-99 -167h-93l412 676h88zM163 242h254l-58 325zM417 866q-27 0 -43.5 -14.5t-16.5 -40.5q0 -19 13.5 -29t34.5 -10q26 0 42.5 15t16.5 41q0 19 -13 28.5t-34 9.5zM422 909q39 0 67 -20t28 -60q0 -23 -10 -41.5t-26 -31.5t-37.5 -20
t-43.5 -7q-39 0 -67.5 20.5t-28.5 60.5q0 23 10 41.5t26.5 31t37.5 19.5t44 7z" />
    <glyph glyph-name="AE" unicode="&#xc6;" horiz-adv-x="899" 
d="M875 600h-315l-45 -214h287l-16 -75h-288l-30 -148q-2 -8 -3 -16t-1 -15q0 -29 17 -43t55 -14h243l-16 -75h-256q-69 0 -101 33t-32 86q0 8 1.5 20.5t5.5 27.5h-255l-132 -167h-100l540 676h457zM396 242l74 354l-285 -354h211z" />
    <glyph glyph-name="Ccedilla" unicode="&#xc7;" horiz-adv-x="643" 
d="M52 275q0 93 30.5 169.5t85 131t130 84.5t165.5 30q56 0 101 -9t75 -25l-17 -78q-30 15 -70 25t-89 10q-68 0 -126 -22t-100.5 -65t-66.5 -105.5t-24 -143.5q0 -50 15.5 -89.5t44 -67t68 -42t88.5 -14.5q48 0 88 9t80 27l5 -77q-40 -19 -88 -28t-100 -9q-8 0 -14.5 0.5
t-14.5 1.5l-14 -43q27 -5 47.5 -22.5t20.5 -49.5q0 -44 -32 -65.5t-74 -21.5q-18 0 -36.5 3.5t-32.5 10.5l16 51q11 -5 24.5 -8t24.5 -3q19 0 30.5 7.5t11.5 22.5q0 21 -20.5 29.5t-49.5 10.5l32 85q-48 11 -87 35.5t-67.5 60.5t-44 82t-15.5 102z" />
    <glyph glyph-name="Egrave" unicode="&#xc8;" horiz-adv-x="581" 
d="M574 676l-16 -76h-315l-45 -214h287l-16 -75h-288l-30 -148q-2 -8 -3 -16t-1 -15q0 -29 17 -43t55 -14h243l-16 -75h-256q-69 0 -101 33t-32 86q0 14 4.5 37.5t9.5 46.5l99 473h404zM429 744h-63l-99 151h81z" />
    <glyph glyph-name="Eacute" unicode="&#xc9;" horiz-adv-x="581" 
d="M574 676l-16 -76h-315l-45 -214h287l-16 -75h-288l-30 -148q-2 -8 -3 -16t-1 -15q0 -29 17 -43t55 -14h243l-16 -75h-256q-69 0 -101 33t-32 86q0 14 4.5 37.5t9.5 46.5l99 473h404zM455 895h90l-137 -151h-66z" />
    <glyph glyph-name="Ecircumflex" unicode="&#xca;" horiz-adv-x="581" 
d="M574 676l-16 -76h-315l-45 -214h287l-16 -75h-288l-30 -148q-2 -8 -3 -16t-1 -15q0 -29 17 -43t55 -14h243l-16 -75h-256q-69 0 -101 33t-32 86q0 14 4.5 37.5t9.5 46.5l99 473h404zM450 895l72 -151h-62l-51 96l-89 -96h-72l134 151h68z" />
    <glyph glyph-name="Edieresis" unicode="&#xcb;" horiz-adv-x="581" 
d="M574 676l-16 -76h-315l-45 -214h287l-16 -75h-288l-30 -148q-2 -8 -3 -16t-1 -15q0 -29 17 -43t55 -14h243l-16 -75h-256q-69 0 -101 33t-32 86q0 14 4.5 37.5t9.5 46.5l99 473h404zM342 770h-75l21 96h75zM517 770h-75l20 96h75z" />
    <glyph glyph-name="Igrave" unicode="&#xcc;" horiz-adv-x="306" 
d="M267 676l-143 -676h-88l143 676h88zM271 744h-63l-99 151h81z" />
    <glyph glyph-name="Iacute" unicode="&#xcd;" horiz-adv-x="306" 
d="M267 676l-143 -676h-88l143 676h88zM318 895h90l-137 -151h-66z" />
    <glyph glyph-name="Icircumflex" unicode="&#xce;" horiz-adv-x="306" 
d="M267 676l-143 -676h-88l143 676h88zM303 895l72 -151h-62l-51 96l-89 -96h-72l134 151h68z" />
    <glyph glyph-name="Idieresis" unicode="&#xcf;" horiz-adv-x="306" 
d="M267 676l-143 -676h-88l143 676h88zM195 770h-75l21 96h75zM370 770h-75l20 96h75z" />
    <glyph glyph-name="Eth" unicode="&#xd0;" horiz-adv-x="757" 
d="M392 676q63 0 119 -17.5t99 -52.5t68 -87t25 -121q0 -96 -33 -170t-92.5 -124.5t-143 -77t-183.5 -26.5h-205l67 318h-82l15 64h81l62 294h203zM215 382h199l-14 -64h-199l-51 -243h117q73 0 136 20.5t109 61t72.5 100t26.5 137.5q0 98 -58 152t-175 54h-117z" />
    <glyph glyph-name="Ntilde" unicode="&#xd1;" horiz-adv-x="778" 
d="M258 676l282 -546l116 546h84l-143 -676h-78l-283 546l-115 -546h-85l143 676h79zM646 878q-5 -55 -30.5 -89t-76.5 -34q-20 0 -35.5 10t-29 22.5t-26 22.5t-25.5 10q-15 0 -25.5 -15t-12.5 -48h-58q5 54 30 88.5t73 34.5q22 0 37.5 -9.5t28.5 -21.5t25 -21.5t27 -9.5
q16 0 27 13.5t13 46.5h58z" />
    <glyph glyph-name="Ograve" unicode="&#xd2;" horiz-adv-x="815" 
d="M52 277q0 87 29 162t83 131t131 88t172 32q67 0 121.5 -20.5t93 -58.5t59.5 -91.5t21 -119.5q0 -90 -30 -166t-84.5 -131t-131 -86t-169.5 -31q-67 0 -121.5 20.5t-93 58.5t-59.5 92t-21 120zM455 613q-71 0 -128 -25.5t-98 -70t-63 -105.5t-22 -132q0 -49 14 -89
t41.5 -68.5t67.5 -44t92 -15.5q70 0 127.5 25t98.5 70t63 106t22 133q0 49 -14 88.5t-41.5 68t-67.5 44t-92 15.5zM528 744h-63l-99 151h81z" />
    <glyph glyph-name="Oacute" unicode="&#xd3;" horiz-adv-x="815" 
d="M52 277q0 87 29 162t83 131t131 88t172 32q67 0 121.5 -20.5t93 -58.5t59.5 -91.5t21 -119.5q0 -90 -30 -166t-84.5 -131t-131 -86t-169.5 -31q-67 0 -121.5 20.5t-93 58.5t-59.5 92t-21 120zM455 613q-71 0 -128 -25.5t-98 -70t-63 -105.5t-22 -132q0 -49 14 -89
t41.5 -68.5t67.5 -44t92 -15.5q70 0 127.5 25t98.5 70t63 106t22 133q0 49 -14 88.5t-41.5 68t-67.5 44t-92 15.5zM559 895h90l-137 -151h-66z" />
    <glyph glyph-name="Ocircumflex" unicode="&#xd4;" horiz-adv-x="815" 
d="M52 277q0 87 29 162t83 131t131 88t172 32q67 0 121.5 -20.5t93 -58.5t59.5 -91.5t21 -119.5q0 -90 -30 -166t-84.5 -131t-131 -86t-169.5 -31q-67 0 -121.5 20.5t-93 58.5t-59.5 92t-21 120zM455 613q-71 0 -128 -25.5t-98 -70t-63 -105.5t-22 -132q0 -49 14 -89
t41.5 -68.5t67.5 -44t92 -15.5q70 0 127.5 25t98.5 70t63 106t22 133q0 49 -14 88.5t-41.5 68t-67.5 44t-92 15.5zM556 895l72 -151h-62l-51 96l-89 -96h-72l134 151h68z" />
    <glyph glyph-name="Otilde" unicode="&#xd5;" horiz-adv-x="815" 
d="M52 277q0 87 29 162t83 131t131 88t172 32q67 0 121.5 -20.5t93 -58.5t59.5 -91.5t21 -119.5q0 -90 -30 -166t-84.5 -131t-131 -86t-169.5 -31q-67 0 -121.5 20.5t-93 58.5t-59.5 92t-21 120zM455 613q-71 0 -128 -25.5t-98 -70t-63 -105.5t-22 -132q0 -49 14 -89
t41.5 -68.5t67.5 -44t92 -15.5q70 0 127.5 25t98.5 70t63 106t22 133q0 49 -14 88.5t-41.5 68t-67.5 44t-92 15.5zM665 878q-5 -55 -30.5 -89t-76.5 -34q-20 0 -35.5 10t-29 22.5t-26 22.5t-25.5 10q-15 0 -25.5 -15t-12.5 -48h-58q5 54 30 88.5t73 34.5q22 0 37.5 -9.5
t28.5 -21.5t25 -21.5t27 -9.5q16 0 27 13.5t13 46.5h58z" />
    <glyph glyph-name="Odieresis" unicode="&#xd6;" horiz-adv-x="815" 
d="M52 277q0 87 29 162t83 131t131 88t172 32q67 0 121.5 -20.5t93 -58.5t59.5 -91.5t21 -119.5q0 -90 -30 -166t-84.5 -131t-131 -86t-169.5 -31q-67 0 -121.5 20.5t-93 58.5t-59.5 92t-21 120zM455 613q-71 0 -128 -25.5t-98 -70t-63 -105.5t-22 -132q0 -49 14 -89
t41.5 -68.5t67.5 -44t92 -15.5q70 0 127.5 25t98.5 70t63 106t22 133q0 49 -14 88.5t-41.5 68t-67.5 44t-92 15.5zM448 770h-75l21 96h75zM623 770h-75l20 96h75z" />
    <glyph glyph-name="multiply" unicode="&#xd7;" 
d="M513 491l-178 -180l178 -179l-47 -47l-178 180l-178 -180l-46 47l178 179l-178 180l46 47l178 -180l178 180z" />
    <glyph glyph-name="Oslash" unicode="&#xd8;" horiz-adv-x="815" 
d="M762 399q0 -87 -29 -162t-83 -131t-131 -88t-172 -32q-58 0 -106.5 15t-85.5 44l-93 -95l-35 38l91 92q-32 38 -49 87t-17 109q0 90 30 166t84.5 131t131 86t169.5 31q57 0 105 -15.5t86 -44.5l91 93l35 -37l-89 -90q32 -38 49.5 -87.5t17.5 -109.5zM359 63
q70 0 127.5 25.5t98.5 70t63 105.5t22 132q0 40 -10 74.5t-29 60.5l-416 -424q55 -44 144 -44zM597 568q-54 45 -142 45q-71 0 -128 -24.5t-98 -69t-63 -106t-22 -134.5q0 -81 38 -134z" />
    <glyph glyph-name="Ugrave" unicode="&#xd9;" horiz-adv-x="697" 
d="M252 676l-93 -437q-6 -29 -6 -54q0 -63 37.5 -92.5t100.5 -29.5q75 0 131.5 42t76.5 134l93 437h87l-94 -438q-27 -126 -107 -188.5t-202 -62.5q-47 0 -86 13t-67 37.5t-43 60t-15 81.5q0 11 1 24.5t4 28.5l94 444h88zM472 744h-63l-99 151h81z" />
    <glyph glyph-name="Uacute" unicode="&#xda;" horiz-adv-x="697" 
d="M252 676l-93 -437q-6 -29 -6 -54q0 -63 37.5 -92.5t100.5 -29.5q75 0 131.5 42t76.5 134l93 437h87l-94 -438q-27 -126 -107 -188.5t-202 -62.5q-47 0 -86 13t-67 37.5t-43 60t-15 81.5q0 11 1 24.5t4 28.5l94 444h88zM503 895h90l-137 -151h-66z" />
    <glyph glyph-name="Ucircumflex" unicode="&#xdb;" horiz-adv-x="697" 
d="M252 676l-93 -437q-6 -29 -6 -54q0 -63 37.5 -92.5t100.5 -29.5q75 0 131.5 42t76.5 134l93 437h87l-94 -438q-27 -126 -107 -188.5t-202 -62.5q-47 0 -86 13t-67 37.5t-43 60t-15 81.5q0 11 1 24.5t4 28.5l94 444h88zM501 895l72 -151h-62l-51 96l-89 -96h-72l134 151
h68z" />
    <glyph glyph-name="Udieresis" unicode="&#xdc;" horiz-adv-x="697" 
d="M252 676l-93 -437q-6 -29 -6 -54q0 -63 37.5 -92.5t100.5 -29.5q75 0 131.5 42t76.5 134l93 437h87l-94 -438q-27 -126 -107 -188.5t-202 -62.5q-47 0 -86 13t-67 37.5t-43 60t-15 81.5q0 11 1 24.5t4 28.5l94 444h88zM389 769h-75l21 96h75zM564 769h-75l20 96h75z" />
    <glyph glyph-name="Yacute" unicode="&#xdd;" horiz-adv-x="585" 
d="M159 676l129 -324l265 324h96l-335 -405l-57 -271h-88l57 271l-162 405h95zM454 895h90l-137 -151h-66z" />
    <glyph glyph-name="Thorn" unicode="&#xde;" horiz-adv-x="627" 
d="M179 676h88l-25 -124h122q101 0 156 -51t55 -134q0 -60 -23 -104.5t-63.5 -74.5t-95.5 -45t-119 -15h-124l-27 -128h-88zM166 203h121q40 0 76 9t63 28.5t43 49.5t16 72q0 58 -36 86t-104 28h-121z" />
    <glyph glyph-name="germandbls" unicode="&#xdf;" horiz-adv-x="532" 
d="M469 139q0 -39 -14 -68t-38 -48t-56 -28t-69 -9q-38 0 -72.5 9.5t-62.5 24.5l16 73q21 -13 52 -24t69 -11q40 0 68 19t28 57q0 33 -20 56t-43.5 44t-43.5 45t-20 59q0 28 12 49.5t30 39t39 33t39 32.5t30 37t12 47q0 32 -25.5 54t-71.5 22q-49 0 -86 -26t-49 -82
l-116 -544h-80l113 530q20 96 74 144.5t157 48.5q38 0 68.5 -10.5t51.5 -28.5t32.5 -42.5t11.5 -52.5q0 -37 -12 -64.5t-30.5 -48.5t-40 -37.5t-40 -31t-30.5 -29t-12 -31.5q0 -20 20 -39t44.5 -42.5t44.5 -54t20 -72.5z" />
    <glyph glyph-name="agrave" unicode="&#xe0;" horiz-adv-x="565" 
d="M414 112q-3 -12 -3 -21q0 -13 7 -21.5t24 -8.5q23 0 44 9l-1 -71q-11 -5 -30 -9t-38 -4q-39 0 -61 21t-22 58q0 5 0.5 11t1.5 12q-12 -20 -30.5 -38.5t-41.5 -32.5t-49.5 -22.5t-54.5 -8.5q-68 0 -102 43t-34 117q0 76 24.5 139t67 108.5t101 70.5t127.5 25q35 0 74 -7.5
t71 -21.5zM396 407q-31 10 -68 10q-47 0 -87 -19.5t-70 -54.5t-47 -82.5t-17 -104.5q0 -95 78 -95q33 0 62 15.5t52 41t39 59t24 70.5zM380 559h-63l-99 151h81z" />
    <glyph glyph-name="aacute" unicode="&#xe1;" horiz-adv-x="565" 
d="M414 112q-3 -12 -3 -21q0 -13 7 -21.5t24 -8.5q23 0 44 9l-1 -71q-11 -5 -30 -9t-38 -4q-39 0 -61 21t-22 58q0 5 0.5 11t1.5 12q-12 -20 -30.5 -38.5t-41.5 -32.5t-49.5 -22.5t-54.5 -8.5q-68 0 -102 43t-34 117q0 76 24.5 139t67 108.5t101 70.5t127.5 25q35 0 74 -7.5
t71 -21.5zM396 407q-31 10 -68 10q-47 0 -87 -19.5t-70 -54.5t-47 -82.5t-17 -104.5q0 -95 78 -95q33 0 62 15.5t52 41t39 59t24 70.5zM413 710h90l-137 -151h-66z" />
    <glyph glyph-name="acircumflex" unicode="&#xe2;" horiz-adv-x="565" 
d="M414 112q-3 -12 -3 -21q0 -13 7 -21.5t24 -8.5q23 0 44 9l-1 -71q-11 -5 -30 -9t-38 -4q-39 0 -61 21t-22 58q0 5 0.5 11t1.5 12q-12 -20 -30.5 -38.5t-41.5 -32.5t-49.5 -22.5t-54.5 -8.5q-68 0 -102 43t-34 117q0 76 24.5 139t67 108.5t101 70.5t127.5 25q35 0 74 -7.5
t71 -21.5zM396 407q-31 10 -68 10q-47 0 -87 -19.5t-70 -54.5t-47 -82.5t-17 -104.5q0 -95 78 -95q33 0 62 15.5t52 41t39 59t24 70.5zM395 710l72 -151h-62l-51 96l-89 -96h-72l134 151h68z" />
    <glyph glyph-name="atilde" unicode="&#xe3;" horiz-adv-x="565" 
d="M414 112q-3 -12 -3 -21q0 -13 7 -21.5t24 -8.5q23 0 44 9l-1 -71q-11 -5 -30 -9t-38 -4q-39 0 -61 21t-22 58q0 5 0.5 11t1.5 12q-12 -20 -30.5 -38.5t-41.5 -32.5t-49.5 -22.5t-54.5 -8.5q-68 0 -102 43t-34 117q0 76 24.5 139t67 108.5t101 70.5t127.5 25q35 0 74 -7.5
t71 -21.5zM396 407q-31 10 -68 10q-47 0 -87 -19.5t-70 -54.5t-47 -82.5t-17 -104.5q0 -95 78 -95q33 0 62 15.5t52 41t39 59t24 70.5zM507 694q-5 -55 -30.5 -89t-76.5 -34q-20 0 -35.5 10t-29 22.5t-26 22.5t-25.5 10q-15 0 -25.5 -15t-12.5 -48h-58q5 54 30 88.5t73 34.5
q22 0 37.5 -9.5t28.5 -21.5t25 -21.5t27 -9.5q16 0 27 13.5t13 46.5h58z" />
    <glyph glyph-name="adieresis" unicode="&#xe4;" horiz-adv-x="565" 
d="M414 112q-3 -12 -3 -21q0 -13 7 -21.5t24 -8.5q23 0 44 9l-1 -71q-11 -5 -30 -9t-38 -4q-39 0 -61 21t-22 58q0 5 0.5 11t1.5 12q-12 -20 -30.5 -38.5t-41.5 -32.5t-49.5 -22.5t-54.5 -8.5q-68 0 -102 43t-34 117q0 76 24.5 139t67 108.5t101 70.5t127.5 25q35 0 74 -7.5
t71 -21.5zM396 407q-31 10 -68 10q-47 0 -87 -19.5t-70 -54.5t-47 -82.5t-17 -104.5q0 -95 78 -95q33 0 62 15.5t52 41t39 59t24 70.5zM293 588h-75l21 96h75zM468 588h-75l20 96h75z" />
    <glyph glyph-name="aring" unicode="&#xe5;" horiz-adv-x="565" 
d="M414 112q-3 -12 -3 -21q0 -13 7 -21.5t24 -8.5q23 0 44 9l-1 -71q-11 -5 -30 -9t-38 -4q-39 0 -61 21t-22 58q0 5 0.5 11t1.5 12q-12 -20 -30.5 -38.5t-41.5 -32.5t-49.5 -22.5t-54.5 -8.5q-68 0 -102 43t-34 117q0 76 24.5 139t67 108.5t101 70.5t127.5 25q35 0 74 -7.5
t71 -21.5zM396 407q-31 10 -68 10q-47 0 -87 -19.5t-70 -54.5t-47 -82.5t-17 -104.5q0 -95 78 -95q33 0 62 15.5t52 41t39 59t24 70.5zM355 681q-27 0 -43.5 -14.5t-16.5 -40.5q0 -19 13.5 -29t34.5 -10q26 0 42.5 15t16.5 41q0 19 -13 28.5t-34 9.5zM360 724q39 0 67 -20
t28 -60q0 -23 -10 -41.5t-26 -31.5t-37.5 -20t-43.5 -7q-39 0 -67.5 20.5t-28.5 60.5q0 23 10 41.5t26.5 31t37.5 19.5t44 7z" />
    <glyph glyph-name="ae" unicode="&#xe6;" horiz-adv-x="782" 
d="M661 34q-33 -20 -76.5 -34t-100.5 -14q-54 0 -92.5 20t-59.5 56q-28 -32 -73 -54t-99 -22q-68 0 -102 43t-34 117q0 76 24.5 139t67 108.5t101 70.5t127.5 25q32 0 66 -6.5t64 -19.5q26 12 56.5 19t59.5 7q76 0 113 -33.5t37 -85.5t-26.5 -86t-68 -54t-92.5 -28t-100 -8
q-34 0 -62 3q-1 -7 -1 -13v-11q0 -62 30 -88t80 -26q80 0 148 43zM400 406q-20 6 -37.5 8.5t-34.5 2.5q-47 0 -87 -19.5t-70 -54.5t-47 -82.5t-17 -104.5q0 -95 78 -95q38 0 69.5 19t55.5 51q-2 8 -2 16v16q0 146 92 243zM401 260q10 -1 21 -1.5t24 -0.5q33 0 70.5 4.5
t69.5 16t53.5 31.5t21.5 51q0 26 -19 41t-57 15q-62 0 -113 -40.5t-71 -116.5z" />
    <glyph glyph-name="ccedilla" unicode="&#xe7;" horiz-adv-x="464" 
d="M413 394q-15 9 -38 16t-52 7q-47 0 -87 -20t-69 -54t-45.5 -80t-16.5 -98q0 -58 27.5 -82t70.5 -24q38 0 74 12t67 30l12 -68q-31 -19 -70.5 -32t-90.5 -15l-14 -41q27 -5 47.5 -22.5t20.5 -49.5q0 -44 -32 -65.5t-74 -21.5q-18 0 -36.5 3.5t-32.5 10.5l16 51
q11 -5 24.5 -8t24.5 -3q19 0 30.5 7.5t11.5 22.5q0 21 -20.5 29.5t-49.5 10.5l30 81q-51 11 -84.5 50.5t-33.5 115.5q0 73 25 134t67 105t97 68.5t116 24.5q38 0 61 -6.5t40 -14.5z" />
    <glyph glyph-name="egrave" unicode="&#xe8;" horiz-adv-x="499" 
d="M118 260q10 -1 21 -1.5t24 -0.5q33 0 70.5 4.5t69.5 16t53.5 31.5t21.5 51q0 26 -19 41t-57 15q-62 0 -113 -40.5t-71 -116.5zM378 34q-33 -20 -76.5 -34t-100.5 -14q-86 0 -131 48t-45 129q0 72 23 132t62 103t90 67t107 24q76 0 113 -33.5t37 -85.5t-26.5 -86t-68 -54
t-92.5 -28t-100 -8q-34 0 -62 3q-1 -7 -1 -13v-11q0 -62 30 -88t80 -26q80 0 148 43zM360 559h-63l-99 151h81z" />
    <glyph glyph-name="eacute" unicode="&#xe9;" horiz-adv-x="499" 
d="M118 260q10 -1 21 -1.5t24 -0.5q33 0 70.5 4.5t69.5 16t53.5 31.5t21.5 51q0 26 -19 41t-57 15q-62 0 -113 -40.5t-71 -116.5zM378 34q-33 -20 -76.5 -34t-100.5 -14q-86 0 -131 48t-45 129q0 72 23 132t62 103t90 67t107 24q76 0 113 -33.5t37 -85.5t-26.5 -86t-68 -54
t-92.5 -28t-100 -8q-34 0 -62 3q-1 -7 -1 -13v-11q0 -62 30 -88t80 -26q80 0 148 43zM402 710h90l-137 -151h-66z" />
    <glyph glyph-name="ecircumflex" unicode="&#xea;" horiz-adv-x="499" 
d="M118 260q10 -1 21 -1.5t24 -0.5q33 0 70.5 4.5t69.5 16t53.5 31.5t21.5 51q0 26 -19 41t-57 15q-62 0 -113 -40.5t-71 -116.5zM378 34q-33 -20 -76.5 -34t-100.5 -14q-86 0 -131 48t-45 129q0 72 23 132t62 103t90 67t107 24q76 0 113 -33.5t37 -85.5t-26.5 -86t-68 -54
t-92.5 -28t-100 -8q-34 0 -62 3q-1 -7 -1 -13v-11q0 -62 30 -88t80 -26q80 0 148 43zM384 710l72 -151h-62l-51 96l-89 -96h-72l134 151h68z" />
    <glyph glyph-name="edieresis" unicode="&#xeb;" horiz-adv-x="499" 
d="M118 260q10 -1 21 -1.5t24 -0.5q33 0 70.5 4.5t69.5 16t53.5 31.5t21.5 51q0 26 -19 41t-57 15q-62 0 -113 -40.5t-71 -116.5zM378 34q-33 -20 -76.5 -34t-100.5 -14q-86 0 -131 48t-45 129q0 72 23 132t62 103t90 67t107 24q76 0 113 -33.5t37 -85.5t-26.5 -86t-68 -54
t-92.5 -28t-100 -8q-34 0 -62 3q-1 -7 -1 -13v-11q0 -62 30 -88t80 -26q80 0 148 43zM280 588h-75l21 96h75zM455 588h-75l20 96h75z" />
    <glyph glyph-name="igrave" unicode="&#xec;" horiz-adv-x="251" 
d="M205 559h-63l-99 151h81zM94 0h-81l101 475h81z" />
    <glyph glyph-name="iacute" unicode="&#xed;" horiz-adv-x="251" 
d="M252 710h90l-137 -151h-66zM94 0h-81l101 475h81z" />
    <glyph glyph-name="icircumflex" unicode="&#xee;" horiz-adv-x="251" 
d="M94 0h-81l101 475h81zM236 710l72 -151h-62l-51 96l-89 -96h-72l134 151h68z" />
    <glyph glyph-name="idieresis" unicode="&#xef;" horiz-adv-x="251" 
d="M131 588h-75l21 96h75zM306 588h-75l20 96h75zM94 0h-81l101 475h81z" />
    <glyph glyph-name="eth" unicode="&#xf0;" horiz-adv-x="535" 
d="M416 710q6 -15 12 -31t11 -31l120 20l-11 -50l-96 -16q12 -48 20 -101t8 -112q0 -14 -0.5 -27t-1.5 -27q-6 -80 -29 -144.5t-60.5 -110t-87 -70t-107.5 -24.5q-81 0 -123 50t-42 131q0 72 22 131.5t59 102t85 65.5t100 23q79 0 113 -58q-2 37 -8.5 79t-17.5 80l-206 -34
l11 51l183 29q-5 17 -13 39.5t-12 34.5h71zM206 58q33 0 65.5 16.5t58.5 48t42 76.5t16 101q0 58 -25 87.5t-68 29.5q-34 0 -67 -16.5t-59 -48t-42 -76.5t-16 -101q0 -58 25 -87.5t70 -29.5z" />
    <glyph glyph-name="ntilde" unicode="&#xf1;" horiz-adv-x="564" 
d="M173 388q13 19 32 37.5t42.5 32.5t51 22.5t58.5 8.5q60 0 93 -36t33 -99q0 -25 -6 -55l-64 -299h-81l63 299q2 12 3.5 22.5t1.5 20.5q0 35 -17 54t-55 19q-35 0 -65.5 -15.5t-55 -41.5t-41.5 -59t-24 -67l-49 -232h-81l101 475h77l-17 -87v0zM500 694q-5 -55 -30.5 -89
t-76.5 -34q-20 0 -35.5 10t-29 22.5t-26 22.5t-25.5 10q-15 0 -25.5 -15t-12.5 -48h-58q5 54 30 88.5t73 34.5q22 0 37.5 -9.5t28.5 -21.5t25 -21.5t27 -9.5q16 0 27 13.5t13 46.5h58z" />
    <glyph glyph-name="ograve" unicode="&#xf2;" horiz-adv-x="534" 
d="M306 489q42 0 72.5 -13.5t51 -38t30.5 -58t10 -73.5q0 -71 -23 -130t-62 -101t-89.5 -65.5t-104.5 -23.5q-41 0 -72 13.5t-51 37.5t-30 57.5t-10 73.5q0 72 23 131t61.5 101t89 65.5t104.5 23.5zM294 417q-34 0 -67 -16.5t-59 -48t-42 -76.5t-16 -101q0 -58 25 -87
t70 -29q33 0 65.5 16.5t58.5 47.5t42 76t16 101q0 58 -25 87.5t-68 29.5zM365 559h-63l-99 151h81z" />
    <glyph glyph-name="oacute" unicode="&#xf3;" horiz-adv-x="534" 
d="M306 489q42 0 72.5 -13.5t51 -38t30.5 -58t10 -73.5q0 -71 -23 -130t-62 -101t-89.5 -65.5t-104.5 -23.5q-41 0 -72 13.5t-51 37.5t-30 57.5t-10 73.5q0 72 23 131t61.5 101t89 65.5t104.5 23.5zM294 417q-34 0 -67 -16.5t-59 -48t-42 -76.5t-16 -101q0 -58 25 -87
t70 -29q33 0 65.5 16.5t58.5 47.5t42 76t16 101q0 58 -25 87.5t-68 29.5zM387 710h90l-137 -151h-66z" />
    <glyph glyph-name="ocircumflex" unicode="&#xf4;" horiz-adv-x="534" 
d="M306 489q42 0 72.5 -13.5t51 -38t30.5 -58t10 -73.5q0 -71 -23 -130t-62 -101t-89.5 -65.5t-104.5 -23.5q-41 0 -72 13.5t-51 37.5t-30 57.5t-10 73.5q0 72 23 131t61.5 101t89 65.5t104.5 23.5zM294 417q-34 0 -67 -16.5t-59 -48t-42 -76.5t-16 -101q0 -58 25 -87
t70 -29q33 0 65.5 16.5t58.5 47.5t42 76t16 101q0 58 -25 87.5t-68 29.5zM377 710l72 -151h-62l-51 96l-89 -96h-72l134 151h68z" />
    <glyph glyph-name="otilde" unicode="&#xf5;" horiz-adv-x="534" 
d="M306 489q42 0 72.5 -13.5t51 -38t30.5 -58t10 -73.5q0 -71 -23 -130t-62 -101t-89.5 -65.5t-104.5 -23.5q-41 0 -72 13.5t-51 37.5t-30 57.5t-10 73.5q0 72 23 131t61.5 101t89 65.5t104.5 23.5zM294 417q-34 0 -67 -16.5t-59 -48t-42 -76.5t-16 -101q0 -58 25 -87
t70 -29q33 0 65.5 16.5t58.5 47.5t42 76t16 101q0 58 -25 87.5t-68 29.5zM491 694q-5 -55 -30.5 -89t-76.5 -34q-20 0 -35.5 10t-29 22.5t-26 22.5t-25.5 10q-15 0 -25.5 -15t-12.5 -48h-58q5 54 30 88.5t73 34.5q22 0 37.5 -9.5t28.5 -21.5t25 -21.5t27 -9.5q16 0 27 13.5
t13 46.5h58z" />
    <glyph glyph-name="odieresis" unicode="&#xf6;" horiz-adv-x="534" 
d="M306 489q42 0 72.5 -13.5t51 -38t30.5 -58t10 -73.5q0 -71 -23 -130t-62 -101t-89.5 -65.5t-104.5 -23.5q-41 0 -72 13.5t-51 37.5t-30 57.5t-10 73.5q0 72 23 131t61.5 101t89 65.5t104.5 23.5zM294 417q-34 0 -67 -16.5t-59 -48t-42 -76.5t-16 -101q0 -58 25 -87
t70 -29q33 0 65.5 16.5t58.5 47.5t42 76t16 101q0 58 -25 87.5t-68 29.5zM273 588h-75l21 96h75zM448 588h-75l20 96h75z" />
    <glyph glyph-name="divide" unicode="&#xf7;" 
d="M522 278h-466v66h466v-66zM244 163h90v-88h-90v88zM244 547h90v-88h-90v88z" />
    <glyph glyph-name="oslash" unicode="&#xf8;" horiz-adv-x="534" 
d="M306 489q34 0 60.5 -9t46.5 -26l59 65l33 -32l-62 -68q27 -47 27 -113q0 -71 -23 -130t-62 -101t-89.5 -65.5t-104.5 -23.5q-34 0 -60 9t-46 25l-58 -64l-33 32l61 67q-27 45 -27 113q0 72 23 131t61.5 101t89 65.5t104.5 23.5zM110 175q0 -30 6 -51l242 268
q-25 25 -64 25q-34 0 -67 -16.5t-59 -48t-42 -76.5t-16 -101zM205 59q33 0 65.5 16.5t58.5 47.5t42 76t16 101q0 27 -6 50l-241 -268q23 -23 65 -23z" />
    <glyph glyph-name="ugrave" unicode="&#xf9;" horiz-adv-x="575" 
d="M345 88q-13 -20 -31 -38.5t-41 -32.5t-50.5 -22.5t-57.5 -8.5q-58 0 -93.5 35t-35.5 100q0 13 2 27t5 29l63 298h81l-64 -301q-5 -25 -5 -42q0 -33 14.5 -53t51.5 -20q34 0 64.5 16t55 41.5t42 58.5t24.5 68l49 232h80l-76 -363q-3 -12 -3 -21q0 -13 7 -21.5t24 -8.5
q23 0 44 9l-1 -71q-11 -5 -30 -9t-38 -4q-39 0 -61 21t-22 58q0 5 0.5 11t1.5 12zM358 559h-63l-99 151h81z" />
    <glyph glyph-name="uacute" unicode="&#xfa;" horiz-adv-x="575" 
d="M345 88q-13 -20 -31 -38.5t-41 -32.5t-50.5 -22.5t-57.5 -8.5q-58 0 -93.5 35t-35.5 100q0 13 2 27t5 29l63 298h81l-64 -301q-5 -25 -5 -42q0 -33 14.5 -53t51.5 -20q34 0 64.5 16t55 41.5t42 58.5t24.5 68l49 232h80l-76 -363q-3 -12 -3 -21q0 -13 7 -21.5t24 -8.5
q23 0 44 9l-1 -71q-11 -5 -30 -9t-38 -4q-39 0 -61 21t-22 58q0 5 0.5 11t1.5 12zM396 710h90l-137 -151h-66z" />
    <glyph glyph-name="ucircumflex" unicode="&#xfb;" horiz-adv-x="575" 
d="M345 88q-13 -20 -31 -38.5t-41 -32.5t-50.5 -22.5t-57.5 -8.5q-58 0 -93.5 35t-35.5 100q0 13 2 27t5 29l63 298h81l-64 -301q-5 -25 -5 -42q0 -33 14.5 -53t51.5 -20q34 0 64.5 16t55 41.5t42 58.5t24.5 68l49 232h80l-76 -363q-3 -12 -3 -21q0 -13 7 -21.5t24 -8.5
q23 0 44 9l-1 -71q-11 -5 -30 -9t-38 -4q-39 0 -61 21t-22 58q0 5 0.5 11t1.5 12zM385 710l72 -151h-62l-51 96l-89 -96h-72l134 151h68z" />
    <glyph glyph-name="udieresis" unicode="&#xfc;" horiz-adv-x="575" 
d="M345 88q-13 -20 -31 -38.5t-41 -32.5t-50.5 -22.5t-57.5 -8.5q-58 0 -93.5 35t-35.5 100q0 13 2 27t5 29l63 298h81l-64 -301q-5 -25 -5 -42q0 -33 14.5 -53t51.5 -20q34 0 64.5 16t55 41.5t42 58.5t24.5 68l49 232h80l-76 -363q-3 -12 -3 -21q0 -13 7 -21.5t24 -8.5
q23 0 44 9l-1 -71q-11 -5 -30 -9t-38 -4q-39 0 -61 21t-22 58q0 5 0.5 11t1.5 12zM280 588h-75l21 96h75zM455 588h-75l20 96h75z" />
    <glyph glyph-name="yacute" unicode="&#xfd;" horiz-adv-x="555" 
d="M499 475l-97 -462q-23 -107 -93 -162t-170 -55q-51 0 -87.5 12.5t-59.5 26.5l17 73q23 -14 60 -26.5t81 -12.5q66 0 109.5 34t60.5 107l15 65q-27 -36 -70.5 -62.5t-99.5 -26.5q-58 0 -93.5 35t-35.5 100q0 13 2 27t5 29l63 298h81l-64 -301q-5 -25 -5 -42
q0 -33 14.5 -53t51.5 -20q34 0 64.5 16t55 41.5t42 58.5t24.5 68l49 232h80zM398 710h90l-137 -151h-66z" />
    <glyph glyph-name="thorn" unicode="&#xfe;" horiz-adv-x="542" 
d="M163 710h80l-66 -312q27 36 70 63.5t94 27.5q66 0 102 -43t36 -118q0 -76 -24 -139t-66.5 -108t-100 -70t-124.5 -25q-17 0 -35.5 2.5t-36.5 7.5l-40 -186h-79zM107 69q31 -10 64 -10q48 0 89 21t71.5 56t47.5 82t17 100q0 97 -78 97q-34 0 -63 -16t-52 -42t-39 -59.5
t-23 -69.5z" />
    <glyph glyph-name="ydieresis" unicode="&#xff;" horiz-adv-x="555" 
d="M499 475l-97 -462q-23 -107 -93 -162t-170 -55q-51 0 -87.5 12.5t-59.5 26.5l17 73q23 -14 60 -26.5t81 -12.5q66 0 109.5 34t60.5 107l15 65q-27 -36 -70.5 -62.5t-99.5 -26.5q-58 0 -93.5 35t-35.5 100q0 13 2 27t5 29l63 298h81l-64 -301q-5 -25 -5 -42
q0 -33 14.5 -53t51.5 -20q34 0 64.5 16t55 41.5t42 58.5t24.5 68l49 232h80zM276 588h-75l21 96h75zM451 588h-75l20 96h75z" />
    <glyph glyph-name="Amacron" unicode="&#x100;" horiz-adv-x="626" 
d="M425 676l126 -676h-90l-31 167h-313l-99 -167h-93l412 676h88zM163 242h254l-58 325zM539 790h-264l13 58h264z" />
    <glyph glyph-name="amacron" unicode="&#x101;" horiz-adv-x="565" 
d="M414 112q-3 -12 -3 -21q0 -13 7 -21.5t24 -8.5q23 0 44 9l-1 -71q-11 -5 -30 -9t-38 -4q-39 0 -61 21t-22 58q0 5 0.5 11t1.5 12q-12 -20 -30.5 -38.5t-41.5 -32.5t-49.5 -22.5t-54.5 -8.5q-68 0 -102 43t-34 117q0 76 24.5 139t67 108.5t101 70.5t127.5 25q35 0 74 -7.5
t71 -21.5zM396 407q-31 10 -68 10q-47 0 -87 -19.5t-70 -54.5t-47 -82.5t-17 -104.5q0 -95 78 -95q33 0 62 15.5t52 41t39 59t24 70.5zM478 606h-264l13 58h264z" />
    <glyph glyph-name="Abreve" unicode="&#x102;" horiz-adv-x="626" 
d="M425 676l126 -676h-90l-31 167h-313l-99 -167h-93l412 676h88zM163 242h254l-58 325zM342 890q-1 -5 -1 -8.5v-7.5q0 -70 66 -70q40 0 62 22.5t29 63.5h59q-12 -66 -51 -104.5t-106 -38.5q-55 0 -86 31.5t-31 84.5q0 7 0.5 13.5t1.5 13.5h57z" />
    <glyph glyph-name="abreve" unicode="&#x103;" horiz-adv-x="565" 
d="M414 112q-3 -12 -3 -21q0 -13 7 -21.5t24 -8.5q23 0 44 9l-1 -71q-11 -5 -30 -9t-38 -4q-39 0 -61 21t-22 58q0 5 0.5 11t1.5 12q-12 -20 -30.5 -38.5t-41.5 -32.5t-49.5 -22.5t-54.5 -8.5q-68 0 -102 43t-34 117q0 76 24.5 139t67 108.5t101 70.5t127.5 25q35 0 74 -7.5
t71 -21.5zM396 407q-31 10 -68 10q-47 0 -87 -19.5t-70 -54.5t-47 -82.5t-17 -104.5q0 -95 78 -95q33 0 62 15.5t52 41t39 59t24 70.5zM276 705q-1 -5 -1 -8.5v-7.5q0 -70 66 -70q40 0 62 22.5t29 63.5h59q-12 -66 -51 -104.5t-106 -38.5q-55 0 -86 31.5t-31 84.5
q0 7 0.5 13.5t1.5 13.5h57z" />
    <glyph glyph-name="Aogonek" unicode="&#x104;" horiz-adv-x="626" 
d="M461 0l-31 167h-313l-99 -167h-93l412 676h88l126 -676q-17 -11 -33.5 -24.5t-30.5 -28.5t-22.5 -32t-8.5 -35q0 -17 11 -23.5t27 -6.5q13 0 28.5 4t25.5 11q1 -14 1 -28v-28q-16 -8 -34 -13t-38 -5q-17 0 -32.5 4t-27.5 13t-19.5 23.5t-7.5 35.5q0 22 9.5 43t24 38
t32.5 30.5t35 21.5h-30zM163 242h254l-58 325z" />
    <glyph glyph-name="aogonek" unicode="&#x105;" horiz-adv-x="565" 
d="M414 112q-3 -12 -3 -21q0 -13 7 -21.5t24 -8.5q23 0 44 9l-1 -71q-11 -5 -29.5 -8.5t-36.5 -4.5q-29 -21 -52 -47.5t-23 -58.5q0 -17 11 -23.5t27 -6.5q13 0 28.5 4t25.5 11q1 -14 1 -28v-28q-16 -8 -34 -13t-38 -5q-17 0 -32.5 4t-27.5 13t-19.5 23.5t-7.5 35.5t8.5 41
t21.5 36.5t29.5 29.5t33.5 22q-18 9 -27.5 27t-9.5 42q0 5 0.5 11t1.5 12q-12 -20 -30.5 -38.5t-41.5 -32.5t-49.5 -22.5t-54.5 -8.5q-68 0 -102 43t-34 117q0 76 24.5 139t67 108.5t101 70.5t127.5 25q35 0 74 -7.5t71 -21.5zM396 407q-31 10 -68 10q-47 0 -87 -19.5
t-70 -54.5t-47 -82.5t-17 -104.5q0 -95 78 -95q33 0 62 15.5t52 41t39 59t24 70.5z" />
    <glyph glyph-name="Cacute" unicode="&#x106;" horiz-adv-x="643" 
d="M52 275q0 93 30.5 169.5t85 131t130 84.5t165.5 30q56 0 101 -9t75 -25l-17 -78q-30 15 -70 25t-89 10q-68 0 -126 -22t-100.5 -65t-66.5 -105.5t-24 -143.5q0 -50 15.5 -89.5t44 -67t68 -42t88.5 -14.5q48 0 88 9t80 27l5 -77q-40 -19 -88 -28t-100 -9q-63 0 -117 20.5
t-93.5 58t-62 91t-22.5 119.5zM515 895h90l-137 -151h-66z" />
    <glyph glyph-name="cacute" unicode="&#x107;" horiz-adv-x="464" 
d="M413 394q-15 9 -38 16t-52 7q-47 0 -87 -20t-69 -54t-45.5 -80t-16.5 -98q0 -58 27.5 -82t70.5 -24q38 0 74 12t67 30l12 -68q-32 -20 -73.5 -33.5t-94.5 -13.5q-34 0 -64 9.5t-52.5 30t-35.5 53t-13 78.5q0 73 25 134t67 105t97 68.5t116 24.5q38 0 61 -6.5t40 -14.5z
M381 710h90l-137 -151h-66z" />
    <glyph glyph-name="Ccircumflex" unicode="&#x108;" horiz-adv-x="643" 
d="M52 275q0 93 30.5 169.5t85 131t130 84.5t165.5 30q56 0 101 -9t75 -25l-17 -78q-30 15 -70 25t-89 10q-68 0 -126 -22t-100.5 -65t-66.5 -105.5t-24 -143.5q0 -50 15.5 -89.5t44 -67t68 -42t88.5 -14.5q48 0 88 9t80 27l5 -77q-40 -19 -88 -28t-100 -9q-63 0 -117 20.5
t-93.5 58t-62 91t-22.5 119.5zM503 895l72 -151h-62l-51 96l-89 -96h-72l134 151h68z" />
    <glyph glyph-name="ccircumflex" unicode="&#x109;" horiz-adv-x="464" 
d="M413 394q-15 9 -38 16t-52 7q-47 0 -87 -20t-69 -54t-45.5 -80t-16.5 -98q0 -58 27.5 -82t70.5 -24q38 0 74 12t67 30l12 -68q-32 -20 -73.5 -33.5t-94.5 -13.5q-34 0 -64 9.5t-52.5 30t-35.5 53t-13 78.5q0 73 25 134t67 105t97 68.5t116 24.5q38 0 61 -6.5t40 -14.5z
M352 710l72 -151h-62l-51 96l-89 -96h-72l134 151h68z" />
    <glyph glyph-name="Cdotaccent" unicode="&#x10a;" horiz-adv-x="643" 
d="M52 275q0 93 30.5 169.5t85 131t130 84.5t165.5 30q56 0 101 -9t75 -25l-17 -78q-30 15 -70 25t-89 10q-68 0 -126 -22t-100.5 -65t-66.5 -105.5t-24 -143.5q0 -50 15.5 -89.5t44 -67t68 -42t88.5 -14.5q48 0 88 9t80 27l5 -77q-40 -19 -88 -28t-100 -9q-63 0 -117 20.5
t-93.5 58t-62 91t-22.5 119.5zM505 867l-20 -96h-79l20 96h79z" />
    <glyph glyph-name="cdotaccent" unicode="&#x10b;" horiz-adv-x="464" 
d="M413 394q-15 9 -38 16t-52 7q-47 0 -87 -20t-69 -54t-45.5 -80t-16.5 -98q0 -58 27.5 -82t70.5 -24q38 0 74 12t67 30l12 -68q-32 -20 -73.5 -33.5t-94.5 -13.5q-34 0 -64 9.5t-52.5 30t-35.5 53t-13 78.5q0 73 25 134t67 105t97 68.5t116 24.5q38 0 61 -6.5t40 -14.5z
M363 685l-20 -96h-79l20 96h79z" />
    <glyph glyph-name="Ccaron" unicode="&#x10c;" horiz-adv-x="643" 
d="M52 275q0 93 30.5 169.5t85 131t130 84.5t165.5 30q56 0 101 -9t75 -25l-17 -78q-30 15 -70 25t-89 10q-68 0 -126 -22t-100.5 -65t-66.5 -105.5t-24 -143.5q0 -50 15.5 -89.5t44 -67t68 -42t88.5 -14.5q48 0 88 9t80 27l5 -77q-40 -19 -88 -28t-100 -9q-63 0 -117 20.5
t-93.5 58t-62 91t-22.5 119.5zM408 744l-72 151h65l48 -92l88 92h73l-134 -151h-68z" />
    <glyph glyph-name="ccaron" unicode="&#x10d;" horiz-adv-x="464" 
d="M413 394q-15 9 -38 16t-52 7q-47 0 -87 -20t-69 -54t-45.5 -80t-16.5 -98q0 -58 27.5 -82t70.5 -24q38 0 74 12t67 30l12 -68q-32 -20 -73.5 -33.5t-94.5 -13.5q-34 0 -64 9.5t-52.5 30t-35.5 53t-13 78.5q0 73 25 134t67 105t97 68.5t116 24.5q38 0 61 -6.5t40 -14.5z
M258 559l-72 151h65l48 -92l88 92h73l-134 -151h-68z" />
    <glyph glyph-name="Dcaron" unicode="&#x10e;" horiz-adv-x="749" 
d="M142 75h117q73 0 136 20.5t109 61t72.5 100t26.5 137.5q0 98 -58 152t-175 54h-117zM384 676q63 0 119 -17.5t99 -52.5t68 -87t25 -121q0 -96 -33 -170t-92.5 -124.5t-143 -77t-183.5 -26.5h-205l143 676h203zM428 744l-72 151h65l48 -92l88 92h73l-134 -151h-68z" />
    <glyph glyph-name="dcaron" unicode="&#x10f;" horiz-adv-x="564" 
d="M656 710q5 -14 7 -26.5t2 -26.5q0 -51 -20.5 -84t-63.5 -62l-30 37q52 40 52 100q0 29 -12 62h65zM414 112q-3 -12 -3 -21q0 -13 7 -21.5t24 -8.5q23 0 44 9l-1 -71q-11 -5 -30 -9t-38 -4q-39 0 -61 21t-22 58q0 5 0.5 11t1.5 12q-12 -20 -30.5 -38.5t-41.5 -32.5
t-49.5 -22.5t-54.5 -8.5q-68 0 -102 43t-34 117q0 76 24.5 139t67 108.5t101 70.5t127.5 25q16 0 33 -2t35 -5l48 228h82zM396 407q-31 10 -68 10q-47 0 -87 -19.5t-70 -54.5t-47 -82.5t-17 -104.5q0 -95 78 -95q33 0 62 15.5t52 41t39 59t24 70.5z" />
    <glyph glyph-name="Dcroat" unicode="&#x110;" horiz-adv-x="757" 
d="M392 676q63 0 119 -17.5t99 -52.5t68 -87t25 -121q0 -96 -33 -170t-92.5 -124.5t-143 -77t-183.5 -26.5h-205l67 318h-82l15 64h81l62 294h203zM215 382h199l-14 -64h-199l-51 -243h117q73 0 136 20.5t109 61t72.5 100t26.5 137.5q0 98 -58 152t-175 54h-117z" />
    <glyph glyph-name="dcroat" unicode="&#x111;" horiz-adv-x="564" 
d="M525 630h76l-11 -51h-76l-100 -467q-3 -12 -3 -21q0 -13 7 -21.5t24 -8.5q23 0 44 9l-1 -71q-11 -5 -30 -9t-38 -4q-39 0 -61 21t-22 58q0 5 0.5 11t1.5 12q-12 -20 -30.5 -38.5t-41.5 -32.5t-49.5 -22.5t-54.5 -8.5q-68 0 -102 43t-34 117q0 76 24.5 139t67 108.5
t101 70.5t127.5 25q16 0 33 -2t35 -5l20 97h-185l12 51h184l17 80h82zM396 407q-31 10 -68 10q-47 0 -87 -19.5t-70 -54.5t-47 -82.5t-17 -104.5q0 -95 78 -95q33 0 62 15.5t52 41t39 59t24 70.5z" />
    <glyph glyph-name="Emacron" unicode="&#x112;" horiz-adv-x="581" 
d="M574 676l-16 -76h-315l-45 -214h287l-16 -75h-288l-30 -148q-2 -8 -3 -16t-1 -15q0 -29 17 -43t55 -14h243l-16 -75h-256q-69 0 -101 33t-32 86q0 14 4.5 37.5t9.5 46.5l99 473h404zM529 790h-264l13 58h264z" />
    <glyph glyph-name="emacron" unicode="&#x113;" horiz-adv-x="499" 
d="M118 260q10 -1 21 -1.5t24 -0.5q33 0 70.5 4.5t69.5 16t53.5 31.5t21.5 51q0 26 -19 41t-57 15q-62 0 -113 -40.5t-71 -116.5zM378 34q-33 -20 -76.5 -34t-100.5 -14q-86 0 -131 48t-45 129q0 72 23 132t62 103t90 67t107 24q76 0 113 -33.5t37 -85.5t-26.5 -86t-68 -54
t-92.5 -28t-100 -8q-34 0 -62 3q-1 -7 -1 -13v-11q0 -62 30 -88t80 -26q80 0 148 43zM467 606h-264l13 58h264z" />
    <glyph glyph-name="Ebreve" unicode="&#x114;" horiz-adv-x="581" 
d="M574 676l-16 -76h-315l-45 -214h287l-16 -75h-288l-30 -148q-2 -8 -3 -16t-1 -15q0 -29 17 -43t55 -14h243l-16 -75h-256q-69 0 -101 33t-32 86q0 14 4.5 37.5t9.5 46.5l99 473h404zM334 890q-1 -5 -1 -8.5v-7.5q0 -70 66 -70q40 0 62 22.5t29 63.5h59
q-12 -66 -51 -104.5t-106 -38.5q-55 0 -86 31.5t-31 84.5q0 7 0.5 13.5t1.5 13.5h57z" />
    <glyph glyph-name="ebreve" unicode="&#x115;" horiz-adv-x="499" 
d="M118 260q10 -1 21 -1.5t24 -0.5q33 0 70.5 4.5t69.5 16t53.5 31.5t21.5 51q0 26 -19 41t-57 15q-62 0 -113 -40.5t-71 -116.5zM378 34q-33 -20 -76.5 -34t-100.5 -14q-86 0 -131 48t-45 129q0 72 23 132t62 103t90 67t107 24q76 0 113 -33.5t37 -85.5t-26.5 -86t-68 -54
t-92.5 -28t-100 -8q-34 0 -62 3q-1 -7 -1 -13v-11q0 -62 30 -88t80 -26q80 0 148 43zM267 705q-1 -5 -1 -8.5v-7.5q0 -70 66 -70q40 0 62 22.5t29 63.5h59q-12 -66 -51 -104.5t-106 -38.5q-55 0 -86 31.5t-31 84.5q0 7 0.5 13.5t1.5 13.5h57z" />
    <glyph glyph-name="Edotaccent" unicode="&#x116;" horiz-adv-x="581" 
d="M574 676l-16 -76h-315l-45 -214h287l-16 -75h-288l-30 -148q-2 -8 -3 -16t-1 -15q0 -29 17 -43t55 -14h243l-16 -75h-256q-69 0 -101 33t-32 86q0 14 4.5 37.5t9.5 46.5l99 473h404zM451 867l-20 -96h-79l20 96h79z" />
    <glyph glyph-name="edotaccent" unicode="&#x117;" horiz-adv-x="499" 
d="M118 260q10 -1 21 -1.5t24 -0.5q33 0 70.5 4.5t69.5 16t53.5 31.5t21.5 51q0 26 -19 41t-57 15q-62 0 -113 -40.5t-71 -116.5zM378 34q-33 -20 -76.5 -34t-100.5 -14q-86 0 -131 48t-45 129q0 72 23 132t62 103t90 67t107 24q76 0 113 -33.5t37 -85.5t-26.5 -86t-68 -54
t-92.5 -28t-100 -8q-34 0 -62 3q-1 -7 -1 -13v-11q0 -62 30 -88t80 -26q80 0 148 43zM390 685l-20 -96h-79l20 96h79z" />
    <glyph glyph-name="Eogonek" unicode="&#x118;" horiz-adv-x="581" 
d="M190 0q-69 0 -101 33t-32 86q0 14 4.5 37.5t9.5 46.5l99 473h404l-16 -76h-315l-45 -214h287l-16 -75h-288l-30 -148q-2 -8 -3 -16t-1 -15q0 -29 17 -43t55 -14h243l-16 -75h-40q-17 -11 -33.5 -24.5t-30.5 -28.5t-22.5 -32t-8.5 -35q0 -17 11 -23.5t27 -6.5q13 0 28.5 4
t25.5 11q1 -14 1 -28v-28q-16 -8 -34 -13t-38 -5q-17 0 -32.5 4t-27.5 13t-19.5 23.5t-7.5 35.5q0 22 9.5 43t24 38t32.5 30.5t35 21.5h-156z" />
    <glyph glyph-name="eogonek" unicode="&#x119;" horiz-adv-x="499" 
d="M378 34q-35 -22 -76 -34q-17 -11 -33.5 -24.5t-30.5 -28.5t-22.5 -32t-8.5 -35q0 -17 11 -23.5t27 -6.5q13 0 28.5 4t25.5 11q1 -14 1 -28v-28q-16 -8 -34 -13t-38 -5q-17 0 -32.5 4t-27.5 13t-19.5 23.5t-7.5 35.5q0 38 23.5 69t52.5 50h-16q-86 0 -131 48t-45 129
q0 72 23 132t62 103t90 67t107 24q76 0 113 -33.5t37 -85.5t-26.5 -86t-68 -54t-92.5 -28t-100 -8q-34 0 -62 3q-1 -7 -1 -13v-11q0 -62 30 -88t80 -26q80 0 148 43zM118 260q10 -1 21 -1.5t24 -0.5q33 0 70.5 4.5t69.5 16t53.5 31.5t21.5 51q0 26 -19 41t-57 15
q-62 0 -113 -40.5t-71 -116.5z" />
    <glyph glyph-name="Ecaron" unicode="&#x11a;" horiz-adv-x="581" 
d="M574 676l-16 -76h-315l-45 -214h287l-16 -75h-288l-30 -148q-2 -8 -3 -16t-1 -15q0 -29 17 -43t55 -14h243l-16 -75h-256q-69 0 -101 33t-32 86q0 14 4.5 37.5t9.5 46.5l99 473h404zM353 744l-72 151h65l48 -92l88 92h73l-134 -151h-68z" />
    <glyph glyph-name="ecaron" unicode="&#x11b;" horiz-adv-x="499" 
d="M118 260q10 -1 21 -1.5t24 -0.5q33 0 70.5 4.5t69.5 16t53.5 31.5t21.5 51q0 26 -19 41t-57 15q-62 0 -113 -40.5t-71 -116.5zM378 34q-33 -20 -76.5 -34t-100.5 -14q-86 0 -131 48t-45 129q0 72 23 132t62 103t90 67t107 24q76 0 113 -33.5t37 -85.5t-26.5 -86t-68 -54
t-92.5 -28t-100 -8q-34 0 -62 3q-1 -7 -1 -13v-11q0 -62 30 -88t80 -26q80 0 148 43zM291 559l-72 151h65l48 -92l88 92h73l-134 -151h-68z" />
    <glyph glyph-name="Gcircumflex" unicode="&#x11c;" horiz-adv-x="793" 
d="M705 366l-68 -324q-47 -23 -111 -39.5t-142 -16.5q-71 0 -131.5 19.5t-105 57t-70 93t-25.5 127.5q0 109 38.5 186t100.5 126t140 72t156 23q72 0 138 -16.5t119 -45.5l-17 -78q-45 28 -107 45.5t-129 17.5q-64 0 -126 -16.5t-111 -54.5t-79 -101t-30 -156
q0 -55 18 -96.5t50.5 -69.5t78.5 -42t102 -14q47 0 91.5 9t76.5 24l42 196h-210l15 74h296zM549 895l72 -151h-62l-51 96l-89 -96h-72l134 151h68z" />
    <glyph glyph-name="gcircumflex" unicode="&#x11d;" horiz-adv-x="545" 
d="M393 13q-23 -107 -93 -162t-170 -55q-51 0 -87.5 12.5t-59.5 26.5l17 73q23 -14 60.5 -26.5t80.5 -12.5q66 0 110 33.5t60 107.5l14 64q-27 -35 -70.5 -61.5t-94.5 -26.5q-68 0 -102 43t-34 117q0 76 24.5 139t67 108.5t101 70.5t127.5 25q35 0 74 -7.5t71 -21.5z
M396 407q-31 10 -68 10q-47 0 -87 -19.5t-70 -54.5t-47 -82.5t-17 -104.5q0 -95 78 -95q33 0 62 15.5t52 41t39 59t24 70.5zM395 710l72 -151h-62l-51 96l-89 -96h-72l134 151h68z" />
    <glyph glyph-name="Gbreve" unicode="&#x11e;" horiz-adv-x="793" 
d="M705 366l-68 -324q-47 -23 -111 -39.5t-142 -16.5q-71 0 -131.5 19.5t-105 57t-70 93t-25.5 127.5q0 109 38.5 186t100.5 126t140 72t156 23q72 0 138 -16.5t119 -45.5l-17 -78q-45 28 -107 45.5t-129 17.5q-64 0 -126 -16.5t-111 -54.5t-79 -101t-30 -156
q0 -55 18 -96.5t50.5 -69.5t78.5 -42t102 -14q47 0 91.5 9t76.5 24l42 196h-210l15 74h296zM428 890q-1 -5 -1 -8.5v-7.5q0 -70 66 -70q40 0 62 22.5t29 63.5h59q-12 -66 -51 -104.5t-106 -38.5q-55 0 -86 31.5t-31 84.5q0 7 0.5 13.5t1.5 13.5h57z" />
    <glyph glyph-name="gbreve" unicode="&#x11f;" horiz-adv-x="545" 
d="M393 13q-23 -107 -93 -162t-170 -55q-51 0 -87.5 12.5t-59.5 26.5l17 73q23 -14 60.5 -26.5t80.5 -12.5q66 0 110 33.5t60 107.5l14 64q-27 -35 -70.5 -61.5t-94.5 -26.5q-68 0 -102 43t-34 117q0 76 24.5 139t67 108.5t101 70.5t127.5 25q35 0 74 -7.5t71 -21.5z
M396 407q-31 10 -68 10q-47 0 -87 -19.5t-70 -54.5t-47 -82.5t-17 -104.5q0 -95 78 -95q33 0 62 15.5t52 41t39 59t24 70.5zM277 705q-1 -5 -1 -8.5v-7.5q0 -70 66 -70q40 0 62 22.5t29 63.5h59q-12 -66 -51 -104.5t-106 -38.5q-55 0 -86 31.5t-31 84.5q0 7 0.5 13.5
t1.5 13.5h57z" />
    <glyph glyph-name="Gdotaccent" unicode="&#x120;" horiz-adv-x="793" 
d="M705 366l-68 -324q-47 -23 -111 -39.5t-142 -16.5q-71 0 -131.5 19.5t-105 57t-70 93t-25.5 127.5q0 109 38.5 186t100.5 126t140 72t156 23q72 0 138 -16.5t119 -45.5l-17 -78q-45 28 -107 45.5t-129 17.5q-64 0 -126 -16.5t-111 -54.5t-79 -101t-30 -156
q0 -55 18 -96.5t50.5 -69.5t78.5 -42t102 -14q47 0 91.5 9t76.5 24l42 196h-210l15 74h296zM548 866l-20 -96h-79l20 96h79z" />
    <glyph glyph-name="gdotaccent" unicode="&#x121;" horiz-adv-x="545" 
d="M393 13q-23 -107 -93 -162t-170 -55q-51 0 -87.5 12.5t-59.5 26.5l17 73q23 -14 60.5 -26.5t80.5 -12.5q66 0 110 33.5t60 107.5l14 64q-27 -35 -70.5 -61.5t-94.5 -26.5q-68 0 -102 43t-34 117q0 76 24.5 139t67 108.5t101 70.5t127.5 25q35 0 74 -7.5t71 -21.5z
M396 407q-31 10 -68 10q-47 0 -87 -19.5t-70 -54.5t-47 -82.5t-17 -104.5q0 -95 78 -95q33 0 62 15.5t52 41t39 59t24 70.5zM391 685l-20 -96h-79l20 96h79z" />
    <glyph glyph-name="Gcommaaccent" unicode="&#x122;" horiz-adv-x="793" 
d="M705 366l-68 -324q-47 -23 -111 -39.5t-142 -16.5q-71 0 -131.5 19.5t-105 57t-70 93t-25.5 127.5q0 109 38.5 186t100.5 126t140 72t156 23q72 0 138 -16.5t119 -45.5l-17 -78q-45 28 -107 45.5t-129 17.5q-64 0 -126 -16.5t-111 -54.5t-79 -101t-30 -156
q0 -55 18 -96.5t50.5 -69.5t78.5 -42t102 -14q47 0 91.5 9t76.5 24l42 196h-210l15 74h296zM368 -61q3 -18 3 -34q0 -54 -35 -94t-98 -55l-20 48q85 24 85 100q0 18 -4 35h69z" />
    <glyph glyph-name="gcommaaccent" unicode="&#x123;" horiz-adv-x="545" 
d="M393 13q-23 -107 -93 -162t-170 -55q-51 0 -87.5 12.5t-59.5 26.5l17 73q23 -14 60.5 -26.5t80.5 -12.5q66 0 110 33.5t60 107.5l14 64q-27 -35 -70.5 -61.5t-94.5 -26.5q-68 0 -102 43t-34 117q0 76 24.5 139t67 108.5t101 70.5t127.5 25q35 0 74 -7.5t71 -21.5z
M396 407q-31 10 -68 10q-47 0 -87 -19.5t-70 -54.5t-47 -82.5t-17 -104.5q0 -95 78 -95q33 0 62 15.5t52 41t39 59t24 70.5zM294.018 556.996q-3 17.999 -3 33.998q0 53.9971 34.998 93.9941q34.998 39.998 97.9941 54.9971l19.999 -47.9971
q-84.9951 -23.999 -84.9951 -99.9941q0 -17.999 4 -34.998h-68.9961z" />
    <glyph glyph-name="Hcircumflex" unicode="&#x124;" horiz-adv-x="786" 
d="M268 676l-61 -288h392l60 288h88l-143 -676h-88l66 311h-392l-66 -311h-88l144 676h88zM543 895l72 -151h-62l-51 96l-89 -96h-72l134 151h68z" />
    <glyph glyph-name="hcircumflex" unicode="&#x125;" horiz-adv-x="565" 
d="M174 388q13 19 32 37.5t42.5 32.5t51 22.5t58.5 8.5q60 0 93 -36t33 -99q0 -25 -6 -55l-64 -299h-81l63 299q2 12 3.5 22.5t1.5 20.5q0 35 -17 54t-55 19q-35 0 -65.5 -15.5t-55 -41.5t-41.5 -59t-24 -67l-49 -232h-81l150 710h81zM270 895l72 -151h-62l-51 96l-89 -96
h-72l134 151h68z" />
    <glyph glyph-name="Hbar" unicode="&#x126;" horiz-adv-x="785" 
d="M267 676l-24 -116h391l24 116h88l-25 -116h84l-12 -52h-83l-107 -508h-88l66 311h-391l-66 -311h-88l107 508h-81l12 52h80l25 116h88zM598 388l25 120h-391l-25 -120h391z" />
    <glyph glyph-name="hbar" unicode="&#x127;" horiz-adv-x="565" 
d="M226 630h183l-12 -51h-182l-41 -191q13 19 32 37.5t42.5 32.5t51 22.5t58.5 8.5q60 0 93 -36t33 -99q0 -25 -6 -55l-64 -299h-81l63 299q2 12 3.5 22.5t1.5 20.5q0 35 -17 54t-55 19q-35 0 -65.5 -15.5t-55 -41.5t-41.5 -59t-24 -67l-49 -232h-81l122 579h-84l11 51h84
l17 80h81z" />
    <glyph glyph-name="Itilde" unicode="&#x128;" horiz-adv-x="306" 
d="M267 676l-143 -676h-88l143 676h88zM410 879q-5 -55 -30.5 -89t-76.5 -34q-20 0 -35.5 10t-29 22.5t-26 22.5t-25.5 10q-15 0 -25.5 -15t-12.5 -48h-58q5 54 30 88.5t73 34.5q22 0 37.5 -9.5t28.5 -21.5t25 -21.5t27 -9.5q16 0 27 13.5t13 46.5h58z" />
    <glyph glyph-name="itilde" unicode="&#x129;" horiz-adv-x="251" 
d="M349 694q-5 -55 -30.5 -89t-76.5 -34q-20 0 -35.5 10t-29 22.5t-26 22.5t-25.5 10q-15 0 -25.5 -15t-12.5 -48h-58q5 54 30 88.5t73 34.5q22 0 37.5 -9.5t28.5 -21.5t25 -21.5t27 -9.5q16 0 27 13.5t13 46.5h58zM94 0h-81l101 475h81z" />
    <glyph glyph-name="Imacron" unicode="&#x12a;" horiz-adv-x="306" 
d="M267 676l-143 -676h-88l143 676h88zM380 790h-264l13 58h264z" />
    <glyph glyph-name="imacron" unicode="&#x12b;" horiz-adv-x="251" 
d="M314 606h-264l13 58h264zM94 0h-81l101 475h81z" />
    <glyph glyph-name="Ibreve" unicode="&#x12c;" horiz-adv-x="306" 
d="M267 676l-143 -676h-88l143 676h88zM186 890q-1 -5 -1 -8.5v-7.5q0 -70 66 -70q40 0 62 22.5t29 63.5h59q-12 -66 -51 -104.5t-106 -38.5q-55 0 -86 31.5t-31 84.5q0 7 0.5 13.5t1.5 13.5h57z" />
    <glyph glyph-name="ibreve" unicode="&#x12d;" horiz-adv-x="251" 
d="M121 705q-1 -5 -1 -8.5v-7.5q0 -70 66 -70q40 0 62 22.5t29 63.5h59q-12 -66 -51 -104.5t-106 -38.5q-55 0 -86 31.5t-31 84.5q0 7 0.5 13.5t1.5 13.5h57zM94 0h-81l101 475h81z" />
    <glyph glyph-name="Iogonek" unicode="&#x12e;" horiz-adv-x="306" 
d="M36 0l143 676h88l-143 -676q-17 -11 -33.5 -24.5t-30.5 -28.5t-22.5 -32t-8.5 -35q0 -17 11 -23.5t27 -6.5q13 0 28.5 4t25.5 11l1 -56q-16 -8 -34 -13t-38 -5q-17 0 -32.5 4t-27.5 13t-19.5 23.5t-7.5 35.5q0 22 9.5 43t24 38t32.5 30.5t35 21.5h-28z" />
    <glyph glyph-name="iogonek" unicode="&#x12f;" horiz-adv-x="251" 
d="M12 0l101 475h81l-101 -475q-17 -11 -33.5 -24.5t-30.5 -28.5t-22.5 -32t-8.5 -35q0 -17 11 -23.5t27 -6.5q13 0 28.5 4t25.5 11l1 -56q-16 -8 -34 -13t-38 -5q-17 0 -32.5 4t-27.5 13t-19.5 23.5t-7.5 35.5q0 22 9.5 43t24 38t32.5 30.5t35 21.5h-21zM238 682l-21 -99
h-81l21 99h81z" />
    <glyph glyph-name="Idotaccent" unicode="&#x130;" horiz-adv-x="306" 
d="M267 676l-143 -676h-88l143 676h88zM303 867l-20 -96h-79l20 96h79z" />
    <glyph glyph-name="dotlessi" unicode="&#x131;" horiz-adv-x="251" 
d="M94 0h-81l101 475h81z" />
    <glyph glyph-name="Jcircumflex" unicode="&#x134;" horiz-adv-x="379" 
d="M354 676l-107 -503q-21 -97 -69 -142t-132 -45q-31 0 -57.5 7t-43.5 15l17 75q15 -8 37.5 -14t49.5 -6q48 0 73.5 28t36.5 80l107 505h88zM393 895l72 -151h-62l-51 96l-89 -96h-72l134 151h68z" />
    <glyph glyph-name="jcircumflex" unicode="&#x135;" horiz-adv-x="251" 
d="M76 -76q-14 -62 -42.5 -95t-86.5 -33q-19 0 -39 4t-35 11l16 72q10 -5 24 -8t31 -3q21 0 33.5 11.5t18.5 40.5l117 551h81zM237 710l72 -151h-62l-51 96l-89 -96h-72l134 151h68z" />
    <glyph glyph-name="Kcommaaccent" unicode="&#x136;" horiz-adv-x="618" 
d="M267 676l-63 -299l369 299h113l-408 -332l268 -344h-107l-249 315l-67 -315h-87l143 676h88zM308 -61q3 -18 3 -34q0 -54 -35 -94t-98 -55l-20 48q85 24 85 100q0 18 -4 35h69z" />
    <glyph glyph-name="kcommaaccent" unicode="&#x137;" horiz-adv-x="481" 
d="M221 254l195 -254h-96l-179 228l-48 -228h-81l151 710h81l-91 -428l224 193h109zM243 -61q3 -18 3 -34q0 -54 -35 -94t-98 -55l-20 48q85 24 85 100q0 18 -4 35h69z" />
    <glyph glyph-name="Lacute" unicode="&#x139;" horiz-adv-x="516" 
d="M259 676l-108 -512q-4 -16 -4 -32q0 -29 17 -43t55 -14h222l-16 -75h-234q-69 0 -101 33.5t-32 85.5q0 20 5 45l108 512h88zM311 895h90l-137 -151h-66z" />
    <glyph glyph-name="lacute" unicode="&#x13a;" horiz-adv-x="269" 
d="M242 710l-127 -604q-1 -5 -1.5 -8.5t-0.5 -7.5q0 -19 10.5 -25t24.5 -6q23 0 48 10l-1 -70q-30 -13 -68 -13q-44 0 -70 23t-26 70q0 8 1 17t3 18l126 596h81zM289 895h90l-137 -151h-66z" />
    <glyph glyph-name="Lcommaaccent" unicode="&#x13b;" horiz-adv-x="516" 
d="M259 676l-108 -512q-4 -16 -4 -32q0 -29 17 -43t55 -14h222l-16 -75h-234q-69 0 -101 33.5t-32 85.5q0 20 5 45l108 512h88zM281 -61q3 -18 3 -34q0 -54 -35 -94t-98 -55l-20 48q85 24 85 100q0 18 -4 35h69z" />
    <glyph glyph-name="lcommaaccent" unicode="&#x13c;" horiz-adv-x="269" 
d="M242 710l-127 -604q-1 -5 -1.5 -8.5t-0.5 -7.5q0 -19 10.5 -25t24.5 -6q23 0 48 10l-1 -70q-30 -13 -68 -13q-44 0 -70 23t-26 70q0 8 1 17t3 18l126 596h81zM118 -61q3 -18 3 -34q0 -54 -35 -94t-98 -55l-20 48q85 24 85 100q0 18 -4 35h69z" />
    <glyph glyph-name="Lcaron" unicode="&#x13d;" horiz-adv-x="516" 
d="M459 676q3 -11 4 -20.5t1 -19.5q0 -54 -27.5 -98.5t-79.5 -73.5l-28 38q33 23 50 56.5t17 71.5q0 22 -6 46h69zM259 676l-108 -512q-4 -16 -4 -32q0 -29 17 -43t55 -14h222l-16 -75h-234q-69 0 -101 33.5t-32 85.5q0 20 5 45l108 512h88z" />
    <glyph glyph-name="lcaron" unicode="&#x13e;" horiz-adv-x="314" 
d="M358 710q5 -14 7 -26.5t2 -26.5q0 -51 -20.5 -84t-63.5 -62l-30 37q52 40 52 100q0 29 -12 62h65zM242 710l-127 -604q-1 -5 -1.5 -8.5t-0.5 -7.5q0 -19 10.5 -25t24.5 -6q23 0 48 10l-1 -70q-30 -13 -68 -13q-44 0 -70 23t-26 70q0 8 1 17t3 18l126 596h81z" />
    <glyph glyph-name="Lslash" unicode="&#x141;" horiz-adv-x="525" 
d="M268 676l-59 -279l210 80l-15 -69l-210 -80l-34 -164q-4 -16 -4 -32q0 -29 17 -43t55 -14h222l-16 -75h-234q-69 0 -101 33.5t-32 85.5q0 20 5 45l27 127l-90 -34l15 70l89 34l67 315h88z" />
    <glyph glyph-name="lslash" unicode="&#x142;" horiz-adv-x="301" 
d="M254 710l-56 -264l89 39l-14 -66l-89 -39l-57 -274q-6 -29 5.5 -38t27.5 -9q23 0 48 10l-1 -70q-30 -13 -68 -13q-44 0 -70 23t-26 70q0 8 1 17t3 18l48 227l-73 -32l13 66l74 32l64 303h81z" />
    <glyph glyph-name="Nacute" unicode="&#x143;" horiz-adv-x="778" 
d="M258 676l282 -546l116 546h84l-143 -676h-78l-283 546l-115 -546h-85l143 676h79zM542 895h90l-137 -151h-66z" />
    <glyph glyph-name="nacute" unicode="&#x144;" horiz-adv-x="564" 
d="M173 388q13 19 32 37.5t42.5 32.5t51 22.5t58.5 8.5q60 0 93 -36t33 -99q0 -25 -6 -55l-64 -299h-81l63 299q2 12 3.5 22.5t1.5 20.5q0 35 -17 54t-55 19q-35 0 -65.5 -15.5t-55 -41.5t-41.5 -59t-24 -67l-49 -232h-81l101 475h77l-17 -87v0zM405 710h90l-137 -151h-66z
" />
    <glyph glyph-name="Ncommaaccent" unicode="&#x145;" horiz-adv-x="778" 
d="M258 676l282 -546l116 546h84l-143 -676h-78l-283 546l-115 -546h-85l143 676h79zM348 -61q3 -18 3 -34q0 -54 -35 -94t-98 -55l-20 48q85 24 85 100q0 18 -4 35h69z" />
    <glyph glyph-name="ncommaaccent" unicode="&#x146;" horiz-adv-x="564" 
d="M173 388q13 19 32 37.5t42.5 32.5t51 22.5t58.5 8.5q60 0 93 -36t33 -99q0 -25 -6 -55l-64 -299h-81l63 299q2 12 3.5 22.5t1.5 20.5q0 35 -17 54t-55 19q-35 0 -65.5 -15.5t-55 -41.5t-41.5 -59t-24 -67l-49 -232h-81l101 475h77l-17 -87v0zM239 -61q3 -18 3 -34
q0 -54 -35 -94t-98 -55l-20 48q85 24 85 100q0 18 -4 35h69z" />
    <glyph glyph-name="Ncaron" unicode="&#x147;" horiz-adv-x="778" 
d="M258 676l282 -546l116 546h84l-143 -676h-78l-283 546l-115 -546h-85l143 676h79zM438 744l-72 151h65l48 -92l88 92h73l-134 -151h-68z" />
    <glyph glyph-name="ncaron" unicode="&#x148;" horiz-adv-x="564" 
d="M173 388q13 19 32 37.5t42.5 32.5t51 22.5t58.5 8.5q60 0 93 -36t33 -99q0 -25 -6 -55l-64 -299h-81l63 299q2 12 3.5 22.5t1.5 20.5q0 35 -17 54t-55 19q-35 0 -65.5 -15.5t-55 -41.5t-41.5 -59t-24 -67l-49 -232h-81l101 475h77l-17 -87v0zM293 559l-72 151h65l48 -92
l88 92h73l-134 -151h-68z" />
    <glyph glyph-name="Eng" unicode="&#x14a;" horiz-adv-x="779" 
d="M258 676l281 -545l117 545h84l-143 -679q-20 -97 -67.5 -142t-131.5 -45q-31 0 -57.5 7t-43.5 15l17 75q15 -8 37.5 -14t49.5 -6q48 0 73.5 28t36.5 80l3 14l-278 537l-115 -546h-85l143 676h79z" />
    <glyph glyph-name="eng" unicode="&#x14b;" horiz-adv-x="564" 
d="M173 388q13 19 32 37.5t42.5 32.5t51 22.5t58.5 8.5q72 0 105 -51t15 -139l-81 -375q-14 -62 -42.5 -95t-86.5 -33q-19 0 -39 4t-35 11l16 72q10 -5 24 -8t31 -3q21 0 33.5 11.5t18.5 40.5l79 375q11 54 -4 85t-63 31q-35 0 -65.5 -15.5t-55 -41.5t-41.5 -59t-24 -67
l-49 -232h-81l101 475h77l-17 -87v0z" />
    <glyph glyph-name="Omacron" unicode="&#x14c;" horiz-adv-x="815" 
d="M52 277q0 87 29 162t83 131t131 88t172 32q67 0 121.5 -20.5t93 -58.5t59.5 -91.5t21 -119.5q0 -90 -30 -166t-84.5 -131t-131 -86t-169.5 -31q-67 0 -121.5 20.5t-93 58.5t-59.5 92t-21 120zM455 613q-71 0 -128 -25.5t-98 -70t-63 -105.5t-22 -132q0 -49 14 -89
t41.5 -68.5t67.5 -44t92 -15.5q70 0 127.5 25t98.5 70t63 106t22 133q0 49 -14 88.5t-41.5 68t-67.5 44t-92 15.5zM635 790h-264l13 58h264z" />
    <glyph glyph-name="omacron" unicode="&#x14d;" horiz-adv-x="534" 
d="M306 489q42 0 72.5 -13.5t51 -38t30.5 -58t10 -73.5q0 -71 -23 -130t-62 -101t-89.5 -65.5t-104.5 -23.5q-41 0 -72 13.5t-51 37.5t-30 57.5t-10 73.5q0 72 23 131t61.5 101t89 65.5t104.5 23.5zM294 417q-34 0 -67 -16.5t-59 -48t-42 -76.5t-16 -101q0 -58 25 -87
t70 -29q33 0 65.5 16.5t58.5 47.5t42 76t16 101q0 58 -25 87.5t-68 29.5zM458 606h-264l13 58h264z" />
    <glyph glyph-name="Obreve" unicode="&#x14e;" horiz-adv-x="815" 
d="M52 277q0 87 29 162t83 131t131 88t172 32q67 0 121.5 -20.5t93 -58.5t59.5 -91.5t21 -119.5q0 -90 -30 -166t-84.5 -131t-131 -86t-169.5 -31q-67 0 -121.5 20.5t-93 58.5t-59.5 92t-21 120zM455 613q-71 0 -128 -25.5t-98 -70t-63 -105.5t-22 -132q0 -49 14 -89
t41.5 -68.5t67.5 -44t92 -15.5q70 0 127.5 25t98.5 70t63 106t22 133q0 49 -14 88.5t-41.5 68t-67.5 44t-92 15.5zM433 890q-1 -5 -1 -8.5v-7.5q0 -70 66 -70q40 0 62 22.5t29 63.5h59q-12 -66 -51 -104.5t-106 -38.5q-55 0 -86 31.5t-31 84.5q0 7 0.5 13.5t1.5 13.5h57z
" />
    <glyph glyph-name="obreve" unicode="&#x14f;" horiz-adv-x="534" 
d="M306 489q42 0 72.5 -13.5t51 -38t30.5 -58t10 -73.5q0 -71 -23 -130t-62 -101t-89.5 -65.5t-104.5 -23.5q-41 0 -72 13.5t-51 37.5t-30 57.5t-10 73.5q0 72 23 131t61.5 101t89 65.5t104.5 23.5zM294 417q-34 0 -67 -16.5t-59 -48t-42 -76.5t-16 -101q0 -58 25 -87
t70 -29q33 0 65.5 16.5t58.5 47.5t42 76t16 101q0 58 -25 87.5t-68 29.5zM265 705q-1 -5 -1 -8.5v-7.5q0 -70 66 -70q40 0 62 22.5t29 63.5h59q-12 -66 -51 -104.5t-106 -38.5q-55 0 -86 31.5t-31 84.5q0 7 0.5 13.5t1.5 13.5h57z" />
    <glyph glyph-name="Ohungarumlaut" unicode="&#x150;" horiz-adv-x="815" 
d="M52 277q0 87 29 162t83 131t131 88t172 32q67 0 121.5 -20.5t93 -58.5t59.5 -91.5t21 -119.5q0 -90 -30 -166t-84.5 -131t-131 -86t-169.5 -31q-67 0 -121.5 20.5t-93 58.5t-59.5 92t-21 120zM455 613q-71 0 -128 -25.5t-98 -70t-63 -105.5t-22 -132q0 -49 14 -89
t41.5 -68.5t67.5 -44t92 -15.5q70 0 127.5 25t98.5 70t63 106t22 133q0 49 -14 88.5t-41.5 68t-67.5 44t-92 15.5zM450 744h-59l92 151h76zM576 744h-64l119 151h83z" />
    <glyph glyph-name="ohungarumlaut" unicode="&#x151;" horiz-adv-x="534" 
d="M306 489q42 0 72.5 -13.5t51 -38t30.5 -58t10 -73.5q0 -71 -23 -130t-62 -101t-89.5 -65.5t-104.5 -23.5q-41 0 -72 13.5t-51 37.5t-30 57.5t-10 73.5q0 72 23 131t61.5 101t89 65.5t104.5 23.5zM294 417q-34 0 -67 -16.5t-59 -48t-42 -76.5t-16 -101q0 -58 25 -87
t70 -29q33 0 65.5 16.5t58.5 47.5t42 76t16 101q0 58 -25 87.5t-68 29.5zM276 559h-59l92 151h76zM402 559h-64l119 151h83z" />
    <glyph glyph-name="OE" unicode="&#x152;" horiz-adv-x="1140" 
d="M1140 676l-16 -76h-314l-46 -214h288l-17 -75h-287l-32 -148q-3 -17 -3 -31q0 -29 17 -43t55 -14h243l-16 -75h-255q-32 0 -55 7.5t-38 20.5t-22.5 31t-10.5 39q-50 -52 -120.5 -82t-163.5 -30q-67 0 -121.5 20.5t-93 58.5t-59.5 91.5t-21 119.5q0 90 30 166t84.5 131
t131 86t169.5 31q185 0 241 -140l28 126h404zM359 63q71 0 128.5 25t98 69.5t62.5 105.5t22 132q0 49 -14 89.5t-41.5 69t-67.5 44t-92 15.5q-70 0 -127.5 -24.5t-98 -69t-63 -106t-22.5 -135.5q0 -98 55.5 -156.5t159.5 -58.5z" />
    <glyph glyph-name="oe" unicode="&#x153;" horiz-adv-x="847" 
d="M726 34q-33 -20 -76.5 -34t-100.5 -14q-65 0 -103.5 27.5t-53.5 77.5q-38 -50 -89.5 -77.5t-111.5 -27.5q-41 0 -72 13.5t-51 37.5t-30 57.5t-10 73.5q0 72 23 131t61.5 101t89 65.5t104.5 23.5q62 0 96 -29t48 -78q38 51 91 79t114 28q76 0 113 -33.5t37 -85.5
t-26.5 -86t-68 -54t-92.5 -28t-100 -8q-34 0 -62 3q-1 -7 -1 -13v-11q0 -62 30 -88t80 -26q80 0 148 43zM205 59q33 0 65.5 16.5t58.5 47.5t42 76t16 101q0 58 -25 87.5t-68 29.5q-34 0 -67 -16.5t-59 -48t-42 -76.5t-16 -101q0 -58 25 -87t70 -29zM466 260q10 -1 21 -1.5
t24 -0.5q33 0 70.5 4.5t69.5 16t53.5 31.5t21.5 51q0 26 -19 41t-57 15q-62 0 -113 -40.5t-71 -116.5z" />
    <glyph glyph-name="Racute" unicode="&#x154;" horiz-adv-x="635" 
d="M385 676q105 0 161.5 -48.5t56.5 -134.5q0 -49 -16.5 -88t-46 -67.5t-69 -46.5t-84.5 -26l154 -265h-99l-146 254h-117l-55 -254h-88l143 676h206zM194 329h120q41 0 77 9t63 28.5t42.5 49t15.5 71.5q0 57 -35.5 85t-104.5 28h-120zM492 895h90l-137 -151h-66z" />
    <glyph glyph-name="racute" unicode="&#x155;" horiz-adv-x="379" 
d="M352 401q-36 0 -70 -12.5t-63 -37.5t-51 -62t-32 -86l-43 -203h-81l101 475h78l-22 -107q12 22 32.5 43.5t46.5 38.5t57.5 28t65.5 11zM312 710h90l-137 -151h-66z" />
    <glyph glyph-name="Rcommaaccent" unicode="&#x156;" horiz-adv-x="635" 
d="M385 676q105 0 161.5 -48.5t56.5 -134.5q0 -49 -16.5 -88t-46 -67.5t-69 -46.5t-84.5 -26l154 -265h-99l-146 254h-117l-55 -254h-88l143 676h206zM194 329h120q41 0 77 9t63 28.5t42.5 49t15.5 71.5q0 57 -35.5 85t-104.5 28h-120zM288 -61q3 -18 3 -34q0 -54 -35 -94
t-98 -55l-20 48q85 24 85 100q0 18 -4 35h69z" />
    <glyph glyph-name="rcommaaccent" unicode="&#x157;" horiz-adv-x="379" 
d="M352 401q-36 0 -70 -12.5t-63 -37.5t-51 -62t-32 -86l-43 -203h-81l101 475h78l-22 -107q12 22 32.5 43.5t46.5 38.5t57.5 28t65.5 11zM74 -61q3 -18 3 -34q0 -54 -35 -94t-98 -55l-20 48q85 24 85 100q0 18 -4 35h69z" />
    <glyph glyph-name="Rcaron" unicode="&#x158;" horiz-adv-x="635" 
d="M385 676q105 0 161.5 -48.5t56.5 -134.5q0 -49 -16.5 -88t-46 -67.5t-69 -46.5t-84.5 -26l154 -265h-99l-146 254h-117l-55 -254h-88l143 676h206zM194 329h120q41 0 77 9t63 28.5t42.5 49t15.5 71.5q0 57 -35.5 85t-104.5 28h-120zM385 744l-72 151h65l48 -92l88 92h73
l-134 -151h-68z" />
    <glyph glyph-name="rcaron" unicode="&#x159;" horiz-adv-x="379" 
d="M352 401q-36 0 -70 -12.5t-63 -37.5t-51 -62t-32 -86l-43 -203h-81l101 475h78l-22 -107q12 22 32.5 43.5t46.5 38.5t57.5 28t65.5 11zM223 559l-72 151h65l48 -92l88 92h73l-134 -151h-68z" />
    <glyph glyph-name="Sacute" unicode="&#x15a;" horiz-adv-x="557" 
d="M506 579q-29 15 -68.5 24.5t-85.5 9.5q-30 0 -59.5 -6t-53.5 -20t-38.5 -36.5t-14.5 -55.5q0 -32 20.5 -54t51 -39.5t66.5 -35t66.5 -41t51 -55.5t20.5 -80q0 -54 -21.5 -93t-57 -63.5t-81 -36t-94.5 -11.5q-60 0 -113 13.5t-89 33.5l17 79q35 -20 84 -34.5t104 -14.5
q30 0 58.5 6t50.5 20.5t35.5 37.5t13.5 56t-20.5 55.5t-51 40.5t-66 35t-66 40t-51 56t-20.5 82t21 86.5t57 62t83 37t98 12.5q54 0 98 -9t73 -24l-18 -78v0zM425 895h90l-137 -151h-66z" />
    <glyph glyph-name="sacute" unicode="&#x15b;" horiz-adv-x="428" 
d="M363 391q-23 12 -54.5 19t-66.5 7q-21 0 -39.5 -3.5t-33 -11.5t-23 -21t-8.5 -32q0 -20 14.5 -33t36 -24.5t47 -23t47 -28.5t36 -41t14.5 -60q0 -41 -16 -69.5t-42.5 -47.5t-60.5 -27.5t-70 -8.5q-43 0 -84 11.5t-69 31.5l14 70q28 -20 68 -31t77 -11q41 0 70 15.5
t29 53.5q0 25 -14.5 41t-36 29t-46.5 24.5t-46.5 27t-36 37t-14.5 54.5q0 38 16 66.5t43 47t62 27.5t74 9q36 0 69.5 -7t58.5 -19zM309 710h90l-137 -151h-66z" />
    <glyph glyph-name="Scircumflex" unicode="&#x15c;" horiz-adv-x="557" 
d="M506 579q-29 15 -68.5 24.5t-85.5 9.5q-30 0 -59.5 -6t-53.5 -20t-38.5 -36.5t-14.5 -55.5q0 -32 20.5 -54t51 -39.5t66.5 -35t66.5 -41t51 -55.5t20.5 -80q0 -54 -21.5 -93t-57 -63.5t-81 -36t-94.5 -11.5q-60 0 -113 13.5t-89 33.5l17 79q35 -20 84 -34.5t104 -14.5
q30 0 58.5 6t50.5 20.5t35.5 37.5t13.5 56t-20.5 55.5t-51 40.5t-66 35t-66 40t-51 56t-20.5 82t21 86.5t57 62t83 37t98 12.5q54 0 98 -9t73 -24l-18 -78v0zM416 895l72 -151h-62l-51 96l-89 -96h-72l134 151h68z" />
    <glyph glyph-name="scircumflex" unicode="&#x15d;" horiz-adv-x="428" 
d="M363 391q-23 12 -54.5 19t-66.5 7q-21 0 -39.5 -3.5t-33 -11.5t-23 -21t-8.5 -32q0 -20 14.5 -33t36 -24.5t47 -23t47 -28.5t36 -41t14.5 -60q0 -41 -16 -69.5t-42.5 -47.5t-60.5 -27.5t-70 -8.5q-43 0 -84 11.5t-69 31.5l14 70q28 -20 68 -31t77 -11q41 0 70 15.5
t29 53.5q0 25 -14.5 41t-36 29t-46.5 24.5t-46.5 27t-36 37t-14.5 54.5q0 38 16 66.5t43 47t62 27.5t74 9q36 0 69.5 -7t58.5 -19zM302 710l72 -151h-62l-51 96l-89 -96h-72l134 151h68z" />
    <glyph glyph-name="Scedilla" unicode="&#x15e;" horiz-adv-x="557" 
d="M506 579q-29 15 -68.5 24.5t-85.5 9.5q-30 0 -59.5 -6t-53.5 -20t-38.5 -36.5t-14.5 -55.5q0 -32 20.5 -54t51 -39.5t66.5 -35t66.5 -41t51 -55.5t20.5 -80q0 -50 -18 -86.5t-48.5 -61t-71 -38t-84.5 -16.5l-14 -43q27 -5 47.5 -22.5t20.5 -49.5q0 -44 -32 -65.5
t-74 -21.5q-18 0 -36.5 3.5t-32.5 10.5l16 51q11 -5 24.5 -8t24.5 -3q19 0 30.5 7.5t11.5 22.5q0 21 -20.5 29.5t-49.5 10.5l29 77q-54 2 -100.5 15t-78.5 31l17 79q35 -20 84 -34.5t104 -14.5q30 0 58.5 6t50.5 20.5t35.5 37.5t13.5 56t-20.5 55.5t-51 40.5t-66 35t-66 40
t-51 56t-20.5 82t21 86.5t57 62t83 37t98 12.5q54 0 98 -9t73 -24l-18 -78v0z" />
    <glyph glyph-name="scedilla" unicode="&#x15f;" horiz-adv-x="428" 
d="M363 391q-23 12 -54.5 19t-66.5 7q-21 0 -39.5 -3.5t-33 -11.5t-23 -21t-8.5 -32q0 -20 14.5 -33t36 -24.5t47 -23t47 -28.5t36 -41t14.5 -60t-12.5 -62.5t-34 -45t-50 -29t-59.5 -14.5l-15 -43q27 -5 47.5 -22.5t20.5 -49.5q0 -44 -32 -65.5t-74 -21.5q-18 0 -36.5 3.5
t-32.5 10.5l16 51q11 -5 24.5 -8t24.5 -3q19 0 30.5 7.5t11.5 22.5q0 21 -20.5 29.5t-49.5 10.5l29 77q-38 2 -72 13t-58 29l14 70q28 -20 68 -31t77 -11q41 0 70 15.5t29 53.5q0 25 -14.5 41t-36 29t-46.5 24.5t-46.5 27t-36 37t-14.5 54.5q0 38 16 66.5t43 47t62 27.5
t74 9q36 0 69.5 -7t58.5 -19z" />
    <glyph glyph-name="Scaron" unicode="&#x160;" horiz-adv-x="557" 
d="M506 579q-29 15 -68.5 24.5t-85.5 9.5q-30 0 -59.5 -6t-53.5 -20t-38.5 -36.5t-14.5 -55.5q0 -32 20.5 -54t51 -39.5t66.5 -35t66.5 -41t51 -55.5t20.5 -80q0 -54 -21.5 -93t-57 -63.5t-81 -36t-94.5 -11.5q-60 0 -113 13.5t-89 33.5l17 79q35 -20 84 -34.5t104 -14.5
q30 0 58.5 6t50.5 20.5t35.5 37.5t13.5 56t-20.5 55.5t-51 40.5t-66 35t-66 40t-51 56t-20.5 82t21 86.5t57 62t83 37t98 12.5q54 0 98 -9t73 -24l-18 -78v0zM320 744l-72 151h65l48 -92l88 92h73l-134 -151h-68z" />
    <glyph glyph-name="scaron" unicode="&#x161;" horiz-adv-x="428" 
d="M363 391q-23 12 -54.5 19t-66.5 7q-21 0 -39.5 -3.5t-33 -11.5t-23 -21t-8.5 -32q0 -20 14.5 -33t36 -24.5t47 -23t47 -28.5t36 -41t14.5 -60q0 -41 -16 -69.5t-42.5 -47.5t-60.5 -27.5t-70 -8.5q-43 0 -84 11.5t-69 31.5l14 70q28 -20 68 -31t77 -11q41 0 70 15.5
t29 53.5q0 25 -14.5 41t-36 29t-46.5 24.5t-46.5 27t-36 37t-14.5 54.5q0 38 16 66.5t43 47t62 27.5t74 9q36 0 69.5 -7t58.5 -19zM211 559l-72 151h65l48 -92l88 92h73l-134 -151h-68z" />
    <glyph glyph-name="Tcommaaccent" unicode="&#x162;" horiz-adv-x="584" 
d="M635 676l-15 -76h-229l-127 -600h-88l127 600h-229l16 76h545zM241 -61q3 -18 3 -34q0 -54 -35 -94t-98 -55l-20 48q85 24 85 100q0 18 -4 35h69z" />
    <glyph glyph-name="tcommaaccent" unicode="&#x163;" horiz-adv-x="351" 
d="M326 408h-141l-57 -268q-3 -14 -3 -26q0 -23 13 -38.5t46 -15.5q18 0 41 6t37 14v-73q-44 -21 -93 -21q-25 0 -48 6.5t-40 21t-27.5 36t-10.5 51.5q0 20 4 40l56 267h-68l14 67h69l42 151h71l-32 -151h141zM158 -61q3 -18 3 -34q0 -54 -35 -94t-98 -55l-20 48
q85 24 85 100q0 18 -4 35h69z" />
    <glyph glyph-name="Tcaron" unicode="&#x164;" horiz-adv-x="584" 
d="M635 676l-15 -76h-229l-127 -600h-88l127 600h-229l16 76h545zM344 744l-72 151h65l48 -92l88 92h73l-134 -151h-68z" />
    <glyph glyph-name="tcaron" unicode="&#x165;" horiz-adv-x="351" 
d="M382 724q10 -30 10 -60q-1 -48 -22.5 -80t-61.5 -59l-31 37q52 39 52 100q0 29 -12 62h65zM326 408h-141l-57 -268q-3 -14 -3 -26q0 -23 13 -38.5t46 -15.5q18 0 41 6t37 14v-73q-44 -21 -93 -21q-25 0 -48 6.5t-40 21t-27.5 36t-10.5 51.5q0 20 4 40l56 267h-68l14 67
h69l42 151h71l-32 -151h141z" />
    <glyph glyph-name="Tbar" unicode="&#x166;" horiz-adv-x="585" 
d="M635 676l-15 -76h-229l-47 -225h174l-13 -63h-175l-66 -312h-88l66 312h-177l14 63h177l47 225h-229l16 76h545z" />
    <glyph glyph-name="tbar" unicode="&#x167;" horiz-adv-x="389" 
d="M352 408h-141l-26 -122h123l-12 -61h-124l-18 -85q-3 -14 -3 -26q0 -23 13 -38.5t46 -15.5q18 0 41 6t37 14v-73q-44 -21 -93 -21q-25 0 -48 6.5t-40 21t-27.5 36t-10.5 51.5q0 20 4 40l17 84h-67l13 61h67l26 122h-68l14 67h69l42 151h71l-32 -151h141z" />
    <glyph glyph-name="Utilde" unicode="&#x168;" horiz-adv-x="697" 
d="M252 676l-93 -437q-6 -29 -6 -54q0 -63 37.5 -92.5t100.5 -29.5q75 0 131.5 42t76.5 134l93 437h87l-94 -438q-27 -126 -107 -188.5t-202 -62.5q-47 0 -86 13t-67 37.5t-43 60t-15 81.5q0 11 1 24.5t4 28.5l94 444h88zM605 878q-5 -55 -30.5 -89t-76.5 -34
q-20 0 -35.5 10t-29 22.5t-26 22.5t-25.5 10q-15 0 -25.5 -15t-12.5 -48h-58q5 54 30 88.5t73 34.5q22 0 37.5 -9.5t28.5 -21.5t25 -21.5t27 -9.5q16 0 27 13.5t13 46.5h58z" />
    <glyph glyph-name="utilde" unicode="&#x169;" horiz-adv-x="575" 
d="M345 88q-13 -20 -31 -38.5t-41 -32.5t-50.5 -22.5t-57.5 -8.5q-58 0 -93.5 35t-35.5 100q0 13 2 27t5 29l63 298h81l-64 -301q-5 -25 -5 -42q0 -33 14.5 -53t51.5 -20q34 0 64.5 16t55 41.5t42 58.5t24.5 68l49 232h80l-76 -363q-3 -12 -3 -21q0 -13 7 -21.5t24 -8.5
q23 0 44 9l-1 -71q-11 -5 -30 -9t-38 -4q-39 0 -61 21t-22 58q0 5 0.5 11t1.5 12zM498 694q-5 -55 -30.5 -89t-76.5 -34q-20 0 -35.5 10t-29 22.5t-26 22.5t-25.5 10q-15 0 -25.5 -15t-12.5 -48h-58q5 54 30 88.5t73 34.5q22 0 37.5 -9.5t28.5 -21.5t25 -21.5t27 -9.5
q16 0 27 13.5t13 46.5h58z" />
    <glyph glyph-name="Umacron" unicode="&#x16a;" horiz-adv-x="697" 
d="M252 676l-93 -437q-6 -29 -6 -54q0 -63 37.5 -92.5t100.5 -29.5q75 0 131.5 42t76.5 134l93 437h87l-94 -438q-27 -126 -107 -188.5t-202 -62.5q-47 0 -86 13t-67 37.5t-43 60t-15 81.5q0 11 1 24.5t4 28.5l94 444h88zM576 790h-264l13 58h264z" />
    <glyph glyph-name="umacron" unicode="&#x16b;" horiz-adv-x="575" 
d="M345 88q-13 -20 -31 -38.5t-41 -32.5t-50.5 -22.5t-57.5 -8.5q-58 0 -93.5 35t-35.5 100q0 13 2 27t5 29l63 298h81l-64 -301q-5 -25 -5 -42q0 -33 14.5 -53t51.5 -20q34 0 64.5 16t55 41.5t42 58.5t24.5 68l49 232h80l-76 -363q-3 -12 -3 -21q0 -13 7 -21.5t24 -8.5
q23 0 44 9l-1 -71q-11 -5 -30 -9t-38 -4q-39 0 -61 21t-22 58q0 5 0.5 11t1.5 12zM466 606h-264l13 58h264z" />
    <glyph glyph-name="Ubreve" unicode="&#x16c;" horiz-adv-x="697" 
d="M252 676l-93 -437q-6 -29 -6 -54q0 -63 37.5 -92.5t100.5 -29.5q75 0 131.5 42t76.5 134l93 437h87l-94 -438q-27 -126 -107 -188.5t-202 -62.5q-47 0 -86 13t-67 37.5t-43 60t-15 81.5q0 11 1 24.5t4 28.5l94 444h88zM383 889q-1 -5 -1 -8.5v-7.5q0 -70 66 -70
q40 0 62 22.5t29 63.5h59q-12 -66 -51 -104.5t-106 -38.5q-55 0 -86 31.5t-31 84.5q0 7 0.5 13.5t1.5 13.5h57z" />
    <glyph glyph-name="ubreve" unicode="&#x16d;" horiz-adv-x="575" 
d="M345 88q-13 -20 -31 -38.5t-41 -32.5t-50.5 -22.5t-57.5 -8.5q-58 0 -93.5 35t-35.5 100q0 13 2 27t5 29l63 298h81l-64 -301q-5 -25 -5 -42q0 -33 14.5 -53t51.5 -20q34 0 64.5 16t55 41.5t42 58.5t24.5 68l49 232h80l-76 -363q-3 -12 -3 -21q0 -13 7 -21.5t24 -8.5
q23 0 44 9l-1 -71q-11 -5 -30 -9t-38 -4q-39 0 -61 21t-22 58q0 5 0.5 11t1.5 12zM266 705q-1 -5 -1 -8.5v-7.5q0 -70 66 -70q40 0 62 22.5t29 63.5h59q-12 -66 -51 -104.5t-106 -38.5q-55 0 -86 31.5t-31 84.5q0 7 0.5 13.5t1.5 13.5h57z" />
    <glyph glyph-name="Uring" unicode="&#x16e;" horiz-adv-x="697" 
d="M252 676l-93 -437q-6 -29 -6 -54q0 -63 37.5 -92.5t100.5 -29.5q75 0 131.5 42t76.5 134l93 437h87l-94 -438q-27 -126 -107 -188.5t-202 -62.5q-47 0 -86 13t-67 37.5t-43 60t-15 81.5q0 11 1 24.5t4 28.5l94 444h88zM456 866q-27 0 -43.5 -14.5t-16.5 -40.5
q0 -19 13.5 -29t34.5 -10q26 0 42.5 15t16.5 41q0 19 -13 28.5t-34 9.5zM461 909q39 0 67 -20t28 -60q0 -23 -10 -41.5t-26 -31.5t-37.5 -20t-43.5 -7q-39 0 -67.5 20.5t-28.5 60.5q0 23 10 41.5t26.5 31t37.5 19.5t44 7z" />
    <glyph glyph-name="uring" unicode="&#x16f;" horiz-adv-x="575" 
d="M345 88q-13 -20 -31 -38.5t-41 -32.5t-50.5 -22.5t-57.5 -8.5q-58 0 -93.5 35t-35.5 100q0 13 2 27t5 29l63 298h81l-64 -301q-5 -25 -5 -42q0 -33 14.5 -53t51.5 -20q34 0 64.5 16t55 41.5t42 58.5t24.5 68l49 232h80l-76 -363q-3 -12 -3 -21q0 -13 7 -21.5t24 -8.5
q23 0 44 9l-1 -71q-11 -5 -30 -9t-38 -4q-39 0 -61 21t-22 58q0 5 0.5 11t1.5 12zM346 681q-27 0 -43.5 -14.5t-16.5 -40.5q0 -19 13.5 -29t34.5 -10q26 0 42.5 15t16.5 41q0 19 -13 28.5t-34 9.5zM351 724q39 0 67 -20t28 -60q0 -23 -10 -41.5t-26 -31.5t-37.5 -20
t-43.5 -7q-39 0 -67.5 20.5t-28.5 60.5q0 23 10 41.5t26.5 31t37.5 19.5t44 7z" />
    <glyph glyph-name="Uhungarumlaut" unicode="&#x170;" horiz-adv-x="697" 
d="M252 676l-93 -437q-6 -29 -6 -54q0 -63 37.5 -92.5t100.5 -29.5q75 0 131.5 42t76.5 134l93 437h87l-94 -438q-27 -126 -107 -188.5t-202 -62.5q-47 0 -86 13t-67 37.5t-43 60t-15 81.5q0 11 1 24.5t4 28.5l94 444h88zM394 744h-59l92 151h76zM520 744h-64l119 151h83z
" />
    <glyph glyph-name="uhungarumlaut" unicode="&#x171;" horiz-adv-x="575" 
d="M345 88q-13 -20 -31 -38.5t-41 -32.5t-50.5 -22.5t-57.5 -8.5q-58 0 -93.5 35t-35.5 100q0 13 2 27t5 29l63 298h81l-64 -301q-5 -25 -5 -42q0 -33 14.5 -53t51.5 -20q34 0 64.5 16t55 41.5t42 58.5t24.5 68l49 232h80l-76 -363q-3 -12 -3 -21q0 -13 7 -21.5t24 -8.5
q23 0 44 9l-1 -71q-11 -5 -30 -9t-38 -4q-39 0 -61 21t-22 58q0 5 0.5 11t1.5 12zM276 559h-59l92 151h76zM402 559h-64l119 151h83z" />
    <glyph glyph-name="Uogonek" unicode="&#x172;" horiz-adv-x="697" 
d="M252 676l-93 -437q-6 -29 -6 -54q0 -63 37.5 -92.5t100.5 -29.5q75 0 131.5 42t76.5 134l93 437h87l-94 -438q-24 -113 -91 -174.5t-169 -73.5q-30 -22 -55 -49.5t-25 -60.5q0 -17 11 -23.5t27 -6.5q13 0 28.5 4t25.5 11q1 -14 1 -28v-28q-16 -8 -34 -13t-38 -5
q-17 0 -32.5 4t-27.5 13t-19.5 23.5t-7.5 35.5q0 19 6.5 36.5t17.5 33t25 28.5t29 23q-87 5 -139.5 54.5t-52.5 136.5q0 11 1 24.5t4 28.5l94 444h88z" />
    <glyph glyph-name="uogonek" unicode="&#x173;" horiz-adv-x="575" 
d="M345 88q-13 -20 -31 -38.5t-41 -32.5t-50.5 -22.5t-57.5 -8.5q-58 0 -93.5 35t-35.5 100q0 13 2 27t5 29l63 298h81l-64 -301q-5 -25 -5 -42q0 -33 14.5 -53t51.5 -20q34 0 64.5 16t55 41.5t42 58.5t24.5 68l49 232h80l-76 -363q-3 -12 -3 -21q0 -13 7 -21.5t24 -8.5
q23 0 44 9l-1 -71q-9 -4 -23 -7t-29 -5q-29 -22 -52.5 -48.5t-23.5 -58.5q0 -17 11 -23.5t27 -6.5q13 0 28.5 4t25.5 11l1 -56q-16 -8 -34 -13t-38 -5q-17 0 -32.5 4t-27.5 13t-19.5 23.5t-7.5 35.5q0 20 7.5 39t20 35.5t28 29.5t31.5 22q-44 17 -44 72q0 5 0.5 11t1.5 12z
" />
    <glyph glyph-name="Wcircumflex" unicode="&#x174;" horiz-adv-x="989" 
d="M608 676l67 -563l281 563h92l-337 -676h-105l-67 563l-304 -563h-106l-53 676h89l44 -563l302 563h97zM638 895l72 -151h-62l-51 96l-89 -96h-72l134 151h68z" />
    <glyph glyph-name="wcircumflex" unicode="&#x175;" horiz-adv-x="779" 
d="M119 475l39 -377l213 377h81l56 -377l201 377h85l-258 -475h-83l-57 381l-219 -381h-84l-56 475h82zM489 710l72 -151h-62l-51 96l-89 -96h-72l134 151h68z" />
    <glyph glyph-name="Ycircumflex" unicode="&#x176;" horiz-adv-x="585" 
d="M159 676l129 -324l265 324h96l-335 -405l-57 -271h-88l57 271l-162 405h95zM432 895l72 -151h-62l-51 96l-89 -96h-72l134 151h68z" />
    <glyph glyph-name="ycircumflex" unicode="&#x177;" horiz-adv-x="555" 
d="M499 475l-97 -462q-23 -107 -93 -162t-170 -55q-51 0 -87.5 12.5t-59.5 26.5l17 73q23 -14 60 -26.5t81 -12.5q66 0 109.5 34t60.5 107l15 65q-27 -36 -70.5 -62.5t-99.5 -26.5q-58 0 -93.5 35t-35.5 100q0 13 2 27t5 29l63 298h81l-64 -301q-5 -25 -5 -42
q0 -33 14.5 -53t51.5 -20q34 0 64.5 16t55 41.5t42 58.5t24.5 68l49 232h80zM386 710l72 -151h-62l-51 96l-89 -96h-72l134 151h68z" />
    <glyph glyph-name="Ydieresis" unicode="&#x178;" horiz-adv-x="585" 
d="M159 676l129 -324l265 324h96l-335 -405l-57 -271h-88l57 271l-162 405h95zM329 773h-75l21 96h75zM504 773h-75l20 96h75z" />
    <glyph glyph-name="Zacute" unicode="&#x179;" horiz-adv-x="607" 
d="M611 676l-15 -70l-490 -531h401l-16 -75h-515l14 69l494 531h-392l16 76h503zM432 895h90l-137 -151h-66z" />
    <glyph glyph-name="zacute" unicode="&#x17a;" horiz-adv-x="467" 
d="M421 417l-323 -347h269l-15 -70h-375l12 57l323 348h-260l15 70h366zM333 710h90l-137 -151h-66z" />
    <glyph glyph-name="Zdotaccent" unicode="&#x17b;" horiz-adv-x="607" 
d="M611 676l-15 -70l-490 -531h401l-16 -75h-515l14 69l494 531h-392l16 76h503zM421 866l-20 -96h-79l20 96h79z" />
    <glyph glyph-name="zdotaccent" unicode="&#x17c;" horiz-adv-x="467" 
d="M421 417l-323 -347h269l-15 -70h-375l12 57l323 348h-260l15 70h366zM323 685l-20 -96h-79l20 96h79z" />
    <glyph glyph-name="Zcaron" unicode="&#x17d;" horiz-adv-x="607" 
d="M611 676l-15 -70l-490 -531h401l-16 -75h-515l14 69l494 531h-392l16 76h503zM324 744l-72 151h65l48 -92l88 92h73l-134 -151h-68z" />
    <glyph glyph-name="zcaron" unicode="&#x17e;" horiz-adv-x="467" 
d="M421 417l-323 -347h269l-15 -70h-375l12 57l323 348h-260l15 70h366zM227 559l-72 151h65l48 -92l88 92h73l-134 -151h-68z" />
    <glyph glyph-name="longs" unicode="&#x17f;" horiz-adv-x="313" 
d="M127 475l21 95q35 154 189 154q20 0 35.5 -2.5t27.5 -7.5l-16 -75q-21 11 -53 11q-38 0 -67 -23t-40 -74l-134 -629q-14 -62 -42.5 -95t-86.5 -33q-19 0 -39 4t-35 11l16 72q10 -5 24 -8t31 -3q21 0 33.5 11.5t18.5 40.5l103 484h-68l14 67h68z" />
    <glyph glyph-name="florin" unicode="&#x192;" 
d="M160 313h-92l12 61h93l23 107q23 106 88 157.5t170 51.5q31 0 62.5 -6.5t56.5 -18.5l-16 -76q-23 12 -52 18t-62 6q-28 0 -53.5 -7t-47 -22.5t-37.5 -40.5t-24 -61l-23 -108h222l-13 -61h-222l-66 -313h-86z" />
    <glyph glyph-name="Aringacute" unicode="&#x1fa;" horiz-adv-x="626" 
d="M459 904q26 -8 42 -27t16 -48q0 -23 -10 -41.5t-26 -31.5t-37.5 -20t-43.5 -7q-39 0 -67.5 20.5t-28.5 60.5q0 41 28 66t67 31l94 127h88zM417 866q-27 0 -43.5 -14.5t-16.5 -40.5q0 -19 13.5 -29t34.5 -10q26 0 42.5 15t16.5 41q0 19 -13 28.5t-34 9.5zM425 676
l126 -676h-90l-31 167h-313l-99 -167h-93l412 676h88zM163 242h254l-58 325z" />
    <glyph glyph-name="aringacute" unicode="&#x1fb;" horiz-adv-x="565" 
d="M338 544q-39 0 -67.5 20.5t-28.5 59.5q0 41 28.5 67t66.5 31l93 126h89l-121 -130q25 -8 41 -26.5t16 -47.5q0 -24 -10 -42.5t-26 -31t-37.5 -19.5t-43.5 -7zM343 587q26 0 42.5 14.5t16.5 41.5q0 19 -13 28.5t-34 9.5q-27 0 -43.5 -14.5t-16.5 -41.5q0 -18 13.5 -28
t34.5 -10zM414 112q-3 -12 -3 -21q0 -13 7 -21.5t24 -8.5q23 0 44 9l-1 -71q-11 -5 -30 -9t-38 -4q-39 0 -61 21t-22 58q0 5 0.5 11t1.5 12q-12 -20 -30.5 -38.5t-41.5 -32.5t-49.5 -22.5t-54.5 -8.5q-68 0 -102 43t-34 117q0 76 24.5 139t67 108.5t101 70.5t127.5 25
q35 0 74 -7.5t71 -21.5zM396 407q-31 10 -68 10q-47 0 -87 -19.5t-70 -54.5t-47 -82.5t-17 -104.5q0 -95 78 -95q33 0 62 15.5t52 41t39 59t24 70.5z" />
    <glyph glyph-name="AEacute" unicode="&#x1fc;" horiz-adv-x="899" 
d="M875 600h-315l-45 -214h287l-16 -75h-288l-30 -148q-2 -8 -3 -16t-1 -15q0 -29 17 -43t55 -14h243l-16 -75h-256q-69 0 -101 33t-32 86q0 8 1.5 20.5t5.5 27.5h-255l-132 -167h-100l540 676h457zM396 242l74 354l-285 -354h211zM631 895h90l-137 -151h-66z" />
    <glyph glyph-name="aeacute" unicode="&#x1fd;" horiz-adv-x="782" 
d="M661 34q-33 -20 -76.5 -34t-100.5 -14q-54 0 -92.5 20t-59.5 56q-28 -32 -73 -54t-99 -22q-68 0 -102 43t-34 117q0 76 24.5 139t67 108.5t101 70.5t127.5 25q32 0 66 -6.5t64 -19.5q26 12 56.5 19t59.5 7q76 0 113 -33.5t37 -85.5t-26.5 -86t-68 -54t-92.5 -28t-100 -8
q-34 0 -62 3q-1 -7 -1 -13v-11q0 -62 30 -88t80 -26q80 0 148 43zM400 406q-20 6 -37.5 8.5t-34.5 2.5q-47 0 -87 -19.5t-70 -54.5t-47 -82.5t-17 -104.5q0 -95 78 -95q38 0 69.5 19t55.5 51q-2 8 -2 16v16q0 146 92 243zM401 260q10 -1 21 -1.5t24 -0.5q33 0 70.5 4.5
t69.5 16t53.5 31.5t21.5 51q0 26 -19 41t-57 15q-62 0 -113 -40.5t-71 -116.5zM541 710h90l-137 -151h-66z" />
    <glyph glyph-name="Oslashacute" unicode="&#x1fe;" horiz-adv-x="815" 
d="M559 895h90l-137 -151h-66zM762 399q0 -87 -29 -162t-83 -131t-131 -88t-172 -32q-58 0 -106.5 15t-85.5 44l-93 -95l-35 38l91 92q-32 38 -49 87t-17 109q0 90 30 166t84.5 131t131 86t169.5 31q57 0 105 -15.5t86 -44.5l91 93l35 -37l-89 -90q32 -38 49.5 -87.5
t17.5 -109.5zM359 63q70 0 127.5 25.5t98.5 70t63 105.5t22 132q0 40 -10 74.5t-29 60.5l-416 -424q55 -44 144 -44zM597 568q-54 45 -142 45q-71 0 -128 -24.5t-98 -69t-63 -106t-22 -134.5q0 -81 38 -134z" />
    <glyph glyph-name="oslashacute" unicode="&#x1ff;" horiz-adv-x="534" 
d="M378 710h90l-137 -151h-66zM306 489q34 0 60.5 -9t46.5 -26l59 65l33 -32l-62 -68q27 -47 27 -113q0 -71 -23 -130t-62 -101t-89.5 -65.5t-104.5 -23.5q-34 0 -60 9t-46 25l-58 -64l-33 32l61 67q-27 45 -27 113q0 72 23 131t61.5 101t89 65.5t104.5 23.5zM110 175
q0 -30 6 -51l242 268q-25 25 -64 25q-34 0 -67 -16.5t-59 -48t-42 -76.5t-16 -101zM205 59q33 0 65.5 16.5t58.5 47.5t42 76t16 101q0 27 -6 50l-241 -268q23 -23 65 -23z" />
    <glyph glyph-name="Scommaaccent" unicode="&#x218;" horiz-adv-x="557" 
d="M506 579q-29 15 -68.5 24.5t-85.5 9.5q-30 0 -59.5 -6t-53.5 -20t-38.5 -36.5t-14.5 -55.5q0 -32 20.5 -54t51 -39.5t66.5 -35t66.5 -41t51 -55.5t20.5 -80q0 -54 -21.5 -93t-57 -63.5t-81 -36t-94.5 -11.5q-60 0 -113 13.5t-89 33.5l17 79q35 -20 84 -34.5t104 -14.5
q30 0 58.5 6t50.5 20.5t35.5 37.5t13.5 56t-20.5 55.5t-51 40.5t-66 35t-66 40t-51 56t-20.5 82t21 86.5t57 62t83 37t98 12.5q54 0 98 -9t73 -24l-18 -78v0zM270 -61q3 -18 3 -34q0 -54 -35 -94t-98 -55l-20 48q85 24 85 100q0 18 -4 35h69z" />
    <glyph glyph-name="scommaaccent" unicode="&#x219;" horiz-adv-x="428" 
d="M363 391q-23 12 -54.5 19t-66.5 7q-21 0 -39.5 -3.5t-33 -11.5t-23 -21t-8.5 -32q0 -20 14.5 -33t36 -24.5t47 -23t47 -28.5t36 -41t14.5 -60q0 -41 -16 -69.5t-42.5 -47.5t-60.5 -27.5t-70 -8.5q-43 0 -84 11.5t-69 31.5l14 70q28 -20 68 -31t77 -11q41 0 70 15.5
t29 53.5q0 25 -14.5 41t-36 29t-46.5 24.5t-46.5 27t-36 37t-14.5 54.5q0 38 16 66.5t43 47t62 27.5t74 9q36 0 69.5 -7t58.5 -19zM202 -61q3 -18 3 -34q0 -54 -35 -94t-98 -55l-20 48q85 24 85 100q0 18 -4 35h69z" />
    <glyph glyph-name="circumflex" unicode="&#x2c6;" horiz-adv-x="510" 
d="M303 710l72 -151h-62l-51 96l-89 -96h-72l134 151h68z" />
    <glyph glyph-name="caron" unicode="&#x2c7;" horiz-adv-x="510" 
d="M206 559l-72 151h65l48 -92l88 92h73l-134 -151h-68z" />
    <glyph glyph-name="breve" unicode="&#x2d8;" horiz-adv-x="510" 
d="M186 705q-1 -5 -1 -8.5v-7.5q0 -70 66 -70q40 0 62 22.5t29 63.5h59q-12 -66 -51 -104.5t-106 -38.5q-55 0 -86 31.5t-31 84.5q0 7 0.5 13.5t1.5 13.5h57z" />
    <glyph glyph-name="dotaccent" unicode="&#x2d9;" horiz-adv-x="510" 
d="M303 685l-20 -96h-79l20 96h79z" />
    <glyph glyph-name="ring" unicode="&#x2da;" horiz-adv-x="510" 
d="M260 681q-27 0 -43.5 -14.5t-16.5 -40.5q0 -19 13.5 -29t34.5 -10q26 0 42.5 15t16.5 41q0 19 -13 28.5t-34 9.5zM265 724q39 0 67 -20t28 -60q0 -23 -10 -41.5t-26 -31.5t-37.5 -20t-43.5 -7q-39 0 -67.5 20.5t-28.5 60.5q0 23 10 41.5t26.5 31t37.5 19.5t44 7z" />
    <glyph glyph-name="ogonek" unicode="&#x2db;" horiz-adv-x="510" 
d="M310 0q-17 -11 -33.5 -24.5t-30.5 -28.5t-22.5 -32t-8.5 -35q0 -17 11 -23.5t27 -6.5q13 0 28.5 4t25.5 11q1 -14 1 -28v-28q-16 -8 -34 -13t-38 -5q-17 0 -32.5 4t-27.5 13t-19.5 23.5t-7.5 35.5q0 22 9.5 43t24 38t32.5 30.5t35 21.5h60z" />
    <glyph glyph-name="tilde" unicode="&#x2dc;" horiz-adv-x="510" 
d="M411 694q-5 -55 -30.5 -89t-76.5 -34q-20 0 -35.5 10t-29 22.5t-26 22.5t-25.5 10q-15 0 -25.5 -15t-12.5 -48h-58q5 54 30 88.5t73 34.5q22 0 37.5 -9.5t28.5 -21.5t25 -21.5t27 -9.5q16 0 27 13.5t13 46.5h58z" />
    <glyph glyph-name="hungarumlaut" unicode="&#x2dd;" horiz-adv-x="510" 
d="M165 559h-59l92 151h76zM291 559h-64l119 151h83z" />
    <glyph glyph-name="tonos" unicode="&#x384;" horiz-adv-x="510" 
d="M274 710h90l-137 -151h-66z" />
    <glyph glyph-name="dieresistonos" unicode="&#x385;" horiz-adv-x="510" 
d="M160 588h-76l21 97h75zM422 588h-75l20 97h76zM277 710h81l-124 -151h-60z" />
    <glyph glyph-name="Alphatonos" unicode="&#x386;" horiz-adv-x="626" 
d="M142 676h88l-83 -151h-71zM425 676l126 -676h-90l-31 167h-313l-99 -167h-93l412 676h88zM163 242h254l-58 325z" />
    <glyph glyph-name="Epsilontonos" unicode="&#x388;" horiz-adv-x="626" 
d="M78 676h89l-83 -151h-71zM619 676l-16 -76h-315l-45 -214h287l-16 -75h-288l-30 -148q-2 -8 -3 -16t-1 -15q0 -29 17 -43t55 -14h243l-16 -75h-256q-69 0 -101 33t-32 86q0 14 4.5 37.5t9.5 46.5l99 473h404z" />
    <glyph glyph-name="Etatonos" unicode="&#x389;" horiz-adv-x="811" 
d="M65 676h89l-83 -151h-71zM293 676l-61 -288h392l60 288h88l-143 -676h-88l66 311h-392l-66 -311h-88l144 676h88z" />
    <glyph glyph-name="Iotatonos" unicode="&#x38a;" horiz-adv-x="327" 
d="M65 676h88l-82 -151h-71zM288 676l-143 -676h-88l143 676h88z" />
    <glyph glyph-name="Omicrontonos" unicode="&#x38c;" horiz-adv-x="836" 
d="M65 676h88l-82 -151h-71zM73 277q0 87 29 162t83 131t131 88t172 32q67 0 121.5 -20.5t93 -58.5t59.5 -91.5t21 -119.5q0 -90 -30 -166t-84.5 -131t-131 -86t-169.5 -31q-67 0 -121.5 20.5t-93 58.5t-59.5 92t-21 120zM476 613q-71 0 -128 -25.5t-98 -70t-63 -105.5
t-22 -132q0 -49 14 -89t41.5 -68.5t67.5 -44t92 -15.5q70 0 127.5 25t98.5 70t63 106t22 133q0 49 -14 88.5t-41.5 68t-67.5 44t-92 15.5z" />
    <glyph glyph-name="Upsilontonos" unicode="&#x38e;" horiz-adv-x="693" 
d="M66 676h89l-83 -151h-71zM267 676l129 -324l265 324h96l-335 -405l-57 -271h-88l57 271l-162 405h95z" />
    <glyph glyph-name="Omegatonos" unicode="&#x38f;" horiz-adv-x="842" 
d="M65 676h88l-83 -151h-70zM51 75h152q-53 35 -85 96.5t-32 138.5q0 82 29 151.5t82.5 120t128.5 79t168 28.5q71 0 127 -20t95 -56.5t59.5 -88t20.5 -115.5q0 -57 -16.5 -108.5t-45.5 -95t-68 -76.5t-84 -54h139l-17 -75h-294l15 69q53 14 102.5 43t88 71t62 96.5
t23.5 119.5q0 98 -56.5 156t-164.5 58q-69 0 -125 -22.5t-95.5 -63t-61 -97t-21.5 -124.5q0 -84 42 -143t105 -95l-15 -68h-274z" />
    <glyph glyph-name="iotadieresistonos" unicode="&#x390;" horiz-adv-x="269" 
d="M87 588h-76l21 97h75zM349 588h-75l20 97h76zM204 710h81l-124 -151h-60zM193 475l-78 -369q-1 -5 -1.5 -8.5t-0.5 -7.5q0 -19 10.5 -25t24.5 -6q23 0 48 10l-1 -70q-30 -13 -68 -13q-44 0 -70 23t-26 70q0 8 1 17t3 18l77 361h81z" />
    <glyph glyph-name="Alpha" unicode="&#x391;" horiz-adv-x="626" 
d="M425 676l126 -676h-90l-31 167h-313l-99 -167h-93l412 676h88zM163 242h254l-58 325z" />
    <glyph glyph-name="Beta" unicode="&#x392;" horiz-adv-x="621" 
d="M367 676q104 0 162 -42t58 -118q0 -41 -15.5 -71.5t-39.5 -51.5t-52.5 -33.5t-54.5 -18.5q19 -5 39 -14.5t36 -26t26.5 -39.5t10.5 -54q0 -51 -22.5 -90t-63 -65t-97.5 -39t-127 -13h-191l143 676h188zM204 380h100q39 0 73.5 8t60 23.5t40.5 39.5t15 57q0 50 -35.5 71
t-106.5 21h-100zM139 75h103q42 0 78.5 7.5t63.5 22.5t43 39t16 57q0 51 -37 78.5t-114 27.5h-104z" />
    <glyph glyph-name="Gamma" unicode="&#x393;" horiz-adv-x="479" 
d="M530 676l-16 -76h-263l-127 -600h-88l143 676h351z" />
    <glyph glyph-name="Delta" unicode="&#x394;" horiz-adv-x="607" 
d="M-40 64l373 612h88l114 -611l-13 -65h-576zM59 75h383l-87 491z" />
    <glyph glyph-name="Delta" unicode="&#x2206;" horiz-adv-x="607" 
d="M-40 64l373 612h88l114 -611l-13 -65h-576zM59 75h383l-87 491z" />
    <glyph glyph-name="Epsilon" unicode="&#x395;" horiz-adv-x="581" 
d="M574 676l-16 -76h-315l-45 -214h287l-16 -75h-288l-30 -148q-2 -8 -3 -16t-1 -15q0 -29 17 -43t55 -14h243l-16 -75h-256q-69 0 -101 33t-32 86q0 14 4.5 37.5t9.5 46.5l99 473h404z" />
    <glyph glyph-name="Zeta" unicode="&#x396;" horiz-adv-x="607" 
d="M611 676l-15 -70l-490 -531h401l-16 -75h-515l14 69l494 531h-392l16 76h503z" />
    <glyph glyph-name="Eta" unicode="&#x397;" horiz-adv-x="785" 
d="M267 676l-61 -288h392l60 288h88l-143 -676h-88l66 311h-392l-66 -311h-88l144 676h88z" />
    <glyph glyph-name="Theta" unicode="&#x398;" horiz-adv-x="815" 
d="M245 387h341l-15 -74h-342zM52 277q0 87 29 162t83 131t131 88t172 32q67 0 121.5 -20.5t93 -58.5t59.5 -91.5t21 -119.5q0 -90 -30 -166t-84.5 -131t-131 -86t-169.5 -31q-67 0 -121.5 20.5t-93 58.5t-59.5 92t-21 120zM455 613q-71 0 -128 -25.5t-98 -70t-63 -105.5
t-22 -132q0 -49 14 -89t41.5 -68.5t67.5 -44t92 -15.5q70 0 127.5 25t98.5 70t63 106t22 133q0 49 -14 88.5t-41.5 68t-67.5 44t-92 15.5z" />
    <glyph glyph-name="Iota" unicode="&#x399;" horiz-adv-x="306" 
d="M267 676l-143 -676h-88l143 676h88z" />
    <glyph glyph-name="Kappa" unicode="&#x39a;" horiz-adv-x="618" 
d="M125 0h-88l143 676h88l-68 -323l370 323h113l-332 -290l195 -386h-98l-166 327l-108 -96z" />
    <glyph glyph-name="Lambda" unicode="&#x39b;" horiz-adv-x="626" 
d="M360 566l-340 -566h-96l413 676h90l125 -676h-91z" />
    <glyph glyph-name="Mu" unicode="&#x39c;" horiz-adv-x="937" 
d="M269 676l170 -455l366 455h96l-143 -676h-88l114 531l-318 -399h-82l-148 399l-113 -531h-87l143 676h90z" />
    <glyph glyph-name="Nu" unicode="&#x39d;" horiz-adv-x="776" 
d="M258 676l282 -546l116 546h84l-143 -676h-78l-283 546l-115 -546h-85l143 676h79z" />
    <glyph glyph-name="Xi" unicode="&#x39e;" horiz-adv-x="625" 
d="M155 676h462l-16 -76h-462zM17 75h485l-16 -75h-485zM115 388h420l-16 -76h-421z" />
    <glyph glyph-name="Omicron" unicode="&#x39f;" horiz-adv-x="815" 
d="M52 277q0 87 29 162t83 131t131 88t172 32q67 0 121.5 -20.5t93 -58.5t59.5 -91.5t21 -119.5q0 -90 -30 -166t-84.5 -131t-131 -86t-169.5 -31q-67 0 -121.5 20.5t-93 58.5t-59.5 92t-21 120zM455 613q-71 0 -128 -25.5t-98 -70t-63 -105.5t-22 -132q0 -49 14 -89
t41.5 -68.5t67.5 -44t92 -15.5q70 0 127.5 25t98.5 70t63 106t22 133q0 49 -14 88.5t-41.5 68t-67.5 44t-92 15.5z" />
    <glyph glyph-name="Pi" unicode="&#x3a0;" horiz-adv-x="761" 
d="M576 0h-88l127 600h-364l-126 -600h-89l143 676h540z" />
    <glyph glyph-name="Rho" unicode="&#x3a1;" horiz-adv-x="627" 
d="M391 676q101 0 156 -51t55 -134q0 -60 -23 -104.5t-63.5 -74.5t-95.5 -45t-119 -15h-124l-53 -252h-89l144 676h212zM193 327h121q40 0 76 9t63 28.5t43 49.5t16 72q0 58 -36 86t-104 28h-121z" />
    <glyph glyph-name="Sigma" unicode="&#x3a3;" horiz-adv-x="567" 
d="M568 600h-345l171 -258l-278 -267h354l-15 -75h-469l12 64l295 283l-179 264l14 65h457z" />
    <glyph glyph-name="Tau" unicode="&#x3a4;" horiz-adv-x="584" 
d="M635 676l-15 -76h-229l-127 -600h-88l127 600h-229l16 76h545z" />
    <glyph glyph-name="Upsilon" unicode="&#x3a5;" horiz-adv-x="585" 
d="M159 676l129 -324l265 324h96l-335 -405l-57 -271h-88l57 271l-162 405h95z" />
    <glyph glyph-name="Phi" unicode="&#x3a6;" horiz-adv-x="817" 
d="M531 710l-18 -78q57 -6 103.5 -25.5t79.5 -50t50.5 -72t17.5 -90.5q0 -67 -26 -126t-74.5 -103.5t-118 -72.5t-156.5 -34l-19 -92h-88l19 92q-58 6 -104.5 25t-79.5 49.5t-51 71.5t-18 91q0 68 26 127.5t74.5 104.5t118.5 73t158 33l17 77h89zM141 298q0 -69 45 -112
t131 -50l93 421q-61 -5 -110.5 -25.5t-85 -54t-54.5 -79t-19 -100.5zM671 391q0 69 -44 113t-130 52l-93 -423q60 5 109.5 25.5t84.5 54t54 79t19 99.5z" />
    <glyph glyph-name="Chi" unicode="&#x3a7;" horiz-adv-x="614" 
d="M185 676l133 -261l242 261h109l-315 -335l177 -341h-99l-140 274l-249 -274h-110l322 348l-168 328h98z" />
    <glyph glyph-name="Psi" unicode="&#x3a8;" horiz-adv-x="810" 
d="M762 453q-47 -238 -344 -254l-43 -199h-92l45 200q-53 6 -95.5 24t-72 46.5t-45.5 66t-16 82.5q0 22 3.5 43t5.5 31l38 183h86l-38 -187q-7 -32 -8 -44.5t-1 -17.5q0 -69 43 -107.5t115 -47.5l83 404h91l-83 -404q100 6 162 53.5t80 135.5l44 215h86z" />
    <glyph glyph-name="Omega" unicode="&#x3a9;" horiz-adv-x="815" 
d="M24 75h152q-53 35 -85 96.5t-32 138.5q0 82 29 151.5t82.5 120t128.5 79t168 28.5q71 0 127 -20t95 -56.5t59.5 -88t20.5 -115.5q0 -57 -16.5 -108.5t-45.5 -95t-68 -76.5t-84 -54h139l-17 -75h-294l15 69q53 14 102.5 43t88 71t62 96.5t23.5 119.5q0 98 -56.5 156
t-164.5 58q-69 0 -125 -22.5t-95.5 -63t-61 -97t-21.5 -124.5q0 -84 42 -143t105 -95l-15 -68h-274z" />
    <glyph glyph-name="Omega" unicode="&#x2126;" horiz-adv-x="815" 
d="M24 75h152q-53 35 -85 96.5t-32 138.5q0 82 29 151.5t82.5 120t128.5 79t168 28.5q71 0 127 -20t95 -56.5t59.5 -88t20.5 -115.5q0 -57 -16.5 -108.5t-45.5 -95t-68 -76.5t-84 -54h139l-17 -75h-294l15 69q53 14 102.5 43t88 71t62 96.5t23.5 119.5q0 98 -56.5 156
t-164.5 58q-69 0 -125 -22.5t-95.5 -63t-61 -97t-21.5 -124.5q0 -84 42 -143t105 -95l-15 -68h-274z" />
    <glyph glyph-name="Iotadieresis" unicode="&#x3aa;" horiz-adv-x="306" 
d="M267 676l-143 -676h-88l143 676h88zM195 770h-75l21 96h75zM370 770h-75l20 96h75z" />
    <glyph glyph-name="Upsilondieresis" unicode="&#x3ab;" horiz-adv-x="585" 
d="M159 676l129 -324l265 324h96l-335 -405l-57 -271h-88l57 271l-162 405h95zM340 773h-75l21 96h75zM515 773h-75l20 96h75z" />
    <glyph glyph-name="alphatonos" unicode="&#x3ac;" horiz-adv-x="563" 
d="M396 710h90l-137 -151h-66zM297 489q83 -4 100 -76l14 62h77l-78 -363q-3 -12 -3 -21q0 -13 7 -21.5t24 -8.5q23 0 44 9l-1 -71q-11 -5 -27 -9t-35 -4q-39 0 -64 20t-25 59q0 5 0.5 11t1.5 12q-12 -20 -30.5 -38.5t-41.5 -32.5t-49.5 -22.5t-54.5 -8.5q-68 0 -102 43
t-34 117q0 55 18.5 115.5t53.5 111t87 83.5t118 33zM358 247q2 16 5 32q2 14 4 27.5t2 23.5q0 40 -20.5 63t-56.5 23t-70 -19.5t-60.5 -54t-42.5 -82t-16 -104.5q0 -95 78 -95q33 0 62 15.5t52 41t39 59t24 70.5z" />
    <glyph glyph-name="epsilontonos" unicode="&#x3ad;" horiz-adv-x="470" 
d="M361 710h90l-137 -151h-66zM414 394q-21 11 -55.5 17.5t-69.5 6.5q-26 0 -50.5 -4t-43 -13t-30 -24t-11.5 -37q0 -31 29.5 -46.5t83.5 -15.5h72l-12 -64h-69q-75 0 -115.5 -23t-40.5 -66q0 -35 30.5 -50.5t81.5 -15.5q41 0 81.5 11.5t71.5 31.5l13 -68q-29 -20 -76 -34
t-98 -14q-41 0 -75.5 7.5t-60.5 23t-40.5 40.5t-14.5 60q0 28 11 50t29 38.5t41.5 27.5t49.5 17q-35 11 -55.5 36t-20.5 57q0 37 18 64.5t48.5 45.5t70.5 27t83 9q78 0 139 -22l-15 -73v0z" />
    <glyph glyph-name="etatonos" unicode="&#x3ae;" horiz-adv-x="585" 
d="M191 387q13 19 32.5 37.5t43.5 33t52 23t59 8.5q60 0 93 -36t33 -99q0 -25 -6 -55l-105 -489h-81l104 489q3 12 4 22.5t1 20.5q0 35 -17 54t-55 19q-35 0 -65.5 -15.5t-55 -41.5t-41.5 -59t-24 -67l-49 -232h-81l77 365q1 5 1.5 9.5t0.5 8.5q0 19 -9 26.5t-25 7.5
q-23 0 -48 -10l1 71q16 5 31.5 8t38.5 3q45 0 68 -24t23 -65v-6.5t-1 -6.5zM416 710h90l-137 -151h-66z" />
    <glyph glyph-name="iotatonos" unicode="&#x3af;" horiz-adv-x="269" 
d="M193 475l-78 -369q-1 -5 -1.5 -8.5t-0.5 -7.5q0 -19 10.5 -25t24.5 -6q23 0 48 10l-1 -70q-30 -13 -68 -13q-44 0 -70 23t-26 70q0 8 1 17t3 18l77 361h81zM248 710h90l-137 -151h-66z" />
    <glyph glyph-name="upsilondieresistonos" unicode="&#x3b0;" horiz-adv-x="523" 
d="M195 588h-76l21 97h75zM457 588h-75l20 97h76zM312 710h81l-124 -151h-60zM182 475l-57 -271q-3 -14 -5 -28t-2 -27q0 -36 21 -63t71 -27q40 0 70.5 20t51 53t30.5 74.5t10 83.5q0 54 -16.5 101t-48.5 84h90q26 -37 40.5 -81.5t14.5 -92.5q0 -56 -15.5 -112t-46.5 -101
t-78 -73.5t-110 -28.5q-85 0 -125 43.5t-40 116.5q0 17 2 33.5t6 34.5l55 261h82z" />
    <glyph glyph-name="alpha" unicode="&#x3b1;" horiz-adv-x="563" 
d="M297 489q83 -4 100 -76l14 62h77l-78 -363q-3 -12 -3 -21q0 -13 7 -21.5t24 -8.5q23 0 44 9l-1 -71q-11 -5 -27 -9t-35 -4q-39 0 -64 20t-25 59q0 5 0.5 11t1.5 12q-12 -20 -30.5 -38.5t-41.5 -32.5t-49.5 -22.5t-54.5 -8.5q-68 0 -102 43t-34 117q0 55 18.5 115.5
t53.5 111t87 83.5t118 33zM358 247q2 16 5 32q2 14 4 27.5t2 23.5q0 40 -20.5 63t-56.5 23t-70 -19.5t-60.5 -54t-42.5 -82t-16 -104.5q0 -95 78 -95q33 0 62 15.5t52 41t39 59t24 70.5z" />
    <glyph glyph-name="beta" unicode="&#x3b2;" horiz-adv-x="558" 
d="M240 -14q-53 0 -86.5 20t-47.5 50l-53 -246h-80l140 663q26 122 87.5 186.5t167.5 64.5q78 0 121.5 -44.5t43.5 -116.5q0 -42 -12.5 -74t-33 -56t-47.5 -39.5t-55 -23.5q43 -13 71.5 -45.5t28.5 -94.5q0 -56 -21 -101.5t-55.5 -77t-78.5 -48.5t-90 -17zM294 402
q21 0 47.5 7.5t50.5 25t40.5 47.5t16.5 75q0 48 -27 71.5t-69 23.5q-66 0 -103 -44t-56 -134l-55 -263q-2 -12 -3.5 -23t-1.5 -22q0 -52 27.5 -79.5t81.5 -27.5q27 0 55.5 10.5t51 31t37 52t14.5 73.5q0 50 -32.5 78t-87.5 28h-34l13 70h34z" />
    <glyph glyph-name="gamma" unicode="&#x3b3;" horiz-adv-x="474" 
d="M463 475q-16 -63 -38.5 -122.5t-54.5 -116t-74.5 -110.5t-97.5 -106l-47 -210h-82l36 165q5 20 5.5 33t0.5 25q0 33 -10 91.5t-24.5 123t-31.5 126t-32 101.5h85q14 -43 27.5 -93t25 -100.5t20 -98.5t13.5 -87q37 37 68 81.5t56 94t42.5 101t27.5 102.5h85z" />
    <glyph glyph-name="delta" unicode="&#x3b4;" horiz-adv-x="537" 
d="M491 627q-20 11 -50 19.5t-66 8.5q-40 0 -66 -16.5t-26 -48.5q0 -21 14 -38.5t34.5 -34.5t45 -36.5t45 -45t34.5 -59.5t14 -80q0 -69 -23 -126t-61 -98t-88.5 -63.5t-104.5 -22.5q-44 0 -75 14t-51 38.5t-29.5 58.5t-9.5 73q0 63 18 115t49 91.5t72.5 66.5t89.5 39
q-24 22 -40 47.5t-16 59.5q0 33 13.5 58t37.5 42t56 26t69 9t74 -6.5t58 -17.5zM309 435q-92 -23 -145 -89.5t-53 -172.5q0 -57 25 -85.5t68 -28.5q33 0 65.5 15.5t58.5 44.5t42 71.5t16 95.5q0 51 -21 86.5t-56 62.5z" />
    <glyph glyph-name="epsilon" unicode="&#x3b5;" horiz-adv-x="470" 
d="M414 394q-21 11 -55.5 17.5t-69.5 6.5q-26 0 -50.5 -4t-43 -13t-30 -24t-11.5 -37q0 -31 29.5 -46.5t83.5 -15.5h72l-12 -64h-69q-75 0 -115.5 -23t-40.5 -66q0 -35 30.5 -50.5t81.5 -15.5q41 0 81.5 11.5t71.5 31.5l13 -68q-29 -20 -76 -34t-98 -14q-41 0 -75.5 7.5
t-60.5 23t-40.5 40.5t-14.5 60q0 28 11 50t29 38.5t41.5 27.5t49.5 17q-35 11 -55.5 36t-20.5 57q0 37 18 64.5t48.5 45.5t70.5 27t83 9q78 0 139 -22l-15 -73v0z" />
    <glyph glyph-name="zeta" unicode="&#x3b6;" horiz-adv-x="405" 
d="M509 710v-63q-203 -102 -298 -211t-95 -236q0 -30 7.5 -53t24.5 -41t44.5 -32t68.5 -27q22 -7 41 -15.5t33 -20.5t22 -29t8 -40q0 -31 -14.5 -55.5t-37 -41.5t-49.5 -27.5t-52 -13.5l-15 68q13 2 29 6t29 11.5t22 18.5t9 26q0 21 -16 30.5t-43 17.5q-105 29 -150 83.5
t-45 130.5q0 80 28 146t75.5 120.5t111 98.5t134.5 80l-214 -1l14 70h328z" />
    <glyph glyph-name="eta" unicode="&#x3b7;" horiz-adv-x="585" 
d="M191 387q13 19 32.5 37.5t43.5 33t52 23t59 8.5q60 0 93 -36t33 -99q0 -25 -6 -55l-105 -489h-81l104 489q3 12 4 22.5t1 20.5q0 35 -17 54t-55 19q-35 0 -65.5 -15.5t-55 -41.5t-41.5 -59t-24 -67l-49 -232h-81l77 365q1 5 1.5 9.5t0.5 8.5q0 19 -9 26.5t-25 7.5
q-23 0 -48 -10l1 71q16 5 31.5 8t38.5 3q45 0 68 -24t23 -65v-6.5t-1 -6.5z" />
    <glyph glyph-name="theta" unicode="&#x3b8;" horiz-adv-x="562" 
d="M364 724q81 0 124.5 -55.5t43.5 -159.5q0 -98 -26 -192t-71 -167.5t-105.5 -118.5t-129.5 -45q-82 0 -125.5 54t-43.5 159q0 101 26 195.5t71.5 168t106 117.5t129.5 44zM206 59q36 0 69.5 22t62 59.5t51 86.5t37.5 103h-300q-8 -33 -11 -66.5t-3 -59.5q0 -67 23 -106
t71 -39zM357 652q-35 0 -67.5 -20t-60 -54.5t-50 -81t-38.5 -98.5h300q6 28 7.5 57t1.5 52q0 67 -22 106t-71 39z" />
    <glyph glyph-name="iota" unicode="&#x3b9;" horiz-adv-x="269" 
d="M193 475l-78 -369q-1 -5 -1.5 -8.5t-0.5 -7.5q0 -19 10.5 -25t24.5 -6q23 0 48 10l-1 -70q-30 -13 -68 -13q-44 0 -70 23t-26 70q0 8 1 17t3 18l77 361h81z" />
    <glyph glyph-name="kappa" unicode="&#x3ba;" horiz-adv-x="488" 
d="M195 475l-48 -224q24 29 59 62t74.5 65.5t80 61t75.5 48.5q15 -9 30 -18.5t30 -19.5q-81 -47 -146 -98.5t-109 -96.5l101 -164q11 -17 22.5 -24.5t31.5 -7.5q5 0 11 0.5t11 1.5l-6 -70q-17 -5 -37 -5q-37 0 -59 15t-37 39l-103 166q-25 -22 -38.5 -43t-20.5 -54l-23 -109
h-82l101 475h82z" />
    <glyph glyph-name="lambda" unicode="&#x3bb;" horiz-adv-x="463" 
d="M218 484q-5 26 -13.5 53.5t-22.5 51.5t-35.5 41.5t-52.5 23.5l27 68q42 -10 71.5 -32t49.5 -52t33 -67t22 -77l106 -494h-86l-75 388l-219 -388h-89z" />
    <glyph glyph-name="uni03BC" unicode="&#x3bc;" horiz-adv-x="577" 
d="M352 88q-25 -42 -68 -72t-101 -30q-34 0 -53.5 13t-29.5 28l-47 -217h-80l140 665h81l-63 -299q-5 -25 -5 -42q0 -34 18 -52.5t53 -18.5q34 0 64 15t53 40.5t39.5 57.5t23.5 67l49 232h80l-76 -363q-3 -12 -3 -21q0 -13 7 -21.5t24 -8.5q23 0 44 9l-1 -71q-11 -5 -30 -9
t-38 -4q-39 0 -61 21t-22 58q0 5 0.5 11t1.5 12z" />
    <glyph glyph-name="nu" unicode="&#x3bd;" horiz-adv-x="476" 
d="M465 475q-12 -60 -37.5 -124t-61.5 -126.5t-80 -120.5t-93 -104h-80l-87 475h82l71 -393q30 34 61.5 78.5t59.5 96t49.5 107t31.5 111.5h84z" />
    <glyph glyph-name="xi" unicode="&#x3be;" horiz-adv-x="433" 
d="M374 330h-75q-38 0 -74.5 -9t-65.5 -28.5t-47 -50.5t-18 -74q0 -30 10 -50t29 -33.5t47 -22.5t63 -18q45 -11 76 -34.5t31 -68.5q0 -32 -14 -55.5t-36.5 -40t-50 -27t-53.5 -14.5l-14 67q13 2 29 6.5t29 12t22 19t9 26.5q0 18 -15 28t-44 17q-37 9 -72.5 21t-63.5 32
t-45 51.5t-17 78.5q0 49 17 85t44 61t60.5 40t65.5 23q-43 15 -66 48.5t-23 78.5q0 51 21.5 93t58 71t84 45t99.5 16q35 0 63.5 -5.5t50.5 -14.5l-16 -73q-18 8 -47 14.5t-61 6.5q-80 0 -126 -42t-46 -110q0 -48 34 -74t85 -26h77z" />
    <glyph glyph-name="omicron" unicode="&#x3bf;" horiz-adv-x="534" 
d="M306 489q42 0 72.5 -13.5t51 -38t30.5 -58t10 -73.5q0 -71 -23 -130t-62 -101t-89.5 -65.5t-104.5 -23.5q-41 0 -72 13.5t-51 37.5t-30 57.5t-10 73.5q0 72 23 131t61.5 101t89 65.5t104.5 23.5zM294 417q-34 0 -67 -16.5t-59 -48t-42 -76.5t-16 -101q0 -58 25 -87
t70 -29q33 0 65.5 16.5t58.5 47.5t42 76t16 101q0 58 -25 87.5t-68 29.5z" />
    <glyph glyph-name="pi" unicode="&#x3c0;" horiz-adv-x="574" 
d="M464 408l-63 -302q-1 -5 -1.5 -8.5t-0.5 -7.5q0 -19 10.5 -25t24.5 -6q23 0 48 10l-1 -70q-30 -13 -68 -13q-44 0 -70 23t-26 70q0 8 1 17t3 18l62 294h-180l-88 -408h-82l89 408h-90l15 67h507l-15 -67h-75z" />
    <glyph glyph-name="rho" unicode="&#x3c1;" horiz-adv-x="541" 
d="M300 417q-66 0 -109 -42.5t-60 -124.5l-12 -59q-2 -10 -2.5 -15.5t-0.5 -9.5q0 -21 5 -40.5t16.5 -34t29 -23.5t42.5 -9q35 0 68 16.5t59 48t41.5 76t15.5 101.5t-24 86.5t-69 29.5zM203 -14q-45 0 -74 18t-40 44l-52 -238h-81l95 445q11 53 33 96.5t54 74t74 47t95 16.5
q43 0 75 -13.5t53 -38t31.5 -58t10.5 -73.5q0 -72 -22.5 -131t-60.5 -101t-87.5 -65t-103.5 -23z" />
    <glyph glyph-name="uni03C2" unicode="&#x3c2;" horiz-adv-x="434" 
d="M414 394q-16 9 -38 16t-52 7q-46 0 -86 -20t-69 -53.5t-46 -78.5t-17 -95q0 -29 6.5 -48t21 -32.5t36.5 -24t53 -20.5q20 -7 38.5 -15t33 -19t23 -26.5t8.5 -37.5q0 -32 -14.5 -57t-37 -43t-49.5 -29t-52 -14l-14 70q14 2 29.5 6.5t29 12.5t22 19t8.5 26q0 17 -13.5 25.5
t-41.5 17.5q-38 12 -69 26t-53.5 34.5t-34.5 49.5t-12 70q0 71 25 131.5t67 104t97.5 68t115.5 24.5q35 0 60 -6.5t41 -14.5l-16 -74v0z" />
    <glyph glyph-name="sigma" unicode="&#x3c3;" horiz-adv-x="546" 
d="M300 404q-35 -1 -69 -15.5t-61 -43.5t-43.5 -71.5t-16.5 -98.5q0 -58 25 -87t70 -29q32 0 64 16t58 45t42.5 70.5t16.5 92.5q0 27 -8.5 48t-21.5 36t-28 24t-28 13zM522 405l-112 6q26 -16 42.5 -48.5t16.5 -82.5q0 -62 -24 -115.5t-63 -93t-89 -62.5t-102 -23
q-42 0 -72.5 13.5t-50.5 37.5t-30 57.5t-10 73.5q0 72 23 128.5t61.5 96.5t88.5 61t105 21h232z" />
    <glyph glyph-name="tau" unicode="&#x3c4;" horiz-adv-x="403" 
d="M247 408l-63 -302q-1 -5 -1.5 -8.5t-0.5 -7.5q0 -19 10.5 -25t24.5 -6q23 0 48 10l-1 -70q-30 -13 -68 -13q-44 0 -70 23t-26 70q0 8 1 17t3 18l62 294h-159l14 67h401l-15 -67h-160z" />
    <glyph glyph-name="upsilon" unicode="&#x3c5;" horiz-adv-x="523" 
d="M182 475l-57 -271q-3 -14 -5 -28t-2 -27q0 -36 21 -63t71 -27q40 0 70.5 20t51 53t30.5 74.5t10 83.5q0 54 -16.5 101t-48.5 84h90q26 -37 40.5 -81.5t14.5 -92.5q0 -56 -15.5 -112t-46.5 -101t-78 -73.5t-110 -28.5q-85 0 -125 43.5t-40 116.5q0 17 2 33.5t6 34.5
l55 261h82z" />
    <glyph glyph-name="phi" unicode="&#x3c6;" horiz-adv-x="688" 
d="M241 457q-60 -45 -96.5 -108t-36.5 -143q0 -61 34 -102t101 -48l46 222q9 46 25 84.5t40.5 66.5t58.5 43.5t81 15.5q69 0 107 -44t38 -123q0 -67 -26 -126t-70.5 -104t-104.5 -72t-128 -31l-38 -178h-81l38 180q-100 11 -151 66.5t-51 144.5q0 43 10 85t29 79.5t45.5 69
t58.5 54.5zM324 57q50 7 93 30t74.5 58t49.5 79.5t18 95.5q0 46 -18.5 72t-55.5 26q-43 0 -71 -33.5t-45 -111.5z" />
    <glyph glyph-name="chi" unicode="&#x3c7;" horiz-adv-x="429" 
d="M463 475l-246 -312l131 -353h-91l-102 290l-214 -290h-100l285 361l-110 304h87l83 -241l181 241h96z" />
    <glyph glyph-name="psi" unicode="&#x3c8;" horiz-adv-x="693" 
d="M180 475q-14 -29 -26.5 -61t-23 -65t-16.5 -66t-6 -64q0 -58 27 -101.5t95 -57.5l121 566h77l-122 -572q54 3 97 25.5t73 59t46 83.5t16 99q0 37 -9 76.5t-29 77.5h86q35 -73 35 -148q0 -65 -22.5 -126.5t-65 -108.5t-103.5 -75.5t-138 -28.5l-37 -178h-78l39 184
q-53 8 -88.5 29t-58 51t-32 67t-9.5 77q0 66 20 134t46 123h86v0z" />
    <glyph glyph-name="omega" unicode="&#x3c9;" horiz-adv-x="780" 
d="M270 475q-34 -35 -64 -72t-52 -77t-35 -83.5t-13 -91.5q0 -45 21 -68.5t55 -23.5q28 0 52 11.5t42 32t30.5 48t19.5 60.5l30 147h82l-31 -158q-2 -12 -4 -25t-2 -25q0 -39 18.5 -65t63.5 -26q33 0 59.5 18t45 48t28.5 68.5t10 80.5q0 45 -12.5 97.5t-46.5 103.5h89
q27 -46 38.5 -96.5t11.5 -98.5q0 -59 -15.5 -112t-45 -93.5t-71 -64.5t-93.5 -24q-63 0 -96.5 34t-41.5 83q-28 -51 -69.5 -84t-103.5 -33q-71 0 -108 45.5t-37 121.5q0 49 11.5 94.5t31.5 86t46.5 76t57.5 65.5h98z" />
    <glyph glyph-name="iotadieresis" unicode="&#x3ca;" horiz-adv-x="269" 
d="M193 475l-78 -369q-1 -5 -1.5 -8.5t-0.5 -7.5q0 -19 10.5 -25t24.5 -6q23 0 48 10l-1 -70q-30 -13 -68 -13q-44 0 -70 23t-26 70q0 8 1 17t3 18l77 361h81zM120 588h-75l21 96h75zM295 588h-75l20 96h75z" />
    <glyph glyph-name="upsilondieresis" unicode="&#x3cb;" horiz-adv-x="523" 
d="M182 475l-57 -271q-3 -14 -5 -28t-2 -27q0 -36 21 -63t71 -27q40 0 70.5 20t51 53t30.5 74.5t10 83.5q0 54 -16.5 101t-48.5 84h90q26 -37 40.5 -81.5t14.5 -92.5q0 -56 -15.5 -112t-46.5 -101t-78 -73.5t-110 -28.5q-85 0 -125 43.5t-40 116.5q0 17 2 33.5t6 34.5
l55 261h82zM246 588h-75l21 96h75zM421 588h-75l20 96h75z" />
    <glyph glyph-name="omicrontonos" unicode="&#x3cc;" horiz-adv-x="534" 
d="M306 489q42 0 72.5 -13.5t51 -38t30.5 -58t10 -73.5q0 -71 -23 -130t-62 -101t-89.5 -65.5t-104.5 -23.5q-41 0 -72 13.5t-51 37.5t-30 57.5t-10 73.5q0 72 23 131t61.5 101t89 65.5t104.5 23.5zM294 417q-34 0 -67 -16.5t-59 -48t-42 -76.5t-16 -101q0 -58 25 -87
t70 -29q33 0 65.5 16.5t58.5 47.5t42 76t16 101q0 58 -25 87.5t-68 29.5zM387 710h90l-137 -151h-66z" />
    <glyph glyph-name="upsilontonos" unicode="&#x3cd;" horiz-adv-x="523" 
d="M352 710h90l-137 -151h-66zM182 475l-57 -271q-3 -14 -5 -28t-2 -27q0 -36 21 -63t71 -27q40 0 70.5 20t51 53t30.5 74.5t10 83.5q0 54 -16.5 101t-48.5 84h90q26 -37 40.5 -81.5t14.5 -92.5q0 -56 -15.5 -112t-46.5 -101t-78 -73.5t-110 -28.5q-85 0 -125 43.5
t-40 116.5q0 17 2 33.5t6 34.5l55 261h82z" />
    <glyph glyph-name="omegatonos" unicode="&#x3ce;" horiz-adv-x="780" 
d="M507 710h90l-137 -151h-66zM270 475q-34 -35 -64 -72t-52 -77t-35 -83.5t-13 -91.5q0 -45 21 -68.5t55 -23.5q28 0 52 11.5t42 32t30.5 48t19.5 60.5l30 147h82l-31 -158q-2 -12 -4 -25t-2 -25q0 -39 18.5 -65t63.5 -26q33 0 59.5 18t45 48t28.5 68.5t10 80.5
q0 45 -12.5 97.5t-46.5 103.5h89q27 -46 38.5 -96.5t11.5 -98.5q0 -59 -15.5 -112t-45 -93.5t-71 -64.5t-93.5 -24q-63 0 -96.5 34t-41.5 83q-28 -51 -69.5 -84t-103.5 -33q-71 0 -108 45.5t-37 121.5q0 49 11.5 94.5t31.5 86t46.5 76t57.5 65.5h98z" />
    <glyph glyph-name="uni03D0" unicode="&#x3d0;" horiz-adv-x="552" 
d="M165 403q47 0 100 8.5t97.5 29t74 53.5t29.5 83q0 32 -18 52.5t-61 20.5q-33 0 -65.5 -16t-61.5 -47.5t-53.5 -77.5t-41.5 -106zM400 723q69 0 110 -35.5t41 -102.5q0 -38 -13 -69t-35.5 -56t-51.5 -43t-62 -30q36 -14 59.5 -49t23.5 -92q0 -53 -21.5 -100.5t-57.5 -82.5
t-82.5 -55.5t-97.5 -20.5q-28 0 -58 8.5t-55 31t-41 62t-16 102.5q0 49 9.5 107t28.5 117.5t48 115t68.5 98t90 68.5t112.5 26zM147 338q-14 -50 -18 -85.5t-4 -61.5q0 -69 27 -100.5t70 -31.5q33 0 63 14.5t53 39.5t36.5 59t13.5 74q0 19 -5 38t-15.5 33.5t-26.5 23.5
t-38 9q-5 0 -10 -0.5t-12 -1.5q-20 -2 -36 -4t-31.5 -3t-31.5 -2t-35 -1z" />
    <glyph glyph-name="uni03D1" unicode="&#x3d1;" horiz-adv-x="555" 
d="M337 653q-35 0 -64 -14t-49.5 -37.5t-31.5 -55t-11 -66.5q0 -54 25 -80t72 -26q31 0 60 12.5t51.5 34.5t36 50.5t13.5 61.5q0 34 -8.5 57.5t-22.5 37t-32.5 19.5t-38.5 6zM120 264q-8 -22 -14.5 -50.5t-6.5 -57.5q0 -19 4.5 -36.5t14.5 -31t26.5 -21.5t41.5 -8
q35 0 63.5 14.5t52 39.5t42 57.5t33 68t25 72t18.5 68.5q-26 -32 -68.5 -53.5t-89.5 -21.5q-35 0 -65 10t-52 31t-34.5 52.5t-12.5 74.5q0 60 21.5 107t56.5 79t79.5 49t89.5 17q36 0 68 -10.5t55.5 -34t37.5 -61.5t14 -94q0 -44 -8.5 -101.5t-26 -117t-45 -117t-65 -102.5
t-86 -72.5t-108.5 -27.5q-42 0 -72.5 13t-50 35.5t-28.5 51.5t-9 62q0 29 4 58.5t14 57.5h81z" />
    <glyph glyph-name="uni0400" unicode="&#x400;" horiz-adv-x="581" 
d="M574 676l-16 -76h-315l-45 -214h287l-16 -75h-288l-30 -148q-2 -8 -3 -16t-1 -15q0 -29 17 -43t55 -14h243l-16 -75h-256q-69 0 -101 33t-32 86q0 14 4.5 37.5t9.5 46.5l99 473h404zM429 744h-63l-99 151h81z" />
    <glyph glyph-name="afii10023" unicode="&#x401;" horiz-adv-x="581" 
d="M574 676l-16 -76h-315l-45 -214h287l-16 -75h-288l-30 -148q-2 -8 -3 -16t-1 -15q0 -29 17 -43t55 -14h243l-16 -75h-256q-69 0 -101 33t-32 86q0 14 4.5 37.5t9.5 46.5l99 473h404zM327 789h-75l21 96h75zM502 789h-75l20 96h75z" />
    <glyph glyph-name="afii10051" unicode="&#x402;" horiz-adv-x="783" 
d="M264 0h-88l127 600h-229l16 76h545l-15 -76h-229l-44 -207q32 19 76.5 33t90.5 14q91 0 144.5 -55.5t53.5 -156.5q0 -75 -25 -133.5t-67.5 -98.5t-98.5 -62t-118 -25l-8 76q49 2 90.5 18.5t72 46t48 71t17.5 93.5q0 79 -35 113.5t-96 34.5q-49 0 -90.5 -17.5t-73.5 -41.5
z" />
    <glyph glyph-name="afii10052" unicode="&#x403;" horiz-adv-x="479" 
d="M436 895h90l-137 -151h-66zM530 676l-16 -76h-263l-127 -600h-88l143 676h351z" />
    <glyph glyph-name="afii10053" unicode="&#x404;" horiz-adv-x="643" 
d="M52 275q0 93 30.5 169.5t85 131t130 84.5t165.5 30q56 0 101 -9t75 -25l-17 -78q-30 15 -70 25t-89 10q-56 0 -104.5 -15t-88 -43.5t-68 -70.5t-43.5 -97h355l-16 -76h-351q-1 -8 -1 -17v-17q0 -50 15.5 -89.5t44 -67t68 -42t88.5 -14.5q48 0 88 9t80 27l5 -77
q-40 -19 -88 -28t-100 -9q-63 0 -117 20.5t-93.5 58t-62 91t-22.5 119.5z" />
    <glyph glyph-name="afii10054" unicode="&#x405;" horiz-adv-x="557" 
d="M506 579q-29 15 -68.5 24.5t-85.5 9.5q-30 0 -59.5 -6t-53.5 -20t-38.5 -36.5t-14.5 -55.5q0 -32 20.5 -54t51 -39.5t66.5 -35t66.5 -41t51 -55.5t20.5 -80q0 -54 -21.5 -93t-57 -63.5t-81 -36t-94.5 -11.5q-60 0 -113 13.5t-89 33.5l17 79q35 -20 84 -34.5t104 -14.5
q30 0 58.5 6t50.5 20.5t35.5 37.5t13.5 56t-20.5 55.5t-51 40.5t-66 35t-66 40t-51 56t-20.5 82t21 86.5t57 62t83 37t98 12.5q54 0 98 -9t73 -24l-18 -78v0z" />
    <glyph glyph-name="afii10055" unicode="&#x406;" horiz-adv-x="306" 
d="M267 676l-143 -676h-88l143 676h88z" />
    <glyph glyph-name="afii10056" unicode="&#x407;" horiz-adv-x="306" 
d="M267 676l-143 -676h-88l143 676h88zM193 784h-75l21 96h75zM368 784h-75l20 96h75z" />
    <glyph glyph-name="afii10057" unicode="&#x408;" horiz-adv-x="379" 
d="M354 676l-107 -503q-21 -97 -69 -142t-132 -45q-31 0 -57.5 7t-43.5 15l17 75q15 -8 37.5 -14t49.5 -6q48 0 73.5 28t36.5 80l107 505h88z" />
    <glyph glyph-name="afii10058" unicode="&#x409;" horiz-adv-x="984" 
d="M526 75h117q45 0 81 12.5t61.5 35t39.5 53t14 67.5q0 48 -33.5 75t-101.5 27h-121zM179 160q-10 -45 -24.5 -78t-36.5 -54t-53 -31.5t-73 -10.5q-11 0 -27 2t-26 4l16 76q8 -3 19.5 -4t19.5 -1q46 0 68.5 26t34.5 83l106 504h451l-55 -256h117q104 0 158.5 -45.5
t54.5 -123.5q0 -54 -21.5 -100t-60.5 -79.5t-94 -52.5t-121 -19h-211l128 600h-276z" />
    <glyph glyph-name="afii10059" unicode="&#x40a;" horiz-adv-x="985" 
d="M655 676l-55 -256h117q104 0 158.5 -45.5t54.5 -123.5q0 -54 -21.5 -100t-60.5 -79.5t-94 -52.5t-121 -19h-211l73 345h-295l-74 -345h-89l144 676h88l-54 -256h296l55 256h89zM527 75h117q45 0 81 12.5t61.5 35t39.5 53t14 67.5q0 48 -33.5 75t-101.5 27h-121z" />
    <glyph glyph-name="afii10060" unicode="&#x40b;" horiz-adv-x="807" 
d="M635 676l-15 -76h-229l-44 -207q29 20 75 35.5t101 15.5q93 0 143.5 -49.5t50.5 -134.5q0 -14 -3 -31.5t-7 -35.5l-41 -193h-88l43 203q3 14 5 25t2 21q0 64 -34 90.5t-87 26.5q-54 0 -100.5 -19t-78.5 -44l-64 -303h-88l127 600h-229l16 76h545z" />
    <glyph glyph-name="afii10061" unicode="&#x40c;" horiz-adv-x="618" 
d="M125 0h-88l143 676h88l-68 -323l370 323h113l-332 -290l195 -386h-98l-166 327l-108 -96zM496 895h90l-137 -151h-66z" />
    <glyph glyph-name="uni040D" unicode="&#x40d;" horiz-adv-x="779" 
d="M740 676l-143 -676h-89l115 535l-503 -535h-84l143 676h88l-114 -535l503 535h84zM509 744h-63l-99 151h81z" />
    <glyph glyph-name="afii10062" unicode="&#x40e;" horiz-adv-x="588" 
d="M326 891q-1 -5 -1 -8.5v-7.5q0 -70 66 -70q40 0 62 22.5t29 63.5h59q-12 -66 -51 -104.5t-106 -38.5q-55 0 -86 31.5t-31 84.5q0 7 0.5 13.5t1.5 13.5h57zM27 79q16 -7 37 -10.5t38 -3.5q34 0 60.5 15.5t49.5 51.5l45 70l-183 474h90l149 -394l242 394h101l-366 -576
q-36 -57 -80 -85.5t-111 -28.5q-20 0 -45.5 4.5t-42.5 12.5z" />
    <glyph glyph-name="afii10145" unicode="&#x40f;" horiz-adv-x="673" 
d="M140 75h278l127 601h88l-143 -676h-182l-36 -140h-75l23 140h-184l143 676h88z" />
    <glyph glyph-name="afii10017" unicode="&#x410;" horiz-adv-x="626" 
d="M425 676l126 -676h-90l-31 167h-313l-99 -167h-93l412 676h88zM163 242h254l-58 325z" />
    <glyph glyph-name="afii10018" unicode="&#x411;" horiz-adv-x="618" 
d="M578 676l-17 -76h-309l-39 -180h117q104 0 158.5 -45.5t54.5 -123.5q0 -54 -21.5 -100t-60.5 -79.5t-94 -52.5t-121 -19h-211l144 676h399zM140 75h117q45 0 81 12.5t61.5 35t39.5 53t14 67.5q0 48 -33.5 75t-101.5 27h-121z" />
    <glyph glyph-name="afii10019" unicode="&#x412;" horiz-adv-x="621" 
d="M367 676q104 0 162 -42t58 -118q0 -41 -15.5 -71.5t-39.5 -51.5t-52.5 -33.5t-54.5 -18.5q19 -5 39 -14.5t36 -26t26.5 -39.5t10.5 -54q0 -51 -22.5 -90t-63 -65t-97.5 -39t-127 -13h-191l143 676h188zM204 380h100q39 0 73.5 8t60 23.5t40.5 39.5t15 57q0 50 -35.5 71
t-106.5 21h-100zM139 75h103q42 0 78.5 7.5t63.5 22.5t43 39t16 57q0 51 -37 78.5t-114 27.5h-104z" />
    <glyph glyph-name="afii10020" unicode="&#x413;" horiz-adv-x="479" 
d="M530 676l-16 -76h-263l-127 -600h-88l143 676h351z" />
    <glyph glyph-name="afii10021" unicode="&#x414;" horiz-adv-x="656" 
d="M617 676l-127 -601h42l-45 -215h-71l14 140h-393l-40 -140h-75l46 215h38q40 45 67.5 97.5t46 104t29.5 100t19 86.5l45 213h404zM282 600q-12 -56 -18 -85t-9 -43l-4 -18q-8 -33 -17.5 -79.5t-25.5 -97.5t-41 -103.5t-63 -98.5h298l111 525h-231z" />
    <glyph glyph-name="afii10022" unicode="&#x415;" horiz-adv-x="581" 
d="M574 676l-16 -76h-315l-45 -214h287l-16 -75h-288l-30 -148q-2 -8 -3 -16t-1 -15q0 -29 17 -43t55 -14h243l-16 -75h-256q-69 0 -101 33t-32 86q0 14 4.5 37.5t9.5 46.5l99 473h404z" />
    <glyph glyph-name="afii10024" unicode="&#x416;" horiz-adv-x="921" 
d="M428 0h-88l50 239l-59 87l-281 -326h-109l339 392l-198 284h97l233 -334l71 334h88l-69 -334l371 334h113l-332 -290l195 -386h-98l-166 327l-108 -96z" />
    <glyph glyph-name="afii10025" unicode="&#x417;" horiz-adv-x="537" 
d="M102 648q35 19 82.5 30.5t102.5 11.5q42 0 79.5 -9.5t66 -30t45 -52t16.5 -76.5q0 -36 -13.5 -64t-34.5 -48t-47 -33t-52 -19q21 -6 40.5 -17.5t34.5 -29t24 -41t9 -54.5q0 -57 -24 -100.5t-64.5 -72t-93 -43t-110.5 -14.5q-48 0 -94 11.5t-77 31.5l18 76
q28 -17 68 -29.5t89 -12.5q38 0 73 8.5t61.5 26.5t42.5 47.5t16 71.5q0 28 -11.5 48t-31 33t-47 18.5t-58.5 5.5h-63l16 74h57q33 0 66 7t58.5 21t41.5 35.5t16 50.5q0 55 -36.5 79t-95.5 24q-44 0 -84 -11.5t-69 -26.5z" />
    <glyph glyph-name="afii10026" unicode="&#x418;" horiz-adv-x="779" 
d="M740 676l-143 -676h-89l115 535l-503 -535h-84l143 676h88l-114 -535l503 535h84z" />
    <glyph glyph-name="afii10027" unicode="&#x419;" horiz-adv-x="779" 
d="M423 891q-1 -5 -1 -8.5v-7.5q0 -70 66 -70q40 0 62 22.5t29 63.5h59q-12 -66 -51 -104.5t-106 -38.5q-55 0 -86 31.5t-31 84.5q0 7 0.5 13.5t1.5 13.5h57zM740 676l-143 -676h-89l115 535l-503 -535h-84l143 676h88l-114 -535l503 535h84z" />
    <glyph glyph-name="afii10028" unicode="&#x41a;" horiz-adv-x="618" 
d="M125 0h-88l143 676h88l-68 -323l370 323h113l-332 -290l195 -386h-98l-166 327l-108 -96z" />
    <glyph glyph-name="afii10029" unicode="&#x41b;" horiz-adv-x="710" 
d="M179 160q-10 -45 -24.5 -78t-36.5 -54t-53 -31.5t-73 -10.5q-11 0 -27 2t-26 4l16 76q8 -3 19.5 -4t19.5 -1q46 0 68.5 26t34.5 83l106 504h463l-144 -676h-90l128 600h-287z" />
    <glyph glyph-name="afii10030" unicode="&#x41c;" horiz-adv-x="940" 
d="M269 676l170 -455l366 455h96l-143 -676h-88l114 531l-318 -399h-82l-148 399l-113 -531h-87l143 676h90z" />
    <glyph glyph-name="afii10031" unicode="&#x41d;" horiz-adv-x="783" 
d="M268 676l-61 -288h392l60 288h88l-143 -676h-88l66 311h-392l-66 -311h-88l144 676h88z" />
    <glyph glyph-name="afii10032" unicode="&#x41e;" horiz-adv-x="815" 
d="M52 277q0 87 29 162t83 131t131 88t172 32q67 0 121.5 -20.5t93 -58.5t59.5 -91.5t21 -119.5q0 -90 -30 -166t-84.5 -131t-131 -86t-169.5 -31q-67 0 -121.5 20.5t-93 58.5t-59.5 92t-21 120zM455 613q-71 0 -128 -25.5t-98 -70t-63 -105.5t-22 -132q0 -49 14 -89
t41.5 -68.5t67.5 -44t92 -15.5q70 0 127.5 25t98.5 70t63 106t22 133q0 49 -14 88.5t-41.5 68t-67.5 44t-92 15.5z" />
    <glyph glyph-name="afii10033" unicode="&#x41f;" horiz-adv-x="758" 
d="M576 0h-88l127 600h-364l-126 -600h-89l143 676h540z" />
    <glyph glyph-name="afii10034" unicode="&#x420;" horiz-adv-x="627" 
d="M391 676q101 0 156 -51t55 -134q0 -60 -23 -104.5t-63.5 -74.5t-95.5 -45t-119 -15h-124l-53 -252h-89l144 676h212zM193 327h121q40 0 76 9t63 28.5t43 49.5t16 72q0 58 -36 86t-104 28h-121z" />
    <glyph glyph-name="afii10035" unicode="&#x421;" horiz-adv-x="643" 
d="M52 275q0 93 30.5 169.5t85 131t130 84.5t165.5 30q56 0 101 -9t75 -25l-17 -78q-30 15 -70 25t-89 10q-68 0 -126 -22t-100.5 -65t-66.5 -105.5t-24 -143.5q0 -50 15.5 -89.5t44 -67t68 -42t88.5 -14.5q48 0 88 9t80 27l5 -77q-40 -19 -88 -28t-100 -9q-63 0 -117 20.5
t-93.5 58t-62 91t-22.5 119.5z" />
    <glyph glyph-name="afii10036" unicode="&#x422;" horiz-adv-x="584" 
d="M635 676l-15 -76h-229l-127 -600h-88l127 600h-229l16 76h545z" />
    <glyph glyph-name="afii10037" unicode="&#x423;" horiz-adv-x="588" 
d="M27 79q16 -7 37 -10.5t38 -3.5q34 0 60.5 15.5t49.5 51.5l45 70l-183 474h90l149 -394l242 394h101l-366 -576q-36 -57 -80 -85.5t-111 -28.5q-20 0 -45.5 4.5t-42.5 12.5z" />
    <glyph glyph-name="afii10038" unicode="&#x424;" horiz-adv-x="817" 
d="M531 710l-18 -78q57 -6 103.5 -25.5t79.5 -50t50.5 -72t17.5 -90.5q0 -67 -26 -126t-74.5 -103.5t-118 -72.5t-156.5 -34l-19 -92h-88l19 92q-58 6 -104.5 25t-79.5 49.5t-51 71.5t-18 91q0 68 26 127.5t74.5 104.5t118.5 73t158 33l17 77h89zM141 298q0 -69 45 -112
t131 -50l93 421q-61 -5 -110.5 -25.5t-85 -54t-54.5 -79t-19 -100.5zM671 391q0 69 -44 113t-130 52l-93 -423q60 5 109.5 25.5t84.5 54t54 79t19 99.5z" />
    <glyph glyph-name="afii10039" unicode="&#x425;" horiz-adv-x="614" 
d="M185 676l133 -261l242 261h109l-315 -335l177 -341h-99l-140 274l-249 -274h-110l322 348l-168 328h98z" />
    <glyph glyph-name="afii10040" unicode="&#x426;" horiz-adv-x="672" 
d="M179 676h88l-127 -601h278l127 601h88l-127 -601h48l-45 -215h-75l18 140h-416z" />
    <glyph glyph-name="afii10041" unicode="&#x427;" horiz-adv-x="677" 
d="M466 279q-31 -20 -75 -35.5t-92 -15.5q-93 0 -147 46t-54 138q0 17 1.5 34.5t5.5 35.5l41 194h88l-43 -204q-6 -30 -6 -51q0 -60 32.5 -86t92.5 -26q54 0 98.5 17.5t76.5 42.5l65 307h88l-143 -676h-88z" />
    <glyph glyph-name="afii10042" unicode="&#x428;" horiz-adv-x="975" 
d="M793 0h-756l143 676h88l-127 -601h246l127 601h88l-127 -601h246l127 601h88z" />
    <glyph glyph-name="afii10043" unicode="&#x429;" horiz-adv-x="975" 
d="M37 0l143 676h88l-127 -601h246l127 601h88l-127 -601h246l127 601h88l-127 -601h48l-45 -215h-75l18 140h-718z" />
    <glyph glyph-name="afii10044" unicode="&#x42a;" horiz-adv-x="664" 
d="M334 676l-55 -256h117q104 0 158.5 -45.5t54.5 -123.5q0 -54 -21.5 -100t-60.5 -79.5t-94 -52.5t-121 -19h-211l128 600h-155l16 76h244zM206 75h117q45 0 81 12.5t61.5 35t39.5 53t14 67.5q0 48 -33.5 75t-101.5 27h-121z" />
    <glyph glyph-name="afii10045" unicode="&#x42b;" horiz-adv-x="887" 
d="M705 0h-91l142 676h91zM268 676l-55 -256h117q104 0 158.5 -45.5t54.5 -123.5q0 -54 -21.5 -100t-60.5 -79.5t-94 -52.5t-121 -19h-211l144 676h89zM140 75h117q45 0 81 12.5t61.5 35t39.5 53t14 67.5q0 48 -33.5 75t-101.5 27h-121z" />
    <glyph glyph-name="afii10046" unicode="&#x42c;" horiz-adv-x="598" 
d="M268 676l-55 -256h117q104 0 158.5 -45.5t54.5 -123.5q0 -54 -21.5 -100t-60.5 -79.5t-94 -52.5t-121 -19h-211l144 676h89zM140 75h117q45 0 81 12.5t61.5 35t39.5 53t14 67.5q0 48 -33.5 75t-101.5 27h-121z" />
    <glyph glyph-name="afii10047" unicode="&#x42d;" horiz-adv-x="637" 
d="M123 310q4 20 7.5 39t8.5 39h351q0 103 -52 162.5t-158 59.5q-42 0 -82 -7.5t-79 -27.5l-8 80q37 18 84.5 26.5t97.5 8.5q63 0 116.5 -19t92 -55t60.5 -88.5t22 -119.5q0 -95 -30.5 -172.5t-84.5 -132.5t-128 -85.5t-162 -30.5q-60 0 -111 11t-87 30l17 81q40 -24 84 -34
t95 -10q118 0 198 62t105 183h-357v0z" />
    <glyph glyph-name="afii10048" unicode="&#x42e;" horiz-adv-x="1106" 
d="M343 277v17t1 17h-154l-66 -311h-88l144 676h88l-61 -288h149q16 66 51 121t86.5 95.5t118 63t146.5 22.5q67 0 121.5 -20.5t93 -58.5t59.5 -91.5t21 -119.5q0 -90 -30 -166t-84.5 -131t-131 -86t-169.5 -31q-67 0 -121.5 20.5t-93 58.5t-59.5 92t-21 120zM746 613
q-71 0 -128 -25.5t-98 -70t-63 -105.5t-22 -132q0 -49 14 -89t41.5 -68.5t67.5 -44t92 -15.5q70 0 127.5 25t98.5 70t63 106t22 133q0 49 -14 88.5t-41.5 68t-67.5 44t-92 15.5z" />
    <glyph glyph-name="afii10049" unicode="&#x42f;" horiz-adv-x="633" 
d="M595 676l-143 -676h-88l54 257h-122l-220 -257h-108l239 275q-27 7 -50 20.5t-40 33t-26.5 45.5t-9.5 59q0 58 23 103.5t63 76.5t93.5 47t114.5 16h220zM490 600h-125q-40 0 -75.5 -9.5t-61.5 -30t-41.5 -51t-15.5 -72.5q0 -27 11 -47t29 -32.5t41.5 -18.5t49.5 -6h132z
" />
    <glyph glyph-name="afii10065" unicode="&#x430;" horiz-adv-x="565" 
d="M413 112q-3 -12 -3 -21q0 -13 7 -21.5t24 -8.5q23 0 44 9l-1 -71q-11 -5 -30 -9t-38 -4q-39 0 -61 21t-22 58q0 5 0.5 11t1.5 12q-12 -20 -30.5 -38.5t-41.5 -32.5t-49.5 -22.5t-54.5 -8.5q-68 0 -102 43t-34 117q0 76 24.5 139t67 108.5t101 70.5t127.5 25q35 0 74 -7.5
t71 -21.5zM395 407q-31 10 -68 10q-47 0 -87 -19.5t-70 -54.5t-47 -82.5t-17 -104.5q0 -95 78 -95q33 0 62 15.5t52 41t39 59t24 70.5z" />
    <glyph glyph-name="afii10066" unicode="&#x431;" horiz-adv-x="536" 
d="M319 490q39 0 67.5 -14t47.5 -39t28.5 -58.5t9.5 -72.5q0 -72 -23 -131t-61.5 -101t-89 -65t-104.5 -23q-47 0 -78.5 16t-51 43t-27.5 63t-8 75q0 8 0.5 17t1.5 18q8 110 45 200.5t100.5 156.5t152.5 104.5t202 44.5l5 -71q-66 -5 -127 -21t-113 -46t-91.5 -76.5
t-61.5 -112.5q29 38 75 65.5t101 27.5zM296 417q-33 0 -65.5 -17t-59 -49t-42.5 -77t-16 -100q0 -57 25 -86.5t69 -29.5q33 0 65.5 16.5t58.5 48t42 76.5t16 101q0 57 -25 87t-68 30z" />
    <glyph glyph-name="afii10067" unicode="&#x432;" horiz-adv-x="525" 
d="M114 201q-1 -5 -1.5 -10.5t-0.5 -11.5q0 -25 5 -47.5t17.5 -39.5t34.5 -27t55 -10q53 0 87 26t34 68q0 29 -22 42t-51 13q-30 0 -58 -2.5t-58 -2.5h-21t-21 2zM355 244q32 -6 54 -30t22 -62q0 -37 -17 -67.5t-46 -52.5t-68 -34t-83 -12q-49 0 -84.5 13.5t-58.5 38
t-34 58.5t-11 76q0 72 23 130.5t63 100t93.5 64t114.5 22.5q63 0 103.5 -28.5t40.5 -83.5q0 -27 -9.5 -48.5t-25 -38t-35.5 -28t-42 -18.5zM126 265q9 -1 19.5 -1.5t21.5 -0.5q33 0 71 4t70.5 15.5t53.5 31t21 50.5q0 56 -74 56q-30 0 -59.5 -10.5t-54.5 -30.5t-43 -49
t-26 -65z" />
    <glyph glyph-name="afii10068" unicode="&#x433;" horiz-adv-x="430" 
d="M155 -14q-67 0 -109.5 30.5t-42.5 87.5q0 44 21.5 73.5t54 50.5t70.5 36t70.5 29.5t54 31.5t21.5 41q0 15 -7.5 25.5t-19.5 16.5t-28 8.5t-34 2.5q-36 0 -68 -8.5t-58 -20.5l-10 69q25 14 65.5 22t81.5 8q75 0 118.5 -29.5t43.5 -86.5q0 -41 -21.5 -68.5t-54 -47.5
t-70.5 -34.5t-70.5 -30t-54 -34t-21.5 -46.5q0 -29 21.5 -41t54.5 -12q41 0 78.5 12t67.5 32l17 -68q-34 -22 -76.5 -35.5t-94.5 -13.5z" />
    <glyph glyph-name="afii10069" unicode="&#x434;" horiz-adv-x="538" 
d="M483 423q0 -78 -15.5 -156t-50 -140.5t-90 -101.5t-136.5 -39q-41 0 -71.5 13.5t-51 37.5t-30.5 57.5t-10 73.5q0 69 22 128t59.5 102t86.5 67t103 24q47 0 75.5 -20t39.5 -49q-1 22 -2.5 45t-7.5 46t-16.5 44t-29.5 38q-29 27 -83.5 41t-122.5 17l12 72q164 -9 240 -76
q43 -38 61 -93.5t18 -130.5zM294 417q-34 0 -67 -16.5t-59 -48t-42 -76.5t-16 -101q0 -58 25 -87t70 -29q33 0 65.5 16.5t58.5 47.5t42 76t16 101q0 58 -25 87.5t-68 29.5z" />
    <glyph glyph-name="afii10070" unicode="&#x435;" horiz-adv-x="500" 
d="M119 260q10 -1 21 -1.5t24 -0.5q33 0 70.5 4.5t69.5 16t53.5 31.5t21.5 51q0 26 -19 41t-57 15q-62 0 -113 -40.5t-71 -116.5zM379 34q-33 -20 -76.5 -34t-100.5 -14q-86 0 -131 48t-45 129q0 72 23 132t62 103t90 67t107 24q76 0 113 -33.5t37 -85.5t-26.5 -86t-68 -54
t-92.5 -28t-100 -8q-34 0 -62 3q-1 -7 -1 -13v-11q0 -62 30 -88t80 -26q80 0 148 43z" />
    <glyph glyph-name="afii10072" unicode="&#x436;" horiz-adv-x="707" 
d="M422 475l-51 -239l269 239h103l-241 -204l141 -271h-89l-114 220l-88 -76l-31 -144h-81l31 146l-54 73l-202 -219h-100l256 275l-144 200h86l176 -243l52 243h81z" />
    <glyph glyph-name="afii10073" unicode="&#x437;" horiz-adv-x="465" 
d="M5 101q29 -17 69.5 -29.5t82.5 -12.5q27 0 50.5 4.5t41 14.5t27.5 26t10 38q0 32 -28.5 50.5t-88.5 18.5h-70l15 64h63q23 0 47.5 3.5t45 12.5t33.5 24.5t13 38.5q0 35 -30 49.5t-78 14.5q-38 0 -75 -10t-66 -27l-11 70q29 17 71.5 27.5t92.5 10.5q84 0 132.5 -33
t48.5 -93q0 -28 -10.5 -48.5t-27 -35t-38.5 -23.5t-44 -15q42 -8 67 -34.5t25 -65.5q0 -42 -19.5 -71.5t-50.5 -48t-70 -27t-79 -8.5q-22 0 -45.5 3t-45 9t-40.5 14t-32 17l14 72v0z" />
    <glyph glyph-name="afii10074" unicode="&#x438;" horiz-adv-x="575" 
d="M345 88q-13 -20 -31 -38.5t-41 -32.5t-50.5 -22.5t-57.5 -8.5q-58 0 -93.5 35t-35.5 100q0 13 2 27t5 29l63 298h81l-64 -301q-5 -25 -5 -42q0 -33 14.5 -53t51.5 -20q34 0 64.5 16t55 41.5t42 58.5t24.5 68l49 232h80l-76 -363q-3 -12 -3 -21q0 -13 7 -21.5t24 -8.5
q23 0 44 9l-1 -71q-11 -5 -30 -9t-38 -4q-39 0 -61 21t-22 58q0 5 0.5 11t1.5 12z" />
    <glyph glyph-name="afii10075" unicode="&#x439;" horiz-adv-x="575" 
d="M345 88q-13 -20 -31 -38.5t-41 -32.5t-50.5 -22.5t-57.5 -8.5q-58 0 -93.5 35t-35.5 100q0 13 2 27t5 29l63 298h81l-64 -301q-5 -25 -5 -42q0 -33 14.5 -53t51.5 -20q34 0 64.5 16t55 41.5t42 58.5t24.5 68l49 232h80l-76 -363q-3 -12 -3 -21q0 -13 7 -21.5t24 -8.5
q23 0 44 9l-1 -71q-11 -5 -30 -9t-38 -4q-39 0 -61 21t-22 58q0 5 0.5 11t1.5 12zM273 705q-1 -5 -1 -8.5v-7.5q0 -70 66 -70q40 0 62 22.5t29 63.5h59q-12 -66 -51 -104.5t-106 -38.5q-55 0 -86 31.5t-31 84.5q0 7 0.5 13.5t1.5 13.5h57z" />
    <glyph glyph-name="afii10076" unicode="&#x43a;" horiz-adv-x="481" 
d="M196 475l-51 -239l269 239h103l-241 -204l141 -271h-89l-114 219l-88 -75l-31 -144h-81l101 475h81z" />
    <glyph glyph-name="afii10077" unicode="&#x43b;" horiz-adv-x="544" 
d="M488 475l-101 -475h-81l86 408h-189l-62 -294q-7 -31 -17 -54.5t-25.5 -40t-38 -25t-54.5 -8.5q-19 0 -33 3.5t-29 10.5l16 72q10 -5 19.5 -7.5t26.5 -2.5q21 0 35 11.5t20 40.5l75 361h352z" />
    <glyph glyph-name="afii10078" unicode="&#x43c;" horiz-adv-x="721" 
d="M194 475l126 -317l260 317h85l-101 -475h-80l71 336l-215 -259h-64l-109 273l-74 -350h-81l101 475h81z" />
    <glyph glyph-name="afii10079" unicode="&#x43d;" horiz-adv-x="566" 
d="M373 217h-234l-46 -217h-81l101 475h81l-40 -191h233l41 191h81l-101 -475h-81z" />
    <glyph glyph-name="afii10080" unicode="&#x43e;" horiz-adv-x="534" 
d="M306 489q42 0 72.5 -13.5t51 -38t30.5 -58t10 -73.5q0 -71 -23 -130t-62 -101t-89.5 -65.5t-104.5 -23.5q-41 0 -72 13.5t-51 37.5t-30 57.5t-10 73.5q0 72 23 131t61.5 101t89 65.5t104.5 23.5zM294 417q-34 0 -67 -16.5t-59 -48t-42 -76.5t-16 -101q0 -58 25 -87
t70 -29q33 0 65.5 16.5t58.5 47.5t42 76t16 101q0 58 -25 87.5t-68 29.5z" />
    <glyph glyph-name="afii10081" unicode="&#x43f;" horiz-adv-x="564" 
d="M173 388q13 19 32 37.5t42.5 32.5t51 22.5t58.5 8.5q60 0 93 -36t33 -99q0 -25 -6 -55l-64 -299h-81l63 299q2 12 3.5 22.5t1.5 20.5q0 35 -17 54t-55 19q-35 0 -65.5 -15.5t-55 -41.5t-41.5 -59t-24 -67l-49 -232h-81l101 475h77l-17 -87v0z" />
    <glyph glyph-name="afii10082" unicode="&#x440;" horiz-adv-x="543" 
d="M113 475h77l-15 -80q27 37 70.5 65.5t95.5 28.5q66 0 102 -43t36 -118q0 -76 -24 -139t-66.5 -108t-100 -70t-124.5 -25q-17 0 -35.5 2.5t-36.5 7.5l-40 -186h-79zM107 69q31 -10 64 -10q48 0 89 21t71.5 56t47.5 82t17 100q0 97 -78 97q-34 0 -63 -16t-52 -42t-39 -59.5
t-23 -69.5z" />
    <glyph glyph-name="afii10083" unicode="&#x441;" horiz-adv-x="464" 
d="M413 394q-15 9 -38 16t-52 7q-47 0 -87 -20t-69 -54t-45.5 -80t-16.5 -98q0 -58 27.5 -82t70.5 -24q38 0 74 12t67 30l12 -68q-32 -20 -73.5 -33.5t-94.5 -13.5q-34 0 -64 9.5t-52.5 30t-35.5 53t-13 78.5q0 73 25 134t67 105t97 68.5t116 24.5q38 0 61 -6.5t40 -14.5z
" />
    <glyph glyph-name="afii10084" unicode="&#x442;" horiz-adv-x="861" 
d="M190 475l-17 -88q13 20 30.5 38.5t40 32.5t49 22.5t56.5 8.5q53 0 83 -28t36 -79q13 19 32.5 38.5t43.5 34.5t52.5 24.5t59.5 9.5q59 0 91.5 -35t32.5 -98q0 -14 -2 -28t-5 -30l-64 -298h-81l63 298q5 25 5 42q0 33 -15.5 53.5t-50.5 20.5t-64.5 -15.5t-53.5 -42
t-40.5 -60t-23.5 -69.5l-47 -227h-81l64 298q2 11 3 21.5t1 19.5q0 34 -15 54.5t-50 20.5t-65 -16.5t-53.5 -42.5t-40 -60t-23.5 -68l-48 -227h-81l101 475h77z" />
    <glyph glyph-name="afii10085" unicode="&#x443;" horiz-adv-x="465" 
d="M209 13q-24 -40 -48.5 -76.5t-55 -65.5t-70.5 -47.5t-94 -21.5v68q37 2 65.5 15.5t50 34.5t38.5 47t32 53l-99 455h81l76 -368l207 368h92z" />
    <glyph glyph-name="afii10086" unicode="&#x444;" horiz-adv-x="685" 
d="M317 419q-99 -14 -156.5 -69t-57.5 -150q0 -61 34 -101t102 -46zM318 55q51 6 92 22.5t70 44t45 66t16 86.5q0 61 -36.5 100.5t-109.5 46.5zM449 676l-41 -189q101 -11 156.5 -63t55.5 -146q0 -66 -25 -118.5t-68 -89.5t-101 -58t-123 -24l-39 -178h-78l40 180
q-98 9 -150 62.5t-52 143.5q0 65 24.5 117t66.5 89.5t98 59t119 25.5l40 189h77z" />
    <glyph glyph-name="afii10087" unicode="&#x445;" horiz-adv-x="452" 
d="M252 242l127 -242h-89l-94 182l-162 -182h-97l224 241l-120 234h88l89 -175l161 175h97z" />
    <glyph glyph-name="afii10088" unicode="&#x446;" horiz-adv-x="575" 
d="M407 -14q-29 5 -46.5 26t-17.5 53q0 5 0.5 11t1.5 12q-13 -20 -31 -38.5t-41 -32.5t-50.5 -22.5t-57.5 -8.5q-58 0 -93.5 35t-35.5 100q0 13 2 27t5 29l63 298h81l-64 -303q-5 -25 -5 -42q0 -33 14.5 -52t51.5 -19q34 0 64.5 16t55 41.5t42 58.5t24.5 68l49 232h80
l-76 -363q-3 -12 -3 -21q0 -18 12.5 -25t28.5 -7q19 0 34 5l-39 -198h-65z" />
    <glyph glyph-name="afii10089" unicode="&#x447;" horiz-adv-x="525" 
d="M286 0l43 206q-10 -12 -27 -24.5t-37.5 -22.5t-44 -16.5t-47.5 -6.5q-64 0 -99.5 32.5t-35.5 105.5q0 15 2 30t5 31l31 140h78l-32 -151q-2 -12 -4 -22t-2 -18q0 -42 19 -58.5t58 -16.5q23 0 50 10.5t51 28.5t42 41.5t23 49.5l28 136h82l-101 -475h-82z" />
    <glyph glyph-name="afii10090" unicode="&#x448;" horiz-adv-x="855" 
d="M188 475l-65 -302q-2 -12 -3.5 -24t-1.5 -23q0 -29 14.5 -48t54.5 -19q34 0 61 15.5t48 41t35 58.5t22 68l49 233h82l-65 -302q-2 -12 -3.5 -24t-1.5 -23q0 -29 14.5 -48t54.5 -19q34 0 61 15.5t48 41t35 58.5t22 68l49 233h81l-77 -363q-3 -12 -3 -21q0 -13 7 -21.5
t24 -8.5q23 0 44 9l-1 -71q-11 -5 -30 -9t-38 -4q-39 0 -61 21t-22 58q0 5 0.5 10.5t1.5 11.5q-13 -20 -28.5 -38.5t-35.5 -32.5t-44.5 -22t-54.5 -8q-51 0 -82 25.5t-40 74.5q-13 -20 -29.5 -38t-38 -31.5t-48 -22t-58.5 -8.5q-33 0 -57.5 10.5t-40.5 28.5t-23.5 42
t-7.5 52q0 14 2 28t5 29l63 299h82z" />
    <glyph glyph-name="afii10091" unicode="&#x449;" horiz-adv-x="855" 
d="M686 -14q-29 5 -46.5 26t-17.5 53q0 5 0.5 10.5t1.5 11.5q-13 -20 -28.5 -38.5t-35.5 -32.5t-44.5 -22t-54.5 -8q-51 0 -82 25.5t-40 74.5q-13 -20 -29.5 -38t-38 -31.5t-48 -22t-58.5 -8.5q-67 0 -97.5 37t-30.5 96q0 27 6 57l63 299h82l-64 -302l-4 -24t-2 -23
q0 -29 14.5 -48t54.5 -19q34 0 61 15.5t48 41t35 58.5t22 68l49 233h82l-64 -302l-4 -24t-2 -23q0 -29 14.5 -48t54.5 -19q34 0 61 15.5t48 41t35 58.5t22 68l49 233h81l-77 -363q-3 -12 -3 -21q0 -18 12.5 -25t28.5 -7q19 0 34 5l-39 -198h-65z" />
    <glyph glyph-name="afii10092" unicode="&#x44a;" horiz-adv-x="533" 
d="M211 475l-43 -193q29 29 68 46.5t85 17.5q69 0 109 -37.5t40 -108.5q0 -46 -19 -85.5t-51.5 -68t-74 -44.5t-86.5 -16q-85 0 -127.5 45.5t-42.5 118.5q0 11 1 31.5t9 56.5l35 169h-108l15 68h190zM387 190q0 38 -21.5 61t-71.5 23q-26 0 -52 -8t-47 -24.5t-34.5 -41.5
t-13.5 -58q0 -35 22 -59t76 -24q27 0 53 9.5t45.5 26.5t31.5 41.5t12 53.5z" />
    <glyph glyph-name="afii10093" unicode="&#x44b;" horiz-adv-x="752" 
d="M588 0h-81l101 475h81zM358 190q0 38 -21.5 61t-71.5 23q-26 0 -52 -8t-47 -24.5t-34.5 -41.5t-13.5 -58q0 -35 22 -59t76 -24q27 0 53 9.5t45.5 26.5t31.5 41.5t12 53.5zM182 475l-43 -193q29 29 68 46.5t85 17.5q69 0 109 -37.5t40 -108.5q0 -46 -19 -85.5t-51.5 -68
t-74 -44.5t-86.5 -16q-85 0 -127.5 45.5t-42.5 118.5q0 11 1 31.5t9 56.5l50 237h82z" />
    <glyph glyph-name="afii10094" unicode="&#x44c;" horiz-adv-x="504" 
d="M358 190q0 38 -21.5 61t-71.5 23q-26 0 -52 -8t-47 -24.5t-34.5 -41.5t-13.5 -58q0 -35 22 -59t76 -24q27 0 53 9.5t45.5 26.5t31.5 41.5t12 53.5zM182 475l-43 -193q29 29 68 46.5t85 17.5q69 0 109 -37.5t40 -108.5q0 -46 -19 -85.5t-51.5 -68t-74 -44.5t-86.5 -16
q-85 0 -127.5 45.5t-42.5 118.5q0 11 1 31.5t9 56.5l50 237h82z" />
    <glyph glyph-name="afii10095" unicode="&#x44d;" horiz-adv-x="461" 
d="M320 271q1 8 2 19t1 20q0 58 -27.5 82t-70.5 24q-38 0 -74 -12t-67 -30l-12 68q32 20 73.5 33.5t94.5 13.5q34 0 64 -9.5t52.5 -30t35.5 -53t13 -78.5q0 -74 -22.5 -134.5t-62 -104.5t-94.5 -68t-120 -24q-35 0 -65.5 6t-51.5 14l15 73q20 -10 45.5 -15.5t58.5 -5.5
q68 0 121.5 37.5t75.5 114.5h-229l13 60h231z" />
    <glyph glyph-name="afii10096" unicode="&#x44e;" horiz-adv-x="754" 
d="M526 489q42 0 72.5 -13.5t51 -38t30.5 -58t10 -73.5q0 -71 -23 -130t-62 -101t-89.5 -65.5t-104.5 -23.5q-41 0 -72 13.5t-51 37.5t-30 57.5t-10 73.5q0 24 3 48h-112l-46 -216h-81l102 475h81l-41 -190h112q15 47 42 84.5t61 64t74.5 41t82.5 14.5zM514 417
q-34 0 -67 -16.5t-59 -48t-42 -76.5t-16 -101q0 -58 25 -87t70 -29q33 0 65.5 16.5t58.5 47.5t42 76t16 101q0 58 -25 87.5t-68 29.5z" />
    <glyph glyph-name="afii10097" unicode="&#x44f;" horiz-adv-x="525" 
d="M368 0h-83l39 186h-43q-41 0 -77.5 -18t-66.5 -59l-80 -109h-99l94 126q25 33 52.5 52.5t63.5 28.5q-23 2 -44.5 9.5t-38 21t-27 34t-10.5 48.5q0 34 14.5 62.5t42 49t66 32t86.5 11.5h211zM256 408q-56 0 -91 -23.5t-35 -65.5q0 -21 10 -34.5t26.5 -21.5t37.5 -11t43 -3
h90l35 159h-116z" />
    <glyph glyph-name="uni0450" unicode="&#x450;" horiz-adv-x="499" 
d="M118 260q10 -1 21 -1.5t24 -0.5q33 0 70.5 4.5t69.5 16t53.5 31.5t21.5 51q0 26 -19 41t-57 15q-62 0 -113 -40.5t-71 -116.5zM378 34q-33 -20 -76.5 -34t-100.5 -14q-86 0 -131 48t-45 129q0 72 23 132t62 103t90 67t107 24q76 0 113 -33.5t37 -85.5t-26.5 -86t-68 -54
t-92.5 -28t-100 -8q-34 0 -62 3q-1 -7 -1 -13v-11q0 -62 30 -88t80 -26q80 0 148 43zM360 559h-63l-99 151h81z" />
    <glyph glyph-name="afii10071" unicode="&#x451;" horiz-adv-x="500" 
d="M119 260q10 -1 21 -1.5t24 -0.5q33 0 70.5 4.5t69.5 16t53.5 31.5t21.5 51q0 26 -19 41t-57 15q-62 0 -113 -40.5t-71 -116.5zM379 34q-33 -20 -76.5 -34t-100.5 -14q-86 0 -131 48t-45 129q0 72 23 132t62 103t90 67t107 24q76 0 113 -33.5t37 -85.5t-26.5 -86t-68 -54
t-92.5 -28t-100 -8q-34 0 -62 3q-1 -7 -1 -13v-11q0 -62 30 -88t80 -26q80 0 148 43zM282 588h-75l21 96h75zM457 588h-75l20 96h75z" />
    <glyph glyph-name="afii10099" unicode="&#x452;" horiz-adv-x="551" 
d="M245 710l-17 -79h188l-11 -52h-188l-39 -186q13 19 31 36t40.5 30.5t48 21.5t52.5 8q35 0 60.5 -14t42 -38t24 -57t7.5 -71q0 -73 -20.5 -143.5t-59 -128.5t-94.5 -97.5t-127 -50.5l-10 65q58 11 101 45.5t71 83.5t41.5 106.5t13.5 115.5q0 47 -19 77.5t-58 30.5
q-31 0 -60 -16t-53.5 -41.5t-42 -58t-24.5 -66.5l-48 -231h-82l123 579h-85l11 52h85l17 79h81z" />
    <glyph glyph-name="afii10100" unicode="&#x453;" horiz-adv-x="430" 
d="M350 710h90l-137 -151h-66zM155 -14q-67 0 -109.5 30.5t-42.5 87.5q0 44 21.5 73.5t54 50.5t70.5 36t70.5 29.5t54 31.5t21.5 41q0 15 -7.5 25.5t-19.5 16.5t-28 8.5t-34 2.5q-36 0 -68 -8.5t-58 -20.5l-10 69q25 14 65.5 22t81.5 8q75 0 118.5 -29.5t43.5 -86.5
q0 -41 -21.5 -68.5t-54 -47.5t-70.5 -34.5t-70.5 -30t-54 -34t-21.5 -46.5q0 -29 21.5 -41t54.5 -12q41 0 78.5 12t67.5 32l17 -68q-34 -22 -76.5 -35.5t-94.5 -13.5z" />
    <glyph glyph-name="afii10101" unicode="&#x454;" horiz-adv-x="464" 
d="M413 394q-15 9 -38 16t-52 7q-67 0 -118.5 -39t-77.5 -101h209l-14 -65h-214q-3 -24 -3 -47q0 -58 27.5 -82t70.5 -24q38 0 74 12t67 30l12 -68q-32 -20 -73.5 -33.5t-94.5 -13.5q-34 0 -64 9.5t-52.5 30t-35.5 53t-13 78.5q0 73 25 134t67 105t97 68.5t116 24.5
q38 0 61 -6.5t40 -14.5z" />
    <glyph glyph-name="afii10102" unicode="&#x455;" horiz-adv-x="427" 
d="M363 391q-23 12 -54.5 19t-66.5 7q-21 0 -39.5 -3.5t-33 -11.5t-23 -21t-8.5 -32q0 -20 14.5 -33t36 -24.5t47 -23t47 -28.5t36 -41t14.5 -60q0 -41 -16 -69.5t-42.5 -47.5t-60.5 -27.5t-70 -8.5q-43 0 -84 11.5t-69 31.5l14 70q28 -20 68 -31t77 -11q41 0 70 15.5
t29 53.5q0 25 -14.5 41t-36 29t-46.5 24.5t-46.5 27t-36 37t-14.5 54.5q0 38 16 66.5t43 47t62 27.5t74 9q36 0 69.5 -7t58.5 -19z" />
    <glyph glyph-name="afii10103" unicode="&#x456;" horiz-adv-x="251" 
d="M194 475l-101 -475h-81l101 475h81zM238 682l-21 -99h-81l21 99h81z" />
    <glyph glyph-name="afii10104" unicode="&#x457;" horiz-adv-x="251" 
d="M130 588h-75l21 96h75zM305 588h-75l20 96h75zM94 0h-81l101 475h81z" />
    <glyph glyph-name="afii10105" unicode="&#x458;" horiz-adv-x="250" 
d="M76 -76q-14 -62 -42.5 -95t-86.5 -33q-19 0 -39 4t-35 11l16 72q10 -5 24 -8t31 -3q21 0 33.5 11.5t18.5 40.5l117 551h81zM238 682l-21 -99h-81l21 99h81z" />
    <glyph glyph-name="afii10106" unicode="&#x459;" horiz-adv-x="787" 
d="M641 190q0 38 -21.5 61t-71.5 23q-26 0 -52 -8t-47 -24.5t-34.5 -41.5t-13.5 -58q0 -35 22 -59t76 -24q27 0 53 9.5t45.5 26.5t31.5 41.5t12 53.5zM465 475l-43 -193q29 29 68 46.5t85 17.5q69 0 109 -37.5t40 -108.5q0 -46 -19 -85.5t-51.5 -68t-74 -44.5t-86.5 -16
q-85 0 -127.5 45.5t-42.5 118.5q0 11 1 31.5t9 56.5l36 170h-166l-62 -294q-7 -31 -17 -54.5t-25.5 -40t-38 -25t-54.5 -8.5q-19 0 -33 3.5t-29 10.5l16 72q10 -5 19.5 -7.5t26.5 -2.5q21 0 35 11.5t20 40.5l75 361h329z" />
    <glyph glyph-name="afii10107" unicode="&#x45a;" horiz-adv-x="795" 
d="M473 475l-43 -193q29 29 68 46.5t85 17.5q69 0 109 -37.5t40 -108.5q0 -46 -19 -85.5t-51.5 -68t-74 -44.5t-86.5 -16q-85 0 -127.5 45.5t-42.5 118.5q0 9 0.5 24t4.5 41h-197l-46 -215h-81l101 475h81l-40 -191h196l41 191h82zM649 190q0 38 -21.5 61t-71.5 23
q-26 0 -52 -8t-47 -24.5t-34.5 -41.5t-13.5 -58q0 -35 22 -59t76 -24q27 0 53 9.5t45.5 26.5t31.5 41.5t12 53.5z" />
    <glyph glyph-name="afii10108" unicode="&#x45b;" horiz-adv-x="565" 
d="M226 630h183l-12 -51h-182l-41 -191q13 19 32 37.5t42.5 32.5t51 22.5t58.5 8.5q60 0 93 -36t33 -99q0 -25 -6 -55l-64 -299h-81l63 299q2 12 3.5 22.5t1.5 20.5q0 35 -17 54t-55 19q-35 0 -65.5 -15.5t-55 -41.5t-41.5 -59t-24 -67l-49 -232h-81l122 579h-84l11 51h84
l17 80h81z" />
    <glyph glyph-name="afii10109" unicode="&#x45c;" horiz-adv-x="481" 
d="M379 710h90l-137 -151h-66zM196 475l-51 -239l269 239h103l-241 -204l141 -271h-89l-114 219l-88 -75l-31 -144h-81l101 475h81z" />
    <glyph glyph-name="uni045D" unicode="&#x45d;" horiz-adv-x="575" 
d="M345 88q-13 -20 -31 -38.5t-41 -32.5t-50.5 -22.5t-57.5 -8.5q-58 0 -93.5 35t-35.5 100q0 13 2 27t5 29l63 298h81l-64 -301q-5 -25 -5 -42q0 -33 14.5 -53t51.5 -20q34 0 64.5 16t55 41.5t42 58.5t24.5 68l49 232h80l-76 -363q-3 -12 -3 -21q0 -13 7 -21.5t24 -8.5
q23 0 44 9l-1 -71q-11 -5 -30 -9t-38 -4q-39 0 -61 21t-22 58q0 5 0.5 11t1.5 12zM358 559h-63l-99 151h81z" />
    <glyph glyph-name="afii10110" unicode="&#x45e;" horiz-adv-x="465" 
d="M191 705q-1 -5 -1 -8.5v-7.5q0 -70 66 -70q40 0 62 22.5t29 63.5h59q-12 -66 -51 -104.5t-106 -38.5q-55 0 -86 31.5t-31 84.5q0 7 0.5 13.5t1.5 13.5h57zM209 13q-24 -40 -48.5 -76.5t-55 -65.5t-70.5 -47.5t-94 -21.5v68q37 2 65.5 15.5t50 34.5t38.5 47t32 53l-99 455
h81l76 -368l207 368h92z" />
    <glyph glyph-name="afii10193" unicode="&#x45f;" horiz-adv-x="575" 
d="M267 -36l-37 -139h-69l28 139h78zM345 88q-13 -20 -31 -38.5t-41 -32.5t-50.5 -22.5t-57.5 -8.5q-58 0 -93.5 35t-35.5 100q0 13 2 27t5 29l63 298h81l-64 -301q-5 -25 -5 -42q0 -33 14.5 -53t51.5 -20q34 0 64.5 16t55 41.5t42 58.5t24.5 68l49 232h80l-76 -363
q-3 -12 -3 -21q0 -13 7 -21.5t24 -8.5q23 0 44 9l-1 -71q-11 -5 -30 -9t-38 -4q-39 0 -61 21t-22 58q0 5 0.5 11t1.5 12z" />
    <glyph glyph-name="afii10146" unicode="&#x462;" horiz-adv-x="609" 
d="M180 630l17 79h89l-17 -79h224l-16 -73h-224l-29 -137h117q104 0 158.5 -45.5t54.5 -123.5q0 -54 -21.5 -100t-60.5 -79.5t-94 -52.5t-121 -19h-211l118 557h-120l16 73h120zM151 75h117q45 0 81 12.5t61.5 35t39.5 53t14 67.5q0 48 -33.5 75t-101.5 27h-121z" />
    <glyph glyph-name="afii10194" unicode="&#x463;" horiz-adv-x="541" 
d="M395 190q0 38 -21.5 61t-71.5 23q-26 0 -52 -8t-47 -24.5t-34.5 -41.5t-13.5 -58q0 -35 22 -59t76 -24q27 0 53 9.5t45.5 26.5t31.5 41.5t12 53.5zM137 475l32 151h81l-33 -151h169l-13 -67h-169l-28 -126q29 29 68 46.5t85 17.5q69 0 109 -37.5t40 -108.5
q0 -46 -19 -85.5t-51.5 -68t-74 -44.5t-86.5 -16q-85 0 -127.5 45.5t-42.5 118.5q0 11 1 31.5t9 56.5l36 170h-123l13 67h124z" />
    <glyph glyph-name="afii10147" unicode="&#x472;" horiz-adv-x="815" 
d="M52 277q0 87 29 162t83 131t131 88t172 32q67 0 121.5 -20.5t93 -58.5t59.5 -91.5t21 -119.5q0 -90 -30 -166t-84.5 -131t-131 -86t-169.5 -31q-67 0 -121.5 20.5t-93 58.5t-59.5 92t-21 120zM359 63q59 0 109 18t89 51t65.5 78.5t38.5 100.5h-516q-1 -8 -1 -15.5v-15.5
q0 -49 14 -89t41.5 -68.5t67.5 -44t92 -15.5zM455 613q-56 0 -104 -16.5t-86.5 -46t-65.5 -71t-41 -91.5h512v9q0 49 -14 88.5t-41.5 68t-67.5 44t-92 15.5z" />
    <glyph glyph-name="afii10195" unicode="&#x473;" horiz-adv-x="534" 
d="M306 489q42 0 72.5 -13.5t51 -38t30.5 -58t10 -73.5q0 -71 -23 -130t-62 -101t-89.5 -65.5t-104.5 -23.5q-41 0 -72 13.5t-51 37.5t-30 57.5t-10 73.5q0 72 23 131t61.5 101t89 65.5t104.5 23.5zM205 59q26 0 52.5 10.5t49.5 31t41 49.5t28 67h-264q-1 -11 -1.5 -21
t-0.5 -21q0 -58 25 -87t70 -29zM294 417q-25 0 -50 -9.5t-47 -27t-40 -43t-30 -58.5h259q1 5 1 10.5v10.5q0 58 -25 87.5t-68 29.5z" />
    <glyph glyph-name="afii10148" unicode="&#x474;" horiz-adv-x="664" 
d="M158 676l102 -566l291 482q13 22 28 40t32.5 31t39 20t49.5 7q18 0 33 -3l-17 -75q-5 2 -9.5 2h-9.5q-29 0 -45 -15.5t-32 -41.5l-343 -557h-84l-125 676h90z" />
    <glyph glyph-name="afii10196" unicode="&#x475;" horiz-adv-x="532" 
d="M113 475l68 -380l179 297q13 22 27 40t31 30.5t37.5 19.5t46.5 7q16 0 37 -3l-15 -70q-7 2 -11.5 2h-9.5q-29 0 -45 -16.5t-31 -41.5l-228 -360h-80l-88 475h82z" />
    <glyph glyph-name="afii10050" unicode="&#x490;" horiz-adv-x="492" 
d="M124 0h-88l143 676h268l36 140h78l-47 -216h-263z" />
    <glyph glyph-name="afii10098" unicode="&#x491;" horiz-adv-x="417" 
d="M94 0h-81l100 475h225l37 140h70l-43 -207h-222z" />
    <glyph glyph-name="Wgrave" unicode="&#x1e80;" horiz-adv-x="989" 
d="M608 676l67 -563l281 563h92l-337 -676h-105l-67 563l-304 -563h-106l-53 676h89l44 -563l302 563h97zM606 744h-63l-99 151h81z" />
    <glyph glyph-name="wgrave" unicode="&#x1e81;" horiz-adv-x="779" 
d="M119 475l39 -377l213 377h81l56 -377l201 377h85l-258 -475h-83l-57 381l-219 -381h-84l-56 475h82zM462 559h-63l-99 151h81z" />
    <glyph glyph-name="Wacute" unicode="&#x1e82;" horiz-adv-x="989" 
d="M608 676l67 -563l281 563h92l-337 -676h-105l-67 563l-304 -563h-106l-53 676h89l44 -563l302 563h97zM656 895h90l-137 -151h-66z" />
    <glyph glyph-name="wacute" unicode="&#x1e83;" horiz-adv-x="779" 
d="M119 475l39 -377l213 377h81l56 -377l201 377h85l-258 -475h-83l-57 381l-219 -381h-84l-56 475h82zM510 710h90l-137 -151h-66z" />
    <glyph glyph-name="Wdieresis" unicode="&#x1e84;" horiz-adv-x="989" 
d="M608 676l67 -563l281 563h92l-337 -676h-105l-67 563l-304 -563h-106l-53 676h89l44 -563l302 563h97zM530 770h-75l21 96h75zM705 770h-75l20 96h75z" />
    <glyph glyph-name="wdieresis" unicode="&#x1e85;" horiz-adv-x="779" 
d="M119 475l39 -377l213 377h81l56 -377l201 377h85l-258 -475h-83l-57 381l-219 -381h-84l-56 475h82zM387 588h-75l21 96h75zM562 588h-75l20 96h75z" />
    <glyph glyph-name="Ygrave" unicode="&#x1ef2;" horiz-adv-x="585" 
d="M159 676l129 -324l265 324h96l-335 -405l-57 -271h-88l57 271l-162 405h95zM420 744h-63l-99 151h81z" />
    <glyph glyph-name="ygrave" unicode="&#x1ef3;" horiz-adv-x="555" 
d="M499 475l-97 -462q-23 -107 -93 -162t-170 -55q-51 0 -87.5 12.5t-59.5 26.5l17 73q23 -14 60 -26.5t81 -12.5q66 0 109.5 34t60.5 107l15 65q-27 -36 -70.5 -62.5t-99.5 -26.5q-58 0 -93.5 35t-35.5 100q0 13 2 27t5 29l63 298h81l-64 -301q-5 -25 -5 -42
q0 -33 14.5 -53t51.5 -20q34 0 64.5 16t55 41.5t42 58.5t24.5 68l49 232h80zM343 559h-63l-99 151h81z" />
    <glyph glyph-name="endash" unicode="&#x2013;" horiz-adv-x="590" 
d="M504 255h-441l14 68h441z" />
    <glyph glyph-name="emdash" unicode="&#x2014;" horiz-adv-x="1023" 
d="M936 255h-873l14 68h874z" />
    <glyph glyph-name="afii00208" unicode="&#x2015;" horiz-adv-x="590" 
d="M504 255h-441l14 68h441z" />
    <glyph glyph-name="quoteleft" unicode="&#x2018;" horiz-adv-x="256" 
d="M98 425q-3 15 -3 32q0 36 10.5 71t31 66t49.5 55.5t66 40.5l27 -48q-52 -29 -80 -76.5t-28 -105.5q0 -19 4 -35h-77v0z" />
    <glyph glyph-name="quoteright" unicode="&#x2019;" horiz-adv-x="256" 
d="M239 676q1 -5 1 -9.5v-9.5q0 -37 -9.5 -73t-28.5 -68.5t-48 -59.5t-68 -46l-30 48q57 33 81.5 83.5t24.5 114.5v20h77z" />
    <glyph glyph-name="quotesinglbase" unicode="&#x201a;" horiz-adv-x="256" 
d="M125 112q1 -5 1 -9.5v-9.5q0 -37 -9.5 -73t-28.5 -68.5t-48 -59.5t-68 -46l-30 48q57 33 81.5 83.5t24.5 114.5v20h77z" />
    <glyph glyph-name="quotedblleft" unicode="&#x201c;" horiz-adv-x="426" 
d="M268.015 424.041q-1 5 -1 9.5v9.49902q0 36.998 9.49902 72.9951q9.5 35.998 28.499 68.4961q18.998 32.498 47.9971 59.4961q28.998 26.999 67.9951 45.998l29.999 -47.9971q-56.9971 -32.998 -81.4951 -83.4951q-24.499 -50.4971 -24.499 -114.493v-19.999h-76.9951z
M97.0146 424.041q-1 5 -1 9.5v9.49902q0 36.998 9.49902 72.9951q9.5 35.998 28.499 68.4961q18.998 32.498 47.9971 59.4961q28.998 26.999 67.9951 45.998l29.999 -47.9971q-56.9971 -32.998 -81.4951 -83.4951q-24.499 -50.4971 -24.499 -114.493v-19.999h-76.9951z" />
    <glyph glyph-name="quotedblright" unicode="&#x201d;" horiz-adv-x="426" 
d="M409 676q1 -5 1 -9.5v-9.5q0 -37 -9.5 -73t-28.5 -68.5t-48 -59.5t-68 -46l-30 48q57 33 81.5 83.5t24.5 114.5v20h77zM239 676q1 -5 1 -9.5v-9.5q0 -37 -9.5 -73t-28.5 -68.5t-48 -59.5t-68 -46l-30 48q57 33 81.5 83.5t24.5 114.5v20h77z" />
    <glyph glyph-name="quotedblbase" unicode="&#x201e;" horiz-adv-x="426" 
d="M294 112q1 -5 1 -9.5v-9.5q0 -37 -9.5 -73t-28.5 -68.5t-48 -59.5t-68 -46l-30 48q57 33 81.5 83.5t24.5 114.5v20h77zM125 112q1 -5 1 -9.5v-9.5q0 -37 -9.5 -73t-28.5 -68.5t-48 -59.5t-68 -46l-30 48q57 33 81.5 83.5t24.5 114.5v20h77z" />
    <glyph glyph-name="dagger" unicode="&#x2020;" horiz-adv-x="398" 
d="M267 519l-44 -210h-70l44 210h-117l12 54h117l22 103h70l-22 -103h118l-12 -54h-118z" />
    <glyph glyph-name="daggerdbl" unicode="&#x2021;" horiz-adv-x="398" 
d="M270 534l-18 -87h118l-12 -54h-118l-17 -84h-70l18 84h-117l11 54h117l19 87h-117l11 54h117l19 88h70l-19 -88h118l-12 -54h-118z" />
    <glyph glyph-name="bullet" unicode="&#x2022;" horiz-adv-x="330" 
d="M270 320q0 -49 -29 -76.5t-76 -27.5q-48 0 -76.5 27.5t-28.5 76.5q0 50 28.5 78.5t76.5 28.5q47 0 76 -28.5t29 -78.5z" />
    <glyph glyph-name="ellipsis" unicode="&#x2026;" horiz-adv-x="749" 
d="M35 94h95l-20 -94h-95zM280 94h94l-20 -94h-94zM524 94h95l-21 -94h-94z" />
    <glyph glyph-name="perthousand" unicode="&#x2030;" horiz-adv-x="1273" 
d="M1072 347q-26 0 -49.5 -15t-41.5 -43t-29.5 -66.5t-11.5 -85.5q0 -41 16 -64t51 -23q25 0 49 15t42 43t29.5 67t11.5 86q0 40 -16 63t-51 23zM1082 411q54 0 88 -36.5t34 -111.5q0 -55 -15 -105t-42 -88.5t-65.5 -61t-85.5 -22.5q-54 0 -87 37.5t-33 112.5q0 56 15 106
t42.5 87.5t65.5 59.5t83 22zM266 626q-26 0 -49.5 -15.5t-41.5 -43t-29.5 -66.5t-11.5 -86q0 -41 16 -64t51 -23q25 0 49 15.5t42 43t29.5 66.5t11.5 86q0 41 -16 64t-51 23zM190 264q-54 0 -87.5 38t-33.5 112q0 57 15.5 107t43 87.5t65.5 59.5t83 22q54 0 88 -37t34 -112
q0 -55 -15 -105t-42 -88.5t-65.5 -61t-85.5 -22.5zM686 348q-26 0 -49.5 -15.5t-41.5 -43t-29 -66.5t-11 -86q0 -41 15.5 -64t50.5 -23q26 0 49.5 15.5t42 43t29.5 66.5t11 86q0 41 -16 64t-51 23zM610 -14q-54 1 -87 38t-33 112q0 56 15 106.5t42.5 88t65.5 59.5t83 22
q54 0 88 -37t34 -112q0 -55 -15 -105t-42 -88.5t-65.5 -61t-85.5 -22.5zM220 0h-67l513 676h68z" />
    <glyph glyph-name="guilsinglleft" unicode="&#x2039;" horiz-adv-x="293" 
d="M23 248l179 199h83l-172 -202l94 -196h-71z" />
    <glyph glyph-name="guilsinglright" unicode="&#x203a;" horiz-adv-x="293" 
d="M260.001 248.016l-178.988 -198.988h-82.9951l171.989 201.987l-93.9941 195.988h70.9951z" />
    <glyph glyph-name="fraction" unicode="&#x2044;" horiz-adv-x="438" 
d="M-7 0h-67l513 676h68z" />
    <glyph glyph-name="Euro" unicode="&#x20ac;" 
d="M588 586q-29 12 -62 19.5t-76 7.5q-84 0 -145.5 -42t-96.5 -121h297l-12 -52h-304q-14 -52 -17 -105h300l-12 -54h-286q7 -93 51.5 -134.5t117.5 -41.5q38 0 80 9t74 26l9 -75q-35 -17 -79.5 -27t-89.5 -10q-52 0 -96 16.5t-76.5 49t-52.5 79.5t-24 108h-84l12 54h72
q2 28 5 53.5t9 51.5h-64l12 52h68q21 55 53 99.5t74.5 76t93.5 48t110 16.5q53 0 89 -7t68 -20z" />
    <glyph glyph-name="afii61352" unicode="&#x2116;" horiz-adv-x="1164" 
d="M1029 690q57 -1 89 -37.5t32 -98.5q0 -49 -16.5 -90t-43.5 -70t-62.5 -45.5t-73.5 -16.5q-59 0 -91 36t-32 99q0 49 16.5 90.5t44 70.5t63 45.5t74.5 16.5zM1015 625q-22 0 -42.5 -11t-36.5 -31t-25.5 -48.5t-9.5 -62.5q0 -35 16.5 -55.5t48.5 -20.5q22 0 42.5 11
t36.5 31t25.5 48t9.5 63t-16.5 55.5t-48.5 20.5zM790 254h294l-14 -63h-294zM258 676l282 -546l116 546h84l-143 -676h-78l-283 546l-115 -546h-85l143 676h79z" />
    <glyph glyph-name="trademark" unicode="&#x2122;" horiz-adv-x="749" 
d="M342 676l-10 -49h-95l-48 -228h-61l49 228h-94l11 49h248zM486 676l53 -170l123 170h83l-59 -277h-60l44 208l-113 -155h-54l-47 155l-44 -208h-60l59 277h75z" />
    <glyph glyph-name="partialdiff" unicode="&#x2202;" horiz-adv-x="572" 
d="M133 647q33 20 77.5 30.5t93.5 10.5q100 0 156.5 -58.5t56.5 -177.5q0 -51 -9 -99q-15 -84 -44.5 -151t-72 -114.5t-95.5 -73t-114 -25.5q-46 0 -78.5 13t-53.5 35.5t-30.5 54t-9.5 69.5q0 66 23 115t60 81.5t83 48t92 15.5q55 0 94.5 -20.5t61.5 -52.5q7 33 11 61.5
t4 52.5q0 80 -37.5 117.5t-109.5 37.5q-36 0 -72 -9.5t-71 -29.5zM404 268q-18 37 -52.5 58.5t-87.5 21.5q-31 0 -62 -10.5t-56 -32t-40.5 -56t-15.5 -82.5q0 -54 27 -80t72 -26q67 0 125.5 51.5t89.5 155.5z" />
    <glyph glyph-name="product" unicode="&#x220f;" horiz-adv-x="737" 
d="M576 0h-88l127 600h-364l-126 -600h-89l143 676h540z" />
    <glyph glyph-name="summation" unicode="&#x2211;" horiz-adv-x="567" 
d="M568 600h-345l171 -258l-278 -267h354l-15 -75h-469l12 64l295 283l-179 264l14 65h457z" />
    <glyph glyph-name="minus" unicode="&#x2212;" 
d="M522 278h-466v66h466v-66z" />
    <glyph glyph-name="radical" unicode="&#x221a;" horiz-adv-x="511" 
d="M36 475h126l47 -386l292 587h73l-340 -676h-78l-56 409h-78z" />
    <glyph glyph-name="infinity" unicode="&#x221e;" horiz-adv-x="604" 
d="M568 311q0 -66 -35 -106.5t-93 -40.5q-24 0 -43.5 7.5t-36 19.5t-31 27.5t-27.5 31.5q-14 -16 -28 -31.5t-30.5 -27.5t-36 -19.5t-43.5 -7.5q-58 0 -93 40.5t-35 106.5t35 106.5t93 40.5q24 0 43.5 -7.5t36 -19.5t30.5 -27.5t28 -31.5q13 16 27.5 31.5t31 27.5t36 19.5
t43.5 7.5q58 0 93 -40.5t35 -106.5zM331 311q29 -35 52 -56.5t53 -21.5q29 0 48 20t19 58t-19 58t-48 20q-30 0 -53 -21.5t-52 -56.5zM101 311q0 -38 19 -58t48 -20q30 0 53 21.5t52 56.5q-29 35 -52 56.5t-53 21.5q-29 0 -48 -20t-19 -58z" />
    <glyph glyph-name="integral" unicode="&#x222b;" horiz-adv-x="247" 
d="M73 -26q-20 -91 -68.5 -134.5t-143.5 -43.5l16 74q44 0 75.5 22t44.5 81l124 577q19 88 67 131t143 43l-16 -74q-44 0 -75.5 -22t-44.5 -81l-122 -573v0z" />
    <glyph glyph-name="approxequal" unicode="&#x2248;" 
d="M400 145q-27 0 -57.5 7t-60.5 16t-58.5 16t-52.5 7q-32 0 -49.5 -11.5t-32.5 -32.5l-39 50q17 25 46.5 45.5t76.5 20.5q27 0 58 -7t61.5 -15.5t59 -15.5t51.5 -7q32 0 49.5 11t31.5 32l40 -50q-17 -26 -47 -46t-77 -20zM404 358q-27 0 -57.5 7t-61 15.5t-59 15.5t-52.5 7
q-31 0 -49 -11t-32 -33l-39 51q17 25 46 45t77 20q27 0 57.5 -7t61 -15.5t59 -15.5t51.5 -7q32 0 49.5 11t32.5 33l39 -51q-17 -25 -46.5 -45t-76.5 -20z" />
    <glyph glyph-name="notequal" unicode="&#x2260;" 
d="M522 171h-291l-75 -118h-63l75 118h-112v66h154l94 147h-248v66h290l74 115h64l-74 -115h112v-66h-154l-94 -147h248v-66z" />
    <glyph glyph-name="lessequal" unicode="&#x2264;" 
d="M522 0h-466v66h466v-66zM56 294v71l466 181v-73l-379 -144l379 -144v-73z" />
    <glyph glyph-name="greaterequal" unicode="&#x2265;" 
d="M56 66h466v-66h-466v66zM56 112v73l379 144l-379 144v73l466 -181v-71z" />
    <glyph glyph-name="lozenge" unicode="&#x25ca;" horiz-adv-x="519" 
d="M320 601l-224 -274l100 -253l224 268zM217 0h-61l-133 333l277 343h60l132 -343z" />
    <glyph glyph-name="commaaccent" horiz-adv-x="510" 
d="M291 -61q3 -18 3 -34q0 -54 -35 -94t-98 -55l-20 48q85 24 85 100q0 18 -4 35h69z" />
    <glyph glyph-name="zero.onum" horiz-adv-x="532" 
d="M306 489q42 0 72.5 -13.5t51 -38t30.5 -58t10 -73.5q0 -71 -23 -130t-62 -101t-89.5 -65.5t-104.5 -23.5q-41 0 -72 13.5t-51 37.5t-30 57.5t-10 73.5q0 72 23 131t61.5 101t89 65.5t104.5 23.5zM294 417q-34 0 -67 -16.5t-59 -48t-42 -76.5t-16 -101q0 -58 25 -87
t70 -29q33 0 65.5 16.5t58.5 47.5t42 76t16 101q0 58 -25 87.5t-68 29.5z" />
    <glyph glyph-name="one.onum" horiz-adv-x="319" 
d="M189 475h74l-101 -475h-84l85 395l-121 -39l1 72z" />
    <glyph glyph-name="two.onum" horiz-adv-x="460" 
d="M49 448q26 17 69.5 29t96.5 12q81 0 127.5 -38t46.5 -106q0 -49 -23 -87t-59.5 -70t-83 -60t-93.5 -58h241l-14 -70h-373l13 58q58 40 113 74.5t98 67.5t69.5 66t26.5 68q0 42 -27 62.5t-73 20.5q-45 0 -82.5 -12.5t-64.5 -29.5l-8 73v0z" />
    <glyph glyph-name="three.onum" horiz-adv-x="454" 
d="M39 448q29 19 72 30t89 11q40 0 73.5 -9t58 -27t38.5 -46t14 -65q0 -38 -13.5 -65.5t-34 -46.5t-44 -30t-42.5 -16q19 -5 38 -15.5t33.5 -27t23.5 -39t9 -52.5q0 -52 -21.5 -90t-57 -62.5t-81.5 -36.5t-95 -12q-41 0 -80 7.5t-70 22.5l16 70q28 -13 63 -20.5t71 -7.5
q29 0 58.5 6.5t53.5 21.5t39.5 38.5t15.5 56.5q0 31 -11 51t-30 31.5t-44.5 16t-54.5 4.5h-57l15 71h50q34 0 64 7t52 21.5t35 35.5t13 50q0 47 -32.5 66t-80.5 19q-38 0 -75.5 -13.5t-62.5 -28.5l-8 73v0z" />
    <glyph glyph-name="four.onum" horiz-adv-x="501" 
d="M426 482l-79 -371h80l-14 -69h-81l-38 -182h-84l39 182h-281l14 64l336 376h108zM264 111l59 281l-252 -281h193z" />
    <glyph glyph-name="five.onum" horiz-adv-x="464" 
d="M422 475l-15 -72h-233l-39 -164q40 0 81 -7.5t74 -27t54 -53.5t21 -86q0 -56 -22 -96.5t-58 -66.5t-83 -38.5t-96 -12.5q-37 0 -73 6.5t-64 20.5l16 69q27 -13 59 -19t64 -6q33 0 64 7t54.5 23t38 42t14.5 63q0 36 -15.5 59.5t-40 36.5t-56 18t-63.5 5q-13 0 -26.5 -1
t-24.5 -3l-9 9l72 294h306z" />
    <glyph glyph-name="six.onum" horiz-adv-x="549" 
d="M499 527q-21 13 -51 21t-67 8q-49 0 -89 -17t-70 -47t-51 -72t-31 -93q9 10 23.5 22.5t34.5 23.5t45.5 18t56.5 7q80 0 127 -45t47 -126q0 -51 -18 -95t-50 -76.5t-76 -51t-95 -18.5q-52 0 -87.5 19t-57 50t-31 70t-9.5 79q0 86 21.5 162.5t63.5 133.5t104 90.5t142 33.5
q37 0 74.5 -6.5t58.5 -20.5zM244 59q32 0 59.5 12t47 33t30.5 49.5t11 62.5q0 47 -26 79t-84 32q-32 0 -60 -10.5t-48.5 -29.5t-32 -44t-11.5 -54q0 -22 5.5 -45t18.5 -42t35 -31t55 -12z" />
    <glyph glyph-name="seven.onum" horiz-adv-x="474" 
d="M463 475l-14 -67q-66 -57 -121 -116t-101 -124.5t-84 -141t-68 -165.5h-86q58 178 149 309.5t211 232.5h-296l16 72h394z" />
    <glyph glyph-name="eight.onum" horiz-adv-x="527" 
d="M271 349q28 10 52.5 21.5t43.5 26t30 33.5t11 44q0 19 -8.5 34t-23.5 25t-35 15t-42 5q-56 0 -88.5 -24t-32.5 -66q0 -20 8.5 -35.5t21.5 -29t29.5 -25.5t33.5 -24zM303 623q37 0 70.5 -8.5t59 -26t41 -43.5t15.5 -62q0 -38 -12.5 -65t-34.5 -47t-52 -34t-64 -26
q46 -29 75.5 -63.5t29.5 -86.5q0 -44 -19 -77t-50.5 -54.5t-72 -32.5t-84.5 -11q-36 0 -70.5 8.5t-61.5 27.5t-43.5 49t-16.5 72q0 40 15 68.5t39.5 49t55 34.5t61.5 25q-35 24 -61.5 56t-26.5 81q0 41 17.5 72t46.5 52t66 31.5t77 10.5zM234 279q-23 -8 -47.5 -18.5
t-45 -25.5t-34 -37t-13.5 -52q0 -26 9.5 -42.5t25.5 -27t37.5 -14.5t45.5 -4q19 0 43 4t44 15t34 29.5t14 48.5q0 20 -9 37t-24.5 32t-36 28.5t-43.5 26.5z" />
    <glyph glyph-name="nine.onum" horiz-adv-x="542" 
d="M1.03027 -51.9678q20.999 -12.999 50.9971 -20.999q29.998 -7.99902 66.9961 -7.99902q48.9971 0 88.9941 16.999q39.998 16.999 69.9961 46.9971t50.9971 71.9951q20.998 41.998 30.998 92.9941q-9 -9.99902 -23.499 -22.498t-34.498 -23.499
q-19.998 -10.999 -45.4971 -17.999q-25.498 -6.99902 -56.4961 -6.99902q-79.9951 0 -126.992 44.9971t-46.9971 125.992q0 50.9971 17.998 94.9941q17.999 43.998 49.9971 76.4951q31.998 32.498 75.9961 50.9971q43.9971 18.499 94.9941 18.499q51.9961 0 87.4941 -18.999
q35.498 -18.998 56.9971 -49.9971q21.498 -30.998 30.998 -69.9951q9.49902 -38.998 9.49902 -78.9951q0 -85.9951 -21.499 -162.49q-21.498 -76.4951 -63.4961 -133.492q-41.9971 -56.9961 -103.993 -90.4941t-141.991 -33.498q-36.998 0 -74.4961 6.5
q-37.4971 6.49902 -58.4961 20.498zM256.015 416.004q-31.998 0 -59.4961 -12q-27.498 -11.999 -46.9971 -32.998q-19.499 -20.998 -30.498 -49.4961q-11 -28.499 -11 -62.4961q0 -46.998 25.999 -78.9961q25.998 -31.998 83.9951 -31.998q31.998 0 59.9961 10.5
q27.998 10.499 48.4971 29.498t31.998 43.9971q11.499 24.999 11.499 53.9971q0 21.998 -5.5 44.9971q-5.49902 22.999 -18.498 41.9971q-13 18.999 -34.998 30.998q-21.999 12 -54.9971 12z" />
    <glyph glyph-name="Euro.onum" horiz-adv-x="496" 
d="M58 204q4 38 17 74h-63l10 44h72q40 77 111 122t155 45q38 0 61 -6.5t40 -14.5l-16 -74q-15 9 -38 16t-52 7q-54 0 -98.5 -25.5t-73.5 -69.5h204l-9 -44h-219q-14 -36 -20 -74h223l-10 -45h-215q2 -55 29 -77.5t69 -22.5q38 0 74 12t67 30l12 -68q-32 -20 -73.5 -33.5
t-94.5 -13.5q-34 0 -64 9.5t-52.5 30.5t-35.5 53.5t-13 79.5h-68l10 45h61z" />
    <glyph glyph-name="sterling.onum" horiz-adv-x="473" 
d="M423 397q-20 9 -45.5 14.5t-53.5 5.5q-62 0 -92 -25t-41 -76l-10 -47h199l-12 -53h-199l-12 -52q-7 -30 -21 -55t-43 -42h271l-14 -67h-378l12 58q46 23 64.5 49t26.5 61l10 48h-69l12 53h68l12 55q10 45 30 76t47.5 51t62.5 29t74 9q69 0 116 -22z" />
    <glyph glyph-name="florin.onum" horiz-adv-x="458" 
d="M426 397q-20 9 -48.5 14.5t-56.5 5.5q-50 0 -89.5 -23t-50.5 -78l-12 -59h204l-11 -54h-205l-43 -203h-82l43 203h-70l12 54h69l13 61q10 46 30.5 78.5t49.5 53t64.5 30t76.5 9.5q35 0 66.5 -5.5t54.5 -16.5z" />
    <glyph glyph-name="yen.onum" horiz-adv-x="476" 
d="M278 249h126l-9 -43h-141l-17 -75h142l-9 -44h-142l-19 -87h-82l19 87h-140l10 44h140l16 75h-141l9 43h124l-122 226h86l100 -190l184 190h87z" />
    <glyph glyph-name="dollar.onum" horiz-adv-x="428" 
d="M363 391q-23 12 -54.5 19t-66.5 7q-21 0 -39.5 -3.5t-33 -11.5t-23 -21t-8.5 -32q0 -20 14.5 -33t36 -24.5t47 -23t47 -28.5t36 -41t14.5 -60q0 -35 -12 -61.5t-33 -45t-48.5 -29t-57.5 -14.5l-23 -111h-57l22 109q-38 2 -73.5 13t-59.5 29l14 70q28 -20 68 -31t77 -11
q41 0 70 15.5t29 53.5q0 25 -14.5 41t-36 29t-46.5 24.5t-46.5 27t-36 37t-14.5 54.5q0 34 13 60.5t35.5 45t52.5 29t64 13.5l21 98h58l-23 -97q29 -2 55.5 -8.5t46.5 -16.5z" />
    <glyph glyph-name="cent.onum" horiz-adv-x="465" 
d="M321 488q2 0 4 0.5t4 0.5q38 0 61 -6.5t40 -14.5l-16 -74q-15 9 -38 16t-52 7q-47 0 -87 -20t-69 -54t-45.5 -80t-16.5 -98q0 -58 27.5 -82t70.5 -24q38 0 74 12t67 30l12 -68q-28 -17 -63.5 -30t-80.5 -16l-21 -109h-57l22 110q-57 8 -95 48t-38 121q0 62 18.5 116
t50.5 96t75.5 71t93.5 41l22 104h58z" />
    <glyph glyph-name="zero.pnum" horiz-adv-x="631" 
d="M370 613q-40 0 -72 -19t-57 -50t-43 -71.5t-29.5 -83.5t-17 -85t-5.5 -76q0 -78 27.5 -121.5t85.5 -43.5q40 0 72 19t56.5 50.5t42.5 71.5t29.5 82.5t17 84.5t5.5 77q0 78 -27.5 121.5t-84.5 43.5zM383 690q47 0 82 -17.5t58.5 -49t35 -75.5t11.5 -98q0 -48 -8 -101.5
t-25 -105t-43.5 -98t-62.5 -82t-82 -56.5t-103 -21q-47 0 -82 17.5t-58.5 49t-35.5 75.5t-12 98q0 48 8 101.5t25 105t43.5 98t62.5 82t82.5 56.5t103.5 21z" />
    <glyph glyph-name="one.pnum" horiz-adv-x="394" 
d="M213 0h-88l126 593l-157 -43l-1 77l181 49h82z" />
    <glyph glyph-name="two.pnum" horiz-adv-x="539" 
d="M102 649q36 19 81 30t96 11q42 0 81 -10t69 -32t48 -56t18 -83q0 -63 -25.5 -117.5t-73 -105.5t-116 -102.5t-154.5 -108.5h312l-17 -75h-433l15 69q97 72 172 129t126 107t77 96.5t26 98.5q0 59 -37.5 86t-97.5 27q-43 0 -82 -11t-68 -26z" />
    <glyph glyph-name="three.pnum" horiz-adv-x="521" 
d="M94 648q35 19 82.5 30.5t102.5 11.5q42 0 79.5 -9.5t66 -30t45 -52t16.5 -76.5q0 -36 -13.5 -64t-34.5 -48t-47 -33t-52 -19q21 -6 40.5 -17.5t34.5 -29t24 -41t9 -54.5q0 -57 -24 -100.5t-64.5 -72t-93 -43t-110.5 -14.5q-48 0 -94 11.5t-77 31.5l18 76q28 -17 68 -29.5
t89 -12.5q38 0 73 8.5t61.5 26.5t42.5 47.5t16 71.5q0 28 -11.5 48t-31 33t-47 18.5t-58.5 5.5h-63l16 74h57q33 0 66 7t58.5 21t41.5 35.5t16 50.5q0 55 -36.5 79t-95.5 24q-44 0 -84 -11.5t-69 -26.5z" />
    <glyph glyph-name="four.pnum" horiz-adv-x="551" 
d="M407 676h104l-90 -426h83l-15 -71h-83l-38 -179h-83l39 179h-340l13 68zM338 250l71 329l-313 -329h242z" />
    <glyph glyph-name="five.pnum" horiz-adv-x="548" 
d="M515 600h-274l-47 -175q6 1 12 1h12q45 0 87.5 -10t76.5 -32.5t54.5 -59.5t20.5 -90q0 -54 -19 -99.5t-56 -78.5t-90 -51.5t-120 -18.5q-48 0 -94 11.5t-78 31.5l18 76q29 -17 70.5 -29.5t86.5 -12.5q42 0 77.5 10t61 30t40 50.5t14.5 71.5t-15.5 66.5t-41.5 40t-59 19.5
t-68 5q-19 0 -36.5 -1.5t-33.5 -3.5l-19 23l82 302h354z" />
    <glyph glyph-name="six.pnum" horiz-adv-x="576" 
d="M299 366q-33 0 -63 -10.5t-52.5 -31t-36 -51.5t-13.5 -73q0 -26 7 -51t21.5 -44t38 -30.5t56.5 -11.5q30 0 58.5 12t50.5 34t35.5 54t13.5 73q0 62 -29.5 96t-86.5 34zM535 588q-28 12 -62 18.5t-68 6.5q-97 0 -162 -60t-92 -176q9 10 24.5 21t36.5 21t47 16.5t56 6.5
q39 0 73 -13t59.5 -37t40.5 -59.5t15 -80.5q0 -61 -19.5 -110t-54 -83.5t-81.5 -53.5t-102 -19q-54 0 -92 20.5t-61.5 54.5t-34 77.5t-10.5 89.5q0 88 22 171t66.5 147.5t112.5 104t160 39.5q39 0 77.5 -7t65.5 -20z" />
    <glyph glyph-name="seven.pnum" horiz-adv-x="493" 
d="M547 676l-14 -70q-66 -59 -125.5 -123.5t-111.5 -138.5t-95.5 -159t-75.5 -185h-95q31 96 74.5 182t95 161.5t109 140t117.5 116.5h-336l15 76h442z" />
    <glyph glyph-name="eight.pnum" horiz-adv-x="602" 
d="M292 312q-32 -6 -61.5 -16.5t-53 -27t-37.5 -40.5t-14 -58q0 -29 11.5 -49t31 -33t45.5 -19t54 -6q22 0 49 6t49.5 19.5t38 35.5t15.5 54q0 25 -10 44.5t-27.5 35t-40.5 28.5t-50 26zM264 -14q-41 0 -81.5 10t-72 31.5t-51 54.5t-19.5 78q0 46 15.5 79t41 56t58 37
t66.5 22q-21 15 -39.5 30t-32 32.5t-21.5 39t-8 48.5q0 40 16.5 74t47.5 59t75 39t100 14q42 0 78 -11.5t63 -32.5t42 -51t15 -68q0 -74 -46 -118.5t-119 -63.5q26 -15 48 -31t38 -35t25 -42.5t9 -53.5q0 -44 -19 -80t-52.5 -62t-79 -40.5t-97.5 -14.5zM469 517q0 50 -35 73
t-88 23q-28 0 -53 -7t-43.5 -19.5t-29.5 -31t-11 -42.5q0 -26 10 -44.5t26 -33t36.5 -26t40.5 -23.5q70 17 108.5 48.5t38.5 82.5z" />
    <glyph glyph-name="nine.pnum" horiz-adv-x="576" 
d="M277.019 309.022q32.998 0 62.9961 10.499q29.998 10.5 52.4961 30.998q22.499 20.499 35.998 51.4971t13.499 72.9951q0 25.999 -6.99902 50.9971q-7 24.999 -21.499 43.998q-14.499 18.998 -37.9971 30.498q-23.499 11.499 -56.4971 11.499q-29.998 0 -58.4961 -11.999
q-28.498 -12 -50.4971 -33.998q-21.999 -21.999 -35.498 -53.9971t-13.499 -72.9951q0 -61.9961 29.498 -95.9941t86.4951 -33.998zM41.0322 87.0361q27.999 -11.999 61.9971 -18.499q33.9971 -6.5 67.9951 -6.5q96.9941 0 161.99 59.9971q64.9961 59.9961 91.9941 175.989
q-8.99902 -10 -24.498 -20.999t-36.498 -20.999q-20.998 -9.99902 -46.9971 -16.499q-25.998 -6.49902 -55.9961 -6.49902q-38.998 0 -72.9961 12.999t-59.4961 36.9971q-25.498 23.999 -40.498 59.4971q-14.999 35.498 -14.999 80.4951q0 60.9961 19.499 109.993
t53.9971 83.4951t81.4951 53.4961q46.9971 18.999 101.993 18.999q53.9971 0 91.9951 -20.499q37.9971 -20.498 61.4961 -54.4961q23.498 -33.998 33.998 -77.4951q10.499 -43.498 10.499 -89.4951q0 -87.9941 -21.999 -170.989q-21.998 -82.9951 -66.4951 -147.491
q-44.498 -64.4961 -112.493 -103.993q-67.9961 -39.498 -159.99 -39.498q-38.998 0 -77.4961 7q-38.4971 6.99902 -65.4961 19.998z" />
    <glyph glyph-name="Euro.pnum" horiz-adv-x="586" 
d="M598 586q-29 12 -62 19.5t-76 7.5q-84 0 -145.5 -42t-96.5 -121h297l-12 -52h-304q-14 -52 -17 -105h300l-12 -54h-286q7 -93 51.5 -134.5t117.5 -41.5q38 0 80 9t74 26l9 -75q-35 -17 -79.5 -27t-89.5 -10q-52 0 -96 16.5t-76.5 49t-52.5 79.5t-24 108h-84l12 54h72
q2 28 5 53.5t9 51.5h-64l12 52h68q21 55 53 99.5t74.5 76t93.5 48t110 16.5q53 0 89 -7t68 -20z" />
    <glyph glyph-name="sterling.pnum" horiz-adv-x="516" 
d="M416 313h-192q1 -5 1 -9.5v-9.5q0 -43 -8 -76t-23 -59t-36.5 -46t-49.5 -38h315l-16 -75h-427l14 66q36 22 63 42t46 43.5t28.5 54.5t9.5 76q0 7 -1 16t-2 15h-107l13 61h88q-1 16 -2.5 30t-1.5 29q0 57 17.5 104.5t51 81t82 52.5t110.5 19q36 0 71.5 -7.5t63.5 -21.5
l-22 -75q-23 11 -53 19t-68 8q-77 0 -122 -43t-45 -138q0 -14 1.5 -27.5t3.5 -30.5h210z" />
    <glyph glyph-name="florin.pnum" horiz-adv-x="500" 
d="M120 313h-92l12 61h93l23 107q23 106 88 157.5t170 51.5q31 0 62.5 -6.5t56.5 -18.5l-16 -76q-23 12 -52 18t-62 6q-28 0 -53.5 -7t-47 -22.5t-37.5 -40.5t-24 -61l-23 -108h222l-13 -61h-222l-66 -313h-86z" />
    <glyph glyph-name="yen.pnum" horiz-adv-x="539" 
d="M325 341h147l-12 -53h-162l-22 -107h161l-11 -53h-162l-27 -128h-88l27 128h-162l11 53h162l23 107h-162l12 53h145l-127 335h89l109 -290l235 290h88z" />
    <glyph glyph-name="dollar.pnum" horiz-adv-x="566" 
d="M381 666q42 -2 80 -11.5t62 -22.5l-17 -74q-25 12 -63.5 23t-89.5 11q-77 0 -122 -24.5t-45 -80.5q0 -32 20.5 -52.5t51.5 -37.5t66.5 -32.5t66.5 -37t51.5 -52.5t20.5 -77q0 -47 -17 -81.5t-45.5 -57.5t-66 -36t-79.5 -16l-24 -117h-67l25 117q-90 6 -167 43l17 74
q32 -17 80.5 -30.5t105.5 -13.5q34 0 62 6t48 19t31.5 34t11.5 51q0 32 -20.5 53t-51 38t-66.5 32.5t-66.5 37.5t-51 54t-20.5 80q0 44 18 76.5t48 54t68 33t78 14.5l23 114h68z" />
    <glyph glyph-name="cent.pnum" horiz-adv-x="525" 
d="M410 777l-33 -150q42 -1 79.5 -10t58.5 -23l-21 -74q-22 14 -56 22t-76 8q-59 0 -103 -23t-73.5 -60.5t-44 -86t-14.5 -100.5q0 -42 13 -71t34.5 -47.5t50 -26.5t59.5 -8q34 0 67.5 8t64.5 22l7 -71q-67 -35 -166 -35l-33 -161h-67l36 171q-69 20 -109.5 75t-40.5 142
q0 66 18.5 123.5t53 102.5t84 75.5t111.5 41.5l33 156h67z" />
    <glyph glyph-name="zero.tabonum" horiz-adv-x="510" 
d="M294 489q42 0 72.5 -13.5t51 -38t30.5 -58t10 -73.5q0 -71 -23 -130t-62 -101t-89.5 -65.5t-104.5 -23.5q-41 0 -72 13.5t-51 37.5t-30 57.5t-10 73.5q0 72 23 131t61.5 101t89 65.5t104.5 23.5zM282 417q-34 0 -67 -16.5t-59 -48t-42 -76.5t-16 -101q0 -58 25 -87
t70 -29q33 0 65.5 16.5t58.5 47.5t42 76t16 101q0 58 -25 87.5t-68 29.5z" />
    <glyph glyph-name="one.tabonum" horiz-adv-x="510" 
d="M296 475h74l-101 -475h-84l85 395l-178 -56l-6 68z" />
    <glyph glyph-name="two.tabonum" horiz-adv-x="510" 
d="M79 448q26 17 69.5 29t96.5 12q81 0 127.5 -38t46.5 -106q0 -49 -23 -87t-59.5 -70t-83 -60t-93.5 -58h241l-14 -70h-373l13 58q58 40 113 74.5t98 67.5t69.5 66t26.5 68q0 42 -27 62.5t-73 20.5q-45 0 -82.5 -12.5t-64.5 -29.5l-8 73v0z" />
    <glyph glyph-name="three.tabonum" horiz-adv-x="510" 
d="M67 448q29 19 72 30t89 11q40 0 73.5 -9t58 -27t38.5 -46t14 -65q0 -38 -13.5 -65.5t-34 -46.5t-44 -30t-42.5 -16q19 -5 38 -15.5t33.5 -27t23.5 -39t9 -52.5q0 -52 -21.5 -90t-57 -62.5t-81.5 -36.5t-95 -12q-41 0 -80 7.5t-70 22.5l16 70q28 -13 63 -20.5t71 -7.5
q29 0 58.5 6.5t53.5 21.5t39.5 38.5t15.5 56.5q0 31 -11 51t-30 31.5t-44.5 16t-54.5 4.5h-57l15 71h50q34 0 64 7t52 21.5t35 35.5t13 50q0 47 -32.5 66t-80.5 19q-38 0 -75.5 -13.5t-62.5 -28.5l-8 73v0z" />
    <glyph glyph-name="four.tabonum" horiz-adv-x="510" 
d="M435 482l-79 -371h80l-14 -69h-81l-38 -182h-84l39 182h-281l14 64l336 376h108zM273 111l59 281l-252 -281h193z" />
    <glyph glyph-name="five.tabonum" horiz-adv-x="510" 
d="M454 475l-15 -72h-233l-39 -164q40 0 81 -7.5t74 -27t54 -53.5t21 -86q0 -56 -22 -96.5t-58 -66.5t-83 -38.5t-96 -12.5q-37 0 -73 6.5t-64 20.5l16 69q27 -13 59 -19t64 -6q33 0 64 7t54.5 23t38 42t14.5 63q0 36 -15.5 59.5t-40 36.5t-56 18t-63.5 5q-13 0 -26.5 -1
t-24.5 -3l-9 9l72 294h306z" />
    <glyph glyph-name="six.tabonumonum" horiz-adv-x="510" 
d="M481 527q-21 13 -51 21t-67 8q-49 0 -89 -17t-70 -47t-51 -72t-31 -93q9 10 23.5 22.5t34.5 23.5t45.5 18t56.5 7q80 0 127 -45t47 -126q0 -51 -18 -95t-50 -76.5t-76 -51t-95 -18.5q-52 0 -87.5 19t-57 50t-31 70t-9.5 79q0 86 21.5 162.5t63.5 133.5t104 90.5t142 33.5
q37 0 74.5 -6.5t58.5 -20.5zM226 59q32 0 59.5 12t47 33t30.5 49.5t11 62.5q0 47 -26 79t-84 32q-32 0 -60 -10.5t-48.5 -29.5t-32 -44t-11.5 -54q0 -22 5.5 -45t18.5 -42t35 -31t55 -12z" />
    <glyph glyph-name="seven.tabonum" horiz-adv-x="510" 
d="M489 475l-14 -67q-66 -57 -121 -116t-101 -124.5t-84 -141t-68 -165.5h-86q58 178 149 309.5t211 232.5h-296l16 72h394z" />
    <glyph glyph-name="eight.tabonum" horiz-adv-x="510" 
d="M271 349q28 10 52.5 21.5t43.5 26t30 33.5t11 44q0 19 -8.5 34t-23.5 25t-35 15t-42 5q-56 0 -88.5 -24t-32.5 -66q0 -20 8.5 -35.5t21.5 -29t29.5 -25.5t33.5 -24zM303 623q37 0 70.5 -8.5t59 -26t41 -43.5t15.5 -62q0 -38 -12.5 -65t-34.5 -47t-52 -34t-64 -26
q46 -29 75.5 -63.5t29.5 -86.5q0 -44 -19 -77t-50.5 -54.5t-72 -32.5t-84.5 -11q-36 0 -70.5 8.5t-61.5 27.5t-43.5 49t-16.5 72q0 40 15 68.5t39.5 49t55 34.5t61.5 25q-35 24 -61.5 56t-26.5 81q0 41 17.5 72t46.5 52t66 31.5t77 10.5zM234 279q-23 -8 -47.5 -18.5
t-45 -25.5t-34 -37t-13.5 -52q0 -26 9.5 -42.5t25.5 -27t37.5 -14.5t45.5 -4q19 0 43 4t44 15t34 29.5t14 48.5q0 20 -9 37t-24.5 32t-36 28.5t-43.5 26.5z" />
    <glyph glyph-name="nine.tabonum" horiz-adv-x="510" 
d="M-0.969727 -51.9678q20.999 -12.999 50.9971 -20.999q29.998 -7.99902 66.9961 -7.99902q48.9971 0 88.9941 16.999q39.998 16.999 69.9961 46.9971t50.9971 71.9951q20.998 41.998 30.998 92.9941q-9 -9.99902 -23.499 -22.498t-34.498 -23.499
q-19.998 -10.999 -45.4971 -17.999q-25.498 -6.99902 -56.4961 -6.99902q-79.9951 0 -126.992 44.9971t-46.9971 125.992q0 50.9971 17.998 94.9941q17.999 43.998 49.9971 76.4951q31.998 32.498 75.9961 50.9971q43.9971 18.499 94.9941 18.499q51.9961 0 87.4941 -18.999
q35.498 -18.998 56.9971 -49.9971q21.498 -30.998 30.998 -69.9951q9.49902 -38.998 9.49902 -78.9951q0 -85.9951 -21.499 -162.49q-21.498 -76.4951 -63.4961 -133.492q-41.9971 -56.9961 -103.993 -90.4941t-141.991 -33.498q-36.998 0 -74.4961 6.5
q-37.4971 6.49902 -58.4961 20.498zM254.015 416.004q-31.998 0 -59.4961 -12q-27.498 -11.999 -46.9971 -32.998q-19.499 -20.998 -30.498 -49.4961q-11 -28.499 -11 -62.4961q0 -46.998 25.999 -78.9961q25.998 -31.998 83.9951 -31.998q31.998 0 59.9961 10.5
q27.998 10.499 48.4971 29.498t31.998 43.9971q11.499 24.999 11.499 53.9971q0 21.998 -5.5 44.9971q-5.49902 22.999 -18.498 41.9971q-13 18.999 -34.998 30.998q-21.999 12 -54.9971 12z" />
    <glyph glyph-name="Euro.tabonum" horiz-adv-x="510" 
d="M82 204q4 38 17 74h-63l10 44h72q40 77 111 122t155 45q38 0 61 -6.5t40 -14.5l-16 -74q-15 9 -38 16t-52 7q-54 0 -98.5 -25.5t-73.5 -69.5h204l-9 -44h-219q-14 -36 -20 -74h223l-10 -45h-215q2 -55 29 -77.5t69 -22.5q38 0 74 12t67 30l12 -68q-32 -20 -73.5 -33.5
t-94.5 -13.5q-34 0 -64 9.5t-52.5 30.5t-35.5 53.5t-13 79.5h-68l10 45h61z" />
    <glyph glyph-name="sterling.tabonum" horiz-adv-x="510" 
d="M419 397q-20 9 -45.5 14.5t-53.5 5.5q-62 0 -92 -25t-41 -76l-10 -47h199l-12 -53h-199l-12 -52q-7 -30 -21 -55t-43 -42h271l-14 -67h-378l12 58q46 23 64.5 49t26.5 61l10 48h-69l12 53h68l12 55q10 45 30 76t47.5 51t62.5 29t74 9q69 0 116 -22z" />
    <glyph glyph-name="florin.tabonum" horiz-adv-x="510" 
d="M457 397q-20 9 -48.5 14.5t-56.5 5.5q-50 0 -89.5 -23t-50.5 -78l-12 -59h204l-11 -54h-205l-43 -203h-82l43 203h-70l12 54h69l13 61q10 46 30.5 78.5t49.5 53t64.5 30t76.5 9.5q35 0 66.5 -5.5t54.5 -16.5z" />
    <glyph glyph-name="yen.tabonum" horiz-adv-x="510" 
d="M301 249h126l-9 -43h-141l-17 -75h142l-9 -44h-142l-19 -87h-82l19 87h-140l10 44h140l16 75h-141l9 43h124l-122 226h86l100 -190l184 190h87z" />
    <glyph glyph-name="dollar.tabonum" horiz-adv-x="510" 
d="M407 391q-23 12 -54.5 19t-66.5 7q-21 0 -39.5 -3.5t-33 -11.5t-23 -21t-8.5 -32q0 -20 14.5 -33t36 -24.5t47 -23t47 -28.5t36 -41t14.5 -60q0 -35 -12 -61.5t-33 -45t-48.5 -29t-57.5 -14.5l-23 -111h-57l22 109q-38 2 -73.5 13t-59.5 29l14 70q28 -20 68 -31t77 -11
q41 0 70 15.5t29 53.5q0 25 -14.5 41t-36 29t-46.5 24.5t-46.5 27t-36 37t-14.5 54.5q0 34 13 60.5t35.5 45t52.5 29t64 13.5l21 98h58l-23 -97q29 -2 55.5 -8.5t46.5 -16.5z" />
    <glyph glyph-name="cent.tabonum" horiz-adv-x="510" 
d="M347 488q2 0 4 0.5t4 0.5q38 0 61 -6.5t40 -14.5l-16 -74q-15 9 -38 16t-52 7q-47 0 -87 -20t-69 -54t-45.5 -80t-16.5 -98q0 -58 27.5 -82t70.5 -24q38 0 74 12t67 30l12 -68q-28 -17 -63.5 -30t-80.5 -16l-21 -109h-57l22 110q-57 8 -95 48t-38 121q0 62 18.5 116
t50.5 96t75.5 71t93.5 41l22 104h58z" />
    <glyph glyph-name="ampersand.001" horiz-adv-x="674" 
d="M262 407q34 13 63 25.5t49 28t31.5 35.5t11.5 47q0 35 -25.5 52.5t-63.5 17.5q-47 0 -76 -24t-29 -72q0 -19 3 -33.5t8 -27t12 -24.5t16 -25zM549 0l-76 71q-42 -40 -103.5 -62.5t-135.5 -22.5q-49 0 -90.5 12t-72 35.5t-47.5 58t-17 78.5q0 43 14.5 75.5t38.5 56.5
t55.5 41.5t65.5 31.5q-24 34 -36.5 67.5t-12.5 71.5q0 40 14.5 72.5t41.5 55.5t64.5 35.5t82.5 12.5q80 0 126.5 -36.5t46.5 -105.5q0 -42 -17.5 -73t-46 -54t-65 -40.5t-74.5 -31.5q32 -35 75.5 -79t87.5 -84q21 32 33 70.5t16 74.5h80q-3 -48 -21.5 -102t-50.5 -99
l138 -130h-114zM223 318q-28 -10 -50.5 -23t-39 -30t-25.5 -39t-9 -51q0 -54 39 -83t107 -29q52 0 96 15.5t74 44.5q-32 30 -61 58.5t-54.5 54t-45 46.5t-31.5 36z" />
    <glyph glyph-name="Ssmall" horiz-adv-x="0" 
 />
    </font>
</defs>
</svg>
