<?xml version="1.0" standalone="no"?>
<!DOCTYPE svg PUBLIC "-//W3C//DTD SVG 1.1//EN" "http://www.w3.org/Graphics/SVG/1.1/DTD/svg11.dtd" >
<svg xmlns="http://www.w3.org/2000/svg" xmlns:xlink="http://www.w3.org/1999/xlink" version="1.1">
<metadata>
Created by FontForge 20170731 at Fri Jan 18 11:52:24 2013
 By Aleksey,,,
Copyright (c) 2009 by Peugeot. All rights reserved.
</metadata>
<defs>
<font id="PeugeotExpanded-ExtraLight" horiz-adv-x="659" >
  <font-face 
    font-family="Peugeot Expanded ExtraLight"
    font-weight="200"
    font-stretch="normal"
    units-per-em="1000"
    panose-1="2 0 5 3 4 0 0 2 0 3"
    ascent="800"
    descent="-200"
    x-height="475"
    cap-height="676"
    bbox="-32 -232 1360 1044"
    underline-thickness="60"
    underline-position="-202"
    unicode-range="U+0020-FB02"
  />
<missing-glyph horiz-adv-x="641" 
d="M141 676h359v-676h-359v676zM183 28h275l-138 279zM320 368l138 280h-275zM473 59v558l-138 -279zM168 617v-558l137 279z" />
    <glyph glyph-name="fi" unicode="fi" horiz-adv-x="593" 
d="M120 475v69q0 43 14 76t39 55.5t59 34t74 11.5q60 0 106.5 -13t72.5 -28v-29q-31 18 -73 31t-108 13q-72 0 -114.5 -38t-42.5 -113v-69h332v-475h-27v450h-305v-450h-27v450h-83v25h83z" />
    <glyph glyph-name="fl" unicode="fl" horiz-adv-x="624" 
d="M120 475v69q0 43 14 76t39 55.5t59 34t74 11.5q57 0 101.5 -12t71.5 -26v-608q0 -30 17 -45.5t46 -15.5q21 0 37 4.5t33 13.5v-28q-14 -8 -33.5 -12t-36.5 -4q-39 0 -64.5 21.5t-25.5 65.5v593q-27 11 -62.5 19t-85.5 8q-72 0 -114.5 -38t-42.5 -113v-69h164v-25h-164
v-450h-27v450h-83v25h83z" />
    <glyph glyph-name=".notdef" horiz-adv-x="641" 
d="M141 676h359v-676h-359v676zM183 28h275l-138 279zM320 368l138 280h-275zM473 59v558l-138 -279zM168 617v-558l137 279z" />
    <glyph glyph-name=".null" horiz-adv-x="0" 
 />
    <glyph glyph-name="nonmarkingreturn" horiz-adv-x="279" 
 />
    <glyph glyph-name="space" unicode=" " horiz-adv-x="279" 
 />
    <glyph glyph-name="exclam" unicode="!" horiz-adv-x="313" 
d="M170 173h-28l-4 503h36zM138 54h37v-54h-37v54z" />
    <glyph glyph-name="quotedbl" unicode="&#x22;" horiz-adv-x="431" 
d="M152 446h-25l-2 230h29zM304 446h-25l-2 230h29z" />
    <glyph glyph-name="numbersign" unicode="#" horiz-adv-x="658" 
d="M615 449h-118l-47 -215h117l-4 -26h-117l-45 -208h-27l44 208h-236l-45 -208h-27l45 208h-117l4 26h117l46 216h-115l4 25h116l43 201h27l-43 -201h237l43 201h27l-43 -201h119zM233 450l-46 -216h236l46 216h-236z" />
    <glyph glyph-name="dollar" unicode="$" horiz-adv-x="623" 
d="M298 8q-31 0 -63 3.5t-61.5 10t-55.5 15.5t-46 21v31q44 -26 104 -39.5t116 -13.5q40 0 78.5 7t69 23.5t49.5 44.5t19 70q0 51 -32 79t-79.5 44.5t-103 28t-103 30t-79.5 50.5t-32 89q0 41 19.5 71.5t50.5 50.5t70 30.5t79 12.5v110h26v-109q66 -2 112 -13.5t83 -28.5
v-29q-38 19 -87 31t-120 12q-38 0 -74.5 -8t-65 -24.5t-46 -42.5t-17.5 -63t18.5 -61t48.5 -40t69 -26t79 -20t79 -22t69 -31.5t48.5 -48.5t18.5 -72q0 -42 -17 -73t-46.5 -52t-68.5 -32.5t-83 -14.5v-119h-26v118z" />
    <glyph glyph-name="percent" unicode="%" horiz-adv-x="1022" 
d="M419 477q0 -98 -44.5 -154t-126.5 -56t-126.5 56t-44.5 154t44.5 154t126.5 56t126.5 -56t44.5 -154zM307 0h-32l441 676h33zM391 477q0 88 -35.5 136t-107.5 48t-107.5 -48t-35.5 -136t35.5 -136t107.5 -48t107.5 48t35.5 136zM945 198q0 -98 -44.5 -153.5t-126.5 -55.5
t-126.5 56t-44.5 154t44.5 154t126.5 56t126.5 -56.5t44.5 -154.5zM917 199q0 88 -35.5 136t-107.5 48t-107.5 -48t-35.5 -136t35.5 -136t107.5 -48t107.5 48t35.5 136z" />
    <glyph glyph-name="ampersand" unicode="&#x26;" horiz-adv-x="764" 
d="M760 303v-27h-126q0 -58 -18 -110t-53.5 -91.5t-89.5 -62.5t-126 -23q-65 0 -115 15t-85 41.5t-53 63.5t-18 81q0 45 16 77.5t41.5 55.5t58 37t65.5 20q-27 5 -53.5 15t-47.5 27t-34.5 43t-13.5 62q0 40 19 70t51.5 50t75.5 30t91 10q74 0 126 -13t92 -33v-29
q-40 20 -91.5 33.5t-126.5 13.5q-44 0 -81.5 -8.5t-65.5 -25t-43.5 -41t-15.5 -57.5q0 -36 17.5 -61t47 -40.5t69 -23t83.5 -7.5h36v-28h-36q-54 0 -100 -11.5t-79 -33.5t-51.5 -55.5t-18.5 -76.5q0 -42 18 -74.5t50 -54t76 -33t96 -11.5q63 0 110.5 20t80 55t48.5 82
t16 102h-139v27h297z" />
    <glyph glyph-name="quotesingle" unicode="'" horiz-adv-x="279" 
d="M152 446h-25l-2 230h29z" />
    <glyph glyph-name="parenleft" unicode="(" horiz-adv-x="295" 
d="M282 710q-32 -46 -62.5 -96.5t-54 -106.5t-38 -118t-14.5 -129q0 -68 14.5 -129.5t38 -117.5t54 -106.5t62.5 -96.5h-32q-32 45 -61.5 93t-52.5 102.5t-37 117.5t-14 137t14 137t37 117.5t52.5 102.5t61.5 93h32z" />
    <glyph glyph-name="parenright" unicode=")" horiz-adv-x="295" 
d="M13.0176 710q31.998 -46 62.4961 -96.5t53.9961 -106.5q23.499 -56 37.998 -118t14.499 -129q0 -68 -14.499 -129.5t-37.998 -117.5q-23.498 -56 -53.9961 -106.5t-62.4961 -96.5h31.998q31.998 45 61.4961 93t52.4961 102.5q22.999 54.5 36.998 117.5t13.999 137
t-13.999 137t-36.998 117.5q-22.998 54.5 -52.4961 102.5t-61.4961 93h-31.998z" />
    <glyph glyph-name="asterisk" unicode="*" horiz-adv-x="418" 
d="M221 676l-1 -112l125 31l6 -25l-126 -26l81 -98l-20 -17l-77 99l-77 -99l-20 17l81 98l-126 26l6 25l125 -31l-1 112h24z" />
    <glyph glyph-name="plus" unicode="+" horiz-adv-x="680" 
d="M614 301h-260v-209h-27v209h-261v27h261v209h27v-209h260v-27z" />
    <glyph glyph-name="comma" unicode="," horiz-adv-x="275" 
d="M137 46q7 -19 9.5 -35.5t2.5 -33.5q0 -54 -31 -96t-86 -72l-14 22q49 27 76 63.5t27 82.5q0 31 -13 69h29z" />
    <glyph glyph-name="hyphen" unicode="-" horiz-adv-x="457" 
d="M354 282h-251v27h251v-27z" />
    <glyph glyph-name="period" unicode="." horiz-adv-x="275" 
d="M119 54h37v-54h-37v54z" />
    <glyph glyph-name="slash" unicode="/" horiz-adv-x="359" 
d="M30 0h-30l329 676h30z" />
    <glyph glyph-name="zero" unicode="0" horiz-adv-x="703" 
d="M352 687q54 0 100.5 -21t81 -64.5t54 -109t19.5 -154.5t-19.5 -154.5t-54 -109t-81 -64.5t-100.5 -21t-100.5 21t-81 64.5t-54 109t-19.5 154.5t19.5 154.5t54 109t81 64.5t100.5 21zM352 659q-55 0 -96.5 -22t-70 -63.5t-43 -101t-14.5 -134.5t14.5 -134.5t43 -101
t70 -63.5t96.5 -22t96.5 22t70 63.5t43 101t14.5 134.5t-14.5 134.5t-43 101t-70 63.5t-96.5 22z" />
    <glyph glyph-name="one" unicode="1" horiz-adv-x="367" 
d="M226 0h-31v648h-168v28h199v-676z" />
    <glyph glyph-name="two" unicode="2" horiz-adv-x="594" 
d="M535 0h-471v28l246 196q44 35 77.5 66t56.5 63t34.5 66t11.5 75t-15 72t-41.5 51.5t-63 31t-79.5 10.5q-64 0 -111.5 -14.5t-92.5 -44.5v33q41 26 89.5 40t114.5 14q50 0 92 -12.5t73 -37t48 -60.5t17 -83q0 -43 -12.5 -80t-37 -72t-59.5 -68.5t-80 -68.5l-225 -177h428
v-28z" />
    <glyph glyph-name="three" unicode="3" horiz-adv-x="606" 
d="M74 676h445v-28l-285 -257q7 1 14.5 1h15.5q46 0 93 -9t85.5 -32t62.5 -61.5t24 -97.5q0 -47 -18.5 -85t-53 -64t-82.5 -40t-108 -14q-51 0 -104.5 10.5t-95.5 28.5v31q45 -21 98 -31.5t102 -10.5q107 0 169.5 47t62.5 128q0 51 -21.5 84.5t-56 53t-76.5 27.5t-83 8
q-18 0 -37.5 -1.5t-33.5 -3.5v27l288 261h-405v28z" />
    <glyph glyph-name="four" unicode="4" horiz-adv-x="605" 
d="M427 676h39v-462h106v-28h-106v-186h-31v186h-399v28zM435 214v429l-364 -429h364z" />
    <glyph glyph-name="five" unicode="5" horiz-adv-x="610" 
d="M505 676v-28h-330l-35 -248q26 6 57.5 10t64.5 4q49 0 97.5 -10.5t86 -34t61 -62t23.5 -95.5q0 -62 -22.5 -104.5t-59.5 -69t-85 -38t-99 -11.5q-50 0 -99 10t-92 27v31q38 -18 88 -29t102 -11q45 0 87.5 10t75.5 32.5t52.5 60t19.5 92.5q0 49 -20 82.5t-53 53.5
t-75.5 29t-87.5 9q-35 0 -76 -6t-73 -16l-8 10l44 302h356z" />
    <glyph glyph-name="six" unicode="6" horiz-adv-x="641" 
d="M546 628q-35 17 -75.5 24t-88.5 7q-57 0 -106.5 -18.5t-86.5 -59t-58.5 -103.5t-22.5 -151q15 15 37.5 31.5t52 31t64.5 24t75 9.5q54 0 97.5 -13.5t74 -40.5t47.5 -66.5t17 -91.5q0 -49 -17.5 -89.5t-49 -70t-75 -46t-95.5 -16.5q-63 0 -111.5 26t-81 70t-49 102.5
t-16.5 124.5q0 101 24.5 172.5t66.5 116.5t97 65.5t116 20.5q45 0 87 -7t77 -21v-31zM109 289q1 -45 14 -93t40 -88t69.5 -65.5t102.5 -25.5q49 0 87 14.5t64.5 40.5t40.5 61.5t14 77.5q0 91 -53.5 137t-150.5 46q-38 0 -72.5 -9.5t-64 -25t-53 -34t-38.5 -36.5z" />
    <glyph glyph-name="seven" unicode="7" horiz-adv-x="559" 
d="M540 652q-68 -65 -129.5 -136t-111 -150.5t-86 -170t-55.5 -195.5h-30q18 106 54.5 199t86 173t108.5 148.5t121 127.5h-447v28h489v-24z" />
    <glyph glyph-name="eight" unicode="8" horiz-adv-x="685" 
d="M342 343q-43 0 -83 -8.5t-71.5 -28t-50.5 -50.5t-19 -77q0 -39 19 -69.5t50.5 -51t71.5 -31t83 -10.5t83 10.5t71.5 31t50.5 51t19 69.5q0 46 -19 77t-50.5 50.5t-71.5 28t-83 8.5zM342 -11q-55 0 -102 13.5t-81 38.5t-53.5 60t-19.5 78q0 46 15.5 77.5t39.5 52t52.5 32
t54.5 17.5q-30 9 -55.5 22.5t-44 32.5t-29.5 44t-11 58q0 40 18.5 71.5t50 54t74.5 34.5t91 12t91 -12t74.5 -34.5t50 -54t18.5 -71.5q0 -33 -11 -58t-29.5 -44t-44 -32.5t-55.5 -22.5q26 -6 54.5 -17.5t52.5 -32t39.5 -52t15.5 -77.5q0 -43 -19.5 -78t-53.5 -60t-81 -38.5
t-102 -13.5zM342 370q38 0 74.5 9.5t65 28t46 46t17.5 63.5q0 34 -17 60.5t-45 44.5t-65 27.5t-76 9.5t-76 -9.5t-65 -27.5t-45 -44.5t-17 -60.5q0 -36 17.5 -63.5t46 -46t65 -28t74.5 -9.5z" />
    <glyph glyph-name="nine" unicode="9" horiz-adv-x="641" 
d="M95.0332 48.0381q34.998 -16.999 75.4951 -23.998q40.498 -7 88.4951 -7q56.9961 0 106.493 18.499t86.4951 58.9961q36.998 40.498 58.4961 103.494q21.499 62.9961 22.499 150.99q-14.999 -14.999 -37.498 -31.498t-51.9971 -30.998t-64.4961 -23.998
q-34.9971 -9.5 -74.9951 -9.5q-53.9971 0 -97.4941 13.5q-43.4971 13.499 -73.9951 40.4971t-47.4971 66.4961q-16.999 39.4971 -16.999 91.4941q0 48.9971 17.499 89.4951q17.499 40.4971 48.9971 69.9951t74.9951 45.9971t95.4941 16.499q62.9961 0 111.493 -25.998
t80.9951 -69.9961q32.498 -43.9971 48.9971 -102.493q16.499 -58.4971 16.499 -124.492q0 -100.994 -24.499 -172.49q-24.498 -71.4951 -66.4951 -116.492q-41.998 -44.998 -96.9941 -65.4961q-54.9971 -20.499 -115.993 -20.499q-44.9971 0 -86.9951 6.99902
q-41.9971 7 -76.9951 20.999v30.998zM532.007 387.018q-1 44.9971 -13.999 92.9941q-13 47.9971 -39.998 87.9951q-26.998 39.9971 -69.4951 65.4961q-42.498 25.498 -102.494 25.498q-48.9971 0 -86.9951 -14.499q-37.9971 -14.499 -64.4961 -40.498
q-26.498 -25.998 -40.4971 -61.4961q-13.999 -35.4971 -13.999 -77.4951q0 -90.9941 53.4961 -136.991q53.4971 -45.9971 150.491 -45.9971q37.998 0 72.4961 9.49902q34.4971 9.49902 63.9961 24.998q29.498 15.5 52.9961 33.998q23.499 18.499 38.498 36.498z" />
    <glyph glyph-name="colon" unicode=":" horiz-adv-x="275" 
d="M119 475h37v-54h-37v54zM119 54h37v-54h-37v54z" />
    <glyph glyph-name="semicolon" unicode=";" horiz-adv-x="275" 
d="M137 46q7 -19 9.5 -35.5t2.5 -33.5q0 -54 -31 -96t-86 -72l-14 22q49 27 76 63.5t27 82.5q0 31 -13 69h29zM119 475h37v-54h-37v54z" />
    <glyph glyph-name="less" unicode="&#x3c;" horiz-adv-x="680" 
d="M614 517l-513 -202l513 -203v-30l-548 217v32l548 217v-31z" />
    <glyph glyph-name="equal" unicode="=" horiz-adv-x="680" 
d="M614 398h-548v27h548v-27zM614 203h-548v27h548v-27z" />
    <glyph glyph-name="greater" unicode="&#x3e;" horiz-adv-x="680" 
d="M66.0371 517l512.969 -202l-512.969 -203v-30l547.967 217v32l-547.967 217v-31z" />
    <glyph glyph-name="question" unicode="?" horiz-adv-x="465" 
d="M180 239q0 26 7 47t20 40t31.5 37.5t41.5 40.5q17 16 33 32.5t28 34t19 37t7 41.5q0 32 -13 53.5t-34.5 34t-48.5 17.5t-55 5q-35 0 -73 -8.5t-65 -22.5v28q26 14 64 22.5t76 8.5q36 0 69 -8t57.5 -25t39 -43t14.5 -61q0 -30 -9 -53.5t-23.5 -43t-32 -36.5t-34.5 -34
q-22 -22 -39 -38.5t-28 -32.5t-17 -33t-6 -41v-65h-29v66zM176 54h37v-54h-37v54z" />
    <glyph glyph-name="at" unicode="@" horiz-adv-x="920" 
d="M591 225q0 -57 23.5 -80t78.5 -23q28 0 51.5 10.5t41 32t27.5 53.5t10 75q0 67 -34 115t-86.5 79t-116 45.5t-122.5 14.5q-71 0 -137 -18t-117.5 -55t-82.5 -94t-31 -134t31 -134t82.5 -94.5t117.5 -55.5t137 -18q55 0 115 6.5t108 23.5v-27q-49 -17 -109 -23t-114 -6
q-74 0 -145 20.5t-126.5 61.5t-89.5 102.5t-34 143.5t34 143.5t89.5 102t126.5 61t145 20.5q65 0 133.5 -16t125 -50.5t92.5 -87.5t36 -126q0 -95 -44.5 -147t-119.5 -52q-51 0 -81 21t-39 53q-21 -29 -55 -51.5t-86 -22.5q-29 0 -54.5 9.5t-44 28t-29.5 45.5t-11 62
q0 39 15 68t40 47.5t58 27.5t69 9q61 0 122 -22v-144zM562 352q-45 14 -92 14q-30 0 -58 -7t-49.5 -22t-34 -39.5t-12.5 -58.5q0 -54 28.5 -85.5t82.5 -31.5q51 0 83 25t52 57v148z" />
    <glyph glyph-name="A" unicode="A" horiz-adv-x="676" 
d="M0 0l324 676h30l322 -676h-33l-101 211h-409l-100 -211h-33zM338 639l-191 -400h382z" />
    <glyph glyph-name="B" unicode="B" horiz-adv-x="680" 
d="M318 676q144 0 209 -47.5t65 -125.5q0 -38 -14 -65.5t-36.5 -47t-51 -31t-56.5 -15.5q35 -5 67.5 -17t57 -32.5t39.5 -49.5t15 -66q0 -85 -75.5 -132t-219.5 -47h-177v676h177zM172 358h146q127 0 185 38t58 107t-58 107t-185 38h-146v-290zM172 28h146q129 0 196.5 39.5
t67.5 111.5t-67.5 111.5t-196.5 39.5h-146v-302z" />
    <glyph glyph-name="C" unicode="C" horiz-adv-x="745" 
d="M666 627q-43 17 -87 24.5t-96 7.5q-84 0 -152.5 -23t-116.5 -65t-74.5 -101.5t-26.5 -131.5t26.5 -131.5t74.5 -101.5t116.5 -65t152.5 -23q56 0 103.5 10t88.5 28v-29q-41 -17 -88 -27t-104 -10q-91 0 -165 25t-126.5 71t-81 110.5t-28.5 142.5t28.5 142.5t81 110.5
t126.5 71t165 25q54 0 97.5 -7.5t85.5 -23.5v-29v0z" />
    <glyph glyph-name="D" unicode="D" horiz-adv-x="885" 
d="M172 28h178q99 0 177 19.5t132.5 58.5t83.5 97t29 135q0 78 -29 136t-83.5 96.5t-132.5 58t-177 19.5h-178v-620zM350 676q118 0 203.5 -24.5t141 -69.5t82 -107t26.5 -137t-26.5 -137.5t-82 -107t-141 -69t-203.5 -24.5h-209v676h209z" />
    <glyph glyph-name="E" unicode="E" horiz-adv-x="650" 
d="M550 676v-28h-388v-279h361v-28h-361v-193q0 -60 33 -90t114 -30h263v-28h-263q-98 0 -138 39t-40 109v528h419z" />
    <glyph glyph-name="F" unicode="F" horiz-adv-x="618" 
d="M547 676v-28h-375v-283h348v-29h-348v-336h-31v676h406z" />
    <glyph glyph-name="G" unicode="G" horiz-adv-x="945" 
d="M479 339h338v-269q-30 -17 -64 -32t-74 -26t-88 -17t-108 -6q-91 0 -165 25t-126.5 71t-81 110.5t-28.5 142.5t28.5 142.5t81 110.5t126.5 71t165 25q85 0 161.5 -15t145.5 -47v-29q-73 34 -147.5 48.5t-159.5 14.5q-84 0 -152.5 -23t-116.5 -65t-74.5 -101.5
t-26.5 -131.5t26.5 -131.5t74.5 -101.5t116.5 -65t152.5 -23q106 0 184 21.5t123 48.5v223h-311v29z" />
    <glyph glyph-name="H" unicode="H" horiz-adv-x="914" 
d="M773 0h-31v340h-570v-340h-31v676h31v-308h570v308h31v-676z" />
    <glyph glyph-name="I" unicode="I" horiz-adv-x="313" 
d="M172 0h-31v676h31v-676z" />
    <glyph glyph-name="J" unicode="J" horiz-adv-x="409" 
d="M281 154q0 -47 -13.5 -78.5t-37 -51t-54 -27.5t-63.5 -8q-27 0 -54.5 5t-51.5 14v29q52 -20 106 -20q28 0 52.5 6.5t43.5 22t30 42t11 66.5v522h31v-522z" />
    <glyph glyph-name="K" unicode="K" horiz-adv-x="656" 
d="M202 351l449 -351h-45l-434 337v-337h-31v676h31v-312l428 312h44z" />
    <glyph glyph-name="L" unicode="L" horiz-adv-x="569" 
d="M162 148q0 -60 33 -90t114 -30h233v-28h-233q-98 0 -138 39t-40 109v528h31v-528z" />
    <glyph glyph-name="M" unicode="M" horiz-adv-x="1098" 
d="M565 131h-32l-361 507v-638h-31v676h41l367 -514l367 514h41v-676h-31v638z" />
    <glyph glyph-name="N" unicode="N" horiz-adv-x="910" 
d="M769 0h-39l-558 639v-639h-31v676h39l558 -642v642h31v-676z" />
    <glyph glyph-name="O" unicode="O" horiz-adv-x="966" 
d="M884 338q0 -78 -28.5 -142.5t-81 -110.5t-126.5 -71t-165 -25t-165 25t-126.5 71t-81 110.5t-28.5 142.5t28.5 142.5t81 110.5t126.5 71t165 25t165 -25t126.5 -71t81 -110.5t28.5 -142.5zM853 338q0 72 -26.5 131.5t-74.5 101.5t-116.5 65t-152.5 23t-152.5 -23
t-116.5 -65t-74.5 -101.5t-26.5 -131.5t26.5 -131.5t74.5 -101.5t116.5 -65t152.5 -23t152.5 23t116.5 65t74.5 101.5t26.5 131.5z" />
    <glyph glyph-name="P" unicode="P" horiz-adv-x="687" 
d="M343 676q137 0 206 -53.5t69 -144.5t-69 -144.5t-206 -53.5h-171v-280h-31v676h202zM172 308h171q118 0 181 44.5t63 125.5t-63 125.5t-181 44.5h-171v-340z" />
    <glyph glyph-name="Q" unicode="Q" horiz-adv-x="966" 
d="M884 338q0 -66 -20.5 -122t-58.5 -99.5t-91.5 -73.5t-120.5 -43l142 -147h-41l-137 141q-18 -2 -36 -3.5t-38 -1.5q-91 0 -165 25t-126.5 71t-81 110.5t-28.5 142.5t28.5 142.5t81 110.5t126.5 71t165 25t165 -25t126.5 -71t81 -110.5t28.5 -142.5zM853 338
q0 72 -26.5 131.5t-74.5 101.5t-116.5 65t-152.5 23t-152.5 -23t-116.5 -65t-74.5 -101.5t-26.5 -131.5t26.5 -131.5t74.5 -101.5t116.5 -65t152.5 -23t152.5 23t116.5 65t74.5 101.5t26.5 131.5z" />
    <glyph glyph-name="R" unicode="R" horiz-adv-x="702" 
d="M343 676q137 0 206 -53.5t69 -144.5q0 -84 -59 -136.5t-177 -60.5l274 -281h-40l-273 280h-171v-280h-31v676h202zM172 308h171q118 0 181 44.5t63 125.5t-63 125.5t-181 44.5h-171v-340z" />
    <glyph glyph-name="S" unicode="S" horiz-adv-x="657" 
d="M552 613q-40 20 -91 33t-126 13q-40 0 -78.5 -8.5t-68.5 -26.5t-48.5 -46t-18.5 -67t19.5 -64.5t51 -42t72.5 -27.5t83 -21.5t83 -23.5t72.5 -33t51 -50t19.5 -76q0 -49 -21.5 -83.5t-57.5 -57t-83 -33t-98 -10.5q-30 0 -61.5 3.5t-62 10.5t-58 17t-48.5 22v32
q46 -27 108.5 -42t121.5 -15q42 0 83 7.5t73.5 25.5t52.5 48t20 75q0 40 -19.5 66t-51 43.5t-72.5 28.5t-83 21.5t-83 22.5t-72.5 32t-51 49.5t-19.5 74.5q0 46 21 79t55.5 54.5t78.5 32t90 10.5q74 0 125.5 -12.5t91.5 -32.5v-29v0z" />
    <glyph glyph-name="T" unicode="T" horiz-adv-x="665" 
d="M638 648h-290v-648h-31v648h-290v28h611v-28z" />
    <glyph glyph-name="U" unicode="U" horiz-adv-x="797" 
d="M676 230q0 -61 -23 -106.5t-61 -75.5t-88 -44.5t-105 -14.5t-105 14.5t-88.5 44.5t-61.5 75.5t-23 106.5v446h31v-446q0 -54 20 -94.5t54 -66.5t79 -39t94 -13q51 0 96 13.5t79 40.5t53.5 66.5t19.5 92.5v446h29v-446z" />
    <glyph glyph-name="V" unicode="V" horiz-adv-x="670" 
d="M635 676h33l-317 -676h-30l-319 676h33l300 -639z" />
    <glyph glyph-name="W" unicode="W" horiz-adv-x="1134" 
d="M582 676l268 -638l236 638h29l-249 -676h-29l-270 638l-270 -638h-29l-249 676h29l236 -638l268 638h30z" />
    <glyph glyph-name="X" unicode="X" horiz-adv-x="683" 
d="M341 363l277 313h40l-297 -335l302 -341h-41l-281 318l-280 -318h-41l301 340l-296 336h40z" />
    <glyph glyph-name="Y" unicode="Y" horiz-adv-x="630" 
d="M331 274v-274h-31v274l-300 402h35l281 -371l278 371h36z" />
    <glyph glyph-name="Z" unicode="Z" horiz-adv-x="689" 
d="M632 648l-531 -620h542v-28h-580v28l531 620h-520v28h558v-28z" />
    <glyph glyph-name="bracketleft" unicode="[" horiz-adv-x="322" 
d="M297 683h-128v-847h128v-26h-156v900h156v-27z" />
    <glyph glyph-name="backslash" unicode="\" horiz-adv-x="359" 
d="M329.002 0h29.998l-328.979 676h-29.999z" />
    <glyph glyph-name="bracketright" unicode="]" horiz-adv-x="322" 
d="M25.0186 683h127.992v-847h-127.992v-26h155.99v900h-155.99v-27z" />
    <glyph glyph-name="asciicircum" unicode="^" horiz-adv-x="680" 
d="M352 676l240 -419h-32l-220 388l-220 -388h-32l240 419h24z" />
    <glyph glyph-name="underscore" unicode="_" horiz-adv-x="701" 
d="M656 -36h-611v25h611v-25z" />
    <glyph glyph-name="grave" unicode="`" horiz-adv-x="600" 
d="M380 559h-27l-108 151h35z" />
    <glyph glyph-name="a" unicode="a" 
d="M519 423q-45 18 -91.5 27.5t-91.5 9.5q-50 0 -94 -13t-77 -40t-52.5 -69t-19.5 -100q0 -56 18 -98t48 -69.5t70 -41.5t84 -14q34 0 64.5 8t56.5 20.5t47.5 28.5t37.5 33v318zM313 -11q-51 0 -96.5 16t-79 47.5t-53 78t-19.5 107.5q0 63 21.5 109.5t58 77.5t86 46
t106.5 15q51 0 103.5 -11t105.5 -34v-441h-27v73q-15 -14 -36 -29t-46.5 -27t-56.5 -20t-67 -8z" />
    <glyph glyph-name="b" unicode="b" horiz-adv-x="657" 
d="M138 63q38 -20 90 -34t104 -14q45 0 87 11.5t74 38t51.5 69t19.5 104.5q0 52 -17 93.5t-46 70t-68.5 43.5t-85.5 15q-64 0 -115.5 -22.5t-93.5 -52.5v-322zM111 710h27v-294q40 26 92 48t117 22q54 0 99.5 -17t77.5 -49t50 -78t18 -104q0 -67 -21.5 -114.5t-57.5 -77.5
t-83 -43.5t-99 -13.5q-57 0 -114 15.5t-106 42.5v663z" />
    <glyph glyph-name="c" unicode="c" horiz-adv-x="569" 
d="M499 27q-33 -19 -70.5 -28.5t-82.5 -9.5q-62 0 -113.5 18.5t-88.5 51.5t-58 78.5t-21 99.5t21 100t58 79t88.5 51.5t113.5 18.5q82 0 147 -34v-30q-31 18 -67.5 28t-79.5 10q-56 0 -102.5 -16.5t-80 -46t-52 -70.5t-18.5 -90t18.5 -89.5t52 -70t80 -46t102.5 -16.5
q47 0 84 11t69 32v-31z" />
    <glyph glyph-name="d" unicode="d" 
d="M546 710v-710h-27v73q-15 -14 -36 -29t-47 -27t-57 -20t-67 -8q-51 0 -96 16t-78.5 47.5t-53 78t-19.5 107.5q0 63 21.5 109.5t58 77.5t86 46t106.5 15q44 0 89.5 -8.5t92.5 -25.5v258h27zM519 423q-45 18 -91.5 27.5t-91.5 9.5q-50 0 -94 -13t-77 -40t-52.5 -69
t-19.5 -100q0 -56 18 -98t48 -69.5t70 -41.5t84 -14q34 0 64.5 8t56.5 20.5t47.5 28.5t37.5 33v318z" />
    <glyph glyph-name="e" unicode="e" horiz-adv-x="626" 
d="M93 237q1 -60 21 -102t52.5 -69t75 -39t89.5 -12q55 0 110.5 13t103.5 42v-29q-47 -28 -102.5 -40t-111.5 -12q-52 0 -100 14t-85 44t-59 77t-22 113q0 54 18.5 100t52 79t79.5 51.5t101 18.5q52 0 96 -16.5t77 -46.5t53 -71.5t24 -90.5v-24h-473zM538 262
q-5 43 -22.5 79.5t-46.5 63t-68 41t-85 14.5q-47 0 -86.5 -14.5t-68 -41t-46 -63t-21.5 -79.5h444z" />
    <glyph glyph-name="f" unicode="f" horiz-adv-x="339" 
d="M120 0v450h-83v25h83v109q0 34 11 59.5t30.5 43t45 26t54.5 8.5q19 0 39 -3t40 -11v-27q-19 8 -39.5 11.5t-39.5 3.5q-23 0 -43.5 -6t-36.5 -19.5t-25 -34.5t-9 -50v-110h175v-25h-175v-450h-27z" />
    <glyph glyph-name="g" unicode="g" 
d="M546 -2q0 -53 -18 -90.5t-50 -61.5t-75.5 -35.5t-94.5 -11.5q-56 0 -112 15t-103 43v29q48 -29 104.5 -45t111.5 -16q43 0 81 9t66.5 29t45.5 53.5t17 83.5v73q-15 -14 -36 -29t-46.5 -27t-56.5 -20t-67 -8q-51 0 -96.5 16t-79 47.5t-53 78t-19.5 107.5q0 63 21.5 109.5
t58 77.5t86 46t106.5 15q51 0 103.5 -11t105.5 -34v-443zM519 423q-45 18 -91.5 27.5t-91.5 9.5q-50 0 -94 -13t-77 -40t-52.5 -69t-19.5 -100q0 -56 18 -98t48 -69.5t70 -41.5t84 -14q34 0 64.5 8t56.5 20.5t47.5 28.5t37.5 33v318z" />
    <glyph glyph-name="h" unicode="h" horiz-adv-x="655" 
d="M140 416q40 26 92 48t117 22q43 0 79.5 -10.5t63.5 -32t42.5 -54t15.5 -75.5v-314h-27v314q0 71 -48 108.5t-126 37.5q-64 0 -115.5 -22.5t-93.5 -52.5v-385h-27v710h27v-294z" />
    <glyph glyph-name="i" unicode="i" horiz-adv-x="253" 
d="M140 0h-27v475h27v-475zM141 604h-29v72h29v-72z" />
    <glyph glyph-name="j" unicode="j" horiz-adv-x="254" 
d="M141 604h-29v72h29v-72zM140 475v-589q0 -44 -25.5 -65.5t-64.5 -21.5q-17 0 -36.5 4t-33.5 12v28q17 -9 33 -13.5t37 -4.5q29 0 46 15.5t17 45.5v589h27z" />
    <glyph glyph-name="k" unicode="k" horiz-adv-x="535" 
d="M167 255l362 -255h-42l-347 242v-242h-27v710h27v-441l333 206h47z" />
    <glyph glyph-name="l" unicode="l" horiz-adv-x="276" 
d="M131 75q0 -30 17 -45.5t46 -15.5q21 0 37 4.5t33 13.5v-28q-14 -8 -33.5 -12t-36.5 -4q-39 0 -64.5 21.5t-25.5 65.5v635h27v-635z" />
    <glyph glyph-name="m" unicode="m" horiz-adv-x="1045" 
d="M140 475v-59q45 34 95.5 52t107.5 18q56 0 104 -20.5t73 -65.5q53 45 109.5 65.5t113.5 20.5q38 0 73.5 -9.5t63 -30.5t44 -53.5t16.5 -78.5v-314h-27v314q0 39 -14 66.5t-37.5 45.5t-54.5 26t-65 8q-58 0 -112 -22t-99 -63q9 -27 9 -61v-314h-27v314q0 39 -14 66.5
t-37.5 45.5t-54.5 26t-65 8q-57 0 -109 -20.5t-93 -54.5v-385h-27v475h27z" />
    <glyph glyph-name="n" unicode="n" horiz-adv-x="665" 
d="M140 475v-59q40 26 92 48t117 22q43 0 79.5 -10.5t63.5 -32t42.5 -54t15.5 -75.5v-314h-27v314q0 71 -48 108.5t-126 37.5q-64 0 -115.5 -22.5t-93.5 -52.5v-385h-27v475h27z" />
    <glyph glyph-name="o" unicode="o" horiz-adv-x="692" 
d="M346 486q61 0 113 -18.5t89 -51.5t58 -79t21 -100t-21 -99.5t-58 -78.5t-89 -51.5t-113 -18.5q-62 0 -113.5 18.5t-88.5 51.5t-58 78.5t-21 99.5t21 100t58 79t88.5 51.5t113.5 18.5zM346 460q-56 0 -102.5 -16.5t-80 -46t-52 -70.5t-18.5 -90t18.5 -89.5t52 -70t80 -46
t102.5 -16.5t102.5 16.5t80 46t52 70t18.5 89.5t-18.5 90t-52 70.5t-80 46t-102.5 16.5z" />
    <glyph glyph-name="p" unicode="p" 
d="M140 73q23 -14 45 -25t45.5 -18.5t50.5 -11t60 -3.5q43 0 84 12t72 39t50 69.5t19 102.5q0 52 -17 93.5t-46 70t-68.5 43.5t-85.5 15q-64 0 -115.5 -22.5t-93.5 -52.5v-312zM140 475v-59q40 26 92 48t117 22q54 0 99.5 -17t77.5 -49t50 -78t18 -104q0 -64 -20 -111
t-54.5 -77.5t-81 -45.5t-98.5 -15q-59 0 -108 14.5t-92 40.5v-234h-27v665h27z" />
    <glyph glyph-name="q" unicode="q" 
d="M519 423q-45 18 -91.5 27.5t-91.5 9.5q-50 0 -94 -13t-77 -40t-52.5 -69t-19.5 -100q0 -56 18 -98t48 -69.5t70 -41.5t84 -14q34 0 64.5 8t56.5 20.5t47.5 28.5t37.5 33v318zM546 -190h-27v263q-15 -14 -36 -29t-46.5 -27t-56.5 -20t-67 -8q-51 0 -96.5 16t-79 47.5
t-53 78t-19.5 107.5q0 63 21.5 109.5t58 77.5t86 46t106.5 15q51 0 103.5 -11t105.5 -34v-631z" />
    <glyph glyph-name="r" unicode="r" horiz-adv-x="388" 
d="M140 475v-82q19 18 45 35t56 30t62.5 20.5t64.5 7.5v-26q-62 0 -123 -27t-105 -72v-361h-27v475h27z" />
    <glyph glyph-name="s" unicode="s" horiz-adv-x="538" 
d="M460 418q-31 18 -80.5 30t-100.5 12q-38 0 -70.5 -6.5t-56.5 -20t-37.5 -33t-13.5 -45.5q0 -38 27 -57t68 -29.5t88.5 -17.5t88.5 -20.5t68 -38t27 -70.5q0 -33 -15 -57.5t-41.5 -41.5t-63.5 -25.5t-80 -8.5q-110 0 -197 52v28q42 -25 91.5 -39.5t106.5 -14.5
q79 0 125 26.5t46 78.5q0 39 -27 59.5t-68 32t-88.5 18.5t-88.5 20t-68 37t-27 68q0 60 55.5 95.5t150.5 35.5q57 0 106 -12.5t75 -27.5v-28z" />
    <glyph glyph-name="t" unicode="t" horiz-adv-x="362" 
d="M328 450h-188v-334q0 -53 31 -77t75 -24q49 0 92 23v-28q-21 -11 -45 -16t-47 -5q-28 0 -52.5 7.5t-42.5 23t-28 39.5t-10 57v334h-84v25h84l3 151h24v-151h188v-25z" />
    <glyph glyph-name="u" unicode="u" horiz-adv-x="638" 
d="M498 0v73q-15 -14 -36 -29t-46 -27t-54 -20t-61 -8q-45 0 -81.5 11t-62.5 34t-40.5 59.5t-14.5 87.5v294h27v-294q0 -45 12 -77t34.5 -51.5t54.5 -28.5t71 -9q30 0 58.5 8t54 20.5t47 28.5t37.5 33v370h27v-475h-27z" />
    <glyph glyph-name="v" unicode="v" horiz-adv-x="518" 
d="M270 0h-27l-238 475h29l222 -443l226 443h31z" />
    <glyph glyph-name="w" unicode="w" horiz-adv-x="868" 
d="M434 438l-196 -438h-26l-202 475h29l187 -441l195 441h26l195 -441l187 441h29l-202 -475h-26z" />
    <glyph glyph-name="x" unicode="x" horiz-adv-x="483" 
d="M241 220l-197 -220h-36l217 239l-212 236h34l194 -217l195 217h35l-213 -236l217 -239h-35z" />
    <glyph glyph-name="y" unicode="y" horiz-adv-x="638" 
d="M129 475v-294q0 -45 12 -77t34.5 -51.5t54.5 -28.5t71 -9q30 0 58.5 8t54 20.5t47 28.5t37.5 33v370h27v-477q0 -54 -19 -92t-51.5 -61.5t-74 -34.5t-86.5 -11t-90.5 10t-84.5 28v29q35 -18 81.5 -29.5t93.5 -11.5q39 0 76 9t65.5 29.5t45.5 53.5t17 81v75
q-15 -14 -36 -29t-46 -27t-54.5 -20t-61.5 -8q-44 0 -80.5 11t-62.5 34t-40.5 59.5t-14.5 87.5v294h27z" />
    <glyph glyph-name="z" unicode="z" horiz-adv-x="522" 
d="M464 452l-373 -424h382v-28h-419v24l374 426h-364v25h400v-23z" />
    <glyph glyph-name="braceleft" unicode="{" horiz-adv-x="337" 
d="M18 274q36 10 62 21t42.5 27.5t24.5 41.5t8 64v145q0 67 38 102t108 35h24v-26h-21q-59 0 -90 -26.5t-31 -84.5v-145q0 -39 -8.5 -67t-25 -47.5t-41.5 -32t-58 -21.5q33 -9 58 -21.5t41.5 -32t25 -47.5t8.5 -67v-145q0 -58 31 -84.5t90 -26.5h21v-26h-24q-70 0 -108 35
t-38 102v145q0 39 -8 64t-24.5 41.5t-42.5 27t-62 21.5v28z" />
    <glyph glyph-name="bar" unicode="|" horiz-adv-x="319" 
d="M171 -190h-27v990h27v-990z" />
    <glyph glyph-name="braceright" unicode="}" horiz-adv-x="337" 
d="M319.001 274q-35.998 10 -61.9961 21t-42.4971 27.5t-24.499 41.5q-7.99902 25 -7.99902 64v145q0 67 -37.998 102t-107.993 35h-23.999v-26h20.999q58.9961 0 89.9941 -26.5t30.998 -84.5v-145q0 -39 8.5 -67q8.49902 -28 24.998 -47.5t41.498 -32
q24.998 -12.5 57.9961 -21.5q-32.998 -9 -57.9961 -21.5q-24.999 -12.5 -41.498 -32t-24.998 -47.5q-8.5 -28 -8.5 -67v-145q0 -58 -30.998 -84.5t-89.9941 -26.5h-20.999v-26h23.999q69.9951 0 107.993 35t37.998 102v145q0 39 7.99902 64q8 25 24.499 41.5t42.4971 27
t61.9961 21.5v28z" />
    <glyph glyph-name="asciitilde" unicode="~" horiz-adv-x="680" 
d="M71 256q0 49 29.5 76t69.5 27q36 0 81 -12t92 -26.5t91 -26.5t77 -12q26 0 48.5 19t22.5 57h28q0 -49 -29.5 -76t-69.5 -27q-36 0 -81 12t-92 26.5t-91 26.5t-77 12q-26 0 -48.5 -19t-22.5 -57h-28z" />
    <glyph glyph-name="uni00A0" unicode="&#xa0;" horiz-adv-x="140" 
 />
    <glyph glyph-name="exclamdown" unicode="&#xa1;" horiz-adv-x="313" 
d="M174 -190h-36l4 495h28zM138 475h37v-54h-37v54z" />
    <glyph glyph-name="cent" unicode="&#xa2;" horiz-adv-x="586" 
d="M502 559q-65 28 -138 28q-58 0 -107 -16t-84.5 -47t-55.5 -77.5t-20 -106.5q0 -58 19 -104t54 -77.5t84.5 -48.5t109.5 -17q78 0 144 32v-29q-62 -31 -144 -31h-14.5t-13.5 1v-176h-26v178q-56 7 -101 29.5t-76.5 58t-48.5 82t-17 102.5t17 102.5t48.5 82t76.5 57.5
t101 30v165h26v-163q7 1 13.5 1h14.5q41 0 73.5 -6.5t64.5 -19.5v-30v0z" />
    <glyph glyph-name="sterling" unicode="&#xa3;" horiz-adv-x="586" 
d="M509 619q-47 22 -88.5 31t-84.5 9q-45 0 -80 -11t-60 -30.5t-38 -47t-13 -60.5q0 -19 2 -34.5t6 -32t10.5 -34.5t14.5 -41h261v-28h-250q9 -29 18 -64t9 -61q0 -37 -10 -65t-27.5 -50t-41.5 -39.5t-52 -32.5h434v-28h-484v28q37 21 65 40t47 40t28.5 47t9.5 60
q0 28 -8.5 60.5t-19.5 64.5h-119v28h108q-8 21 -13.5 38.5t-9 34t-5.5 33t-2 35.5q0 39 15 72t43.5 56.5t68.5 36.5t90 13q54 0 97.5 -10t78.5 -27v-31z" />
    <glyph glyph-name="currency" unicode="&#xa4;" horiz-adv-x="680" 
d="M533 339q0 -37 -12.5 -69.5t-35.5 -58.5l94 -94l-16 -16l-94 94q-26 -23 -58.5 -36t-70.5 -13t-70.5 13t-58.5 36l-94 -94l-16 16l94 94q-23 26 -35.5 58.5t-12.5 69.5t12.5 69.5t35.5 58.5l-94 94l16 16l94 -94q26 23 58.5 36t70.5 13t70.5 -13t58.5 -36l94 94l16 -16
l-94 -94q23 -26 35.5 -58.5t12.5 -69.5zM508 339q0 35 -13 65.5t-36 53.5t-53.5 36t-65.5 13t-65.5 -13t-53.5 -36t-36 -53.5t-13 -65.5t13 -65.5t36 -53.5t53.5 -36t65.5 -13t65.5 13t53.5 36t36 53.5t13 65.5z" />
    <glyph glyph-name="yen" unicode="&#xa5;" horiz-adv-x="650" 
d="M341 335h210v-28h-218v-134h218v-28h-218v-145h-31v145h-218v28h218v134h-218v28h209l-263 341h36l252 -326l267 326h35z" />
    <glyph glyph-name="brokenbar" unicode="&#xa6;" horiz-adv-x="319" 
d="M171 390h-27v410h27v-410zM171 -190h-27v410h27v-410z" />
    <glyph glyph-name="section" unicode="&#xa7;" horiz-adv-x="1183" 
d="M831 687q54 0 100.5 -21t81 -64.5t54 -109t19.5 -154.5t-19.5 -154.5t-54 -109t-81 -64.5t-100.5 -21q-84 0 -148.5 51.5t-91.5 158.5q-13 -53 -36.5 -92.5t-54.5 -65.5t-68.5 -39t-79.5 -13q-54 0 -100.5 21t-81 64.5t-54 109t-19.5 154.5t19.5 154.5t54 109t81 64.5
t100.5 21q83 0 148 -52t91 -159q27 107 91.5 159t148.5 52zM831 659q-55 0 -96.5 -22t-70 -63.5t-43 -101t-14.5 -134.5t14.5 -134.5t43 -101t70 -63.5t96.5 -22t96.5 22t70 63.5t43 101t14.5 134.5t-14.5 134.5t-43 101t-70 63.5t-96.5 22zM352 659q-55 0 -96.5 -22
t-70 -63.5t-43 -101t-14.5 -134.5t14.5 -134.5t43 -101t70 -63.5t96.5 -22q107 0 165.5 83t58.5 238t-58.5 238t-165.5 83z" />
    <glyph glyph-name="dieresis" unicode="&#xa8;" horiz-adv-x="600" 
d="M219 604h-29v72h29v-72zM410 604h-29v72h29v-72z" />
    <glyph glyph-name="copyright" unicode="&#xa9;" horiz-adv-x="974" 
d="M638 477q-29 14 -63.5 21t-64.5 7q-41 0 -76 -10t-61 -31t-41 -52.5t-15 -73.5t15 -73.5t41 -52.5t61 -31t76 -10q30 0 65.5 8t64.5 22v-27q-26 -14 -63 -21.5t-67 -7.5q-46 0 -86.5 12t-70.5 36.5t-47 60.5t-17 84t17 84t47 60.5t70.5 36.5t86.5 12q30 0 66 -6.5
t62 -20.5v-27zM486 659q-84 0 -153.5 -21.5t-118.5 -62.5t-76 -101t-27 -136q0 -77 27 -136.5t76 -100.5t118.5 -62.5t153.5 -21.5q85 0 155 21.5t119 62.5t76 100.5t27 136.5q0 76 -27 136t-76 101t-119 62.5t-155 21.5zM487 687q92 0 167 -24t128 -69.5t81.5 -110
t28.5 -145.5t-28.5 -145.5t-81.5 -109.5t-128 -69.5t-167 -24.5t-166.5 24.5t-127.5 69.5t-82 109.5t-29 145.5t29 145.5t82 110t127.5 69.5t166.5 24z" />
    <glyph glyph-name="ordfeminine" unicode="&#xaa;" horiz-adv-x="497" 
d="M373 389h-26v38q-19 -19 -50 -31.5t-63 -12.5q-30 0 -57 9t-47.5 28t-32.5 47t-12 66q0 41 15 70t39.5 48t56 27.5t65.5 8.5q29 0 57.5 -5.5t54.5 -14.5v-278zM347 647q-40 14 -85 14q-29 0 -56 -7t-48 -22.5t-33.5 -40t-12.5 -59.5q0 -33 10 -56t27 -37.5t39 -21.5
t46 -7q34 0 64.5 13t48.5 35v189z" />
    <glyph glyph-name="guillemotleft" unicode="&#xab;" horiz-adv-x="580" 
d="M317 248l169 199h33l-167 -199l167 -199h-33zM61 248l169 199h33l-167 -199l167 -199h-33z" />
    <glyph glyph-name="logicalnot" unicode="&#xac;" horiz-adv-x="680" 
d="M614 204h-27v195h-521v27h548v-222z" />
    <glyph glyph-name="uni00AD" unicode="&#xad;" horiz-adv-x="457" 
d="M354 282h-251v27h251v-27z" />
    <glyph glyph-name="registered" unicode="&#xae;" horiz-adv-x="640" 
d="M333 586q38 0 61 -16t23 -45t-19.5 -43.5t-54.5 -17.5l84 -93h-29l-82 91h-40v-91h-24v215h81zM276 485h58q27 0 42.5 10.5t15.5 28.5q0 20 -16 29.5t-43 9.5h-57v-78zM320 687q52 0 96.5 -15.5t77 -43t51 -66.5t18.5 -85q0 -47 -18.5 -85.5t-51 -66t-77 -43t-96.5 -15.5
t-96.5 15.5t-77 43t-51 66t-18.5 85.5q0 46 18.5 85t51 66.5t77 43t96.5 15.5zM320 662q-45 0 -85 -13t-69 -37t-46 -58t-17 -77q0 -42 17 -76.5t46 -59t69 -37.5t85 -13q46 0 85.5 13t68.5 37.5t46 59t17 76.5q0 43 -17 77t-46 58t-68.5 37t-85.5 13z" />
    <glyph glyph-name="macron" unicode="&#xaf;" horiz-adv-x="600" 
d="M432 622h-264v24h264v-24z" />
    <glyph glyph-name="degree" unicode="&#xb0;" horiz-adv-x="379" 
d="M316 561q0 -26 -10 -49t-27 -39.5t-40 -26t-49 -9.5t-49.5 9.5t-40.5 26t-27 39.5t-10 49q0 27 10 50t27 40t40.5 26.5t49.5 9.5t49 -9.5t40 -26.5t27 -40t10 -50zM290 561q0 43 -28.5 72t-71.5 29t-72 -29t-29 -72q0 -42 29 -70.5t72 -28.5t71.5 28.5t28.5 70.5z" />
    <glyph glyph-name="plusminus" unicode="&#xb1;" horiz-adv-x="680" 
d="M614 0h-548v28h548v-28zM614 301h-260v-209h-27v209h-261v27h261v209h27v-209h260v-27z" />
    <glyph glyph-name="twosuperior" unicode="&#xb2;" horiz-adv-x="449" 
d="M354 264h-286v23l163 145q21 19 37.5 34.5t27.5 30.5t17 31.5t6 37.5q0 25 -10 43t-26.5 29t-38 16t-44.5 5q-33 0 -65 -9t-54 -23v29q23 14 54 22.5t64 8.5q28 0 55 -6.5t48 -21.5t34 -38t13 -56q0 -25 -8.5 -46t-22 -39t-31.5 -34.5t-36 -32.5l-140 -122h243v-27z" />
    <glyph glyph-name="threesuperior" unicode="&#xb3;" horiz-adv-x="459" 
d="M80 649v27h279v-26l-157 -144h7q29 0 58 -6.5t52.5 -20.5t38 -37t14.5 -57q0 -30 -12.5 -53t-35 -39t-54 -24.5t-68.5 -8.5t-70 8.5t-56 19.5v28q24 -12 56.5 -21t69.5 -9q26 0 51 5.5t45 17t32.5 30.5t12.5 46q0 30 -13 48.5t-34 29t-46.5 14t-49.5 3.5
q-14 0 -24.5 -0.5t-16.5 -1.5v24l161 147h-240z" />
    <glyph glyph-name="acute" unicode="&#xb4;" horiz-adv-x="600" 
d="M318 710h35l-108 -151h-27z" />
    <glyph glyph-name="mu" unicode="&#xb5;" horiz-adv-x="649" 
d="M113 475h27v-295q0 -45 12.5 -76.5t35 -51t54.5 -28.5t70 -9q30 0 58.5 8t54 20.5t47 28.5t37.5 33v370h27v-475h-27v73q-15 -14 -36 -29t-46 -27t-54.5 -20t-61.5 -8q-60 0 -104 20t-67 63v-262h-27v665z" />
    <glyph glyph-name="paragraph" unicode="&#xb6;" horiz-adv-x="786" 
d="M454 -190h-31v433h-36q-71 0 -129.5 12t-100.5 38t-65 67t-23 99t23 99.5t65 67.5t100.5 38t129.5 12h67v-866zM655 -190h-30v866h30v-866z" />
    <glyph glyph-name="periodcentered" unicode="&#xb7;" horiz-adv-x="270" 
d="M116 323h37v-54h-37v54z" />
    <glyph glyph-name="cedilla" unicode="&#xb8;" horiz-adv-x="600" 
d="M227 -157q28 -11 59 -11q24 0 43 11t19 36q0 23 -18.5 33t-42.5 10h-40l25 78h26l-17 -54h6q16 0 31.5 -3.5t28.5 -11t21 -20.5t8 -32q0 -32 -24.5 -52t-65.5 -20q-18 0 -32 2.5t-27 7.5v26z" />
    <glyph glyph-name="onesuperior" unicode="&#xb9;" horiz-adv-x="341" 
d="M206 264h-29v385h-125v27h154v-412z" />
    <glyph glyph-name="ordmasculine" unicode="&#xba;" horiz-adv-x="477" 
d="M403 536q0 -33 -12.5 -60.5t-35 -48t-52.5 -31.5t-65 -11t-65 11t-52.5 31.5t-35 48t-12.5 60.5t12.5 60.5t35 48t52.5 31.5t65 11t65 -11t52.5 -31.5t35 -48t12.5 -60.5zM375 536q0 59 -37 92t-100 33t-100 -33t-37 -92t37 -92t100 -33t100 33t37 92z" />
    <glyph glyph-name="guillemotright" unicode="&#xbb;" horiz-adv-x="580" 
d="M519.004 248l-168.99 199h-32.998l166.99 -199l-166.99 -199h32.998zM263.004 248l-168.99 199h-32.998l166.99 -199l-166.99 -199h32.998z" />
    <glyph glyph-name="onequarter" unicode="&#xbc;" horiz-adv-x="820" 
d="M660 420h28v-294h74v-27h-74v-99h-30v99h-241v22zM658 126v248l-203 -248h203zM175 0h-32l441 676h33zM206 264h-29v385h-125v27h154v-412z" />
    <glyph glyph-name="onehalf" unicode="&#xbd;" horiz-adv-x="899" 
d="M175 0h-32l441 676h33zM206 264h-29v385h-125v27h154v-412zM804 1h-286v23l163 145q21 19 37.5 34.5t27.5 30.5t17 31.5t6 37.5q0 25 -10 43t-26.5 29t-38 16t-44.5 5q-33 0 -65 -9t-54 -23v29q23 14 54 22.5t64 8.5q28 0 55 -6.5t48 -21.5t34 -38t13 -56q0 -25 -8.5 -46
t-22 -39t-31.5 -34.5t-36 -32.5l-140 -122h243v-27z" />
    <glyph glyph-name="threequarters" unicode="&#xbe;" horiz-adv-x="915" 
d="M755 420h28v-294h74v-27h-74v-99h-30v99h-241v22zM753 126v248l-203 -248h203zM291 0h-32l441 676h33zM80 649v27h279v-26l-157 -144h7q29 0 58 -6.5t52.5 -20.5t38 -37t14.5 -57q0 -30 -12.5 -53t-35 -39t-54 -24.5t-68.5 -8.5t-70 8.5t-56 19.5v28q24 -12 56.5 -21
t69.5 -9q26 0 51 5.5t45 17t32.5 30.5t12.5 46q0 30 -13 48.5t-34 29t-46.5 14t-49.5 3.5q-14 0 -24.5 -0.5t-16.5 -1.5v24l161 147h-240z" />
    <glyph glyph-name="questiondown" unicode="&#xbf;" horiz-adv-x="342" 
d="M226 245q0 -27 -7 -48t-20 -39.5t-31.5 -36.5t-41.5 -39q-35 -32 -61 -65.5t-26 -79.5q0 -32 12 -53.5t31.5 -34t45.5 -17.5t54 -5q35 0 73 8.5t65 22.5v-28q-26 -14 -64 -22.5t-76 -8.5q-36 0 -67.5 8t-55 25t-36.5 43t-13 61q0 30 9 53.5t23.5 43t32 36.5t34.5 34
q22 22 39 37.5t28.5 30.5t17 31.5t5.5 42.5v67h29v-67zM230 421h-37v54h37v-54z" />
    <glyph glyph-name="Agrave" unicode="&#xc0;" horiz-adv-x="676" 
d="M0 0l324 676h30l322 -676h-33l-101 211h-409l-100 -211h-33zM338 639l-191 -400h382zM355 744h-27l-108 151h35z" />
    <glyph glyph-name="Aacute" unicode="&#xc1;" horiz-adv-x="676" 
d="M0 0l324 676h30l322 -676h-33l-101 211h-409l-100 -211h-33zM338 639l-191 -400h382zM426 895h35l-108 -151h-27z" />
    <glyph glyph-name="Acircumflex" unicode="&#xc2;" horiz-adv-x="676" 
d="M0 0l324 676h30l322 -676h-33l-101 211h-409l-100 -211h-33zM338 639l-191 -400h382zM350 895l113 -151h-27l-98 121l-98 -121h-27l113 151h24z" />
    <glyph glyph-name="Atilde" unicode="&#xc3;" horiz-adv-x="676" 
d="M0 0l324 676h30l322 -676h-33l-101 211h-409l-100 -211h-33zM338 639l-191 -400h382zM193 770q1 18 6 35.5t14 31.5t23 22.5t33 8.5t37.5 -11.5t36.5 -25t34 -24.5t30 -11q13 0 22 6.5t15 16.5t9 22.5t3 24.5h27q-1 -18 -6 -35.5t-14 -31.5t-23 -22.5t-33 -8.5
q-18 0 -36.5 11.5t-36.5 25t-34.5 25t-30.5 11.5q-26 0 -37 -23t-12 -48h-27z" />
    <glyph glyph-name="Adieresis" unicode="&#xc4;" horiz-adv-x="676" 
d="M0 0l324 676h30l322 -676h-33l-101 211h-409l-100 -211h-33zM338 639l-191 -400h382zM257 782h-29v72h29v-72zM448 782h-29v72h29v-72z" />
    <glyph glyph-name="Aring" unicode="&#xc5;" horiz-adv-x="676" 
d="M0 0l324 676h30l322 -676h-33l-101 211h-409l-100 -211h-33zM338 639l-191 -400h382zM338 731q-21 0 -40.5 5.5t-35.5 17t-25.5 28t-9.5 38.5q0 21 9.5 37t25.5 27.5t35.5 17t40.5 5.5t40.5 -5.5t35.5 -17t25.5 -27.5t9.5 -37q0 -22 -9.5 -38.5t-25.5 -28t-35.5 -17
t-40.5 -5.5zM338 882q-35 0 -59 -16.5t-24 -46.5t24 -46.5t59 -16.5t59 16.5t24 46.5t-24 46.5t-59 16.5z" />
    <glyph glyph-name="AE" unicode="&#xc6;" horiz-adv-x="987" 
d="M887 648h-388v-279h361v-28h-361v-193q0 -60 33 -90t114 -30h263v-28h-263q-98 0 -138 39t-40 109v63h-313l-153 -211h-34l484 676h435v-28zM173 239h295v408z" />
    <glyph glyph-name="Ccedilla" unicode="&#xc7;" horiz-adv-x="745" 
d="M344 -157q28 -11 59 -11q24 0 43 11t19 36q0 23 -18.5 33t-42.5 10h-40l24 75q-71 12 -127.5 41.5t-96 73.5t-61 101t-21.5 125q0 78 28.5 142.5t81 110.5t126.5 71t165 25q54 0 97.5 -7.5t85.5 -23.5v-29q-43 17 -87 24.5t-96 7.5q-84 0 -152.5 -23t-116.5 -65
t-74.5 -101.5t-26.5 -131.5t26.5 -131.5t74.5 -101.5t116.5 -65t152.5 -23q56 0 103.5 10t88.5 28v-29q-41 -17 -88 -27t-104 -10q-18 0 -35.5 1t-34.5 3l-15 -47h6q16 0 31.5 -3.5t28.5 -11t21 -20.5t8 -32q0 -32 -24.5 -52t-65.5 -20q-18 0 -32 2.5t-27 7.5v26z" />
    <glyph glyph-name="Egrave" unicode="&#xc8;" horiz-adv-x="650" 
d="M550 676v-28h-388v-279h361v-28h-361v-193q0 -60 33 -90t114 -30h263v-28h-263q-98 0 -138 39t-40 109v528h419zM365 744h-27l-108 151h35z" />
    <glyph glyph-name="Eacute" unicode="&#xc9;" horiz-adv-x="650" 
d="M550 676v-28h-388v-279h361v-28h-361v-193q0 -60 33 -90t114 -30h263v-28h-263q-98 0 -138 39t-40 109v528h419zM414 895h35l-108 -151h-27z" />
    <glyph glyph-name="Ecircumflex" unicode="&#xca;" horiz-adv-x="650" 
d="M550 676v-28h-388v-279h361v-28h-361v-193q0 -60 33 -90t114 -30h263v-28h-263q-98 0 -138 39t-40 109v528h419zM351 895l113 -151h-27l-98 121l-98 -121h-27l113 151h24z" />
    <glyph glyph-name="Edieresis" unicode="&#xcb;" horiz-adv-x="650" 
d="M550 676v-28h-388v-279h361v-28h-361v-193q0 -60 33 -90t114 -30h263v-28h-263q-98 0 -138 39t-40 109v528h419zM258 784h-29v72h29v-72zM449 784h-29v72h29v-72z" />
    <glyph glyph-name="Igrave" unicode="&#xcc;" horiz-adv-x="313" 
d="M172 0h-31v676h31v-676zM172 744h-27l-108 151h35z" />
    <glyph glyph-name="Iacute" unicode="&#xcd;" horiz-adv-x="313" 
d="M172 0h-31v676h31v-676zM243 895h35l-108 -151h-27z" />
    <glyph glyph-name="Icircumflex" unicode="&#xce;" horiz-adv-x="313" 
d="M172 0h-31v676h31v-676zM169 895l113 -151h-27l-98 121l-98 -121h-27l113 151h24z" />
    <glyph glyph-name="Idieresis" unicode="&#xcf;" horiz-adv-x="313" 
d="M172 0h-31v676h31v-676zM76 783h-29v72h29v-72zM267 783h-29v72h29v-72z" />
    <glyph glyph-name="Eth" unicode="&#xd0;" horiz-adv-x="885" 
d="M350 676q118 0 203.5 -24.5t141 -69.5t82 -107t26.5 -137t-26.5 -137.5t-82 -107t-141 -69t-203.5 -24.5h-209v340h-101v28h101v308h209zM172 368h293v-28h-293v-312h178q99 0 177 19.5t132.5 58.5t83.5 97t29 135q0 78 -29 136t-83.5 96.5t-132.5 58t-177 19.5h-178
v-280z" />
    <glyph glyph-name="Ntilde" unicode="&#xd1;" horiz-adv-x="911" 
d="M769 0h-39l-558 639v-639h-31v676h39l558 -642v642h31v-676zM310 770q1 18 6 35.5t14 31.5t23 22.5t33 8.5t37.5 -11.5t36.5 -25t34 -24.5t30 -11q13 0 22 6.5t15 16.5t9 22.5t3 24.5h27q-1 -18 -6 -35.5t-14 -31.5t-23 -22.5t-33 -8.5q-18 0 -36.5 11.5t-36.5 25
t-34.5 25t-30.5 11.5q-26 0 -37 -23t-12 -48h-27z" />
    <glyph glyph-name="Ograve" unicode="&#xd2;" horiz-adv-x="966" 
d="M884 338q0 -78 -28.5 -142.5t-81 -110.5t-126.5 -71t-165 -25t-165 25t-126.5 71t-81 110.5t-28.5 142.5t28.5 142.5t81 110.5t126.5 71t165 25t165 -25t126.5 -71t81 -110.5t28.5 -142.5zM853 338q0 72 -26.5 131.5t-74.5 101.5t-116.5 65t-152.5 23t-152.5 -23
t-116.5 -65t-74.5 -101.5t-26.5 -131.5t26.5 -131.5t74.5 -101.5t116.5 -65t152.5 -23t152.5 23t116.5 65t74.5 101.5t26.5 131.5zM490 744h-27l-108 151h35z" />
    <glyph glyph-name="Oacute" unicode="&#xd3;" horiz-adv-x="966" 
d="M884 338q0 -78 -28.5 -142.5t-81 -110.5t-126.5 -71t-165 -25t-165 25t-126.5 71t-81 110.5t-28.5 142.5t28.5 142.5t81 110.5t126.5 71t165 25t165 -25t126.5 -71t81 -110.5t28.5 -142.5zM853 338q0 72 -26.5 131.5t-74.5 101.5t-116.5 65t-152.5 23t-152.5 -23
t-116.5 -65t-74.5 -101.5t-26.5 -131.5t26.5 -131.5t74.5 -101.5t116.5 -65t152.5 -23t152.5 23t116.5 65t74.5 101.5t26.5 131.5zM563 895h35l-108 -151h-27z" />
    <glyph glyph-name="Ocircumflex" unicode="&#xd4;" horiz-adv-x="966" 
d="M884 338q0 -78 -28.5 -142.5t-81 -110.5t-126.5 -71t-165 -25t-165 25t-126.5 71t-81 110.5t-28.5 142.5t28.5 142.5t81 110.5t126.5 71t165 25t165 -25t126.5 -71t81 -110.5t28.5 -142.5zM853 338q0 72 -26.5 131.5t-74.5 101.5t-116.5 65t-152.5 23t-152.5 -23
t-116.5 -65t-74.5 -101.5t-26.5 -131.5t26.5 -131.5t74.5 -101.5t116.5 -65t152.5 -23t152.5 23t116.5 65t74.5 101.5t26.5 131.5zM495 895l113 -151h-27l-98 121l-98 -121h-27l113 151h24z" />
    <glyph glyph-name="Otilde" unicode="&#xd5;" horiz-adv-x="966" 
d="M884 338q0 -78 -28.5 -142.5t-81 -110.5t-126.5 -71t-165 -25t-165 25t-126.5 71t-81 110.5t-28.5 142.5t28.5 142.5t81 110.5t126.5 71t165 25t165 -25t126.5 -71t81 -110.5t28.5 -142.5zM853 338q0 72 -26.5 131.5t-74.5 101.5t-116.5 65t-152.5 23t-152.5 -23
t-116.5 -65t-74.5 -101.5t-26.5 -131.5t26.5 -131.5t74.5 -101.5t116.5 -65t152.5 -23t152.5 23t116.5 65t74.5 101.5t26.5 131.5zM338 770q1 18 6 35.5t14 31.5t23 22.5t33 8.5t37.5 -11.5t36.5 -25t34 -24.5t30 -11q13 0 22 6.5t15 16.5t9 22.5t3 24.5h27q-1 -18 -6 -35.5
t-14 -31.5t-23 -22.5t-33 -8.5q-18 0 -36.5 11.5t-36.5 25t-34.5 25t-30.5 11.5q-26 0 -37 -23t-12 -48h-27z" />
    <glyph glyph-name="Odieresis" unicode="&#xd6;" horiz-adv-x="966" 
d="M884 338q0 -78 -28.5 -142.5t-81 -110.5t-126.5 -71t-165 -25t-165 25t-126.5 71t-81 110.5t-28.5 142.5t28.5 142.5t81 110.5t126.5 71t165 25t165 -25t126.5 -71t81 -110.5t28.5 -142.5zM853 338q0 72 -26.5 131.5t-74.5 101.5t-116.5 65t-152.5 23t-152.5 -23
t-116.5 -65t-74.5 -101.5t-26.5 -131.5t26.5 -131.5t74.5 -101.5t116.5 -65t152.5 -23t152.5 23t116.5 65t74.5 101.5t26.5 131.5zM402 785h-29v72h29v-72zM593 785h-29v72h29v-72z" />
    <glyph glyph-name="multiply" unicode="&#xd7;" horiz-adv-x="680" 
d="M357 314l199 -198l-18 -20l-199 197l-198 -197l-18 20l199 198l-199 197l18 21l200 -197l197 197l18 -21z" />
    <glyph glyph-name="Oslash" unicode="&#xd8;" horiz-adv-x="966" 
d="M884 338q0 -78 -28.5 -142.5t-81 -110.5t-126.5 -71t-165 -25q-144 0 -243 61l-80 -88l-19 19l76 84q-65 46 -100 115.5t-35 157.5q0 78 28.5 142.5t81 110.5t126.5 71t165 25q72 0 132.5 -16t109.5 -45l80 88l20 -18l-77 -85q65 -46 100.5 -115.5t35.5 -157.5zM853 338
q0 81 -32.5 145t-92.5 106l-468 -517q90 -55 223 -55q84 0 152.5 23t116.5 65t74.5 101.5t26.5 131.5zM113 338q0 -81 32 -145t92 -106l468 517q-45 26 -100.5 40.5t-121.5 14.5q-84 0 -152.5 -23t-116.5 -65t-74.5 -101.5t-26.5 -131.5z" />
    <glyph glyph-name="Ugrave" unicode="&#xd9;" horiz-adv-x="797" 
d="M676 230q0 -61 -23 -106.5t-61 -75.5t-88 -44.5t-105 -14.5t-105 14.5t-88.5 44.5t-61.5 75.5t-23 106.5v446h31v-446q0 -54 20 -94.5t54 -66.5t79 -39t94 -13q51 0 96 13.5t79 40.5t53.5 66.5t19.5 92.5v446h29v-446zM413 744h-27l-108 151h35z" />
    <glyph glyph-name="Uacute" unicode="&#xda;" horiz-adv-x="797" 
d="M676 230q0 -61 -23 -106.5t-61 -75.5t-88 -44.5t-105 -14.5t-105 14.5t-88.5 44.5t-61.5 75.5t-23 106.5v446h31v-446q0 -54 20 -94.5t54 -66.5t79 -39t94 -13q51 0 96 13.5t79 40.5t53.5 66.5t19.5 92.5v446h29v-446zM479 895h35l-108 -151h-27z" />
    <glyph glyph-name="Ucircumflex" unicode="&#xdb;" horiz-adv-x="797" 
d="M676 230q0 -61 -23 -106.5t-61 -75.5t-88 -44.5t-105 -14.5t-105 14.5t-88.5 44.5t-61.5 75.5t-23 106.5v446h31v-446q0 -54 20 -94.5t54 -66.5t79 -39t94 -13q51 0 96 13.5t79 40.5t53.5 66.5t19.5 92.5v446h29v-446zM410 895l113 -151h-27l-98 121l-98 -121h-27
l113 151h24z" />
    <glyph glyph-name="Udieresis" unicode="&#xdc;" horiz-adv-x="797" 
d="M676 230q0 -61 -23 -106.5t-61 -75.5t-88 -44.5t-105 -14.5t-105 14.5t-88.5 44.5t-61.5 75.5t-23 106.5v446h31v-446q0 -54 20 -94.5t54 -66.5t79 -39t94 -13q51 0 96 13.5t79 40.5t53.5 66.5t19.5 92.5v446h29v-446zM317 782h-29v72h29v-72zM508 782h-29v72h29v-72z
" />
    <glyph glyph-name="Yacute" unicode="&#xdd;" horiz-adv-x="630" 
d="M331 274v-274h-31v274l-300 402h35l281 -371l278 371h36zM397 895h35l-108 -151h-27z" />
    <glyph glyph-name="Thorn" unicode="&#xde;" horiz-adv-x="687" 
d="M141 676h31v-134h171q137 0 206 -53.5t69 -144.5t-69 -144.5t-206 -53.5h-171v-146h-31v676zM172 514v-340h171q118 0 181 44.5t63 125.5t-63 125.5t-181 44.5h-171z" />
    <glyph glyph-name="germandbls" unicode="&#xdf;" horiz-adv-x="621" 
d="M113 0v555q0 36 14 66t39.5 52.5t60.5 35t78 12.5t78 -12.5t60.5 -34.5t39.5 -52.5t14 -66.5q0 -31 -9 -54t-22 -41t-29 -32t-29 -27.5t-22 -28t-9 -32.5q0 -24 14 -40.5t35 -30.5t46 -27t46 -30t35 -40.5t14 -57.5q0 -56 -44 -90.5t-129 -34.5q-46 0 -90 12t-70 27v28
q30 -17 72 -29t89 -12q66 0 106 26t40 72q0 30 -14 50.5t-35 36t-45.5 28.5t-45.5 28t-35 35t-14 49q0 21 9 38t22 31.5t29 28.5t29 31t22 37.5t9 48.5q0 65 -46.5 102.5t-120.5 37.5t-119.5 -37.5t-45.5 -102.5v-555h-27z" />
    <glyph glyph-name="agrave" unicode="&#xe0;" 
d="M519 423q-45 18 -91.5 27.5t-91.5 9.5q-50 0 -94 -13t-77 -40t-52.5 -69t-19.5 -100q0 -56 18 -98t48 -69.5t70 -41.5t84 -14q34 0 64.5 8t56.5 20.5t47.5 28.5t37.5 33v318zM313 -11q-51 0 -96.5 16t-79 47.5t-53 78t-19.5 107.5q0 63 21.5 109.5t58 77.5t86 46
t106.5 15q51 0 103.5 -11t105.5 -34v-441h-27v73q-15 -14 -36 -29t-46.5 -27t-56.5 -20t-67 -8zM343 559h-27l-108 151h35z" />
    <glyph glyph-name="aacute" unicode="&#xe1;" 
d="M519 423q-45 18 -91.5 27.5t-91.5 9.5q-50 0 -94 -13t-77 -40t-52.5 -69t-19.5 -100q0 -56 18 -98t48 -69.5t70 -41.5t84 -14q34 0 64.5 8t56.5 20.5t47.5 28.5t37.5 33v318zM313 -11q-51 0 -96.5 16t-79 47.5t-53 78t-19.5 107.5q0 63 21.5 109.5t58 77.5t86 46
t106.5 15q51 0 103.5 -11t105.5 -34v-441h-27v73q-15 -14 -36 -29t-46.5 -27t-56.5 -20t-67 -8zM391 710h35l-108 -151h-27z" />
    <glyph glyph-name="acircumflex" unicode="&#xe2;" 
d="M519 423q-45 18 -91.5 27.5t-91.5 9.5q-50 0 -94 -13t-77 -40t-52.5 -69t-19.5 -100q0 -56 18 -98t48 -69.5t70 -41.5t84 -14q34 0 64.5 8t56.5 20.5t47.5 28.5t37.5 33v318zM313 -11q-51 0 -96.5 16t-79 47.5t-53 78t-19.5 107.5q0 63 21.5 109.5t58 77.5t86 46
t106.5 15q51 0 103.5 -11t105.5 -34v-441h-27v73q-15 -14 -36 -29t-46.5 -27t-56.5 -20t-67 -8zM325 710l113 -151h-27l-98 121l-98 -121h-27l113 151h24z" />
    <glyph glyph-name="atilde" unicode="&#xe3;" 
d="M519 423q-45 18 -91.5 27.5t-91.5 9.5q-50 0 -94 -13t-77 -40t-52.5 -69t-19.5 -100q0 -56 18 -98t48 -69.5t70 -41.5t84 -14q34 0 64.5 8t56.5 20.5t47.5 28.5t37.5 33v318zM313 -11q-51 0 -96.5 16t-79 47.5t-53 78t-19.5 107.5q0 63 21.5 109.5t58 77.5t86 46
t106.5 15q51 0 103.5 -11t105.5 -34v-441h-27v73q-15 -14 -36 -29t-46.5 -27t-56.5 -20t-67 -8zM168 587q1 18 6 35.5t14 31.5t23 22.5t33 8.5t37.5 -11.5t36.5 -25t34 -24.5t30 -11q13 0 22 6.5t15 16.5t9 22.5t3 24.5h27q-1 -18 -6 -35.5t-14 -31.5t-23 -22.5t-33 -8.5
q-18 0 -36.5 11.5t-36.5 25t-34.5 25t-30.5 11.5q-26 0 -37 -23t-12 -48h-27z" />
    <glyph glyph-name="adieresis" unicode="&#xe4;" 
d="M519 423q-45 18 -91.5 27.5t-91.5 9.5q-50 0 -94 -13t-77 -40t-52.5 -69t-19.5 -100q0 -56 18 -98t48 -69.5t70 -41.5t84 -14q34 0 64.5 8t56.5 20.5t47.5 28.5t37.5 33v318zM313 -11q-51 0 -96.5 16t-79 47.5t-53 78t-19.5 107.5q0 63 21.5 109.5t58 77.5t86 46
t106.5 15q51 0 103.5 -11t105.5 -34v-441h-27v73q-15 -14 -36 -29t-46.5 -27t-56.5 -20t-67 -8zM232 604h-29v72h29v-72zM423 604h-29v72h29v-72z" />
    <glyph glyph-name="aring" unicode="&#xe5;" 
d="M519 423q-45 18 -91.5 27.5t-91.5 9.5q-50 0 -94 -13t-77 -40t-52.5 -69t-19.5 -100q0 -56 18 -98t48 -69.5t70 -41.5t84 -14q34 0 64.5 8t56.5 20.5t47.5 28.5t37.5 33v318zM313 -11q-51 0 -96.5 16t-79 47.5t-53 78t-19.5 107.5q0 63 21.5 109.5t58 77.5t86 46
t106.5 15q51 0 103.5 -11t105.5 -34v-441h-27v73q-15 -14 -36 -29t-46.5 -27t-56.5 -20t-67 -8zM313 546q-21 0 -40.5 5.5t-35.5 17t-25.5 28t-9.5 38.5q0 21 9.5 37t25.5 27.5t35.5 17t40.5 5.5t40.5 -5.5t35.5 -17t25.5 -27.5t9.5 -37q0 -22 -9.5 -38.5t-25.5 -28
t-35.5 -17t-40.5 -5.5zM313 697q-35 0 -59 -16.5t-24 -46.5t24 -46.5t59 -16.5t59 16.5t24 46.5t-24 46.5t-59 16.5z" />
    <glyph glyph-name="ae" unicode="&#xe6;" horiz-adv-x="1016" 
d="M483 237q1 -60 21 -102t52.5 -69t75 -39t89.5 -12q55 0 110.5 13t103.5 42v-29q-47 -28 -102.5 -40t-111.5 -12q-60 0 -114.5 18.5t-92.5 60.5q-15 -14 -35.5 -28t-46 -25.5t-55.5 -18.5t-64 -7q-51 0 -96.5 16t-79 47.5t-53 78t-19.5 107.5q0 63 21.5 109.5t58 77.5
t86 46t106.5 15q56 0 105.5 -12t106.5 -38q32 24 71.5 37t85.5 13q52 0 96 -16.5t77 -46.5t53 -71.5t24 -91.5v-23h-473zM527 417q-49 24 -97.5 33.5t-93.5 9.5q-50 0 -94 -13t-77 -40t-52.5 -69t-19.5 -100q0 -56 18 -98t48 -69.5t70 -41.5t84 -14q59 0 106.5 21.5
t80.5 49.5q-21 29 -33 66t-12 85q0 55 19 101t53 79zM706 460q-47 0 -86.5 -14.5t-68 -41t-46 -63t-21.5 -79.5h444q-5 43 -22.5 79.5t-46.5 63t-68 41t-85 14.5z" />
    <glyph glyph-name="ccedilla" unicode="&#xe7;" horiz-adv-x="569" 
d="M499 27q-33 -19 -70.5 -28.5t-82.5 -9.5q-7 0 -13.5 0.5t-13.5 0.5l-14 -44h6q16 0 31.5 -3.5t28.5 -11t21 -20.5t8 -32q0 -32 -24.5 -52t-65.5 -20q-18 0 -32 2.5t-27 7.5v26q28 -11 59 -11q24 0 43 11t19 36q0 23 -18.5 33t-42.5 10h-40l22 71q-51 7 -93 28t-72 53
t-46.5 73.5t-16.5 89.5q0 54 21 100t58 79t88.5 51.5t113.5 18.5q82 0 147 -34v-30q-31 18 -67.5 28t-79.5 10q-56 0 -102.5 -16.5t-80 -46t-52 -70.5t-18.5 -90t18.5 -89.5t52 -70t80 -46t102.5 -16.5q47 0 84 11t69 32v-31z" />
    <glyph glyph-name="egrave" unicode="&#xe8;" horiz-adv-x="626" 
d="M93 237q1 -60 21 -102t52.5 -69t75 -39t89.5 -12q55 0 110.5 13t103.5 42v-29q-47 -28 -102.5 -40t-111.5 -12q-52 0 -100 14t-85 44t-59 77t-22 113q0 54 18.5 100t52 79t79.5 51.5t101 18.5q52 0 96 -16.5t77 -46.5t53 -71.5t24 -90.5v-24h-473zM538 262
q-5 43 -22.5 79.5t-46.5 63t-68 41t-85 14.5q-47 0 -86.5 -14.5t-68 -41t-46 -63t-21.5 -79.5h444zM334 559h-27l-108 151h35z" />
    <glyph glyph-name="eacute" unicode="&#xe9;" horiz-adv-x="626" 
d="M93 237q1 -60 21 -102t52.5 -69t75 -39t89.5 -12q55 0 110.5 13t103.5 42v-29q-47 -28 -102.5 -40t-111.5 -12q-52 0 -100 14t-85 44t-59 77t-22 113q0 54 18.5 100t52 79t79.5 51.5t101 18.5q52 0 96 -16.5t77 -46.5t53 -71.5t24 -90.5v-24h-473zM538 262
q-5 43 -22.5 79.5t-46.5 63t-68 41t-85 14.5q-47 0 -86.5 -14.5t-68 -41t-46 -63t-21.5 -79.5h444zM402 710h35l-108 -151h-27z" />
    <glyph glyph-name="ecircumflex" unicode="&#xea;" horiz-adv-x="626" 
d="M93 237q1 -60 21 -102t52.5 -69t75 -39t89.5 -12q55 0 110.5 13t103.5 42v-29q-47 -28 -102.5 -40t-111.5 -12q-52 0 -100 14t-85 44t-59 77t-22 113q0 54 18.5 100t52 79t79.5 51.5t101 18.5q52 0 96 -16.5t77 -46.5t53 -71.5t24 -90.5v-24h-473zM538 262
q-5 43 -22.5 79.5t-46.5 63t-68 41t-85 14.5q-47 0 -86.5 -14.5t-68 -41t-46 -63t-21.5 -79.5h444zM325 710l113 -151h-27l-98 121l-98 -121h-27l113 151h24z" />
    <glyph glyph-name="edieresis" unicode="&#xeb;" horiz-adv-x="626" 
d="M93 237q1 -60 21 -102t52.5 -69t75 -39t89.5 -12q55 0 110.5 13t103.5 42v-29q-47 -28 -102.5 -40t-111.5 -12q-52 0 -100 14t-85 44t-59 77t-22 113q0 54 18.5 100t52 79t79.5 51.5t101 18.5q52 0 96 -16.5t77 -46.5t53 -71.5t24 -90.5v-24h-473zM538 262
q-5 43 -22.5 79.5t-46.5 63t-68 41t-85 14.5q-47 0 -86.5 -14.5t-68 -41t-46 -63t-21.5 -79.5h444zM232 604h-29v72h29v-72zM423 604h-29v72h29v-72z" />
    <glyph glyph-name="igrave" unicode="&#xec;" horiz-adv-x="254" 
d="M141 559h-27l-108 151h35zM140 0h-27v475h27v-475z" />
    <glyph glyph-name="iacute" unicode="&#xed;" horiz-adv-x="254" 
d="M214 710h35l-108 -151h-27zM140 0h-27v475h27v-475z" />
    <glyph glyph-name="icircumflex" unicode="&#xee;" horiz-adv-x="254" 
d="M140 0h-27v475h27v-475zM140 710l113 -151h-27l-98 121l-98 -121h-27l113 151h24z" />
    <glyph glyph-name="idieresis" unicode="&#xef;" horiz-adv-x="254" 
d="M47 604h-29v72h29v-72zM238 604h-29v72h29v-72zM140 0h-27v475h27v-475z" />
    <glyph glyph-name="eth" unicode="&#xf0;" horiz-adv-x="692" 
d="M346 486q88 0 149.5 -34t97.5 -97q-12 60 -35.5 125t-63.5 131l-272 -41v25l259 38q-12 18 -28 39t-30 38h30q12 -14 27.5 -35.5t26.5 -37.5l136 20v-24l-122 -18q20 -33 39 -74.5t34 -88t24.5 -97t9.5 -100.5q0 -56 -18.5 -104.5t-54.5 -84.5t-88.5 -56.5t-120.5 -20.5
q-62 0 -113.5 18.5t-88.5 51.5t-58 78.5t-21 99.5t21 100t58 79t88.5 51.5t113.5 18.5zM346 460q-56 0 -102.5 -16.5t-80 -46t-52 -70.5t-18.5 -90t18.5 -89.5t52 -70t80 -46t102.5 -16.5t102.5 16.5t79.5 46t51 70t18 89.5t-18 90t-51 70.5t-79.5 46t-102.5 16.5z" />
    <glyph glyph-name="ntilde" unicode="&#xf1;" horiz-adv-x="655" 
d="M140 475v-59q40 26 92 48t117 22q43 0 79.5 -10.5t63.5 -32t42.5 -54t15.5 -75.5v-314h-27v314q0 71 -48 108.5t-126 37.5q-64 0 -115.5 -22.5t-93.5 -52.5v-385h-27v475h27zM178 587q1 18 6 35.5t14 31.5t23 22.5t33 8.5t37.5 -11.5t36.5 -25t34 -24.5t30 -11
q13 0 22 6.5t15 16.5t9 22.5t3 24.5h27q-1 -18 -6 -35.5t-14 -31.5t-23 -22.5t-33 -8.5q-18 0 -36.5 11.5t-36.5 25t-34.5 25t-30.5 11.5q-26 0 -37 -23t-12 -48h-27z" />
    <glyph glyph-name="ograve" unicode="&#xf2;" horiz-adv-x="692" 
d="M346 486q61 0 113 -18.5t89 -51.5t58 -79t21 -100t-21 -99.5t-58 -78.5t-89 -51.5t-113 -18.5q-62 0 -113.5 18.5t-88.5 51.5t-58 78.5t-21 99.5t21 100t58 79t88.5 51.5t113.5 18.5zM346 460q-56 0 -102.5 -16.5t-80 -46t-52 -70.5t-18.5 -90t18.5 -89.5t52 -70t80 -46
t102.5 -16.5t102.5 16.5t80 46t52 70t18.5 89.5t-18.5 90t-52 70.5t-80 46t-102.5 16.5zM362 559h-27l-108 151h35z" />
    <glyph glyph-name="oacute" unicode="&#xf3;" horiz-adv-x="692" 
d="M346 486q61 0 113 -18.5t89 -51.5t58 -79t21 -100t-21 -99.5t-58 -78.5t-89 -51.5t-113 -18.5q-62 0 -113.5 18.5t-88.5 51.5t-58 78.5t-21 99.5t21 100t58 79t88.5 51.5t113.5 18.5zM346 460q-56 0 -102.5 -16.5t-80 -46t-52 -70.5t-18.5 -90t18.5 -89.5t52 -70t80 -46
t102.5 -16.5t102.5 16.5t80 46t52 70t18.5 89.5t-18.5 90t-52 70.5t-80 46t-102.5 16.5zM427 710h35l-108 -151h-27z" />
    <glyph glyph-name="ocircumflex" unicode="&#xf4;" horiz-adv-x="692" 
d="M346 486q61 0 113 -18.5t89 -51.5t58 -79t21 -100t-21 -99.5t-58 -78.5t-89 -51.5t-113 -18.5q-62 0 -113.5 18.5t-88.5 51.5t-58 78.5t-21 99.5t21 100t58 79t88.5 51.5t113.5 18.5zM346 460q-56 0 -102.5 -16.5t-80 -46t-52 -70.5t-18.5 -90t18.5 -89.5t52 -70t80 -46
t102.5 -16.5t102.5 16.5t80 46t52 70t18.5 89.5t-18.5 90t-52 70.5t-80 46t-102.5 16.5zM358 710l113 -151h-27l-98 121l-98 -121h-27l113 151h24z" />
    <glyph glyph-name="otilde" unicode="&#xf5;" horiz-adv-x="692" 
d="M346 486q61 0 113 -18.5t89 -51.5t58 -79t21 -100t-21 -99.5t-58 -78.5t-89 -51.5t-113 -18.5q-62 0 -113.5 18.5t-88.5 51.5t-58 78.5t-21 99.5t21 100t58 79t88.5 51.5t113.5 18.5zM346 460q-56 0 -102.5 -16.5t-80 -46t-52 -70.5t-18.5 -90t18.5 -89.5t52 -70t80 -46
t102.5 -16.5t102.5 16.5t80 46t52 70t18.5 89.5t-18.5 90t-52 70.5t-80 46t-102.5 16.5zM201 587q1 18 6 35.5t14 31.5t23 22.5t33 8.5t37.5 -11.5t36.5 -25t34 -24.5t30 -11q13 0 22 6.5t15 16.5t9 22.5t3 24.5h27q-1 -18 -6 -35.5t-14 -31.5t-23 -22.5t-33 -8.5
q-18 0 -36.5 11.5t-36.5 25t-34.5 25t-30.5 11.5q-26 0 -37 -23t-12 -48h-27z" />
    <glyph glyph-name="odieresis" unicode="&#xf6;" horiz-adv-x="692" 
d="M346 486q61 0 113 -18.5t89 -51.5t58 -79t21 -100t-21 -99.5t-58 -78.5t-89 -51.5t-113 -18.5q-62 0 -113.5 18.5t-88.5 51.5t-58 78.5t-21 99.5t21 100t58 79t88.5 51.5t113.5 18.5zM346 460q-56 0 -102.5 -16.5t-80 -46t-52 -70.5t-18.5 -90t18.5 -89.5t52 -70t80 -46
t102.5 -16.5t102.5 16.5t80 46t52 70t18.5 89.5t-18.5 90t-52 70.5t-80 46t-102.5 16.5zM265 604h-29v72h29v-72zM456 604h-29v72h29v-72z" />
    <glyph glyph-name="divide" unicode="&#xf7;" horiz-adv-x="680" 
d="M614 300h-548v27h548v-27zM324 531h35v-52h-35v52zM324 150h35v-53h-35v53z" />
    <glyph glyph-name="oslash" unicode="&#xf8;" horiz-adv-x="692" 
d="M346 486q47 0 88 -11t75 -31l60 69l19 -16l-58 -67q46 -34 71.5 -83.5t25.5 -109.5q0 -54 -21 -99.5t-58 -78.5t-89 -51.5t-113 -18.5q-93 0 -162 40l-59 -68l-20 17l57 66q-46 33 -71.5 82.5t-25.5 110.5q0 54 21 100t58 79t88.5 51.5t113.5 18.5zM346 460
q-56 0 -102.5 -16.5t-80 -46t-52 -70.5t-18.5 -90q0 -55 22.5 -99.5t63.5 -73.5l312 359q-30 17 -66.5 27t-78.5 10zM599 237q0 54 -22.5 98.5t-63.5 74.5l-312 -360q61 -35 145 -35q56 0 102.5 16.5t80 46t52 70t18.5 89.5z" />
    <glyph glyph-name="ugrave" unicode="&#xf9;" horiz-adv-x="638" 
d="M498 0v73q-15 -14 -36 -29t-46 -27t-54 -20t-61 -8q-45 0 -81.5 11t-62.5 34t-40.5 59.5t-14.5 87.5v294h27v-294q0 -45 12 -77t34.5 -51.5t54.5 -28.5t71 -9q30 0 58.5 8t54 20.5t47 28.5t37.5 33v370h27v-475h-27zM344 559h-27l-108 151h35z" />
    <glyph glyph-name="uacute" unicode="&#xfa;" horiz-adv-x="638" 
d="M498 0v73q-15 -14 -36 -29t-46 -27t-54 -20t-61 -8q-45 0 -81.5 11t-62.5 34t-40.5 59.5t-14.5 87.5v294h27v-294q0 -45 12 -77t34.5 -51.5t54.5 -28.5t71 -9q30 0 58.5 8t54 20.5t47 28.5t37.5 33v370h27v-475h-27zM395 710h35l-108 -151h-27z" />
    <glyph glyph-name="ucircumflex" unicode="&#xfb;" horiz-adv-x="638" 
d="M498 0v73q-15 -14 -36 -29t-46 -27t-54 -20t-61 -8q-45 0 -81.5 11t-62.5 34t-40.5 59.5t-14.5 87.5v294h27v-294q0 -45 12 -77t34.5 -51.5t54.5 -28.5t71 -9q30 0 58.5 8t54 20.5t47 28.5t37.5 33v370h27v-475h-27zM325 710l113 -151h-27l-98 121l-98 -121h-27l113 151
h24z" />
    <glyph glyph-name="udieresis" unicode="&#xfc;" horiz-adv-x="638" 
d="M498 0v73q-15 -14 -36 -29t-46 -27t-54 -20t-61 -8q-45 0 -81.5 11t-62.5 34t-40.5 59.5t-14.5 87.5v294h27v-294q0 -45 12 -77t34.5 -51.5t54.5 -28.5t71 -9q30 0 58.5 8t54 20.5t47 28.5t37.5 33v370h27v-475h-27zM232 604h-29v72h29v-72zM423 604h-29v72h29v-72z" />
    <glyph glyph-name="yacute" unicode="&#xfd;" horiz-adv-x="638" 
d="M129 475v-294q0 -45 12 -77t34.5 -51.5t54.5 -28.5t71 -9q30 0 58.5 8t54 20.5t47 28.5t37.5 33v370h27v-477q0 -54 -19 -92t-51.5 -61.5t-74 -34.5t-86.5 -11t-90.5 10t-84.5 28v29q35 -18 81.5 -29.5t93.5 -11.5q39 0 76 9t65.5 29.5t45.5 53.5t17 81v75
q-15 -14 -36 -29t-46 -27t-54.5 -20t-61.5 -8q-44 0 -80.5 11t-62.5 34t-40.5 59.5t-14.5 87.5v294h27zM394 710h35l-108 -151h-27z" />
    <glyph glyph-name="thorn" unicode="&#xfe;" 
d="M140 710v-294q40 26 92 48t117 22q54 0 99.5 -17t77.5 -49t50 -78t18 -104q0 -64 -20 -111t-54.5 -77.5t-81 -45.5t-98.5 -15q-59 0 -108 14.5t-92 40.5v-234h-27v900h27zM140 73q23 -14 45 -25t45.5 -18.5t50.5 -11t60 -3.5q43 0 84 12t72 39t50 69.5t19 102.5
q0 52 -17 93.5t-46 70t-68.5 43.5t-85.5 15q-64 0 -115.5 -22.5t-93.5 -52.5v-312z" />
    <glyph glyph-name="ydieresis" unicode="&#xff;" horiz-adv-x="638" 
d="M129 475v-294q0 -45 12 -77t34.5 -51.5t54.5 -28.5t71 -9q30 0 58.5 8t54 20.5t47 28.5t37.5 33v370h27v-477q0 -54 -19 -92t-51.5 -61.5t-74 -34.5t-86.5 -11t-90.5 10t-84.5 28v29q35 -18 81.5 -29.5t93.5 -11.5q39 0 76 9t65.5 29.5t45.5 53.5t17 81v75
q-15 -14 -36 -29t-46 -27t-54.5 -20t-61.5 -8q-44 0 -80.5 11t-62.5 34t-40.5 59.5t-14.5 87.5v294h27zM231 604h-29v72h29v-72zM422 604h-29v72h29v-72z" />
    <glyph glyph-name="Amacron" unicode="&#x100;" horiz-adv-x="676" 
d="M0 0l324 676h30l322 -676h-33l-101 211h-409l-100 -211h-33zM338 639l-191 -400h382zM470 805h-264v24h264v-24z" />
    <glyph glyph-name="amacron" unicode="&#x101;" 
d="M519 423q-45 18 -91.5 27.5t-91.5 9.5q-50 0 -94 -13t-77 -40t-52.5 -69t-19.5 -100q0 -56 18 -98t48 -69.5t70 -41.5t84 -14q34 0 64.5 8t56.5 20.5t47.5 28.5t37.5 33v318zM313 -11q-51 0 -96.5 16t-79 47.5t-53 78t-19.5 107.5q0 63 21.5 109.5t58 77.5t86 46
t106.5 15q51 0 103.5 -11t105.5 -34v-441h-27v73q-15 -14 -36 -29t-46.5 -27t-56.5 -20t-67 -8zM445 622h-264v24h264v-24z" />
    <glyph glyph-name="Abreve" unicode="&#x102;" horiz-adv-x="676" 
d="M0 0l324 676h30l322 -676h-33l-101 211h-409l-100 -211h-33zM338 639l-191 -400h382zM338 757q-66 0 -103.5 37.5t-39.5 92.5h27q3 -45 32.5 -74t83.5 -29t83.5 29t32.5 74h27q-2 -55 -39.5 -92.5t-103.5 -37.5z" />
    <glyph glyph-name="abreve" unicode="&#x103;" 
d="M519 423q-45 18 -91.5 27.5t-91.5 9.5q-50 0 -94 -13t-77 -40t-52.5 -69t-19.5 -100q0 -56 18 -98t48 -69.5t70 -41.5t84 -14q34 0 64.5 8t56.5 20.5t47.5 28.5t37.5 33v318zM313 -11q-51 0 -96.5 16t-79 47.5t-53 78t-19.5 107.5q0 63 21.5 109.5t58 77.5t86 46
t106.5 15q51 0 103.5 -11t105.5 -34v-441h-27v73q-15 -14 -36 -29t-46.5 -27t-56.5 -20t-67 -8zM313 571q-66 0 -103.5 37.5t-39.5 92.5h27q3 -45 32.5 -74t83.5 -29t83.5 29t32.5 74h27q-2 -55 -39.5 -92.5t-103.5 -37.5z" />
    <glyph glyph-name="Aogonek" unicode="&#x104;" horiz-adv-x="676" 
d="M643 0l-101 211h-409l-100 -211h-33l324 676h30l322 -676q-30 -20 -54 -47.5t-24 -62.5q0 -28 19 -43t49 -15q23 0 41 5.5t33 13.5v-26q-14 -8 -31.5 -13t-43.5 -5q-43 0 -69 21.5t-26 62.5q0 35 22.5 63.5t51.5 45.5h-1zM338 639l-191 -400h382z" />
    <glyph glyph-name="aogonek" unicode="&#x105;" 
d="M519 73q-15 -14 -36 -29t-46.5 -27t-56.5 -20t-67 -8q-51 0 -96.5 16t-79 47.5t-53 78t-19.5 107.5q0 63 21.5 109.5t58 77.5t86 46t106.5 15q51 0 103.5 -11t105.5 -34v-441q-30 -20 -54 -47.5t-24 -62.5q0 -28 19 -43t49 -15q23 0 41 5.5t33 13.5v-26q-14 -8 -31.5 -13
t-43.5 -5q-43 0 -69 21.5t-26 62.5q0 38 24.5 65.5t54.5 43.5v73zM519 423q-45 18 -91.5 27.5t-91.5 9.5q-50 0 -94 -13t-77 -40t-52.5 -69t-19.5 -100q0 -56 18 -98t48 -69.5t70 -41.5t84 -14q34 0 64.5 8t56.5 20.5t47.5 28.5t37.5 33v318z" />
    <glyph glyph-name="Cacute" unicode="&#x106;" horiz-adv-x="745" 
d="M666 627q-43 17 -87 24.5t-96 7.5q-84 0 -152.5 -23t-116.5 -65t-74.5 -101.5t-26.5 -131.5t26.5 -131.5t74.5 -101.5t116.5 -65t152.5 -23q56 0 103.5 10t88.5 28v-29q-41 -17 -88 -27t-104 -10q-91 0 -165 25t-126.5 71t-81 110.5t-28.5 142.5t28.5 142.5t81 110.5
t126.5 71t165 25q54 0 97.5 -7.5t85.5 -23.5v-29v0zM464 895h35l-108 -151h-27z" />
    <glyph glyph-name="cacute" unicode="&#x107;" horiz-adv-x="569" 
d="M499 27q-33 -19 -70.5 -28.5t-82.5 -9.5q-62 0 -113.5 18.5t-88.5 51.5t-58 78.5t-21 99.5t21 100t58 79t88.5 51.5t113.5 18.5q82 0 147 -34v-30q-31 18 -67.5 28t-79.5 10q-56 0 -102.5 -16.5t-80 -46t-52 -70.5t-18.5 -90t18.5 -89.5t52 -70t80 -46t102.5 -16.5
q47 0 84 11t69 32v-31zM394 710h35l-108 -151h-27z" />
    <glyph glyph-name="Ccircumflex" unicode="&#x108;" horiz-adv-x="745" 
d="M666 627q-43 17 -87 24.5t-96 7.5q-84 0 -152.5 -23t-116.5 -65t-74.5 -101.5t-26.5 -131.5t26.5 -131.5t74.5 -101.5t116.5 -65t152.5 -23q56 0 103.5 10t88.5 28v-29q-41 -17 -88 -27t-104 -10q-91 0 -165 25t-126.5 71t-81 110.5t-28.5 142.5t28.5 142.5t81 110.5
t126.5 71t165 25q54 0 97.5 -7.5t85.5 -23.5v-29v0zM417 895l113 -151h-27l-98 121l-98 -121h-27l113 151h24z" />
    <glyph glyph-name="ccircumflex" unicode="&#x109;" horiz-adv-x="569" 
d="M499 27q-33 -19 -70.5 -28.5t-82.5 -9.5q-62 0 -113.5 18.5t-88.5 51.5t-58 78.5t-21 99.5t21 100t58 79t88.5 51.5t113.5 18.5q82 0 147 -34v-30q-31 18 -67.5 28t-79.5 10q-56 0 -102.5 -16.5t-80 -46t-52 -70.5t-18.5 -90t18.5 -89.5t52 -70t80 -46t102.5 -16.5
q47 0 84 11t69 32v-31zM319 710l113 -151h-27l-98 121l-98 -121h-27l113 151h24z" />
    <glyph glyph-name="Cdotaccent" unicode="&#x10a;" horiz-adv-x="745" 
d="M666 627q-43 17 -87 24.5t-96 7.5q-84 0 -152.5 -23t-116.5 -65t-74.5 -101.5t-26.5 -131.5t26.5 -131.5t74.5 -101.5t116.5 -65t152.5 -23q56 0 103.5 10t88.5 28v-29q-41 -17 -88 -27t-104 -10q-91 0 -165 25t-126.5 71t-81 110.5t-28.5 142.5t28.5 142.5t81 110.5
t126.5 71t165 25q54 0 97.5 -7.5t85.5 -23.5v-29v0zM420 784h-29v72h29v-72z" />
    <glyph glyph-name="cdotaccent" unicode="&#x10b;" horiz-adv-x="569" 
d="M499 27q-33 -19 -70.5 -28.5t-82.5 -9.5q-62 0 -113.5 18.5t-88.5 51.5t-58 78.5t-21 99.5t21 100t58 79t88.5 51.5t113.5 18.5q82 0 147 -34v-30q-31 18 -67.5 28t-79.5 10q-56 0 -102.5 -16.5t-80 -46t-52 -70.5t-18.5 -90t18.5 -89.5t52 -70t80 -46t102.5 -16.5
q47 0 84 11t69 32v-31zM322 604h-29v72h29v-72z" />
    <glyph glyph-name="Ccaron" unicode="&#x10c;" horiz-adv-x="745" 
d="M666 627q-43 17 -87 24.5t-96 7.5q-84 0 -152.5 -23t-116.5 -65t-74.5 -101.5t-26.5 -131.5t26.5 -131.5t74.5 -101.5t116.5 -65t152.5 -23q56 0 103.5 10t88.5 28v-29q-41 -17 -88 -27t-104 -10q-91 0 -165 25t-126.5 71t-81 110.5t-28.5 142.5t28.5 142.5t81 110.5
t126.5 71t165 25q54 0 97.5 -7.5t85.5 -23.5v-29v0zM393 744l-113 151h27l98 -121l98 121h27l-113 -151h-24z" />
    <glyph glyph-name="ccaron" unicode="&#x10d;" horiz-adv-x="569" 
d="M499 27q-33 -19 -70.5 -28.5t-82.5 -9.5q-62 0 -113.5 18.5t-88.5 51.5t-58 78.5t-21 99.5t21 100t58 79t88.5 51.5t113.5 18.5q82 0 147 -34v-30q-31 18 -67.5 28t-79.5 10q-56 0 -102.5 -16.5t-80 -46t-52 -70.5t-18.5 -90t18.5 -89.5t52 -70t80 -46t102.5 -16.5
q47 0 84 11t69 32v-31zM295 559l-113 151h27l98 -121l98 121h27l-113 -151h-24z" />
    <glyph glyph-name="Dcaron" unicode="&#x10e;" horiz-adv-x="885" 
d="M172 28h178q99 0 177 19.5t132.5 58.5t83.5 97t29 135q0 78 -29 136t-83.5 96.5t-132.5 58t-177 19.5h-178v-620zM350 676q118 0 203.5 -24.5t141 -69.5t82 -107t26.5 -137t-26.5 -137.5t-82 -107t-141 -69t-203.5 -24.5h-209v676h209zM431 744l-113 151h27l98 -121
l98 121h27l-113 -151h-24z" />
    <glyph glyph-name="dcaron" unicode="&#x10f;" horiz-adv-x="691" 
d="M668 710q12 -30 12 -61q0 -32 -12 -64t-38 -62l-20 14q45 50 45 111q0 34 -14 62h27v0zM546 710v-710h-27v73q-15 -14 -36 -29t-47 -27t-57 -20t-67 -8q-51 0 -96 16t-78.5 47.5t-53 78t-19.5 107.5q0 63 21.5 109.5t58 77.5t86 46t106.5 15q44 0 89.5 -8.5t92.5 -25.5
v258h27zM519 423q-45 18 -91.5 27.5t-91.5 9.5q-50 0 -94 -13t-77 -40t-52.5 -69t-19.5 -100q0 -56 18 -98t48 -69.5t70 -41.5t84 -14q34 0 64.5 8t56.5 20.5t47.5 28.5t37.5 33v318z" />
    <glyph glyph-name="Dcroat" unicode="&#x110;" horiz-adv-x="885" 
d="M350 676q118 0 203.5 -24.5t141 -69.5t82 -107t26.5 -137t-26.5 -137.5t-82 -107t-141 -69t-203.5 -24.5h-209v340h-101v28h101v308h209zM172 368h293v-28h-293v-312h178q99 0 177 19.5t132.5 58.5t83.5 97t29 135q0 78 -29 136t-83.5 96.5t-132.5 58t-177 19.5h-178
v-280z" />
    <glyph glyph-name="dcroat" unicode="&#x111;" 
d="M265 615h254v95h27v-95h90v-24h-90v-591h-27v73q-15 -14 -36 -29t-47 -27t-57 -20t-67 -8q-51 0 -96 16t-78.5 47.5t-53 78t-19.5 107.5q0 63 21.5 109.5t58 77.5t86 46t106.5 15q44 0 89.5 -8.5t92.5 -25.5v139h-254v24zM313 15q34 0 64.5 8t56.5 20.5t47.5 28.5
t37.5 33v318q-45 18 -91.5 27.5t-91.5 9.5q-50 0 -94 -13t-77 -40t-52.5 -69t-19.5 -100q0 -56 18 -98t48 -69.5t70 -41.5t84 -14z" />
    <glyph glyph-name="Emacron" unicode="&#x112;" horiz-adv-x="650" 
d="M550 676v-28h-388v-279h361v-28h-361v-193q0 -60 33 -90t114 -30h263v-28h-263q-98 0 -138 39t-40 109v528h419zM471 805h-264v24h264v-24z" />
    <glyph glyph-name="emacron" unicode="&#x113;" horiz-adv-x="626" 
d="M93 237q1 -60 21 -102t52.5 -69t75 -39t89.5 -12q55 0 110.5 13t103.5 42v-29q-47 -28 -102.5 -40t-111.5 -12q-52 0 -100 14t-85 44t-59 77t-22 113q0 54 18.5 100t52 79t79.5 51.5t101 18.5q52 0 96 -16.5t77 -46.5t53 -71.5t24 -90.5v-24h-473zM538 262
q-5 43 -22.5 79.5t-46.5 63t-68 41t-85 14.5q-47 0 -86.5 -14.5t-68 -41t-46 -63t-21.5 -79.5h444zM445 622h-264v24h264v-24z" />
    <glyph glyph-name="Ebreve" unicode="&#x114;" horiz-adv-x="650" 
d="M550 676v-28h-388v-279h361v-28h-361v-193q0 -60 33 -90t114 -30h263v-28h-263q-98 0 -138 39t-40 109v528h419zM339 756q-66 0 -103.5 37.5t-39.5 92.5h27q3 -45 32.5 -74t83.5 -29t83.5 29t32.5 74h27q-2 -55 -39.5 -92.5t-103.5 -37.5z" />
    <glyph glyph-name="ebreve" unicode="&#x115;" horiz-adv-x="626" 
d="M93 237q1 -60 21 -102t52.5 -69t75 -39t89.5 -12q55 0 110.5 13t103.5 42v-29q-47 -28 -102.5 -40t-111.5 -12q-52 0 -100 14t-85 44t-59 77t-22 113q0 54 18.5 100t52 79t79.5 51.5t101 18.5q52 0 96 -16.5t77 -46.5t53 -71.5t24 -90.5v-24h-473zM538 262
q-5 43 -22.5 79.5t-46.5 63t-68 41t-85 14.5q-47 0 -86.5 -14.5t-68 -41t-46 -63t-21.5 -79.5h444zM313 571q-66 0 -103.5 37.5t-39.5 92.5h27q3 -45 32.5 -74t83.5 -29t83.5 29t32.5 74h27q-2 -55 -39.5 -92.5t-103.5 -37.5z" />
    <glyph glyph-name="Edotaccent" unicode="&#x116;" horiz-adv-x="650" 
d="M550 676v-28h-388v-279h361v-28h-361v-193q0 -60 33 -90t114 -30h263v-28h-263q-98 0 -138 39t-40 109v528h419zM354 783h-29v72h29v-72z" />
    <glyph glyph-name="edotaccent" unicode="&#x117;" horiz-adv-x="626" 
d="M93 237q1 -60 21 -102t52.5 -69t75 -39t89.5 -12q55 0 110.5 13t103.5 42v-29q-47 -28 -102.5 -40t-111.5 -12q-52 0 -100 14t-85 44t-59 77t-22 113q0 54 18.5 100t52 79t79.5 51.5t101 18.5q52 0 96 -16.5t77 -46.5t53 -71.5t24 -90.5v-24h-473zM538 262
q-5 43 -22.5 79.5t-46.5 63t-68 41t-85 14.5q-47 0 -86.5 -14.5t-68 -41t-46 -63t-21.5 -79.5h444zM328 604h-29v72h29v-72z" />
    <glyph glyph-name="Eogonek" unicode="&#x118;" horiz-adv-x="650" 
d="M550 676v-28h-388v-279h361v-28h-361v-193q0 -60 33 -90t114 -30h263v-28h-64q-30 -20 -54 -47.5t-24 -62.5q0 -28 19 -43t49 -15q23 0 41 5.5t33 13.5v-26q-14 -8 -31.5 -13t-43.5 -5q-43 0 -69 21.5t-26 62.5q0 34 20.5 62t46.5 47h-160q-98 0 -138 39t-40 109v528h419
z" />
    <glyph glyph-name="eogonek" unicode="&#x119;" horiz-adv-x="626" 
d="M93 237q1 -60 21 -102t52.5 -69t75 -39t89.5 -12q55 0 110.5 13t103.5 42v-29q-25 -15 -51.5 -25t-55.5 -16q-30 -20 -54 -47.5t-24 -62.5q0 -28 19 -43t49 -15q23 0 41 5.5t33 13.5v-26q-14 -8 -31.5 -13t-43.5 -5q-43 0 -69 21.5t-26 62.5q0 32 18 58t44 44
q-16 -2 -31.5 -3t-31.5 -1q-52 0 -100 14t-85 44t-59 77t-22 113q0 54 18.5 100t52 79t79.5 51.5t101 18.5q52 0 96 -16.5t77 -46.5t53 -71.5t24 -90.5v-24h-473zM316 460q-47 0 -86.5 -14.5t-68 -41t-46 -63t-21.5 -79.5h444q-5 43 -22.5 79.5t-46.5 63t-68 41t-85 14.5z
" />
    <glyph glyph-name="Ecaron" unicode="&#x11a;" horiz-adv-x="650" 
d="M550 676v-28h-388v-279h361v-28h-361v-193q0 -60 33 -90t114 -30h263v-28h-263q-98 0 -138 39t-40 109v528h419zM327 744l-113 151h27l98 -121l98 121h27l-113 -151h-24z" />
    <glyph glyph-name="ecaron" unicode="&#x11b;" horiz-adv-x="626" 
d="M93 237q1 -60 21 -102t52.5 -69t75 -39t89.5 -12q55 0 110.5 13t103.5 42v-29q-47 -28 -102.5 -40t-111.5 -12q-52 0 -100 14t-85 44t-59 77t-22 113q0 54 18.5 100t52 79t79.5 51.5t101 18.5q52 0 96 -16.5t77 -46.5t53 -71.5t24 -90.5v-24h-473zM538 262
q-5 43 -22.5 79.5t-46.5 63t-68 41t-85 14.5q-47 0 -86.5 -14.5t-68 -41t-46 -63t-21.5 -79.5h444zM301 559l-113 151h27l98 -121l98 121h27l-113 -151h-24z" />
    <glyph glyph-name="Gcircumflex" unicode="&#x11c;" horiz-adv-x="945" 
d="M479 339h338v-269q-30 -17 -64 -32t-74 -26t-88 -17t-108 -6q-91 0 -165 25t-126.5 71t-81 110.5t-28.5 142.5t28.5 142.5t81 110.5t126.5 71t165 25q85 0 161.5 -15t145.5 -47v-29q-73 34 -147.5 48.5t-159.5 14.5q-84 0 -152.5 -23t-116.5 -65t-74.5 -101.5
t-26.5 -131.5t26.5 -131.5t74.5 -101.5t116.5 -65t152.5 -23q106 0 184 21.5t123 48.5v223h-311v29zM484 895l113 -151h-27l-98 121l-98 -121h-27l113 151h24z" />
    <glyph glyph-name="gcircumflex" unicode="&#x11d;" 
d="M546 -2q0 -53 -18 -90.5t-50 -61.5t-75.5 -35.5t-94.5 -11.5q-56 0 -112 15t-103 43v29q48 -29 104.5 -45t111.5 -16q43 0 81 9t66.5 29t45.5 53.5t17 83.5v73q-15 -14 -36 -29t-46.5 -27t-56.5 -20t-67 -8q-51 0 -96.5 16t-79 47.5t-53 78t-19.5 107.5q0 63 21.5 109.5
t58 77.5t86 46t106.5 15q51 0 103.5 -11t105.5 -34v-443zM519 423q-45 18 -91.5 27.5t-91.5 9.5q-50 0 -94 -13t-77 -40t-52.5 -69t-19.5 -100q0 -56 18 -98t48 -69.5t70 -41.5t84 -14q34 0 64.5 8t56.5 20.5t47.5 28.5t37.5 33v318zM322 710l113 -151h-27l-98 121l-98 -121
h-27l113 151h24z" />
    <glyph glyph-name="Gbreve" unicode="&#x11e;" horiz-adv-x="945" 
d="M479 339h338v-269q-30 -17 -64 -32t-74 -26t-88 -17t-108 -6q-91 0 -165 25t-126.5 71t-81 110.5t-28.5 142.5t28.5 142.5t81 110.5t126.5 71t165 25q85 0 161.5 -15t145.5 -47v-29q-73 34 -147.5 48.5t-159.5 14.5q-84 0 -152.5 -23t-116.5 -65t-74.5 -101.5
t-26.5 -131.5t26.5 -131.5t74.5 -101.5t116.5 -65t152.5 -23q106 0 184 21.5t123 48.5v223h-311v29zM472 756q-66 0 -103.5 37.5t-39.5 92.5h27q3 -45 32.5 -74t83.5 -29t83.5 29t32.5 74h27q-2 -55 -39.5 -92.5t-103.5 -37.5z" />
    <glyph glyph-name="gbreve" unicode="&#x11f;" 
d="M546 -2q0 -53 -18 -90.5t-50 -61.5t-75.5 -35.5t-94.5 -11.5q-56 0 -112 15t-103 43v29q48 -29 104.5 -45t111.5 -16q43 0 81 9t66.5 29t45.5 53.5t17 83.5v73q-15 -14 -36 -29t-46.5 -27t-56.5 -20t-67 -8q-51 0 -96.5 16t-79 47.5t-53 78t-19.5 107.5q0 63 21.5 109.5
t58 77.5t86 46t106.5 15q51 0 103.5 -11t105.5 -34v-443zM519 423q-45 18 -91.5 27.5t-91.5 9.5q-50 0 -94 -13t-77 -40t-52.5 -69t-19.5 -100q0 -56 18 -98t48 -69.5t70 -41.5t84 -14q34 0 64.5 8t56.5 20.5t47.5 28.5t37.5 33v318zM310 571q-66 0 -103.5 37.5t-39.5 92.5
h27q3 -45 32.5 -74t83.5 -29t83.5 29t32.5 74h27q-2 -55 -39.5 -92.5t-103.5 -37.5z" />
    <glyph glyph-name="Gdotaccent" unicode="&#x120;" horiz-adv-x="945" 
d="M479 339h338v-269q-30 -17 -64 -32t-74 -26t-88 -17t-108 -6q-91 0 -165 25t-126.5 71t-81 110.5t-28.5 142.5t28.5 142.5t81 110.5t126.5 71t165 25q85 0 161.5 -15t145.5 -47v-29q-73 34 -147.5 48.5t-159.5 14.5q-84 0 -152.5 -23t-116.5 -65t-74.5 -101.5
t-26.5 -131.5t26.5 -131.5t74.5 -101.5t116.5 -65t152.5 -23q106 0 184 21.5t123 48.5v223h-311v29zM487 782h-29v72h29v-72z" />
    <glyph glyph-name="gdotaccent" unicode="&#x121;" 
d="M546 -2q0 -53 -18 -90.5t-50 -61.5t-75.5 -35.5t-94.5 -11.5q-56 0 -112 15t-103 43v29q48 -29 104.5 -45t111.5 -16q43 0 81 9t66.5 29t45.5 53.5t17 83.5v73q-15 -14 -36 -29t-46.5 -27t-56.5 -20t-67 -8q-51 0 -96.5 16t-79 47.5t-53 78t-19.5 107.5q0 63 21.5 109.5
t58 77.5t86 46t106.5 15q51 0 103.5 -11t105.5 -34v-443zM519 423q-45 18 -91.5 27.5t-91.5 9.5q-50 0 -94 -13t-77 -40t-52.5 -69t-19.5 -100q0 -56 18 -98t48 -69.5t70 -41.5t84 -14q34 0 64.5 8t56.5 20.5t47.5 28.5t37.5 33v318zM325 604h-29v72h29v-72z" />
    <glyph glyph-name="Gcommaaccent" unicode="&#x122;" horiz-adv-x="945" 
d="M479 339h338v-269q-30 -17 -64 -32t-74 -26t-88 -17t-108 -6q-91 0 -165 25t-126.5 71t-81 110.5t-28.5 142.5t28.5 142.5t81 110.5t126.5 71t165 25q85 0 161.5 -15t145.5 -47v-29q-73 34 -147.5 48.5t-159.5 14.5q-84 0 -152.5 -23t-116.5 -65t-74.5 -101.5
t-26.5 -131.5t26.5 -131.5t74.5 -101.5t116.5 -65t152.5 -23q106 0 184 21.5t123 48.5v223h-311v29zM484 -61q6 -14 8.5 -28t2.5 -28q0 -36 -19.5 -65t-62.5 -50l-11 21q35 16 50.5 40t15.5 53q0 13 -2.5 27.5t-9.5 29.5h28z" />
    <glyph glyph-name="gcommaaccent" unicode="&#x123;" 
d="M546 -2q0 -53 -18 -90.5t-50 -61.5t-75.5 -35.5t-94.5 -11.5q-56 0 -112 15t-103 43v29q48 -29 104.5 -45t111.5 -16q43 0 81 9t66.5 29t45.5 53.5t17 83.5v73q-15 -14 -36 -29t-46.5 -27t-56.5 -20t-67 -8q-51 0 -96.5 16t-79 47.5t-53 78t-19.5 107.5q0 63 21.5 109.5
t58 77.5t86 46t106.5 15q51 0 103.5 -11t105.5 -34v-443zM519 423q-45 18 -91.5 27.5t-91.5 9.5q-50 0 -94 -13t-77 -40t-52.5 -69t-19.5 -100q0 -56 18 -98t48 -69.5t70 -41.5t84 -14q34 0 64.5 8t56.5 20.5t47.5 28.5t37.5 33v318zM310.017 545.996q-6 13.999 -8.5 27.998
q-2.49902 14 -2.49902 27.999q0 35.9971 19.498 64.9961q19.499 28.998 62.4961 49.9971l11 -20.999q-34.998 -15.999 -50.4971 -39.998q-15.499 -23.998 -15.499 -52.9961q0 -13 2.5 -27.499t9.49902 -29.498h-27.998z" />
    <glyph glyph-name="Hcircumflex" unicode="&#x124;" horiz-adv-x="914" 
d="M773 0h-31v340h-570v-340h-31v676h31v-308h570v308h31v-676zM469 895l113 -151h-27l-98 121l-98 -121h-27l113 151h24z" />
    <glyph glyph-name="hcircumflex" unicode="&#x125;" horiz-adv-x="655" 
d="M140 416q40 26 92 48t117 22q43 0 79.5 -10.5t63.5 -32t42.5 -54t15.5 -75.5v-314h-27v314q0 71 -48 108.5t-126 37.5q-64 0 -115.5 -22.5t-93.5 -52.5v-385h-27v710h27v-294zM140 895l113 -151h-27l-98 121l-98 -121h-27l113 151h24z" />
    <glyph glyph-name="Hbar" unicode="&#x126;" horiz-adv-x="915" 
d="M773 537h101v-27h-101v-510h-31v340h-570v-340h-31v510h-101v27h101v139h31v-139h570v139h31v-139zM742 368v142h-570v-142h570z" />
    <glyph glyph-name="hbar" unicode="&#x127;" horiz-adv-x="655" 
d="M140 591v-175q40 26 92 48t117 22q43 0 79.5 -10.5t63.5 -32t42.5 -54t15.5 -75.5v-314h-27v314q0 71 -48 108.5t-126 37.5q-64 0 -115.5 -22.5t-93.5 -52.5v-385h-27v591h-90v24h90v95h27v-95h254v-24h-254z" />
    <glyph glyph-name="Itilde" unicode="&#x128;" horiz-adv-x="313" 
d="M172 0h-31v676h31v-676zM12 772q1 18 6 35.5t14 31.5t23 22.5t33 8.5t37.5 -11.5t36.5 -25t34 -24.5t30 -11q13 0 22 6.5t15 16.5t9 22.5t3 24.5h27q-1 -18 -6 -35.5t-14 -31.5t-23 -22.5t-33 -8.5q-18 0 -36.5 11.5t-36.5 25t-34.5 25t-30.5 11.5q-26 0 -37 -23t-12 -48
h-27z" />
    <glyph glyph-name="itilde" unicode="&#x129;" horiz-adv-x="254" 
d="M-17 587q1 18 6 35.5t14 31.5t23 22.5t33 8.5t37.5 -11.5t36.5 -25t34 -24.5t30 -11q13 0 22 6.5t15 16.5t9 22.5t3 24.5h27q-1 -18 -6 -35.5t-14 -31.5t-23 -22.5t-33 -8.5q-18 0 -36.5 11.5t-36.5 25t-34.5 25t-30.5 11.5q-26 0 -37 -23t-12 -48h-27zM140 0h-27v475h27
v-475z" />
    <glyph glyph-name="Imacron" unicode="&#x12a;" horiz-adv-x="313" 
d="M172 0h-31v676h31v-676zM289 807h-264v24h264v-24z" />
    <glyph glyph-name="imacron" unicode="&#x12b;" horiz-adv-x="254" 
d="M260 622h-264v24h264v-24zM140 0h-27v475h27v-475z" />
    <glyph glyph-name="Ibreve" unicode="&#x12c;" horiz-adv-x="313" 
d="M172 0h-31v676h31v-676zM158 756q-66 0 -103.5 37.5t-39.5 92.5h27q3 -45 32.5 -74t83.5 -29t83.5 29t32.5 74h27q-2 -55 -39.5 -92.5t-103.5 -37.5z" />
    <glyph glyph-name="ibreve" unicode="&#x12d;" horiz-adv-x="254" 
d="M128 571q-66 0 -103.5 37.5t-39.5 92.5h27q3 -45 32.5 -74t83.5 -29t83.5 29t32.5 74h27q-2 -55 -39.5 -92.5t-103.5 -37.5zM140 0h-27v475h27v-475z" />
    <glyph glyph-name="Iogonek" unicode="&#x12e;" horiz-adv-x="313" 
d="M141 676h31v-676q-30 -20 -54 -47.5t-24 -62.5q0 -28 19 -43t49 -15q23 0 41 5.5t33 13.5v-26q-14 -8 -31.5 -13t-43.5 -5q-43 0 -69 21.5t-26 62.5q0 35 23 63.5t52 45.5v676z" />
    <glyph glyph-name="iogonek" unicode="&#x12f;" horiz-adv-x="254" 
d="M113 475h27v-475q-30 -20 -54 -47.5t-24 -62.5q0 -28 19 -43t49 -15q23 0 41 5.5t33 13.5v-26q-14 -8 -31.5 -13t-43.5 -5q-43 0 -69 21.5t-26 62.5q0 38 24.5 65t54.5 44v475zM141 604h-29v72h29v-72z" />
    <glyph glyph-name="Idotaccent" unicode="&#x130;" horiz-adv-x="313" 
d="M172 0h-31v676h31v-676zM172 783h-29v72h29v-72z" />
    <glyph glyph-name="dotlessi" unicode="&#x131;" horiz-adv-x="254" 
d="M140 0h-27v475h27v-475z" />
    <glyph glyph-name="Jcircumflex" unicode="&#x134;" horiz-adv-x="409" 
d="M281 154q0 -47 -13.5 -78.5t-37 -51t-54 -27.5t-63.5 -8q-27 0 -54.5 5t-51.5 14v29q52 -20 106 -20q28 0 52.5 6.5t43.5 22t30 42t11 66.5v522h31v-522zM280 895l113 -151h-27l-98 121l-98 -121h-27l113 151h24z" />
    <glyph glyph-name="jcircumflex" unicode="&#x135;" horiz-adv-x="254" 
d="M140 475v-589q0 -44 -25.5 -65.5t-64.5 -21.5q-17 0 -36.5 4t-33.5 12v28q17 -9 33 -13.5t37 -4.5q29 0 46 15.5t17 45.5v589h27zM139 710l113 -151h-27l-98 121l-98 -121h-27l113 151h24z" />
    <glyph glyph-name="Kcommaaccent" unicode="&#x136;" horiz-adv-x="656" 
d="M202 351l449 -351h-45l-434 337v-337h-31v676h31v-312l428 312h44zM407 -61q6 -14 8.5 -28t2.5 -28q0 -36 -19.5 -65t-62.5 -50l-11 21q35 16 50.5 40t15.5 53q0 13 -2.5 27.5t-9.5 29.5h28z" />
    <glyph glyph-name="kcommaaccent" unicode="&#x137;" horiz-adv-x="535" 
d="M167 255l362 -255h-42l-347 242v-242h-27v710h27v-441l333 206h47zM341 -61q6 -14 8.5 -28t2.5 -28q0 -36 -19.5 -65t-62.5 -50l-11 21q35 16 50.5 40t15.5 53q0 13 -2.5 27.5t-9.5 29.5h28z" />
    <glyph glyph-name="Lacute" unicode="&#x139;" horiz-adv-x="569" 
d="M162 148q0 -60 33 -90t114 -30h233v-28h-233q-98 0 -138 39t-40 109v528h31v-528zM234 895h35l-108 -151h-27z" />
    <glyph glyph-name="lacute" unicode="&#x13a;" horiz-adv-x="276" 
d="M131 75q0 -30 17 -45.5t46 -15.5q21 0 37 4.5t33 13.5v-28q-14 -8 -33.5 -12t-36.5 -4q-39 0 -64.5 21.5t-25.5 65.5v635h27v-635zM211 894h35l-108 -151h-27z" />
    <glyph glyph-name="Lcommaaccent" unicode="&#x13b;" horiz-adv-x="569" 
d="M162 148q0 -60 33 -90t114 -30h233v-28h-233q-98 0 -138 39t-40 109v528h31v-528zM376 -61q6 -14 8.5 -28t2.5 -28q0 -36 -19.5 -65t-62.5 -50l-11 21q35 16 50.5 40t15.5 53q0 13 -2.5 27.5t-9.5 29.5h28z" />
    <glyph glyph-name="lcommaaccent" unicode="&#x13c;" horiz-adv-x="276" 
d="M131 75q0 -30 17 -45.5t46 -15.5q21 0 37 4.5t33 13.5v-28q-14 -8 -33.5 -12t-36.5 -4q-39 0 -64.5 21.5t-25.5 65.5v635h27v-635zM209 -61q6 -14 8.5 -28t2.5 -28q0 -36 -19.5 -65t-62.5 -50l-11 21q35 16 50.5 40t15.5 53q0 13 -2.5 27.5t-9.5 29.5h28z" />
    <glyph glyph-name="Lcaron" unicode="&#x13d;" horiz-adv-x="569" 
d="M437 676q12 -30 12 -61q0 -32 -12 -64t-38 -62l-20 14q45 50 45 111q0 34 -14 62h27v0zM162 148q0 -60 33 -90t114 -30h233v-28h-233q-98 0 -138 39t-40 109v528h31v-528z" />
    <glyph glyph-name="lcaron" unicode="&#x13e;" horiz-adv-x="276" 
d="M259 710q12 -30 12 -61q0 -32 -12 -64t-38 -62l-20 14q45 50 45 111q0 34 -14 62h27v0zM131 75q0 -30 17 -45.5t46 -15.5q21 0 37 4.5t33 13.5v-28q-14 -8 -33.5 -12t-36.5 -4q-39 0 -64.5 21.5t-25.5 65.5v635h27v-635z" />
    <glyph glyph-name="Lslash" unicode="&#x141;" horiz-adv-x="569" 
d="M162 348l275 97v-28l-275 -97v-172q0 -60 33 -90t114 -30h233v-28h-233q-98 0 -138 39t-40 109v161l-101 -35v28l101 35v339h31v-328z" />
    <glyph glyph-name="lslash" unicode="&#x142;" horiz-adv-x="291" 
d="M146 418l112 46v-26l-112 -46v-317q0 -30 17 -45.5t46 -15.5q21 0 37 4.5t33 13.5v-28q-14 -8 -33.5 -12t-36.5 -4q-39 0 -64.5 21.5t-25.5 65.5v306l-88 -36v27l88 35v303h27v-292z" />
    <glyph glyph-name="Nacute" unicode="&#x143;" horiz-adv-x="911" 
d="M769 0h-39l-558 639v-639h-31v676h39l558 -642v642h31v-676zM532 895h35l-108 -151h-27z" />
    <glyph glyph-name="nacute" unicode="&#x144;" horiz-adv-x="655" 
d="M140 475v-59q40 26 92 48t117 22q43 0 79.5 -10.5t63.5 -32t42.5 -54t15.5 -75.5v-314h-27v314q0 71 -48 108.5t-126 37.5q-64 0 -115.5 -22.5t-93.5 -52.5v-385h-27v475h27zM414 710h35l-108 -151h-27z" />
    <glyph glyph-name="Ncommaaccent" unicode="&#x145;" horiz-adv-x="911" 
d="M769 0h-39l-558 639v-639h-31v676h39l558 -642v642h31v-676zM472 -61q6 -14 8.5 -28t2.5 -28q0 -36 -19.5 -65t-62.5 -50l-11 21q35 16 50.5 40t15.5 53q0 13 -2.5 27.5t-9.5 29.5h28z" />
    <glyph glyph-name="ncommaaccent" unicode="&#x146;" horiz-adv-x="655" 
d="M140 475v-59q40 26 92 48t117 22q43 0 79.5 -10.5t63.5 -32t42.5 -54t15.5 -75.5v-314h-27v314q0 71 -48 108.5t-126 37.5q-64 0 -115.5 -22.5t-93.5 -52.5v-385h-27v475h27zM346 -61q6 -14 8.5 -28t2.5 -28q0 -36 -19.5 -65t-62.5 -50l-11 21q35 16 50.5 40t15.5 53
q0 13 -2.5 27.5t-9.5 29.5h28z" />
    <glyph glyph-name="Ncaron" unicode="&#x147;" horiz-adv-x="911" 
d="M769 0h-39l-558 639v-639h-31v676h39l558 -642v642h31v-676zM443 744l-113 151h27l98 -121l98 121h27l-113 -151h-24z" />
    <glyph glyph-name="ncaron" unicode="&#x148;" horiz-adv-x="655" 
d="M140 475v-59q40 26 92 48t117 22q43 0 79.5 -10.5t63.5 -32t42.5 -54t15.5 -75.5v-314h-27v314q0 71 -48 108.5t-126 37.5q-64 0 -115.5 -22.5t-93.5 -52.5v-385h-27v475h27zM315 559l-113 151h27l98 -121l98 121h27l-113 -151h-24z" />
    <glyph glyph-name="Eng" unicode="&#x14a;" horiz-adv-x="910" 
d="M769 -25q0 -47 -13.5 -78.5t-37 -51t-54 -27.5t-63.5 -8q-27 0 -54.5 5t-51.5 14v29q52 -20 106 -20q28 0 52.5 6.5t43.5 22t30 42t11 66.5v25l-566 629v-629h-31v676h31l566 -632v632h31v-701z" />
    <glyph glyph-name="eng" unicode="&#x14b;" horiz-adv-x="655" 
d="M140 416q40 26 92 48t117 22q43 0 79.5 -10.5t63.5 -32t42.5 -54t15.5 -75.5v-428q0 -44 -25.5 -65.5t-64.5 -21.5q-17 0 -36.5 4t-33.5 12v28q17 -9 33 -13.5t37 -4.5q29 0 46 15.5t17 45.5v428q0 71 -48 108.5t-126 37.5q-64 0 -115.5 -22.5t-93.5 -52.5v-385h-27v475
h27v-59z" />
    <glyph glyph-name="Omacron" unicode="&#x14c;" horiz-adv-x="966" 
d="M884 338q0 -78 -28.5 -142.5t-81 -110.5t-126.5 -71t-165 -25t-165 25t-126.5 71t-81 110.5t-28.5 142.5t28.5 142.5t81 110.5t126.5 71t165 25t165 -25t126.5 -71t81 -110.5t28.5 -142.5zM853 338q0 72 -26.5 131.5t-74.5 101.5t-116.5 65t-152.5 23t-152.5 -23
t-116.5 -65t-74.5 -101.5t-26.5 -131.5t26.5 -131.5t74.5 -101.5t116.5 -65t152.5 -23t152.5 23t116.5 65t74.5 101.5t26.5 131.5zM615 805h-264v24h264v-24z" />
    <glyph glyph-name="omacron" unicode="&#x14d;" horiz-adv-x="692" 
d="M346 486q61 0 113 -18.5t89 -51.5t58 -79t21 -100t-21 -99.5t-58 -78.5t-89 -51.5t-113 -18.5q-62 0 -113.5 18.5t-88.5 51.5t-58 78.5t-21 99.5t21 100t58 79t88.5 51.5t113.5 18.5zM346 460q-56 0 -102.5 -16.5t-80 -46t-52 -70.5t-18.5 -90t18.5 -89.5t52 -70t80 -46
t102.5 -16.5t102.5 16.5t80 46t52 70t18.5 89.5t-18.5 90t-52 70.5t-80 46t-102.5 16.5zM478 622h-264v24h264v-24z" />
    <glyph glyph-name="Obreve" unicode="&#x14e;" horiz-adv-x="966" 
d="M884 338q0 -78 -28.5 -142.5t-81 -110.5t-126.5 -71t-165 -25t-165 25t-126.5 71t-81 110.5t-28.5 142.5t28.5 142.5t81 110.5t126.5 71t165 25t165 -25t126.5 -71t81 -110.5t28.5 -142.5zM853 338q0 72 -26.5 131.5t-74.5 101.5t-116.5 65t-152.5 23t-152.5 -23
t-116.5 -65t-74.5 -101.5t-26.5 -131.5t26.5 -131.5t74.5 -101.5t116.5 -65t152.5 -23t152.5 23t116.5 65t74.5 101.5t26.5 131.5zM483 756q-66 0 -103.5 37.5t-39.5 92.5h27q3 -45 32.5 -74t83.5 -29t83.5 29t32.5 74h27q-2 -55 -39.5 -92.5t-103.5 -37.5z" />
    <glyph glyph-name="obreve" unicode="&#x14f;" horiz-adv-x="692" 
d="M346 486q61 0 113 -18.5t89 -51.5t58 -79t21 -100t-21 -99.5t-58 -78.5t-89 -51.5t-113 -18.5q-62 0 -113.5 18.5t-88.5 51.5t-58 78.5t-21 99.5t21 100t58 79t88.5 51.5t113.5 18.5zM346 460q-56 0 -102.5 -16.5t-80 -46t-52 -70.5t-18.5 -90t18.5 -89.5t52 -70t80 -46
t102.5 -16.5t102.5 16.5t80 46t52 70t18.5 89.5t-18.5 90t-52 70.5t-80 46t-102.5 16.5zM346 571q-66 0 -103.5 37.5t-39.5 92.5h27q3 -45 32.5 -74t83.5 -29t83.5 29t32.5 74h27q-2 -55 -39.5 -92.5t-103.5 -37.5z" />
    <glyph glyph-name="Ohungarumlaut" unicode="&#x150;" horiz-adv-x="966" 
d="M884 338q0 -78 -28.5 -142.5t-81 -110.5t-126.5 -71t-165 -25t-165 25t-126.5 71t-81 110.5t-28.5 142.5t28.5 142.5t81 110.5t126.5 71t165 25t165 -25t126.5 -71t81 -110.5t28.5 -142.5zM853 338q0 72 -26.5 131.5t-74.5 101.5t-116.5 65t-152.5 23t-152.5 -23
t-116.5 -65t-74.5 -101.5t-26.5 -131.5t26.5 -131.5t74.5 -101.5t116.5 -65t152.5 -23t152.5 23t116.5 65t74.5 101.5t26.5 131.5zM492 895h35l-108 -151h-27zM624 895h35l-118 -151h-27z" />
    <glyph glyph-name="ohungarumlaut" unicode="&#x151;" horiz-adv-x="692" 
d="M346 486q61 0 113 -18.5t89 -51.5t58 -79t21 -100t-21 -99.5t-58 -78.5t-89 -51.5t-113 -18.5q-62 0 -113.5 18.5t-88.5 51.5t-58 78.5t-21 99.5t21 100t58 79t88.5 51.5t113.5 18.5zM346 460q-56 0 -102.5 -16.5t-80 -46t-52 -70.5t-18.5 -90t18.5 -89.5t52 -70t80 -46
t102.5 -16.5t102.5 16.5t80 46t52 70t18.5 89.5t-18.5 90t-52 70.5t-80 46t-102.5 16.5zM375 710h35l-108 -151h-27zM507 710h35l-118 -151h-27z" />
    <glyph glyph-name="OE" unicode="&#x152;" horiz-adv-x="1371" 
d="M1271 648h-388v-279h361v-28h-361v-193q0 -60 33 -90t114 -30h263v-28h-263q-98 0 -137.5 39t-39.5 109v50q-42 -97 -137.5 -153t-232.5 -56q-91 0 -165 25t-126.5 71t-81 110.5t-28.5 142.5t28.5 142.5t81 110.5t126.5 71t165 25q137 0 232.5 -56t137.5 -153v198h418
v-28zM853 338q0 72 -26.5 131.5t-74.5 101.5t-116.5 65t-152.5 23t-152.5 -23t-116.5 -65t-74.5 -101.5t-26.5 -131.5t26.5 -131.5t74.5 -101.5t116.5 -65t152.5 -23t152.5 23t116.5 65t74.5 101.5t26.5 131.5z" />
    <glyph glyph-name="oe" unicode="&#x153;" horiz-adv-x="1159" 
d="M626 237q1 -60 21 -102t52.5 -69t75 -39t89.5 -12q55 0 110.5 13t103.5 42v-29q-47 -28 -102.5 -40t-111.5 -12q-43 0 -83.5 9.5t-74 29.5t-58.5 51.5t-37 75.5q-26 -76 -96 -121t-169 -45q-62 0 -113.5 18.5t-88.5 51.5t-58 78.5t-21 99.5t21 100t58 79t88.5 51.5
t113.5 18.5q100 0 170 -46t96 -124q23 78 85.5 124t151.5 46q52 0 96 -16.5t77 -46t53 -71t24 -90.5v-25h-473zM346 460q-56 0 -102.5 -16.5t-80 -46t-52 -70.5t-18.5 -90t18.5 -89.5t52 -70t80 -46t102.5 -16.5t102.5 16.5t80 46t52 70t18.5 89.5t-18.5 90t-52 70.5t-80 46
t-102.5 16.5zM1071 262q-5 43 -22.5 79.5t-46.5 63t-68 41t-85 14.5q-47 0 -86.5 -14.5t-68 -41t-46 -63t-21.5 -79.5h444z" />
    <glyph glyph-name="Racute" unicode="&#x154;" horiz-adv-x="702" 
d="M343 676q137 0 206 -53.5t69 -144.5q0 -84 -59 -136.5t-177 -60.5l274 -281h-40l-273 280h-171v-280h-31v676h202zM172 308h171q118 0 181 44.5t63 125.5t-63 125.5t-181 44.5h-171v-340zM451 895h35l-108 -151h-27z" />
    <glyph glyph-name="racute" unicode="&#x155;" horiz-adv-x="388" 
d="M140 475v-82q19 18 45 35t56 30t62.5 20.5t64.5 7.5v-26q-62 0 -123 -27t-105 -72v-361h-27v475h27zM306 710h35l-108 -151h-27z" />
    <glyph glyph-name="Rcommaaccent" unicode="&#x156;" horiz-adv-x="702" 
d="M343 676q137 0 206 -53.5t69 -144.5q0 -84 -59 -136.5t-177 -60.5l274 -281h-40l-273 280h-171v-280h-31v676h202zM172 308h171q118 0 181 44.5t63 125.5t-63 125.5t-181 44.5h-171v-340zM399 -61q6 -14 8.5 -28t2.5 -28q0 -36 -19.5 -65t-62.5 -50l-11 21q35 16 50.5 40
t15.5 53q0 13 -2.5 27.5t-9.5 29.5h28z" />
    <glyph glyph-name="rcommaaccent" unicode="&#x157;" horiz-adv-x="388" 
d="M140 475v-82q19 18 45 35t56 30t62.5 20.5t64.5 7.5v-26q-62 0 -123 -27t-105 -72v-361h-27v475h27zM139 -61q6 -14 8.5 -28t2.5 -28q0 -36 -19.5 -65t-62.5 -50l-11 21q35 16 50.5 40t15.5 53q0 13 -2.5 27.5t-9.5 29.5h28z" />
    <glyph glyph-name="Rcaron" unicode="&#x158;" horiz-adv-x="702" 
d="M343 676q137 0 206 -53.5t69 -144.5q0 -84 -59 -136.5t-177 -60.5l274 -281h-40l-273 280h-171v-280h-31v676h202zM172 308h171q118 0 181 44.5t63 125.5t-63 125.5t-181 44.5h-171v-340zM357 744l-113 151h27l98 -121l98 121h27l-113 -151h-24z" />
    <glyph glyph-name="rcaron" unicode="&#x159;" horiz-adv-x="388" 
d="M140 475v-82q19 18 45 35t56 30t62.5 20.5t64.5 7.5v-26q-62 0 -123 -27t-105 -72v-361h-27v475h27zM233 559l-113 151h27l98 -121l98 121h27l-113 -151h-24z" />
    <glyph glyph-name="Sacute" unicode="&#x15a;" horiz-adv-x="657" 
d="M552 613q-40 20 -91 33t-126 13q-40 0 -78.5 -8.5t-68.5 -26.5t-48.5 -46t-18.5 -67t19.5 -64.5t51 -42t72.5 -27.5t83 -21.5t83 -23.5t72.5 -33t51 -50t19.5 -76q0 -49 -21.5 -83.5t-57.5 -57t-83 -33t-98 -10.5q-30 0 -61.5 3.5t-62 10.5t-58 17t-48.5 22v32
q46 -27 108.5 -42t121.5 -15q42 0 83 7.5t73.5 25.5t52.5 48t20 75q0 40 -19.5 66t-51 43.5t-72.5 28.5t-83 21.5t-83 22.5t-72.5 32t-51 49.5t-19.5 74.5q0 46 21 79t55.5 54.5t78.5 32t90 10.5q74 0 125.5 -12.5t91.5 -32.5v-29v0zM400 895h35l-108 -151h-27z" />
    <glyph glyph-name="sacute" unicode="&#x15b;" horiz-adv-x="538" 
d="M460 418q-31 18 -80.5 30t-100.5 12q-38 0 -70.5 -6.5t-56.5 -20t-37.5 -33t-13.5 -45.5q0 -38 27 -57t68 -29.5t88.5 -17.5t88.5 -20.5t68 -38t27 -70.5q0 -33 -15 -57.5t-41.5 -41.5t-63.5 -25.5t-80 -8.5q-110 0 -197 52v28q42 -25 91.5 -39.5t106.5 -14.5
q79 0 125 26.5t46 78.5q0 39 -27 59.5t-68 32t-88.5 18.5t-88.5 20t-68 37t-27 68q0 60 55.5 95.5t150.5 35.5q57 0 106 -12.5t75 -27.5v-28zM344 710h35l-108 -151h-27z" />
    <glyph glyph-name="Scircumflex" unicode="&#x15c;" horiz-adv-x="657" 
d="M552 613q-40 20 -91 33t-126 13q-40 0 -78.5 -8.5t-68.5 -26.5t-48.5 -46t-18.5 -67t19.5 -64.5t51 -42t72.5 -27.5t83 -21.5t83 -23.5t72.5 -33t51 -50t19.5 -76q0 -49 -21.5 -83.5t-57.5 -57t-83 -33t-98 -10.5q-30 0 -61.5 3.5t-62 10.5t-58 17t-48.5 22v32
q46 -27 108.5 -42t121.5 -15q42 0 83 7.5t73.5 25.5t52.5 48t20 75q0 40 -19.5 66t-51 43.5t-72.5 28.5t-83 21.5t-83 22.5t-72.5 32t-51 49.5t-19.5 74.5q0 46 21 79t55.5 54.5t78.5 32t90 10.5q74 0 125.5 -12.5t91.5 -32.5v-29v0zM340 895l113 -151h-27l-98 121l-98 -121
h-27l113 151h24z" />
    <glyph glyph-name="scircumflex" unicode="&#x15d;" horiz-adv-x="538" 
d="M460 418q-31 18 -80.5 30t-100.5 12q-38 0 -70.5 -6.5t-56.5 -20t-37.5 -33t-13.5 -45.5q0 -38 27 -57t68 -29.5t88.5 -17.5t88.5 -20.5t68 -38t27 -70.5q0 -33 -15 -57.5t-41.5 -41.5t-63.5 -25.5t-80 -8.5q-110 0 -197 52v28q42 -25 91.5 -39.5t106.5 -14.5
q79 0 125 26.5t46 78.5q0 39 -27 59.5t-68 32t-88.5 18.5t-88.5 20t-68 37t-27 68q0 60 55.5 95.5t150.5 35.5q57 0 106 -12.5t75 -27.5v-28zM282 710l113 -151h-27l-98 121l-98 -121h-27l113 151h24z" />
    <glyph glyph-name="Scedilla" unicode="&#x15e;" horiz-adv-x="657" 
d="M279 -157q28 -11 59 -11q24 0 43 11t19 36q0 23 -18.5 33t-42.5 10h-40l21 67h-8q-30 0 -61.5 3.5t-61.5 10.5t-57.5 17t-48.5 22v32q46 -27 108.5 -42t121.5 -15q42 0 83 7.5t73.5 25.5t52.5 48t20 75q0 40 -19.5 66t-51 43.5t-72.5 28.5t-83 21.5t-83 22.5t-72.5 32
t-51 49.5t-19.5 74.5q0 46 21.5 79t56 54.5t78.5 32t89 10.5q74 0 125.5 -12.5t91.5 -32.5v-29q-40 20 -91 33t-126 13q-40 0 -78.5 -8.5t-68.5 -26.5t-48.5 -46t-18.5 -67t19.5 -64.5t51 -42t72.5 -27.5t83 -21.5t83 -23.5t72.5 -33t51 -50t19.5 -76q0 -45 -18 -77.5
t-49 -55t-72 -35t-87 -15.5l-14 -44h6q16 0 31.5 -3.5t28.5 -11t21 -20.5t8 -32q0 -32 -24.5 -52t-65.5 -20q-18 0 -32 2.5t-27 7.5v26z" />
    <glyph glyph-name="scedilla" unicode="&#x15f;" horiz-adv-x="538" 
d="M217 -157q14 -5 27.5 -8t31.5 -3q24 0 43 11t19 36q0 23 -18.5 33t-42.5 10h-40l21 67q-51 2 -98.5 14.5t-88.5 37.5v28q42 -25 91.5 -39.5t106.5 -14.5q79 0 125 26.5t46 78.5q0 39 -27 59.5t-68 32t-88.5 18.5t-88.5 20t-68 37t-27 68q0 60 55.5 95.5t150.5 35.5
q57 0 106 -12.5t75 -27.5v-28q-31 18 -80.5 30t-100.5 12q-38 0 -70.5 -6.5t-56.5 -20t-37.5 -33t-13.5 -45.5q0 -38 27 -57t68 -29.5t88.5 -17.5t88.5 -20.5t68 -38t27 -70.5q0 -62 -51.5 -95.5t-132.5 -36.5l-13 -44h6q16 0 31.5 -3.5t28.5 -11t21 -20.5t8 -32
q0 -32 -24.5 -52t-65.5 -20q-18 0 -32 2.5t-27 7.5v26z" />
    <glyph glyph-name="Scaron" unicode="&#x160;" horiz-adv-x="657" 
d="M552 613q-40 20 -91 33t-126 13q-40 0 -78.5 -8.5t-68.5 -26.5t-48.5 -46t-18.5 -67t19.5 -64.5t51 -42t72.5 -27.5t83 -21.5t83 -23.5t72.5 -33t51 -50t19.5 -76q0 -49 -21.5 -83.5t-57.5 -57t-83 -33t-98 -10.5q-30 0 -61.5 3.5t-62 10.5t-58 17t-48.5 22v32
q46 -27 108.5 -42t121.5 -15q42 0 83 7.5t73.5 25.5t52.5 48t20 75q0 40 -19.5 66t-51 43.5t-72.5 28.5t-83 21.5t-83 22.5t-72.5 32t-51 49.5t-19.5 74.5q0 46 21 79t55.5 54.5t78.5 32t90 10.5q74 0 125.5 -12.5t91.5 -32.5v-29v0zM316 744l-113 151h27l98 -121l98 121h27
l-113 -151h-24z" />
    <glyph glyph-name="scaron" unicode="&#x161;" horiz-adv-x="538" 
d="M460 418q-31 18 -80.5 30t-100.5 12q-38 0 -70.5 -6.5t-56.5 -20t-37.5 -33t-13.5 -45.5q0 -38 27 -57t68 -29.5t88.5 -17.5t88.5 -20.5t68 -38t27 -70.5q0 -33 -15 -57.5t-41.5 -41.5t-63.5 -25.5t-80 -8.5q-110 0 -197 52v28q42 -25 91.5 -39.5t106.5 -14.5
q79 0 125 26.5t46 78.5q0 39 -27 59.5t-68 32t-88.5 18.5t-88.5 20t-68 37t-27 68q0 60 55.5 95.5t150.5 35.5q57 0 106 -12.5t75 -27.5v-28zM258 559l-113 151h27l98 -121l98 121h27l-113 -151h-24z" />
    <glyph glyph-name="Tcommaaccent" unicode="&#x162;" horiz-adv-x="665" 
d="M638 648h-290v-648h-31v648h-290v28h611v-28zM346 -61q6 -14 8.5 -28t2.5 -28q0 -36 -19.5 -65t-62.5 -50l-11 21q35 16 50.5 40t15.5 53q0 13 -2.5 27.5t-9.5 29.5h28z" />
    <glyph glyph-name="tcommaaccent" unicode="&#x163;" horiz-adv-x="362" 
d="M328 450h-188v-334q0 -53 31 -77t75 -24q49 0 92 23v-28q-21 -11 -45 -16t-47 -5q-28 0 -52.5 7.5t-42.5 23t-28 39.5t-10 57v334h-84v25h84l3 151h24v-151h188v-25zM241 -61q6 -14 8.5 -28t2.5 -28q0 -36 -19.5 -65t-62.5 -50l-11 21q35 16 50.5 40t15.5 53
q0 13 -2.5 27.5t-9.5 29.5h28z" />
    <glyph glyph-name="Tcaron" unicode="&#x164;" horiz-adv-x="665" 
d="M638 648h-290v-648h-31v648h-290v28h611v-28zM320 744l-113 151h27l98 -121l98 121h27l-113 -151h-24z" />
    <glyph glyph-name="tcaron" unicode="&#x165;" horiz-adv-x="362" 
d="M272 721q12 -30 12 -61q0 -32 -12 -64t-38 -62l-20 14q45 50 45 111q0 34 -14 62h27v0zM328 450h-188v-334q0 -53 31 -77t75 -24q49 0 92 23v-28q-21 -11 -45 -16t-47 -5q-28 0 -52.5 7.5t-42.5 23t-28 39.5t-10 57v334h-84v25h84l3 151h24v-151h188v-25z" />
    <glyph glyph-name="Tbar" unicode="&#x166;" horiz-adv-x="665" 
d="M638 648h-290v-280h244v-28h-244v-340h-31v340h-244v28h244v280h-290v28h611v-28z" />
    <glyph glyph-name="tbar" unicode="&#x167;" horiz-adv-x="368" 
d="M328 450h-188v-172h170v-25h-170v-137q0 -53 31 -77t75 -24q49 0 92 23v-28q-21 -11 -45 -16t-47 -5q-28 0 -52.5 7.5t-42.5 23t-28 39.5t-10 57v137h-84v25h84v172h-84v25h84l3 151h24v-151h188v-25z" />
    <glyph glyph-name="Utilde" unicode="&#x168;" horiz-adv-x="797" 
d="M676 230q0 -61 -23 -106.5t-61 -75.5t-88 -44.5t-105 -14.5t-105 14.5t-88.5 44.5t-61.5 75.5t-23 106.5v446h31v-446q0 -54 20 -94.5t54 -66.5t79 -39t94 -13q51 0 96 13.5t79 40.5t53.5 66.5t19.5 92.5v446h29v-446zM253 770q1 18 6 35.5t14 31.5t23 22.5t33 8.5
t37.5 -11.5t36.5 -25t34 -24.5t30 -11q13 0 22 6.5t15 16.5t9 22.5t3 24.5h27q-1 -18 -6 -35.5t-14 -31.5t-23 -22.5t-33 -8.5q-18 0 -36.5 11.5t-36.5 25t-34.5 25t-30.5 11.5q-26 0 -37 -23t-12 -48h-27z" />
    <glyph glyph-name="utilde" unicode="&#x169;" horiz-adv-x="638" 
d="M498 0v73q-15 -14 -36 -29t-46 -27t-54 -20t-61 -8q-45 0 -81.5 11t-62.5 34t-40.5 59.5t-14.5 87.5v294h27v-294q0 -45 12 -77t34.5 -51.5t54.5 -28.5t71 -9q30 0 58.5 8t54 20.5t47 28.5t37.5 33v370h27v-475h-27zM168 587q1 18 6 35.5t14 31.5t23 22.5t33 8.5
t37.5 -11.5t36.5 -25t34 -24.5t30 -11q13 0 22 6.5t15 16.5t9 22.5t3 24.5h27q-1 -18 -6 -35.5t-14 -31.5t-23 -22.5t-33 -8.5q-18 0 -36.5 11.5t-36.5 25t-34.5 25t-30.5 11.5q-26 0 -37 -23t-12 -48h-27z" />
    <glyph glyph-name="Umacron" unicode="&#x16a;" horiz-adv-x="797" 
d="M676 230q0 -61 -23 -106.5t-61 -75.5t-88 -44.5t-105 -14.5t-105 14.5t-88.5 44.5t-61.5 75.5t-23 106.5v446h31v-446q0 -54 20 -94.5t54 -66.5t79 -39t94 -13q51 0 96 13.5t79 40.5t53.5 66.5t19.5 92.5v446h29v-446zM530 805h-264v24h264v-24z" />
    <glyph glyph-name="umacron" unicode="&#x16b;" horiz-adv-x="638" 
d="M498 0v73q-15 -14 -36 -29t-46 -27t-54 -20t-61 -8q-45 0 -81.5 11t-62.5 34t-40.5 59.5t-14.5 87.5v294h27v-294q0 -45 12 -77t34.5 -51.5t54.5 -28.5t71 -9q30 0 58.5 8t54 20.5t47 28.5t37.5 33v370h27v-475h-27zM445 622h-264v24h264v-24z" />
    <glyph glyph-name="Ubreve" unicode="&#x16c;" horiz-adv-x="797" 
d="M676 230q0 -61 -23 -106.5t-61 -75.5t-88 -44.5t-105 -14.5t-105 14.5t-88.5 44.5t-61.5 75.5t-23 106.5v446h31v-446q0 -54 20 -94.5t54 -66.5t79 -39t94 -13q51 0 96 13.5t79 40.5t53.5 66.5t19.5 92.5v446h29v-446zM398 755q-66 0 -103.5 37.5t-39.5 92.5h27
q3 -45 32.5 -74t83.5 -29t83.5 29t32.5 74h27q-2 -55 -39.5 -92.5t-103.5 -37.5z" />
    <glyph glyph-name="ubreve" unicode="&#x16d;" horiz-adv-x="638" 
d="M498 0v73q-15 -14 -36 -29t-46 -27t-54 -20t-61 -8q-45 0 -81.5 11t-62.5 34t-40.5 59.5t-14.5 87.5v294h27v-294q0 -45 12 -77t34.5 -51.5t54.5 -28.5t71 -9q30 0 58.5 8t54 20.5t47 28.5t37.5 33v370h27v-475h-27zM313 571q-66 0 -103.5 37.5t-39.5 92.5h27
q3 -45 32.5 -74t83.5 -29t83.5 29t32.5 74h27q-2 -55 -39.5 -92.5t-103.5 -37.5z" />
    <glyph glyph-name="Uring" unicode="&#x16e;" horiz-adv-x="797" 
d="M676 230q0 -61 -23 -106.5t-61 -75.5t-88 -44.5t-105 -14.5t-105 14.5t-88.5 44.5t-61.5 75.5t-23 106.5v446h31v-446q0 -54 20 -94.5t54 -66.5t79 -39t94 -13q51 0 96 13.5t79 40.5t53.5 66.5t19.5 92.5v446h29v-446zM398 730q-21 0 -40.5 5.5t-35.5 17t-25.5 28
t-9.5 38.5q0 21 9.5 37t25.5 27.5t35.5 17t40.5 5.5t40.5 -5.5t35.5 -17t25.5 -27.5t9.5 -37q0 -22 -9.5 -38.5t-25.5 -28t-35.5 -17t-40.5 -5.5zM398 881q-35 0 -59 -16.5t-24 -46.5t24 -46.5t59 -16.5t59 16.5t24 46.5t-24 46.5t-59 16.5z" />
    <glyph glyph-name="uring" unicode="&#x16f;" horiz-adv-x="638" 
d="M498 0v73q-15 -14 -36 -29t-46 -27t-54 -20t-61 -8q-45 0 -81.5 11t-62.5 34t-40.5 59.5t-14.5 87.5v294h27v-294q0 -45 12 -77t34.5 -51.5t54.5 -28.5t71 -9q30 0 58.5 8t54 20.5t47 28.5t37.5 33v370h27v-475h-27zM313 546q-21 0 -40.5 5.5t-35.5 17t-25.5 28
t-9.5 38.5q0 21 9.5 37t25.5 27.5t35.5 17t40.5 5.5t40.5 -5.5t35.5 -17t25.5 -27.5t9.5 -37q0 -22 -9.5 -38.5t-25.5 -28t-35.5 -17t-40.5 -5.5zM313 697q-35 0 -59 -16.5t-24 -46.5t24 -46.5t59 -16.5t59 16.5t24 46.5t-24 46.5t-59 16.5z" />
    <glyph glyph-name="Uhungarumlaut" unicode="&#x170;" horiz-adv-x="797" 
d="M676 230q0 -61 -23 -106.5t-61 -75.5t-88 -44.5t-105 -14.5t-105 14.5t-88.5 44.5t-61.5 75.5t-23 106.5v446h31v-446q0 -54 20 -94.5t54 -66.5t79 -39t94 -13q51 0 96 13.5t79 40.5t53.5 66.5t19.5 92.5v446h29v-446zM408 895h35l-108 -151h-27zM540 895h35l-118 -151
h-27z" />
    <glyph glyph-name="uhungarumlaut" unicode="&#x171;" horiz-adv-x="638" 
d="M498 0v73q-15 -14 -36 -29t-46 -27t-54 -20t-61 -8q-45 0 -81.5 11t-62.5 34t-40.5 59.5t-14.5 87.5v294h27v-294q0 -45 12 -77t34.5 -51.5t54.5 -28.5t71 -9q30 0 58.5 8t54 20.5t47 28.5t37.5 33v370h27v-475h-27zM334 710h35l-108 -151h-27zM466 710h35l-118 -151h-27
z" />
    <glyph glyph-name="Uogonek" unicode="&#x172;" horiz-adv-x="797" 
d="M676 230q0 -55 -18.5 -97.5t-51 -72t-75 -46.5t-90.5 -22q-26 -20 -45.5 -45.5t-19.5 -56.5q0 -28 19 -43t49 -15q23 0 41 5.5t33 13.5v-26q-14 -8 -31.5 -13t-43.5 -5q-43 0 -69 21.5t-26 62.5q0 31 16.5 56t38.5 42h-4q-55 0 -105 14.5t-88.5 44.5t-61.5 75.5
t-23 106.5v446h31v-446q0 -54 20 -94.5t54 -66.5t79 -39t94 -13q51 0 96 13.5t79 40.5t53.5 66.5t19.5 92.5v446h29v-446z" />
    <glyph glyph-name="uogonek" unicode="&#x173;" horiz-adv-x="638" 
d="M498 73q-15 -14 -36 -29t-46.5 -27t-55 -20t-61.5 -8q-44 0 -80 11t-62 34t-40.5 59.5t-14.5 87.5v294h27v-295q0 -45 12 -76.5t34.5 -51t54.5 -28.5t71 -9q30 0 58.5 8t54 20.5t47 28.5t37.5 33v370h27v-475q-30 -20 -54 -47.5t-24 -62.5q0 -28 19 -43t49 -15
q23 0 41 5.5t33 13.5v-26q-14 -8 -31.5 -13t-43.5 -5q-43 0 -69 21.5t-26 62.5q0 35 23 63.5t56 45.5v73z" />
    <glyph glyph-name="Wcircumflex" unicode="&#x174;" horiz-adv-x="1134" 
d="M582 676l268 -638l236 638h29l-249 -676h-29l-270 638l-270 -638h-29l-249 676h29l236 -638l268 638h30zM582 895l113 -151h-27l-98 121l-98 -121h-27l113 151h24z" />
    <glyph glyph-name="wcircumflex" unicode="&#x175;" horiz-adv-x="868" 
d="M434 438l-196 -438h-26l-202 475h29l187 -441l195 441h26l195 -441l187 441h29l-202 -475h-26zM446 710l113 -151h-27l-98 121l-98 -121h-27l113 151h24z" />
    <glyph glyph-name="Ycircumflex" unicode="&#x176;" horiz-adv-x="630" 
d="M331 274v-274h-31v274l-300 402h35l281 -371l278 371h36zM327 895l113 -151h-27l-98 121l-98 -121h-27l113 151h24z" />
    <glyph glyph-name="ycircumflex" unicode="&#x177;" horiz-adv-x="638" 
d="M129 475v-294q0 -45 12 -77t34.5 -51.5t54.5 -28.5t71 -9q30 0 58.5 8t54 20.5t47 28.5t37.5 33v370h27v-477q0 -54 -19 -92t-51.5 -61.5t-74 -34.5t-86.5 -11t-90.5 10t-84.5 28v29q35 -18 81.5 -29.5t93.5 -11.5q39 0 76 9t65.5 29.5t45.5 53.5t17 81v75
q-15 -14 -36 -29t-46 -27t-54.5 -20t-61.5 -8q-44 0 -80.5 11t-62.5 34t-40.5 59.5t-14.5 87.5v294h27zM324 710l113 -151h-27l-98 121l-98 -121h-27l113 151h24z" />
    <glyph glyph-name="Ydieresis" unicode="&#x178;" horiz-adv-x="630" 
d="M331 274v-274h-31v274l-300 402h35l281 -371l278 371h36zM234 789h-29v72h29v-72zM425 789h-29v72h29v-72z" />
    <glyph glyph-name="Zacute" unicode="&#x179;" horiz-adv-x="689" 
d="M632 648l-531 -620h542v-28h-580v28l531 620h-520v28h558v-28zM419 895h35l-108 -151h-27z" />
    <glyph glyph-name="zacute" unicode="&#x17a;" horiz-adv-x="522" 
d="M464 452l-373 -424h382v-28h-419v24l374 426h-364v25h400v-23zM349 710h35l-108 -151h-27z" />
    <glyph glyph-name="Zdotaccent" unicode="&#x17b;" horiz-adv-x="689" 
d="M632 648l-531 -620h542v-28h-580v28l531 620h-520v28h558v-28zM354 782h-29v72h29v-72z" />
    <glyph glyph-name="zdotaccent" unicode="&#x17c;" horiz-adv-x="522" 
d="M464 452l-373 -424h382v-28h-419v24l374 426h-364v25h400v-23zM277 604h-29v72h29v-72z" />
    <glyph glyph-name="Zcaron" unicode="&#x17d;" horiz-adv-x="689" 
d="M632 648l-531 -620h542v-28h-580v28l531 620h-520v28h558v-28zM327 744l-113 151h27l98 -121l98 121h27l-113 -151h-24z" />
    <glyph glyph-name="zcaron" unicode="&#x17e;" horiz-adv-x="522" 
d="M464 452l-373 -424h382v-28h-419v24l374 426h-364v25h400v-23zM257 559l-113 151h27l98 -121l98 121h27l-113 -151h-24z" />
    <glyph glyph-name="longs" unicode="&#x17f;" horiz-adv-x="339" 
d="M120 0v450h-83v25h83v109q0 34 11 59.5t30.5 43t45 26t54.5 8.5q19 0 39 -3t40 -11v-27q-19 8 -39.5 11.5t-39.5 3.5q-23 0 -43.5 -6t-36.5 -19.5t-25 -34.5t-9 -50v-585h-27z" />
    <glyph glyph-name="florin" unicode="&#x192;" horiz-adv-x="530" 
d="M135 368v114q0 53 17 91.5t47 64t70 37.5t86 12q32 0 70.5 -6t68.5 -19v-30q-29 12 -65 19.5t-74 7.5q-41 0 -76 -10t-60.5 -31t-39.5 -53.5t-14 -77.5v-119h292v-28h-292v-340h-30v340h-113v28h113z" />
    <glyph glyph-name="Aringacute" unicode="&#x1fa;" horiz-adv-x="676" 
d="M338 731q-21 0 -40.5 5.5t-35.5 17t-25.5 28t-9.5 38.5q0 38 28.5 59.5t66.5 26.5l94 138h35l-98 -138q18 -2 35.5 -9t31 -17.5t21.5 -25.5t8 -34q0 -22 -9.5 -38.5t-25.5 -28t-35.5 -17t-40.5 -5.5zM338 882q-35 0 -59 -16.5t-24 -46.5t24 -46.5t59 -16.5t59 16.5
t24 46.5t-24 46.5t-59 16.5zM0 0l324 676h30l322 -676h-33l-101 211h-409l-100 -211h-33zM338 639l-191 -400h382z" />
    <glyph glyph-name="aringacute" unicode="&#x1fb;" 
d="M426 858l-98 -138q18 -2 35.5 -9t31 -17.5t21.5 -25.5t8 -34q0 -22 -9.5 -38.5t-25.5 -28t-35.5 -17t-40.5 -5.5t-40.5 5.5t-35.5 17t-25.5 28t-9.5 38.5q0 38 28.5 59.5t66.5 26.5l94 138h35zM313 696q-35 0 -59 -16.5t-24 -46.5t24 -46.5t59 -16.5t59 16.5t24 46.5
t-24 46.5t-59 16.5zM519 423q-45 18 -91.5 27.5t-91.5 9.5q-50 0 -94 -13t-77 -40t-52.5 -69t-19.5 -100q0 -56 18 -98t48 -69.5t70 -41.5t84 -14q34 0 64.5 8t56.5 20.5t47.5 28.5t37.5 33v318zM313 -11q-51 0 -96.5 16t-79 47.5t-53 78t-19.5 107.5q0 63 21.5 109.5
t58 77.5t86 46t106.5 15q51 0 103.5 -11t105.5 -34v-441h-27v73q-15 -14 -36 -29t-46.5 -27t-56.5 -20t-67 -8z" />
    <glyph glyph-name="AEacute" unicode="&#x1fc;" horiz-adv-x="987" 
d="M887 648h-388v-279h361v-28h-361v-193q0 -60 33 -90t114 -30h263v-28h-263q-98 0 -138 39t-40 109v63h-313l-153 -211h-34l484 676h435v-28zM173 239h295v408zM575 895h35l-108 -151h-27z" />
    <glyph glyph-name="aeacute" unicode="&#x1fd;" horiz-adv-x="1016" 
d="M483 237q1 -60 21 -102t52.5 -69t75 -39t89.5 -12q55 0 110.5 13t103.5 42v-29q-47 -28 -102.5 -40t-111.5 -12q-60 0 -114.5 18.5t-92.5 60.5q-15 -14 -35.5 -28t-46 -25.5t-55.5 -18.5t-64 -7q-51 0 -96.5 16t-79 47.5t-53 78t-19.5 107.5q0 63 21.5 109.5t58 77.5
t86 46t106.5 15q56 0 105.5 -12t106.5 -38q32 24 71.5 37t85.5 13q52 0 96 -16.5t77 -46.5t53 -71.5t24 -91.5v-23h-473zM527 417q-49 24 -97.5 33.5t-93.5 9.5q-50 0 -94 -13t-77 -40t-52.5 -69t-19.5 -100q0 -56 18 -98t48 -69.5t70 -41.5t84 -14q59 0 106.5 21.5
t80.5 49.5q-21 29 -33 66t-12 85q0 55 19 101t53 79zM706 460q-47 0 -86.5 -14.5t-68 -41t-46 -63t-21.5 -79.5h444q-5 43 -22.5 79.5t-46.5 63t-68 41t-85 14.5zM598 710h35l-108 -151h-27z" />
    <glyph glyph-name="Oslashacute" unicode="&#x1fe;" horiz-adv-x="966" 
d="M884 338q0 -78 -28.5 -142.5t-81 -110.5t-126.5 -71t-165 -25q-144 0 -243 61l-80 -88l-19 19l76 84q-65 46 -100 115.5t-35 157.5q0 78 28.5 142.5t81 110.5t126.5 71t165 25q72 0 132.5 -16t109.5 -45l80 88l20 -18l-77 -85q65 -46 100.5 -115.5t35.5 -157.5zM853 338
q0 81 -32.5 145t-92.5 106l-468 -517q90 -55 223 -55q84 0 152.5 23t116.5 65t74.5 101.5t26.5 131.5zM113 338q0 -81 32 -145t92 -106l468 517q-45 26 -100.5 40.5t-121.5 14.5q-84 0 -152.5 -23t-116.5 -65t-74.5 -101.5t-26.5 -131.5zM563 895h35l-108 -151h-27z" />
    <glyph glyph-name="oslashacute" unicode="&#x1ff;" horiz-adv-x="692" 
d="M346 486q47 0 88 -11t75 -31l60 69l19 -16l-58 -67q46 -34 71.5 -83.5t25.5 -109.5q0 -54 -21 -99.5t-58 -78.5t-89 -51.5t-113 -18.5q-93 0 -162 40l-59 -68l-20 17l57 66q-46 33 -71.5 82.5t-25.5 110.5q0 54 21 100t58 79t88.5 51.5t113.5 18.5zM346 460
q-56 0 -102.5 -16.5t-80 -46t-52 -70.5t-18.5 -90q0 -55 22.5 -99.5t63.5 -73.5l312 359q-30 17 -66.5 27t-78.5 10zM599 237q0 54 -22.5 98.5t-63.5 74.5l-312 -360q61 -35 145 -35q56 0 102.5 16.5t80 46t52 70t18.5 89.5zM427 710h35l-108 -151h-27z" />
    <glyph glyph-name="Scommaaccent" unicode="&#x218;" horiz-adv-x="657" 
d="M552 613q-40 20 -91 33t-126 13q-40 0 -78.5 -8.5t-68.5 -26.5t-48.5 -46t-18.5 -67t19.5 -64.5t51 -42t72.5 -27.5t83 -21.5t83 -23.5t72.5 -33t51 -50t19.5 -76q0 -49 -21.5 -83.5t-57.5 -57t-83 -33t-98 -10.5q-30 0 -61.5 3.5t-62 10.5t-58 17t-48.5 22v32
q46 -27 108.5 -42t121.5 -15q42 0 83 7.5t73.5 25.5t52.5 48t20 75q0 40 -19.5 66t-51 43.5t-72.5 28.5t-83 21.5t-83 22.5t-72.5 32t-51 49.5t-19.5 74.5q0 46 21 79t55.5 54.5t78.5 32t90 10.5q74 0 125.5 -12.5t91.5 -32.5v-29v0zM358 -61q6 -14 8.5 -28t2.5 -28
q0 -36 -19.5 -65t-62.5 -50l-11 21q35 16 50.5 40t15.5 53q0 13 -2.5 27.5t-9.5 29.5h28z" />
    <glyph glyph-name="scommaaccent" unicode="&#x219;" horiz-adv-x="538" 
d="M460 418q-31 18 -80.5 30t-100.5 12q-38 0 -70.5 -6.5t-56.5 -20t-37.5 -33t-13.5 -45.5q0 -38 27 -57t68 -29.5t88.5 -17.5t88.5 -20.5t68 -38t27 -70.5q0 -33 -15 -57.5t-41.5 -41.5t-63.5 -25.5t-80 -8.5q-110 0 -197 52v28q42 -25 91.5 -39.5t106.5 -14.5
q79 0 125 26.5t46 78.5q0 39 -27 59.5t-68 32t-88.5 18.5t-88.5 20t-68 37t-27 68q0 60 55.5 95.5t150.5 35.5q57 0 106 -12.5t75 -27.5v-28zM300 -61q6 -14 8.5 -28t2.5 -28q0 -36 -19.5 -65t-62.5 -50l-11 21q35 16 50.5 40t15.5 53q0 13 -2.5 27.5t-9.5 29.5h28z" />
    <glyph glyph-name="circumflex" unicode="&#x2c6;" horiz-adv-x="600" 
d="M312 710l113 -151h-27l-98 121l-98 -121h-27l113 151h24z" />
    <glyph glyph-name="caron" unicode="&#x2c7;" horiz-adv-x="600" 
d="M288 559l-113 151h27l98 -121l98 121h27l-113 -151h-24z" />
    <glyph glyph-name="breve" unicode="&#x2d8;" horiz-adv-x="600" 
d="M300 571q-66 0 -103.5 37.5t-39.5 92.5h27q3 -45 32.5 -74t83.5 -29t83.5 29t32.5 74h27q-2 -55 -39.5 -92.5t-103.5 -37.5z" />
    <glyph glyph-name="dotaccent" unicode="&#x2d9;" horiz-adv-x="600" 
d="M314 604h-29v72h29v-72z" />
    <glyph glyph-name="ring" unicode="&#x2da;" horiz-adv-x="600" 
d="M300 546q-21 0 -40.5 5.5t-35.5 17t-25.5 28t-9.5 38.5q0 21 9.5 37t25.5 27.5t35.5 17t40.5 5.5t40.5 -5.5t35.5 -17t25.5 -27.5t9.5 -37q0 -22 -9.5 -38.5t-25.5 -28t-35.5 -17t-40.5 -5.5zM300 697q-35 0 -59 -16.5t-24 -46.5t24 -46.5t59 -16.5t59 16.5t24 46.5
t-24 46.5t-59 16.5z" />
    <glyph glyph-name="ogonek" unicode="&#x2db;" horiz-adv-x="600" 
d="M316 0q-30 -20 -54 -47.5t-24 -62.5q0 -28 19 -43t49 -15q23 0 41 5.5t33 13.5v-26q-14 -8 -31.5 -13t-43.5 -5q-43 0 -69 21.5t-26 62.5q0 35 22.5 63.5t51.5 45.5h32z" />
    <glyph glyph-name="tilde" unicode="&#x2dc;" horiz-adv-x="600" 
d="M155 587q1 18 6 35.5t14 31.5t23 22.5t33 8.5t37.5 -11.5t36.5 -25t34 -24.5t30 -11q13 0 22 6.5t15 16.5t9 22.5t3 24.5h27q-1 -18 -6 -35.5t-14 -31.5t-23 -22.5t-33 -8.5q-18 0 -36.5 11.5t-36.5 25t-34.5 25t-30.5 11.5q-26 0 -37 -23t-12 -48h-27z" />
    <glyph glyph-name="hungarumlaut" unicode="&#x2dd;" horiz-adv-x="600" 
d="M223 710h35l-108 -151h-27zM355 710h35l-118 -151h-27z" />
    <glyph glyph-name="tonos" unicode="&#x384;" horiz-adv-x="600" 
d="M318 710h35l-108 -151h-27z" />
    <glyph glyph-name="dieresistonos" unicode="&#x385;" horiz-adv-x="600" 
d="M333 710h35l-108 -151h-27zM199 604h-29v72h29v-72zM430 604h-29v72h29v-72z" />
    <glyph glyph-name="Alphatonos" unicode="&#x386;" horiz-adv-x="676" 
d="M172 676h32l-78 -151h-27zM0 0l324 676h30l322 -676h-33l-101 211h-409l-100 -211h-33zM338 639l-191 -400h382z" />
    <glyph glyph-name="Epsilontonos" unicode="&#x388;" horiz-adv-x="680" 
d="M73 676h32l-78 -151h-27zM580 676v-28h-388v-279h361v-28h-361v-193q0 -60 33 -90t114 -30h263v-28h-263q-98 0 -138 39t-40 109v528h419z" />
    <glyph glyph-name="Etatonos" unicode="&#x389;" horiz-adv-x="934" 
d="M73 676h32l-78 -151h-27zM793 0h-31v340h-570v-340h-31v676h31v-308h570v308h31v-676z" />
    <glyph glyph-name="Iotatonos" unicode="&#x38a;" horiz-adv-x="333" 
d="M73 676h32l-78 -151h-27zM192 0h-31v676h31v-676z" />
    <glyph glyph-name="Omicrontonos" unicode="&#x38c;" horiz-adv-x="966" 
d="M73 676h32l-78 -151h-27zM884 338q0 -78 -28.5 -142.5t-81 -110.5t-126.5 -71t-165 -25t-165 25t-126.5 71t-81 110.5t-28.5 142.5t28.5 142.5t81 110.5t126.5 71t165 25t165 -25t126.5 -71t81 -110.5t28.5 -142.5zM853 338q0 72 -26.5 131.5t-74.5 101.5t-116.5 65
t-152.5 23t-152.5 -23t-116.5 -65t-74.5 -101.5t-26.5 -131.5t26.5 -131.5t74.5 -101.5t116.5 -65t152.5 -23t152.5 23t116.5 65t74.5 101.5t26.5 131.5z" />
    <glyph glyph-name="Upsilontonos" unicode="&#x38e;" horiz-adv-x="753" 
d="M73 676h32l-78 -151h-27zM454 274v-274h-31v274l-300 402h35l281 -371l278 371h36z" />
    <glyph glyph-name="Omegatonos" unicode="&#x38f;" horiz-adv-x="966" 
d="M91 676h32l-78 -151h-27zM67 28h249q-45 22 -87 51.5t-74.5 69t-52.5 89t-20 111.5q0 77 28.5 139.5t81 106.5t126.5 68t165 24t165 -24t126.5 -68t81 -106.5t28.5 -139.5q0 -62 -20 -111.5t-52.5 -89t-74.5 -69t-87 -51.5h249v-28h-312v24q57 28 105.5 58.5t84 69
t56 86.5t20.5 111q0 72 -26.5 129.5t-74.5 97.5t-116.5 61.5t-152.5 21.5t-152.5 -21.5t-116.5 -61.5t-74.5 -97.5t-26.5 -129.5q0 -63 20.5 -111t56 -86.5t84 -69t105.5 -58.5v-24h-312v28z" />
    <glyph glyph-name="iotadieresistonos" unicode="&#x390;" horiz-adv-x="276" 
d="M151 710h35l-108 -151h-27zM17 604h-29v72h29v-72zM248 604h-29v72h29v-72zM131 475v-399q0 -30 17 -45.5t46 -15.5q21 0 37 4.5t33 13.5v-28q-14 -8 -33.5 -12t-36.5 -4q-39 0 -64.5 21.5t-25.5 65.5v399h27z" />
    <glyph glyph-name="Alpha" unicode="&#x391;" horiz-adv-x="676" 
d="M0 0l324 676h30l322 -676h-33l-101 211h-409l-100 -211h-33zM338 639l-191 -400h382z" />
    <glyph glyph-name="Beta" unicode="&#x392;" horiz-adv-x="680" 
d="M318 676q144 0 209 -47.5t65 -125.5q0 -38 -14 -65.5t-36.5 -47t-51 -31t-56.5 -15.5q35 -5 67.5 -17t57 -32.5t39.5 -49.5t15 -66q0 -85 -75.5 -132t-219.5 -47h-177v676h177zM172 358h146q127 0 185 38t58 107t-58 107t-185 38h-146v-290zM172 28h146q129 0 196.5 39.5
t67.5 111.5t-67.5 111.5t-196.5 39.5h-146v-302z" />
    <glyph glyph-name="Gamma" unicode="&#x393;" horiz-adv-x="574" 
d="M547 676v-28h-375v-648h-31v676h406z" />
    <glyph glyph-name="Delta" unicode="&#x394;" horiz-adv-x="676" 
d="M324 676h30l310 -651v-25h-652v25zM338 639l-292 -611h584z" />
    <glyph glyph-name="Delta" unicode="&#x2206;" horiz-adv-x="676" 
d="M324 676h30l310 -651v-25h-652v25zM338 639l-292 -611h584z" />
    <glyph glyph-name="Epsilon" unicode="&#x395;" horiz-adv-x="650" 
d="M550 676v-28h-388v-279h361v-28h-361v-193q0 -60 33 -90t114 -30h263v-28h-263q-98 0 -138 39t-40 109v528h419z" />
    <glyph glyph-name="Zeta" unicode="&#x396;" horiz-adv-x="689" 
d="M632 648l-531 -620h542v-28h-580v28l531 620h-520v28h558v-28z" />
    <glyph glyph-name="Eta" unicode="&#x397;" horiz-adv-x="914" 
d="M773 0h-31v340h-570v-340h-31v676h31v-308h570v308h31v-676z" />
    <glyph glyph-name="Theta" unicode="&#x398;" horiz-adv-x="966" 
d="M273 368h419v-28h-419v28zM884 338q0 -78 -28.5 -142.5t-81 -110.5t-126.5 -71t-165 -25t-165 25t-126.5 71t-81 110.5t-28.5 142.5t28.5 142.5t81 110.5t126.5 71t165 25t165 -25t126.5 -71t81 -110.5t28.5 -142.5zM853 338q0 72 -26.5 131.5t-74.5 101.5t-116.5 65
t-152.5 23t-152.5 -23t-116.5 -65t-74.5 -101.5t-26.5 -131.5t26.5 -131.5t74.5 -101.5t116.5 -65t152.5 -23t152.5 23t116.5 65t74.5 101.5t26.5 131.5z" />
    <glyph glyph-name="Iota" unicode="&#x399;" horiz-adv-x="313" 
d="M172 0h-31v676h31v-676z" />
    <glyph glyph-name="Kappa" unicode="&#x39a;" horiz-adv-x="656" 
d="M202 351l449 -351h-45l-434 337v-337h-31v676h31v-312l428 312h44z" />
    <glyph glyph-name="Lambda" unicode="&#x39b;" horiz-adv-x="676" 
d="M338 639l-305 -639h-33l324 676h30l322 -676h-33z" />
    <glyph glyph-name="Mu" unicode="&#x39c;" horiz-adv-x="1098" 
d="M565 131h-32l-361 507v-638h-31v676h41l367 -514l367 514h41v-676h-31v638z" />
    <glyph glyph-name="Nu" unicode="&#x39d;" horiz-adv-x="910" 
d="M769 0h-39l-558 639v-639h-31v676h39l558 -642v642h31v-676z" />
    <glyph glyph-name="Xi" unicode="&#x39e;" horiz-adv-x="730" 
d="M86 648v28h558v-28h-558zM655 28v-28h-580v28h580zM126 340v28h478v-28h-478z" />
    <glyph glyph-name="Omicron" unicode="&#x39f;" horiz-adv-x="966" 
d="M884 338q0 -78 -28.5 -142.5t-81 -110.5t-126.5 -71t-165 -25t-165 25t-126.5 71t-81 110.5t-28.5 142.5t28.5 142.5t81 110.5t126.5 71t165 25t165 -25t126.5 -71t81 -110.5t28.5 -142.5zM853 338q0 72 -26.5 131.5t-74.5 101.5t-116.5 65t-152.5 23t-152.5 -23
t-116.5 -65t-74.5 -101.5t-26.5 -131.5t26.5 -131.5t74.5 -101.5t116.5 -65t152.5 -23t152.5 23t116.5 65t74.5 101.5t26.5 131.5z" />
    <glyph glyph-name="Pi" unicode="&#x3a0;" horiz-adv-x="874" 
d="M733 0h-31v648h-530v-648h-31v676h592v-676z" />
    <glyph glyph-name="Rho" unicode="&#x3a1;" horiz-adv-x="687" 
d="M343 676q137 0 206 -53.5t69 -144.5t-69 -144.5t-206 -53.5h-171v-280h-31v676h202zM172 308h171q118 0 181 44.5t63 125.5t-63 125.5t-181 44.5h-171v-340z" />
    <glyph glyph-name="Sigma" unicode="&#x3a3;" horiz-adv-x="680" 
d="M429 339l-307 -311h484v-28h-524v28l308 311l-308 309v28h514v-28h-474z" />
    <glyph glyph-name="Tau" unicode="&#x3a4;" horiz-adv-x="665" 
d="M638 648h-290v-648h-31v648h-290v28h611v-28z" />
    <glyph glyph-name="Upsilon" unicode="&#x3a5;" horiz-adv-x="630" 
d="M331 274v-274h-31v274l-300 402h35l281 -371l278 371h36z" />
    <glyph glyph-name="Phi" unicode="&#x3a6;" horiz-adv-x="950" 
d="M489 635q87 -2 158.5 -24t122 -61t78 -93t27.5 -119q0 -66 -27.5 -120t-78 -93t-122 -61t-158.5 -23v-75h-29v75q-87 1 -158.5 23.5t-121.5 61.5t-77.5 93t-27.5 119t27.5 119t77.5 93t121.5 61t158.5 24v75h29v-75zM844 338q0 60 -25 109t-71.5 84t-112 54.5
t-146.5 21.5v-538q81 1 146.5 21t112 55t71.5 84t25 109zM106 338q0 -60 25 -109t71.5 -84t111.5 -55t146 -21v538q-81 -2 -146 -21.5t-111.5 -54.5t-71.5 -84t-25 -109z" />
    <glyph glyph-name="Chi" unicode="&#x3a7;" horiz-adv-x="683" 
d="M341 363l277 313h40l-297 -335l302 -341h-41l-281 318l-280 -318h-41l301 340l-296 336h40z" />
    <glyph glyph-name="Psi" unicode="&#x3a8;" horiz-adv-x="835" 
d="M131 676v-205q0 -53 22 -92t59 -65t86.5 -40t103.5 -15v417h31v-417q56 1 105.5 15.5t86 41t58 65.5t21.5 90v205h31v-205q0 -60 -24.5 -105t-66.5 -74.5t-96.5 -45t-114.5 -16.5v-230h-31v230q-60 2 -114.5 17t-96.5 45t-66.5 74.5t-24.5 104.5v205h31z" />
    <glyph glyph-name="Omega" unicode="&#x3a9;" horiz-adv-x="966" 
d="M67 28h249q-45 22 -87 51.5t-74.5 69t-52.5 89t-20 111.5q0 77 28.5 139.5t81 106.5t126.5 68t165 24t165 -24t126.5 -68t81 -106.5t28.5 -139.5q0 -62 -20 -111.5t-52.5 -89t-74.5 -69t-87 -51.5h249v-28h-312v24q57 28 105.5 58.5t84 69t56 86.5t20.5 111
q0 72 -26.5 129.5t-74.5 97.5t-116.5 61.5t-152.5 21.5t-152.5 -21.5t-116.5 -61.5t-74.5 -97.5t-26.5 -129.5q0 -63 20.5 -111t56 -86.5t84 -69t105.5 -58.5v-24h-312v28z" />
    <glyph glyph-name="Omega" unicode="&#x2126;" horiz-adv-x="966" 
d="M67 28h249q-45 22 -87 51.5t-74.5 69t-52.5 89t-20 111.5q0 77 28.5 139.5t81 106.5t126.5 68t165 24t165 -24t126.5 -68t81 -106.5t28.5 -139.5q0 -62 -20 -111.5t-52.5 -89t-74.5 -69t-87 -51.5h249v-28h-312v24q57 28 105.5 58.5t84 69t56 86.5t20.5 111
q0 72 -26.5 129.5t-74.5 97.5t-116.5 61.5t-152.5 21.5t-152.5 -21.5t-116.5 -61.5t-74.5 -97.5t-26.5 -129.5q0 -63 20.5 -111t56 -86.5t84 -69t105.5 -58.5v-24h-312v28z" />
    <glyph glyph-name="Iotadieresis" unicode="&#x3aa;" horiz-adv-x="313" 
d="M172 0h-31v676h31v-676zM77 805h-29v72h29v-72zM268 805h-29v72h29v-72z" />
    <glyph glyph-name="Upsilondieresis" unicode="&#x3ab;" horiz-adv-x="630" 
d="M331 274v-274h-31v274l-300 402h35l281 -371l278 371h36zM234 789h-29v72h29v-72zM425 789h-29v72h29v-72z" />
    <glyph glyph-name="alphatonos" unicode="&#x3ac;" horiz-adv-x="685" 
d="M555 475l-10 -399q-1 -30 16.5 -45.5t46.5 -15.5q22 0 37 4v-26q-9 -2 -18.5 -3t-18.5 -1q-40 0 -64.5 21t-24.5 66v47q-22 -59 -75 -96.5t-128 -37.5q-52 0 -98 15t-80 45.5t-53.5 77.5t-19.5 111q0 58 18 104t50.5 78t76.5 49t96 17q43 0 80.5 -12.5t66 -34.5
t47.5 -51.5t27 -62.5l2 150h26zM306 460q-46 0 -85 -15t-67.5 -43.5t-44.5 -70t-16 -93.5q0 -60 18.5 -102.5t49 -69.5t70.5 -39t84 -12q46 0 83.5 16t64.5 45t41.5 70t14.5 92v12q-2 47 -19 86t-45.5 66.5t-66.5 42.5t-82 15zM394 710h35l-108 -151h-27z" />
    <glyph glyph-name="epsilontonos" unicode="&#x3ad;" horiz-adv-x="572" 
d="M405 238h-105q-93 0 -145.5 -28.5t-52.5 -79.5q0 -29 14.5 -50.5t40.5 -35.5t62.5 -21.5t81.5 -7.5q47 0 99 11t91 32v-30q-41 -19 -93 -29t-97 -10q-49 0 -90.5 8.5t-72 26t-47.5 43.5t-17 62q0 28 11.5 49.5t30 37t41.5 24.5t46 12q-22 4 -43 11.5t-37.5 20.5t-27 32
t-10.5 46q0 30 16.5 53.5t46.5 39t71.5 23.5t91.5 8q42 0 92 -8.5t89 -25.5v-29q-18 9 -40.5 16t-46.5 11.5t-48.5 7t-45.5 2.5q-95 0 -146.5 -25.5t-51.5 -72.5q0 -25 14.5 -43.5t40 -30.5t60 -18t75.5 -6h102v-26zM368 710h35l-108 -151h-27z" />
    <glyph glyph-name="etatonos" unicode="&#x3ae;" horiz-adv-x="655" 
d="M140 475v-59q40 26 92 48t117 22q43 0 79.5 -10.5t63.5 -32t42.5 -54t15.5 -75.5v-504h-27v504q0 71 -48 108.5t-126 37.5q-64 0 -115.5 -22.5t-93.5 -52.5v-385h-27v475h27zM414 710h35l-108 -151h-27z" />
    <glyph glyph-name="iotatonos" unicode="&#x3af;" horiz-adv-x="276" 
d="M206 710h35l-108 -151h-27zM131 475v-399q0 -30 17 -45.5t46 -15.5q21 0 37 4.5t33 13.5v-28q-14 -8 -33.5 -12t-36.5 -4q-39 0 -64.5 21.5t-25.5 65.5v399h27z" />
    <glyph glyph-name="upsilondieresistonos" unicode="&#x3b0;" horiz-adv-x="616" 
d="M332 710h35l-108 -151h-27zM198 604h-29v72h29v-72zM429 604h-29v72h29v-72zM117 475v-266q0 -41 12.5 -76.5t37.5 -61.5t61.5 -41t84.5 -15q51 0 89 18t62.5 48t37 69.5t12.5 81.5q0 74 -31.5 136t-90.5 107h35q50 -39 82 -102.5t32 -140.5q0 -47 -13.5 -91t-41.5 -77.5
t-71 -54t-101 -20.5q-57 0 -99 17t-69.5 46.5t-41.5 69.5t-14 87v266h27z" />
    <glyph glyph-name="alpha" unicode="&#x3b1;" horiz-adv-x="685" 
d="M555 475l-10 -399q-1 -30 16.5 -45.5t46.5 -15.5q22 0 37 4v-26q-9 -2 -18.5 -3t-18.5 -1q-40 0 -64.5 21t-24.5 66v47q-22 -59 -75 -96.5t-128 -37.5q-52 0 -98 15t-80 45.5t-53.5 77.5t-19.5 111q0 58 18 104t50.5 78t76.5 49t96 17q43 0 80.5 -12.5t66 -34.5
t47.5 -51.5t27 -62.5l2 150h26zM306 460q-46 0 -85 -15t-67.5 -43.5t-44.5 -70t-16 -93.5q0 -60 18.5 -102.5t49 -69.5t70.5 -39t84 -12q46 0 83.5 16t64.5 45t41.5 70t14.5 92v12q-2 47 -19 86t-45.5 66.5t-66.5 42.5t-82 15z" />
    <glyph glyph-name="beta" unicode="&#x3b2;" horiz-adv-x="644" 
d="M113 -190v722q0 46 16.5 81.5t45.5 59.5t68.5 36t85.5 12t85.5 -12t68.5 -35t46 -56t17 -76q0 -46 -15 -77.5t-37.5 -52.5t-49 -33t-50.5 -18q25 -2 56 -13t58.5 -33t46 -57t18.5 -85q0 -49 -20 -83.5t-52.5 -57t-73.5 -33t-84 -10.5q-61 0 -115 21.5t-88 50.5v-251h-27z
M140 95q13 -15 34.5 -29t48.5 -25.5t57.5 -18.5t62.5 -7q38 0 74 9t64.5 28t46 49t17.5 72q0 43 -17 75.5t-48 54.5t-74.5 32.5t-96.5 10.5h-21v26h18q44 0 82.5 11t67.5 32t45.5 53t16.5 74q0 37 -15 66t-41 48t-60.5 29t-72.5 10t-72.5 -10t-60.5 -30.5t-41 -51t-15 -71.5
v-437z" />
    <glyph glyph-name="gamma" unicode="&#x3b3;" horiz-adv-x="518" 
d="M39 475l220 -439q34 49 67 102.5t61 109.5t48.5 113t29.5 114h26q-9 -59 -30 -118.5t-50.5 -118.5t-65.5 -116.5t-75 -111.5v-200h-27v200l-233 465h29z" />
    <glyph glyph-name="delta" unicode="&#x3b4;" horiz-adv-x="692" 
d="M509 660q-58 35 -139 35q-74 0 -110 -25t-36 -67q0 -32 17.5 -53t45.5 -37t64.5 -28.5t74 -26.5t74 -32t64.5 -44.5t45.5 -64t17.5 -90.5q0 -54 -21 -98t-58 -75t-89 -48t-113 -17q-62 0 -113.5 17t-88.5 48t-58 75t-21 98q0 49 19 89.5t51.5 72t76 53.5t93.5 35
q-46 19 -76.5 47.5t-30.5 78.5q0 54 47 86t125 32q39 0 74.5 -8.5t64.5 -24.5v-28zM599 227q0 60 -24 98t-61 63.5t-82.5 41.5t-88.5 33q-50 -11 -95.5 -31t-80 -49.5t-54.5 -68.5t-20 -87q0 -49 18.5 -88t52 -66.5t80 -42.5t102.5 -15t102.5 15t80 42.5t52 66.5t18.5 88z
" />
    <glyph glyph-name="epsilon" unicode="&#x3b5;" horiz-adv-x="572" 
d="M405 238h-105q-93 0 -145.5 -28.5t-52.5 -79.5q0 -29 14.5 -50.5t40.5 -35.5t62.5 -21.5t81.5 -7.5q47 0 99 11t91 32v-30q-41 -19 -93 -29t-97 -10q-49 0 -90.5 8.5t-72 26t-47.5 43.5t-17 62q0 28 11.5 49.5t30 37t41.5 24.5t46 12q-22 4 -43 11.5t-37.5 20.5t-27 32
t-10.5 46q0 30 16.5 53.5t46.5 39t71.5 23.5t91.5 8q42 0 92 -8.5t89 -25.5v-29q-18 9 -40.5 16t-46.5 11.5t-48.5 7t-45.5 2.5q-95 0 -146.5 -25.5t-51.5 -72.5q0 -25 14.5 -43.5t40 -30.5t60 -18t75.5 -6h102v-26z" />
    <glyph glyph-name="zeta" unicode="&#x3b6;" horiz-adv-x="472" 
d="M133 710h358v-21q-119 -69 -196 -128.5t-122 -114.5t-62.5 -106t-17.5 -103q0 -81 46 -133t132 -72q78 -18 138 -30q40 -8 57 -26.5t17 -46.5q0 -17 -6.5 -33.5t-16.5 -31.5t-22.5 -29t-25.5 -27l-19 17q23 21 42.5 47.5t19.5 54.5q0 20 -11 31.5t-41 18.5
q-32 7 -69.5 14.5t-71.5 15.5q-94 23 -145.5 81t-51.5 149q0 54 17 107t60 108t115 113t182 122h-306v23z" />
    <glyph glyph-name="eta" unicode="&#x3b7;" horiz-adv-x="655" 
d="M140 475v-59q40 26 92 48t117 22q43 0 79.5 -10.5t63.5 -32t42.5 -54t15.5 -75.5v-504h-27v504q0 71 -48 108.5t-126 37.5q-64 0 -115.5 -22.5t-93.5 -52.5v-385h-27v475h27z" />
    <glyph glyph-name="theta" unicode="&#x3b8;" horiz-adv-x="664" 
d="M584 355q0 -93 -18 -161.5t-51 -114t-79.5 -68t-103.5 -22.5t-103.5 22.5t-79.5 68t-51 114t-18 161.5t18 161.5t51 114t79.5 68t103.5 22.5t103.5 -22.5t79.5 -68t51 -114t18 -161.5zM332 695q-59 0 -101.5 -24.5t-69.5 -68t-40 -103.5t-13 -132h448q0 72 -13.5 132
t-40.5 103.5t-69.5 68t-100.5 24.5zM332 15q58 0 100.5 24t69.5 67.5t40.5 103.5t13.5 132h-448q0 -72 13 -132t40.5 -103.5t69.5 -67.5t101 -24z" />
    <glyph glyph-name="iota" unicode="&#x3b9;" horiz-adv-x="276" 
d="M131 475v-399q0 -30 17 -45.5t46 -15.5q21 0 37 4.5t33 13.5v-28q-14 -8 -33.5 -12t-36.5 -4q-39 0 -64.5 21.5t-25.5 65.5v399h27z" />
    <glyph glyph-name="kappa" unicode="&#x3ba;" horiz-adv-x="535" 
d="M167 255l362 -255h-42l-347 242v-242h-27v475h27v-206l333 206h47z" />
    <glyph glyph-name="lambda" unicode="&#x3bb;" horiz-adv-x="518" 
d="M241 485q-21 41 -41 78.5t-45 66.5t-57 46.5t-75 18.5l6 26q48 -3 83 -22.5t62 -50t48 -69.5t41 -79l250 -500h-32l-225 457l-222 -457h-29z" />
    <glyph glyph-name="uni03BC" unicode="&#x3bc;" horiz-adv-x="649" 
d="M113 475h27v-295q0 -45 12.5 -76.5t35 -51t54.5 -28.5t70 -9q30 0 58.5 8t54 20.5t47 28.5t37.5 33v370h27v-475h-27v73q-15 -14 -36 -29t-46 -27t-54.5 -20t-61.5 -8q-60 0 -104 20t-67 63v-262h-27v665z" />
    <glyph glyph-name="nu" unicode="&#x3bd;" horiz-adv-x="518" 
d="M259 26q34 49 68 104t62.5 113t48.5 116.5t28 115.5h26q-8 -59 -29 -120t-51 -122t-66.5 -120t-75.5 -113h-27l-238 475h29z" />
    <glyph glyph-name="xi" unicode="&#x3be;" horiz-adv-x="486" 
d="M496 659q-31 17 -73.5 26.5t-85.5 9.5q-100 0 -156.5 -38.5t-56.5 -115.5q0 -35 17 -63t46 -48.5t67.5 -31.5t80.5 -11h61v-25h-61q-41 0 -84 -8t-78 -27t-57.5 -52t-22.5 -82q0 -27 10 -53t30.5 -48t53 -39t77.5 -27q39 -8 79.5 -15.5t70.5 -13.5q40 -8 57 -25t17 -45
q0 -17 -6.5 -33t-16.5 -30.5t-22.5 -28.5t-25.5 -27l-19 17q23 21 42.5 46.5t19.5 53.5q0 20 -11 30.5t-41 17.5q-32 7 -75.5 14t-77.5 15q-94 23 -142 71t-48 120q0 51 20 84.5t48 54.5t58.5 31t51.5 14q-22 4 -48 17t-48 33.5t-36.5 49t-14.5 64.5q0 48 19 82t51.5 55.5
t76.5 32t94 10.5q42 0 84.5 -8.5t74.5 -24.5v-29v0z" />
    <glyph glyph-name="omicron" unicode="&#x3bf;" horiz-adv-x="692" 
d="M346 486q61 0 113 -18.5t89 -51.5t58 -79t21 -100t-21 -99.5t-58 -78.5t-89 -51.5t-113 -18.5q-62 0 -113.5 18.5t-88.5 51.5t-58 78.5t-21 99.5t21 100t58 79t88.5 51.5t113.5 18.5zM346 460q-56 0 -102.5 -16.5t-80 -46t-52 -70.5t-18.5 -90t18.5 -89.5t52 -70t80 -46
t102.5 -16.5t102.5 16.5t80 46t52 70t18.5 89.5t-18.5 90t-52 70.5t-80 46t-102.5 16.5z" />
    <glyph glyph-name="pi" unicode="&#x3c0;" horiz-adv-x="647" 
d="M598 450h-122v-374q0 -30 17 -45.5t46 -15.5q21 0 37 4.5t33 13.5v-28q-14 -8 -33.5 -12t-36.5 -4q-39 0 -64.5 21.5t-25.5 65.5v374h-275v-450h-27v450h-122v25h573v-25z" />
    <glyph glyph-name="rho" unicode="&#x3c1;" horiz-adv-x="635" 
d="M111 73q23 -14 45.5 -25t46.5 -18.5t50.5 -11t58.5 -3.5q43 0 84 12t72 39t50 69.5t19 102.5q0 53 -16.5 94t-45.5 69.5t-68.5 43.5t-85.5 15q-47 0 -85.5 -15t-66.5 -43.5t-43 -69.5t-15 -94v-165zM84 -190v428q0 58 16.5 104t47.5 78t75 49t98 17t99 -17t77.5 -49
t50 -78t17.5 -104q0 -64 -20 -111t-54.5 -77.5t-81 -45.5t-98.5 -15q-59 0 -108 14.5t-92 40.5v-234h-27z" />
    <glyph glyph-name="uni03C2" unicode="&#x3c2;" horiz-adv-x="540" 
d="M495 422q-31 18 -68.5 28t-80.5 10q-56 0 -102.5 -16.5t-80 -46t-52 -70.5t-18.5 -90q0 -81 46 -133t132 -73q29 -7 58.5 -13t61.5 -12q41 -7 57 -25.5t16 -44.5q0 -35 -22.5 -68.5t-48.5 -59.5l-19 17q23 21 42.5 51t19.5 58q0 20 -11 31t-38 16q-33 6 -63 12t-62 14
q-94 24 -145.5 81.5t-51.5 148.5q0 54 21 100t58 79t88.5 51.5t113.5 18.5q84 0 149 -34v-30z" />
    <glyph glyph-name="sigma" unicode="&#x3c3;" horiz-adv-x="700" 
d="M671 450h-199q73 -25 114 -83.5t41 -134.5q0 -54 -21 -99t-58 -77t-89 -49.5t-113 -17.5q-62 0 -113.5 17.5t-88.5 49.5t-58 77t-21 99t21 99t58 77t88.5 49.5t113.5 17.5h325v-25zM346 450q-56 0 -102.5 -16t-80 -44.5t-52 -68.5t-18.5 -89t18.5 -89t52 -68.5t80 -44
t102.5 -15.5t102.5 15.5t80 44t52 68.5t18.5 89t-18.5 89t-52 68.5t-80 44.5t-102.5 16z" />
    <glyph glyph-name="tau" unicode="&#x3c4;" horiz-adv-x="473" 
d="M453 475v-25h-208v-374q0 -30 17 -45.5t46 -15.5q21 0 37 4.5t33 13.5v-28q-14 -8 -33.5 -12t-36.5 -4q-39 0 -64.5 21.5t-25.5 65.5v374h-208v25h443z" />
    <glyph glyph-name="upsilon" unicode="&#x3c5;" horiz-adv-x="616" 
d="M117 475v-266q0 -41 12.5 -76.5t37.5 -61.5t61.5 -41t84.5 -15q51 0 89 18t62.5 48t37 69.5t12.5 81.5q0 74 -31.5 136t-90.5 107h35q50 -39 82 -102.5t32 -140.5q0 -47 -13.5 -91t-41.5 -77.5t-71 -54t-101 -20.5q-57 0 -99 17t-69.5 46.5t-41.5 69.5t-14 87v266h27z
" />
    <glyph glyph-name="phi" unicode="&#x3c6;" horiz-adv-x="801" 
d="M242 475q-64 -35 -106.5 -93t-42.5 -138q0 -51 21.5 -93t60.5 -71.5t93 -46.5t119 -18v251q0 111 43.5 165.5t124.5 54.5q39 0 72 -14.5t57.5 -43t38 -70.5t13.5 -97q0 -59 -23 -108t-65 -85t-101.5 -57t-132.5 -22v-179h-27v179q-71 1 -130.5 20t-102 52t-66 79.5
t-23.5 103.5q0 39 10.5 74t29 64.5t43 53t51.5 39.5h43zM414 15q67 1 121.5 19.5t92.5 51t59 77.5t21 98q0 50 -12 87.5t-32.5 62t-48 37t-59.5 12.5q-75 0 -108.5 -49t-33.5 -146v-250z" />
    <glyph glyph-name="chi" unicode="&#x3c7;" horiz-adv-x="460" 
d="M454 475l-209 -307l247 -358h-31l-231 336l-230 -336h-31l247 358l-209 307h28l195 -286l196 286h28z" />
    <glyph glyph-name="psi" unicode="&#x3c8;" horiz-adv-x="786" 
d="M405 -190h-24v179q-78 3 -135.5 26t-95 60t-55.5 85.5t-18 102.5q0 53 16.5 107t49.5 105h28q-32 -53 -49 -107t-17 -105q0 -50 16.5 -93.5t50 -77t85.5 -54t124 -23.5v611h24v-611q72 3 124 23.5t85.5 54t50 77t16.5 93.5q0 51 -17 105t-49 107h28q33 -51 49.5 -105
t16.5 -107q0 -54 -18.5 -102.5t-56 -85.5t-94.5 -60t-135 -26v-179z" />
    <glyph glyph-name="omega" unicode="&#x3c9;" horiz-adv-x="940" 
d="M205 475q-52 -56 -82.5 -118.5t-30.5 -142.5q0 -45 13 -81.5t36 -63t56 -40.5t74 -14q46 0 81 17t58.5 44.5t35 64t11.5 75.5v152h26v-152q0 -39 11.5 -75.5t35 -64t58 -44.5t81.5 -17q40 0 73.5 14t56.5 40.5t36 63t13 81.5q0 80 -30.5 142.5t-82.5 118.5h33
q47 -50 77 -115.5t30 -145.5q0 -50 -14.5 -91.5t-41 -71t-64.5 -46t-85 -16.5q-44 0 -77 12.5t-57.5 32.5t-40.5 46t-25 53q-9 -27 -25 -53t-40.5 -46t-57.5 -32.5t-77 -12.5q-47 0 -85 16.5t-64.5 46t-41 71t-14.5 91.5q0 80 30 145.5t77 115.5h33v0z" />
    <glyph glyph-name="iotadieresis" unicode="&#x3ca;" horiz-adv-x="276" 
d="M131 475v-399q0 -30 17 -45.5t46 -15.5q21 0 37 4.5t33 13.5v-28q-14 -8 -33.5 -12t-36.5 -4q-39 0 -64.5 21.5t-25.5 65.5v399h27zM37 604h-29v72h29v-72zM228 604h-29v72h29v-72z" />
    <glyph glyph-name="upsilondieresis" unicode="&#x3cb;" horiz-adv-x="616" 
d="M117 475v-266q0 -41 12.5 -76.5t37.5 -61.5t61.5 -41t84.5 -15q51 0 89 18t62.5 48t37 69.5t12.5 81.5q0 74 -31.5 136t-90.5 107h35q50 -39 82 -102.5t32 -140.5q0 -47 -13.5 -91t-41.5 -77.5t-71 -54t-101 -20.5q-57 0 -99 17t-69.5 46.5t-41.5 69.5t-14 87v266h27z
M219 604h-29v72h29v-72zM410 604h-29v72h29v-72z" />
    <glyph glyph-name="omicrontonos" unicode="&#x3cc;" horiz-adv-x="692" 
d="M346 486q61 0 113 -18.5t89 -51.5t58 -79t21 -100t-21 -99.5t-58 -78.5t-89 -51.5t-113 -18.5q-62 0 -113.5 18.5t-88.5 51.5t-58 78.5t-21 99.5t21 100t58 79t88.5 51.5t113.5 18.5zM346 460q-56 0 -102.5 -16.5t-80 -46t-52 -70.5t-18.5 -90t18.5 -89.5t52 -70t80 -46
t102.5 -16.5t102.5 16.5t80 46t52 70t18.5 89.5t-18.5 90t-52 70.5t-80 46t-102.5 16.5zM427 710h35l-108 -151h-27z" />
    <glyph glyph-name="upsilontonos" unicode="&#x3cd;" horiz-adv-x="616" 
d="M117 475v-266q0 -41 12.5 -76.5t37.5 -61.5t61.5 -41t84.5 -15q51 0 89 18t62.5 48t37 69.5t12.5 81.5q0 74 -31.5 136t-90.5 107h35q50 -39 82 -102.5t32 -140.5q0 -47 -13.5 -91t-41.5 -77.5t-71 -54t-101 -20.5q-57 0 -99 17t-69.5 46.5t-41.5 69.5t-14 87v266h27z
M359 710h35l-108 -151h-27z" />
    <glyph glyph-name="omegatonos" unicode="&#x3ce;" horiz-adv-x="940" 
d="M205 475q-52 -56 -82.5 -118.5t-30.5 -142.5q0 -45 13 -81.5t36 -63t56 -40.5t74 -14q46 0 81 17t58.5 44.5t35 64t11.5 75.5v152h26v-152q0 -39 11.5 -75.5t35 -64t58 -44.5t81.5 -17q40 0 73.5 14t56.5 40.5t36 63t13 81.5q0 80 -30.5 142.5t-82.5 118.5h33
q47 -50 77 -115.5t30 -145.5q0 -50 -14.5 -91.5t-41 -71t-64.5 -46t-85 -16.5q-44 0 -77 12.5t-57.5 32.5t-40.5 46t-25 53q-9 -27 -25 -53t-40.5 -46t-57.5 -32.5t-77 -12.5q-47 0 -85 16.5t-64.5 46t-41 71t-14.5 91.5q0 80 30 145.5t77 115.5h33v0zM560 710h35l-108 -151
h-27z" />
    <glyph glyph-name="uni03D0" unicode="&#x3d0;" horiz-adv-x="639" 
d="M551 546q0 -45 -15.5 -77.5t-40 -55t-54 -36.5t-56.5 -20q25 -2 59 -12.5t64 -32.5t51 -56.5t21 -84.5q0 -46 -18 -80.5t-47.5 -57t-67.5 -33.5t-79 -11q-17 0 -44.5 2.5t-59 13.5t-63.5 33.5t-57.5 62.5t-42 100t-16.5 146q0 110 26 182t66 115t88 60t92 17q39 0 74 -10
t62 -31.5t42.5 -54.5t15.5 -79zM113 329q2 -74 16.5 -126.5t37.5 -87t50.5 -54.5t55.5 -30.5t52.5 -13t41.5 -2.5q36 0 69.5 9t59 28.5t41 48.5t15.5 70q0 43 -18 73.5t-47.5 50.5t-68 30.5t-79.5 14.5q-53 -8 -98 -10t-77 -2q-17 0 -32.5 0.5t-18.5 0.5zM113 355
q14 -1 26 -1h26q72 0 137 8.5t114 30t78 59t29 94.5q0 75 -44.5 112t-121.5 37q-37 0 -79.5 -14t-78.5 -52t-60.5 -104t-25.5 -170z" />
    <glyph glyph-name="uni03D1" unicode="&#x3d1;" horiz-adv-x="639" 
d="M117 248q-3 -13 -4 -25.5t-1 -25.5q0 -39 12.5 -72t37 -57.5t60 -38.5t81.5 -14q17 0 40 3t48 14.5t49.5 32.5t43.5 57.5t31 90t12 129.5q-44 -18 -95 -28.5t-103 -10.5q-48 0 -93 11t-79.5 35t-55.5 62.5t-21 94.5q0 44 16.5 83t46 68.5t70.5 46.5t91 17
q43 0 87.5 -16.5t81 -58.5t59.5 -114.5t23 -184.5q0 -79 -13 -136.5t-34.5 -97.5t-48.5 -64.5t-55 -37.5t-54.5 -17.5t-46.5 -4.5q-51 0 -91.5 15.5t-68 43t-42.5 65.5t-15 84q0 23 5 51h26zM528 368q-3 100 -24.5 163.5t-53 100t-70.5 50t-77 13.5q-43 0 -79 -14.5t-62 -40
t-40.5 -60t-14.5 -74.5q0 -50 18.5 -84t49.5 -54.5t71.5 -29.5t83.5 -9q52 0 102.5 11t95.5 28z" />
    <glyph glyph-name="uni0400" unicode="&#x400;" horiz-adv-x="650" 
d="M550 676v-28h-388v-279h361v-28h-361v-193q0 -60 33 -90t114 -30h263v-28h-263q-98 0 -138 39t-40 109v528h419zM365 744h-27l-108 151h35z" />
    <glyph glyph-name="afii10023" unicode="&#x401;" horiz-adv-x="650" 
d="M550 676v-28h-388v-279h361v-28h-361v-193q0 -60 33 -90t114 -30h263v-28h-263q-98 0 -138 39t-40 109v528h419zM244 805h-29v72h29v-72zM435 805h-29v72h29v-72z" />
    <glyph glyph-name="afii10051" unicode="&#x402;" horiz-adv-x="842" 
d="M668 648h-320v-241q44 26 90.5 38t92.5 12q53 0 97 -16.5t76 -48t50 -78t18 -107.5q0 -98 -30 -159.5t-73.5 -96t-91 -47t-82.5 -12.5v29q19 0 45 4.5t53.5 16t54 32t47 52t33.5 76t13 104.5q0 55 -15 96.5t-43 69.5t-66.5 42t-86.5 14q-45 0 -92 -12.5t-90 -40.5v-375
h-31v648h-290v28h641v-28z" />
    <glyph glyph-name="afii10052" unicode="&#x403;" horiz-adv-x="574" 
d="M412 895h35l-108 -151h-27zM547 676v-28h-375v-648h-31v676h406z" />
    <glyph glyph-name="afii10053" unicode="&#x404;" horiz-adv-x="755" 
d="M570 340h-457q0 -73 26.5 -132.5t74.5 -102t116.5 -65.5t152.5 -23q56 0 103.5 10t88.5 28v-29q-41 -17 -88 -27t-104 -10q-91 0 -165 25t-126.5 71t-81 110.5t-28.5 142.5t28.5 142.5t81 110.5t126.5 71t165 25q54 0 97.5 -7.5t85.5 -23.5v-29q-43 17 -87 24.5t-96 7.5
q-80 0 -145 -20.5t-113 -59t-76.5 -92t-34.5 -119.5h456v-28z" />
    <glyph glyph-name="afii10054" unicode="&#x405;" horiz-adv-x="657" 
d="M552 613q-40 20 -91 33t-126 13q-40 0 -78.5 -8.5t-68.5 -26.5t-48.5 -46t-18.5 -67t19.5 -64.5t51 -42t72.5 -27.5t83 -21.5t83 -23.5t72.5 -33t51 -50t19.5 -76q0 -49 -21.5 -83.5t-57.5 -57t-83 -33t-98 -10.5q-30 0 -61.5 3.5t-62 10.5t-58 17t-48.5 22v32
q46 -27 108.5 -42t121.5 -15q42 0 83 7.5t73.5 25.5t52.5 48t20 75q0 40 -19.5 66t-51 43.5t-72.5 28.5t-83 21.5t-83 22.5t-72.5 32t-51 49.5t-19.5 74.5q0 46 21 79t55.5 54.5t78.5 32t90 10.5q74 0 125.5 -12.5t91.5 -32.5v-29v0z" />
    <glyph glyph-name="afii10055" unicode="&#x406;" horiz-adv-x="313" 
d="M172 0h-31v676h31v-676z" />
    <glyph glyph-name="afii10056" unicode="&#x407;" horiz-adv-x="313" 
d="M172 0h-31v676h31v-676zM77 805h-29v72h29v-72zM268 805h-29v72h29v-72z" />
    <glyph glyph-name="afii10057" unicode="&#x408;" horiz-adv-x="409" 
d="M281 154q0 -47 -13.5 -78.5t-37 -51t-54 -27.5t-63.5 -8q-27 0 -54.5 5t-51.5 14v29q52 -20 106 -20q28 0 52.5 6.5t43.5 22t30 42t11 66.5v522h31v-522z" />
    <glyph glyph-name="afii10058" unicode="&#x409;" horiz-adv-x="1135" 
d="M629 28h171q118 0 181 44.5t63 125.5t-63 125.5t-181 44.5h-171v-340zM629 676v-280h171q137 0 206 -53.5t69 -144.5t-69 -144.5t-206 -53.5h-202v648h-414v-255q0 -83 -2.5 -151t-18 -119t-49 -85t-94.5 -49v29q49 13 76.5 44t40 79t15 111.5t2.5 140.5v283h475z" />
    <glyph glyph-name="afii10059" unicode="&#x40a;" horiz-adv-x="1153" 
d="M616 0v368h-444v-368h-31v676h31v-280h444v280h31v-280h171q137 0 206 -53.5t69 -144.5t-69 -144.5t-206 -53.5h-202zM647 28h171q118 0 181 44.5t63 125.5t-63 125.5t-181 44.5h-171v-340z" />
    <glyph glyph-name="afii10060" unicode="&#x40b;" horiz-adv-x="859" 
d="M668 676v-28h-320v-256q42 31 97.5 47.5t104.5 16.5q42 0 79 -10.5t64.5 -32t44 -54t16.5 -75.5v-284h-29v284q0 71 -48.5 107.5t-126.5 36.5q-24 0 -51 -4.5t-53.5 -13t-51.5 -21.5t-46 -30v-359h-31v648h-290v28h641z" />
    <glyph glyph-name="afii10061" unicode="&#x40c;" horiz-adv-x="656" 
d="M458 895h35l-108 -151h-27zM172 0h-31v676h31v-382l430 382h42l-319 -283l326 -393h-37l-311 374l-131 -117v-257z" />
    <glyph glyph-name="uni040D" unicode="&#x40d;" horiz-adv-x="910" 
d="M769 0h-31v642l-558 -642h-39v676h31v-639l558 639h39v-676zM480 744h-27l-108 151h35z" />
    <glyph glyph-name="afii10062" unicode="&#x40e;" horiz-adv-x="629" 
d="M58 28q20 -6 37.5 -8.5t37.5 -2.5q43 0 72 21t60 71l61 100l-291 467h33l275 -438l263 438h33l-346 -576q-32 -54 -68.5 -82.5t-92.5 -28.5q-20 0 -37 2.5t-37 7.5v29zM349 754q-66 0 -103.5 37.5t-39.5 92.5h27q3 -45 32.5 -74t83.5 -29t83.5 29t32.5 74h27
q-2 -55 -39.5 -92.5t-103.5 -37.5z" />
    <glyph glyph-name="afii10145" unicode="&#x40f;" horiz-adv-x="847" 
d="M172 28h503v648h31v-676h-267l-2 -140h-27l-2 140h-267v676h31v-648z" />
    <glyph glyph-name="afii10017" unicode="&#x410;" horiz-adv-x="676" 
d="M0 0l324 676h30l322 -676h-33l-101 211h-409l-100 -211h-33zM338 639l-191 -400h382z" />
    <glyph glyph-name="afii10018" unicode="&#x411;" horiz-adv-x="678" 
d="M547 676v-28h-375v-252h171q137 0 206 -53.5t69 -144.5t-69 -144.5t-206 -53.5h-202v676h406zM172 28h171q118 0 181 44.5t63 125.5t-63 125.5t-181 44.5h-171v-340z" />
    <glyph glyph-name="afii10019" unicode="&#x412;" horiz-adv-x="680" 
d="M318 676q144 0 209 -47.5t65 -125.5q0 -38 -14 -65.5t-36.5 -47t-51 -31t-56.5 -15.5q35 -5 67.5 -17t57 -32.5t39.5 -49.5t15 -66q0 -85 -75.5 -132t-219.5 -47h-177v676h177zM172 358h146q127 0 185 38t58 107t-58 107t-185 38h-146v-290zM172 28h146q129 0 196.5 39.5
t67.5 111.5t-67.5 111.5t-196.5 39.5h-146v-302z" />
    <glyph glyph-name="afii10020" unicode="&#x413;" horiz-adv-x="574" 
d="M547 676v-28h-375v-648h-31v676h406z" />
    <glyph glyph-name="afii10021" unicode="&#x414;" horiz-adv-x="718" 
d="M577 676v-648h31v-168h-27l-4 140h-533l-4 -140h-27v168h27q45 58 70 120t36.5 121.5t13.5 112.5t2 92v202h415zM192 474q0 -39 -2 -93t-13 -114t-34.5 -122t-66.5 -117h470v620h-354v-174z" />
    <glyph glyph-name="afii10022" unicode="&#x415;" horiz-adv-x="650" 
d="M550 676v-28h-388v-279h361v-28h-361v-193q0 -60 33 -90t114 -30h263v-28h-263q-98 0 -138 39t-40 109v528h419z" />
    <glyph glyph-name="afii10024" unicode="&#x416;" horiz-adv-x="999" 
d="M484 257l-131 117l-311 -374h-37l326 393l-319 283h42l430 -382v382h31v-382l430 382h42l-319 -283l326 -393h-37l-311 374l-131 -117v-257h-31v257z" />
    <glyph glyph-name="afii10025" unicode="&#x417;" horiz-adv-x="611" 
d="M179 358h71q126 0 186.5 43t60.5 112q0 37 -17 64.5t-45.5 45.5t-66.5 27t-80 9q-66 0 -113 -14t-91 -45v33q41 26 89.5 40t114.5 14q49 0 92.5 -11t76.5 -33t52 -54.5t19 -75.5q0 -38 -15 -67t-38 -50.5t-52.5 -34.5t-57.5 -17q35 -5 66.5 -17.5t55.5 -33t38 -49
t14 -65.5q0 -47 -19.5 -82.5t-54.5 -59.5t-85 -36t-110 -12q-51 0 -105 10.5t-96 28.5v31q46 -21 98 -31.5t103 -10.5t95 10.5t75.5 30.5t49.5 50.5t18 70.5q0 72 -64.5 111.5t-193.5 39.5h-71v28z" />
    <glyph glyph-name="afii10026" unicode="&#x418;" horiz-adv-x="910" 
d="M769 0h-31v642l-558 -642h-39v676h31v-639l558 639h39v-676z" />
    <glyph glyph-name="afii10027" unicode="&#x419;" horiz-adv-x="910" 
d="M769 0h-31v642l-558 -642h-39v676h31v-639l558 639h39v-676zM455 755q-66 0 -103.5 37.5t-39.5 92.5h27q3 -45 32.5 -74t83.5 -29t83.5 29t32.5 74h27q-2 -55 -39.5 -92.5t-103.5 -37.5z" />
    <glyph glyph-name="afii10028" unicode="&#x41a;" horiz-adv-x="656" 
d="M172 0h-31v676h31v-382l430 382h42l-319 -283l326 -393h-37l-311 374l-131 -117v-257z" />
    <glyph glyph-name="afii10029" unicode="&#x41b;" horiz-adv-x="794" 
d="M653 676v-676h-31v648h-438v-255q0 -83 -2.5 -151t-18 -119t-49 -85t-94.5 -49v29q49 13 76.5 44t40 79t15 111.5t2.5 140.5v283h499z" />
    <glyph glyph-name="afii10030" unicode="&#x41c;" horiz-adv-x="1098" 
d="M565 131h-32l-361 507v-638h-31v676h41l367 -514l367 514h41v-676h-31v638z" />
    <glyph glyph-name="afii10031" unicode="&#x41d;" horiz-adv-x="914" 
d="M773 0h-31v340h-570v-340h-31v676h31v-308h570v308h31v-676z" />
    <glyph glyph-name="afii10032" unicode="&#x41e;" horiz-adv-x="966" 
d="M884 338q0 -78 -28.5 -142.5t-81 -110.5t-126.5 -71t-165 -25t-165 25t-126.5 71t-81 110.5t-28.5 142.5t28.5 142.5t81 110.5t126.5 71t165 25t165 -25t126.5 -71t81 -110.5t28.5 -142.5zM853 338q0 72 -26.5 131.5t-74.5 101.5t-116.5 65t-152.5 23t-152.5 -23
t-116.5 -65t-74.5 -101.5t-26.5 -131.5t26.5 -131.5t74.5 -101.5t116.5 -65t152.5 -23t152.5 23t116.5 65t74.5 101.5t26.5 131.5z" />
    <glyph glyph-name="afii10033" unicode="&#x41f;" horiz-adv-x="874" 
d="M733 0h-31v648h-530v-648h-31v676h592v-676z" />
    <glyph glyph-name="afii10034" unicode="&#x420;" horiz-adv-x="687" 
d="M343 676q137 0 206 -53.5t69 -144.5t-69 -144.5t-206 -53.5h-171v-280h-31v676h202zM172 308h171q118 0 181 44.5t63 125.5t-63 125.5t-181 44.5h-171v-340z" />
    <glyph glyph-name="afii10035" unicode="&#x421;" horiz-adv-x="745" 
d="M666 627q-43 17 -87 24.5t-96 7.5q-84 0 -152.5 -23t-116.5 -65t-74.5 -101.5t-26.5 -131.5t26.5 -131.5t74.5 -101.5t116.5 -65t152.5 -23q56 0 103.5 10t88.5 28v-29q-41 -17 -88 -27t-104 -10q-91 0 -165 25t-126.5 71t-81 110.5t-28.5 142.5t28.5 142.5t81 110.5
t126.5 71t165 25q54 0 97.5 -7.5t85.5 -23.5v-29v0z" />
    <glyph glyph-name="afii10036" unicode="&#x422;" horiz-adv-x="665" 
d="M638 648h-290v-648h-31v648h-290v28h611v-28z" />
    <glyph glyph-name="afii10037" unicode="&#x423;" horiz-adv-x="629" 
d="M58 28q20 -6 37.5 -8.5t37.5 -2.5q43 0 72 21t60 71l61 100l-291 467h33l275 -438l263 438h33l-346 -576q-32 -54 -68.5 -82.5t-92.5 -28.5q-20 0 -37 2.5t-37 7.5v29z" />
    <glyph glyph-name="afii10038" unicode="&#x424;" horiz-adv-x="950" 
d="M489 635q87 -2 158.5 -24t122 -61t78 -93t27.5 -119q0 -66 -27.5 -120t-78 -93t-122 -61t-158.5 -23v-75h-29v75q-87 1 -158.5 23.5t-121.5 61.5t-77.5 93t-27.5 119t27.5 119t77.5 93t121.5 61t158.5 24v75h29v-75zM844 338q0 60 -25 109t-71.5 84t-112 54.5
t-146.5 21.5v-538q81 1 146.5 21t112 55t71.5 84t25 109zM106 338q0 -60 25 -109t71.5 -84t111.5 -55t146 -21v538q-81 -2 -146 -21.5t-111.5 -54.5t-71.5 -84t-25 -109z" />
    <glyph glyph-name="afii10039" unicode="&#x425;" horiz-adv-x="683" 
d="M341 363l277 313h40l-297 -335l302 -341h-41l-281 318l-280 -318h-41l301 340l-296 336h40z" />
    <glyph glyph-name="afii10040" unicode="&#x426;" horiz-adv-x="847" 
d="M141 676h31v-648h503v648h31v-648h31v-168h-27l-4 140h-565v676z" />
    <glyph glyph-name="afii10041" unicode="&#x427;" horiz-adv-x="761" 
d="M601 335q-19 -17 -44 -33t-55 -28t-65 -19.5t-74 -7.5q-55 0 -103.5 14.5t-85 44.5t-58 75.5t-21.5 106.5v188h31v-188q0 -54 18.5 -94.5t51 -66.5t75.5 -39t92 -13q83 0 141 28.5t97 67.5v305h29v-676h-29v335z" />
    <glyph glyph-name="afii10042" unicode="&#x428;" horiz-adv-x="1123" 
d="M982 0h-841v676h31v-648h374v648h31v-648h374v648h31v-676z" />
    <glyph glyph-name="afii10043" unicode="&#x429;" horiz-adv-x="1123" 
d="M982 0h-841v676h31v-648h374v648h31v-648h374v648h31v-648h31v-167h-27z" />
    <glyph glyph-name="afii10044" unicode="&#x42a;" horiz-adv-x="761" 
d="M255 676v-280h171q137 0 206 -53.5t69 -144.5t-69 -144.5t-206 -53.5h-202v648h-197v28h228zM255 28h171q118 0 181 44.5t63 125.5t-63 125.5t-181 44.5h-171v-340z" />
    <glyph glyph-name="afii10045" unicode="&#x42b;" horiz-adv-x="991" 
d="M172 676v-280h171q137 0 206 -53.5t69 -144.5t-69 -144.5t-206 -53.5h-202v676h31zM172 28h171q118 0 181 44.5t63 125.5t-63 125.5t-181 44.5h-171v-340zM850 0h-31v676h31v-676z" />
    <glyph glyph-name="afii10046" unicode="&#x42c;" horiz-adv-x="678" 
d="M172 676v-280h171q137 0 206 -53.5t69 -144.5t-69 -144.5t-206 -53.5h-202v676h31zM172 28h171q118 0 181 44.5t63 125.5t-63 125.5t-181 44.5h-171v-340z" />
    <glyph glyph-name="afii10047" unicode="&#x42d;" horiz-adv-x="755" 
d="M185 368h456q-6 66 -34.5 119.5t-76.5 92t-113.5 59t-144.5 20.5q-52 0 -96 -7.5t-87 -24.5v29q42 16 85.5 23.5t97.5 7.5q91 0 165 -25t126.5 -71t81 -110.5t28.5 -142.5t-28.5 -142.5t-81 -110.5t-126.5 -71t-165 -25q-57 0 -104 10t-88 27v29q41 -18 88.5 -28
t103.5 -10q84 0 152.5 23t116.5 65.5t74.5 102t26.5 132.5h-457v28z" />
    <glyph glyph-name="afii10048" unicode="&#x42e;" horiz-adv-x="1243" 
d="M172 676v-308h198q5 72 36 131t83 100.5t123 64.5t158 23q91 0 165 -25t126.5 -71t81 -110.5t28.5 -142.5t-28.5 -142.5t-81 -110.5t-126.5 -71t-165 -25t-165 25t-126.5 71t-81 111t-28.5 144h-197v-340h-31v676h31zM1140 338q0 72 -26.5 131.5t-74.5 101.5t-116.5 65
t-152.5 23t-152.5 -23t-116.5 -65t-74.5 -101.5t-26.5 -131.5t26.5 -131.5t74.5 -101.5t116.5 -65t152.5 -23t152.5 23t116.5 65t74.5 101.5t26.5 131.5z" />
    <glyph glyph-name="afii10049" unicode="&#x42f;" horiz-adv-x="702" 
d="M359.021 676q-136.991 0 -205.987 -53.5q-68.9951 -53.5 -68.9951 -144.5q0 -84 58.9961 -136.5t176.989 -60.5l-273.983 -281h39.9971l272.983 280h170.99v-280h30.998v676h-201.988zM530.011 308h-170.99q-117.992 0 -180.988 44.5t-62.9961 125.5t62.9961 125.5
t180.988 44.5h170.99v-340z" />
    <glyph glyph-name="afii10065" unicode="&#x430;" 
d="M519 423q-45 18 -91.5 27.5t-91.5 9.5q-50 0 -94 -13t-77 -40t-52.5 -69t-19.5 -100q0 -56 18 -98t48 -69.5t70 -41.5t84 -14q34 0 64.5 8t56.5 20.5t47.5 28.5t37.5 33v318zM313 -11q-51 0 -96.5 16t-79 47.5t-53 78t-19.5 107.5q0 63 21.5 109.5t58 77.5t86 46
t106.5 15q51 0 103.5 -11t105.5 -34v-441h-27v73q-15 -14 -36 -29t-46.5 -27t-56.5 -20t-67 -8z" />
    <glyph glyph-name="afii10066" unicode="&#x431;" horiz-adv-x="692" 
d="M346 486q61 0 113 -18.5t89 -51.5t58 -79t21 -100t-21 -99.5t-58 -78.5t-89 -51.5t-113 -18.5q-64 0 -116 18.5t-89 53.5t-57 86.5t-20 116.5q0 89 14.5 152.5t40.5 108.5t63 73.5t82 47.5q33 13 69 23t75 18t80.5 16t84.5 18v-26q-81 -17 -157 -31t-142 -41
q-35 -15 -65.5 -36.5t-54 -54t-39.5 -78.5t-22 -109q33 66 99.5 103.5t153.5 37.5zM346 460q-56 0 -102.5 -16.5t-80 -46t-52 -70.5t-18.5 -90t18.5 -89.5t52 -70t80 -46t102.5 -16.5t102.5 16.5t80 46t52 70t18.5 89.5t-18.5 90t-52 70.5t-80 46t-102.5 16.5z" />
    <glyph glyph-name="afii10067" unicode="&#x432;" horiz-adv-x="630" 
d="M349 475q102 0 148.5 -33t46.5 -89q0 -24 -8.5 -43t-23 -33t-33 -22.5t-37.5 -12.5q23 -4 44 -13t37 -23.5t25.5 -34t9.5 -45.5q0 -60 -53.5 -93t-155.5 -33h-236v475h236zM140 255h209q88 0 127.5 25t39.5 73q0 47 -39.5 72t-127.5 25h-209v-195zM140 25h209
q89 0 135.5 26.5t46.5 74.5q0 50 -46.5 77t-135.5 27h-209v-205z" />
    <glyph glyph-name="afii10068" unicode="&#x433;" horiz-adv-x="440" 
d="M113 475h317v-25h-290v-450h-27v475z" />
    <glyph glyph-name="afii10069" unicode="&#x434;" horiz-adv-x="565" 
d="M467 0h-430l-3 -140h-24v165h20q34 24 53.5 60t29.5 81t12.5 98.5t2.5 113.5v97h342v-450h24v-165h-24zM155 378q0 -60 -2 -112.5t-11 -97t-26.5 -80.5t-48.5 -63h376v425h-288v-72z" />
    <glyph glyph-name="afii10070" unicode="&#x435;" horiz-adv-x="626" 
d="M93 237q1 -60 21 -102t52.5 -69t75 -39t89.5 -12q55 0 110.5 13t103.5 42v-29q-47 -28 -102.5 -40t-111.5 -12q-52 0 -100 14t-85 44t-59 77t-22 113q0 54 18.5 100t52 79t79.5 51.5t101 18.5q52 0 96 -16.5t77 -46.5t53 -71.5t24 -90.5v-24h-473zM538 262
q-5 43 -22.5 79.5t-46.5 63t-68 41t-85 14.5q-47 0 -86.5 -14.5t-68 -41t-46 -63t-21.5 -79.5h444z" />
    <glyph glyph-name="afii10072" unicode="&#x436;" horiz-adv-x="817" 
d="M395 153l-124 106l-230 -259h-35l245 276l-233 199h39l338 -289v289h27v-289l338 289h39l-233 -199l245 -276h-35l-230 259l-124 -106v-153h-27v153z" />
    <glyph glyph-name="afii10073" unicode="&#x437;" horiz-adv-x="576" 
d="M155.024 238h104.994q92.9941 0 145.491 -28.5q52.4961 -28.5 52.4961 -79.5q0 -29 -14.499 -50.5t-40.4971 -35.5q-25.999 -14 -62.4961 -21.5q-36.498 -7.5 -81.4951 -7.5q-46.9971 0 -98.9941 11t-90.9941 32v-30q40.9971 -19 92.9941 -29t96.9941 -10
q48.9971 0 90.4941 8.5q41.498 8.5 71.9961 26t47.4971 43.5t16.999 62q0 28 -11.5 49.5q-11.499 21.5 -29.998 37t-41.4971 24.5q-22.999 9 -45.9971 12q21.998 4 42.9971 11.5t37.498 20.5t26.998 32t10.499 46q0 30 -16.499 53.5t-46.4971 39t-71.4951 23.5
q-41.498 8 -91.4951 8q-41.9971 0 -91.9941 -8.5t-88.9941 -25.5v-29q17.999 9 40.4971 16q22.499 7 46.4971 11.5q23.999 4.5 48.4971 7q24.499 2.5 45.4971 2.5q94.9951 0 146.491 -25.5q51.4971 -25.5 51.4971 -72.5q0 -25 -14.499 -43.5t-39.998 -30.5
q-25.498 -12 -59.9961 -18t-75.4951 -6h-101.994v-26z" />
    <glyph glyph-name="afii10074" unicode="&#x438;" horiz-adv-x="663" 
d="M550 0h-27v436l-383 -436h-27v475h27v-437l383 437h27v-475z" />
    <glyph glyph-name="afii10075" unicode="&#x439;" horiz-adv-x="663" 
d="M550 0h-27v436l-383 -436h-27v475h27v-437l383 437h27v-475zM331 571q-66 0 -103.5 37.5t-39.5 92.5h27q3 -45 32.5 -74t83.5 -29t83.5 29t32.5 74h27q-2 -55 -39.5 -92.5t-103.5 -37.5z" />
    <glyph glyph-name="afii10076" unicode="&#x43a;" horiz-adv-x="535" 
d="M140 0h-27v475h27v-289l338 289h39l-233 -199l245 -276h-35l-230 259l-124 -106v-153z" />
    <glyph glyph-name="afii10077" unicode="&#x43b;" horiz-adv-x="598" 
d="M485 475v-475h-27v450h-304v-124q0 -70 -3 -126t-18 -98t-46 -70.5t-87 -43.5l1 26q46 15 71.5 39t37.5 61t14.5 89t2.5 123v149h358z" />
    <glyph glyph-name="afii10078" unicode="&#x43c;" horiz-adv-x="813" 
d="M671 475h29v-475h-27v433l-254 -346h-25l-254 346v-433h-27v475h29l264 -361z" />
    <glyph glyph-name="afii10079" unicode="&#x43d;" horiz-adv-x="663" 
d="M523 244h-383v-244h-27v475h27v-206h383v206h27v-475h-27v244z" />
    <glyph glyph-name="afii10080" unicode="&#x43e;" horiz-adv-x="692" 
d="M346 486q61 0 113 -18.5t89 -51.5t58 -79t21 -100t-21 -99.5t-58 -78.5t-89 -51.5t-113 -18.5q-62 0 -113.5 18.5t-88.5 51.5t-58 78.5t-21 99.5t21 100t58 79t88.5 51.5t113.5 18.5zM346 460q-56 0 -102.5 -16.5t-80 -46t-52 -70.5t-18.5 -90t18.5 -89.5t52 -70t80 -46
t102.5 -16.5t102.5 16.5t80 46t52 70t18.5 89.5t-18.5 90t-52 70.5t-80 46t-102.5 16.5z" />
    <glyph glyph-name="afii10081" unicode="&#x43f;" horiz-adv-x="663" 
d="M523 450h-383v-450h-27v475h437v-475h-27v450z" />
    <glyph glyph-name="afii10082" unicode="&#x440;" 
d="M140 73q23 -14 45 -25t45.5 -18.5t50.5 -11t60 -3.5q43 0 84 12t72 39t50 69.5t19 102.5q0 52 -17 93.5t-46 70t-68.5 43.5t-85.5 15q-64 0 -115.5 -22.5t-93.5 -52.5v-312zM140 475v-59q40 26 92 48t117 22q54 0 99.5 -17t77.5 -49t50 -78t18 -104q0 -64 -20 -111
t-54.5 -77.5t-81 -45.5t-98.5 -15q-59 0 -108 14.5t-92 40.5v-234h-27v665h27z" />
    <glyph glyph-name="afii10083" unicode="&#x441;" horiz-adv-x="569" 
d="M499 27q-33 -19 -70.5 -28.5t-82.5 -9.5q-62 0 -113.5 18.5t-88.5 51.5t-58 78.5t-21 99.5t21 100t58 79t88.5 51.5t113.5 18.5q82 0 147 -34v-30q-31 18 -67.5 28t-79.5 10q-56 0 -102.5 -16.5t-80 -46t-52 -70.5t-18.5 -90t18.5 -89.5t52 -70t80 -46t102.5 -16.5
q47 0 84 11t69 32v-31z" />
    <glyph glyph-name="afii10084" unicode="&#x442;" horiz-adv-x="463" 
d="M218 0v450h-208v25h443v-25h-208v-450h-27z" />
    <glyph glyph-name="afii10085" unicode="&#x443;" horiz-adv-x="518" 
d="M271 3q-20 -39 -38.5 -72.5t-41.5 -59.5t-54 -44.5t-76 -27.5v26q39 9 66.5 26t48 40t36 51t30.5 60l-237 473h29l222 -443l226 443h31z" />
    <glyph glyph-name="afii10086" unicode="&#x444;" horiz-adv-x="803" 
d="M414 -190h-25v179q-71 1 -130.5 17.5t-102.5 47.5t-67 76.5t-24 106.5q0 60 24 106t67 77.5t102.5 47.5t130.5 18v190h25v-190q71 -2 130.5 -18t102.5 -47.5t67 -77.5t24 -106q0 -61 -24 -106.5t-67 -76.5t-102.5 -47.5t-130.5 -17.5v-179zM389 460q-65 -2 -119.5 -16.5
t-93.5 -42t-61 -68.5t-22 -96t22 -96t61 -68.5t93.5 -42t119.5 -15.5v445zM414 15q65 1 119.5 15.5t93.5 42t61 68.5t22 96t-22 96t-61 68.5t-93.5 42t-119.5 16.5v-445z" />
    <glyph glyph-name="afii10087" unicode="&#x445;" horiz-adv-x="483" 
d="M241 220l-197 -220h-36l217 239l-212 236h34l194 -217l195 217h35l-213 -236l217 -239h-35z" />
    <glyph glyph-name="afii10088" unicode="&#x446;" horiz-adv-x="613" 
d="M113 475h27v-450h333v450h27v-450h19v-165h-24l-3 140h-379v475z" />
    <glyph glyph-name="afii10089" unicode="&#x447;" horiz-adv-x="609" 
d="M469 0v232q-15 -14 -36 -29t-46 -27t-54.5 -19.5t-61.5 -7.5q-44 0 -80 11t-62.5 34t-41 59.5t-14.5 87.5v134h27v-135q0 -89 46.5 -127t125.5 -38q30 0 58.5 8t54 20.5t47 28.5t37.5 33v210h27v-475h-27z" />
    <glyph glyph-name="afii10090" unicode="&#x448;" horiz-adv-x="833" 
d="M403 25v450h27v-450h263v450h27v-475h-607v475h27v-450h263z" />
    <glyph glyph-name="afii10091" unicode="&#x449;" horiz-adv-x="833" 
d="M712 0h-599v475h27v-450h263v450h27v-450h263v450h27v-450h19v-165h-24z" />
    <glyph glyph-name="afii10092" unicode="&#x44a;" horiz-adv-x="605" 
d="M0 475h178v-209h188q102 0 155.5 -37t53.5 -97t-53.5 -96t-155.5 -36h-216v450h-150v25zM178 25h188q89 0 135.5 29.5t46.5 77.5t-46.5 78.5t-135.5 30.5h-188v-216z" />
    <glyph glyph-name="afii10093" unicode="&#x44b;" horiz-adv-x="805" 
d="M141 475v-209h188q102 0 155.5 -37t53.5 -97t-53.5 -96t-155.5 -36h-216v475h28zM141 25h188q89 0 135.5 29.5t46.5 77.5t-46.5 78.5t-135.5 30.5h-188v-216zM692 0h-27v475h27v-475z" />
    <glyph glyph-name="afii10094" unicode="&#x44c;" horiz-adv-x="568" 
d="M141 475v-209h188q102 0 155.5 -37t53.5 -97t-53.5 -96t-155.5 -36h-216v475h28zM141 25h188q89 0 135.5 29.5t46.5 77.5t-46.5 78.5t-135.5 30.5h-188v-216z" />
    <glyph glyph-name="afii10095" unicode="&#x44d;" horiz-adv-x="569" 
d="M65.0312 28q32.9971 -19 72.9951 -29q39.9971 -10 84.9951 -10q61.9961 0 113.493 18.5q51.4961 18.5 88.4941 51.5t57.9961 78.5q20.999 45.5 20.999 99.5t-20.999 100q-20.998 46 -57.9961 79t-88.4941 51.5q-51.4971 18.5 -113.493 18.5q-83.9951 0 -148.991 -34v-30
q30.998 18 68.4961 28q37.4971 10 80.4951 10q52.9961 0 97.9941 -15q44.9971 -15 77.9951 -41.5t52.4961 -63.5q19.499 -37 23.499 -82h-322.98v-26h323.98q-1 -48 -19.499 -88t-51.9971 -68.5t-79.4951 -44.5t-101.993 -16q-46.9971 0 -86.4951 11.5
q-39.4971 11.5 -71.4951 32.5v-31z" />
    <glyph glyph-name="afii10096" unicode="&#x44e;" horiz-adv-x="947" 
d="M601 486q61 0 113 -18.5t89 -51.5t58 -79t21 -100t-21 -99.5t-58 -78.5t-89 -51.5t-113 -18.5q-62 0 -113.5 18.5t-88.5 51.5t-58 78.5t-21 99.5v7h-180v-244h-27v475h27v-206h182q6 48 29 88t59.5 68.5t85 44.5t105.5 16zM601 460q-56 0 -102.5 -16.5t-80 -46t-52 -70.5
t-18.5 -90t18.5 -89.5t52 -70t80 -46t102.5 -16.5t102.5 16.5t80 46t52 70t18.5 89.5t-18.5 90t-52 70.5t-80 46t-102.5 16.5z" />
    <glyph glyph-name="afii10097" unicode="&#x44f;" horiz-adv-x="627" 
d="M514 0h-28v212h-165l-209 -212h-37l210 212h-7q-102 0 -155.5 35.5t-53.5 95.5t53.5 96t155.5 36h236v-475zM278 450q-89 0 -135.5 -29.5t-46.5 -77.5t46.5 -77t135.5 -29h208v213h-208z" />
    <glyph glyph-name="uni0450" unicode="&#x450;" horiz-adv-x="626" 
d="M93 237q1 -60 21 -102t52.5 -69t75 -39t89.5 -12q55 0 110.5 13t103.5 42v-29q-47 -28 -102.5 -40t-111.5 -12q-52 0 -100 14t-85 44t-59 77t-22 113q0 54 18.5 100t52 79t79.5 51.5t101 18.5q52 0 96 -16.5t77 -46.5t53 -71.5t24 -90.5v-24h-473zM538 262
q-5 43 -22.5 79.5t-46.5 63t-68 41t-85 14.5q-47 0 -86.5 -14.5t-68 -41t-46 -63t-21.5 -79.5h444zM334 559h-27l-108 151h35z" />
    <glyph glyph-name="afii10071" unicode="&#x451;" horiz-adv-x="626" 
d="M93 237q1 -60 21 -102t52.5 -69t75 -39t89.5 -12q55 0 110.5 13t103.5 42v-29q-47 -28 -102.5 -40t-111.5 -12q-52 0 -100 14t-85 44t-59 77t-22 113q0 54 18.5 100t52 79t79.5 51.5t101 18.5q52 0 96 -16.5t77 -46.5t53 -71.5t24 -90.5v-24h-473zM538 262
q-5 43 -22.5 79.5t-46.5 63t-68 41t-85 14.5q-47 0 -86.5 -14.5t-68 -41t-46 -63t-21.5 -79.5h444zM232 604h-29v72h29v-72zM423 604h-29v72h29v-72z" />
    <glyph glyph-name="afii10099" unicode="&#x452;" horiz-adv-x="608" 
d="M140 615h254v-24h-254v-174q40 26 92 47.5t117 21.5q53 0 91 -19.5t62.5 -55t36 -85t11.5 -109.5q0 -89 -24.5 -150t-63.5 -99.5t-87.5 -59t-97.5 -28.5v28q43 8 87 25.5t79 52.5t57 91t22 140q0 54 -9 98.5t-29.5 77t-53.5 50t-81 17.5q-64 0 -115.5 -22.5t-93.5 -52.5
v-385h-27v591h-90v24h90v95h27v-95z" />
    <glyph glyph-name="afii10100" unicode="&#x453;" horiz-adv-x="440" 
d="M113 475h317v-25h-290v-450h-27v475zM340 710h35l-108 -151h-27z" />
    <glyph glyph-name="afii10101" unicode="&#x454;" horiz-adv-x="569" 
d="M504 28q-33 -19 -73 -29t-85 -10q-62 0 -113.5 18.5t-88.5 51.5t-58 78.5t-21 99.5t21 100t58 79t88.5 51.5t113.5 18.5q84 0 149 -34v-30q-31 18 -68.5 28t-80.5 10q-53 0 -98 -15t-78 -41.5t-52.5 -63.5t-23.5 -82h323v-26h-324q1 -48 19.5 -88t52 -68.5t79.5 -44.5
t102 -16q47 0 86.5 11.5t71.5 32.5v-31z" />
    <glyph glyph-name="afii10102" unicode="&#x455;" horiz-adv-x="538" 
d="M460 418q-31 18 -80.5 30t-100.5 12q-38 0 -70.5 -6.5t-56.5 -20t-37.5 -33t-13.5 -45.5q0 -38 27 -57t68 -29.5t88.5 -17.5t88.5 -20.5t68 -38t27 -70.5q0 -33 -15 -57.5t-41.5 -41.5t-63.5 -25.5t-80 -8.5q-110 0 -197 52v28q42 -25 91.5 -39.5t106.5 -14.5
q79 0 125 26.5t46 78.5q0 39 -27 59.5t-68 32t-88.5 18.5t-88.5 20t-68 37t-27 68q0 60 55.5 95.5t150.5 35.5q57 0 106 -12.5t75 -27.5v-28z" />
    <glyph glyph-name="afii10103" unicode="&#x456;" horiz-adv-x="254" 
d="M140 0h-27v475h27v-475zM141 604h-29v72h29v-72z" />
    <glyph glyph-name="afii10104" unicode="&#x457;" horiz-adv-x="254" 
d="M47 604h-29v72h29v-72zM238 604h-29v72h29v-72zM140 0h-27v475h27v-475z" />
    <glyph glyph-name="afii10105" unicode="&#x458;" horiz-adv-x="254" 
d="M141 604h-29v72h29v-72zM140 475v-589q0 -44 -25.5 -65.5t-64.5 -21.5q-17 0 -36.5 4t-33.5 12v28q17 -9 33 -13.5t37 -4.5q29 0 46 15.5t17 45.5v589h27z" />
    <glyph glyph-name="afii10106" unicode="&#x459;" horiz-adv-x="874" 
d="M447 25h188q89 0 135.5 29.5t46.5 77.5t-46.5 78.5t-135.5 30.5h-188v-216zM447 475v-209h188q102 0 155.5 -37t53.5 -97t-53.5 -96t-155.5 -36h-216v450h-265v-124q0 -70 -3 -126t-18 -98t-46 -70.5t-87 -43.5l1 26q46 15 71.5 39t37.5 61t14.5 89t2.5 123v149h320z" />
    <glyph glyph-name="afii10107" unicode="&#x45a;" horiz-adv-x="886" 
d="M140 0h-27v475h27v-209h291v209h28v-209h188q102 0 155.5 -37t53.5 -97t-53.5 -96t-155.5 -36h-216v241h-291v-241zM459 25h188q89 0 135.5 29.5t46.5 77.5t-46.5 78.5t-135.5 30.5h-188v-216z" />
    <glyph glyph-name="afii10108" unicode="&#x45b;" horiz-adv-x="655" 
d="M140 591v-175q40 26 92 48t117 22q43 0 79.5 -10.5t63.5 -32t42.5 -54t15.5 -75.5v-314h-27v314q0 71 -48 108.5t-126 37.5q-64 0 -115.5 -22.5t-93.5 -52.5v-385h-27v591h-90v24h90v95h27v-95h254v-24h-254z" />
    <glyph glyph-name="afii10109" unicode="&#x45c;" horiz-adv-x="535" 
d="M377 710h35l-108 -151h-27zM140 0h-27v475h27v-289l338 289h39l-233 -199l245 -276h-35l-230 259l-124 -106v-153z" />
    <glyph glyph-name="uni045D" unicode="&#x45d;" horiz-adv-x="663" 
d="M550 0h-27v436l-383 -436h-27v475h27v-437l383 437h27v-475zM353 559h-27l-108 151h35z" />
    <glyph glyph-name="afii10110" unicode="&#x45e;" horiz-adv-x="518" 
d="M271 3q-20 -39 -38.5 -72.5t-41.5 -59.5t-54 -44.5t-76 -27.5v26q39 9 66.5 26t48 40t36 51t30.5 60l-237 473h29l222 -443l226 443h31zM260 571q-66 0 -103.5 37.5t-39.5 92.5h27q3 -45 32.5 -74t83.5 -29t83.5 29t32.5 74h27q-2 -55 -39.5 -92.5t-103.5 -37.5z" />
    <glyph glyph-name="afii10193" unicode="&#x45f;" horiz-adv-x="613" 
d="M140 25h333v450h27v-475h-180l-2 -140h-24l-2 140h-179v475h27v-450z" />
    <glyph glyph-name="afii10146" unicode="&#x462;" horiz-adv-x="678" 
d="M172 568v-172h171q137 0 206 -53.5t69 -144.5t-69 -144.5t-206 -53.5h-202v568h-144v27h144v115h31v-115h263v-27h-263zM172 28h171q118 0 181 44.5t63 125.5t-63 125.5t-181 44.5h-171v-340z" />
    <glyph glyph-name="afii10194" unicode="&#x463;" horiz-adv-x="605" 
d="M0 475h150v200h28v-200h198v-25h-198v-184h188q102 0 155.5 -37t53.5 -97t-53.5 -96t-155.5 -36h-216v450h-150v25zM178 25h188q89 0 135.5 29.5t46.5 77.5t-46.5 78.5t-135.5 30.5h-188v-216z" />
    <glyph glyph-name="afii10147" unicode="&#x472;" horiz-adv-x="966" 
d="M884 338q0 -78 -28.5 -142.5t-81 -110.5t-126.5 -71t-165 -25t-165 25t-126.5 71t-81 110.5t-28.5 142.5t28.5 142.5t81 110.5t126.5 71t165 25t165 -25t126.5 -71t81 -110.5t28.5 -142.5zM113 340q0 -73 26.5 -132.5t74.5 -102t116.5 -65.5t152.5 -23t152.5 23
t116.5 65.5t74.5 102t26.5 132.5h-740zM483 659q-80 0 -145.5 -20.5t-113.5 -59t-76.5 -92t-33.5 -119.5h738q-6 66 -34.5 119.5t-76.5 92t-113.5 59t-144.5 20.5z" />
    <glyph glyph-name="afii10195" unicode="&#x473;" horiz-adv-x="692" 
d="M346 486q61 0 113 -18.5t89 -51.5t58 -79t21 -100t-21 -99.5t-58 -78.5t-89 -51.5t-113 -18.5q-62 0 -113.5 18.5t-88.5 51.5t-58 78.5t-21 99.5t21 100t58 79t88.5 51.5t113.5 18.5zM93 237q0 -49 18.5 -89.5t52 -70t80 -46t102.5 -16.5t102.5 16.5t80 46t52 70
t18.5 89.5v7h-506v-7zM597 269q-6 42 -26.5 77.5t-53.5 60.5t-76.5 39t-94.5 14q-52 0 -95.5 -14t-76 -39t-53 -60.5t-26.5 -77.5h502z" />
    <glyph glyph-name="afii10148" unicode="&#x474;" horiz-adv-x="726" 
d="M35 676l300 -639l253 538q10 21 21.5 41.5t27 36t36.5 25t51 9.5v-27q-22 0 -38 -6.5t-28.5 -19t-22.5 -30.5t-21 -41l-263 -563h-30l-319 676h33z" />
    <glyph glyph-name="afii10196" unicode="&#x475;" horiz-adv-x="571" 
d="M430 374q11 21 22 41.5t26 36t34.5 25t46.5 9.5h7v-26h-7q-20 0 -34.5 -7t-26 -20t-22 -31t-21.5 -40l-185 -362h-27l-238 475h29l222 -443z" />
    <glyph glyph-name="afii10050" unicode="&#x490;" horiz-adv-x="574" 
d="M172 0h-31v676h375l4 140h27v-168h-375v-648z" />
    <glyph glyph-name="afii10098" unicode="&#x491;" horiz-adv-x="440" 
d="M140 0h-27v475h290l3 140h24v-165h-290v-450z" />
    <glyph glyph-name="Wgrave" unicode="&#x1e80;" horiz-adv-x="1134" 
d="M582 676l268 -638l236 638h29l-249 -676h-29l-270 638l-270 -638h-29l-249 676h29l236 -638l268 638h30zM580 744h-27l-108 151h35z" />
    <glyph glyph-name="wgrave" unicode="&#x1e81;" horiz-adv-x="868" 
d="M434 438l-196 -438h-26l-202 475h29l187 -441l195 441h26l195 -441l187 441h29l-202 -475h-26zM450 559h-27l-108 151h35z" />
    <glyph glyph-name="Wacute" unicode="&#x1e82;" horiz-adv-x="1134" 
d="M582 676l268 -638l236 638h29l-249 -676h-29l-270 638l-270 -638h-29l-249 676h29l236 -638l268 638h30zM655 895h35l-108 -151h-27z" />
    <glyph glyph-name="wacute" unicode="&#x1e83;" horiz-adv-x="868" 
d="M434 438l-196 -438h-26l-202 475h29l187 -441l195 441h26l195 -441l187 441h29l-202 -475h-26zM524 710h35l-108 -151h-27z" />
    <glyph glyph-name="Wdieresis" unicode="&#x1e84;" horiz-adv-x="1134" 
d="M582 676l268 -638l236 638h29l-249 -676h-29l-270 638l-270 -638h-29l-249 676h29l236 -638l268 638h30zM486 783h-29v72h29v-72zM677 783h-29v72h29v-72z" />
    <glyph glyph-name="wdieresis" unicode="&#x1e85;" horiz-adv-x="868" 
d="M434 438l-196 -438h-26l-202 475h29l187 -441l195 441h26l195 -441l187 441h29l-202 -475h-26zM353 604h-29v72h29v-72zM544 604h-29v72h29v-72z" />
    <glyph glyph-name="Ygrave" unicode="&#x1ef2;" horiz-adv-x="630" 
d="M331 274v-274h-31v274l-300 402h35l281 -371l278 371h36zM329 744h-27l-108 151h35z" />
    <glyph glyph-name="ygrave" unicode="&#x1ef3;" horiz-adv-x="638" 
d="M129 475v-294q0 -45 12 -77t34.5 -51.5t54.5 -28.5t71 -9q30 0 58.5 8t54 20.5t47 28.5t37.5 33v370h27v-477q0 -54 -19 -92t-51.5 -61.5t-74 -34.5t-86.5 -11t-90.5 10t-84.5 28v29q35 -18 81.5 -29.5t93.5 -11.5q39 0 76 9t65.5 29.5t45.5 53.5t17 81v75
q-15 -14 -36 -29t-46 -27t-54.5 -20t-61.5 -8q-44 0 -80.5 11t-62.5 34t-40.5 59.5t-14.5 87.5v294h27zM343 559h-27l-108 151h35z" />
    <glyph glyph-name="endash" unicode="&#x2013;" horiz-adv-x="694" 
d="M591 282h-488v27h488v-27z" />
    <glyph glyph-name="emdash" unicode="&#x2014;" horiz-adv-x="1192" 
d="M1089 282h-986v27h986v-27z" />
    <glyph glyph-name="afii00208" unicode="&#x2015;" horiz-adv-x="694" 
d="M591 282h-488v27h488v-27z" />
    <glyph glyph-name="quoteleft" unicode="&#x2018;" horiz-adv-x="279" 
d="M89 446q-4 16 -6 31t-2 30q0 54 25.5 99.5t76.5 79.5l15 -22q-42 -27 -64.5 -68t-22.5 -90q0 -30 9 -60h-31v0z" />
    <glyph glyph-name="quoteright" unicode="&#x2019;" horiz-adv-x="279" 
d="M190 676q8 -29 8 -61q0 -54 -25.5 -99.5t-76.5 -79.5l-15 22q42 27 64.5 67.5t22.5 89.5q0 31 -9 61h31v0z" />
    <glyph glyph-name="quotesinglbase" unicode="&#x201a;" horiz-adv-x="279" 
d="M190 112q8 -29 8 -61q0 -54 -25.5 -99.5t-76.5 -79.5l-15 22q42 27 64.5 67.5t22.5 89.5q0 31 -9 61h31v0z" />
    <glyph glyph-name="quotedblleft" unicode="&#x201c;" horiz-adv-x="431" 
d="M241.012 446.041q-8 28.998 -8 60.9961q0 53.9971 25.499 99.4941q25.498 45.4971 76.4951 79.4951l14.999 -21.998q-41.9971 -26.999 -64.4961 -67.4961q-22.499 -40.498 -22.499 -89.4951q0 -30.998 9 -60.9961h-30.998v0zM89.0117 446.041q-8 28.998 -8 60.9961
q0 53.9971 25.499 99.4941q25.498 45.4971 76.4951 79.4951l14.999 -21.998q-41.9971 -26.999 -64.4961 -67.4961q-22.499 -40.498 -22.499 -89.4951q0 -30.998 9 -60.9961h-30.998v0z" />
    <glyph glyph-name="quotedblright" unicode="&#x201d;" horiz-adv-x="431" 
d="M342 676q8 -29 8 -61q0 -54 -25.5 -99.5t-76.5 -79.5l-15 22q42 27 64.5 67.5t22.5 89.5q0 31 -9 61h31v0zM190 676q8 -29 8 -61q0 -54 -25.5 -99.5t-76.5 -79.5l-15 22q42 27 64.5 67.5t22.5 89.5q0 31 -9 61h31v0z" />
    <glyph glyph-name="quotedblbase" unicode="&#x201e;" horiz-adv-x="431" 
d="M342 112q8 -29 8 -61q0 -54 -25.5 -99.5t-76.5 -79.5l-15 22q42 27 64.5 67.5t22.5 89.5q0 31 -9 61h31v0zM190 112q8 -29 8 -61q0 -54 -25.5 -99.5t-76.5 -79.5l-15 22q42 27 64.5 67.5t22.5 89.5q0 31 -9 61h31v0z" />
    <glyph glyph-name="dagger" unicode="&#x2020;" horiz-adv-x="454" 
d="M240 538v-229h-27v229h-144v27h144v111h27v-111h144v-27h-144z" />
    <glyph glyph-name="daggerdbl" unicode="&#x2021;" horiz-adv-x="454" 
d="M69 413v27h144v106h-144v27h144v103h27v-103h144v-27h-144v-106h144v-27h-144v-104h-27v104h-144z" />
    <glyph glyph-name="bullet" unicode="&#x2022;" horiz-adv-x="330" 
d="M248 323q0 -31 -23 -49t-60 -18t-60 18t-23 49t23 49t60 18t60 -18t23 -49z" />
    <glyph glyph-name="ellipsis" unicode="&#x2026;" horiz-adv-x="825" 
d="M119 54h37v-54h-37v54zM394 54h37v-54h-37v54zM669 54h37v-54h-37v54z" />
    <glyph glyph-name="perthousand" unicode="&#x2030;" horiz-adv-x="1437" 
d="M1360 200q0 -98 -44.5 -154t-126.5 -56t-126.5 56t-44.5 154t44.5 154t126.5 56t126.5 -56t44.5 -154zM1332 200q0 88 -35.5 136t-107.5 48t-107.5 -48t-35.5 -136t35.5 -136t107.5 -48t107.5 48t35.5 136zM419 477q0 -98 -44.5 -154t-126.5 -56t-126.5 56t-44.5 154
t44.5 154t126.5 56t126.5 -56t44.5 -154zM307 0h-32l441 676h33zM391 477q0 88 -35.5 136t-107.5 48t-107.5 -48t-35.5 -136t35.5 -136t107.5 -48t107.5 48t35.5 136zM945 198q0 -98 -44.5 -153.5t-126.5 -55.5t-126.5 56t-44.5 154t44.5 154t126.5 56t126.5 -56.5
t44.5 -154.5zM917 199q0 88 -35.5 136t-107.5 48t-107.5 -48t-35.5 -136t35.5 -136t107.5 -48t107.5 48t35.5 136z" />
    <glyph glyph-name="guilsinglleft" unicode="&#x2039;" horiz-adv-x="324" 
d="M61 248l169 199h33l-167 -199l167 -199h-33z" />
    <glyph glyph-name="guilsinglright" unicode="&#x203a;" horiz-adv-x="324" 
d="M263.004 248l-168.99 199h-32.998l166.99 -199l-166.99 -199h32.998z" />
    <glyph glyph-name="fraction" unicode="&#x2044;" horiz-adv-x="474" 
d="M35 0h-32l441 676h33z" />
    <glyph glyph-name="Euro" unicode="&#x20ac;" horiz-adv-x="648" 
d="M130 280q-1 14 -1.5 28t-0.5 29q0 21 1.5 40t3.5 38h-96l6 27h94q12 62 39 108t65.5 76.5t87 45.5t104.5 15q37 0 78.5 -6.5t72.5 -20.5v-31q-30 14 -71.5 22t-80.5 8q-108 0 -175 -56t-89 -161h361l-6 -27h-360q-2 -19 -3.5 -38.5t-1.5 -39.5q0 -30 3 -57h332l-6 -27
h-323q18 -115 86 -175.5t182 -60.5q39 0 82.5 8t73.5 22v-31q-31 -14 -74.5 -20.5t-80.5 -6.5q-58 0 -108 16t-89 48.5t-65.5 82t-36.5 117.5h-97l6 27h87z" />
    <glyph glyph-name="afii61352" unicode="&#x2116;" horiz-adv-x="1335" 
d="M1287 513q0 -38 -11.5 -70t-33 -55t-52 -36t-68.5 -13t-68.5 13t-52 36t-33 55t-11.5 70t11.5 70t33 55t52 36t68.5 13t68.5 -13t52 -36t33 -55t11.5 -70zM962 249h320v-26h-320v26zM1259 513q0 68 -35.5 108t-101.5 40t-101.5 -40t-35.5 -108t35.5 -108t101.5 -40
t101.5 40t35.5 108zM769 0h-39l-558 639v-639h-31v676h39l558 -642v642h31v-676z" />
    <glyph glyph-name="trademark" unicode="&#x2122;" horiz-adv-x="901" 
d="M339 649h-139v-250h-27v250h-139v27h305v-27zM595 452l-131 179v-232h-28v277h29l143 -196l143 196h29v-277h-28v232l-131 -179h-26z" />
    <glyph glyph-name="partialdiff" unicode="&#x2202;" horiz-adv-x="671" 
d="M563 266q-38 51 -100.5 87t-147.5 36q-44 0 -84 -11.5t-70 -35.5t-47.5 -61t-17.5 -88q0 -45 16.5 -78t43.5 -54.5t62 -32.5t72 -11q50 0 95.5 15.5t81.5 46.5t61 78t35 109zM125 652q19 10 42 16.5t46 10.5t45.5 6t41.5 2q66 0 120.5 -23t94 -67.5t61.5 -108.5t22 -145
q0 -95 -27 -162t-70.5 -110t-98.5 -62.5t-112 -19.5q-53 0 -94 16t-70 43.5t-44 65t-15 80.5q0 58 20.5 100.5t55 70t79.5 40.5t93 13q87 0 149.5 -33t102.5 -80q1 8 1.5 17.5t0.5 18.5q0 61 -15 118.5t-48 101.5t-84.5 70.5t-123.5 26.5q-38 0 -84.5 -9t-78.5 -26z" />
    <glyph glyph-name="product" unicode="&#x220f;" horiz-adv-x="801" 
d="M660 0h-31v648h-457v-648h-31v676h519v-676z" />
    <glyph glyph-name="summation" unicode="&#x2211;" horiz-adv-x="680" 
d="M429 339l-307 -311h484v-28h-524v28l308 311l-308 309v28h514v-28h-474z" />
    <glyph glyph-name="minus" unicode="&#x2212;" horiz-adv-x="680" 
d="M614 301h-548v27h548v-27z" />
    <glyph glyph-name="radical" unicode="&#x221a;" horiz-adv-x="554" 
d="M0 475h107l187 -443l233 644h27l-246 -676h-28l-192 450h-88v25z" />
    <glyph glyph-name="infinity" unicode="&#x221e;" horiz-adv-x="630" 
d="M297 313q-18 19 -33.5 35.5t-31.5 28.5t-33.5 19t-39.5 7q-45 0 -69.5 -24t-24.5 -66t24.5 -66t69.5 -24q22 0 39.5 7t33.5 19t31.5 28.5t33.5 35.5zM315 291q-17 -18 -34 -35.5t-36 -31t-40 -22t-46 -8.5q-56 0 -89 33t-33 86t33 86t89 33q25 0 46 -8.5t40 -22t36 -31
t34 -35.5q17 18 34 35.5t36 31t40 22t46 8.5q56 0 89 -33t33 -86t-33 -86t-89 -33q-25 0 -46 8.5t-40 22t-36 31t-34 35.5zM333 313q18 -19 33.5 -35.5t31.5 -28.5t33 -19t40 -7q45 0 69.5 24t24.5 66t-24.5 66t-69.5 24q-23 0 -40 -7t-33 -19t-31.5 -28.5t-33.5 -35.5z" />
    <glyph glyph-name="integral" unicode="&#x222b;" horiz-adv-x="323" 
d="M323 693q-30 0 -56.5 -6t-46.5 -20t-31.5 -39t-11.5 -62v-611q0 -41 -13 -70.5t-36.5 -48.5t-56 -28t-71.5 -9v28q30 0 56.5 6t46.5 20t31.5 38.5t11.5 62.5v611q0 41 13 70.5t36.5 48.5t56 28t71.5 9v-28z" />
    <glyph glyph-name="approxequal" unicode="&#x2248;" horiz-adv-x="680" 
d="M70 391q24 24 55.5 36t66.5 12q37 0 74.5 -8t74 -17t73 -17t71.5 -8q38 0 62.5 11.5t42.5 28.5l19 -21q-48 -50 -124 -50q-37 0 -73 8t-72 18t-73 18t-75 8q-37 0 -61 -11.5t-42 -28.5zM70 220q24 24 55.5 36t66.5 12q37 0 74.5 -8t74 -17t73 -17t71.5 -8q38 0 62.5 11.5
t42.5 28.5l19 -21q-24 -24 -56 -36t-68 -12q-37 0 -73 8t-72 17t-73 17t-75 8q-37 0 -61 -11.5t-42 -28.5z" />
    <glyph glyph-name="notequal" unicode="&#x2260;" horiz-adv-x="680" 
d="M614 203h-356l-97 -112h-33l96 112h-158v27h181l144 168h-325v27h348l96 112h37l-97 -112h164v-27h-188l-145 -168h333v-27z" />
    <glyph glyph-name="lessequal" unicode="&#x2264;" horiz-adv-x="680" 
d="M614 0h-548v28h548v-28zM614 517l-513 -202l513 -203v-30l-548 217v32l548 217v-31z" />
    <glyph glyph-name="greaterequal" unicode="&#x2265;" horiz-adv-x="680" 
d="M66.0371 0h547.967v28h-547.967v-28zM66.0371 517l512.969 -202l-512.969 -203v-30l547.967 217v32l-547.967 217v-31z" />
    <glyph glyph-name="lozenge" unicode="&#x25ca;" horiz-adv-x="605" 
d="M291 0l-244 338l244 338h24l244 -338l-244 -338h-24zM303 648l-224 -310l224 -310l224 310z" />
    <glyph glyph-name="commaaccent" horiz-adv-x="600" 
d="M270 -61q6 -14 8.5 -28t2.5 -28q0 -36 -19.5 -65t-62.5 -50l-11 21q35 16 50.5 40t15.5 53q0 13 -2.5 27.5t-9.5 29.5h28z" />
    </font>
</defs>
</svg>
