<?xml version="1.0" standalone="no"?>
<!DOCTYPE svg PUBLIC "-//W3C//DTD SVG 1.1//EN" "http://www.w3.org/Graphics/SVG/1.1/DTD/svg11.dtd" >
<svg xmlns="http://www.w3.org/2000/svg">
<metadata>
Created by FontPrep 20130207 at Sun Nov 16 23:00:14 2014
 By Leonid Frolov
Copyright (c) 2012 Sandoll Communications Inc. All rights reserved.
</metadata>
<defs>
<font id="4528c81b33f701dd09996cf0dbebb633" horiz-adv-x='1024' >
  <font-face 
    font-family="KIAB"
    font-weight="400"
    font-stretch="normal"
    units-per-em="2048"
    panose-1="2 0 5 3 0 0 0 0 0 0"
    ascent="1638"
    descent="-410"
    x-height="1075"
    cap-height="1489"
    bbox="-1161 -408 2359 2009"
    underline-thickness="102"
    underline-position="-102"
    unicode-range="U+0021-04FF"
  />
<missing-glyph horiz-adv-x="1024" 
 />
    <glyph glyph-name=".notdef" horiz-adv-x="1024" 
 />
    <glyph glyph-name=".null" horiz-adv-x="0" 
 />
    <glyph glyph-name="nonmarkingreturn" horiz-adv-x="681" 
 />
    <glyph glyph-name="exclam" unicode="!" horiz-adv-x="591" 
d="M160 1489h276l-22 -1069h-236zM156 281h278v-281h-278v281z" />
    <glyph glyph-name="quotedbl" unicode="&#x22;" horiz-adv-x="761" 
d="M96 1491h248v-483h-248v483zM418 1491h248v-483h-248v483z" />
    <glyph glyph-name="numbersign" unicode="#" horiz-adv-x="1249" 
d="M106 1083h244l64 390h245l-63 -390h170l65 390h244l-63 -390h196v-229h-233l-35 -205h207v-231h-244l-65 -408h-246l67 408h-172l-65 -408h-246l66 408h-197v231h234l34 205h-207v229zM526 649h170l37 205h-174z" />
    <glyph glyph-name="dollar" unicode="$" horiz-adv-x="1187" 
d="M80 1053q0 352 395 391v153h250v-153q176 -23 324 -70v-213q-178 43 -324 53v-376q187 -53 291 -133t104 -273t-143 -303q-100 -76 -252 -98v-183h-250v181q-201 20 -369 73v213q260 -45 369 -53v393q-183 51 -289 135t-106 263zM862 455q0 90 -137 135v-316
q137 40 137 181zM338 1062q0 -112 137 -155v301q-137 -34 -137 -146z" />
    <glyph glyph-name="percent" unicode="%" horiz-adv-x="1808" 
d="M770 1077q0 -189 -95 -297t-259 -108t-259 106t-95 294t96 306q96 117 303 117t256 -162q53 -158 53 -256zM1245 1513h285l-989 -1546h-287zM418 893q51 0 74 45q20 47 20 146q0 98 -20 142t-74 44t-74 -43t-20 -143t20 -146q23 -45 74 -45zM1720 398q0 -186 -96 -296
t-261 -110t-257 106q-96 104 -96 301q0 295 137 357q139 61 260 61t219 -115q94 -117 94 -304zM1364 215q54 0 74 44q20 43 20 145t-20 145t-74 43t-74 -43q-18 -45 -18 -144t20 -145t72 -45z" />
    <glyph glyph-name="ampersand" unicode="&#x26;" horiz-adv-x="1357" 
d="M233 1110q0 213 113 302t287 89t280 -88q100 -94 101 -254q0 -252 -266 -401q8 -10 49 -58t59 -73q45 -47 113 -133q35 119 45 268h217q0 -272 -107 -459q42 -50 60 -70l127 -151q23 -27 59 -72h-323l-86 101q-155 -125 -387 -125t-373 110q-141 111 -142 326
q0 215 111 302t172 124q-109 143 -109 262zM334 455q0 -238 254 -238q147 0 231 64l-321 381q-164 -92 -164 -207zM637 1286q-135 0 -135 -141q0 -106 88 -195q164 90 164 213t-117 123z" />
    <glyph glyph-name="quotesingle" unicode="'" horiz-adv-x="428" 
d="M80 1491h266v-483h-266v483z" />
    <glyph glyph-name="parenleft" unicode="(" horiz-adv-x="716" 
d="M55 688v74q0 500 381 870h260q-379 -428 -379 -856v-102q0 -428 379 -856h-260q-381 372 -381 870z" />
    <glyph glyph-name="parenright" unicode=")" horiz-adv-x="716" 
d="M662 762v-74q0 -489 -381 -870h-261q379 428 379 856v102q0 428 -379 856h261q381 -381 381 -870z" />
    <glyph glyph-name="asterisk" unicode="*" horiz-adv-x="796" 
d="M295 752l-141 -90l-107 190l152 70l-152 73l111 185l139 -90l-6 174h215l-6 -174l141 92l107 -189l-152 -71l152 -70l-107 -193l-141 95l6 -170h-215z" />
    <glyph glyph-name="plus" unicode="+" horiz-adv-x="1085" 
d="M422 641h-328v227h328v342h242v-342h325v-227h-325v-344h-242v344z" />
    <glyph glyph-name="comma" unicode="," horiz-adv-x="532" 
d="M150 289h307l-181 -461h-239z" />
    <glyph glyph-name="hyphen" unicode="-" horiz-adv-x="1085" 
d="M133 870h817v-229h-817v229z" />
    <glyph glyph-name="period" unicode="." horiz-adv-x="532" 
d="M127 246h279v-281h-279v281z" />
    <glyph glyph-name="slash" unicode="/" horiz-adv-x="819" 
d="M510 1587h274l-491 -1749h-268z" />
    <glyph glyph-name="zero" unicode="0" horiz-adv-x="1300" 
d="M1184 733q0 -756 -532 -756t-535 756q0 397 141 582q137 188 391 188t393 -188q142 -185 142 -582zM618 1274q-104 0 -161 -133t-57 -401t52 -401q52 -132 196 -132t200 129q53 135 53 330t-12 295t-41 174q-31 67 -79 103q-47 36 -151 36z" />
    <glyph glyph-name="one" unicode="1" horiz-adv-x="860" 
d="M616 0h-278v1208l-221 -34v215l499 120v-1509z" />
    <glyph glyph-name="two" unicode="2" horiz-adv-x="1146" 
d="M541 1503q471 0 471 -436q0 -176 -93 -337t-276 -343l-151 -156h581l-92 -231h-870v209l335 330q283 281 283 514q0 111 -55 164q-58 53 -200 53t-351 -68v223q199 78 418 78z" />
    <glyph glyph-name="three" unicode="3" horiz-adv-x="1112" 
d="M395 891q299 0 299 215t-239 172q-227 -37 -346 -76v221q178 80 403 80q465 0 465 -389q0 -211 -189 -313q242 -86 242 -375q0 -446 -510 -446q-221 0 -461 75v224q501 -116 629 -9q55 55 57 140q4 152 -88 198t-262 45h-108v238h108z" />
    <glyph glyph-name="four" unicode="4" horiz-adv-x="1228" 
d="M696 291h-659v211l620 987h301v-965h267l-88 -233h-179v-291h-262v291zM696 524v574l-354 -574h354z" />
    <glyph glyph-name="five" unicode="5" horiz-adv-x="1073" 
d="M717 444q0 170 -68 220q-67 53 -223 53t-330 -23l51 795h848l-92 -236h-508l-22 -307q42 6 114 6q518 -2 519 -481q0 -494 -496 -489q-223 0 -465 73v226q237 -59 403 -59t218 65q51 59 51 157z" />
    <glyph glyph-name="six" unicode="6" horiz-adv-x="1245" 
d="M647 760q-129 0 -264 -43q0 -274 49 -392t202 -118t203 72t50 220q1 149 -55 205t-185 56zM742 995q192 0 307 -127q121 -121 120 -352q0 -383 -190 -463q-199 -76 -334 -76q-281 0 -416 183q-131 186 -131 485q0 512 152 686q154 172 380 172t441 -69v-217
q-213 53 -359 53t-225 -74q-82 -68 -98 -252q161 51 353 51z" />
    <glyph glyph-name="seven" unicode="7" horiz-adv-x="1085" 
d="M49 1251v238h975v-203l-604 -1286h-297l590 1251h-664z" />
    <glyph glyph-name="eight" unicode="8" horiz-adv-x="1280" 
d="M1198 406q0 -301 -214 -367t-416 -66t-347 117q-141 117 -141 333t246 347q-207 135 -207 327q0 191 133 301t379 109q369 0 442 -155q72 -156 72 -244q0 -201 -211 -336q264 -122 264 -366zM636 203q140 0 208 55q72 52 72 150t-82 166t-201 88q-125 -20 -203 -90
t-78 -162t72 -152q72 -55 212 -55zM403 1102q0 -86 56 -135q51 -51 174 -93q121 41 174 93q59 47 59 135q0 178 -232 176t-231 -176z" />
    <glyph glyph-name="nine" unicode="9" horiz-adv-x="1253" 
d="M603 719q122 0 274 43q1 274 -49 392t-202 118t-203 -70q-50 -70 -50 -220t55 -204q53 -59 175 -59zM90 965q0 387 193 460q186 78 323 78q555 0 555 -693t-225 -765q-223 -68 -381 -68t-381 74v219q222 -61 368 -61t228 71t100 257q-150 -49 -344 -49t-317 124
q-119 129 -119 353z" />
    <glyph glyph-name="colon" unicode=":" horiz-adv-x="546" 
d="M133 1190h270v-281h-270v281zM133 555h270v-279h-270v279z" />
    <glyph glyph-name="semicolon" unicode=";" horiz-adv-x="503" 
d="M127 1190h272v-281h-272v281zM129 547h305l-190 -502h-242z" />
    <glyph glyph-name="less" unicode="&#x3c;" horiz-adv-x="1085" 
d="M137 666v180l803 520v-266l-522 -346l522 -344v-269z" />
    <glyph glyph-name="equal" unicode="=" horiz-adv-x="1085" 
d="M98 1065h889v-227h-889v227zM98 676h889v-230h-889v230z" />
    <glyph glyph-name="greater" unicode="&#x3e;" horiz-adv-x="1085" 
d="M145 141v269l523 344l-523 346v266l803 -520v-180z" />
    <glyph glyph-name="question" unicode="?" horiz-adv-x="962" 
d="M268 281h279v-281h-279v281zM398 1309q-126 0 -347 -62v217q233 80 363 80q229 0 352 -98q119 -100 119 -264q0 -313 -219 -502q-131 -104 -131 -188v-121h-250v141q0 111 46 175t134 138q90 74 121 132q30 59 30 153t-46 146t-172 53z" />
    <glyph glyph-name="at" unicode="@" horiz-adv-x="1867" 
d="M362 414q0 -286 144 -434q144 -146 417 -146t519 100v-221q-250 -106 -477 -106q-422 0 -646 207q-219 208 -219 586t243 662t673 284q340 0 546 -207t205 -533q0 -457 -188 -549q-193 -88 -323 -88t-199 88q-125 -88 -263 -88t-221 105q-86 102 -86 258q0 295 127 459
q123 166 344 165q102 0 191 -49l6 31h254q-125 174 -415 174t-462 -205q-170 -207 -170 -493zM1305 197q205 0 204 397q0 207 -96 338l-129 -690q-8 -45 21 -45zM975 723q-209 0 -211 -365q0 -160 96 -159q98 0 164 63l80 430q-63 31 -129 31z" />
    <glyph glyph-name="A" unicode="A" horiz-adv-x="1333" 
d="M924 358h-514l-113 -358h-287l484 1489h348l481 -1489h-287zM485 594h363l-180 573z" />
    <glyph glyph-name="B" unicode="B" horiz-adv-x="1316" 
d="M1208 434q0 -434 -495 -434h-578v1489h555q375 0 428 -158q49 -158 49 -268q0 -190 -118 -289q159 -86 159 -340zM887 1061q0 193 -203 192h-276v-385h276q203 0 203 193zM928 434q0 199 -203 199h-317v-397h317q203 -1 203 198z" />
    <glyph glyph-name="C" unicode="C" horiz-adv-x="1189" 
d="M686 -10q-326 0 -467 203t-141 555q0 756 590 755q221 0 450 -73v-216q-230 52 -414 52t-262 -136t-77 -382q0 -520 337 -521q184 0 416 58v-219q-252 -76 -432 -76z" />
    <glyph glyph-name="D" unicode="D" horiz-adv-x="1378" 
d="M137 0v1489h539q487 0 541 -277q53 -283 53 -444q0 -375 -127 -571q-123 -197 -467 -197h-539zM657 1251h-237v-1013h237q275 0 303 208t28 386t-66 298q-68 121 -265 121z" />
    <glyph glyph-name="E" unicode="E" horiz-adv-x="1230" 
d="M129 1489h1006v-238h-723v-381h698l-92 -237h-606v-395h723v-238h-1006v1489z" />
    <glyph glyph-name="F" unicode="F" horiz-adv-x="1171" 
d="M129 1489h967v-238h-684v-381h639l-93 -237h-546v-633h-283v1489z" />
    <glyph glyph-name="G" unicode="G" horiz-adv-x="1396" 
d="M371 745q0 -521 331 -518q100 0 273 43v342h-363v240h643v-852h-280v47q-178 -57 -299 -57q-594 -4 -594 754t594 759q254 0 485 -73v-226q-221 61 -456 62q-334 0 -334 -521z" />
    <glyph glyph-name="H" unicode="H" horiz-adv-x="1404" 
d="M987 635h-571v-635h-283v1489h283v-617h571v617h283v-1489h-283v635z" />
    <glyph glyph-name="I" unicode="I" horiz-adv-x="495" 
d="M106 1489h283v-1489h-283v1489z" />
    <glyph glyph-name="J" unicode="J" horiz-adv-x="808" 
d="M254 219q90 0 117 28t26 107v1135h283v-1163q0 -367 -283 -344q-287 23 -381 51v213q148 -27 238 -27z" />
    <glyph glyph-name="K" unicode="K" horiz-adv-x="1320" 
d="M113 1489h282v-559l539 559h350l-715 -737l721 -752h-354l-541 573v-573h-282v1489z" />
    <glyph glyph-name="L" unicode="L" horiz-adv-x="1105" 
d="M121 0v1489h282v-1251h676l-92 -238h-866z" />
    <glyph glyph-name="M" unicode="M" horiz-adv-x="1742" 
d="M1610 1489v-1489h-262v1182l-293 -1127h-367l-293 1127v-1182h-262v1489h434l305 -1208l304 1208h434z" />
    <glyph glyph-name="N" unicode="N" horiz-adv-x="1437" 
d="M135 1489h387l508 -1186v1186h273v-1489h-388l-507 1186v-1186h-273v1489z" />
    <glyph glyph-name="O" unicode="O" horiz-adv-x="1406" 
d="M702 227q176 0 248 125q72 131 72 386t-71 391q-71 137 -249 137t-247 -136q-72 -137 -72 -392t72 -386q71 -125 247 -125zM700 -10q-330 0 -467 190q-73 94 -103 234t-30 424q0 285 138 477q141 188 464 188q477 0 539 -291q63 -285 63 -472q1 -383 -133 -560
q-141 -190 -471 -190z" />
    <glyph glyph-name="P" unicode="P" horiz-adv-x="1314" 
d="M424 463v-463h-283v1489h572q258 0 377 -125q122 -123 122 -385t-122 -389t-377 -127h-289zM690 700q240 0 240 274t-240 277h-266v-551h266z" />
    <glyph glyph-name="Q" unicode="Q" horiz-adv-x="1406" 
d="M1303 649q0 -475 -304 -606l254 -315h-335l-209 262h-7q-330 0 -464 185t-136 663q0 478 214 571q214 94 384 94q328 1 466 -189t137 -665zM702 227q176 0 248 125q72 131 72 386t-71 391q-71 137 -249 137t-247 -136q-72 -137 -72 -392t72 -386q71 -125 247 -125z" />
    <glyph glyph-name="R" unicode="R" horiz-adv-x="1337" 
d="M1212 1008q0 -350 -243 -447l313 -561h-317l-287 520h-258v-520h-281v1489h570q385 0 446 -174q57 -184 57 -307zM690 758q119 0 182 59q58 61 58 193t-60 187q-60 54 -180 54h-270v-493h270z" />
    <glyph glyph-name="S" unicode="S" horiz-adv-x="1206" 
d="M561 227q281 0 281 183q0 80 -19 110q-16 31 -57 53q-37 25 -184 60q-274 68 -389 168t-115 295q0 408 526 407q227 0 445 -69v-222q-209 53 -342 54q-211 0 -278 -35t-67 -109q0 -120 58 -158t207 -77q283 -70 389 -162q108 -88 108 -297t-169 -347t-445 -94t-404 79
v219q293 -58 455 -58z" />
    <glyph glyph-name="T" unicode="T" horiz-adv-x="1325" 
d="M49 1489h1245l-92 -238h-414v-1251h-282v1251h-457v238z" />
    <glyph glyph-name="U" unicode="U" horiz-adv-x="1384" 
d="M416 487q0 -256 272 -256q131 1 204 59t73 197v1002h286v-1004q0 -387 -215 -440q-213 -55 -419 -55t-345 116t-139 379v1004h283v-1002z" />
    <glyph glyph-name="V" unicode="V" horiz-adv-x="1349" 
d="M1331 1489l-471 -1489h-368l-474 1489h287l371 -1210l368 1210h287z" />
    <glyph glyph-name="W" unicode="W" horiz-adv-x="1908" 
d="M1135 1489l233 -1219l240 1219h280l-325 -1489h-381l-228 1133l-229 -1133h-381l-324 1489h281l238 -1219l235 1219h361z" />
    <glyph glyph-name="X" unicode="X" horiz-adv-x="1310" 
d="M494 743l-480 746h326l315 -494l320 494h321l-479 -744l479 -745h-323l-318 492l-317 -492h-324z" />
    <glyph glyph-name="Y" unicode="Y" horiz-adv-x="1314" 
d="M801 0h-285v651l-522 838h311l352 -576l353 576h311l-520 -840v-649z" />
    <glyph glyph-name="Z" unicode="Z" horiz-adv-x="1220" 
d="M102 1489h1010v-211l-684 -1040h721l-90 -238h-957v215l672 1036h-672v238z" />
    <glyph glyph-name="bracketleft" unicode="[" horiz-adv-x="694" 
d="M625 1380h-271v-1314h271v-234h-533v1782h533v-234z" />
    <glyph glyph-name="backslash" unicode="\" horiz-adv-x="1908" 
d="M1896 891v-217h-196l-152 -674h-358l-133 674h-205l-133 -674h-361l-151 674h-193v217h146l-133 598h262l123 -598h243l115 598h369l112 -598h244l125 598h262l-135 -598h149zM1368 279l82 395h-158zM539 279l75 395h-157zM895 891h119l-60 299z" />
    <glyph glyph-name="bracketright" unicode="]" horiz-adv-x="694" 
d="M72 1614h532v-1782h-532v234h270v1314h-270v234z" />
    <glyph glyph-name="asciicircum" unicode="^" horiz-adv-x="1161" 
d="M580 1270l-238 -436h-281l388 727h249l400 -727h-281z" />
    <glyph glyph-name="underscore" unicode="_" horiz-adv-x="1120" 
d="M1038 -102v-222h-958v222h958z" />
    <glyph glyph-name="grave" unicode="`" horiz-adv-x="528" 
d="M453 1110h-234l-141 481h299z" />
    <glyph glyph-name="a" unicode="a" horiz-adv-x="1144" 
d="M439 -14q-165 0 -259 88t-94 235q0 283 227 350q166 49 432 56v30q0 94 -110 107q-143 8 -215 8t-246 -37v217q178 47 332 47q514 0 514 -344v-743h-266v57q-150 -71 -315 -71zM510 203q109 0 235 71v230q-293 -6 -335 -56t-43 -108q0 -137 143 -137z" />
    <glyph glyph-name="b" unicode="b" horiz-adv-x="1175" 
d="M639 1085q453 0 453 -555q0 -403 -159 -475q-319 -144 -527 2v-57h-275v1458l275 82v-491q131 36 233 36zM809 530q0 326 -191 326q-90 0 -212 -37v-545q106 -63 216 -63t148 81q39 81 39 238z" />
    <glyph glyph-name="c" unicode="c" horiz-adv-x="976" 
d="M78 538q0 554 467 549q201 0 354 -63v-215q-160 47 -265 47t-157 -20q-47 -25 -82 -80t-35 -176q0 -211 50 -288t190 -77q141 0 315 49v-215q-174 -66 -374 -65q-463 0 -463 554z" />
    <glyph glyph-name="d" unicode="d" horiz-adv-x="1175" 
d="M88 530q0 555 451 555q88 0 235 -36v409l273 82v-1540h-273v57q-119 -74 -248 -73q-236 0 -338 139q-100 139 -100 407zM561 856q-190 0 -190 -326q-1 -238 65 -278t155 -41q89 0 183 63v543q-131 39 -213 39z" />
    <glyph glyph-name="e" unicode="e" horiz-adv-x="1144" 
d="M1057 559q0 -84 -8 -151h-687q8 -100 60 -148t207 -47q156 0 389 66v-213q-232 -80 -406 -80t-266 30q-94 35 -178 131q-84 95 -84 387t121 424q123 129 373 129q250 1 364 -123t115 -405zM579 862q-118 0 -163 -57t-56 -176h428q-6 121 -51 174q-40 59 -158 59z" />
    <glyph glyph-name="f" unicode="f" horiz-adv-x="860" 
d="M615 1321q-91 0 -107 -29t-16 -92v-102h303v-234h-303v-864h-275v864h-192v234h192v98q0 229 128 297q128 69 270 51t214 -47v-215q-123 39 -214 39z" />
    <glyph glyph-name="g" unicode="g" horiz-adv-x="1169" 
d="M536 248q98 0 226 39v518q-104 51 -216 51t-145 -68q-37 -68 -37 -222t37 -236t135 -82zM1036 -51q0 -346 -495 -346q-139 0 -342 49v213q174 -37 304 -37t197 29q61 31 62 127v79q-98 -39 -230 -39t-216 38q-83 38 -140 110q-51 76 -74 172q-20 112 -20 300t101 314
t339 127q117 0 240 -53v43h274v-1126z" />
    <glyph glyph-name="h" unicode="h" horiz-adv-x="1200" 
d="M692 1085q379 0 379 -346v-739h-274v739q0 119 -131 119q-68 0 -260 -72v-786h-275v1458l275 82v-526q165 71 286 71z" />
    <glyph glyph-name="i" unicode="i" horiz-adv-x="491" 
d="M109 1073h274v-1073h-274v1073zM109 1489h274v-305h-274v305z" />
    <glyph glyph-name="j" unicode="j" horiz-adv-x="471" 
d="M98 -78v1151h275v-1110q0 -238 -119 -299q-124 -59 -230 -59t-229 33v215q219 -57 262 -23q41 35 41 92zM98 1489h275v-305h-275v305z" />
    <glyph glyph-name="k" unicode="k" horiz-adv-x="1081" 
d="M104 0v1458l275 82v-835l377 368h348l-539 -524l537 -549h-340l-383 387v-387h-275z" />
    <glyph glyph-name="l" unicode="l" horiz-adv-x="491" 
d="M383 0h-274v1458l274 82v-1540z" />
    <glyph glyph-name="m" unicode="m" horiz-adv-x="1892" 
d="M674 860q-96 0 -268 -63v-797h-273v1014l273 82v-76q176 68 340 68t251 -101h2q233 100 373 100q387 0 387 -346v-741h-274v741q0 119 -133 119q-100 0 -273 -76q2 -14 2 -43v-741h-272v741q0 119 -135 119z" />
    <glyph glyph-name="n" unicode="n" 
d="M805 743q0 117 -110 117t-298 -76v-784h-276v1012l276 82v-86q180 80 308 79q211 0 291 -94t81 -250v-743h-272v743z" />
    <glyph glyph-name="o" unicode="o" horiz-adv-x="1165" 
d="M1077 537q-1 -551 -495 -551t-498 551q0 551 498 550q495 1 495 -550zM795 528q0 334 -213 334q-111 0 -164 -76q-51 -78 -51 -258t51 -245q51 -72 161 -72t162 72q54 69 54 245z" />
    <glyph glyph-name="p" unicode="p" horiz-adv-x="1173" 
d="M1092 397q0 -412 -453 -411q-115 0 -233 37v-342l-275 -82v1415l275 82v-64q117 53 237 53q233 2 344 -135q105 -141 105 -553zM616 211q193 0 193 244t-39 327q-43 78 -146 78t-218 -51v-567q106 -31 210 -31z" />
    <glyph glyph-name="q" unicode="q" horiz-adv-x="1173" 
d="M535 -14q-453 0 -453 551t438 550q123 0 248 -55v43h272v-1394l-272 -82v424q-133 -37 -233 -37zM569 211q113 0 199 29v569q-104 51 -190 51q-134 0 -174 -78t-40 -324t193 -247h12z" />
    <glyph glyph-name="r" unicode="r" horiz-adv-x="862" 
d="M674 842q-123 0 -283 -41v-801h-274v1014l274 82v-66q141 51 249 51t169 -6v-237q-61 4 -76 4h-59z" />
    <glyph glyph-name="s" unicode="s" horiz-adv-x="1056" 
d="M517 862q-163 0 -163 -78q0 -48 41 -74t207 -57q369 -70 371 -340q0 -176 -123 -252q-122 -75 -358 -75t-400 69v213q205 -57 356 -57q152 0 200 18t48 62q0 70 -39 92t-207 56t-270 112t-102 194q0 193 116 268t293 75t431 -60v-217q-238 51 -401 51z" />
    <glyph glyph-name="t" unicode="t" horiz-adv-x="847" 
d="M594 199q70 0 231 37v-216q-391 -126 -498 14t-108 290v526h-188v225h188v271l270 81v-352h302v-225h-302v-531q-1 -63 17 -91t88 -29z" />
    <glyph glyph-name="u" unicode="u" 
d="M401 313q0 -100 113 -100t279 55v807h272v-1075h-272v55q-184 -70 -283 -69q-383 0 -383 342v686l274 82v-783z" />
    <glyph glyph-name="v" unicode="v" horiz-adv-x="1073" 
d="M274 1075l265 -799l264 799h264l-369 -1075h-323l-369 1075h268z" />
    <glyph glyph-name="w" unicode="w" horiz-adv-x="1679" 
d="M291 1075l209 -803l166 803h352l168 -803l200 803h271l-299 -1075h-342l-174 801l-176 -801h-342l-304 1075h271z" />
    <glyph glyph-name="x" unicode="x" horiz-adv-x="1089" 
d="M545 748l239 327h310l-394 -538l394 -537h-310l-239 326l-238 -326h-309l393 537l-393 538h309z" />
    <glyph glyph-name="y" unicode="y" 
d="M129 365v649l274 82v-746q0 -96 127 -96q70 0 265 53v768h272v-1130q0 -170 -122 -257t-312 -87t-402 47v217q143 -39 289 -39t210 28q65 28 65 128v108q-377 -135 -523 -18q-143 117 -143 293z" />
    <glyph glyph-name="z" unicode="z" horiz-adv-x="1054" 
d="M102 1075h859v-192l-527 -654h563l-88 -229h-811v209l518 637h-514v229z" />
    <glyph glyph-name="braceleft" unicode="{" horiz-adv-x="860" 
d="M545 -166q-258 0 -258 258v389q0 72 -47 101t-174 34v220q127 8 174 38t47 101v381q0 258 258 258h237v-221h-204q-33 0 -33 -35v-391q0 -170 -121 -242q121 -72 121 -233v-402q0 -37 33 -37h204v-219h-237z" />
    <glyph glyph-name="bar" unicode="|" horiz-adv-x="612" 
d="M170 1614h272v-1782h-272v1782z" />
    <glyph glyph-name="braceright" unicode="}" horiz-adv-x="860" 
d="M332 1614q258 0 258 -258v-381q0 -70 47 -100t174 -39v-220q-127 -6 -174 -34t-47 -101v-389q0 -258 -258 -258h-238v219h205q33 0 33 37v402q0 162 121 233q-121 72 -121 242v391q0 35 -33 35h-205v221h238z" />
    <glyph glyph-name="asciitilde" unicode="~" horiz-adv-x="946" 
d="M324 713q-80 0 -146 -115l-149 107q82 240 295 239q90 0 186 -72t137 -71q43 0 105 121l155 -113q-90 -238 -289 -238q-96 4 -176 73t-118 69z" />
    <glyph glyph-name="uni0400" unicode="&#x400;" horiz-adv-x="1230" 
d="M129 1489h1006v-238h-723v-381h698l-92 -237h-606v-395h723v-238h-1006v1489zM606 1581l-215 260h242l127 -260h-154z" />
    <glyph glyph-name="uni0401" unicode="&#x401;" horiz-adv-x="1230" 
d="M129 1489h1006v-238h-723v-381h698l-92 -237h-606v-395h723v-238h-1006v1489zM770 1808h213v-227h-213v227zM352 1808h213v-227h-213v227z" />
    <glyph glyph-name="uni0402" unicode="&#x402;" horiz-adv-x="1617" 
d="M1030 862q-82 0 -242 -37v-825h-282v1251h-457v238h1245l-92 -238h-414v-209q164 47 297 48q481 0 481 -553t-519 -553v227q190 20 208 137q47 308 -26 430q-31 45 -74 62q-43 22 -125 22z" />
    <glyph glyph-name="uni0403" unicode="&#x403;" horiz-adv-x="1044" 
d="M406 1251v-1251h-283v1489h881l-93 -238h-505zM412 1581l127 260h241l-215 -260h-153z" />
    <glyph glyph-name="uni0404" unicode="&#x404;" horiz-adv-x="1189" 
d="M686 -10q-326 0 -467 203t-141 555q0 756 590 755q221 0 450 -73v-216q-228 52 -412 52t-254 -120t-83 -296h518l-80 -209h-438q27 -414 333 -414q184 0 416 58v-219q-252 -76 -432 -76z" />
    <glyph glyph-name="uni0405" unicode="&#x405;" horiz-adv-x="1206" 
d="M561 227q281 0 281 183q0 80 -19 110q-16 31 -57 53q-37 25 -184 60q-274 68 -389 168t-115 295q0 408 526 407q227 0 445 -69v-222q-209 53 -342 54q-211 0 -278 -35t-67 -109q0 -120 58 -158t207 -77q283 -70 389 -162q108 -88 108 -297t-169 -347t-445 -94t-404 79
v219q293 -58 455 -58z" />
    <glyph glyph-name="uni0406" unicode="&#x406;" horiz-adv-x="495" 
d="M106 1489h283v-1489h-283v1489z" />
    <glyph glyph-name="uni0407" unicode="&#x407;" horiz-adv-x="516" 
d="M125 1489h283v-1489h-283v1489zM-10 1808h219v-227h-219v227zM319 1808h220v-227h-220v227z" />
    <glyph glyph-name="uni0408" unicode="&#x408;" horiz-adv-x="808" 
d="M254 219q90 0 117 28t26 107v1135h283v-1163q0 -367 -283 -344q-287 23 -381 51v213q148 -27 238 -27z" />
    <glyph glyph-name="uni0409" unicode="&#x409;" horiz-adv-x="2088" 
d="M406 354v1135h923v-619h180q379 0 445 -157q66 -162 65 -291q0 -250 -121 -336t-389 -86h-465v1255h-356v-929q0 -367 -282 -344q-287 23 -381 51v213q151 -27 239 -27q88 -1 115 27t27 108zM1329 223h174q129 0 176 39q53 39 54 135q0 158 -54 197q-51 41 -174 41h-176
v-412z" />
    <glyph glyph-name="uni040A" unicode="&#x40a;" horiz-adv-x="1822" 
d="M1030 870h182q379 0 445 -157q66 -162 65 -291q0 -250 -122 -336t-388 -86h-464v635h-351v-635h-282v1489h282v-617h351v617h282v-619zM1030 223h176q125 0 178 39q51 41 52 135q0 156 -52 197q-57 41 -176 41h-178v-412z" />
    <glyph glyph-name="uni040B" unicode="&#x40b;" horiz-adv-x="1597" 
d="M1229 641q0 117 -114 117t-327 -88v-670h-282v1251h-457v238h1245l-92 -238h-414v-362q203 96 332 96q217 0 299 -94t82 -250v-641h-272v641z" />
    <glyph glyph-name="uni040C" unicode="&#x40c;" horiz-adv-x="1294" 
d="M113 1489h282v-553l549 553h361l-725 -737l731 -752h-365l-551 565v-565h-282v1489zM494 1581l127 260h241l-215 -260h-153z" />
    <glyph glyph-name="uni040D" unicode="&#x40d;" horiz-adv-x="1437" 
d="M1303 0h-273v1135l-508 -1135h-387v1489h273v-1135l507 1135h388v-1489zM688 1581l-215 260h242l127 -260h-154z" />
    <glyph glyph-name="uni040E" unicode="&#x40e;" 
d="M514 438q-385 0 -385 340v649l274 82v-745q0 -96 127 -96q70 0 265 53v768h272v-1155q0 -174 -170 -289q-166 -123 -666 -8v217q143 -39 289 -39t210 28q65 28 65 128v133q-187 -66 -281 -66zM596 1718q104 0 125 94h153q-2 -94 -78 -162t-200 -69q-123 0 -196 70
t-72 161h151q13 -94 117 -94z" />
    <glyph glyph-name="uni040F" unicode="&#x40f;" horiz-adv-x="1384" 
d="M133 1489h283v-1251h571v1251h283v-1489h-443v-399h-282v399h-412v1489z" />
    <glyph glyph-name="uni0410" unicode="&#x410;" horiz-adv-x="1333" 
d="M924 358h-514l-113 -358h-287l484 1489h348l481 -1489h-287zM485 594h363l-180 573z" />
    <glyph glyph-name="uni0411" unicode="&#x411;" 
d="M997 1489v-238h-569v-381h180q379 0 445 -157q66 -162 65 -291q0 -250 -121 -336t-389 -86h-465v1491l285 -2h569zM428 223h174q125 0 177 40t52 134q0 158 -52 198t-175 40h-176v-412z" />
    <glyph glyph-name="uni0412" unicode="&#x412;" horiz-adv-x="1316" 
d="M1208 434q0 -434 -495 -434h-578v1489h555q375 0 428 -158q49 -158 49 -268q0 -190 -118 -289q159 -86 159 -340zM887 1061q0 193 -203 192h-276v-385h276q203 0 203 193zM928 434q0 199 -203 199h-317v-397h317q203 -1 203 198z" />
    <glyph glyph-name="uni0413" unicode="&#x413;" horiz-adv-x="1044" 
d="M406 1251v-1251h-283v1489h881l-93 -238h-505z" />
    <glyph glyph-name="uni0414" unicode="&#x414;" horiz-adv-x="1382" 
d="M1206 1489v-1258h123v-630h-287v399h-731v-399h-286v630h129q100 205 139 389t39 457v412h874zM618 1020q0 -463 -159 -789h467v1026h-308v-237z" />
    <glyph glyph-name="uni0415" unicode="&#x415;" horiz-adv-x="1230" 
d="M129 1489h1006v-238h-723v-381h698l-92 -237h-606v-395h723v-238h-1006v1489z" />
    <glyph glyph-name="uni0416" unicode="&#x416;" horiz-adv-x="1757" 
d="M733 1489h287v-600l387 600h326l-482 -664q96 0 167 -58t100 -144l213 -623h-285l-180 547q-37 111 -123 110h-123v-657h-287v657h-108q-96 0 -138 -114l-180 -543h-284l217 618q70 197 262 205l-479 666h325l385 -602v602z" />
    <glyph glyph-name="uni0417" unicode="&#x417;" horiz-adv-x="1112" 
d="M518 1503q459 0 459 -389q0 -211 -189 -313q242 -86 242 -375q0 -446 -510 -446q-217 0 -469 75v224q287 -59 431 -59t206 50q55 55 57 140q4 152 -88 198t-262 45h-110v238h110q299 0 299 219q0 74 -43 115q-47 37 -155 43q-176 0 -398 -64v219q201 80 420 80z" />
    <glyph glyph-name="uni0418" unicode="&#x418;" horiz-adv-x="1437" 
d="M1303 0h-273v1135l-508 -1135h-387v1489h273v-1135l507 1135h388v-1489z" />
    <glyph glyph-name="uni0419" unicode="&#x419;" horiz-adv-x="1437" 
d="M1303 0h-273v1135l-508 -1135h-387v1489h273v-1135l507 1135h388v-1489zM440 1812h152q14 -94 118 -94t124 94h153q-2 -94 -80 -161q-77 -70 -199 -70t-195 70t-73 161z" />
    <glyph glyph-name="uni041A" unicode="&#x41a;" horiz-adv-x="1294" 
d="M113 1489h282v-553l549 553h361l-725 -737l731 -752h-365l-551 565v-565h-282v1489z" />
    <glyph glyph-name="uni041B" unicode="&#x41b;" horiz-adv-x="1495" 
d="M406 354v1135h925v-1489h-284v1255h-359v-929q0 -367 -282 -344q-287 23 -381 51v213q151 -27 239 -27q88 -1 115 27t27 108z" />
    <glyph glyph-name="uni041C" unicode="&#x41c;" horiz-adv-x="1742" 
d="M1610 1489v-1489h-271v1110l-305 -1055h-325l-306 1055l11 -1110h-271l-10 1489h404l335 -1127l334 1127h404z" />
    <glyph glyph-name="uni041D" unicode="&#x41d;" horiz-adv-x="1404" 
d="M987 635h-571v-635h-283v1489h283v-617h571v617h283v-1489h-283v635z" />
    <glyph glyph-name="uni041E" unicode="&#x41e;" horiz-adv-x="1406" 
d="M702 227q176 0 248 125q72 131 72 386t-71 391q-71 137 -249 137t-247 -136q-72 -137 -72 -392t72 -386q71 -125 247 -125zM700 -10q-330 0 -467 190q-73 94 -103 234t-30 424q0 285 138 477q141 188 464 188q477 0 539 -291q63 -285 63 -472q1 -383 -133 -560
q-141 -190 -471 -190z" />
    <glyph glyph-name="uni041F" unicode="&#x41f;" horiz-adv-x="1384" 
d="M133 1489h1116v-1489h-282v1251h-551v-1251h-283v1489z" />
    <glyph glyph-name="uni0420" unicode="&#x420;" horiz-adv-x="1314" 
d="M424 463v-463h-283v1489h572q258 0 377 -125q122 -123 122 -385t-122 -389t-377 -127h-289zM690 700q240 0 240 274t-240 277h-266v-551h266z" />
    <glyph glyph-name="uni0421" unicode="&#x421;" horiz-adv-x="1189" 
d="M686 -10q-326 0 -467 203t-141 555q0 756 590 755q221 0 450 -73v-216q-230 52 -414 52t-262 -136t-77 -382q0 -520 337 -521q184 0 416 58v-219q-252 -76 -432 -76z" />
    <glyph glyph-name="uni0422" unicode="&#x422;" horiz-adv-x="1325" 
d="M49 1489h1245l-92 -238h-414v-1251h-282v1251h-457v238z" />
    <glyph glyph-name="uni0423" unicode="&#x423;" 
d="M514 438q-385 0 -385 340v649l274 82v-745q0 -96 127 -96q70 0 265 53v768h272v-1155q0 -174 -170 -289q-166 -123 -666 -8v217q143 -39 289 -39t210 28q65 28 65 128v133q-187 -66 -281 -66z" />
    <glyph glyph-name="uni0424" unicode="&#x424;" horiz-adv-x="1406" 
d="M102 735q0 283 152 434q113 113 311 142v178h262v-176q203 -27 341 -159t139 -419q0 -498 -480 -555v-180h-262v182q-463 57 -463 553zM991 551q23 88 24 227t-61 205t-127 90v-659q145 41 164 137zM395 741q0 -258 170 -319v645q-170 -68 -170 -326z" />
    <glyph glyph-name="uni0425" unicode="&#x425;" horiz-adv-x="1310" 
d="M494 743l-480 746h326l315 -494l320 494h321l-479 -744l479 -745h-323l-318 492l-317 -492h-324z" />
    <glyph glyph-name="uni0426" unicode="&#x426;" horiz-adv-x="1423" 
d="M133 1489h283v-1251h551v1251h282v-1385h92v-436h-282v332h-926v1489z" />
    <glyph glyph-name="uni0427" unicode="&#x427;" 
d="M522 397q-393 0 -393 340v690l274 82v-786q0 -96 112 -96t300 61v801h272v-1489h-272v471q-189 -74 -293 -74z" />
    <glyph glyph-name="uni0428" unicode="&#x428;" horiz-adv-x="1857" 
d="M154 1489h282v-1251h359v1251h278v-1251h350v1251h283v-1489h-1552v1489z" />
    <glyph glyph-name="uni0429" unicode="&#x429;" horiz-adv-x="1884" 
d="M154 1489h282v-1251h359v1251h278v-1251h350v1251h283v-1385h96v-436h-282v332h-1366v1489z" />
    <glyph glyph-name="uni042A" unicode="&#x42a;" horiz-adv-x="1386" 
d="M608 1489v-619h180q379 0 445 -157q66 -162 65 -291q0 -250 -120 -336t-390 -86h-464v1255h-328v234h612zM608 223h174q125 0 177 40t53 134q0 158 -54 197q-51 41 -174 41h-176v-412z" />
    <glyph glyph-name="uni042B" unicode="&#x42b;" horiz-adv-x="1576" 
d="M418 1489v-619h162q378 0 444 -160t66 -288q0 -250 -121 -336t-389 -86h-447v1489h285zM418 223h155q125 0 177 40t53 134q0 158 -52 198t-176 40h-157v-412zM1167 1489h283v-1489h-283v1489z" />
    <glyph glyph-name="uni042C" unicode="&#x42c;" 
d="M428 1489v-619h162q378 0 444 -160t66 -288q0 -250 -122 -336t-388 -86h-447v1489h285zM428 223h156q121 0 178 39q51 45 51 135q0 156 -51 197q-57 41 -176 41h-158v-412z" />
    <glyph glyph-name="uni042D" unicode="&#x42d;" horiz-adv-x="1189" 
d="M447 227q137 -1 247 63t133 351h-438l-80 209h518q-12 176 -83 296q-72 120 -254 120t-412 -52v216q221 74 450 73q590 0 590 -755q0 -545 -215 -650q-211 -108 -392 -108t-433 76v219q232 -58 369 -58z" />
    <glyph glyph-name="uni042E" unicode="&#x42e;" horiz-adv-x="1896" 
d="M1192 -10q-166 0 -371 84q-203 86 -227 561h-178v-635h-283v1489h283v-617h180q28 453 226 542t368 89q333 0 473 -196q133 -174 133 -561q0 -388 -133 -566q-141 -190 -471 -190zM1194 227q176 0 248 125q72 131 72 386t-72 391q-70 137 -248 137t-249 -136t-71 -392
q0 -255 72 -386q72 -125 248 -125z" />
    <glyph glyph-name="uni042F" unicode="&#x42f;" horiz-adv-x="1337" 
d="M623 1489h569v-1489h-281v520h-258l-286 -520h-318l313 561q-244 90 -243 459q0 369 188 418q184 51 316 51zM911 758v493h-270q-121 0 -180 -54t-59 -186t57 -194q63 -59 182 -59h270z" />
    <glyph glyph-name="uni0430" unicode="&#x430;" horiz-adv-x="1144" 
d="M442 -14q-168 0 -262 88t-94 235q0 283 227 350q166 49 432 56v30q0 94 -110 107q-143 8 -215 8t-246 -37v217q178 47 332 47q514 0 514 -344v-743h-266v68q-144 -82 -312 -82zM510 203q109 0 235 71v230q-293 -6 -335 -56t-43 -108q0 -137 143 -137z" />
    <glyph glyph-name="uni0431" unicode="&#x431;" horiz-adv-x="1157" 
d="M584 1087q496 -1 494 -551t-498 -550q-494 0 -494 542v37q10 342 43 455t78 197q92 169 298 249t486 105v-238q-231 -12 -381 -59q-160 -43 -239 -230q88 43 213 43zM797 528q0 334 -213 334q-111 0 -164 -76q-51 -78 -51 -258t51 -245q51 -72 161 -72t160 72
q56 67 56 245z" />
    <glyph glyph-name="uni0432" unicode="&#x432;" horiz-adv-x="1095" 
d="M647 1075q195 1 275 -69t79 -229q0 -159 -131 -222q80 -35 121 -84t41 -152q0 -183 -94 -251t-279 -68h-516v1075h504zM602 651q131 0 131 101q0 68 -37 88q-35 23 -94 22h-196v-211h196zM631 219q131 0 131 117t-131 117h-225v-234h225z" />
    <glyph glyph-name="uni0433" unicode="&#x433;" horiz-adv-x="860" 
d="M406 838v-838h-283v1075h721l-92 -237h-346z" />
    <glyph glyph-name="uni0434" unicode="&#x434;" horiz-adv-x="1187" 
d="M254 766v309h747v-862h101v-545h-271v332h-552v-332h-263v545h103q135 217 135 553zM508 719q0 -272 -105 -504h326v639h-221v-135z" />
    <glyph glyph-name="uni0435" unicode="&#x435;" horiz-adv-x="1144" 
d="M1057 559q0 -84 -8 -151h-687q8 -100 60 -148t207 -47q156 0 389 66v-213q-232 -80 -406 -80t-266 30q-94 35 -178 131q-84 95 -84 387t121 424q123 129 373 129q250 1 364 -123t115 -405zM579 862q-118 0 -163 -57t-56 -176h428q-6 121 -51 174q-40 59 -158 59z" />
    <glyph glyph-name="uni0436" unicode="&#x436;" horiz-adv-x="1423" 
d="M575 1075h269v-362l260 362h313l-399 -489q174 -8 242 -193l147 -393h-279l-114 336q-25 72 -60 91t-77 19h-33v-446h-269v446h-30q-43 0 -77 -19t-58 -91l-117 -336h-277l146 393q63 182 239 193l-399 489h311l262 -360v360z" />
    <glyph glyph-name="uni0437" unicode="&#x437;" horiz-adv-x="860" 
d="M762 784q0 -133 -131 -209q170 -74 170 -264q0 -344 -385 -334q-178 2 -357 111v211q205 -98 314 -102q174 -6 174 114q0 133 -219 133h-109v213h109q182 0 182 125q0 78 -111 78q-158 -6 -309 -115v211q137 113 316 119q356 12 356 -291z" />
    <glyph glyph-name="uni0438" unicode="&#x438;" horiz-adv-x="1214" 
d="M414 1075v-674l340 674h315v-1075h-272v680l-344 -680h-314v1075h275z" />
    <glyph glyph-name="uni0439" unicode="&#x439;" horiz-adv-x="1214" 
d="M414 1075v-674l340 674h315v-1075h-272v680l-344 -680h-314v1075h275zM315 1399h152q13 -94 117 -94t125 94h153q-2 -94 -79 -163t-199 -69t-196 70q-73 70 -73 162z" />
    <glyph glyph-name="uni043A" unicode="&#x43a;" horiz-adv-x="1126" 
d="M147 0v1075h273v-332l334 332h352l-545 -526l547 -549h-352l-336 344v-344h-273z" />
    <glyph glyph-name="uni043B" unicode="&#x43b;" horiz-adv-x="1110" 
d="M227 -12q-109 0 -225 30v150q131 -33 174 -10t43 80v837h782v-1075h-268v856h-258v-618q0 -250 -248 -250z" />
    <glyph glyph-name="uni043C" unicode="&#x43c;" horiz-adv-x="1290" 
d="M1178 1075v-1075h-252v674l-142 -637h-284l-138 633v-670h-253v1075h378l156 -708l156 708h379z" />
    <glyph glyph-name="uni043D" unicode="&#x43d;" horiz-adv-x="1193" 
d="M797 438h-398v-438h-282v1075h282v-399h398v399h282v-1075h-282v438z" />
    <glyph glyph-name="uni043E" unicode="&#x43e;" horiz-adv-x="1165" 
d="M1077 537q-1 -551 -495 -551t-498 551q0 551 498 550q495 1 495 -550zM795 528q0 334 -213 334q-111 0 -164 -76q-51 -78 -51 -258t51 -245q51 -72 161 -72t162 72q54 69 54 245z" />
    <glyph glyph-name="uni043F" unicode="&#x43f;" horiz-adv-x="1185" 
d="M133 1075h918v-1075h-283v838h-352v-838h-283v1075z" />
    <glyph glyph-name="uni0440" unicode="&#x440;" horiz-adv-x="1173" 
d="M1092 397q0 -412 -453 -411q-115 0 -233 37v-342l-275 -82v1415l275 82v-66q111 55 237 55q238 2 344 -135q105 -141 105 -553zM616 211q193 0 193 244t-39 327q-43 78 -146 78t-218 -51v-567q106 -31 210 -31z" />
    <glyph glyph-name="uni0441" unicode="&#x441;" horiz-adv-x="976" 
d="M78 538q0 554 467 549q201 0 354 -63v-215q-160 47 -265 47t-157 -20q-47 -25 -82 -80t-35 -176q0 -211 50 -288t190 -77q141 0 315 49v-215q-174 -66 -374 -65q-463 0 -463 554z" />
    <glyph glyph-name="uni0442" unicode="&#x442;" horiz-adv-x="901" 
d="M25 1077h895l-93 -237h-237v-840h-283v840h-282v237z" />
    <glyph glyph-name="uni0443" unicode="&#x443;" 
d="M129 365v649l274 82v-746q0 -96 127 -96q70 0 265 53v768h272v-1128q0 -168 -123 -256t-312 -88t-401 47v217q143 -39 289 -39t210 28q65 28 65 128v106q-377 -135 -523 -18q-143 117 -143 293z" />
    <glyph glyph-name="uni0444" unicode="&#x444;" horiz-adv-x="1884" 
d="M1331 1087q253 0 355 -139t102 -556t-453 -406q-129 2 -264 75v-460h-272v460q-135 -73 -262 -75t-218 39q-171 88 -215 297q-22 110 -22 298t102 328t340 139q158 0 275 -57v430l272 82v-512q117 57 260 57zM1313 211q192 0 192 244t-39 327q-42 78 -166 78t-229 -51
v-539q115 -59 242 -59zM365 459q0 -248 192 -248q127 0 242 59v539q-103 51 -203 51t-137 -24q-41 -23 -66 -78q-28 -51 -28 -299z" />
    <glyph glyph-name="uni0445" unicode="&#x445;" horiz-adv-x="1089" 
d="M545 748l239 327h310l-394 -538l394 -537h-310l-239 326l-238 -326h-309l393 537l-393 538h309z" />
    <glyph glyph-name="uni0446" unicode="&#x446;" horiz-adv-x="1228" 
d="M141 1075h283v-837h336v837h282v-971h97v-436h-283v332h-715v1075z" />
    <glyph glyph-name="uni0447" unicode="&#x447;" horiz-adv-x="1208" 
d="M522 276q-393 0 -393 340v396l274 82v-492q0 -96 112 -96t300 61v506h272v-1073h-272v350q-189 -74 -293 -74z" />
    <glyph glyph-name="uni0448" unicode="&#x448;" horiz-adv-x="1617" 
d="M152 1073h280v-837h240v837h274v-837h240v837h280v-1073h-1314v1073z" />
    <glyph glyph-name="uni0449" unicode="&#x449;" horiz-adv-x="1658" 
d="M152 1073h280v-837h240v837h274v-837h240v837h280v-969h101v-436h-283v332h-1132v1073z" />
    <glyph glyph-name="uni044A" unicode="&#x44a;" horiz-adv-x="1280" 
d="M573 1075v-411h203q188 0 268 -50q74 -49 111 -114q33 -72 33 -222t-108 -214t-304 -64h-475v848h-305v227h577zM573 215h197q78 0 109 23q35 18 35 84t-34 93q-34 28 -108 27h-199v-227z" />
    <glyph glyph-name="uni044B" unicode="&#x44b;" horiz-adv-x="1495" 
d="M401 1075v-411h193q193 0 266 -50q80 -49 111 -114q35 -63 35 -217q0 -155 -108 -219t-304 -64h-465v1075h272zM401 215h187q78 0 108 23q35 18 35 84t-34 93q-34 28 -107 27h-189v-227zM1090 1073h282v-1073h-282v1073z" />
    <glyph glyph-name="uni044C" unicode="&#x44c;" horiz-adv-x="1095" 
d="M412 1075v-411h192q188 0 268 -50q74 -49 111 -114q33 -72 33 -222t-108 -214t-304 -64h-465v1075h273zM412 215h186q78 0 109 23q35 18 35 84t-34 93q-34 28 -108 27h-188v-227z" />
    <glyph glyph-name="uni044D" unicode="&#x44d;" horiz-adv-x="976" 
d="M412 1087q276 0 390 -144t113 -404q0 -555 -462 -555q-201 0 -375 65v215q176 -49 284 -49t176 31q69 31 85 151l4 29h-322l-80 209h404q-14 153 -87 187q-72 34 -178 34t-270 -47v215q154 63 318 63z" />
    <glyph glyph-name="uni044E" unicode="&#x44e;" horiz-adv-x="1617" 
d="M1196 1087q315 -1 315 -551t-495 -550q-379 0 -471 319q-10 39 -23 117h-112v-422h-283v1075h283v-416h120q51 264 201 346t465 82zM1229 528q0 334 -213 334q-111 0 -164 -76q-51 -78 -51 -258t51 -245q51 -72 161 -72q110 1 163 71t53 246z" />
    <glyph glyph-name="uni044F" unicode="&#x44f;" horiz-adv-x="1024" 
d="M80 686q0 225 93 306t286 81h434v-1073h-260v344h-129l-189 -344h-290l215 387q-160 74 -160 299zM633 561v295h-158q-65 0 -97 -31t-32 -108q0 -156 129 -156h158z" />
    <glyph glyph-name="uni0450" unicode="&#x450;" horiz-adv-x="1144" 
d="M1057 559q0 -84 -8 -151h-687q8 -100 60 -148t207 -47q156 0 389 66v-213q-232 -80 -406 -80t-266 30q-94 35 -178 131q-84 95 -84 387t121 424q123 129 373 129q250 1 364 -123t115 -405zM579 862q-118 0 -163 -57t-56 -176h428q-6 121 -51 174q-40 59 -158 59z
M545 1167l-215 260h241l127 -260h-153z" />
    <glyph glyph-name="uni0451" unicode="&#x451;" horiz-adv-x="1144" 
d="M1057 559q0 -84 -8 -151h-687q8 -100 60 -148t207 -47q156 0 389 66v-213q-232 -80 -406 -80t-266 30q-94 35 -178 131q-84 95 -84 387t121 424q123 129 373 129q250 1 364 -123t115 -405zM579 862q-118 0 -163 -57t-56 -176h428q-6 121 -51 174q-40 59 -158 59z
M270 1395h213v-228h-213v228zM688 1395h213v-228h-213v228z" />
    <glyph glyph-name="uni0452" unicode="&#x452;" horiz-adv-x="1200" 
d="M684 860q-111 0 -278 -67v-793h-283v1182h-125v196h125v113h283v-113h239v-196h-239v-168q164 74 288 73q211 0 293 -94q80 -96 80 -250v-802q0 -158 -99 -273t-433 -47v213q57 -8 131 -8t102 28t27 91v798q0 117 -111 117z" />
    <glyph glyph-name="uni0453" unicode="&#x453;" horiz-adv-x="860" 
d="M406 838v-838h-283v1075h721l-92 -237h-346zM340 1167l127 260h242l-215 -260h-154z" />
    <glyph glyph-name="uni0454" unicode="&#x454;" horiz-adv-x="976" 
d="M82 538q0 554 467 549q201 0 354 -63v-215q-160 47 -265 47t-183 -33q-72 -39 -86 -188h403l-80 -209h-323q20 -150 90 -180q71 -30 179 -31q108 0 282 49v-215q-174 -66 -375 -65q-463 0 -463 554z" />
    <glyph glyph-name="uni0455" unicode="&#x455;" horiz-adv-x="1056" 
d="M517 862q-163 0 -163 -78q0 -48 41 -74t207 -57q369 -70 371 -340q0 -176 -123 -252q-122 -75 -358 -75t-400 69v213q205 -57 356 -57q152 0 200 18t48 62q0 70 -39 92t-207 56t-270 112t-102 194q0 193 116 268t293 75t431 -60v-217q-238 51 -401 51z" />
    <glyph glyph-name="uni0456" unicode="&#x456;" horiz-adv-x="473" 
d="M98 1073h275v-1073h-275v1073zM98 1489h275v-305h-275v305z" />
    <glyph glyph-name="uni0457" unicode="&#x457;" horiz-adv-x="516" 
d="M117 1073h274v-1073h-274v1073zM-37 1395h213v-228h-213v228zM340 1395h213v-228h-213v228z" />
    <glyph glyph-name="uni0458" unicode="&#x458;" horiz-adv-x="471" 
d="M96 -78v1151h277v-1110q0 -238 -119 -299q-124 -59 -230 -59t-229 33v215q217 -57 262 -23q39 35 39 92zM98 1489h275v-305h-275v305z" />
    <glyph glyph-name="uni0459" unicode="&#x459;" horiz-adv-x="1740" 
d="M227 -12q-109 0 -225 30v150q131 -33 174 -10t43 80v837h782v-411h244q193 0 266 -50q80 -49 111 -114q35 -63 35 -217q1 -155 -107 -219t-305 -64h-512v856h-258v-618q0 -250 -248 -250zM1001 215h238q78 0 109 23q34 18 34 84t-34 93q-34 28 -107 27h-240v-227z" />
    <glyph glyph-name="uni045A" unicode="&#x45a;" horiz-adv-x="1781" 
d="M797 438h-398v-438h-282v1075h282v-399h398v399h258v-411h243q193 0 267 -50q80 -49 110 -114q35 -63 35 -217q0 -155 -107 -219t-305 -64h-501v438zM1055 215h237q78 0 109 23q35 18 35 84t-34 93q-34 28 -108 27h-239v-227z" />
    <glyph glyph-name="uni045B" unicode="&#x45b;" 
d="M684 860q-111 0 -278 -67v-793h-283v1182h-125v196h125v101l283 63v-164h239v-196h-239v-168q164 74 288 73q211 0 293 -94q80 -96 80 -250v-743h-272v743q0 117 -111 117z" />
    <glyph glyph-name="uni045C" unicode="&#x45c;" horiz-adv-x="1126" 
d="M147 0v1075h273v-332l334 332h352l-545 -526l547 -549h-352l-336 344v-344h-273zM453 1167l127 260h241l-215 -260h-153z" />
    <glyph glyph-name="uni045D" unicode="&#x45d;" horiz-adv-x="1214" 
d="M414 1075v-674l340 674h315v-1075h-272v680l-344 -680h-314v1075h275zM575 1167l-215 260h242l127 -260h-154z" />
    <glyph glyph-name="uni045E" unicode="&#x45e;" 
d="M129 365v649l274 82v-746q0 -96 127 -96q70 0 265 53v768h272v-1128q0 -168 -123 -256t-312 -88t-401 47v217q143 -39 289 -39t210 28q65 28 65 128v106q-377 -135 -523 -18q-143 117 -143 293zM596 1305q104 0 125 94h153q-2 -94 -78 -163t-200 -69q-123 0 -196 70
t-72 162h151q13 -94 117 -94z" />
    <glyph glyph-name="uni045F" unicode="&#x45f;" horiz-adv-x="1187" 
d="M141 1075h283v-837h336v837h282v-1075h-313v-334h-283v334h-305v1075z" />
    <glyph glyph-name="uni0460" unicode="&#x460;" horiz-adv-x="1945" 
d="M1516 1489h284v-1024l-489 -502l-342 352l-342 -352l-484 500v1026h285v-967l201 -209l200 209v967h285v-967l201 -207l201 207v967z" />
    <glyph glyph-name="uni0461" unicode="&#x461;" horiz-adv-x="1474" 
d="M1073 1073h256v-739l-362 -375l-236 240l-235 -240l-361 375v739h258v-682l103 -112l110 112v682h254v-682l103 -112l110 112v682z" />
    <glyph glyph-name="uni0462" unicode="&#x462;" horiz-adv-x="1386" 
d="M608 1262v-392h180q379 0 445 -157q66 -162 65 -291q0 -250 -120 -336t-390 -86h-464v1262h-328v227h997l-86 -227h-299zM608 223h174q125 0 177 40t53 134q0 158 -54 197q-51 41 -174 41h-176v-412z" />
    <glyph glyph-name="uni0463" unicode="&#x463;" horiz-adv-x="1280" 
d="M860 1075v-225h-297v-186h203q193 0 266 -50q80 -49 111 -114q35 -63 35 -217q0 -155 -108 -219t-304 -64h-475v850h-285v225h854zM563 215h197q78 0 108 23q35 18 35 84t-34 93q-34 28 -107 27h-199v-227z" />
    <glyph glyph-name="uni0464" unicode="&#x464;" horiz-adv-x="1658" 
d="M416 635v-635h-283v1489h283v-617h141q21 274 113 402t200 176q110 53 302 53t421 -73v-216q-229 52 -413 52t-262 -136q-55 -96 -72 -258h516l-86 -237h-432q31 -408 334 -408q184 0 415 58v-219q-252 -76 -450 -76q-537 0 -588 645h-139z" />
    <glyph glyph-name="uni0465" unicode="&#x465;" horiz-adv-x="1433" 
d="M1006 1087q201 0 354 -63v-215q-160 47 -266 47t-183 -33q-72 -37 -90 -184h406l-88 -217h-316q25 -150 95 -176q68 -31 175 -31t283 49v-215q-345 -131 -631 -6q-129 57 -178 266q-8 35 -20 113h-137v-422h-283v1075h283v-436h137q43 448 459 448z" />
    <glyph glyph-name="uni0466" unicode="&#x466;" horiz-adv-x="1333" 
d="M784 637v-637h-233v637h-43l-201 -637h-297l484 1489h348l481 -1489h-297l-201 637h-41zM571 838h191l-94 301z" />
    <glyph glyph-name="uni0467" unicode="&#x467;" horiz-adv-x="993" 
d="M606 367v-367h-209v367h-24l-113 -367h-270l346 1075h328l346 -1075h-267l-112 367h-25zM428 551h145l-71 237z" />
    <glyph glyph-name="uni0468" unicode="&#x468;" horiz-adv-x="1802" 
d="M1268 637v-637h-234v637h-43l-200 -637h-297l206 637h-284v-637h-283v1489h283v-651h350l211 651h348l481 -1489h-297l-200 637h-41zM1055 838h190l-94 301z" />
    <glyph glyph-name="uni0469" unicode="&#x469;" horiz-adv-x="1454" 
d="M410 399v-399h-283v1075h283v-491h235l158 491h327l347 -1075h-267l-123 399h-14v-399h-209v399h-14l-123 -399h-270l129 399h-176zM905 584h125l-61 204z" />
    <glyph glyph-name="uni046A" unicode="&#x46a;" horiz-adv-x="1515" 
d="M397 387v-387h-288v383q0 367 399 436h4l-416 670h1327l-415 -670h6q246 -43 325 -172q76 -133 76 -264v-383h-289v387q0 176 -223 215v-602h-285v602q-221 -41 -221 -215zM760 913l225 369h-450z" />
    <glyph glyph-name="uni046B" unicode="&#x46b;" horiz-adv-x="1146" 
d="M338 291v-291h-234v281q0 260 275 319l-297 475h991l-295 -475q272 -61 273 -319v-281h-234v291q0 78 -127 112v-403h-223v403q-129 -30 -129 -112zM578 659l141 236h-283z" />
    <glyph glyph-name="uni046C" unicode="&#x46c;" horiz-adv-x="2007" 
d="M846 391v-391h-289v383q0 158 70 254h-211v-637h-283v1489h283v-651h534l-405 651h1327l-416 -670h6q250 -43 324 -172q78 -125 78 -264v-383h-289v391q0 176 -223 215v-606h-285v606q-221 -41 -221 -215zM1208 913l226 369h-451z" />
    <glyph glyph-name="uni046D" unicode="&#x46d;" horiz-adv-x="1576" 
d="M731 291v-291h-233v281q0 88 30 153h-129v-434h-272v1075h272v-457h361l-285 457h991l-295 -475q272 -61 273 -319v-281h-234v291q0 78 -127 112v-403h-223v403q-129 -30 -129 -112zM971 659l141 236h-283z" />
    <glyph glyph-name="uni046E" unicode="&#x46e;" horiz-adv-x="1112" 
d="M377 688h-113v234h113q303 0 303 200q0 158 -180 156t-424 -158v238q129 100 262 135l-170 213h254l92 -123l92 123h268l-180 -213q274 -72 275 -365q0 -120 -52 -188t-143 -113q250 -84 250 -352q0 -215 -119 -317t-352 -103h-135q-68 0 -68 -57t68 -57h358
q133 0 199 -60q66 -55 65 -203v-61h-233v66q0 33 -25 32h-342q-352 1 -352 273q2 289 358 288q55 0 181 15q104 18 106 186q4 117 -90 164t-266 47z" />
    <glyph glyph-name="uni046F" unicode="&#x46f;" horiz-adv-x="921" 
d="M795 795q0 -152 -119 -222q160 -74 160 -264q0 -332 -377 -332h-99q-33 2 -32 -30q0 -33 32 -33h265q104 0 166 -45q57 -49 57 -168v-72h-225v62q0 12 -13 12h-235q-193 0 -240 84t-47 152q0 127 88 185t201 58t155 27q41 31 44 107q2 76 -66 102q-68 25 -174 24h-117
v220h111q203 0 202 126q0 92 -122 90t-330 -139v234q74 61 176 102l-137 170h258l53 -69l53 69h265l-144 -170q191 -71 191 -280z" />
    <glyph glyph-name="uni0470" unicode="&#x470;" horiz-adv-x="1380" 
d="M795 369v-369h-271v369h-239l-236 993h246l182 -789h47v916h271v-916h45l114 506q33 147 99 221q61 74 202 70q45 0 199 -39l-37 -188l-61 12q-100 20 -122 -12q-21 -33 -34 -90l-168 -684h-237z" />
    <glyph glyph-name="uni0471" unicode="&#x471;" horiz-adv-x="1380" 
d="M795 0v-399h-271v399h-245l-232 973h246l178 -768h53v1284h271v-1284h39l110 485q33 145 96 219t205 72q45 0 199 -39l-37 -188l-61 12q-100 19 -122 -13q-21 -32 -34 -89l-164 -664h-231z" />
    <glyph glyph-name="uni0472" unicode="&#x472;" horiz-adv-x="1406" 
d="M700 -10q-330 0 -467 190q-73 94 -103 234t-30 424q0 285 138 477q141 188 464 188q477 0 539 -291q63 -285 63 -472q1 -383 -133 -560q-141 -190 -471 -190zM733 946v-209h289v2q0 254 -71 390q-71 137 -249 137t-247 -136q-43 -78 -58 -184h336zM383 737
q0 -254 72 -385q73 -125 249 -125t246 125q39 68 56 176h-336v209h-287z" />
    <glyph glyph-name="uni0473" unicode="&#x473;" horiz-adv-x="1165" 
d="M1077 537q-1 -551 -495 -551t-498 551q0 551 498 550q495 1 495 -550zM795 528q0 334 -213 334q-154 0 -199 -155h233v-179h179zM367 528q0 -176 51 -244t160 -73q154 0 194 139h-219v178h-186z" />
    <glyph glyph-name="uni0474" unicode="&#x474;" horiz-adv-x="1433" 
d="M1276 1495q64 0 248 -78l-41 -213q-170 80 -205 47q-35 -39 -55 -104l-383 -1147h-332l-494 1489h289l371 -1157l284 876q80 242 209 277q45 10 109 10z" />
    <glyph glyph-name="uni0475" unicode="&#x475;" horiz-adv-x="1064" 
d="M912 1077q77 0 208 -67l-37 -189q-127 66 -146 36t-28 -54l-264 -803h-270l-361 1075h262l232 -735l166 520q49 155 108 184q53 33 130 33z" />
    <glyph glyph-name="uni0476" unicode="&#x476;" horiz-adv-x="1433" 
d="M1276 1495q64 0 248 -78l-41 -213q-170 80 -205 47q-35 -39 -55 -104l-383 -1147h-332l-494 1489h289l371 -1157l284 876q80 242 209 277q45 10 109 10zM817 1581l-215 260h242l127 -260h-154zM494 1581l-215 260h241l127 -260h-153z" />
    <glyph glyph-name="uni0477" unicode="&#x477;" horiz-adv-x="1064" 
d="M912 1077q77 0 208 -67l-37 -189q-127 66 -146 36t-28 -54l-264 -803h-270l-361 1075h262l232 -735l166 520q49 155 108 184q53 33 130 33zM659 1167l-215 260h242l127 -260h-154zM336 1167l-215 260h241l127 -260h-153z" />
    <glyph glyph-name="uni0478" unicode="&#x478;" horiz-adv-x="2519" 
d="M700 -10q-330 0 -467 190q-73 94 -103 234t-30 424q0 285 138 477q141 188 464 188q477 0 539 -291q63 -285 63 -472q1 -383 -133 -560q-141 -190 -471 -190zM1421 365v649l275 82v-746q0 -96 127 -96q70 0 264 53v768h272v-1128q0 -168 -123 -256t-312 -88t-400 47v217
q142 -39 286 -39t213 29q63 29 64 127v106q-379 -135 -523 -18t-143 293zM702 227q176 0 248 125q72 131 72 386t-71 391q-71 137 -249 137t-247 -136q-72 -137 -72 -392t72 -386q71 -125 247 -125z" />
    <glyph glyph-name="uni0479" unicode="&#x479;" horiz-adv-x="2293" 
d="M1077 537q-1 -551 -495 -551t-498 551q0 551 498 550q495 1 495 -550zM1188 365v649l274 82v-746q0 -96 127 -96q70 0 264 53v768h273v-1128q0 -168 -123 -256t-312 -88t-401 47v217q142 -39 286 -39t214 29q63 29 63 127v106q-379 -135 -522 -18t-143 293zM795 528
q0 334 -213 334q-111 0 -164 -76q-51 -78 -51 -258t51 -245q51 -72 161 -72t162 72q54 69 54 245z" />
    <glyph glyph-name="uni047A" unicode="&#x47a;" horiz-adv-x="1576" 
d="M59 736q0 345 170 532q172 184 404 219q47 78 149 78t152 -78q397 -70 486 -327t89 -424t-88 -421q-92 -246 -489 -315q-47 -72 -136 -71t-120 30t-41 41q-232 35 -404 213t-172 523zM782 1225q-70 0 -120 41q-117 -27 -190 -120t-99 -192q-31 -98 -31 -344t254 -364
q20 -10 66 -23q46 43 120 43t125 -45q319 74 319 511t-323 534q-51 -41 -121 -41z" />
    <glyph glyph-name="uni047B" unicode="&#x47b;" horiz-adv-x="1249" 
d="M63 535q0 128 72 303q68 178 342 233q43 78 132 77t122 -28t47 -49q401 -111 402 -543q0 -250 -127 -364q-121 -121 -271 -156q-53 -84 -156 -84t-153 82q-150 31 -237 117q-92 86 -132 185t-41 227zM332 530q0 -242 174 -317q51 43 121 43t116 -41q168 89 168 321
t-168 320q-45 -39 -115 -39t-122 43q-174 -88 -174 -330z" />
    <glyph glyph-name="uni047C" unicode="&#x47c;" horiz-adv-x="2222" 
d="M2124 746q0 -753 -594 -756q-193 0 -424 127q-229 -127 -404 -127q-328 0 -469 203q-143 199 -143 548q0 758 596 758q166 0 326 -63v-209q-168 49 -291 49q-342 0 -342 -530t344 -531q174 8 383 111q215 -102 389 -111q342 0 342 530t-342 531q-129 0 -295 -49v207
q174 63 330 65q594 0 594 -753zM1686 1802v-164q-158 0 -264 51t-204 101q-96 50 -208 49q-112 0 -162 -47q-45 -47 -72 -154h-182q72 371 379 371q151 -2 313 -82q162 -81 238 -103t162 -22zM918 1497l116 240h242l-199 -240h-159z" />
    <glyph glyph-name="uni047D" unicode="&#x47d;" horiz-adv-x="1843" 
d="M1739 537q0 -553 -467 -553q-197 0 -359 118q-168 -119 -356 -118q-467 0 -467 554t471 549q131 0 297 -61v-207q-147 45 -235 45q-145 0 -195 -82t-51 -204q0 -217 49 -295t202 -78t285 114q139 -115 321 -115t200 126q18 125 18 202q0 168 -68 279t-411 8v207
q166 61 295 61q471 3 471 -550zM1485 1460v-164q-158 0 -250 43q-91 43 -149 75t-132 56q-66 27 -167 27t-152 -45t-80 -156h-162q72 371 379 371q150 0 312 -80t235 -100q78 -27 166 -27zM741 1130l117 240h242l-199 -240h-160z" />
    <glyph glyph-name="uni047E" unicode="&#x47e;" horiz-adv-x="1945" 
d="M1516 1489h284v-1024l-489 -502l-342 352l-342 -352l-484 500v1026h285v-967l201 -209l200 209v967h285v-967l201 -207l201 207v967zM373 1978h1245l-92 -233h-414v-164h-283v164h-456v233z" />
    <glyph glyph-name="uni047F" unicode="&#x47f;" horiz-adv-x="1474" 
d="M1071 1073h256v-739l-362 -375l-236 240l-235 -240l-361 375v739h258v-682l103 -112l110 112v682h254v-682l103 -112l110 112v682zM367 1565h782l-92 -213h-199v-185h-254v185h-237v213z" />
    <glyph glyph-name="uni0480" unicode="&#x480;" horiz-adv-x="1189" 
d="M702 227q184 0 416 58v-619h-272v336q-92 -12 -217 -12t-336 108q-215 104 -215 650q0 756 590 755q221 0 450 -73v-216q-230 52 -414 52t-262 -136t-77 -382q-1 -521 337 -521z" />
    <glyph glyph-name="uni0481" unicode="&#x481;" horiz-adv-x="976" 
d="M541 -16q-463 0 -463 554t467 549q201 0 354 -63v-215q-160 47 -265 47t-157 -20q-117 -62 -117 -246q0 -110 9 -193q25 -121 109 -161q42 -20 153 -21q111 0 284 49v-598h-272v322q-70 -4 -102 -4z" />
    <glyph glyph-name="uni0482" unicode="&#x482;" horiz-adv-x="1064" 
d="M246 1190l311 -133l197 432h223l-232 -512l308 -129l-78 -184l-313 133l-72 -158l317 -135l-80 -187l-321 138l-205 -455h-221l242 532l-299 130l79 186l304 -129l69 155l-307 134z" />
    <glyph glyph-name="uni0483" unicode="&#x483;" horiz-adv-x="0" 
d="M45 1821q70 0 70 94h182q0 -121 -41 -182t-141 -62h-211q-68 0 -68 -92h-184q0 131 41 186q37 55 143 56h209z" />
    <glyph glyph-name="uni0484" unicode="&#x484;" horiz-adv-x="0" 
d="M-272 1581q0 90 53 142q53 53 105 71t142 18t168 -70q77 -70 78 -161h-153q-19 94 -123 94t-119 -94h-151z" />
    <glyph glyph-name="uni0485" unicode="&#x485;" horiz-adv-x="0" 
d="M170 1571h-170l-141 325h229z" />
    <glyph glyph-name="uni0486" unicode="&#x486;" horiz-adv-x="0" 
d="M-70 1896h230l-142 -325h-170z" />
    <glyph glyph-name="uni0487" unicode="&#x487;" horiz-adv-x="0" 
d="M543 1802v-164q-159 0 -265 51t-202 101t-208 49q-112 0 -163 -47q-45 -47 -72 -154h-182q72 371 379 371q152 -2 314 -82q162 -81 237 -103q76 -22 162 -22z" />
    <glyph glyph-name="uni0488" unicode="&#x488;" horiz-adv-x="0" 
d="M-1 1350q-103 0 -118 -95h-151q0 91 53 143t106 70t143 18t166 -68q77 -69 78 -163h-153q-21 95 -124 95zM-270 -399q0 90 53 142q53 53 106 71t143 18t166 -69q77 -69 78 -162h-153q-19 94 -123 94t-119 -94h-151zM-1014 938q0 92 56 143q51 51 103 69t142 19t167 -69
t79 -162h-154q-20 94 -123 94t-118 -94h-152zM-1161 416q0 92 53 143q54 51 106 69t142 19q90 -1 167 -69t79 -162h-154q-20 94 -124 94t-118 -94h-151zM-1014 -104q0 92 56 143q51 51 103 69t142 19q90 0 167 -69t79 -162h-154q-20 94 -123 94t-118 -94h-152zM467 938
q0 90 53 142q52 52 106 70t142 19q88 0 166 -67q78 -72 80 -164h-154q-20 94 -124 94t-118 -94h-151zM616 416q0 92 56 143q51 51 103 69q53 18 143 19q90 -1 166 -69t79 -162h-153q-20 94 -124 94t-118 -94h-152zM467 -104q0 90 53 142q52 52 106 70t143 19q89 0 166 -69
t79 -162h-154q-20 94 -124 94t-118 -94h-151z" />
    <glyph glyph-name="uni0489" unicode="&#x489;" horiz-adv-x="0" 
d="M84 -225q0 -76 -42 -129t-142 -54v68q45 0 75 25q27 27 27 61h-102v172h184v-143zM-100 1305q0 80 43 129q39 53 141 53v-68q-45 0 -76 -24q-27 -27 -26 -62h102v-172h-184v144zM-858 446q-78 0 -130 41t-52 144h67q0 -49 25 -74q23 -29 61 -29v103h172v-185h-143z
M860 631q74 0 131 -41q51 -45 51 -144h-67q0 49 -25 74q-23 29 -61 29v-103h-172v185h143zM-711 1169q0 -39 29 -61l68 78l131 -113l-121 -139l-109 92q-139 121 -18 258l51 -43q-31 -33 -31 -72zM713 -90q0 37 -29 61l-68 -77l-131 110l121 141l109 -92q135 -121 18 -260
l-51 45q31 35 31 72zM-457 -86q-121 -135 -258 -10l45 49q76 -68 133 -6l-75 69l116 127l138 -125zM440 1165q121 137 260 11l-45 -50q-78 68 -135 4l76 -67l-115 -127l-137 125z" />
    <glyph glyph-name="uni048A" unicode="&#x48a;" horiz-adv-x="1437" 
d="M135 0v1489h273v-1135l507 1135h388v-1385h135l-205 -438h-270l155 334h-88v1135l-508 -1135h-387zM440 1812h152q14 -94 118 -94t124 94h153q-2 -94 -80 -161q-77 -70 -199 -70t-195 70t-73 161z" />
    <glyph glyph-name="uni048B" unicode="&#x48b;" horiz-adv-x="1214" 
d="M797 0v680l-344 -680h-314v1075h275v-674l340 674h315v-971h145l-204 -438h-271l156 334h-98zM315 1399h152q13 -94 117 -94t125 94h153q-2 -94 -79 -163t-199 -69t-196 70q-73 70 -73 162z" />
    <glyph glyph-name="uni048C" unicode="&#x48c;" 
d="M143 1333v156h285v-156h203v-227h-203v-236h180q379 0 445 -157q66 -162 65 -291q0 -250 -121 -336t-389 -86h-465v1106h-147v227h147zM428 223h174q125 0 177 40t52 134q0 158 -52 198t-175 40h-176v-412z" />
    <glyph glyph-name="uni048D" unicode="&#x48d;" horiz-adv-x="1105" 
d="M139 954v121h273v-121h178v-186h-178v-104h213q188 0 268 -50q74 -49 111 -114q32 -72 32 -222t-107 -214t-304 -64h-486v768h-143v186h143zM412 215h206q78 0 109 23q35 18 35 84t-34 93q-34 28 -107 27h-209v-227z" />
    <glyph glyph-name="uni048E" unicode="&#x48e;" horiz-adv-x="1314" 
d="M1212 979q0 -397 -286 -487l82 -175h-250l-70 146h-264v-463h-283v1489h572q259 0 379 -123t120 -387zM930 979q0 272 -240 272h-266v-551h154l-46 97h250l33 -70q115 66 115 252z" />
    <glyph glyph-name="uni048F" unicode="&#x48f;" horiz-adv-x="1173" 
d="M1092 478q0 -331 -238 -451h-2l88 -187h-250l-69 146q-113 2 -215 37v-342l-275 -82v1415l275 82v-66q111 55 237 55q238 2 344 -135q105 -141 105 -472zM809 519q0 179 -39 263q-43 78 -146 78t-218 -51v-567q57 -18 106 -25l-47 102h250l24 -55q70 76 70 255z" />
    <glyph glyph-name="uni0490" unicode="&#x490;" horiz-adv-x="1105" 
d="M725 1489v147h279v-385h-598v-1251h-283v1489h602z" />
    <glyph glyph-name="uni0491" unicode="&#x491;" horiz-adv-x="942" 
d="M563 1075v148h279v-385h-436v-838h-283v1075h440z" />
    <glyph glyph-name="uni0492" unicode="&#x492;" horiz-adv-x="1105" 
d="M0 870h129v619h885v-238h-602v-381h452v-237h-452v-633h-283v633h-129v237z" />
    <glyph glyph-name="uni0493" unicode="&#x493;" horiz-adv-x="942" 
d="M0 653h129v422h713v-217h-441v-205h281v-196h-281v-457h-272v457h-129v196z" />
    <glyph glyph-name="uni0494" unicode="&#x494;" horiz-adv-x="1187" 
d="M805 504q0 117 -110 117t-298 -76v-545h-276v1489h883v-238h-607v-485q178 82 310 82q209 0 289 -94t81 -250v-563q0 -182 -71 -268q-72 -85 -215 -74q-289 23 -383 51v207q150 -29 246 -29t124 27q27 31 27 90v559z" />
    <glyph glyph-name="uni0495" unicode="&#x495;" horiz-adv-x="1169" 
d="M811 295q0 117 -113 117t-290 -72v-340h-277v1075h711v-227h-434v-297q172 78 297 78q211 0 291 -94t81 -250v-344q0 -182 -71 -268q-72 -85 -215 -74q-289 23 -383 51v207q150 -29 246 -29t127 27q30 27 30 90v350z" />
    <glyph glyph-name="uni0496" unicode="&#x496;" horiz-adv-x="1904" 
d="M1546 0h-100l-180 547q-37 111 -123 110h-123v-657h-287v657h-108q-96 0 -138 -114l-180 -543h-284l217 618q70 197 262 205l-479 666h325l385 -602v602h287v-600l387 600h326l-482 -664q96 0 167 -58t100 -144l176 -519h135v-436h-283v332z" />
    <glyph glyph-name="uni0497" unicode="&#x497;" horiz-adv-x="1597" 
d="M1235 0h-107l-114 336q-25 72 -60 91t-77 19h-33v-446h-269v446h-30q-43 0 -77 -19t-58 -91l-117 -336h-277l146 393q63 182 239 193l-399 489h311l262 -360v360h269v-362l260 362h313l-399 -489q174 -8 242 -193l108 -289h150v-436h-283v332z" />
    <glyph glyph-name="uni0498" unicode="&#x498;" horiz-adv-x="1112" 
d="M770 -223q0 -176 -197 -176q-115 0 -211 20v111q168 -25 209 -10t41 55q0 61 -61 61h-160l39 146q-215 25 -379 112v223q221 -100 399 -100t238 51q55 55 57 140q4 152 -88 198t-262 45h-110v238h110q299 0 299 219q0 158 -208 158t-388 -125v219q176 141 437 141
q225 -10 333 -104t109 -294q0 -200 -189 -304q242 -86 242 -375q0 -340 -297 -422q-80 -16 -151 -22l-9 -48h45q152 1 152 -157z" />
    <glyph glyph-name="uni0499" unicode="&#x499;" horiz-adv-x="860" 
d="M662 -223q0 -176 -197 -176q-115 0 -211 20v111q168 -25 209 -10t41 55q0 61 -62 61h-159l41 150q-121 14 -265 100v211q205 -98 314 -102q174 -6 174 114q0 133 -219 133h-109v213h109q182 0 182 125q0 78 -111 78q-158 -6 -309 -115v211q137 113 316 119
q356 12 356 -291q0 -133 -131 -209q170 -74 170 -257t-94 -256t-234 -82l-8 -46h45q152 1 152 -157z" />
    <glyph glyph-name="uni049A" unicode="&#x49a;" horiz-adv-x="1310" 
d="M113 1489h282v-553l549 553h361l-725 -737l628 -648h103v-436h-283v332h-82l-551 565v-565h-282v1489z" />
    <glyph glyph-name="uni049B" unicode="&#x49b;" horiz-adv-x="1081" 
d="M104 0v1075h275v-356l366 356h359l-545 -526l438 -445h123v-436h-282v332h-86l-373 373v-373h-275z" />
    <glyph glyph-name="uni049C" unicode="&#x49c;" horiz-adv-x="1611" 
d="M113 1489h282v-635h68v289h104v-289h41l633 635h361l-725 -737l731 -752h-365l-641 657h-35v-288h-104v288h-68v-657h-282v1489z" />
    <glyph glyph-name="uni049D" unicode="&#x49d;" horiz-adv-x="1413" 
d="M104 0v1075h275v-420h70v187h104v-187h39l434 420h358l-542 -524v-4l540 -547h-350l-459 459h-20v-187h-104v187h-70v-459h-275z" />
    <glyph glyph-name="uni049E" unicode="&#x49e;" horiz-adv-x="1294" 
d="M113 1331v158h282v-158h99v-162h-99v-233l549 553h361l-725 -737l731 -752h-365l-551 565v-565h-282v1169h-113v162h113z" />
    <glyph glyph-name="uni049F" unicode="&#x49f;" horiz-adv-x="1081" 
d="M104 1331v127l275 82v-209h115v-162h-115v-450l366 354h359l-545 -524l543 -549h-350l-373 373v-373h-275v1169h-104v162h104z" />
    <glyph glyph-name="uni04A0" unicode="&#x4a0;" horiz-adv-x="1392" 
d="M489 1489v-553l549 553h361l-725 -737l731 -752h-365l-551 565v-565h-282v1262h-211v227h493z" />
    <glyph glyph-name="uni04A1" unicode="&#x4a1;" horiz-adv-x="1187" 
d="M461 1075v-356l366 356h359l-545 -526l543 -549h-350l-373 373v-373h-275v848h-190v227h465z" />
    <glyph glyph-name="uni04A2" unicode="&#x4a2;" horiz-adv-x="1433" 
d="M987 635h-571v-635h-283v1489h283v-617h571v617h283v-1385h96v-436h-283v332h-96v635z" />
    <glyph glyph-name="uni04A3" unicode="&#x4a3;" horiz-adv-x="1208" 
d="M797 438h-398v-438h-282v1075h282v-399h398v399h282v-971h72v-436h-283v332h-71v438z" />
    <glyph glyph-name="uni04A4" unicode="&#x4a4;" horiz-adv-x="1945" 
d="M987 635h-571v-635h-283v1489h283v-617h571v617h926v-238h-643v-1251h-283v635z" />
    <glyph glyph-name="uni04A5" unicode="&#x4a5;" horiz-adv-x="1556" 
d="M797 438h-398v-438h-282v1075h282v-399h398v399h735v-237h-453v-838h-282v438z" />
    <glyph glyph-name="uni04A6" unicode="&#x4a6;" horiz-adv-x="2068" 
d="M1696 743q0 117 -113 117t-334 -90v-770h-282v1251h-551v-1251h-283v1489h1116v-502q203 100 340 100q217 0 299 -94q80 -96 80 -250v-802q0 -158 -99 -273t-433 -47v213q57 -8 131 -8q73 0 101 28t28 91v798z" />
    <glyph glyph-name="uni04A7" unicode="&#x4a7;" horiz-adv-x="1822" 
d="M1354 403q-117 0 -303 -79v-324h-283v838h-352v-838h-283v1075h918v-530q197 86 321 86q207 0 289 -94t82 -250v-346q1 -158 -99 -273t-434 -47v213q58 -8 132 -8t102 28t26 91v342q1 116 -116 116z" />
    <glyph glyph-name="uni04A8" unicode="&#x4a8;" horiz-adv-x="1454" 
d="M1248 -8q-118 0 -259 59q-313 -131 -612 29t-299 676t192 633q197 113 320 113t233 -50l-28 -170q90 61 196 61q205 -1 290 -159t85 -410t-59 -377q-53 -127 -90 -174q129 0 239 31l31 -217q-121 -45 -239 -45zM358 823q0 -610 355 -610h20q25 0 31 2q-148 199 -148 540
t138 490q-100 23 -156 23q-125 0 -180 -146q-60 -139 -60 -299zM1108 788q0 338 -113 338t-113 -342t109 -469q117 135 117 473z" />
    <glyph glyph-name="uni04A9" unicode="&#x4a9;" horiz-adv-x="1064" 
d="M525 -18q-222 0 -347 170q-55 82 -81 178q-25 96 -25 270t92 326q94 147 295 147q45 0 131 -26l-23 -134q63 51 156 52q279 0 278 -437q0 -184 -86 -348q72 4 142 37l28 -194q-219 -90 -364 6q-78 -47 -196 -47zM446 535q0 221 76 327q-31 8 -63 8q-160 0 -160 -335
q0 -227 80 -291t149 -64q-82 134 -82 355zM786 552q0 212 -61 212t-61 -211t59 -307q63 94 63 306z" />
    <glyph glyph-name="uni04AA" unicode="&#x4aa;" horiz-adv-x="1189" 
d="M885 -223q0 -176 -197 -176q-115 0 -211 20v111q168 -25 209 -10t41 55q0 61 -61 61h-160l43 162q-213 25 -342 211t-129 537q0 756 590 755q221 0 450 -73v-216q-230 52 -414 52t-262 -136t-77 -382q0 -520 337 -521q184 0 416 58v-219q-219 -66 -420 -76l-10 -56h45
q152 1 152 -157z" />
    <glyph glyph-name="uni04AB" unicode="&#x4ab;" horiz-adv-x="976" 
d="M760 -223q0 -176 -197 -176q-115 0 -211 20v111q168 -25 209 -10t41 55q0 61 -61 61h-160l43 156q-346 63 -346 545q0 549 467 548q201 0 354 -63v-215q-160 47 -265 47t-157 -20q-47 -25 -82 -80t-35 -176q0 -211 50 -288t190 -77q141 0 315 49v-215q-160 -63 -342 -65
l-10 -50h45q152 1 152 -157z" />
    <glyph glyph-name="uni04AC" unicode="&#x4ac;" horiz-adv-x="1325" 
d="M49 1489h1245l-92 -238h-414v-1147h152v-436h-283v332h-151v1251h-457v238z" />
    <glyph glyph-name="uni04AD" unicode="&#x4ad;" horiz-adv-x="901" 
d="M25 1077h895l-93 -237h-237v-736h143v-436h-282v332h-144v840h-282v237z" />
    <glyph glyph-name="uni04AE" unicode="&#x4ae;" horiz-adv-x="1314" 
d="M801 0h-285v651l-522 838h311l352 -576l353 576h311l-520 -840v-649z" />
    <glyph glyph-name="uni04AF" unicode="&#x4af;" horiz-adv-x="1187" 
d="M731 -401h-272v557l-424 919h287l272 -639l274 639h287l-424 -921v-555z" />
    <glyph glyph-name="uni04B0" unicode="&#x4b0;" horiz-adv-x="1314" 
d="M225 797h199l-430 692h311l352 -576l353 576h311l-430 -692h199v-238h-289v-559h-285v559h-291v238z" />
    <glyph glyph-name="uni04B1" unicode="&#x4b1;" horiz-adv-x="1187" 
d="M164 174h287l-416 901h287l272 -639l274 639h287l-416 -901h289v-227h-297v-348h-272v348h-295v227z" />
    <glyph glyph-name="uni04B2" unicode="&#x4b2;" horiz-adv-x="1331" 
d="M1303 104v-436h-283v332h-47l-318 492l-317 -492h-324l480 743l-480 746h326l315 -494l320 494h321l-479 -744l412 -641h74z" />
    <glyph glyph-name="uni04B3" unicode="&#x4b3;" horiz-adv-x="1146" 
d="M838 0h-54l-239 326l-238 -326h-309l393 537l-393 538h309l238 -327l239 327h310l-394 -538l316 -433h104v-436h-282v332z" />
    <glyph glyph-name="uni04B4" unicode="&#x4b4;" horiz-adv-x="1781" 
d="M31 1489h1222l-90 -238h-391v-1013h578v1251h282v-1385h92v-436h-282v332h-953v1251h-458v238z" />
    <glyph glyph-name="uni04B5" unicode="&#x4b5;" horiz-adv-x="1392" 
d="M20 1075h873l-80 -207h-195v-630h336v837h283v-971h96v-436h-282v332h-715v868h-316v207z" />
    <glyph glyph-name="uni04B6" unicode="&#x4b6;" horiz-adv-x="1228" 
d="M522 397q-393 0 -393 340v690l274 82v-786q0 -96 112 -96t300 61v801h272v-1385h160v-436h-282v332h-150v471q-189 -74 -293 -74z" />
    <glyph glyph-name="uni04B7" unicode="&#x4b7;" horiz-adv-x="1228" 
d="M522 276q-393 0 -393 340v396l274 82v-492q0 -96 112 -96t300 61v506h272v-969h158v-436h-282v332h-148v350q-189 -74 -293 -74z" />
    <glyph glyph-name="uni04B8" unicode="&#x4b8;" horiz-adv-x="1228" 
d="M653 186h-104v213q-18 -2 -80 -2q-139 0 -240 82q-100 82 -100 258v690l274 82v-786q0 -96 127 -96h19v170h104v-156q82 20 162 47v801h272v-1489h-272v471l-162 -53v-232z" />
    <glyph glyph-name="uni04B9" unicode="&#x4b9;" horiz-adv-x="1228" 
d="M653 88h-104v191q-18 -2 -80 -3q-139 0 -240 82q-100 82 -100 258v396l274 82v-492q0 -96 127 -96h19v151h104v-137q82 20 162 47v506h272v-1073h-272v350l-162 -53v-209z" />
    <glyph glyph-name="uni04BA" unicode="&#x4ba;" horiz-adv-x="1200" 
d="M692 1085q379 0 379 -346v-739h-274v739q0 119 -131 119q-68 0 -260 -72v-786h-275v1458l275 82v-526q165 71 286 71z" />
    <glyph glyph-name="uni04BB" unicode="&#x4bb;" horiz-adv-x="1064" 
d="M539 858q-37 0 -133 -29v-829h-275v1458l275 82v-481q104 27 196 26q168 0 256 -94q86 -98 86 -252v-739h-274v739q0 119 -131 119z" />
    <glyph glyph-name="uni04BC" unicode="&#x4bc;" horiz-adv-x="1781" 
d="M1663 776v-37q0 -31 -2 -47l-2 -47v-41h-1026q13 -313 159 -347t242 -34q276 0 572 94v-223q-302 -110 -530 -108t-462 72t-264 546h-22q-356 0 -269 430h201q-14 -55 -14 -110t22 -72q23 -16 74 -16h6q49 662 668 661q647 0 647 -721zM1018 1262q-365 0 -385 -426h756
q-11 226 -99 326t-272 100z" />
    <glyph glyph-name="uni04BD" unicode="&#x4bd;" horiz-adv-x="1454" 
d="M1350 559q0 -84 -9 -151h-690q7 -100 61 -150t210 -49q156 0 389 65v-208q-229 -80 -403 -80t-330 52q-157 52 -197 370h-43q-356 0 -268 423h200q-14 -55 -14 -108t22 -73t74 -21h29q14 219 126 339q111 120 361 120t366 -124q116 -122 116 -405zM868 866
q-117 0 -159 -59q-47 -59 -58 -178h432q-6 119 -51 178q-47 59 -164 59z" />
    <glyph glyph-name="uni04BE" unicode="&#x4be;" horiz-adv-x="1781" 
d="M1663 776v-37q0 -31 -2 -47l-2 -47v-41h-1026q13 -313 159 -347t242 -34q276 0 572 94v-223q-215 -78 -488 -104v-262h-186v262q-125 10 -223 41q-328 100 -359 573h-22q-356 0 -269 430h201q-14 -55 -14 -110t22 -72q23 -16 74 -16h6q49 662 668 661q647 0 647 -721z
M1018 1262q-365 0 -385 -426h756q-11 226 -99 326t-272 100z" />
    <glyph glyph-name="uni04BF" unicode="&#x4bf;" horiz-adv-x="1454" 
d="M967 -272h-187v262q-305 25 -377 295q-12 41 -22 123h-43q-356 0 -268 423h200q-14 -55 -14 -108t22 -73t74 -21h29q14 219 126 339q111 120 361 120t366 -124q116 -122 116 -405q0 -84 -9 -151h-690q7 -100 61 -150t210 -49q156 0 389 65v-208q-178 -61 -344 -74v-264z
M868 866q-117 0 -159 -59q-47 -59 -58 -178h432q-6 119 -51 178q-47 59 -164 59z" />
    <glyph glyph-name="uni04C0" unicode="&#x4c0;" horiz-adv-x="495" 
d="M106 1489h283v-1489h-283v1489z" />
    <glyph glyph-name="uni04C1" unicode="&#x4c1;" horiz-adv-x="1761" 
d="M733 1489h287v-600l387 600h326l-482 -664q96 0 167 -58t100 -144l213 -623h-285l-180 547q-37 111 -123 110h-123v-657h-287v657h-108q-96 0 -138 -114l-180 -543h-284l217 618q70 197 262 205l-479 666h325l385 -602v602zM602 1812h152q14 -94 117 -94t124 94h154
q-2 -94 -80 -161q-77 -70 -199 -70t-195 70t-73 161z" />
    <glyph glyph-name="uni04C2" unicode="&#x4c2;" horiz-adv-x="1433" 
d="M575 1075h269v-362l260 362h313l-399 -489q174 -8 242 -193l147 -393h-279l-114 336q-25 72 -60 91t-77 19h-33v-446h-269v446h-30q-43 0 -77 -19t-58 -91l-117 -336h-277l146 393q63 182 239 193l-399 489h311l262 -360v360zM434 1399h152q14 -94 117 -94t124 94h154
q-2 -94 -79 -163q-78 -69 -200 -69t-195 70t-73 162z" />
    <glyph glyph-name="uni04C3" unicode="&#x4c3;" horiz-adv-x="1294" 
d="M1042 -25q0 37 -49 82l-612 578v-635h-258v1489h258v-606l604 606h332l-723 -735l545 -502q131 -119 131 -243t-92 -225t-230 -171l-119 164q213 132 213 198z" />
    <glyph glyph-name="uni04C4" unicode="&#x4c4;" horiz-adv-x="1126" 
d="M137 0v1075h248v-389l403 389h326l-543 -524l375 -324q141 -121 141 -243q0 -223 -309 -385l-116 159q114 74 158 115t44 74q6 33 -49 88l-430 385v-420h-248z" />
    <glyph glyph-name="uni04C5" unicode="&#x4c5;" horiz-adv-x="1566" 
d="M406 354v1135h925v-1385h168l-205 -438h-270l156 334h-133v1255h-359v-929q0 -367 -282 -344q-287 23 -381 51v213q151 -27 239 -27q88 -1 115 27t27 108z" />
    <glyph glyph-name="uni04C6" unicode="&#x4c6;" horiz-adv-x="1228" 
d="M227 -12q-109 0 -225 30v150q131 -33 174 -10t43 80v837h782v-971h191l-205 -438h-270l155 334h-139v856h-258v-618q0 -250 -248 -250z" />
    <glyph glyph-name="uni04C7" unicode="&#x4c7;" horiz-adv-x="1404" 
d="M858 -174q129 0 129 119v690h-571v-635h-283v1489h283v-617h571v617h283v-1548q0 -156 -99 -273q-102 -115 -450 -47v213q57 -8 137 -8z" />
    <glyph glyph-name="uni04C8" unicode="&#x4c8;" horiz-adv-x="1193" 
d="M666 -174q129 0 129 119v207h2v286h-398v-438h-282v1075h282v-399h398v399h282v-1075h-2v-59q0 -156 -98 -273q-102 -115 -451 -47v213q58 -8 138 -8z" />
    <glyph glyph-name="uni04C9" unicode="&#x4c9;" horiz-adv-x="1413" 
d="M987 635h-571v-635h-283v1489h283v-617h571v617h283v-1385h137l-205 -438h-270l155 334h-100v635z" />
    <glyph glyph-name="uni04CA" unicode="&#x4ca;" horiz-adv-x="1208" 
d="M797 438h-398v-438h-282v1075h282v-399h398v399h282v-971h125l-205 -438h-270l156 334h-88v438z" />
    <glyph glyph-name="uni04CB" unicode="&#x4cb;" horiz-adv-x="1228" 
d="M522 397q-393 0 -393 340v690l274 82v-786q0 -96 112 -96t300 61v801h272v-1489h-124v-332h-283v436h135v367q-189 -74 -293 -74z" />
    <glyph glyph-name="uni04CC" unicode="&#x4cc;" horiz-adv-x="1228" 
d="M522 276q-393 0 -393 340v396l274 82v-492q0 -96 112 -96t300 61v506h272v-1073h-122v-332h-283v436h133v246q-189 -74 -293 -74z" />
    <glyph glyph-name="uni04CD" unicode="&#x4cd;" horiz-adv-x="1761" 
d="M1339 0v1110l-305 -1055h-325l-306 1055l11 -1110h-271l-10 1489h404l335 -1127l334 1127h404v-1385h139l-205 -438h-270l156 334h-91z" />
    <glyph glyph-name="uni04CE" unicode="&#x4ce;" horiz-adv-x="1331" 
d="M926 0v674l-142 -637h-284l-138 633v-670h-253v1075h378l156 -708l156 708h379v-971h149l-205 -438h-270l156 334h-82z" />
    <glyph glyph-name="uni04CF" unicode="&#x4cf;" horiz-adv-x="495" 
d="M106 1489h283v-1489h-283v1489z" />
    <glyph glyph-name="uni04D0" unicode="&#x4d0;" horiz-adv-x="1333" 
d="M924 358h-514l-113 -358h-287l484 1489h348l481 -1489h-287zM485 594h363l-180 573zM401 1812h152q13 -94 117 -94t125 94h153q-2 -94 -80 -161q-76 -70 -198 -70t-196 70q-73 70 -73 161z" />
    <glyph glyph-name="uni04D1" unicode="&#x4d1;" horiz-adv-x="1144" 
d="M442 -14q-168 0 -262 88t-94 235q0 283 227 350q166 49 432 56v30q0 94 -110 107q-143 8 -215 8t-246 -37v217q178 47 332 47q514 0 514 -344v-743h-266v68q-144 -82 -312 -82zM510 203q109 0 235 71v230q-293 -6 -335 -56t-43 -108q0 -137 143 -137zM556 1305
q104 0 124 94h154q-2 -94 -79 -163t-200 -69t-196 70t-72 162h151q14 -94 118 -94z" />
    <glyph glyph-name="uni04D2" unicode="&#x4d2;" horiz-adv-x="1333" 
d="M924 358h-514l-113 -358h-287l484 1489h348l481 -1489h-287zM485 594h363l-180 573zM352 1808h213v-227h-213v227zM770 1808h213v-227h-213v227z" />
    <glyph glyph-name="uni04D3" unicode="&#x4d3;" horiz-adv-x="1144" 
d="M442 -14q-168 0 -262 88t-94 235q0 283 227 350q166 49 432 56v30q0 94 -110 107q-143 8 -215 8t-246 -37v217q178 47 332 47q514 0 514 -344v-743h-266v68q-144 -82 -312 -82zM510 203q109 0 235 71v230q-293 -6 -335 -56t-43 -108q0 -137 143 -137zM260 1395h213v-228
h-213v228zM678 1395h213v-228h-213v228z" />
    <glyph glyph-name="uni04D4" unicode="&#x4d4;" horiz-adv-x="1843" 
d="M899 358h-426l-170 -358h-287l709 1489h1036v-238h-579v-381h555l-92 -237h-463v-395h579v-238h-862v358zM899 594v655l-313 -655h313z" />
    <glyph glyph-name="uni04D5" unicode="&#x4d5;" horiz-adv-x="1843" 
d="M1751 559q0 -84 -8 -151h-686q8 -100 59 -148t207 -47q156 0 389 66v-213q-229 -80 -470 -80t-370 159q-213 -160 -464 -159q-154 0 -248 88t-94 235q0 283 227 350q166 49 432 56v30q0 94 -111 107q-142 8 -214 8t-246 -37v217q178 47 409 47t348 -137q117 137 363 137
q246 -1 362 -123t115 -405zM496 203q148 0 303 116q-10 76 -17 185q-250 -2 -317 -24t-93 -53q-26 -30 -26 -87q2 -137 150 -137zM1272 862q-117 0 -162 -57t-55 -176h428q-6 119 -50 176t-161 57z" />
    <glyph glyph-name="uni04D6" unicode="&#x4d6;" horiz-adv-x="1230" 
d="M129 1489h1006v-238h-723v-381h698l-92 -237h-606v-395h723v-238h-1006v1489zM381 1812h151q14 -94 118 -94t124 94h154q-2 -94 -80 -161q-76 -70 -198 -70t-196 70q-73 70 -73 161z" />
    <glyph glyph-name="uni04D7" unicode="&#x4d7;" horiz-adv-x="1144" 
d="M1057 559q0 -84 -8 -151h-687q8 -100 60 -148t207 -47q156 0 389 66v-213q-232 -80 -406 -80t-266 30q-94 35 -178 131q-84 95 -84 387t121 424q123 129 373 129q250 1 364 -123t115 -405zM579 862q-118 0 -163 -57t-56 -176h428q-6 121 -51 174q-40 59 -158 59z
M311 1399h152q13 -94 117 -94t125 94h153q-2 -94 -79 -163t-199 -69t-196 70q-73 70 -73 162z" />
    <glyph glyph-name="uni04D8" unicode="&#x4d8;" horiz-adv-x="1576" 
d="M772 -14q-647 0 -647 721v81l2 48q2 16 2 43h1026q-14 313 -164 348q-139 33 -237 33q-276 0 -572 -95v224q295 106 532 106t478 -78q250 -74 250 -667q0 -764 -670 -764zM770 221q365 0 385 426h-756q11 -225 99 -325t272 -101z" />
    <glyph glyph-name="uni04D9" unicode="&#x4d9;" horiz-adv-x="1144" 
d="M84 514q0 84 8 152h686q-8 100 -59 147t-213 47t-383 -65v213q229 80 405 79q303 0 416 -128q113 -127 113 -419t-121 -423t-372 -131t-363 123q-117 122 -117 405zM348 444q12 -236 184 -235q142 0 192 55t60 180h-436z" />
    <glyph glyph-name="uni04DA" unicode="&#x4da;" horiz-adv-x="1576" 
d="M772 -14q-647 0 -647 721v81l2 48q2 16 2 43h1026q-14 313 -164 348q-139 33 -237 33q-276 0 -572 -95v224q295 106 532 106t478 -78q250 -74 250 -667q0 -764 -670 -764zM770 221q365 0 385 426h-756q11 -225 99 -325t272 -101zM457 1808h213v-227h-213v227zM874 1808
h213v-227h-213v227z" />
    <glyph glyph-name="uni04DB" unicode="&#x4db;" horiz-adv-x="1144" 
d="M84 514q0 84 8 152h686q-8 100 -59 147t-213 47t-383 -65v213q229 80 405 79q303 0 416 -128q113 -127 113 -419t-121 -423t-372 -131t-363 123q-117 122 -117 405zM348 444q12 -236 184 -235q142 0 192 55t60 180h-436zM260 1395h213v-228h-213v228zM678 1395h213v-228
h-213v228z" />
    <glyph glyph-name="uni04DC" unicode="&#x4dc;" horiz-adv-x="1761" 
d="M733 1489h287v-600l387 600h326l-482 -664q96 0 167 -58t100 -144l213 -623h-285l-180 547q-37 111 -123 110h-123v-657h-287v657h-108q-96 0 -138 -114l-180 -543h-284l217 618q70 197 262 205l-479 666h325l385 -602v602zM561 1808h213v-227h-213v227zM979 1808h213
v-227h-213v227z" />
    <glyph glyph-name="uni04DD" unicode="&#x4dd;" horiz-adv-x="1433" 
d="M575 1075h269v-362l260 362h313l-399 -489q174 -8 242 -193l147 -393h-279l-114 336q-25 72 -60 91t-77 19h-33v-446h-269v446h-30q-43 0 -77 -19t-58 -91l-117 -336h-277l146 393q63 182 239 193l-399 489h311l262 -360v360zM401 1395h213v-228h-213v228zM819 1395h213
v-228h-213v228z" />
    <glyph glyph-name="uni04DE" unicode="&#x4de;" horiz-adv-x="1112" 
d="M227 1808h213v-227h-213v227zM645 1808h213v-227h-213v227zM977 1105q0 -200 -189 -304q242 -86 242 -375q0 -446 -510 -446q-250 0 -469 116v223q221 -100 399 -100t238 51q55 55 57 140q4 152 -88 198t-262 45h-110v238h110q299 0 299 219q0 158 -208 158t-388 -125
v219q176 141 437 141q225 -10 333 -104t109 -294z" />
    <glyph glyph-name="uni04DF" unicode="&#x4df;" horiz-adv-x="860" 
d="M762 784q0 -133 -131 -209q170 -74 170 -264q0 -344 -385 -334q-178 2 -357 111v211q205 -98 314 -102q174 -6 174 114q0 133 -219 133h-109v213h109q182 0 182 125q0 78 -111 78q-158 -6 -309 -115v211q137 113 316 119q356 12 356 -291zM106 1395h213v-228h-213v228z
M524 1395h213v-228h-213v228z" />
    <glyph glyph-name="uni04E0" unicode="&#x4e0;" horiz-adv-x="1228" 
d="M1139 248q0 -645 -584 -645q-371 0 -449 188q-78 193 -77 311h276q0 -117 68 -196q72 -76 186 -76q303 0 303 418q0 172 -106 276q-111 100 -324 101v194l363 438h-691v232h1010v-229l-366 -439q391 -92 391 -573z" />
    <glyph glyph-name="uni04E1" unicode="&#x4e1;" horiz-adv-x="983" 
d="M930 66q0 -471 -455 -465q-188 -1 -307 113t-119 323h262q0 -87 45 -151t119 -64q188 0 189 264q0 135 -78 197q-80 61 -240 61v180l270 326h-512v225h811v-221l-268 -313q283 -102 283 -475z" />
    <glyph glyph-name="uni04E2" unicode="&#x4e2;" horiz-adv-x="1437" 
d="M1303 0h-273v1135l-508 -1135h-387v1489h273v-1135l507 1135h388v-1489zM375 1769h696v-157h-696v157z" />
    <glyph glyph-name="uni04E3" unicode="&#x4e3;" horiz-adv-x="1214" 
d="M414 1075v-674l340 674h315v-1075h-272v680l-344 -680h-314v1075h275zM266 1325h697v-158h-697v158z" />
    <glyph glyph-name="uni04E4" unicode="&#x4e4;" horiz-adv-x="1437" 
d="M1303 0h-273v1135l-508 -1135h-387v1489h273v-1135l507 1135h388v-1489zM408 1808h213v-227h-213v227zM825 1808h213v-227h-213v227z" />
    <glyph glyph-name="uni04E5" unicode="&#x4e5;" horiz-adv-x="1214" 
d="M414 1075v-674l340 674h315v-1075h-272v680l-344 -680h-314v1075h275zM299 1395h213v-228h-213v228zM717 1395h213v-228h-213v228z" />
    <glyph glyph-name="uni04E6" unicode="&#x4e6;" horiz-adv-x="1406" 
d="M702 227q176 0 248 125q72 131 72 386t-71 391q-71 137 -249 137t-247 -136q-72 -137 -72 -392t72 -386q71 -125 247 -125zM700 -10q-330 0 -467 190q-73 94 -103 234t-30 424q0 285 138 477q141 188 464 188q477 0 539 -291q63 -285 63 -472q1 -383 -133 -560
q-141 -190 -471 -190zM385 1808h213v-227h-213v227zM803 1808h213v-227h-213v227z" />
    <glyph glyph-name="uni04E7" unicode="&#x4e7;" horiz-adv-x="1165" 
d="M1077 537q-1 -551 -495 -551t-498 551q0 551 498 550q495 1 495 -550zM795 528q0 334 -213 334q-111 0 -164 -76q-51 -78 -51 -258t51 -245q51 -72 161 -72t162 72q54 69 54 245zM270 1395h213v-228h-213v228zM688 1395h213v-228h-213v228z" />
    <glyph glyph-name="uni04E8" unicode="&#x4e8;" horiz-adv-x="1406" 
d="M700 -10q-330 0 -467 190q-73 94 -103 234t-30 424q0 285 138 477q141 188 464 188q477 0 539 -291q63 -285 63 -472q1 -383 -133 -560q-141 -190 -471 -190zM385 641q13 -186 77 -299t239 -115t242 114t75 300h-633zM701 1266q-177 0 -246 -136q-55 -100 -68 -280h631
q-12 178 -76 297t-241 119z" />
    <glyph glyph-name="uni04E9" unicode="&#x4e9;" horiz-adv-x="1165" 
d="M1077 537q-1 -551 -495 -551t-498 551q0 551 498 550q495 1 495 -550zM582 862q-109 -2 -156 -67q-45 -66 -55 -172h420q-29 239 -209 239zM580 209q106 0 153 61q45 61 55 164h-417q10 -102 55 -164q48 -61 154 -61z" />
    <glyph glyph-name="uni04EA" unicode="&#x4ea;" horiz-adv-x="1406" 
d="M700 -10q-330 0 -467 190q-73 94 -103 234t-30 424q0 285 138 477q141 188 464 188q477 0 539 -291q63 -285 63 -472q1 -383 -133 -560q-141 -190 -471 -190zM385 641q13 -186 77 -299t239 -115t242 114t75 300h-633zM701 1266q-177 0 -246 -136q-55 -100 -68 -280h631
q-12 178 -76 297t-241 119zM803 1808h213v-227h-213v227zM385 1808h213v-227h-213v227z" />
    <glyph glyph-name="uni04EB" unicode="&#x4eb;" horiz-adv-x="1165" 
d="M1077 537q-1 -551 -495 -551t-498 551q0 551 498 550q495 1 495 -550zM582 862q-109 -2 -156 -67q-45 -66 -55 -172h420q-29 239 -209 239zM580 209q106 0 153 61q45 61 55 164h-417q10 -102 55 -164q48 -61 154 -61zM688 1395h213v-228h-213v228zM270 1395h213v-228
h-213v228z" />
    <glyph glyph-name="uni04EC" unicode="&#x4ec;" horiz-adv-x="1189" 
d="M447 227q137 -1 247 63t133 351h-438l-80 209h518q-12 176 -83 296q-72 120 -254 120t-412 -52v216q221 74 450 73q590 0 590 -755q0 -545 -215 -650q-211 -108 -392 -108t-433 76v219q232 -58 369 -58zM242 1808h213v-227h-213v227zM659 1808h213v-227h-213v227z" />
    <glyph glyph-name="uni04ED" unicode="&#x4ed;" horiz-adv-x="976" 
d="M412 1087q276 0 390 -144t113 -404q0 -555 -462 -555q-201 0 -375 65v215q176 -49 284 -49t176 31q69 31 85 151l4 29h-322l-80 209h404q-14 153 -87 187q-72 34 -178 34t-270 -47v215q154 63 318 63zM575 1395h213v-228h-213v228zM158 1395h213v-228h-213v228z" />
    <glyph glyph-name="uni04EE" unicode="&#x4ee;" 
d="M514 438q-385 0 -385 340v649l274 82v-745q0 -96 127 -96q70 0 265 53v768h272v-1155q0 -174 -170 -289q-166 -123 -666 -8v217q143 -39 289 -39t210 28q65 28 65 128v133q-187 -66 -281 -66zM252 1769h696v-157h-696v157z" />
    <glyph glyph-name="uni04EF" unicode="&#x4ef;" 
d="M129 367v649l274 82v-746q0 -96 127 -96q70 0 265 53v768h272v-1130q0 -168 -123 -256t-312 -88t-401 47v217q143 -39 289 -39t210 28q65 28 65 128v108q-377 -135 -523 -18q-143 117 -143 293zM258 1356h696v-158h-696v158z" />
    <glyph glyph-name="uni04F0" unicode="&#x4f0;" 
d="M514 438q-385 0 -385 340v649l274 82v-745q0 -96 127 -96q70 0 265 53v768h272v-1155q0 -174 -170 -289q-166 -123 -666 -8v217q143 -39 289 -39t210 28q65 28 65 128v133q-187 -66 -281 -66zM705 1808h213v-227h-213v227zM287 1808h213v-227h-213v227z" />
    <glyph glyph-name="uni04F1" unicode="&#x4f1;" 
d="M129 367v649l274 82v-746q0 -96 127 -96q70 0 265 53v768h272v-1130q0 -168 -123 -256t-312 -88t-401 47v217q143 -39 289 -39t210 28q65 28 65 128v108q-377 -135 -523 -18q-143 117 -143 293zM707 1395h213v-228h-213v228zM289 1395h213v-228h-213v228z" />
    <glyph glyph-name="uni04F2" unicode="&#x4f2;" 
d="M514 438q-385 0 -385 340v649l274 82v-745q0 -96 127 -96q70 0 265 53v768h272v-1155q0 -174 -170 -289q-166 -123 -666 -8v217q143 -39 289 -39t210 28q65 28 65 128v133q-187 -66 -281 -66zM627 1581l127 260h241l-215 -260h-153zM303 1581l127 260h242l-215 -260h-154
z" />
    <glyph glyph-name="uni04F3" unicode="&#x4f3;" 
d="M129 367v649l274 82v-746q0 -96 127 -96q70 0 265 53v768h272v-1130q0 -168 -123 -256t-312 -88t-401 47v217q143 -39 289 -39t210 28q65 28 65 128v108q-377 -135 -523 -18q-143 117 -143 293zM662 1167l126 260h242l-215 -260h-153zM338 1167l127 260h242l-215 -260
h-154z" />
    <glyph glyph-name="uni04F4" unicode="&#x4f4;" horiz-adv-x="1228" 
d="M522 397q-393 0 -393 340v690l274 82v-786q0 -96 112 -96t300 61v801h272v-1489h-272v471q-189 -74 -293 -74zM715 1808h213v-227h-213v227zM297 1808h213v-227h-213v227z" />
    <glyph glyph-name="uni04F5" unicode="&#x4f5;" horiz-adv-x="1228" 
d="M522 276q-393 0 -393 340v394l274 82v-490q0 -96 112 -96t300 61v508h272v-1075h-272v350q-189 -74 -293 -74zM715 1395h213v-228h-213v228zM297 1395h213v-228h-213v228z" />
    <glyph glyph-name="uni04F6" unicode="&#x4f6;" horiz-adv-x="1044" 
d="M406 1251v-1147h124v-436h-282v332h-125v1489h881l-89 -238h-509z" />
    <glyph glyph-name="uni04F7" unicode="&#x4f7;" horiz-adv-x="860" 
d="M406 838v-734h131v-436h-283v332h-131v1075h719l-88 -237h-348z" />
    <glyph glyph-name="uni04F8" unicode="&#x4f8;" horiz-adv-x="1576" 
d="M418 1489v-619h162q378 0 444 -160t66 -288q0 -250 -121 -336t-389 -86h-447v1489h285zM418 223h155q125 0 177 40t53 134q0 158 -52 198t-176 40h-157v-412zM1167 1489h283v-1489h-283v1489zM473 1808h213v-227h-213v227zM891 1808h213v-227h-213v227z" />
    <glyph glyph-name="uni04F9" unicode="&#x4f9;" horiz-adv-x="1495" 
d="M401 1075v-411h193q193 0 266 -50q80 -49 111 -114q35 -63 35 -217q0 -155 -108 -219t-304 -64h-465v1075h272zM401 215h187q78 0 108 23q35 18 35 84t-34 93q-34 28 -107 27h-189v-227zM1090 1073h282v-1073h-282v1073zM434 1395h213v-228h-213v228zM852 1395h213v-228
h-213v228z" />
    <glyph glyph-name="uni04FA" unicode="&#x4fa;" horiz-adv-x="1105" 
d="M125 -174q129 0 129 119v55h-125v633h-129v237h129v619h885v-238h-602v-381h452v-237h-452v-506h125v-186q0 -156 -99 -273q-102 -115 -450 -47v213q57 -8 137 -8z" />
    <glyph glyph-name="uni04FB" unicode="&#x4fb;" horiz-adv-x="942" 
d="M135 -174q129 0 129 119v55h-135v457h-129v196h129v422h713v-217h-441v-205h281v-196h-281v-330h146v-186q0 -158 -101 -273q-98 -119 -458 -47v213q57 -8 147 -8z" />
    <glyph glyph-name="uni04FC" unicode="&#x4fc;" horiz-adv-x="1310" 
d="M1004 -43q0 33 -35 92h2l-328 483l-356 -532h-289l502 745l-502 744h291l354 -528l354 528h289l-500 -744l355 -528q88 -131 88 -219q0 -154 -116 -245t-261 -136l-92 176q244 115 244 164z" />
    <glyph glyph-name="uni04FD" unicode="&#x4fd;" horiz-adv-x="1089" 
d="M1022 -2q0 -152 -100 -237t-252 -150l-105 184q41 25 82 43q143 76 144 129q0 29 -35 76l-232 299l-262 -342h-301l414 539l-414 536h301l262 -342l262 342h301l-413 -538l244 -316q104 -137 104 -223z" />
    <glyph glyph-name="uni04FE" unicode="&#x4fe;" horiz-adv-x="1310" 
d="M172 860h246l-404 629h326l315 -494l320 494h321l-405 -629h244v-217h-252l413 -643h-323l-318 492l-317 -492h-324l414 643h-256v217z" />
    <glyph glyph-name="uni04FF" unicode="&#x4ff;" horiz-adv-x="1089" 
d="M973 637v-197h-203l324 -440h-310l-239 326l-238 -326h-309l321 440h-206v197h204l-319 438h309l238 -327l239 327h310l-322 -438h201z" />
  </font>
</defs>
</svg>
