<?xml version="1.0" standalone="no"?>
<!DOCTYPE svg PUBLIC "-//W3C//DTD SVG 1.1//EN" "http://www.w3.org/Graphics/SVG/1.1/DTD/svg11.dtd" >
<svg xmlns="http://www.w3.org/2000/svg">
<metadata>
Created by FontPrep 20130207 at Sun Nov 16 23:00:15 2014
 By Leonid Frolov
Copyright (c) 2012 Sandoll Communications Inc. All rights reserved.
</metadata>
<defs>
<font id="c179bd011f13a094a43732d4a0d24bc6" horiz-adv-x='1024' >
  <font-face 
    font-family="KIAL"
    font-weight="400"
    font-stretch="normal"
    units-per-em="2048"
    panose-1="2 0 5 3 0 0 0 0 0 0"
    ascent="1638"
    descent="-410"
    x-height="1075"
    cap-height="1489"
    bbox="-1161 -416.547 2347 1978"
    underline-thickness="102"
    underline-position="-102"
    unicode-range="U+0001-04FF"
  />
<missing-glyph horiz-adv-x="1024" 
 />
    <glyph glyph-name=".notdef" horiz-adv-x="1024" 
 />
    <glyph glyph-name=".null" horiz-adv-x="0" 
 />
    <glyph glyph-name="nonmarkingreturn" horiz-adv-x="681" 
 />
    <glyph glyph-name="uni0001" horiz-adv-x="573" 
 />
    <glyph glyph-name="exclam" unicode="!" horiz-adv-x="591" 
d="M371 1491q-20 -764 -25 -1049h-98l-23 1049h146zM221 193h146v-193h-146v193z" />
    <glyph glyph-name="quotedbl" unicode="&#x22;" horiz-adv-x="761" 
d="M141 1485h131v-445h-131v445zM492 1485h131v-445h-131v445z" />
    <glyph glyph-name="numbersign" unicode="#" horiz-adv-x="1249" 
d="M63 479v117h254l52 313h-250v117h270l72 438h117l-72 -438h340l72 438h116l-71 -438h227v-117h-246l-51 -313h242v-117h-261l-73 -463h-117l74 463h-344l-76 -463h-117l76 463h-234zM434 596h342l51 313h-342z" />
    <glyph glyph-name="dollar" unicode="$" horiz-adv-x="1187" 
d="M92 1102q0 319 447 342v147h127v-147q166 -8 354 -62v-90q-193 33 -354 43v-524q18 -6 64 -19t140 -49q93 -35 160 -104q72 -68 72 -190q0 -379 -436 -406v-188h-127v186q-229 12 -418 65v95q219 -43 418 -47v565q-109 31 -197 63q-250 91 -250 320zM963 414
q0 123 -62 174q-53 49 -131 71q-6 2 -104 29v-532q297 37 297 258zM229 1114q-1 -117 59 -170t112 -65t96 -25l43 -12v493q-310 -12 -310 -221z" />
    <glyph glyph-name="percent" unicode="%" horiz-adv-x="1808" 
d="M423 692q-145 0 -235 102t-90 289q0 285 126 345t235 61q109 0 196 -113q88 -109 88 -295t-88 -286q-86 -103 -232 -103zM1321 1513h141l-987 -1546h-143zM422 1380q-197 0 -197 -292t197 -291q197 -1 197 291t-197 292zM1391 -2q-145 0 -235 101t-89 290q0 285 127 345
q126 60 234 60t196 -111q88 -112 88 -295q0 -182 -88 -286t-233 -104zM1391 686q-197 0 -197 -292t197 -292t197 292t-197 292z" />
    <glyph glyph-name="ampersand" unicode="&#x26;" horiz-adv-x="1357" 
d="M88 379q0 276 350 446q-156 193 -156 350t101 242q104 82 258 82t247 -78t93 -225q0 -205 -137 -291q-137 -90 -205 -123l381 -444q86 150 110 364h95q-18 -276 -138 -444l209 -248h-155l-131 152q-164 -176 -410 -176t-379 99t-133 294zM311 176q96 -82 243 -79
q146 3 230 36t158 107l-432 499q-283 -147 -289 -338q-2 -141 90 -225zM856 1192q0 207 -215 207q-229 0 -229 -223q0 -119 108 -252l47 -58q207 102 248 184t41 142z" />
    <glyph glyph-name="quotesingle" unicode="'" horiz-adv-x="428" 
d="M150 1485h133v-445h-133v445z" />
    <glyph glyph-name="parenleft" unicode="(" horiz-adv-x="716" 
d="M150 724q0 519 387 906h88q-346 -414 -346 -887v-18q0 -358 137 -590q141 -231 209 -317h-88q-387 387 -387 906z" />
    <glyph glyph-name="parenright" unicode=")" horiz-adv-x="716" 
d="M569 724q0 -519 -387 -906h-88q238 293 295 540q51 252 51 367v18q0 473 -346 887h88q387 -387 387 -906z" />
    <glyph glyph-name="asterisk" unicode="*" horiz-adv-x="796" 
d="M367 862l-209 -135l-54 84l218 111l-211 108l45 88l213 -139l-13 262h93l-11 -262l205 139l47 -88l-215 -108l217 -111l-49 -84l-205 135l11 -256h-93z" />
    <glyph glyph-name="plus" unicode="+" horiz-adv-x="1085" 
d="M483 705h-377v102h377v395h119v-395h377v-102h-377v-398h-119v398z" />
    <glyph glyph-name="comma" unicode="," horiz-adv-x="532" 
d="M231 283h160l-178 -445h-107z" />
    <glyph glyph-name="hyphen" unicode="-" horiz-adv-x="1085" 
d="M143 815h799v-113h-799v113z" />
    <glyph glyph-name="period" unicode="." horiz-adv-x="532" 
d="M195 207h143v-201h-143v201z" />
    <glyph glyph-name="slash" unicode="/" horiz-adv-x="819" 
d="M602 1604h131l-493 -1760h-129z" />
    <glyph glyph-name="zero" unicode="0" horiz-adv-x="1300" 
d="M117 653q-1 676 209 763t533 87t323 -763t-532 -763t-533 676zM651 90q205 0 293 153t88 483t-88 495q-88 170 -294 170t-295 -169t-89 -496q0 -328 90 -482t295 -154z" />
    <glyph glyph-name="one" unicode="1" horiz-adv-x="860" 
d="M578 0h-142v1358l-284 -49v100l426 100v-1509z" />
    <glyph glyph-name="two" unicode="2" horiz-adv-x="1146" 
d="M546 1499q200 0 318 -98q117 -103 117 -331t-150 -400q-172 -188 -251 -264l-312 -293h779l-43 -113h-881v137l356 334q355 360 355 565t-81 276q-81 72 -269 68t-347 -43v97q209 65 409 65z" />
    <glyph glyph-name="three" unicode="3" horiz-adv-x="1112" 
d="M487 1499q459 0 459 -350q0 -264 -287 -363q348 -66 349 -393q-2 -414 -490 -413q-219 0 -446 63v92q216 -41 416 -41t285 76t87 199q2 205 -119 278q-123 70 -360 70h-59v110h59q283 0 353 110t69 218q0 221 -316 229q-213 0 -364 -43v95q196 63 364 63z" />
    <glyph glyph-name="four" unicode="4" horiz-adv-x="1228" 
d="M795 324h-742v147l678 1018h199v-1053h289l-39 -112h-250v-324h-135v324zM795 436v934l-621 -934h621z" />
    <glyph glyph-name="five" unicode="5" horiz-adv-x="1073" 
d="M492 901q496 0 495 -459q0 -459 -467 -460q-225 0 -448 61v100q236 -49 417 -49q350 0 351 342q0 207 -94 280q-94 72 -286 72t-327 -12l37 713h788l-45 -111h-606l-26 -491q94 14 211 14z" />
    <glyph glyph-name="six" unicode="6" horiz-adv-x="1245" 
d="M639 90q356 0 356 326q1 238 -77 306t-256 69q-178 0 -396 -84v-23q0 -316 56 -416t129 -137q73 -41 188 -41zM692 1497q150 0 361 -57v-94q-195 45 -328 45q-244 0 -349 -124t-108 -411v-51q207 100 437 100q436 0 436 -430q-1 -354 -185 -426t-305 -72q-535 2 -534 674
q-1 532 153 689t422 157z" />
    <glyph glyph-name="seven" unicode="7" horiz-adv-x="1085" 
d="M76 1366v117h934v-137l-641 -1346h-150l655 1366h-798z" />
    <glyph glyph-name="eight" unicode="8" horiz-adv-x="1280" 
d="M1180 373q0 -176 -144 -287q-139 -113 -401 -113q-381 0 -455 156q-78 154 -78 244q0 264 379 393q-334 141 -334 373q0 168 129 266q127 102 357 102q346 0 417 -145t70 -223q0 -244 -319 -373q379 -139 379 -393zM650 84q192 0 288 84q98 80 98 205q0 186 -157 258
q-160 70 -238 84q-273 -51 -333 -165t-60 -177q0 -133 104 -213q106 -76 298 -76zM973 1135q0 123 -81 193t-254 69q-173 0 -258 -70q-85 -71 -85 -193t89 -193t259 -122q168 53 246 123q84 70 84 193z" />
    <glyph glyph-name="nine" unicode="9" horiz-adv-x="1253" 
d="M618 1384q-356 0 -356 -340q0 -244 80 -323q82 -78 257 -78t392 84v43q0 316 -55 422t-129 149q-78 43 -189 43zM559 528q-221 0 -334 119q-109 125 -108 332q0 365 182 441t307 77q287 0 411 -181t124 -523q0 -748 -248 -782t-363 -34t-325 58v94q195 -45 327 -45
q242 0 345 121q102 121 112 413v11q-209 -101 -430 -101z" />
    <glyph glyph-name="colon" unicode=":" horiz-adv-x="546" 
d="M209 1188h135v-197h-135v197zM209 477h135v-196h-135v196z" />
    <glyph glyph-name="semicolon" unicode=";" horiz-adv-x="503" 
d="M188 1188h138v-197h-138v197zM180 477h160l-172 -440h-107z" />
    <glyph glyph-name="less" unicode="&#x3c;" horiz-adv-x="1085" 
d="M156 688v131l774 490v-127l-678 -428l678 -428v-127z" />
    <glyph glyph-name="equal" unicode="=" horiz-adv-x="1085" 
d="M104 1010h877v-109h-877v109zM104 610h877v-110h-877v110z" />
    <glyph glyph-name="greater" unicode="&#x3e;" horiz-adv-x="1085" 
d="M156 199v127l678 428l-678 428v127l774 -490v-131z" />
    <glyph glyph-name="question" unicode="?" horiz-adv-x="962" 
d="M342 193h145v-193h-145v193zM469 453v-82h-109v102q0 100 50 166q47 66 139 145q92 86 139 163t47 206q0 279 -317 279q-147 0 -316 -46v93q213 65 373 65t279 -90q113 -94 112 -289q0 -248 -209 -436q-106 -96 -151 -147q-37 -49 -37 -129z" />
    <glyph glyph-name="at" unicode="@" horiz-adv-x="1867" 
d="M932 -381q-387 0 -600 201q-213 200 -213 574t237 659q240 283 662 282q328 0 528 -200q199 -201 199 -504t-117 -464q-118 -161 -310 -161t-228 129q-58 -57 -142 -93t-145 -36q-133 0 -201 90q-72 86 -72 234q0 276 115 434t311 158q125 0 258 -107l17 86h117
l-121 -659q-10 -117 96 -117q141 0 221 123q78 125 78 307q0 334 -156 502t-450 168q-367 0 -570 -240t-202 -598q0 -473 258 -567t439 -94t439 86v-105q-251 -88 -448 -88zM840 115q119 0 252 114q10 61 32 173t36 197q15 85 24 132q-84 76 -192 76t-160 -34t-111 -126
q-51 -96 -51 -248q0 -284 170 -284z" />
    <glyph glyph-name="A" unicode="A" horiz-adv-x="1333" 
d="M1001 403h-669l-137 -403h-140l516 1489h193l516 -1489h-139zM371 514h594l-297 866z" />
    <glyph glyph-name="B" unicode="B" horiz-adv-x="1316" 
d="M1202 403q0 -403 -465 -403h-581v1489h559q240 0 342 -97q102 -96 98 -310t-209 -314q128 -47 192 -129t64 -236zM700 811q309 0 310 285q0 160 -84 219q-78 63 -226 63h-405v-567h405zM745 111q309 0 310 292q0 160 -81 229t-229 68h-450v-589h450z" />
    <glyph glyph-name="C" unicode="C" horiz-adv-x="1189" 
d="M117 745q0 758 571 758q223 0 420 -61v-94q-211 41 -381 41q-463 0 -463 -645t465 -640q145 0 379 46v-99q-223 -61 -399 -61q-592 -3 -592 755z" />
    <glyph glyph-name="D" unicode="D" horiz-adv-x="1378" 
d="M156 0v1489h522q469 0 522 -278t53 -441q0 -374 -123 -572t-452 -198h-522zM1106 856q0 221 -93 371t-358 149h-360v-1263h360q379 0 414 262q37 260 37 481z" />
    <glyph glyph-name="E" unicode="E" horiz-adv-x="1230" 
d="M156 1489h974v-113h-833v-565h799l-41 -115h-758v-583h833v-113h-974v1489z" />
    <glyph glyph-name="F" unicode="F" horiz-adv-x="1171" 
d="M156 1489h936v-113h-797v-563h731l-41 -115h-690v-698h-139v1489z" />
    <glyph glyph-name="G" unicode="G" horiz-adv-x="1396" 
d="M723 100q135 0 381 78v500h-455v110h594v-788h-139v82q-213 -92 -389 -92q-317 0 -459 200t-141 558q0 756 581 755q246 0 453 -61v-94q-250 49 -459 41q-428 -17 -428 -653t461 -636z" />
    <glyph glyph-name="H" unicode="H" horiz-adv-x="1404" 
d="M1110 698h-815v-698h-139v1489h139v-674h815v674h139v-1489h-139v698z" />
    <glyph glyph-name="I" unicode="I" horiz-adv-x="495" 
d="M178 1489h141v-1489h-141v1489z" />
    <glyph glyph-name="J" unicode="J" horiz-adv-x="808" 
d="M506 317v1172h141v-1204q0 -133 -77 -235q-78 -102 -290 -68q-212 33 -233 38v101q326 -63 395 2q64 69 64 194z" />
    <glyph glyph-name="K" unicode="K" horiz-adv-x="1294" 
d="M164 1489h137v-680l741 680h175l-787 -731l797 -758h-180l-746 709v-709h-137v1489z" />
    <glyph glyph-name="L" unicode="L" horiz-adv-x="1105" 
d="M156 0v1489h139v-1376h754l-43 -113h-850z" />
    <glyph glyph-name="M" unicode="M" horiz-adv-x="1742" 
d="M293 0h-133v1489h231l479 -1323l484 1323h229v-1489h-131v1370l-485 -1313h-193l-481 1313v-1370z" />
    <glyph glyph-name="N" unicode="N" horiz-adv-x="1437" 
d="M160 1489h211l776 -1374v1374h131v-1489h-211l-778 1368v-1368h-129v1489z" />
    <glyph glyph-name="O" unicode="O" horiz-adv-x="1406" 
d="M702 1393q-244 0 -342 -168q-96 -151 -96 -490q0 -157 22 -279t99 -239q79 -117 319 -117t339 148t100 487q0 496 -159 577t-282 81zM700 -10q-461 0 -522 278t-61 466q1 186 29 330t98 242t182 147q112 50 352 50t375 -191q135 -190 135 -576t-133 -568
q-135 -178 -455 -178z" />
    <glyph glyph-name="P" unicode="P" horiz-adv-x="1314" 
d="M733 1489q469 0 469 -504t-469 -504h-438v-481h-139v1489h577zM1055 989q0 387 -348 387h-412v-782h412q182 0 265 99t83 296z" />
    <glyph glyph-name="Q" unicode="Q" horiz-adv-x="1406" 
d="M639 -10q-96 0 -209 46t-184 140q-131 181 -129 559q0 395 127 571q70 98 182 147q112 50 352 50t375 -191t135 -577q0 -621 -352 -715l244 -299h-164l-219 273q-62 -4 -158 -4zM702 1393q-244 0 -342 -168q-96 -151 -96 -490q0 -157 22 -279t99 -239q79 -117 319 -117
t339 148t100 487q0 496 -159 577t-282 81z" />
    <glyph glyph-name="R" unicode="R" horiz-adv-x="1337" 
d="M1208 1020q0 -379 -297 -455l318 -565h-158l-299 543h-479v-543h-137v1489h575q244 0 359 -113q118 -110 118 -356zM705 655q356 0 356 365q0 188 -88 272t-266 84h-414v-721h412z" />
    <glyph glyph-name="S" unicode="S" horiz-adv-x="1206" 
d="M242 1135q0 -145 90 -205t260 -103q296 -73 406 -161t110 -276t-163 -313q-163 -126 -436 -89t-384 67v99q297 -53 477 -54q365 0 363 314q-1 166 -149 218t-251 77q-231 59 -348 151t-117 267t125 275t369 98q244 -3 436 -64v-97q-236 49 -397 54q-391 0 -391 -258z" />
    <glyph glyph-name="T" unicode="T" horiz-adv-x="1325" 
d="M57 1489h1231l-41 -115h-516v-1374h-139v1374h-535v115z" />
    <glyph glyph-name="U" unicode="U" horiz-adv-x="1384" 
d="M692 104q395 0 395 359v1026h142v-1028q0 -252 -139 -362q-140 -109 -398 -109t-397 110t-139 361v1028h141v-1026q0 -359 395 -359z" />
    <glyph glyph-name="V" unicode="V" horiz-adv-x="1349" 
d="M1298 1489l-526 -1489h-192l-529 1489h142l483 -1380l481 1380h141z" />
    <glyph glyph-name="W" unicode="W" horiz-adv-x="1908" 
d="M1053 1489l348 -1378l328 1378h141l-375 -1489h-190l-349 1370l-348 -1370h-190l-375 1489h141l328 -1376l348 1376h193z" />
    <glyph glyph-name="X" unicode="X" horiz-adv-x="1310" 
d="M575 743l-522 746h160l442 -633l443 633h155l-520 -744l522 -745h-159l-443 633l-444 -633h-154z" />
    <glyph glyph-name="Y" unicode="Y" horiz-adv-x="1314" 
d="M731 0h-143v659l-535 830h154l452 -709l451 709h154l-533 -830v-659z" />
    <glyph glyph-name="Z" unicode="Z" horiz-adv-x="1220" 
d="M125 1489h960v-137l-811 -1237h846l-43 -115h-938v139l811 1235h-825v115z" />
    <glyph glyph-name="bracketleft" unicode="[" horiz-adv-x="694" 
d="M612 1503h-342v-1562h342v-109h-469v1784h469v-113z" />
    <glyph glyph-name="backslash" unicode="\" horiz-adv-x="1908" 
d="M1880 905v-117h-219l-166 -788h-190l-201 788h-295l-201 -788h-190l-166 788h-221v117h196l-123 584h142l112 -584h355l147 584h193l147 -584h354l113 584h141l-122 -584h194zM1401 111l131 677h-303zM512 113l170 675h-301zM838 905h235l-117 465z" />
    <glyph glyph-name="bracketright" unicode="]" horiz-adv-x="694" 
d="M82 1616h469v-1784h-469v109h342v1562h-342v113z" />
    <glyph glyph-name="asciicircum" unicode="^" horiz-adv-x="1161" 
d="M575 1452l-327 -604h-125l389 713h127l399 -713h-125z" />
    <glyph glyph-name="underscore" unicode="_" horiz-adv-x="1120" 
d="M1036 -223v-101h-952v101h952z" />
    <glyph glyph-name="grave" unicode="`" horiz-adv-x="528" 
d="M373 1139h-92l-131 444h149z" />
    <glyph glyph-name="a" unicode="a" horiz-adv-x="1144" 
d="M524 1087q477 0 477 -317v-770h-133v111q-219 -125 -409 -125q-362 0 -363 315q0 109 68 223q63 111 283 129t413 19v55q0 162 -95 208t-269 43t-303 -24v95q188 38 331 38zM246 315q0 -227 258 -227q178 0 356 117v377q-457 0 -536 -84q-78 -85 -78 -183z" />
    <glyph glyph-name="b" unicode="b" horiz-adv-x="1175" 
d="M637 1085q125 0 211 -36q163 -83 207 -283q23 -102 23 -296t-100 -337q-99 -143 -335 -143q-141 0 -356 98v-88h-142v1501l142 41v-532q225 75 350 75zM610 94q186 0 252 115t66 270q0 270 -96 433t-545 -7v-717q214 -94 323 -94z" />
    <glyph glyph-name="c" unicode="c" horiz-adv-x="976" 
d="M636 92q122 0 269 37v-88q-158 -57 -311 -57q-266 0 -381 147q-117 143 -117 410q0 391 174 471q176 76 314 76t305 -58v-88q-139 35 -256 35q-223 0 -309 -111q-84 -114 -84 -276t18 -242q38 -171 184 -228q72 -28 194 -28z" />
    <glyph glyph-name="d" unicode="d" horiz-adv-x="1175" 
d="M100 540q0 405 158 474q156 72 282 72t351 -76v491l141 41v-1542h-141v88q-351 -160 -571 -56t-220 508zM559 94q117 0 332 94v717q-184 70 -307 70q-201 0 -269 -111q-66 -116 -66 -328t66 -327t244 -115z" />
    <glyph glyph-name="e" unicode="e" horiz-adv-x="1144" 
d="M584 1087q463 0 463 -522v-37q0 -45 -3 -59h-804q8 -199 84 -289q80 -88 280 -88t397 53v-94q-389 -127 -731 -2q-172 61 -172 477q1 561 486 561zM584 981q-260 0 -301 -154q-37 -154 -43 -260h671q-2 209 -75 314q-74 100 -252 100z" />
    <glyph glyph-name="f" unicode="f" horiz-adv-x="849" 
d="M430 1225v-172h354v-115h-354v-938h-141v938h-252v115h252v168q0 451 534 280v-92q-113 27 -214 27t-140 -47t-39 -164z" />
    <glyph glyph-name="g" unicode="g" horiz-adv-x="1169" 
d="M524 969q-148 1 -212 -95t-64 -245q0 -266 66 -375t214 -109q150 0 359 78v656q-216 90 -363 90zM555 39q-253 0 -355 135t-102 390t99 386q102 129 340 129q158 -4 350 -102v98h139v-1153q0 -154 -117 -237q-119 -82 -307 -82t-377 39v100q156 -31 258 -31q221 0 316 47
q88 47 88 207v162q-188 -88 -332 -88z" />
    <glyph glyph-name="h" unicode="h" horiz-adv-x="1200" 
d="M915 774q0 205 -239 205q-121 0 -252 -57t-139 -60v-862h-140v1499l140 41v-569q500 223 636 82t136 -279v-774h-142v774z" />
    <glyph glyph-name="i" unicode="i" horiz-adv-x="473" 
d="M164 1075h141v-1075h-141v1075zM164 1489h141v-240h-141v240z" />
    <glyph glyph-name="j" unicode="j" horiz-adv-x="471" 
d="M305 1075v-1132q0 -319 -268 -336q-133 -4 -232 22v92q14 0 67 -8q52 -8 130 -11t122 46t42 152v1175h139zM164 1489h141v-240h-141v240z" />
    <glyph glyph-name="k" unicode="k" horiz-adv-x="1081" 
d="M154 0v1499l139 41v-938l545 473h180l-604 -522l608 -553h-176l-553 500v-500h-139z" />
    <glyph glyph-name="l" unicode="l" horiz-adv-x="473" 
d="M309 0h-141v1501l141 41v-1542z" />
    <glyph glyph-name="m" unicode="m" horiz-adv-x="1892" 
d="M885 774q0 211 -234 211q-115 0 -364 -100v-885h-140v1055l140 41v-119q252 115 421 115t242 -91l19 -24q260 115 479 115t256 -125q41 -121 41 -193v-774h-139v774q0 113 -60 162t-178 49q-117 0 -203 -36t-116 -46t-39 -16q16 -59 16 -113v-774h-141v774z" />
    <glyph glyph-name="n" unicode="n" 
d="M676 977q-90 0 -391 -115v-862h-140v1055l140 41v-129q500 223 636 82t136 -279v-770h-142v770q1 207 -239 207z" />
    <glyph glyph-name="o" unicode="o" horiz-adv-x="1165" 
d="M98 524q0 563 482 563t487 -563q0 -391 -177 -465t-304 -73q-246 0 -367 142t-121 396zM920 524q0 344 -128 402t-204 57q-342 1 -342 -445t342 -450q332 0 332 436z" />
    <glyph glyph-name="p" unicode="p" horiz-adv-x="1173" 
d="M633 -4q-133 0 -346 67v-423l-142 -41v1456l142 41v-105q340 162 567 62q224 -103 224 -505t-156 -477t-289 -75zM287 166q164 -60 294 -64q131 -4 239 60t108 334t-98 435q-97 165 -543 -36v-729z" />
    <glyph glyph-name="q" unicode="q" horiz-adv-x="1173" 
d="M543 -4q-244 0 -344 145t-101 412q0 395 224 500q227 100 567 -62v84h141v-1435l-141 -41v464q-213 -67 -346 -67zM573 985q-195 0 -262 -108q-63 -115 -63 -326t67 -334q70 -119 240 -116t334 65v729q-203 90 -316 90z" />
    <glyph glyph-name="r" unicode="r" horiz-adv-x="862" 
d="M143 0v1053l142 41v-107q258 117 516 92v-114q-184 23 -404 -39q-61 -14 -112 -37v-889h-142z" />
    <glyph glyph-name="s" unicode="s" horiz-adv-x="1056" 
d="M487 88q322 0 326 164q0 78 -11 110q-10 32 -58 64q-48 33 -199 63q-258 51 -352 121t-95 174q0 172 157 266t644 -14v-94q-229 43 -395 43q-262 0 -262 -162q0 -94 60 -135t257 -82q197 -42 297 -116t100 -220q0 -287 -456 -284q-188 0 -385 53v94q194 -45 372 -45z" />
    <glyph glyph-name="t" unicode="t" horiz-adv-x="847" 
d="M289 297v653h-258v111h258v328l141 41v-369h361v-111h-361v-659q0 -119 54 -182t343 2v-99q-457 -113 -499 54q-39 176 -39 231z" />
    <glyph glyph-name="u" unicode="u" 
d="M283 283q0 -103 61 -147t180 -44t389 101v882h142v-1075h-142v96q-264 -111 -434 -110q-231 0 -284 112q-51 115 -52 201v752l140 41v-809z" />
    <glyph glyph-name="v" unicode="v" horiz-adv-x="1073" 
d="M453 0l-412 1075h127l369 -969l368 969h127l-411 -1075h-168z" />
    <glyph glyph-name="w" unicode="w" horiz-adv-x="1679" 
d="M158 1075l303 -969l291 969h176l289 -966l301 966h131l-349 -1075h-170l-290 954l-293 -954h-170l-350 1075h131z" />
    <glyph glyph-name="x" unicode="x" horiz-adv-x="1089" 
d="M545 631l356 444h152l-432 -538l432 -537h-152l-356 442l-357 -442h-151l432 537l-432 538h151z" />
    <glyph glyph-name="y" unicode="y" 
d="M1042 -74q0 -319 -467 -319q-133 0 -321 39v90q141 -23 240 -23q219 0 313 46t94 210v166q-258 -104 -422 -104q-231 0 -284 112q-51 115 -52 201v711l140 41v-768q0 -190 229 -191q109 0 205 33l184 61v844h141v-1149z" />
    <glyph glyph-name="z" unicode="z" horiz-adv-x="1054" 
d="M117 1075h827v-123l-692 -839h711l-45 -113h-799v137l692 828h-694v110z" />
    <glyph glyph-name="braceleft" unicode="{" horiz-adv-x="860" 
d="M477 51q0 -119 127 -119h168v-98h-207q-209 0 -209 219v385q0 123 -53 168q-49 49 -199 62v108q150 12 201 62t51 170v385q0 221 209 221h207v-101h-168q-66 -1 -96 -29t-31 -89v-396q0 -221 -219 -268v-10q219 -47 219 -270v-400z" />
    <glyph glyph-name="bar" unicode="|" horiz-adv-x="612" 
d="M236 1616h139v-1784h-139v1784z" />
    <glyph glyph-name="braceright" unicode="}" horiz-adv-x="860" 
d="M272 -68q129 0 127 119v400q0 223 219 270v10q-219 47 -219 268v396q0 61 -30 92q-31 27 -97 26h-168v101h207q209 0 209 -221v-385q0 -119 51 -169t201 -63v-108q-150 -12 -199 -62q-53 -45 -53 -168v-385q0 -219 -209 -219h-207v98h168z" />
    <glyph glyph-name="asciitilde" unicode="~" horiz-adv-x="946" 
d="M281 788q-84 0 -175 -108l-53 37q33 94 103 136t150 42t202 -102q68 -43 94 -58t77 -11q52 4 90 41q38 38 62 71l54 -39q-78 -178 -232 -179q-76 2 -186 87q-102 83 -186 83z" />
    <glyph glyph-name="uni0400" unicode="&#x400;" horiz-adv-x="1230" 
d="M156 1489h974v-113h-833v-565h799l-41 -115h-758v-583h833v-113h-974v1489zM637 1581l-215 260h190l127 -260h-102z" />
    <glyph glyph-name="uni0401" unicode="&#x401;" horiz-adv-x="1230" 
d="M156 1489h974v-113h-833v-565h799l-41 -115h-758v-583h833v-113h-974v1489zM369 1778h186v-197h-186v197zM780 1778h187v-197h-187v197z" />
    <glyph glyph-name="uni0402" unicode="&#x402;" horiz-adv-x="1617" 
d="M57 1489h1231l-41 -115h-516v-370q197 78 357 78t241 -39q164 -76 207 -277q23 -106 23 -299t-101 -332q-96 -145 -334 -145h-24v106q256 0 282 174q27 168 27 269q0 209 -66 321q-69 109 -255 109t-357 -70v-899h-139v1374h-535v115z" />
    <glyph glyph-name="uni0403" unicode="&#x403;" horiz-adv-x="1044" 
d="M295 1376v-1376h-139v1489h841l-41 -113h-661zM453 1581l127 260h200l-215 -260h-112z" />
    <glyph glyph-name="uni0404" unicode="&#x404;" horiz-adv-x="1189" 
d="M117 745q0 758 571 758q223 0 420 -61v-94q-211 41 -385 41q-436 0 -459 -582h621l-41 -113h-580q10 -590 465 -590q145 0 379 46v-99q-223 -61 -399 -61q-592 -3 -592 755z" />
    <glyph glyph-name="uni0405" unicode="&#x405;" horiz-adv-x="1206" 
d="M242 1135q0 -145 90 -205t260 -103q296 -73 406 -161t110 -276t-163 -313q-163 -126 -436 -89t-384 67v99q297 -53 477 -54q365 0 363 314q-1 166 -149 218t-251 77q-231 59 -348 151t-117 267t125 275t369 98q244 -3 436 -64v-97q-236 49 -397 54q-391 0 -391 -258z" />
    <glyph glyph-name="uni0406" unicode="&#x406;" horiz-adv-x="495" 
d="M178 1489h141v-1489h-141v1489z" />
    <glyph glyph-name="uni0407" unicode="&#x407;" horiz-adv-x="516" 
d="M0 1778h186v-197h-186v197zM330 1778h186v-197h-186v197zM190 1489h142v-1489h-142v1489z" />
    <glyph glyph-name="uni0408" unicode="&#x408;" horiz-adv-x="808" 
d="M506 317v1172h141v-1204q0 -133 -77 -235q-78 -102 -290 -68q-212 33 -233 38v101q326 -63 395 2q64 69 64 194z" />
    <glyph glyph-name="uni0409" unicode="&#x409;" horiz-adv-x="2088" 
d="M465 317v1172h766v-678h315q250 0 359 -102q106 -104 106 -306q0 -403 -465 -403h-454v1376h-486v-1091q0 -133 -69 -228q-76 -92 -248 -73q-174 12 -248 34v103q299 -59 360 6q64 63 64 190zM1554 111q309 0 310 292q0 160 -70 230q-74 68 -240 67h-323v-589h323z" />
    <glyph glyph-name="uni040A" unicode="&#x40a;" horiz-adv-x="1822" 
d="M1712 403q0 -403 -465 -403h-403v698h-549v-698h-139v1489h139v-674h549v674h139v-678h264q250 0 359 -102q106 -105 106 -306zM1255 111q309 0 310 292q0 160 -70 230q-74 68 -240 67h-272v-589h272z" />
    <glyph glyph-name="uni040B" unicode="&#x40b;" horiz-adv-x="1597" 
d="M1329 666q0 205 -239 204q-125 0 -359 -102v-768h-139v1374h-535v115h1231l-41 -115h-516v-497q481 197 610 61t129 -272v-666h-141v666z" />
    <glyph glyph-name="uni040C" unicode="&#x40c;" horiz-adv-x="1294" 
d="M164 1489h137v-680l741 680h175l-787 -731l797 -758h-180l-746 709v-709h-137v1489zM524 1581l127 260h191l-215 -260h-103z" />
    <glyph glyph-name="uni040D" unicode="&#x40d;" horiz-adv-x="1437" 
d="M1278 0h-129v1368l-778 -1368h-211v1489h131v-1374l776 1374h211v-1489zM721 1581l-215 260h190l127 -260h-102z" />
    <glyph glyph-name="uni040E" unicode="&#x40e;" 
d="M1042 311q0 -319 -467 -319q-133 0 -321 39v90q141 -23 240 -23q219 0 313 46t94 210v195q-264 -104 -377 -105q-196 0 -288 76t-93 238v710l140 41v-768q0 -104 61 -147t177 -43t380 94v844h141v-1178zM592 1683q125 0 170 129h112q-2 -94 -59 -143q-51 -49 -101 -68
t-146 -19t-168 69q-73 70 -72 161h110q29 -129 154 -129z" />
    <glyph glyph-name="uni040F" unicode="&#x40f;" horiz-adv-x="1384" 
d="M616 0h-458v1489h139v-1376h795v1376h139v-1489h-475v-399h-140v399z" />
    <glyph glyph-name="uni0410" unicode="&#x410;" horiz-adv-x="1333" 
d="M1001 403h-669l-137 -403h-140l516 1489h193l516 -1489h-139zM371 514h594l-297 866z" />
    <glyph glyph-name="uni0411" unicode="&#x411;" 
d="M1090 403q0 -403 -465 -403h-441v1489h803v-113h-663v-565h301q250 0 358 -102q107 -105 107 -306zM633 111q309 0 309 292q0 160 -70 230q-74 68 -239 67h-309v-589h309z" />
    <glyph glyph-name="uni0412" unicode="&#x412;" horiz-adv-x="1316" 
d="M1202 403q0 -403 -465 -403h-581v1489h559q240 0 342 -97q102 -96 98 -310t-209 -314q128 -47 192 -129t64 -236zM700 811q309 0 310 285q0 160 -84 219q-78 63 -226 63h-405v-567h405zM745 111q309 0 310 292q0 160 -81 229t-229 68h-450v-589h450z" />
    <glyph glyph-name="uni0413" unicode="&#x413;" horiz-adv-x="1044" 
d="M295 1376v-1376h-139v1489h841l-41 -113h-661z" />
    <glyph glyph-name="uni0414" unicode="&#x414;" horiz-adv-x="1382" 
d="M1169 1489v-1354h129v-534h-141v426h-981v-426h-141v534h104q131 250 172 447q47 195 47 516v391h811zM504 1036q0 -518 -209 -901h735v1245h-526v-344z" />
    <glyph glyph-name="uni0415" unicode="&#x415;" horiz-adv-x="1230" 
d="M156 1489h974v-113h-833v-565h799l-41 -115h-758v-583h833v-113h-974v1489z" />
    <glyph glyph-name="uni0416" unicode="&#x416;" horiz-adv-x="1757" 
d="M952 690v-690h-147v690h-211q-164 0 -213 -143q-33 -95 -93 -265t-98 -282h-139l105 295q42 116 82 227t93 190q54 79 273 79q-111 141 -256 344q-47 61 -138 183t-130 171h158l505 -698h62v698h147v-698h60l506 698h159l-532 -703q168 0 241 -49q74 -45 111 -141
q43 -132 111 -318t96 -278h-141l-185 537q-55 154 -219 153h-207z" />
    <glyph glyph-name="uni0417" unicode="&#x417;" horiz-adv-x="1112" 
d="M512 1499q434 0 434 -350q0 -264 -287 -363q348 -66 349 -393q-2 -414 -490 -413q-231 0 -450 133v104q244 -123 432 -123t273 76t87 199q2 205 -119 278q-123 70 -360 70h-59v110h59q283 0 353 110t69 218q0 229 -316 229q-131 0 -231 -50t-135 -74v104q172 135 391 135
z" />
    <glyph glyph-name="uni0418" unicode="&#x418;" horiz-adv-x="1437" 
d="M1278 0h-129v1368l-778 -1368h-211v1489h131v-1374l776 1374h211v-1489z" />
    <glyph glyph-name="uni0419" unicode="&#x419;" horiz-adv-x="1437" 
d="M1278 0h-129v1368l-778 -1368h-211v1489h131v-1374l776 1374h211v-1489zM703 1683q125 0 171 129h113q-2 -92 -57 -142q-54 -50 -104 -69t-145 -19t-168 69q-73 70 -73 161h111q27 -129 152 -129z" />
    <glyph glyph-name="uni041A" unicode="&#x41a;" horiz-adv-x="1294" 
d="M164 1489h137v-680l741 680h175l-787 -731l797 -758h-180l-746 709v-709h-137v1489z" />
    <glyph glyph-name="uni041B" unicode="&#x41b;" horiz-adv-x="1495" 
d="M436 317v1172h842v-1489h-139v1376h-561v-1091q0 -137 -86 -244q-84 -113 -451 -23v105q271 -57 333 6t62 188z" />
    <glyph glyph-name="uni041C" unicode="&#x41c;" horiz-adv-x="1742" 
d="M293 0h-133v1489h231l479 -1323l484 1323h229v-1489h-131v1370l-485 -1313h-193l-481 1313v-1370z" />
    <glyph glyph-name="uni041D" unicode="&#x41d;" horiz-adv-x="1404" 
d="M1110 698h-815v-698h-139v1489h139v-674h815v674h139v-1489h-139v698z" />
    <glyph glyph-name="uni041E" unicode="&#x41e;" horiz-adv-x="1406" 
d="M702 1393q-244 0 -342 -168q-96 -151 -96 -490q0 -157 22 -279t99 -239q79 -117 319 -117t339 148t100 487q0 496 -159 577t-282 81zM700 -10q-461 0 -522 278t-61 466q1 186 29 330t98 242t182 147q112 50 352 50t375 -191q135 -190 135 -576t-133 -568
q-135 -178 -455 -178z" />
    <glyph glyph-name="uni041F" unicode="&#x41f;" horiz-adv-x="1384" 
d="M1231 1489v-1489h-139v1376h-795v-1376h-139v1489h1073z" />
    <glyph glyph-name="uni0420" unicode="&#x420;" horiz-adv-x="1314" 
d="M733 1489q469 0 469 -504t-469 -504h-438v-481h-139v1489h577zM1055 989q0 387 -348 387h-412v-782h412q182 0 265 99t83 296z" />
    <glyph glyph-name="uni0421" unicode="&#x421;" horiz-adv-x="1189" 
d="M117 745q0 758 571 758q223 0 420 -61v-94q-211 41 -381 41q-463 0 -463 -645t465 -640q145 0 379 46v-99q-223 -61 -399 -61q-592 -3 -592 755z" />
    <glyph glyph-name="uni0422" unicode="&#x422;" horiz-adv-x="1325" 
d="M57 1489h1231l-41 -115h-516v-1374h-139v1374h-535v115z" />
    <glyph glyph-name="uni0423" unicode="&#x423;" 
d="M1042 311q0 -319 -467 -319q-133 0 -321 39v90q141 -23 240 -23q219 0 313 46t94 210v195q-264 -104 -377 -105q-196 0 -288 76t-93 238v710l140 41v-768q0 -104 61 -147t177 -43t380 94v844h141v-1178z" />
    <glyph glyph-name="uni0424" unicode="&#x424;" horiz-adv-x="1406" 
d="M631 1489h141v-178q293 -25 403 -201t109 -371q0 -395 -338 -520q-80 -29 -174 -37v-182h-141v182q-295 25 -406 195q-115 170 -115 362t115 375q115 178 406 197v178zM258 737q0 -399 373 -452v921q-55 -10 -105 -24q-268 -97 -268 -445zM874 309q262 90 262 433
t-262 440q-45 14 -102 24v-921q57 10 102 24z" />
    <glyph glyph-name="uni0425" unicode="&#x425;" horiz-adv-x="1310" 
d="M575 743l-522 746h160l442 -633l443 633h155l-520 -744l522 -745h-159l-443 633l-444 -633h-154z" />
    <glyph glyph-name="uni0426" unicode="&#x426;" horiz-adv-x="1423" 
d="M1202 0h-1044v1489h139v-1376h795v1376h139v-1385h110v-436h-139v332z" />
    <glyph glyph-name="uni0427" unicode="&#x427;" 
d="M143 758v710l140 41v-768q0 -104 61 -147t177 -43t380 94v844h141v-1489h-141v549q-264 -104 -377 -105q-197 0 -286 76q-95 76 -95 238z" />
    <glyph glyph-name="uni0428" unicode="&#x428;" horiz-adv-x="1857" 
d="M174 0v1489h139v-1376h547v1376h139v-1376h547v1376h140v-1489h-1512z" />
    <glyph glyph-name="uni0429" unicode="&#x429;" horiz-adv-x="1884" 
d="M1663 0h-1489v1489h139v-1376h547v1376h139v-1376h547v1376h140v-1385h116v-436h-139v332z" />
    <glyph glyph-name="uni042A" unicode="&#x42a;" horiz-adv-x="1386" 
d="M1288 403q0 -403 -465 -403h-440v1376h-387v113h526v-678h301q250 0 359 -102q106 -105 106 -306zM831 111q309 0 310 292q0 164 -72 230q-68 68 -238 67h-309v-589h309z" />
    <glyph glyph-name="uni042B" unicode="&#x42b;" horiz-adv-x="1576" 
d="M1090 403q0 -403 -465 -403h-441v1489h140v-678h301q250 0 358 -102q107 -105 107 -306zM633 111q309 0 309 292q0 160 -70 230q-74 68 -239 67h-309v-589h309zM1243 1489h141v-1489h-141v1489z" />
    <glyph glyph-name="uni042C" unicode="&#x42c;" 
d="M1090 403q0 -403 -465 -403h-441v1489h140v-678h301q250 0 358 -102q107 -105 107 -306zM633 111q309 0 309 292q0 160 -70 230q-74 68 -239 67h-309v-589h309z" />
    <glyph glyph-name="uni042D" unicode="&#x42d;" horiz-adv-x="1189" 
d="M502 1389q-174 0 -385 -41v94q197 61 420 61q571 0 571 -760q0 -539 -210 -647t-384 -106q-174 0 -397 61v99q233 -46 400 -46t299 120t145 470h-580l-41 113h618q-23 582 -456 582z" />
    <glyph glyph-name="uni042E" unicode="&#x42e;" horiz-adv-x="1896" 
d="M182 1489h142v-672h292q10 145 43 305t164 271t336 111t418 -95q211 -96 211 -674q0 -385 -132 -565t-415 -180t-451 132t-174 583h-292v-705h-142v1489zM1642 735q0 496 -158 577t-282 81q-246 0 -342 -168q-98 -154 -96 -490q0 -157 21 -279t100 -239q75 -117 317 -117
t341 148t99 487z" />
    <glyph glyph-name="uni042F" unicode="&#x42f;" horiz-adv-x="1337" 
d="M129 1020q0 246 118 358t359 111h576v-1489h-138v543h-479l-299 -543h-157l317 563q-297 82 -297 457zM1044 655v721h-413q-180 0 -266 -86q-88 -82 -89 -270q0 -365 357 -365h411z" />
    <glyph glyph-name="uni0430" unicode="&#x430;" horiz-adv-x="1144" 
d="M524 1087q477 0 477 -317v-770h-133v111q-219 -125 -409 -125q-362 0 -363 315q0 109 68 223q63 111 283 129t413 19v55q0 162 -95 208t-269 43t-303 -24v95q188 38 331 38zM246 315q0 -227 258 -227q178 0 356 117v377q-457 0 -536 -84q-78 -85 -78 -183z" />
    <glyph glyph-name="uni0431" unicode="&#x431;" horiz-adv-x="1157" 
d="M586 1087q481 0 481 -563q0 -391 -177 -465t-304 -73q-246 0 -367 142t-121 396v27l6 154q16 319 92 458t162 207t222 120t401 73v-127q-594 -29 -711 -445q-2 -14 -10 -28q131 124 326 124zM920 524q0 344 -128 402t-204 57q-342 1 -342 -445t342 -450q332 0 332 436z
" />
    <glyph glyph-name="uni0432" unicode="&#x432;" horiz-adv-x="1095" 
d="M1028 291q0 -291 -334 -291h-538v1075h522q176 0 246 -71q72 -68 72 -220t-152 -229q82 -29 131 -86q53 -55 53 -178zM637 602q221 0 221 189q0 102 -59 138t-162 36h-342v-363h342zM893 311q0 180 -225 181h-373v-381h373q123 0 174 47t51 153z" />
    <glyph glyph-name="uni0433" unicode="&#x433;" horiz-adv-x="860" 
d="M301 963v-963h-139v1075h672l-41 -112h-492z" />
    <glyph glyph-name="uni0434" unicode="&#x434;" horiz-adv-x="1187" 
d="M279 786v289h700v-950h108v-457h-143v359h-788v-359h-133v457h77q179 268 179 661zM412 735q0 -334 -154 -606h588v842h-434v-236z" />
    <glyph glyph-name="uni0435" unicode="&#x435;" horiz-adv-x="1144" 
d="M584 1087q463 0 463 -522v-37q0 -45 -3 -59h-804q8 -199 84 -289q80 -88 280 -88t397 53v-94q-389 -127 -731 -2q-172 61 -172 477q1 561 486 561zM584 981q-260 0 -301 -154q-37 -154 -43 -260h671q-2 209 -75 314q-74 100 -252 100z" />
    <glyph glyph-name="uni0436" unicode="&#x436;" horiz-adv-x="1423" 
d="M645 1075h133v-502l424 502h154l-445 -502q215 -1 269 -79t200 -494h-137l-113 328q-45 135 -118 147q-90 8 -103 8h-131v-483h-133v483h-129q-127 0 -164 -51q-36 -45 -66 -134t-58 -169t-46 -129h-137q145 414 175 459t87 80t205 34l-444 502h147l430 -502v502z" />
    <glyph glyph-name="uni0437" unicode="&#x437;" horiz-adv-x="860" 
d="M598 815q0 158 -195 154q-139 -2 -278 -90v100q123 96 278 98q332 8 332 -258q0 -137 -84 -192q-88 -53 -133 -64q121 -12 191 -89t69 -193q0 -311 -356 -304q-178 4 -334 93v102q158 -78 299 -82t197 45t55 160q0 111 -86 156q-88 45 -244 45h-51v112h51q289 0 289 207z
" />
    <glyph glyph-name="uni0438" unicode="&#x438;" horiz-adv-x="1214" 
d="M297 1075v-952l555 952h203v-1075h-140v965l-559 -965h-198v1075h139z" />
    <glyph glyph-name="uni0439" unicode="&#x439;" horiz-adv-x="1214" 
d="M297 1075v-952l555 952h203v-1075h-140v965l-559 -965h-198v1075h139zM580 1270q125 0 170 129h112q-2 -94 -59 -144q-51 -49 -101 -68t-146 -19q-95 0 -168 69q-73 70 -73 162h111q29 -129 154 -129z" />
    <glyph glyph-name="uni043A" unicode="&#x43a;" horiz-adv-x="1126" 
d="M168 0v1075h139v-481l572 481h180l-625 -522l629 -553h-174l-582 510v-510h-139z" />
    <glyph glyph-name="uni043B" unicode="&#x43b;" horiz-adv-x="1110" 
d="M258 248v827h711v-1075h-140v963h-432v-748q0 -98 -53 -164q-56 -63 -154 -63t-188 22v88q66 -16 138 -16t98 33q20 35 20 133z" />
    <glyph glyph-name="uni043C" unicode="&#x43c;" horiz-adv-x="1290" 
d="M1147 1075v-1075h-131v954l-309 -913h-129l-322 913v-954h-131v1075h217l301 -895l287 895h217z" />
    <glyph glyph-name="uni043D" unicode="&#x43d;" horiz-adv-x="1193" 
d="M897 498h-602v-498h-139v1075h139v-461h602v461h139v-1075h-139v498z" />
    <glyph glyph-name="uni043E" unicode="&#x43e;" horiz-adv-x="1165" 
d="M98 524q0 563 482 563t487 -563q0 -391 -177 -465t-304 -73q-246 0 -367 142t-121 396zM920 524q0 344 -128 402t-204 57q-342 1 -342 -445t342 -450q332 0 332 436z" />
    <glyph glyph-name="uni043F" unicode="&#x43f;" horiz-adv-x="1185" 
d="M1026 1075v-1075h-139v963h-590v-963h-139v1075h868z" />
    <glyph glyph-name="uni0440" unicode="&#x440;" horiz-adv-x="1173" 
d="M633 -4q-133 0 -346 67v-423l-142 -41v1456l142 41v-105q340 162 567 62q224 -103 224 -505t-156 -477t-289 -75zM287 166q164 -60 294 -64q131 -4 239 60t108 334t-98 435q-97 165 -543 -36v-729z" />
    <glyph glyph-name="uni0441" unicode="&#x441;" horiz-adv-x="976" 
d="M636 92q122 0 269 37v-88q-158 -57 -311 -57q-266 0 -381 147q-117 143 -117 410q0 391 174 471q176 76 314 76t305 -58v-88q-139 35 -256 35q-223 0 -309 -111q-84 -114 -84 -276t18 -242q38 -171 184 -228q72 -28 194 -28z" />
    <glyph glyph-name="uni0442" unicode="&#x442;" horiz-adv-x="901" 
d="M25 1075h872l-41 -114h-334v-961h-139v961h-358v114z" />
    <glyph glyph-name="uni0443" unicode="&#x443;" 
d="M1042 -74q0 -319 -467 -319q-133 0 -321 39v90q141 -23 240 -23q219 0 313 46t94 210v166q-264 -104 -377 -104q-196 -1 -288 75t-93 238v711l140 41v-768q0 -104 61 -148t177 -43q116 0 380 94v844h141v-1149z" />
    <glyph glyph-name="uni0444" unicode="&#x444;" horiz-adv-x="1884" 
d="M522 -12q-434 0 -434 544t434 547q160 0 346 -100v518l142 41v-559q186 100 346 100q434 0 434 -460q0 -459 -156 -545t-282 -86t-342 67v-454h-142v454q-215 -67 -346 -67zM559 973q-195 0 -256 -105q-65 -104 -65 -318t94 -384t536 -8v725q-203 90 -309 90zM1640 553
q0 207 -96 369q-98 158 -534 -39v-725q182 -68 321 -68q309 0 309 463z" />
    <glyph glyph-name="uni0445" unicode="&#x445;" horiz-adv-x="1089" 
d="M545 633l356 444h152l-432 -538l432 -539h-152l-356 444l-357 -444h-151l432 539l-432 538h151z" />
    <glyph glyph-name="uni0446" unicode="&#x446;" horiz-adv-x="1228" 
d="M979 0h-821v1071h139v-958h590v958h139v-967h92v-436h-139v332z" />
    <glyph glyph-name="uni0447" unicode="&#x447;" horiz-adv-x="1208" 
d="M143 592v463l140 41v-521q0 -104 61 -147t177 -43t380 94v596h141v-1075h-141v383q-264 -104 -377 -104q-197 -1 -289 75t-92 238z" />
    <glyph glyph-name="uni0448" unicode="&#x448;" horiz-adv-x="1617" 
d="M160 0v1073h139v-960h442v960h140v-960h440v960h139v-1073h-1300z" />
    <glyph glyph-name="uni0449" unicode="&#x449;" horiz-adv-x="1658" 
d="M1427 0h-1267v1073h139v-960h442v960h140v-960h440v960h139v-969h107v-436h-140v332z" />
    <glyph glyph-name="uni044A" unicode="&#x44a;" horiz-adv-x="1280" 
d="M827 614q175 0 265 -68t90 -307t-355 -239h-493v963h-338v112h477v-461h354zM811 111q106 0 172 45q63 46 63 158t-65 149q-61 41 -170 41h-338v-393h338z" />
    <glyph glyph-name="uni044B" unicode="&#x44b;" horiz-adv-x="1495" 
d="M655 614q175 0 265 -68t90 -307t-355 -239h-495v1075h139v-461h356zM639 111q106 0 172 45q63 46 63 158t-65 149q-61 41 -170 41h-340v-393h340zM1180 1075h141v-1075h-141v1075z" />
    <glyph glyph-name="uni044C" unicode="&#x44c;" horiz-adv-x="1095" 
d="M655 614q175 0 265 -68t90 -307t-355 -239h-495v1075h139v-461h356zM639 111q106 0 172 45q63 46 63 158t-65 149q-61 41 -170 41h-340v-393h340z" />
    <glyph glyph-name="uni044D" unicode="&#x44d;" horiz-adv-x="976" 
d="M397 977q-141 0 -284 -35v88q166 57 307 57q485 0 485 -546q0 -406 -172 -480q-169 -77 -323 -77t-314 57v88q147 -37 297 -37q354 0 367 385h-486l-41 113h527q-12 387 -363 387z" />
    <glyph glyph-name="uni044E" unicode="&#x44e;" horiz-adv-x="1617" 
d="M1020 1087q481 0 481 -563q0 -391 -177 -465q-387 -162 -640 35q-145 102 -152 391h-219v-485h-141v1075h141v-477h222q34 489 485 489zM1354 524q0 344 -128 402t-204 57q-342 1 -342 -445t342 -450q332 0 332 436z" />
    <glyph glyph-name="uni044F" unicode="&#x44f;" horiz-adv-x="1024" 
d="M98 712q0 266 127 312q123 49 228 49h417v-1073h-139v377h-291l-209 -377h-145l219 393q-207 53 -207 319zM469 963q-139 0 -186 -66q-49 -61 -50 -149q0 -150 54 -203q49 -57 182 -58h262v476h-262z" />
    <glyph glyph-name="uni0450" unicode="&#x450;" horiz-adv-x="1144" 
d="M584 1087q463 0 463 -522v-37q0 -45 -3 -59h-804q8 -199 84 -289q80 -88 280 -88t397 53v-94q-389 -127 -731 -2q-172 61 -172 477q1 561 486 561zM584 981q-260 0 -301 -154q-37 -154 -43 -260h671q-2 209 -75 314q-74 100 -252 100zM586 1167l-215 260h190l127 -260
h-102z" />
    <glyph glyph-name="uni0451" unicode="&#x451;" horiz-adv-x="1144" 
d="M584 1087q463 0 463 -522v-37q0 -45 -3 -59h-804q8 -199 84 -289q80 -88 280 -88t397 53v-94q-389 -127 -731 -2q-172 61 -172 477q1 561 486 561zM584 981q-260 0 -301 -154q-37 -154 -43 -260h671q-2 209 -75 314q-74 100 -252 100zM287 1364h186v-197h-186v197z
M698 1364h187v-197h-187v197z" />
    <glyph glyph-name="uni0452" unicode="&#x452;" horiz-adv-x="1200" 
d="M676 979q-135 0 -391 -117v-862h-140v1223h-127v112h127v154h140v-154h362v-112h-362v-252q502 225 637 83t135 -280v-850q0 -370 -238 -338q-229 37 -301 54v98q289 -66 343 -1t54 181v856q1 205 -239 205z" />
    <glyph glyph-name="uni0453" unicode="&#x453;" horiz-adv-x="860" 
d="M301 963v-963h-139v1075h672l-41 -112h-492zM360 1167l127 260h201l-215 -260h-113z" />
    <glyph glyph-name="uni0454" unicode="&#x454;" horiz-adv-x="976" 
d="M610 92q148 0 295 37v-88q-158 -57 -311 -57q-266 0 -381 147q-117 143 -117 410q0 391 174 471q176 76 314 76t305 -58v-88q-139 35 -285 35q-342 0 -364 -387h528l-41 -113h-487q6 -84 26 -169t107 -152q89 -64 237 -64z" />
    <glyph glyph-name="uni0455" unicode="&#x455;" horiz-adv-x="1056" 
d="M487 88q322 0 326 164q0 78 -11 110q-10 32 -58 64q-48 33 -199 63q-258 51 -352 121t-95 174q0 172 157 266t644 -14v-94q-229 43 -395 43q-262 0 -262 -162q0 -94 60 -135t257 -82q197 -42 297 -116t100 -220q0 -287 -456 -284q-188 0 -385 53v94q194 -45 372 -45z" />
    <glyph glyph-name="uni0456" unicode="&#x456;" horiz-adv-x="473" 
d="M164 1075h141v-1075h-141v1075zM164 1489h141v-240h-141v240z" />
    <glyph glyph-name="uni0457" unicode="&#x457;" horiz-adv-x="528" 
d="M-2 1364h186v-197h-186v197zM326 1364h186v-197h-186v197zM186 1075h142v-1075h-142v1075z" />
    <glyph glyph-name="uni0458" unicode="&#x458;" horiz-adv-x="471" 
d="M305 1075v-1132q0 -319 -268 -336q-133 -4 -232 22v92q14 0 67 -8q52 -8 130 -11t122 46t42 152v1175h139zM164 1489h141v-240h-141v240z" />
    <glyph glyph-name="uni0459" unicode="&#x459;" horiz-adv-x="1740" 
d="M258 248v827h711v-461h323q176 0 265 -68t90 -308q0 -238 -355 -238h-463v963h-432v-748q0 -98 -53 -164q-56 -63 -154 -63t-188 22v88q66 -16 138 -16t98 33q20 35 20 133zM1276 111q111 0 170 45q66 42 66 156t-66 151q-61 41 -170 41h-307v-393h307z" />
    <glyph glyph-name="uni045A" unicode="&#x45a;" horiz-adv-x="1781" 
d="M1350 614q176 0 265 -68t89 -307t-354 -239h-453v498h-602v-498h-139v1075h139v-461h602v461h139v-461h314zM1333 111q111 0 170 45q66 42 66 156t-66 151q-61 41 -170 41h-297v-393h297z" />
    <glyph glyph-name="uni045B" unicode="&#x45b;" horiz-adv-x="1200" 
d="M676 979q-135 0 -391 -117v-862h-140v1225h-127v112h127v162l140 41v-203h362v-112h-362v-254q502 225 637 83t135 -280v-774h-142v774q1 205 -239 205z" />
    <glyph glyph-name="uni045C" unicode="&#x45c;" horiz-adv-x="1126" 
d="M168 0v1075h139v-481l572 481h180l-625 -522l629 -553h-174l-582 510v-510h-139zM453 1167l127 260h200l-215 -260h-112z" />
    <glyph glyph-name="uni045D" unicode="&#x45d;" horiz-adv-x="1214" 
d="M297 1075v-952l555 952h203v-1075h-140v965l-559 -965h-198v1075h139zM586 1167l-215 260h190l127 -260h-102z" />
    <glyph glyph-name="uni045E" unicode="&#x45e;" 
d="M1042 -78q0 -319 -467 -319q-133 0 -321 39v90q141 -23 240 -23q219 0 313 46t94 210v170q-264 -104 -377 -104q-196 -1 -288 75t-93 238v711l140 41v-768q0 -104 61 -148t177 -43q116 0 380 94v844h141v-1153zM592 1270q125 0 170 129h112q-2 -94 -59 -144
q-51 -49 -101 -68t-146 -19t-168 69q-73 70 -72 162h110q29 -129 154 -129z" />
    <glyph glyph-name="uni045F" unicode="&#x45f;" horiz-adv-x="1187" 
d="M520 0h-362v1075h139v-962h590v962h139v-1075h-367v-332h-139v332z" />
    <glyph glyph-name="uni0460" unicode="&#x460;" horiz-adv-x="1945" 
d="M1655 1489h139v-1065l-446 -459l-377 385l-377 -387l-444 461v1065h139v-1038l305 -320l309 318v1040h137v-1040l306 -318l309 320v1038z" />
    <glyph glyph-name="uni0461" unicode="&#x461;" horiz-adv-x="1474" 
d="M1196 1073h127v-778l-332 -336l-262 270l-266 -270l-324 338v776h127v-754l197 -208l203 206v756h129v-756l198 -206l203 208v754z" />
    <glyph glyph-name="uni0462" unicode="&#x462;" horiz-adv-x="1386" 
d="M1288 403q0 -403 -465 -403h-440v1376h-377v113h977l-43 -113h-418v-565h301q250 0 359 -102q106 -105 106 -306zM831 111q309 0 310 292q0 164 -72 230q-68 68 -238 67h-309v-589h309z" />
    <glyph glyph-name="uni0463" unicode="&#x463;" horiz-adv-x="1280" 
d="M827 614q175 0 265 -68t90 -307t-355 -239h-495v963h-336v112h864l-41 -112h-348v-349h356zM811 111q106 0 172 45q63 46 63 158t-65 149q-61 41 -170 41h-340v-393h340z" />
    <glyph glyph-name="uni0464" unicode="&#x464;" horiz-adv-x="1658" 
d="M313 698v-698h-141v1489h141v-678h273q6 131 43 295t167 280t357 117q227 0 424 -61v-94q-211 41 -385 41q-348 0 -434 -371q-18 -94 -25 -207h608l-41 -113h-567q10 -594 465 -594q145 0 379 46v-99q-813 -223 -961 387q-27 119 -30 260h-273z" />
    <glyph glyph-name="uni0465" unicode="&#x465;" horiz-adv-x="1433" 
d="M1012 -16q-432 0 -463 501h-236v-485h-141v1075h141v-477h236q18 274 150 382q133 108 305 107q172 0 337 -57v-88q-139 35 -284 35q-287 0 -346 -256q-14 -57 -19 -123h531l-41 -113h-490q2 -74 24 -168t107 -161q92 -64 240 -64t295 37v-88q-158 -57 -346 -57z" />
    <glyph glyph-name="uni0466" unicode="&#x466;" horiz-adv-x="1333" 
d="M737 700v-700h-139v700h-164l-239 -700h-140l516 1489h193l516 -1489h-139l-242 700h-162zM473 815h387l-192 565z" />
    <glyph glyph-name="uni0467" unicode="&#x467;" horiz-adv-x="993" 
d="M561 479v-479h-123v479h-106l-164 -479h-139l372 1073h193l373 -1073h-138l-165 479h-103zM371 594h254l-127 371z" />
    <glyph glyph-name="uni0468" unicode="&#x468;" horiz-adv-x="1802" 
d="M172 1489h141v-674h506l234 674h192l516 -1489h-139l-242 700h-161v-700h-140v700h-164l-239 -700h-139l243 702h-467v-702h-141v1489zM954 815h387l-192 565z" />
    <glyph glyph-name="uni0469" unicode="&#x469;" horiz-adv-x="1454" 
d="M172 1075h141v-481h394l165 479h193l373 -1073h-138l-165 479h-103v-479h-123v479h-106l-164 -479h-139l166 479h-353v-479h-141v1075zM842 594h254l-127 371z" />
    <glyph glyph-name="uni046A" unicode="&#x46a;" horiz-adv-x="1515" 
d="M258 399v-399h-141v401q0 336 399 414q47 10 96 12l-458 662h1210l-459 -662q362 -14 432 -173t70 -253v-401h-141v399q0 285 -435 320v-719h-143v719q-430 -35 -430 -320zM760 842l370 534h-745z" />
    <glyph glyph-name="uni046B" unicode="&#x46b;" horiz-adv-x="1146" 
d="M254 0h-141v295q0 231 249 297q33 8 70 12l-326 471h947l-328 -471q39 -4 72 -12q248 -63 247 -297v-295h-141v293q0 88 -39 135t-90 54t-63 11q-12 3 -29 3t-31 2v-498h-143v498q-121 -8 -188 -50t-66 -155v-293zM580 618l239 345h-481z" />
    <glyph glyph-name="uni046C" unicode="&#x46c;" horiz-adv-x="2007" 
d="M565 401q0 205 154 318h-406v-719h-141v1489h141v-658h746l-457 658h1210l-458 -662q362 -14 432 -173t69 -253v-401h-141v399q0 285 -434 320v-719h-143v719q-430 -35 -430 -320v-399h-142v401zM1208 842l371 534h-745z" />
    <glyph glyph-name="uni046D" unicode="&#x46d;" horiz-adv-x="1576" 
d="M504 295q0 119 71 203h-262v-498h-141v1075h141v-463h506l-321 463h946l-328 -471q39 -4 72 -12q248 -63 248 -297v-295h-142v293q0 88 -38 135t-89 54t-63 11q-12 3 -30 3t-32 2v-498h-143v498q-123 -8 -189 -50t-65 -155v-293h-141v295zM971 618l239 345h-481z" />
    <glyph glyph-name="uni046E" unicode="&#x46e;" horiz-adv-x="1112" 
d="M428 -262q-297 0 -297 205q0 119 66 166q61 49 204 49h86q369 -4 373 256q2 113 -33 172q-37 53 -119 92t-327 39h-59v110h59q283 0 353 110t69 218q0 229 -316 229q-131 0 -231 -50t-135 -74v104q129 100 299 129l-170 213h133l143 -193l154 193h133l-180 -215
q313 -45 313 -326t-287 -379q173 -32 261 -108t88 -262t-131 -280t-359 -93h-117q-119 2 -118 -96q0 -98 118 -99h433q193 0 192 -194v-37h-127v47q0 41 -16 57t-58 17h-397z" />
    <glyph glyph-name="uni046F" unicode="&#x46f;" horiz-adv-x="921" 
d="M670 272q0 172 -129 191q-123 20 -205 20h-72v113h72q195 0 244 79t49 140q0 170 -176 162t-342 -113v101q84 72 217 104l-142 176h133l109 -149l121 149h131l-141 -168q227 -33 227 -258q0 -141 -83 -199t-134 -69q123 -12 191 -87t69 -192q0 -315 -356 -315h-84
q-109 0 -109 -61t109 -62h290q88 0 132 -43q43 -45 43 -151v-11h-127v21q0 74 -56 74h-282q-260 0 -260 170q0 100 73 137q74 37 197 37h74q217 1 217 204z" />
    <glyph glyph-name="uni0470" unicode="&#x470;" horiz-adv-x="1380" 
d="M590 389h-293l-225 973h129l194 -866h195v993h141v-993h182l138 602q55 264 217 264q84 0 172 -25l-23 -98q-138 47 -192 -14q-29 -45 -49 -123l-166 -713h-279v-389h-141v389z" />
    <glyph glyph-name="uni0471" unicode="&#x471;" horiz-adv-x="1380" 
d="M590 0h-293l-225 973h129l194 -867h195v1383h141v-1383h182l138 603q55 264 217 264q84 0 172 -25l-23 -98q-59 20 -110 20t-82 -34q-29 -45 -49 -123l-166 -713h-279v-399h-141v399z" />
    <glyph glyph-name="uni0472" unicode="&#x472;" horiz-adv-x="1406" 
d="M700 -10q-461 0 -522 278t-61 466q1 186 29 330t98 242t182 147q112 50 352 50t375 -191q135 -190 135 -576t-133 -568q-135 -178 -455 -178zM733 850v-113h410q0 494 -160 574q-156 82 -313 82q-350 0 -375 -248q-29 -281 -29 -295h467zM670 737h-406v-2q0 -335 98 -485
t310 -150t336 101q119 106 131 424h-469v112z" />
    <glyph glyph-name="uni0473" unicode="&#x473;" horiz-adv-x="1165" 
d="M98 524q0 563 482 563t487 -563q0 -391 -177 -465t-304 -73q-246 0 -367 142t-121 396zM588 983q-158 0 -239 -93t-97 -249h364v-113h304q0 340 -128 398t-204 57zM246 524q0 -436 342 -436q287 0 325 328h-360v112h-307v-4z" />
    <glyph glyph-name="uni0474" unicode="&#x474;" horiz-adv-x="1433" 
d="M1092 1309q35 104 122 166q88 57 184 14t132 -66l-37 -106q-160 78 -207 47q-45 -39 -67 -104l-447 -1260h-192l-529 1489h144l481 -1378z" />
    <glyph glyph-name="uni0475" unicode="&#x475;" horiz-adv-x="1064" 
d="M430 0l-391 1077h133l342 -962l277 792q82 248 329 142l-28 -105q-61 17 -68 21q-74 20 -119 -103l-307 -862h-168z" />
    <glyph glyph-name="uni0476" unicode="&#x476;" horiz-adv-x="1433" 
d="M1092 1309q35 104 122 166q88 57 184 14t132 -66l-37 -106q-160 78 -207 47q-45 -39 -67 -104l-447 -1260h-192l-529 1489h144l481 -1378zM504 1581l-215 260h190l127 -260h-102zM827 1581l-215 260h191l127 -260h-103z" />
    <glyph glyph-name="uni0477" unicode="&#x477;" horiz-adv-x="1064" 
d="M430 0l-391 1077h133l342 -962l277 792q82 248 329 142l-28 -105q-61 17 -68 21q-74 20 -119 -103l-307 -862h-168zM346 1167l-215 260h191l127 -260h-103zM670 1167l-215 260h190l127 -260h-102z" />
    <glyph glyph-name="uni0478" unicode="&#x478;" horiz-adv-x="2519" 
d="M702 1393q-244 0 -342 -168q-96 -151 -96 -490q0 -157 22 -279t99 -239q79 -117 319 -117t339 148t100 487q0 496 -159 577t-282 81zM700 -10q-461 0 -522 278t-61 466q1 186 29 330t98 242t182 147q112 50 352 50t375 -191q135 -190 135 -576t-133 -568
q-135 -178 -455 -178zM2347 -74q0 -319 -467 -319q-133 0 -321 39v90q141 -23 239 -23q217 0 316 47q92 47 92 209v166q-264 -104 -377 -104q-195 0 -289 75q-92 76 -92 238v711l139 41v-768q-1 -104 61 -148t178 -43q116 0 380 94v844h141v-1149z" />
    <glyph glyph-name="uni0479" unicode="&#x479;" horiz-adv-x="2293" 
d="M98 524q0 563 482 563t487 -563q0 -391 -177 -465t-304 -73q-246 0 -367 142t-121 396zM920 524q0 344 -128 402t-204 57q-342 1 -342 -445t342 -450q332 0 332 436zM2109 -74q0 -319 -467 -319q-133 0 -321 39v90q141 -23 240 -23q217 0 315 47q92 47 92 209v166
q-264 -104 -377 -104q-195 0 -288 75q-92 76 -93 238v711l140 41v-768q0 -104 61 -148t177 -43q116 0 380 94v844h141v-1149z" />
    <glyph glyph-name="uni047A" unicode="&#x47a;" horiz-adv-x="1576" 
d="M785 -74q-67 0 -101 66q-100 12 -199 47q-197 78 -307 257t-108 443q0 264 139 494q135 229 475 264q29 72 86 72q82 0 113 -72q344 -41 482 -270t138 -491q-1 -262 -113 -440q-112 -179 -309 -257q-106 -39 -198 -45q-31 -68 -98 -68zM784 158q64 0 90 -56
q479 53 480 633q0 461 -330 608q-70 31 -150 43q-35 -49 -92 -49t-90 49q-82 -10 -151 -43q-322 -143 -322 -630t215 -549q236 -59 258 -62q28 56 92 56z" />
    <glyph glyph-name="uni047B" unicode="&#x47b;" horiz-adv-x="1249" 
d="M76 540q0 192 105 348t347 191q27 70 88 70q84 0 113 -72q236 -27 340 -188q102 -163 102 -355t-106 -350q-104 -162 -334 -188q-31 -72 -103 -72t-100 70q-233 27 -344 190q-108 164 -108 356zM630 913q-67 0 -100 64q-152 -27 -232 -150t-81 -295q0 -326 250 -421
q31 -12 63 -19q27 68 95 68t102 -66q24 8 27 8l24 9q111 41 183 146t71 275q0 170 -70 278t-184 148l-24 9q-3 0 -27 8q-30 -62 -97 -62z" />
    <glyph glyph-name="uni047C" unicode="&#x47c;" horiz-adv-x="2222" 
d="M714 -8q-198 0 -406 106t-208 645q0 758 572 758q190 0 332 -69v-105q-156 59 -293 59q-463 -2 -463 -641t465 -639q174 0 391 125q217 -125 391 -125q465 0 465 639t-463 641q-137 0 -293 -59v105q141 70 332 69q571 0 571 -758q0 -539 -208 -645q-207 -106 -405 -106
t-390 137q-192 -137 -390 -137zM973 1489l127 237h180l-215 -237h-92zM999 1978q123 0 286 -80t238 -103q75 -24 163 -23v-103q-158 0 -250 43t-150 75t-131 56q-66 27 -168 27q-103 0 -163 -51t-93 -181h-131q80 340 399 340z" />
    <glyph glyph-name="uni047D" unicode="&#x47d;" horiz-adv-x="1843" 
d="M1591 541q0 326 -136 381t-260 55t-253 -59v88q143 76 295 79q498 6 498 -544q0 -406 -172 -480q-168 -78 -291 -77q-205 0 -357 127q-152 -127 -356 -127q-463 0 -463 557q0 391 174 471q178 76 327 72t292 -78v-88q-129 59 -252 59q-227 0 -313 -111q-84 -113 -84 -274
q0 -279 84 -391q86 -109 269 -109t322 113q139 -113 275 -113q233 0 317 111t84 338zM819 1118l127 238h180l-215 -238h-92zM1485 1327q-156 0 -249 42q-94 42 -148 72q-54 31 -127 59t-175 28t-162 -51t-94 -181h-131q81 340 400 340q127 -2 287 -82t237 -102
q76 -22 162 -22v-103z" />
    <glyph glyph-name="uni047E" unicode="&#x47e;" horiz-adv-x="1945" 
d="M1655 1489h139v-1065l-446 -459l-377 385l-377 -387l-444 461v1065h139v-1038l305 -320l309 318v1040h137v-1040l306 -318l309 320v1038zM362 1968h1246l-41 -115h-527v-272h-139v272h-539v115z" />
    <glyph glyph-name="uni047F" unicode="&#x47f;" horiz-adv-x="1474" 
d="M1196 1075h127v-780l-332 -336l-262 270l-266 -270l-324 338v778h127v-756l197 -208l203 206v758h129v-758l198 -206l203 208v756zM367 1487h751l-45 -115h-272v-205h-139v205h-295v115z" />
    <glyph glyph-name="uni0480" unicode="&#x480;" horiz-adv-x="1189" 
d="M727 1389q-463 0 -463 -645t465 -640q145 0 379 46v-484h-139v350q-115 -27 -277 -26q-299 0 -437 202t-138 551q0 760 571 760q223 0 420 -61v-94q-211 41 -381 41z" />
    <glyph glyph-name="uni0481" unicode="&#x481;" horiz-adv-x="976" 
d="M636 92q122 0 269 37v-463h-139v336q-102 -18 -213 -18q-225 0 -340 147q-117 143 -117 410q0 391 174 471q176 76 314 76t305 -58v-88q-139 35 -256 35q-223 0 -309 -111q-84 -114 -84 -276t18 -242q38 -171 184 -228q72 -28 194 -28z" />
    <glyph glyph-name="uni0482" unicode="&#x482;" horiz-adv-x="1064" 
d="M227 1149l355 -152l223 492h121l-242 -535l350 -147l-43 -102l-354 149l-109 -240l359 -151l-43 -105l-361 154l-233 -512h-119l252 555l-344 147l43 105l346 -150l109 240l-353 152z" />
    <glyph glyph-name="uni0483" unicode="&#x483;" horiz-adv-x="0" 
d="M102 1769q74 0 74 105h121q0 -94 -39 -143t-143 -50h-269q-72 0 -71 -102h-123q0 98 40 144t144 46h266z" />
    <glyph glyph-name="uni0484" unicode="&#x484;" horiz-adv-x="0" 
d="M-9 1710q-126 0 -153 -129h-110q0 90 53 142q53 53 105 71t142 18t168 -70q77 -70 78 -161h-112q-45 129 -171 129z" />
    <glyph glyph-name="uni0485" unicode="&#x485;" horiz-adv-x="0" 
d="M129 1571h-109l-141 325h168z" />
    <glyph glyph-name="uni0486" unicode="&#x486;" horiz-adv-x="0" 
d="M-49 1896h168l-142 -325h-108z" />
    <glyph glyph-name="uni0487" unicode="&#x487;" horiz-adv-x="0" 
d="M-143 1978q123 0 285 -80t238 -103q75 -24 163 -23v-103q-158 0 -250 43q-91 43 -149 75t-132 56q-66 27 -168 27t-162 -51t-94 -181h-131q81 340 400 340z" />
    <glyph glyph-name="uni0488" unicode="&#x488;" horiz-adv-x="0" 
d="M-6 1384q-125 0 -154 -129h-110q0 91 53 143t106 70t143 18t166 -68q77 -69 78 -163h-112q-45 129 -170 129zM731 1067q-125 0 -153 -129h-111q0 90 53 142q52 52 106 70t142 19q88 0 166 -67q78 -72 80 -164h-113q-45 129 -170 129zM-752 1067q-125 0 -151 -129h-111
q0 92 56 143q51 51 103 69t142 19t167 -69t79 -162h-113q-47 129 -172 129zM467 -104q0 90 53 142q52 52 106 70t143 19q89 0 166 -69t79 -162h-113q-45 129 -170 129t-153 -129h-111zM-1014 -104q0 92 56 143q51 51 103 69t142 19q90 0 167 -69t79 -162h-113
q-47 129 -172 129t-151 -129h-111zM-6 -270q-125 0 -154 -129h-110q0 90 53 142q53 53 106 71t143 18t166 -69q77 -69 78 -162h-112q-45 129 -170 129zM879 545q-125 0 -152 -129h-111q0 92 56 143q51 51 103 69q53 18 143 19q90 -1 166 -69t79 -162h-112q-47 129 -172 129z
M-898 545q-124 0 -153 -129h-110q0 92 53 143q54 51 106 69t142 19q90 -1 167 -69t79 -162h-113q-47 129 -171 129z" />
    <glyph glyph-name="uni0489" unicode="&#x489;" horiz-adv-x="0" 
d="M84 -225q0 -76 -42 -129t-142 -54v68q45 0 75 25q27 27 27 61h-102v172h184v-143zM-100 1305q0 80 43 129q39 53 141 53v-68q-45 0 -76 -24q-27 -27 -26 -62h102v-172h-184v144zM-858 446q-78 0 -130 41t-52 144h67q0 -49 25 -74q23 -29 61 -29v103h172v-185h-143z
M860 631q74 0 131 -41q51 -45 51 -144h-67q0 49 -25 74q-23 29 -61 29v-103h-172v185h143zM-711 1169q0 -39 29 -61l68 78l131 -113l-121 -139l-109 92q-139 121 -18 258l51 -43q-31 -33 -31 -72zM713 -90q0 37 -29 61l-68 -77l-131 110l121 141l109 -92q135 -121 18 -260
l-51 45q31 35 31 72zM-457 -86q-121 -135 -258 -10l45 49q76 -68 133 -6l-75 69l116 127l138 -125zM440 1165q121 137 260 11l-45 -50q-78 68 -135 4l76 -67l-115 -127l-137 125z" />
    <glyph glyph-name="uni048A" unicode="&#x48a;" horiz-adv-x="1437" 
d="M1278 104h147l-204 -438h-148l156 334h-80v1368l-778 -1368h-211v1489h131v-1374l776 1374h211v-1385zM703 1683q125 0 171 129h113q-2 -92 -57 -142q-54 -50 -104 -69t-145 -19t-168 69q-73 70 -73 161h111q27 -129 152 -129z" />
    <glyph glyph-name="uni048B" unicode="&#x48b;" horiz-adv-x="1214" 
d="M297 1075v-952l555 952h203v-985l6 14h147l-204 -438h-148l156 334h-97v965l-559 -965h-198v1075h139zM580 1270q125 0 170 129h112q-2 -94 -59 -144q-51 -49 -101 -68t-146 -19q-95 0 -168 69q-73 70 -73 162h111q29 -129 154 -129z" />
    <glyph glyph-name="uni048C" unicode="&#x48c;" 
d="M0 1323h174v166h139v-166h236v-113h-236v-372h285q408 0 451 -166q47 -156 47 -315t-106 -258t-392 -99h-424v1210h-174v113zM596 111q313 0 334 116q25 117 24 183q0 152 -72 234t-286 83h-283v-616h283z" />
    <glyph glyph-name="uni048D" unicode="&#x48d;" horiz-adv-x="1105" 
d="M674 614q176 0 265 -68t89 -307t-354 -239h-496v821h-178v113h178v141h139v-141h232v-113h-232v-207h357zM657 111q111 0 170 45q66 42 66 156t-66 151q-61 41 -170 41h-340v-393h340z" />
    <glyph glyph-name="uni048E" unicode="&#x48e;" horiz-adv-x="1314" 
d="M1202 989q0 -426 -319 -493l73 -158h-137l-67 143h-457v-481h-139v1489h577q469 0 469 -500zM1055 989q0 387 -348 387h-412v-782h403l-84 182h138l77 -168q226 53 226 381z" />
    <glyph glyph-name="uni048F" unicode="&#x48f;" horiz-adv-x="1173" 
d="M582 -4q-80 0 -295 67v-423l-142 -41v1456l142 41v-105q340 162 567 62q223 -104 223 -463q0 -230 -52 -362t-194 -201l78 -166h-137l-65 139q-45 -4 -125 -4zM928 553q0 209 -64 324q-68 109 -222 109t-355 -91v-729q168 -63 331 -68h21q14 0 20 2l-92 199h138l73 -160
q150 86 150 414z" />
    <glyph glyph-name="uni0490" unicode="&#x490;" horiz-adv-x="1105" 
d="M858 1489v147h139v-260h-702v-1376h-139v1489h702z" />
    <glyph glyph-name="uni0491" unicode="&#x491;" horiz-adv-x="942" 
d="M702 1075v94h140v-206h-547v-963h-139v1075h546z" />
    <glyph glyph-name="uni0492" unicode="&#x492;" horiz-adv-x="1105" 
d="M0 817h156v672h841v-113h-702v-559h364v-112h-364v-705h-139v705h-156v112z" />
    <glyph glyph-name="uni0493" unicode="&#x493;" horiz-adv-x="942" 
d="M0 614h156v461h686v-112h-547v-349h285v-112h-285v-502h-139v502h-156v112z" />
    <glyph glyph-name="uni0494" unicode="&#x494;" horiz-adv-x="1187" 
d="M915 -82v614q0 205 -239 205q-135 0 -391 -116v-621h-140v1489h859v-113h-719v-647q502 225 637 83t135 -280v-608q0 -370 -238 -338q-229 37 -301 54v98q289 -66 343 -2t54 182z" />
    <glyph glyph-name="uni0495" unicode="&#x495;" horiz-adv-x="1169" 
d="M676 518q-135 0 -391 -117v-401h-140v1075h697v-112h-557v-453q502 225 637 83t135 -280v-389q0 -370 -238 -338q-229 37 -301 54v98q289 -66 343 -1t54 181v395q1 205 -239 205z" />
    <glyph glyph-name="uni0496" unicode="&#x496;" horiz-adv-x="1904" 
d="M1642 0h-79l-185 537q-59 164 -219 163h-207v-700h-147v700h-211q-156 0 -209 -147q-12 -37 -63 -176t-132 -377h-139l105 295q42 116 82 227t93 190q54 79 273 79l-524 698h158l505 -698h62v698h147v-698h60l506 698h159l-532 -703q167 0 241 -48t106 -136t56 -160
t48 -138q24 -65 38 -105l33 -95h115v-438h-140v334z" />
    <glyph glyph-name="uni0497" unicode="&#x497;" horiz-adv-x="1597" 
d="M1329 0h-86l-113 328q-45 135 -118 147q-90 8 -103 8h-131v-483h-133v483h-129q-127 0 -164 -51q-36 -45 -66 -134t-58 -169t-46 -129h-137q145 414 175 459t87 80t205 34l-444 502h147l430 -502v502h133v-502l424 502h154l-445 -502q215 0 277 -89t106 -228
q45 -139 49 -152h125v-438h-139v334z" />
    <glyph glyph-name="uni0498" unicode="&#x498;" horiz-adv-x="1112" 
d="M582 -70q158 0 157 -153q0 -78 -44 -127t-142 -49t-180 20v92q66 -14 163 -14t97 78q0 66 -74 65h-158l39 142q-190 20 -372 129v104q244 -123 432 -123t273 76t87 199q2 205 -119 278q-123 70 -360 70h-59v110h59q283 0 353 110t69 218q0 229 -316 229q-131 0 -231 -50
t-135 -74v104q172 135 391 135q434 0 434 -350q0 -264 -287 -363q348 -66 349 -393q-2 -215 -125 -309t-334 -104l-8 -50h41z" />
    <glyph glyph-name="uni0499" unicode="&#x499;" horiz-adv-x="860" 
d="M473 -70q158 0 158 -153q0 -80 -44 -128q-45 -48 -143 -48t-180 20v92q66 -14 163 -14t97 78q0 66 -73 65h-158l39 144q-139 27 -244 84v102q158 -78 299 -82t197 45t55 160q0 111 -86 156q-88 45 -244 45h-51v112h51q289 0 289 207q0 158 -195 154q-139 -2 -278 -90v100
q123 96 278 98q332 8 332 -258q0 -137 -84 -192q-88 -53 -133 -64q121 -12 191 -89t69 -193q0 -303 -338 -304l-8 -47h41z" />
    <glyph glyph-name="uni049A" unicode="&#x49a;" horiz-adv-x="1351" 
d="M1116 0h-69l-746 709v-709h-137v1489h137v-680l741 680h175l-787 -731l686 -654h139v-438h-139v334z" />
    <glyph glyph-name="uni049B" unicode="&#x49b;" horiz-adv-x="1167" 
d="M907 0h-61l-553 500v-500h-139v1075h139v-473l545 473h180l-604 -522l493 -449h140v-438h-140v334z" />
    <glyph glyph-name="uni049C" unicode="&#x49c;" horiz-adv-x="1611" 
d="M422 705h-121v-705h-137v1489h137v-672h121v326h104v-326h125l733 672h175l-787 -731l797 -758h-180l-742 705h-121v-336h-104v336z" />
    <glyph glyph-name="uni049D" unicode="&#x49d;" horiz-adv-x="1413" 
d="M154 0v1075h139v-463h104v230h105v-230h127l532 463h180l-604 -522l609 -553h-177l-553 500h-114v-228h-105v228h-104v-500h-139z" />
    <glyph glyph-name="uni049E" unicode="&#x49e;" horiz-adv-x="1294" 
d="M0 1311h164v178h137v-178h193v-113h-193v-389l741 680h175l-787 -731l797 -758h-180l-746 709v-709h-137v1198h-164v113z" />
    <glyph glyph-name="uni049F" unicode="&#x49f;" horiz-adv-x="1081" 
d="M0 1311h154v188l139 41v-229h201v-113h-201v-596l545 473h180l-604 -522l608 -553h-176l-553 500v-500h-139v1198h-154v113z" />
    <glyph glyph-name="uni04A0" unicode="&#x4a0;" horiz-adv-x="1392" 
d="M0 1489h403v-680l742 680h174l-787 -731l797 -758h-180l-746 709v-709h-137v1376h-266v113z" />
    <glyph glyph-name="uni04A1" unicode="&#x4a1;" horiz-adv-x="1187" 
d="M0 1075h395v-473l545 473h180l-604 -522l608 -553h-176l-553 500v-500h-139v963h-256v112z" />
    <glyph glyph-name="uni04A2" unicode="&#x4a2;" horiz-adv-x="1433" 
d="M1110 698h-815v-698h-139v1489h139v-674h815v674h139v-1385h97v-438h-140v334h-96v698z" />
    <glyph glyph-name="uni04A3" unicode="&#x4a3;" horiz-adv-x="1208" 
d="M897 498h-602v-498h-139v1075h139v-461h602v461h139v-971h94v-438h-139v334h-94v498z" />
    <glyph glyph-name="uni04A4" unicode="&#x4a4;" horiz-adv-x="1945" 
d="M1110 698h-815v-698h-139v1489h139v-674h815v674h803v-113h-664v-1376h-139v698z" />
    <glyph glyph-name="uni04A5" unicode="&#x4a5;" horiz-adv-x="1556" 
d="M897 498h-602v-498h-139v1075h139v-461h602v461h635v-112h-496v-963h-139v498z" />
    <glyph glyph-name="uni04A6" unicode="&#x4a6;" horiz-adv-x="2068" 
d="M1575 977q-139 0 -391 -117v-860h-140v1376h-749v-1376h-139v1489h1028v-520q502 225 637 83t135 -280v-848q0 -370 -236 -338q-225 35 -303 54v98q289 -66 343 -1t55 181v854q0 205 -240 205z" />
    <glyph glyph-name="uni04A7" unicode="&#x4a7;" horiz-adv-x="1822" 
d="M1348 518q-135 0 -371 -117v-401h-125v963h-557v-963h-139v1075h821v-565q258 127 422 120t247 -92t83 -225v-389q0 -370 -238 -338q-229 37 -301 54v98q289 -66 343 -1t54 181v395q1 205 -239 205z" />
    <glyph glyph-name="uni04A8" unicode="&#x4a8;" horiz-adv-x="1454" 
d="M1310 109q81 0 142 12l16 -109q-221 -61 -458 41q-133 -63 -299 -63t-284 66t-189 173q-76 101 -111 245t-35 382t121 442q117 209 385 209q80 0 141 -20q0 -2 -6 -37t-10 -70q-51 10 -139 11q-178 0 -265 -183q-82 -182 -81 -446q0 -430 162 -542t276 -112q113 0 217 27
q-209 209 -209 619q0 272 57 383t119 153q59 45 152 45q332 0 331 -590q1 -279 -81 -419t-138 -191q105 -26 186 -26zM1221 748q1 238 -49 352t-160 114t-156 -112q-43 -117 -43 -344q0 -379 199 -559q209 184 209 549z" />
    <glyph glyph-name="uni04A9" unicode="&#x4a9;" horiz-adv-x="1064" 
d="M207 594q0 -508 319 -508q25 0 103 10q-127 168 -127 436q-2 424 244 424t245 -428q0 -256 -135 -432q113 -23 209 4l16 -98q-75 -25 -163 -25t-173 70q-96 -70 -217 -70q-226 0 -336 164t-110 401t86 386t238 149q88 0 118 -8l-16 -102q-29 6 -79 6t-134 -72
q-88 -67 -88 -307zM881 560q0 286 -130 286t-135 -287q0 -285 129 -430q136 145 136 431z" />
    <glyph glyph-name="uni04AA" unicode="&#x4aa;" horiz-adv-x="1189" 
d="M727 1389q-463 0 -463 -645t465 -640q145 0 379 46v-99q-195 -51 -412 -61l-10 -60h41q158 0 158 -153q0 -80 -44 -128q-45 -48 -143 -48t-180 20v92q66 -14 163 -14t97 78q0 66 -73 65h-158l43 154q-473 61 -473 747q0 760 571 760q223 0 420 -61v-94q-211 41 -381 41z
" />
    <glyph glyph-name="uni04AB" unicode="&#x4ab;" horiz-adv-x="976" 
d="M96 506q0 582 467 581q160 0 326 -57v-88q-139 35 -256 35q-223 0 -309 -111q-84 -113 -84 -274q0 -284 87 -392t259 -108t319 37v-88q-160 -55 -334 -57l-10 -54h41q158 0 158 -153q0 -78 -44 -127t-142 -49t-181 20v92q66 -14 163 -14t97 78q0 66 -73 65h-158l41 150
q-211 26 -289 192t-78 322z" />
    <glyph glyph-name="uni04AC" unicode="&#x4ac;" horiz-adv-x="1325" 
d="M729 0h-137v1374h-535v115h1231l-41 -115h-516v-1270h137v-438h-139v334z" />
    <glyph glyph-name="uni04AD" unicode="&#x4ad;" horiz-adv-x="901" 
d="M520 0h-137v961h-358v114h872l-41 -114h-334v-857h137v-438h-139v334z" />
    <glyph glyph-name="uni04AE" unicode="&#x4ae;" horiz-adv-x="1314" 
d="M731 0h-143v659l-535 830h154l452 -709l451 709h154l-533 -830v-659z" />
    <glyph glyph-name="uni04AF" unicode="&#x4af;" horiz-adv-x="1187" 
d="M670 -399h-144v497l-485 977h156l401 -856l397 856h156l-481 -977v-497z" />
    <glyph glyph-name="uni04B0" unicode="&#x4b0;" horiz-adv-x="1314" 
d="M225 739h312l-484 750h154l452 -709l451 709h154l-482 -750h308v-104h-359v-635h-143v635h-363v104z" />
    <glyph glyph-name="uni04B1" unicode="&#x4b1;" horiz-adv-x="1187" 
d="M164 113h354l-477 962h156l401 -856l397 856h156l-475 -962h352v-105h-358v-407h-144v407h-362v105z" />
    <glyph glyph-name="uni04B2" unicode="&#x4b2;" horiz-adv-x="1310" 
d="M1163 0h-67l-443 633l-444 -633h-154l520 743l-522 746h160l442 -633l443 633h155l-520 -744l449 -641h121v-438h-140v334z" />
    <glyph glyph-name="uni04B3" unicode="&#x4b3;" horiz-adv-x="1146" 
d="M961 0h-60l-356 444l-357 -444h-151l432 539l-432 538h151l357 -444l356 444h152l-432 -538l350 -437h129v-438h-139v336z" />
    <glyph glyph-name="uni04B4" unicode="&#x4b4;" horiz-adv-x="1781" 
d="M20 1489h1244l-41 -113h-551v-1259h807v1372h139v-1385h96v-438h-139v334h-1043v1376h-512v113z" />
    <glyph glyph-name="uni04B5" unicode="&#x4b5;" horiz-adv-x="1392" 
d="M20 1075h877l-41 -112h-364v-846h589v958h140v-971h94v-438h-139v334h-824v963h-332v112z" />
    <glyph glyph-name="uni04B6" unicode="&#x4b6;" horiz-adv-x="1228" 
d="M143 758v710l140 41v-768q0 -104 61 -147t177 -43t380 94v844h141v-1385h129v-438h-139v334h-131v549q-264 -104 -377 -105q-197 0 -286 76q-95 76 -95 238z" />
    <glyph glyph-name="uni04B7" unicode="&#x4b7;" horiz-adv-x="1228" 
d="M143 592v463l140 41v-521q0 -104 61 -147t177 -43t380 94v596h141v-971h127v-438h-139v334h-129v383q-264 -104 -377 -104q-197 -1 -289 75t-92 238z" />
    <glyph glyph-name="uni04B8" unicode="&#x4b8;" horiz-adv-x="1228" 
d="M653 467v-281h-104v260q-12 -2 -25 -2h-45q-231 0 -284 113q-51 115 -52 201v710l140 41v-768q0 -104 61 -147t178 -43h27v246h104v-232q53 14 248 80v844h141v-1489h-141v549q-197 -82 -248 -82z" />
    <glyph glyph-name="uni04B9" unicode="&#x4b9;" horiz-adv-x="1228" 
d="M653 301v-213h-104v193q-12 -2 -25 -2h-45q-233 0 -284 114q-51 109 -52 199v463l140 41v-521q0 -104 61 -147t178 -43h27v272h104v-258q53 14 248 80v596h141v-1075h-141v383q-197 -82 -248 -82z" />
    <glyph glyph-name="uni04BA" unicode="&#x4ba;" horiz-adv-x="1200" 
d="M676 979q-135 0 -391 -117v-862h-140v1499l140 41v-569q502 225 637 83t135 -280v-774h-142v774q1 205 -239 205z" />
    <glyph glyph-name="uni04BB" unicode="&#x4bb;" horiz-adv-x="1064" 
d="M563 979q-86 0 -278 -72v-907h-140v1499l140 41v-524q195 80 345 74t232 -92t82 -224v-774h-141v774q0 205 -240 205z" />
    <glyph glyph-name="uni04BC" unicode="&#x4bc;" horiz-adv-x="1781" 
d="M1663 786q0 -82 -6 -127h-1145q23 -434 215 -495q191 -64 373 -64t497 93v-111q-291 -94 -575 -94t-430 102q-147 96 -205 307q-29 125 -35 265h-2q-135 0 -235 53q-94 53 -45 303h104q-4 -29 -4 -39v-37q0 -82 28 -128t154 -46q8 348 167 538t505 189q639 0 639 -709z
M1024 1382q-252 0 -375 -148t-137 -468h1004q-10 324 -123 471q-117 145 -369 145z" />
    <glyph glyph-name="uni04BD" unicode="&#x4bd;" horiz-adv-x="1454" 
d="M872 1087q463 0 463 -522v-43q0 -47 -2 -53h-805q10 -203 85 -290t278 -87t399 53v-94q-202 -65 -414 -65t-315 75q-109 72 -141 190t-33 218h-22q-139 0 -236 49q-94 49 -45 299h104q-6 -39 -6 -86q0 -96 39 -131q41 -33 154 -33h12q7 334 159 427t326 93zM872 981
q-262 0 -299 -154q-39 -150 -45 -260h672q-2 211 -78 314q-70 100 -250 100z" />
    <glyph glyph-name="uni04BE" unicode="&#x4be;" horiz-adv-x="1781" 
d="M1077 -272h-104v260q-477 12 -586 409q-29 125 -35 265h-2q-135 0 -235 53q-94 53 -45 303h104q-4 -29 -4 -39v-37q0 -82 28 -128t154 -46q8 348 167 538t505 189q639 0 639 -709q0 -82 -6 -127h-1145q23 -434 215 -495q191 -64 373 -64t497 93v-111q-274 -84 -520 -92
v-262zM1024 1382q-252 0 -375 -148t-137 -468h1004q-10 324 -123 471q-117 145 -369 145z" />
    <glyph glyph-name="uni04BF" unicode="&#x4bf;" horiz-adv-x="1454" 
d="M365 469q-139 0 -236 49q-94 49 -45 299h104q-6 -39 -6 -86q0 -96 39 -131q41 -33 154 -33h12q8 334 160 427t325 93q463 0 463 -522v-43q0 -47 -2 -53h-805q10 -203 85 -290t278 -87t399 53v-94q-186 -57 -364 -63v-260h-105v260q-416 10 -434 481h-22zM872 981
q-262 0 -299 -154q-39 -150 -45 -260h672q-2 211 -78 314q-70 100 -250 100z" />
    <glyph glyph-name="uni04C0" unicode="&#x4c0;" horiz-adv-x="495" 
d="M178 1489h141v-1489h-141v1489z" />
    <glyph glyph-name="uni04C1" unicode="&#x4c1;" horiz-adv-x="1761" 
d="M805 791v698h147v-698h60l506 698h159l-532 -703q168 0 241 -49q74 -45 111 -141q43 -132 111 -318t96 -278h-141l-185 537q-59 164 -219 163h-207v-700h-147v700h-211q-156 0 -209 -147q-12 -37 -63 -176t-132 -377h-139l105 295q42 116 82 227t93 190q54 79 273 79
l-524 698h158l505 -698h62zM866 1683q125 0 170 129h113q-2 -94 -59 -143q-52 -49 -102 -68t-145 -19t-168 69q-73 70 -73 161h111q28 -129 153 -129z" />
    <glyph glyph-name="uni04C2" unicode="&#x4c2;" horiz-adv-x="1433" 
d="M645 1075h133v-502l424 502h154l-445 -502q215 -1 269 -79t200 -494h-137l-113 328q-45 135 -118 147q-90 8 -103 8h-131v-483h-133v483h-129q-127 0 -164 -51q-36 -45 -66 -134t-58 -169t-46 -129h-137q145 414 175 459t87 80t205 34l-444 502h147l430 -502v502z
M697 1270q124 0 171 129h113q-2 -94 -59 -144q-52 -49 -102 -68t-145 -19t-168 69q-73 70 -73 162h111q28 -129 152 -129z" />
    <glyph glyph-name="uni04C3" unicode="&#x4c3;" horiz-adv-x="1294" 
d="M301 0h-137v1489h137v-680l741 680h175l-787 -731l631 -600q117 -111 156 -224q33 -113 -70 -196q-84 -80 -137 -119l-95 84q61 53 84 75t35 42q53 72 32 126t-101 132l-664 631v-709z" />
    <glyph glyph-name="uni04C4" unicode="&#x4c4;" horiz-adv-x="1126" 
d="M293 0h-139v1075h139v-473l545 473h180l-604 -522l438 -395q117 -111 156 -224q33 -113 -70 -196q-84 -80 -137 -119l-94 84q61 53 83 75t35 42q53 72 32 126t-101 132l-463 422v-500z" />
    <glyph glyph-name="uni04C5" unicode="&#x4c5;" horiz-adv-x="1566" 
d="M436 317v1172h842v-1385h137l-205 -438h-147l156 334h-80v1376h-561v-1091q0 -137 -86 -244q-84 -113 -451 -23v105q271 -57 333 6t62 188z" />
    <glyph glyph-name="uni04C6" unicode="&#x4c6;" horiz-adv-x="1228" 
d="M258 248v827h711v-971h139l-205 -438h-147l155 334h-82v963h-432v-748q0 -98 -53 -164q-56 -63 -154 -63t-188 22v88q66 -16 138 -16t98 33q20 35 20 133z" />
    <glyph glyph-name="uni04C7" unicode="&#x4c7;" horiz-adv-x="1404" 
d="M1110 -82v780h-815v-698h-139v1489h139v-674h815v674h139v-1565q0 -370 -237 -338q-229 37 -301 54v98q289 -66 342 0q57 59 57 180z" />
    <glyph glyph-name="uni04C8" unicode="&#x4c8;" horiz-adv-x="1193" 
d="M897 -82v580h-602v-498h-139v1075h139v-461h602v461h139v-1151q0 -370 -237 -338q-229 37 -301 54v98q289 -66 342 0q57 59 57 180z" />
    <glyph glyph-name="uni04C9" unicode="&#x4c9;" horiz-adv-x="1413" 
d="M1110 698h-815v-698h-139v1489h139v-674h815v674h139v-1385h148l-205 -438h-148l156 334h-90v698z" />
    <glyph glyph-name="uni04CA" unicode="&#x4ca;" horiz-adv-x="1208" 
d="M897 498h-602v-498h-139v1075h139v-461h602v461h139v-971h148l-205 -438h-148l156 334h-90v498z" />
    <glyph glyph-name="uni04CB" unicode="&#x4cb;" horiz-adv-x="1228" 
d="M521 551q116 0 380 94v844h141v-1489h-137v-334h-139v438h135v445q-264 -104 -377 -105q-196 0 -288 76t-93 238v710l140 41v-768q0 -104 61 -147t177 -43z" />
    <glyph glyph-name="uni04CC" unicode="&#x4cc;" horiz-adv-x="1228" 
d="M521 385q116 0 380 94v596h141v-1075h-137v-334h-139v438h135v279q-264 -104 -377 -104q-196 -1 -288 75t-93 238v463l140 41v-521q0 -104 61 -147t177 -43z" />
    <glyph glyph-name="uni04CD" unicode="&#x4cd;" horiz-adv-x="1761" 
d="M1452 0v1370l-485 -1313h-193l-481 1313v-1370h-133v1489h231l479 -1323l484 1323h229v-1385h148l-205 -438h-148l156 334h-82z" />
    <glyph glyph-name="uni04CE" unicode="&#x4ce;" horiz-adv-x="1331" 
d="M1016 0v954l-309 -913h-129l-322 913v-954h-131v1075h217l301 -895l287 895h217v-971h147l-204 -438h-148l156 334h-82z" />
    <glyph glyph-name="uni04CF" unicode="&#x4cf;" horiz-adv-x="495" 
d="M178 1489h141v-1489h-141v1489z" />
    <glyph glyph-name="uni04D0" unicode="&#x4d0;" horiz-adv-x="1333" 
d="M1001 403h-669l-137 -403h-140l516 1489h193l516 -1489h-139zM371 514h594l-297 866zM401 1812h111q29 -129 154 -129t170 129h112q-2 -94 -80 -161q-76 -70 -198 -70t-196 70q-73 70 -73 161z" />
    <glyph glyph-name="uni04D1" unicode="&#x4d1;" horiz-adv-x="1144" 
d="M524 1087q477 0 477 -317v-770h-133v111q-219 -125 -409 -125q-362 0 -363 315q0 109 68 223q63 111 283 129t413 19v55q0 162 -95 208t-269 43t-303 -24v95q188 38 331 38zM246 315q0 -227 258 -227q178 0 356 117v377q-457 0 -536 -84q-78 -85 -78 -183zM551 1270
q125 0 170 129h113q-2 -94 -79 -163t-200 -69t-196 70t-72 162h110q29 -129 154 -129z" />
    <glyph glyph-name="uni04D2" unicode="&#x4d2;" horiz-adv-x="1333" 
d="M1001 403h-669l-137 -403h-140l516 1489h193l516 -1489h-139zM371 514h594l-297 866zM369 1778h186v-197h-186v197zM780 1778h187v-197h-187v197z" />
    <glyph glyph-name="uni04D3" unicode="&#x4d3;" horiz-adv-x="1144" 
d="M524 1087q477 0 477 -317v-770h-133v111q-219 -125 -409 -125q-362 0 -363 315q0 109 68 223q63 111 283 129t413 19v55q0 162 -95 208t-269 43t-303 -24v95q188 38 331 38zM246 315q0 -227 258 -227q178 0 356 117v377q-457 0 -536 -84q-78 -85 -78 -183zM276 1364h187
v-197h-187v197zM688 1364h186v-197h-186v197z" />
    <glyph glyph-name="uni04D4" unicode="&#x4d4;" horiz-adv-x="1843" 
d="M887 410h-469l-199 -410h-141l723 1489h954v-113h-735v-565h700l-41 -115h-659v-583h735v-113h-868v410zM887 520v848l-414 -848h414z" />
    <glyph glyph-name="uni04D5" unicode="&#x4d5;" horiz-adv-x="1843" 
d="M1284 1087q463 0 463 -522v-43q0 -47 -2 -53h-784q11 -209 77 -293t267 -84t397 53v-94q-203 -65 -383 -65t-263 32t-138 101q-20 20 -23 31q-231 -164 -506 -164q-139 0 -229 80q-86 80 -86 212t65 246q68 111 278 129t400 19v55q0 164 -84 207q-84 49 -259 46t-304 -26
v95q188 39 375 38q279 0 370 -155q2 8 43 51q95 104 326 104zM223 315q0 -227 258 -227q182 0 375 141q-37 129 -37 297v43l-2 13q-436 0 -515 -84t-79 -183zM1283 981q-179 0 -245 -95t-77 -319h651q-2 209 -76 314q-74 100 -253 100z" />
    <glyph glyph-name="uni04D6" unicode="&#x4d6;" horiz-adv-x="1230" 
d="M156 1489h974v-113h-833v-565h799l-41 -115h-758v-583h833v-113h-974v1489zM633 1683q125 0 172 129h113q-2 -92 -58 -142t-104 -69t-144 -19t-169 69q-73 70 -72 161h110q27 -129 152 -129z" />
    <glyph glyph-name="uni04D7" unicode="&#x4d7;" horiz-adv-x="1144" 
d="M584 1087q463 0 463 -522v-37q0 -45 -3 -59h-804q8 -199 84 -289q80 -88 280 -88t397 53v-94q-389 -127 -731 -2q-172 61 -172 477q1 561 486 561zM584 981q-260 0 -301 -154q-37 -154 -43 -260h671q-2 209 -75 314q-74 100 -252 100zM571 1270q125 0 170 129h113
q-2 -94 -59 -144q-51 -49 -101 -68t-146 -19q-95 0 -168 69q-73 70 -73 162h111q28 -129 153 -129z" />
    <glyph glyph-name="uni04D8" unicode="&#x4d8;" horiz-adv-x="1576" 
d="M127 696q0 82 6 127h1145q-23 435 -214 497q-192 62 -374 62t-497 -92v111q291 94 529 94t362 -45t239 -176q115 -137 115 -519t-164 -573q-160 -195 -508 -194q-639 -1 -639 708zM766 100q250 0 373 144q119 145 139 473h-1004q12 -477 188 -547t304 -70z" />
    <glyph glyph-name="uni04D9" unicode="&#x4d9;" horiz-adv-x="1144" 
d="M561 -14q-463 0 -463 522v37q0 45 2 59h805q-10 203 -85 290q-76 87 -278 87t-399 -53v94q197 63 440 63t355 -131q109 -137 109 -407q-1 -561 -486 -561zM561 92q178 0 255 95t89 319h-672q1 -217 59 -291q58 -75 118 -99t151 -24z" />
    <glyph glyph-name="uni04DA" unicode="&#x4da;" horiz-adv-x="1576" 
d="M127 696q0 82 6 127h1145q-23 435 -214 497q-192 62 -374 62t-497 -92v111q291 94 529 94t362 -45t239 -176q115 -137 115 -519t-164 -573q-160 -195 -508 -194q-639 -1 -639 708zM766 100q250 0 373 144q119 145 139 473h-1004q12 -477 188 -547t304 -70zM473 1778h186
v-197h-186v197zM885 1778h186v-197h-186v197z" />
    <glyph glyph-name="uni04DB" unicode="&#x4db;" horiz-adv-x="1144" 
d="M561 -14q-463 0 -463 522v37q0 45 2 59h805q-10 203 -85 290q-76 87 -278 87t-399 -53v94q197 63 440 63t355 -131q109 -137 109 -407q-1 -561 -486 -561zM561 92q178 0 255 95t89 319h-672q1 -217 59 -291q58 -75 118 -99t151 -24zM287 1364h186v-197h-186v197z
M698 1364h187v-197h-187v197z" />
    <glyph glyph-name="uni04DC" unicode="&#x4dc;" horiz-adv-x="1761" 
d="M805 791v698h147v-698h60l506 698h159l-532 -703q168 0 241 -49q74 -45 111 -141q43 -132 111 -318t96 -278h-141l-185 537q-59 164 -219 163h-207v-700h-147v700h-211q-156 0 -209 -147q-12 -37 -63 -176t-132 -377h-139l105 295q42 116 82 227t93 190q54 79 273 79
l-524 698h158l505 -698h62zM578 1778h186v-197h-186v197zM989 1778h187v-197h-187v197z" />
    <glyph glyph-name="uni04DD" unicode="&#x4dd;" horiz-adv-x="1433" 
d="M645 1075h133v-502l424 502h154l-445 -502q215 -1 269 -79t200 -494h-137l-113 328q-45 135 -118 147q-90 8 -103 8h-131v-483h-133v483h-129q-127 0 -164 -51q-36 -45 -66 -134t-58 -169t-46 -129h-137q145 414 175 459t87 80t205 34l-444 502h147l430 -502v502z
M418 1364h186v-197h-186v197zM829 1364h187v-197h-187v197z" />
    <glyph glyph-name="uni04DE" unicode="&#x4de;" horiz-adv-x="1112" 
d="M512 1499q434 0 434 -350q0 -264 -287 -363q348 -66 349 -393q-2 -414 -490 -413q-231 0 -450 133v104q244 -123 432 -123t273 76t87 199q2 205 -119 278q-123 70 -360 70h-59v110h59q283 0 353 110t69 218q0 229 -316 229q-131 0 -231 -50t-135 -74v104q172 135 391 135
zM244 1778h186v-197h-186v197zM655 1778h187v-197h-187v197z" />
    <glyph glyph-name="uni04DF" unicode="&#x4df;" horiz-adv-x="860" 
d="M598 815q0 158 -195 154q-139 -2 -278 -90v100q123 96 278 98q332 8 332 -258q0 -137 -84 -192q-88 -53 -133 -64q121 -12 191 -89t69 -193q0 -311 -356 -304q-178 4 -334 93v102q158 -78 299 -82t197 45t55 160q0 111 -86 156q-88 45 -244 45h-51v112h51q289 0 289 207z
M123 1364h186v-197h-186v197zM535 1364h186v-197h-186v197z" />
    <glyph glyph-name="uni04E0" unicode="&#x4e0;" horiz-adv-x="1228" 
d="M983 238q0 434 -463 454v142l441 542h-822v113h969v-133l-442 -547q252 -41 360 -189t107 -382q0 -637 -560 -637q-219 1 -354 109t-143 331h149q1 -158 97 -241t256 -83q405 1 405 521z" />
    <glyph glyph-name="uni04E1" unicode="&#x4e1;" horiz-adv-x="983" 
d="M72 -10h139q4 -131 74 -203t170 -72q174 0 241 90q66 89 66 265t-83 260t-271 90v119l358 399v23h-633v114h758v-166l-346 -379q172 -25 270 -149q94 -129 94 -272q0 -276 -102 -392q-98 -117 -355 -117t-319 148q-61 148 -61 242z" />
    <glyph glyph-name="uni04E2" unicode="&#x4e2;" horiz-adv-x="1437" 
d="M1278 0h-129v1368l-778 -1368h-211v1489h131v-1374l776 1374h211v-1489zM375 1739h696v-105h-696v105z" />
    <glyph glyph-name="uni04E3" unicode="&#x4e3;" horiz-adv-x="1214" 
d="M297 1075v-952l555 952h203v-1075h-140v965l-559 -965h-198v1075h139zM266 1305h697v-105h-697v105z" />
    <glyph glyph-name="uni04E4" unicode="&#x4e4;" horiz-adv-x="1437" 
d="M1278 0h-129v1368l-778 -1368h-211v1489h131v-1374l776 1374h211v-1489zM424 1778h186v-197h-186v197zM836 1778h186v-197h-186v197z" />
    <glyph glyph-name="uni04E5" unicode="&#x4e5;" horiz-adv-x="1214" 
d="M297 1075v-952l555 952h203v-1075h-140v965l-559 -965h-198v1075h139zM315 1364h187v-197h-187v197zM727 1364h186v-197h-186v197z" />
    <glyph glyph-name="uni04E6" unicode="&#x4e6;" horiz-adv-x="1406" 
d="M702 1393q-244 0 -342 -168q-96 -151 -96 -490q0 -157 22 -279t99 -239q79 -117 319 -117t339 148t100 487q0 496 -159 577t-282 81zM700 -10q-461 0 -522 278t-61 466q1 186 29 330t98 242t182 147q112 50 352 50t375 -191q135 -190 135 -576t-133 -568
q-135 -178 -455 -178zM401 1778h187v-197h-187v197zM813 1778h186v-197h-186v197z" />
    <glyph glyph-name="uni04E7" unicode="&#x4e7;" horiz-adv-x="1165" 
d="M98 524q0 563 482 563t487 -563q0 -391 -177 -465t-304 -73q-246 0 -367 142t-121 396zM920 524q0 344 -128 402t-204 57q-342 1 -342 -445t342 -450q332 0 332 436zM287 1364h186v-197h-186v197zM698 1364h187v-197h-187v197z" />
    <glyph glyph-name="uni04E8" unicode="&#x4e8;" horiz-adv-x="1406" 
d="M700 -10q-461 0 -522 278t-61 466q1 186 29 330t98 242t182 147q112 50 352 50t375 -191q135 -190 135 -576t-133 -568q-135 -178 -455 -178zM699 100q187 0 311 104t133 490h-879q2 -145 30 -283q28 -139 123 -225t282 -86zM699 1393q-183 0 -303 -114t-132 -472h877
q-2 111 -29 252t-125 239q-105 95 -288 95z" />
    <glyph glyph-name="uni04E9" unicode="&#x4e9;" horiz-adv-x="1165" 
d="M98 524q0 563 482 563t487 -563q0 -391 -177 -465t-304 -73q-246 0 -367 142t-121 396zM588 88q309 0 330 389h-672q8 -389 342 -389zM588 983q-158 0 -244 -102t-96 -291h670q-39 393 -330 393z" />
    <glyph glyph-name="uni04EA" unicode="&#x4ea;" horiz-adv-x="1406" 
d="M700 -10q-461 0 -522 278t-61 466q1 186 29 330t98 242t182 147q112 50 352 50t375 -191q135 -190 135 -576t-133 -568q-135 -178 -455 -178zM699 100q187 0 311 104t133 490h-879q2 -145 30 -283q28 -139 123 -225t282 -86zM699 1393q-183 0 -303 -114t-132 -472h877
q-2 111 -29 252t-125 239q-105 95 -288 95zM813 1778h186v-197h-186v197zM401 1778h187v-197h-187v197z" />
    <glyph glyph-name="uni04EB" unicode="&#x4eb;" horiz-adv-x="1165" 
d="M98 524q0 563 482 563t487 -563q0 -391 -177 -465t-304 -73q-246 0 -367 142t-121 396zM588 88q309 0 330 389h-672q8 -389 342 -389zM588 983q-158 0 -244 -102t-96 -291h670q-39 393 -330 393zM698 1364h187v-197h-187v197zM287 1364h186v-197h-186v197z" />
    <glyph glyph-name="uni04EC" unicode="&#x4ec;" horiz-adv-x="1189" 
d="M502 1389q-174 0 -385 -41v94q197 61 420 61q571 0 571 -760q0 -539 -210 -647t-384 -106q-174 0 -397 61v99q233 -46 400 -46t299 120t145 470h-580l-41 113h618q-23 582 -456 582zM670 1778h186v-197h-186v197zM258 1778h186v-197h-186v197z" />
    <glyph glyph-name="uni04ED" unicode="&#x4ed;" horiz-adv-x="976" 
d="M397 977q-141 0 -284 -35v88q166 57 307 57q485 0 485 -546q0 -406 -172 -480q-169 -77 -323 -77t-314 57v88q147 -37 297 -37q354 0 367 385h-486l-41 113h527q-12 387 -363 387zM586 1364h186v-197h-186v197zM174 1364h186v-197h-186v197z" />
    <glyph glyph-name="uni04EE" unicode="&#x4ee;" 
d="M1042 309q0 -319 -467 -319q-133 0 -321 39v90q141 -23 240 -23q219 0 313 46t94 210v195q-264 -104 -377 -105q-196 0 -288 76t-93 238v710l140 41v-768q0 -104 61 -147t177 -43t380 94v844h141v-1178zM252 1739h696v-105h-696v105z" />
    <glyph glyph-name="uni04EF" unicode="&#x4ef;" 
d="M1042 -74q0 -319 -467 -319q-133 0 -321 39v90q141 -23 240 -23q219 0 313 46t94 210v166q-264 -104 -377 -104q-196 -1 -288 75t-93 238v711l140 41v-768q0 -104 61 -148t177 -43q116 0 380 94v844h141v-1149zM258 1325h696v-104h-696v104z" />
    <glyph glyph-name="uni04F0" unicode="&#x4f0;" 
d="M1042 309q0 -319 -467 -319q-133 0 -321 39v90q141 -23 240 -23q219 0 313 46t94 210v195q-264 -104 -377 -105q-196 0 -288 76t-93 238v710l140 41v-768q0 -104 61 -147t177 -43t380 94v844h141v-1178zM313 1778h187v-197h-187v197zM725 1778h186v-197h-186v197z" />
    <glyph glyph-name="uni04F1" unicode="&#x4f1;" 
d="M1042 -74q0 -319 -467 -319q-133 0 -321 39v90q141 -23 240 -23q219 0 313 46t94 210v166q-264 -104 -377 -104q-196 -1 -288 75t-93 238v711l140 41v-768q0 -104 61 -148t177 -43q116 0 380 94v844h141v-1149zM313 1364h187v-197h-187v197zM725 1364h186v-197h-186v197z
" />
    <glyph glyph-name="uni04F2" unicode="&#x4f2;" 
d="M1042 309q0 -319 -467 -319q-133 0 -321 39v90q141 -23 240 -23q219 0 313 46t94 210v195q-264 -104 -377 -105q-196 0 -288 76t-93 238v710l140 41v-768q0 -104 61 -147t177 -43t380 94v844h141v-1178zM354 1581l127 260h191l-215 -260h-103zM678 1581l127 260h190
l-215 -260h-102z" />
    <glyph glyph-name="uni04F3" unicode="&#x4f3;" 
d="M1042 -74q0 -319 -467 -319q-133 0 -321 39v90q141 -23 240 -23q219 0 313 46t94 210v166q-264 -104 -377 -104q-196 -1 -288 75t-93 238v711l140 41v-768q0 -104 61 -148t177 -43q116 0 380 94v844h141v-1149zM367 1167l127 260h190l-215 -260h-102zM690 1167l127 260
h191l-215 -260h-103z" />
    <glyph glyph-name="uni04F4" unicode="&#x4f4;" horiz-adv-x="1228" 
d="M143 758v710l140 41v-768q0 -104 61 -147t177 -43t380 94v844h141v-1489h-141v549q-264 -104 -377 -105q-197 0 -286 76q-95 76 -95 238zM313 1778h187v-197h-187v197zM725 1778h186v-197h-186v197z" />
    <glyph glyph-name="uni04F5" unicode="&#x4f5;" horiz-adv-x="1228" 
d="M143 592v463l140 41v-521q0 -104 61 -147t177 -43t380 94v596h141v-1075h-141v383q-264 -104 -377 -104q-197 -1 -289 75t-92 238zM313 1364h187v-197h-187v197zM725 1364h186v-197h-186v197z" />
    <glyph glyph-name="uni04F6" unicode="&#x4f6;" horiz-adv-x="1044" 
d="M291 0h-135v1489h841l-43 -113h-659v-1272h135v-438h-139v334z" />
    <glyph glyph-name="uni04F7" unicode="&#x4f7;" horiz-adv-x="860" 
d="M291 0h-135v1075h686l-41 -112h-506v-859h135v-438h-139v334z" />
    <glyph glyph-name="uni04F8" unicode="&#x4f8;" horiz-adv-x="1576" 
d="M1090 403q0 -403 -465 -403h-441v1489h140v-678h301q250 0 358 -102q107 -105 107 -306zM633 111q309 0 309 292q0 160 -70 230q-74 68 -239 67h-309v-589h309zM1243 1489h141v-1489h-141v1489zM492 1778h186v-197h-186v197zM903 1778h187v-197h-187v197z" />
    <glyph glyph-name="uni04F9" unicode="&#x4f9;" horiz-adv-x="1495" 
d="M655 614q175 0 265 -68t90 -307t-355 -239h-495v1075h139v-461h356zM639 111q106 0 172 45q63 46 63 158t-65 149q-61 41 -170 41h-340v-393h340zM1180 1075h141v-1075h-141v1075zM451 1364h186v-197h-186v197zM862 1364h187v-197h-187v197z" />
    <glyph glyph-name="uni04FA" unicode="&#x4fa;" horiz-adv-x="1105" 
d="M274 -82v82h-118v705h-156v112h156v672h841v-113h-702v-559h364v-112h-364v-601h119v-180q0 -399 -451 -305v102q215 -31 263 25t48 172z" />
    <glyph glyph-name="uni04FB" unicode="&#x4fb;" horiz-adv-x="942" 
d="M274 -82v82h-118v502h-156v112h156v461h686v-112h-547v-349h285v-112h-285v-398h119v-180q0 -399 -451 -305v102q215 -31 263 25t48 172z" />
    <glyph glyph-name="uni04FC" unicode="&#x4fc;" horiz-adv-x="1310" 
d="M575 743l-522 746h160l442 -633l443 633h155l-520 -744l408 -579q96 -133 108 -258t-264 -264l-72 90q84 37 125 78q74 72 66 128t-74 152l-377 541l-444 -633h-154z" />
    <glyph glyph-name="uni04FD" unicode="&#x4fd;" horiz-adv-x="1089" 
d="M545 633l356 444h152l-432 -538l297 -371q228 -299 36 -434q-100 -74 -143 -101l-72 74q84 47 136 109t40 122q-12 62 -79 144l-291 362l-357 -444h-151l432 539l-432 538h151z" />
    <glyph glyph-name="uni04FE" unicode="&#x4fe;" horiz-adv-x="1310" 
d="M203 797h336l-486 692h160l442 -633l443 633h155l-485 -692h336v-105h-334l485 -692h-159l-443 633l-444 -633h-154l484 692h-336v105z" />
    <glyph glyph-name="uni04FF" unicode="&#x4ff;" horiz-adv-x="1089" 
d="M123 592h303l-389 485h151l357 -444l356 444h152l-389 -485h299v-105h-301l391 -487h-152l-356 444l-357 -444h-151l391 487h-305v105z" />
  </font>
</defs>
</svg>
